<svg width="41" height="41" viewBox="0 0 41 41" fill="none" xmlns="http://www.w3.org/2000/svg">
<path d="M0.226562 35.9896V1.82296C0.773229 0.911849 1.66916 0.380367 2.04878 0.228516H23.0043C28.1066 0.228516 29.0784 1.59518 28.9266 2.27852L28.6988 21.1841H33.2543C35.6232 21.1841 38.7969 22.3989 40.0877 23.0063V39.1785C39.3284 39.4822 36.8077 40.1807 32.7988 40.5452C28.7899 40.9096 25.0543 39.7859 23.6877 39.1785V37.1285C18.221 37.0526 6.60434 36.9463 3.87101 37.1285C1.13767 37.3107 0.302488 36.4452 0.226562 35.9896Z" fill="#D3F9FC"/>
<path d="M38.1058 21.4635C36.5859 21.1475 34.5268 20.9805 32.1514 20.9805C31.171 20.9805 30.2456 21.0094 29.3887 21.065V2.20215C29.3887 0.987924 28.4007 0 27.1865 0H2.20215C0.926103 0 0 1.06087 0 2.52246V35.7549C0 36.6251 0.961978 37.6367 2.20215 37.6367H23.3027V38.5576C23.3027 39.9153 25.481 40.3681 26.1969 40.517C27.7169 40.833 29.7759 41 32.1514 41C34.5268 41 36.5859 40.833 38.1058 40.517C38.8217 40.3681 41 39.9153 41 38.5576V23.4229C41 22.0652 38.8217 21.6124 38.1058 21.4635ZM39.7988 30.9864C39.7864 31.0122 39.5365 31.4536 37.6606 31.8138C36.2369 32.0871 34.3318 32.2315 32.1514 32.2315C29.9709 32.2315 28.0659 32.0871 26.6422 31.8138C24.7201 31.4448 24.5049 30.9902 24.5039 30.9902V28.6498C25.1325 28.9442 25.8431 29.0923 26.1969 29.1658C27.7169 29.4818 29.7759 29.6488 32.1514 29.6488C34.5268 29.6488 36.5859 29.4818 38.1058 29.1658C38.4595 29.0923 39.1702 28.9442 39.7988 28.6498V30.9864ZM15.4551 31.1104C15.1233 31.1104 14.8545 31.3792 14.8545 31.7109V33.2324H5.72559C5.41256 33.2324 5.20508 32.976 5.20508 32.8721V26.9062H14.8545V28.9082C14.8545 29.24 15.1233 29.5088 15.4551 29.5088C15.7868 29.5088 16.0557 29.24 16.0557 28.9082V26.9062H23.3027V33.2324H16.0557V31.7109C16.0557 31.3792 15.7868 31.1104 15.4551 31.1104ZM25.7051 21.5732C24.7842 21.799 23.3027 22.303 23.3027 23.4229V25.7051H16.0557V19.3789H25.1846C25.4716 19.3789 25.7051 19.6124 25.7051 19.8994V21.5732ZM14.8545 25.7051H5.20508V20.0596C5.20508 19.6525 5.41424 19.3789 5.72559 19.3789H14.8545V25.7051ZM39.7988 27.2027C39.7864 27.2285 39.5365 27.6699 37.6606 28.0301C36.2369 28.3034 34.3318 28.4478 32.1514 28.4478C29.9709 28.4478 28.0659 28.3034 26.6422 28.0301C24.7201 27.6611 24.5049 27.2065 24.5039 27.2065V24.8661C25.1325 25.1605 25.8431 25.3086 26.1969 25.3821C27.7169 25.6982 29.7759 25.8652 32.1514 25.8652C34.5268 25.8652 36.5859 25.6982 38.1058 25.3822C38.4595 25.3087 39.1702 25.1606 39.7988 24.8662V27.2027ZM37.6606 22.5994C39.4721 22.9472 39.7674 23.371 39.7968 23.4229C39.7674 23.4747 39.4721 23.8985 37.6606 24.2463C36.2369 24.5196 34.3318 24.6641 32.1514 24.6641C29.9709 24.6641 28.0659 24.5196 26.6422 24.2463C24.8306 23.8985 24.5353 23.4747 24.5059 23.4229C24.5353 23.371 24.8306 22.9472 26.6422 22.5994C28.0659 22.3261 29.9709 22.1816 32.1514 22.1816C34.3318 22.1816 36.2369 22.3261 37.6606 22.5994ZM2.20215 36.4355C1.62382 36.4355 1.20117 35.9579 1.20117 35.7549V16.1758H20.9805C21.3122 16.1758 21.5811 15.907 21.5811 15.5752C21.5811 15.2434 21.3122 14.9746 20.9805 14.9746H1.20117V2.52246C1.20117 1.71984 1.59404 1.20117 2.20215 1.20117H27.1865C27.7385 1.20117 28.1875 1.65017 28.1875 2.20215V14.9746H23.7832C23.4514 14.9746 23.1826 15.2434 23.1826 15.5752C23.1826 15.907 23.4514 16.1758 23.7832 16.1758H28.1875V21.1653C27.7335 21.2126 27.3058 21.2689 26.9062 21.3337V19.8994C26.9062 18.9501 26.1339 18.1777 25.1846 18.1777H5.72559C4.74407 18.1777 4.00391 18.9868 4.00391 20.0596V32.8721C4.00391 33.7039 4.80845 34.4336 5.72559 34.4336H23.3027V36.4355H2.20215ZM37.6606 39.3811C36.2369 39.6544 34.3318 39.7988 32.1514 39.7988C29.9709 39.7988 28.0659 39.6544 26.6422 39.3811C24.7201 39.0121 24.5049 38.5576 24.5039 38.5576V36.2172C25.1325 36.5116 25.8431 36.6597 26.1969 36.7332C27.7169 37.0492 29.7759 37.2162 32.1514 37.2162C33.2959 37.2162 34.3801 37.1766 35.3737 37.0983C35.7044 37.0722 35.9513 36.7831 35.9253 36.4524C35.8993 36.1218 35.6093 35.8748 35.2795 35.9009C34.3171 35.9766 33.2647 36.0151 32.1514 36.0151C29.9709 36.0151 28.0659 35.8706 26.6422 35.5973C24.7201 35.2285 24.5049 34.7739 24.5039 34.7739V32.4335C25.1325 32.7279 25.8431 32.876 26.1969 32.9495C27.7169 33.2655 29.7759 33.4325 32.1514 33.4325C34.5268 33.4325 36.5859 33.2655 38.1058 32.9495C38.4595 32.876 39.1702 32.7279 39.7988 32.4335V34.77C39.7865 34.7956 39.5653 35.1866 37.9757 35.5329C37.6516 35.6035 37.4461 35.9235 37.5168 36.2476C37.5859 36.574 37.9156 36.778 38.2315 36.7065C38.5601 36.6349 39.2107 36.4927 39.7988 36.2177V38.5537C39.7864 38.5796 39.5365 39.0209 37.6606 39.3811Z" fill="#54A7F0"/>
<path d="M26.9863 11.251V4.9248C26.9863 3.97548 26.214 3.20312 25.2646 3.20312H12.0117C11.68 3.20312 11.4111 3.47195 11.4111 3.80371C11.4111 4.13547 11.68 4.4043 12.0117 4.4043H25.2646C25.5516 4.4043 25.7852 4.6378 25.7852 4.9248V11.251C25.7852 11.538 25.5516 11.7715 25.2646 11.7715H5.72559C5.43859 11.7715 5.20508 11.538 5.20508 11.251V4.9248C5.20508 4.6378 5.43859 4.4043 5.72559 4.4043H9.20898C9.54075 4.4043 9.80957 4.13547 9.80957 3.80371C9.80957 3.47195 9.54075 3.20312 9.20898 3.20312H5.72559C4.77626 3.20312 4.00391 3.97548 4.00391 4.9248V11.251C4.00391 12.2003 4.77626 12.9727 5.72559 12.9727H25.2646C26.214 12.9727 26.9863 12.2003 26.9863 11.251Z" fill="#54A7F0"/>
<path d="M12.6123 29.4688H8.28809C7.95632 29.4688 7.6875 29.7376 7.6875 30.0693C7.6875 30.4011 7.95632 30.6699 8.28809 30.6699H12.6123C12.9441 30.6699 13.2129 30.4011 13.2129 30.0693C13.2129 29.7376 12.9441 29.4688 12.6123 29.4688Z" fill="#54A7F0"/>
<path d="M8.68652 23.1426H9.84766V24.3037C9.84766 24.6355 10.1165 24.9043 10.4482 24.9043C10.78 24.9043 11.0488 24.6355 11.0488 24.3037V23.1426H12.21C12.5417 23.1426 12.8105 22.8738 12.8105 22.542C12.8105 22.2102 12.5417 21.9414 12.21 21.9414H11.0488V20.7803C11.0488 20.4485 10.78 20.1797 10.4482 20.1797C10.1165 20.1797 9.84766 20.4485 9.84766 20.7803V21.9414H8.68652C8.35476 21.9414 8.08594 22.2102 8.08594 22.542C8.08594 22.8738 8.35476 23.1426 8.68652 23.1426Z" fill="#54A7F0"/>
<path d="M22.1691 20.8712C21.9345 20.6367 21.5543 20.6367 21.3197 20.8712L20.4987 21.6922L19.6776 20.8712C19.443 20.6367 19.0628 20.6367 18.8283 20.8712C18.5937 21.1058 18.5937 21.486 18.8283 21.7206L19.6493 22.5416L18.8283 23.3626C18.5937 23.5973 18.5937 23.9775 18.8283 24.212C19.0629 24.4465 19.443 24.4465 19.6776 24.212L20.4987 23.391L21.3197 24.212C21.5544 24.4465 21.9345 24.4465 22.1691 24.212C22.4037 23.9774 22.4037 23.5972 22.1691 23.3626L21.3481 22.5416L22.1691 21.7206C22.4037 21.4859 22.4037 21.1057 22.1691 20.8712Z" fill="#54A7F0"/>
<path d="M19.1513 32.0429C19.305 32.0429 19.4588 31.9843 19.5761 31.867L22.2987 29.1444C22.5333 28.9098 22.5333 28.5295 22.2987 28.295C22.0641 28.0605 21.6839 28.0605 21.4493 28.295L18.7267 31.0176C18.4921 31.2523 18.4921 31.6325 18.7267 31.867C18.844 31.9843 18.9978 32.0429 19.1513 32.0429Z" fill="#54A7F0"/>
<path d="M19.3389 29.1484C19.6706 29.1484 19.9395 28.8795 19.9395 28.5479C19.9395 28.2162 19.6706 27.9473 19.3389 27.9473C19.0072 27.9473 18.7383 28.2162 18.7383 28.5479C18.7383 28.8795 19.0072 29.1484 19.3389 29.1484Z" fill="#54A7F0"/>
<path d="M21.7412 32.1914C22.0729 32.1914 22.3418 31.9225 22.3418 31.5908C22.3418 31.2591 22.0729 30.9902 21.7412 30.9902C21.4095 30.9902 21.1406 31.2591 21.1406 31.5908C21.1406 31.9225 21.4095 32.1914 21.7412 32.1914Z" fill="#54A7F0"/>
<path d="M23.2646 10.6504C24.0373 10.6504 24.666 10.0217 24.666 9.24902V6.92676C24.666 6.15408 24.0373 5.52539 23.2646 5.52539H22.1436C21.3709 5.52539 20.7422 6.15408 20.7422 6.92676V9.24902C20.7422 10.0217 21.3709 10.6504 22.1436 10.6504H23.2646ZM21.9434 9.24902V6.92676C21.9434 6.81633 22.0331 6.72656 22.1436 6.72656H23.2646C23.3751 6.72656 23.4648 6.81633 23.4648 6.92676V9.24902C23.4648 9.35945 23.3751 9.44922 23.2646 9.44922H22.1436C22.0331 9.44922 21.9434 9.35945 21.9434 9.24902Z" fill="#54A7F0"/>
</svg>
