<svg width="39" height="39" viewBox="0 0 39 39" fill="none" xmlns="http://www.w3.org/2000/svg">
<path d="M2 38.5V8H11V2L29 6V12.5H38V38.5H2Z" fill="#DDFBAC"/>
<path d="M28.4616 37.9458H10.5427C10.4029 37.9458 10.2688 37.8902 10.17 37.7914C10.0712 37.6926 10.0156 37.5585 10.0156 37.4187V1.58091C10.0156 1.50018 10.0341 1.42053 10.0697 1.3481C10.1054 1.27567 10.1572 1.21239 10.2211 1.16314C10.2851 1.11389 10.3595 1.08 10.4387 1.06407C10.5178 1.04814 10.5995 1.05061 10.6776 1.07127L28.5965 5.81452C28.7089 5.84429 28.8084 5.91042 28.8793 6.00261C28.9502 6.09479 28.9886 6.20784 28.9886 6.32415V37.4187C28.9886 37.5585 28.9331 37.6926 28.8342 37.7914C28.7354 37.8902 28.6013 37.9458 28.4616 37.9458ZM11.0697 36.8917H27.9345V6.72996L11.0697 2.26604V36.8917Z" fill="#27AE60"/>
<path d="M37.4201 37.9461H28.4606C28.3208 37.9461 28.1868 37.8906 28.088 37.7917C27.9891 37.6929 27.9336 37.5588 27.9336 37.4191V12.1218C27.9336 11.982 27.9891 11.8479 28.088 11.7491C28.1868 11.6503 28.3208 11.5947 28.4606 11.5947H37.4201C37.5599 11.5947 37.6939 11.6503 37.7927 11.7491C37.8916 11.8479 37.9471 11.982 37.9471 12.1218V37.4191C37.9471 37.5588 37.8916 37.6929 37.7927 37.7917C37.6939 37.8906 37.5599 37.9461 37.4201 37.9461ZM28.9876 36.892H36.8931V12.6488H28.9876V36.892Z" fill="#27AE60"/>
<path d="M1.58171 21.8563C1.44194 21.8563 1.30789 21.8007 1.20905 21.7019C1.11021 21.6031 1.05469 21.469 1.05469 21.3292V19.7956C1.05469 19.6558 1.11021 19.5218 1.20905 19.4229C1.30789 19.3241 1.44194 19.2686 1.58171 19.2686C1.72149 19.2686 1.85554 19.3241 1.95438 19.4229C2.05322 19.5218 2.10874 19.6558 2.10874 19.7956V21.3292C2.10874 21.469 2.05322 21.6031 1.95438 21.7019C1.85554 21.8007 1.72149 21.8563 1.58171 21.8563Z" fill="#27AE60"/>
<path d="M10.5412 37.9458H1.58171C1.44194 37.9458 1.30789 37.8903 1.20905 37.7915C1.11021 37.6926 1.05469 37.5586 1.05469 37.4188V30.2723C1.05469 30.1326 1.11021 29.9985 1.20905 29.8997C1.30789 29.8008 1.44194 29.7453 1.58171 29.7453C1.72149 29.7453 1.85554 29.8008 1.95438 29.8997C2.05322 29.9985 2.10874 30.1326 2.10874 30.2723V36.8918H10.0141V7.37827H2.10874V16.1058C2.10874 16.2456 2.05322 16.3797 1.95438 16.4785C1.85554 16.5773 1.72149 16.6329 1.58171 16.6329C1.44194 16.6329 1.30789 16.5773 1.20905 16.4785C1.11021 16.3797 1.05469 16.2456 1.05469 16.1058V6.85125C1.05469 6.71147 1.11021 6.57742 1.20905 6.47858C1.30789 6.37974 1.44194 6.32422 1.58171 6.32422H10.5412C10.6809 6.32422 10.815 6.37974 10.9138 6.47858C11.0127 6.57742 11.0682 6.71147 11.0682 6.85125V37.4188C11.0682 37.5586 11.0127 37.6926 10.9138 37.7915C10.815 37.8903 10.6809 37.9458 10.5412 37.9458Z" fill="#27AE60"/>
<path d="M1.58171 27.1105C1.44194 27.1105 1.30789 27.055 1.20905 26.9562C1.11021 26.8573 1.05469 26.7233 1.05469 26.5835V25.0182C1.05469 24.8785 1.11021 24.7444 1.20905 24.6456C1.30789 24.5467 1.44194 24.4912 1.58171 24.4912C1.72149 24.4912 1.85554 24.5467 1.95438 24.6456C2.05322 24.7444 2.10874 24.8785 2.10874 25.0182V26.5835C2.10874 26.7233 2.05322 26.8573 1.95438 26.9562C1.85554 27.055 1.72149 27.1105 1.58171 27.1105Z" fill="#27AE60"/>
<path d="M10.5398 14.0537H5.445C5.30522 14.0537 5.17117 13.9982 5.07233 13.8993C4.97349 13.8005 4.91797 13.6664 4.91797 13.5267V10.7155C4.91797 10.5757 4.97349 10.4417 5.07233 10.3428C5.17117 10.244 5.30522 10.1885 5.445 10.1885H10.5398C10.6795 10.1885 10.8136 10.244 10.9124 10.3428C11.0113 10.4417 11.0668 10.5757 11.0668 10.7155V13.5267C11.0668 13.6664 11.0113 13.8005 10.9124 13.8993C10.8136 13.9982 10.6795 14.0537 10.5398 14.0537ZM5.97202 12.9996H10.0127V11.2425H5.97202V12.9996Z" fill="#27AE60"/>
<path d="M10.5398 20.7299H5.445C5.30522 20.7299 5.17117 20.6744 5.07233 20.5756C4.97349 20.4767 4.91797 20.3427 4.91797 20.2029V17.3923C4.91797 17.2525 4.97349 17.1184 5.07233 17.0196C5.17117 16.9208 5.30522 16.8652 5.445 16.8652H10.5398C10.6795 16.8652 10.8136 16.9208 10.9124 17.0196C11.0113 17.1184 11.0668 17.2525 11.0668 17.3923V20.2029C11.0668 20.3427 11.0113 20.4767 10.9124 20.5756C10.8136 20.6744 10.6795 20.7299 10.5398 20.7299ZM5.97202 19.6759H10.0127V17.9193H5.97202V19.6759Z" fill="#27AE60"/>
<path d="M10.5398 27.4057H5.445C5.30522 27.4057 5.17117 27.3502 5.07233 27.2513C4.97349 27.1525 4.91797 27.0185 4.91797 26.8787V24.068C4.91797 23.9283 4.97349 23.7942 5.07233 23.6954C5.17117 23.5965 5.30522 23.541 5.445 23.541H10.5398C10.6795 23.541 10.8136 23.5965 10.9124 23.6954C11.0113 23.7942 11.0668 23.9283 11.0668 24.068V26.8787C11.0668 27.0185 11.0113 27.1525 10.9124 27.2513C10.8136 27.3502 10.6795 27.4057 10.5398 27.4057ZM5.97202 26.3517H10.0127V24.5951H5.97202V26.3517Z" fill="#27AE60"/>
<path d="M10.5398 34.081H5.445C5.30522 34.081 5.17117 34.0255 5.07233 33.9267C4.97349 33.8278 4.91797 33.6938 4.91797 33.554V30.7428C4.91797 30.6031 4.97349 30.469 5.07233 30.3702C5.17117 30.2713 5.30522 30.2158 5.445 30.2158H10.5398C10.6795 30.2158 10.8136 30.2713 10.9124 30.3702C11.0113 30.469 11.0668 30.6031 11.0668 30.7428V33.554C11.0668 33.6938 11.0113 33.8278 10.9124 33.9267C10.8136 34.0255 10.6795 34.081 10.5398 34.081ZM5.97202 33.027H10.0127V31.2699H5.97202V33.027Z" fill="#27AE60"/>
<path d="M24.9685 13.4721H21.8395C21.6998 13.4721 21.5657 13.4165 21.4669 13.3177C21.368 13.2189 21.3125 13.0848 21.3125 12.945V9.81609C21.3125 9.67631 21.368 9.54226 21.4669 9.44342C21.5657 9.34459 21.6998 9.28906 21.8395 9.28906H24.9685C25.1083 9.28906 25.2423 9.34459 25.3412 9.44342C25.44 9.54226 25.4955 9.67631 25.4955 9.81609V12.945C25.4955 13.0848 25.44 13.2189 25.3412 13.3177C25.2423 13.4165 25.1083 13.4721 24.9685 13.4721ZM22.3666 12.418H24.4415V10.3431H22.3666V12.418Z" fill="#27AE60"/>
<path d="M17.1599 13.4721H14.0309C13.8912 13.4721 13.7571 13.4165 13.6583 13.3177C13.5594 13.2189 13.5039 13.0848 13.5039 12.945V9.81609C13.5039 9.67631 13.5594 9.54226 13.6583 9.44342C13.7571 9.34459 13.8912 9.28906 14.0309 9.28906H17.1599C17.2997 9.28906 17.4337 9.34459 17.5326 9.44342C17.6314 9.54226 17.6869 9.67631 17.6869 9.81609V12.945C17.6869 13.0848 17.6314 13.2189 17.5326 13.3177C17.4337 13.4165 17.2997 13.4721 17.1599 13.4721ZM14.558 12.418H16.6329V10.3431H14.558V12.418Z" fill="#27AE60"/>
<path d="M24.9685 20.0107H21.8395C21.6998 20.0107 21.5657 19.9552 21.4669 19.8563C21.368 19.7575 21.3125 19.6234 21.3125 19.4837V16.3542C21.3125 16.2144 21.368 16.0803 21.4669 15.9815C21.5657 15.8827 21.6998 15.8271 21.8395 15.8271H24.9685C25.1083 15.8271 25.2423 15.8827 25.3412 15.9815C25.44 16.0803 25.4955 16.2144 25.4955 16.3542V19.4837C25.4955 19.6234 25.44 19.7575 25.3412 19.8563C25.2423 19.9552 25.1083 20.0107 24.9685 20.0107ZM22.3666 18.9566H24.4415V16.8812H22.3666V18.9566Z" fill="#27AE60"/>
<path d="M17.1599 20.0107H14.0309C13.8912 20.0107 13.7571 19.9552 13.6583 19.8563C13.5594 19.7575 13.5039 19.6234 13.5039 19.4837V16.3542C13.5039 16.2144 13.5594 16.0803 13.6583 15.9815C13.7571 15.8827 13.8912 15.8271 14.0309 15.8271H17.1599C17.2997 15.8271 17.4337 15.8827 17.5326 15.9815C17.6314 16.0803 17.6869 16.2144 17.6869 16.3542V19.4837C17.6869 19.6234 17.6314 19.7575 17.5326 19.8563C17.4337 19.9552 17.2997 20.0107 17.1599 20.0107ZM14.558 18.9566H16.6329V16.8812H14.558V18.9566Z" fill="#27AE60"/>
<path d="M24.9685 26.5492H21.8395C21.6998 26.5492 21.5657 26.4937 21.4669 26.3949C21.368 26.296 21.3125 26.162 21.3125 26.0222V22.8932C21.3125 22.7535 21.368 22.6194 21.4669 22.5206C21.5657 22.4217 21.6998 22.3662 21.8395 22.3662H24.9685C25.1083 22.3662 25.2423 22.4217 25.3412 22.5206C25.44 22.6194 25.4955 22.7535 25.4955 22.8932V26.0222C25.4955 26.162 25.44 26.296 25.3412 26.3949C25.2423 26.4937 25.1083 26.5492 24.9685 26.5492ZM22.3666 25.4952H24.4415V23.4203H22.3666V25.4952Z" fill="#27AE60"/>
<path d="M17.1599 26.5492H14.0309C13.8912 26.5492 13.7571 26.4937 13.6583 26.3949C13.5594 26.296 13.5039 26.162 13.5039 26.0222V22.8932C13.5039 22.7535 13.5594 22.6194 13.6583 22.5206C13.7571 22.4217 13.8912 22.3662 14.0309 22.3662H17.1599C17.2997 22.3662 17.4337 22.4217 17.5326 22.5206C17.6314 22.6194 17.6869 22.7535 17.6869 22.8932V26.0222C17.6869 26.162 17.6314 26.296 17.5326 26.3949C17.4337 26.4937 17.2997 26.5492 17.1599 26.5492ZM14.558 25.4952H16.6329V23.4203H14.558V25.4952Z" fill="#27AE60"/>
<path d="M24.9685 33.0873H21.8395C21.6998 33.0873 21.5657 33.0318 21.4669 32.9329C21.368 32.8341 21.3125 32.7001 21.3125 32.5603V29.4313C21.3125 29.2915 21.368 29.1575 21.4669 29.0587C21.5657 28.9598 21.6998 28.9043 21.8395 28.9043H24.9685C25.1083 28.9043 25.2423 28.9598 25.3412 29.0587C25.44 29.1575 25.4955 29.2915 25.4955 29.4313V32.5603C25.4955 32.7001 25.44 32.8341 25.3412 32.9329C25.2423 33.0318 25.1083 33.0873 24.9685 33.0873ZM22.3666 32.0333H24.4415V29.9583H22.3666V32.0333Z" fill="#27AE60"/>
<path d="M17.1599 33.0873H14.0309C13.8912 33.0873 13.7571 33.0318 13.6583 32.9329C13.5594 32.8341 13.5039 32.7001 13.5039 32.5603V29.4313C13.5039 29.2915 13.5594 29.1575 13.6583 29.0587C13.7571 28.9598 13.8912 28.9043 14.0309 28.9043H17.1599C17.2997 28.9043 17.4337 28.9598 17.5326 29.0587C17.6314 29.1575 17.6869 29.2915 17.6869 29.4313V32.5603C17.6869 32.7001 17.6314 32.8341 17.5326 32.9329C17.4337 33.0318 17.2997 33.0873 17.1599 33.0873ZM14.558 32.0333H16.6329V29.9583H14.558V32.0333Z" fill="#27AE60"/>
<path d="M35.0688 18.6216H30.8083C30.6685 18.6216 30.5344 18.566 30.4356 18.4672C30.3368 18.3684 30.2812 18.2343 30.2812 18.0945V15.6354C30.2812 15.4956 30.3368 15.3616 30.4356 15.2628C30.5344 15.1639 30.6685 15.1084 30.8083 15.1084H35.0688C35.2085 15.1084 35.3426 15.1639 35.4414 15.2628C35.5403 15.3616 35.5958 15.4956 35.5958 15.6354V18.0945C35.5958 18.2343 35.5403 18.3684 35.4414 18.4672C35.3426 18.566 35.2085 18.6216 35.0688 18.6216ZM31.3353 17.5675H34.5417V16.1625H31.3353V17.5675Z" fill="#27AE60"/>
<path d="M35.0688 23.8921H30.8083C30.6685 23.8921 30.5344 23.8365 30.4356 23.7377C30.3368 23.6389 30.2812 23.5048 30.2812 23.365V20.9059C30.2812 20.7662 30.3368 20.6321 30.4356 20.5333C30.5344 20.4344 30.6685 20.3789 30.8083 20.3789H35.0688C35.2085 20.3789 35.3426 20.4344 35.4414 20.5333C35.5403 20.6321 35.5958 20.7662 35.5958 20.9059V23.365C35.5958 23.5048 35.5403 23.6389 35.4414 23.7377C35.3426 23.8365 35.2085 23.8921 35.0688 23.8921ZM31.3353 22.838H34.5417V21.433H31.3353V22.838Z" fill="#27AE60"/>
<path d="M35.0688 29.1616H30.8083C30.6685 29.1616 30.5344 29.1061 30.4356 29.0072C30.3368 28.9084 30.2812 28.7744 30.2812 28.6346V26.1755C30.2812 26.0357 30.3368 25.9016 30.4356 25.8028C30.5344 25.704 30.6685 25.6484 30.8083 25.6484H35.0688C35.2085 25.6484 35.3426 25.704 35.4414 25.8028C35.5403 25.9016 35.5958 26.0357 35.5958 26.1755V28.6346C35.5958 28.7744 35.5403 28.9084 35.4414 29.0072C35.3426 29.1061 35.2085 29.1616 35.0688 29.1616ZM31.3353 28.1075H34.5417V26.7025H31.3353V28.1075Z" fill="#27AE60"/>
<path d="M35.0688 34.4321H30.8083C30.6685 34.4321 30.5344 34.3766 30.4356 34.2777C30.3368 34.1789 30.2812 34.0449 30.2812 33.9051V31.446C30.2812 31.3062 30.3368 31.1721 30.4356 31.0733C30.5344 30.9745 30.6685 30.9189 30.8083 30.9189H35.0688C35.2085 30.9189 35.3426 30.9745 35.4414 31.0733C35.5403 31.1721 35.5958 31.3062 35.5958 31.446V33.9051C35.5958 34.0449 35.5403 34.1789 35.4414 34.2777C35.3426 34.3766 35.2085 34.4321 35.0688 34.4321ZM31.3353 33.3781H34.5417V31.973H31.3353V33.3781Z" fill="#27AE60"/>
</svg>
