<svg width="36" height="32" viewBox="0 0 36 32" fill="none" xmlns="http://www.w3.org/2000/svg">
<path d="M1.50086 25.7173L16.0009 1.71727C17.6008 0.517269 19.3342 1.21727 20.001 1.71727C24.8343 9.21727 34.601 24.9173 35.001 27.7173C35.401 30.5173 33.1676 31.2173 32.001 31.2173H7.00098C3.00098 31.2173 1.50086 30.7173 1.00086 29.2173C0.600859 28.0173 1.16753 26.3839 1.50086 25.7173Z" fill="#FFE4E4"/>
<path d="M18.8972 2.6311C18.8948 2.62703 18.8923 2.62295 18.8898 2.61894C18.6866 2.29772 18.3548 2.10459 18.0004 2.10459C17.648 2.10459 17.3158 2.29561 17.1113 2.61599C17.1082 2.62098 17.1051 2.62597 17.1021 2.63103L2.2659 27.7055C2.26309 27.7102 2.26035 27.715 2.25775 27.7198C1.86516 28.4387 2.30429 29.3024 3.14535 29.331C3.1514 29.3312 3.15744 29.3313 3.16349 29.3313H25.7658C26.057 29.3313 26.2931 29.0952 26.2931 28.804C26.2931 28.5128 26.057 28.2767 25.7658 28.2767C25.7558 28.2767 3.17136 28.2772 3.16194 28.2751C3.16982 28.2523 17.9863 3.21323 17.9996 3.18511C18.0159 3.2171 32.8307 28.2396 32.8376 28.2752C32.8242 28.2786 27.8895 28.2768 27.8749 28.2768C27.5837 28.2768 27.3476 28.5128 27.3476 28.8041C27.3476 29.0953 27.5837 29.3313 27.8749 29.3313C27.8888 29.3313 32.8407 29.3315 32.8541 29.3311C33.6839 29.3031 34.1423 28.4434 33.7415 27.7197C33.7408 27.7186 18.9 2.63588 18.8972 2.6311V2.6311ZM19.4279 10.3217C19.0611 9.92443 18.5406 9.69657 18 9.69657C17.4594 9.69657 16.9389 9.92436 16.5721 10.3217C16.2053 10.7189 16.0196 11.2558 16.0626 11.7948L16.3334 15.1888C16.3565 15.4791 16.6105 15.6958 16.901 15.6724C17.1913 15.6493 17.4078 15.3952 17.3846 15.1049L17.1138 11.7109C17.0938 11.4607 17.1767 11.2214 17.3469 11.0371C17.5171 10.8527 17.7491 10.7512 18 10.7512C18.2509 10.7512 18.4829 10.8527 18.6531 11.0371C18.8233 11.2215 18.9062 11.4607 18.8862 11.7109L18.1929 20.3998C18.185 20.4997 18.1002 20.5779 18 20.5779C17.8998 20.5779 17.815 20.4997 17.8071 20.3998L17.5313 16.9436C17.5082 16.6533 17.2543 16.4366 16.9638 16.4599C16.6735 16.4831 16.4569 16.7371 16.4801 17.0275L16.7559 20.4836C16.8072 21.1279 17.3537 21.6326 18 21.6326C18.6463 21.6326 19.1928 21.1279 19.2441 20.4837L19.9374 11.7949C19.9804 11.2559 19.7948 10.7189 19.4279 10.3217ZM35.5489 26.6268L20.7128 1.55241C20.1376 0.58037 19.1235 0 18.0001 0C16.8766 0 15.8624 0.580299 15.2873 1.55241L0.451115 26.6268C-0.141206 27.6278 -0.150767 28.8289 0.425595 29.8396C0.995559 30.8391 2.0192 31.4359 3.16384 31.4359H32.8362C33.9808 31.4359 35.0044 30.8391 35.5744 29.8396C36.1508 28.8289 36.1412 27.6278 35.5489 26.6268ZM34.6583 29.3171C34.2784 29.9834 33.5972 30.3812 32.8362 30.3812H3.16384C2.40286 30.3812 1.72167 29.9834 1.34174 29.3171C0.955415 28.6397 0.961742 27.8347 1.35876 27.1638L16.1948 2.08947C16.5783 1.44147 17.2531 1.05465 18 1.05465C18.7469 1.05465 19.4218 1.44147 19.8052 2.08947L34.6412 27.1638C35.0383 27.8348 35.0447 28.6397 34.6583 29.3171ZM18 22.6389C17.085 22.6389 16.3407 23.3833 16.3407 24.2983C16.3407 25.2132 17.085 25.9576 18 25.9576C18.915 25.9576 19.6593 25.2132 19.6593 24.2983C19.6593 23.3833 18.915 22.6389 18 22.6389ZM18 24.903C17.6665 24.903 17.3952 24.6317 17.3952 24.2983C17.3952 23.9648 17.6665 23.6935 18 23.6935C18.3335 23.6935 18.6048 23.9648 18.6048 24.2983C18.6048 24.6317 18.3335 24.903 18 24.903Z" fill="#EB5757"/>
</svg>
