<svg width="154" height="36" viewBox="0 0 154 36" fill="none" xmlns="http://www.w3.org/2000/svg">
<path d="M51.9127 7.32487C50.5064 6.2962 48.9357 6.18474 48.3257 6.18474C47.1437 6.18474 45.9238 6.53506 44.8872 7.172C44.6597 7.30576 44.4385 7.45544 44.2236 7.62105V1.27389C44.2236 0.570066 43.6579 0 42.9594 0H42.2641C41.5657 0 41 0.570066 41 1.27389V20.395C41 21.0988 41.5657 21.6689 42.2641 21.6689H42.9594C43.6579 21.6689 44.2236 21.0988 44.2236 20.395V12.8504C44.2236 12.3472 44.2615 12.0797 44.3784 11.7867C44.862 10.5351 46.2494 9.27074 47.9686 9.27074C48.5438 9.27074 49.3686 9.38539 50.0165 9.92679C50.7782 10.5637 51.1669 11.6688 51.1669 13.2102V20.395C51.1669 21.0988 51.7326 21.6689 52.431 21.6689H53.1263C53.8248 21.6689 54.3905 21.0988 54.3905 20.395V13.1529C54.3905 10.4873 53.5561 8.5287 51.9127 7.32487Z" fill="#0C78E5"/>
<path d="M63.5589 6.18457C61.4635 6.18457 59.5104 6.94891 58.0535 8.33426C56.486 9.83108 55.6548 11.8693 55.6548 14.2292C55.6548 16.3821 56.4322 18.3534 57.8449 19.7802C59.2608 21.2101 61.2202 21.9999 63.3661 21.9999C65.3318 21.9999 67.2849 21.2993 68.7197 20.0795C69.9302 19.0477 71.3744 17.1432 71.3744 13.9298C71.3744 11.8056 70.6191 9.85974 69.2475 8.4521C67.8095 6.96801 65.8438 6.18457 63.5589 6.18457ZM63.4482 18.9967C62.0545 18.9967 60.8789 18.4744 60.0445 17.4872C59.305 16.6114 58.8815 15.3916 58.8815 14.1464C58.8815 12.8247 59.2829 11.6082 60.0129 10.7228C60.8441 9.71643 62.0703 9.18458 63.5589 9.18458C65.3887 9.18458 66.4632 10.0476 67.0416 10.7738C67.7369 11.6464 68.154 12.8534 68.154 14.0063C68.154 15.2897 67.7179 16.5413 66.9563 17.4426C66.0935 18.4617 64.8831 18.9967 63.4482 18.9967Z" fill="#0C78E5"/>
<path d="M92.3119 7.42685C90.9719 6.30901 89.4739 6.18799 88.8924 6.18799C87.1637 6.18799 85.9438 6.63385 84.6828 7.72303L84.6796 7.72621C84.4363 7.94596 84.2056 8.18481 83.9938 8.44277C83.5419 7.80264 82.973 7.26761 82.3252 6.88863C81.5477 6.43003 80.6533 6.18799 79.7431 6.18799C78.163 6.18799 76.8577 6.64659 75.7737 7.5829C75.6726 6.97462 75.1543 6.52238 74.5285 6.52238H73.5773C73.315 6.52238 73.0653 6.63385 72.8883 6.82493C72.7113 7.0192 72.6197 7.28035 72.6418 7.5415C72.7145 8.49691 72.7493 9.49055 72.7493 10.6721V20.3982C72.7493 21.1021 73.315 21.6721 74.0134 21.6721H74.7087C75.4071 21.6721 75.9728 21.1021 75.9728 20.3982V12.6594C75.9728 12.3568 76.0392 12.0129 76.153 11.7103C76.8198 10.016 78.2831 9.24532 79.3607 9.24532C80.154 9.24532 80.8208 9.55424 81.2917 10.1434C81.7784 10.7517 82.0376 11.6211 82.0376 12.6594V20.3982C82.0376 21.1021 82.6033 21.6721 83.3017 21.6721H83.997C84.6954 21.6721 85.2611 21.1021 85.2611 20.3982V12.2708C85.2611 11.9173 85.3686 11.5829 85.4666 11.3313C85.9153 10.2899 87.0057 9.24214 88.431 9.24214C89.24 9.24214 89.8847 9.48418 90.3525 9.96507C91.0004 10.6307 91.329 11.7708 91.329 13.3473V20.3951C91.329 21.0989 91.8947 21.6689 92.5932 21.6689H93.2885C93.9869 21.6689 94.5526 21.0989 94.5526 20.3951V13.3186C94.5463 10.6466 93.7941 8.6657 92.3119 7.42685Z" fill="#0C78E5"/>
<path d="M107.722 18.6656H100.927C100.82 18.6656 100.772 18.5892 100.757 18.5573C100.741 18.5255 100.712 18.4395 100.782 18.3567L100.788 18.3503L108.746 8.90759C108.822 8.81523 108.866 8.70058 108.869 8.57956L108.891 7.82797C108.901 7.48083 108.774 7.1528 108.534 6.9044C108.294 6.65599 107.972 6.51904 107.627 6.51904H97.6499C96.9515 6.51904 96.3858 7.08911 96.3858 7.79293V8.24516C96.3858 8.94899 96.9515 9.51906 97.6499 9.51906H103.715C103.86 9.51906 103.923 9.62097 103.945 9.66555C103.964 9.71014 104.002 9.82479 103.911 9.93625L103.904 9.94581L96.1171 19.1879C95.9243 19.4172 95.8169 19.7102 95.8169 20.0127V20.3949C95.8169 21.0987 96.3826 21.6688 97.081 21.6688H107.725C108.424 21.6688 108.989 21.0987 108.989 20.3949V19.9427C108.986 19.2388 108.42 18.6656 107.722 18.6656Z" fill="#0C78E5"/>
<path d="M120.967 7.51498C119.589 6.50861 118.05 6.39714 117.453 6.39714C116.293 6.39714 115.095 6.74109 114.077 7.36848C113.78 7.54364 113.496 7.74428 113.227 7.97358V1.48629C113.227 0.782468 112.662 0.212402 111.963 0.212402H111.518C110.819 0.212402 110.253 0.782468 110.253 1.48629V20.3558C110.253 21.0596 110.819 21.6297 111.518 21.6297H111.963C112.662 21.6297 113.227 21.0596 113.227 20.3558V12.9354C113.227 12.4131 113.268 12.1328 113.392 11.8271C113.891 10.5373 115.326 9.23155 117.099 9.23155C118.369 9.23155 119.289 9.70926 119.833 10.6519C120.319 11.4959 120.42 12.5564 120.42 13.2984V20.359C120.42 21.0628 120.986 21.6329 121.684 21.6329H122.13C122.829 21.6329 123.394 21.0628 123.394 20.359V13.2411C123.394 10.6169 122.576 8.69014 120.967 7.51498Z" fill="#4FA800"/>
<path d="M137.66 17.6048V8.00289C137.66 7.29907 137.095 6.729 136.396 6.729H135.951C135.252 6.729 134.686 7.29907 134.686 8.00289V15.5857C134.686 15.952 134.598 16.3628 134.424 16.8055C133.884 17.9615 132.55 19.1271 130.79 19.1271C129.718 19.1271 128.947 18.7864 128.432 18.0826C127.901 17.3596 127.632 16.2227 127.632 14.7036V8.00289C127.632 7.29907 127.067 6.729 126.368 6.729H125.923C125.224 6.729 124.659 7.29907 124.659 8.00289V14.9806C124.659 17.6813 125.408 19.6431 126.883 20.8182C127.825 21.5666 129.051 21.9615 130.433 21.9615C132.06 21.9615 133.612 21.3947 134.8 20.366C134.806 20.3596 134.819 20.3501 134.841 20.3596C134.867 20.3692 134.867 20.3883 134.867 20.3979C134.889 21.0889 135.442 21.6335 136.131 21.6335H136.956C137.183 21.6335 137.401 21.538 137.553 21.3692C137.708 21.2004 137.784 20.9743 137.768 20.7482C137.695 19.7864 137.66 18.7864 137.66 17.6048Z" fill="#4FA800"/>
<path d="M152.069 8.66467C150.761 7.20288 148.909 6.39714 146.848 6.39714C144.968 6.39714 143.353 6.95447 142.13 8.01498V1.48629C142.13 0.782469 141.564 0.212402 140.866 0.212402H140.42C139.721 0.212402 139.156 0.782469 139.156 1.48629V17.6042C139.156 18.7889 139.121 19.7857 139.048 20.7443L139.036 20.9259C139.023 21.1074 139.083 21.2857 139.206 21.4195C139.33 21.5533 139.503 21.6297 139.684 21.6297H140.663C141.349 21.6297 141.905 21.0883 141.927 20.3972C141.927 20.3908 141.927 20.3877 141.937 20.3813C141.946 20.3781 141.95 20.3813 141.956 20.3845C143.176 21.445 144.705 21.9609 146.633 21.9609C147.559 21.9609 148.466 21.7889 149.329 21.4482C150.217 21.0978 151.013 20.5851 151.693 19.9259C153.204 18.4609 154 16.4067 154 13.9832C153.997 11.9418 153.311 10.0532 152.069 8.66467ZM151.023 14.0405C151.023 15.6201 150.593 16.9354 149.781 17.8399C148.975 18.7348 147.812 19.2093 146.412 19.2093C144.14 19.2093 142.657 17.722 142.24 16.3335C142.171 16.0437 142.133 15.7666 142.133 15.5309V13.2379C142.133 12.8526 142.221 12.5532 142.31 12.2793L142.313 12.2698C143.034 9.96722 144.987 9.14556 146.576 9.14556C147.897 9.14556 149.022 9.63601 149.825 10.5628C150.596 11.4545 151.023 12.687 151.023 14.0405Z" fill="#4FA800"/>
<path d="M41.5594 28.5078L43.066 31.9235C43.2122 32.2538 43.3807 32.6772 43.4761 32.9979H43.4983C43.6127 32.6804 43.7526 32.2955 43.921 31.8818L45.3323 28.511H45.8917L44.099 32.6387C43.4029 34.2551 42.9516 35.0537 42.2746 35.5412C41.8423 35.8587 41.4513 35.9774 41.3465 35.9999L41.2098 35.5637C41.4641 35.4899 41.8201 35.3392 42.1379 35.0633C42.4017 34.8388 42.7927 34.4155 43.1073 33.6907C43.1487 33.5944 43.1709 33.5303 43.1709 33.4886C43.1709 33.4469 43.1487 33.3731 43.0978 33.2545L41 28.511H41.5594V28.5078Z" fill="black"/>
<path d="M51.6894 30.9967C51.6894 32.9114 50.2145 33.7421 48.9686 33.7421C47.4619 33.7421 46.3654 32.6259 46.3654 31.1154C46.3654 29.4123 47.6304 28.3828 49.0417 28.3828C50.6659 28.3828 51.6894 29.5406 51.6894 30.9967ZM46.8835 31.0833C46.8835 32.5073 47.9069 33.3155 49.0035 33.3155C50.1224 33.3155 51.1744 32.4977 51.1744 31.0288C51.1744 30.0602 50.5324 28.8062 49.0448 28.8062C47.6082 28.8062 46.8835 29.8934 46.8835 31.0833Z" fill="black"/>
<path d="M57.3915 32.3821C57.3915 32.7959 57.401 33.2 57.4328 33.6169H56.9465L56.9147 32.5842H56.8924C56.5873 33.1486 55.9452 33.742 54.9218 33.742C54.3433 33.742 53.0146 33.5399 53.0146 31.3686V28.5078H53.5296V31.2628C53.5296 32.4527 53.9396 33.2833 55.0584 33.2833C55.8276 33.2833 56.4697 32.7926 56.7462 32.1993C56.8098 32.039 56.8734 31.8273 56.8734 31.6028V28.5078H57.3883V32.3821H57.3915Z" fill="black"/>
<path d="M59.2446 30.1567C59.2446 29.605 59.235 29.0598 59.2032 28.5082H59.6768L59.6991 29.6147H59.7309C59.9852 28.9027 60.5319 28.3799 61.2788 28.3799C61.3646 28.3799 61.4473 28.3895 61.5204 28.412V28.8898C61.425 28.8674 61.3424 28.8674 61.2248 28.8674C60.5191 28.8674 59.982 29.4639 59.8135 30.3459C59.7817 30.4934 59.7595 30.6762 59.7595 30.8462V33.6108H59.2446V30.1567Z" fill="black"/>
<path d="M65.1472 30.1564C65.1472 29.6048 65.1376 29.0595 65.1058 28.5079H65.6017L65.643 29.5727H65.6652C66.0435 28.8799 66.7396 28.3828 67.7948 28.3828C69.2824 28.3828 70.2296 29.5727 70.2296 30.9582C70.2296 32.7446 69.0504 33.7453 67.6677 33.7453C66.8763 33.7453 66.1071 33.4149 65.6875 32.7029H65.6652V35.7434H65.1503V30.1564H65.1472ZM65.6652 31.5612C65.6652 31.6991 65.6875 31.837 65.7193 31.9653C65.9291 32.6869 66.6792 33.3155 67.6264 33.3155C68.9137 33.3155 69.7147 32.4014 69.7147 30.9742C69.7147 29.8164 68.955 28.803 67.69 28.803C66.8572 28.803 66.0467 29.2808 65.7606 30.2077C65.7193 30.3456 65.6652 30.5156 65.6652 30.6535V31.5612Z" fill="black"/>
<path d="M71.6091 30.1567C71.6091 29.605 71.5995 29.0598 71.5677 28.5082H72.0413L72.0636 29.6147H72.0954C72.3497 28.9027 72.8964 28.3799 73.6433 28.3799C73.7291 28.3799 73.8118 28.3895 73.8849 28.412V28.8898C73.7895 28.8674 73.7069 28.8674 73.5893 28.8674C72.8837 28.8674 72.3465 29.4639 72.178 30.3459C72.1462 30.4934 72.124 30.6762 72.124 30.8462V33.6108H71.6091V30.1567Z" fill="black"/>
<path d="M79.7459 30.9967C79.7459 32.9114 78.2711 33.7421 77.0251 33.7421C75.5185 33.7421 74.4219 32.6259 74.4219 31.1154C74.4219 29.4123 75.6869 28.3828 77.0982 28.3828C78.7224 28.3828 79.7459 29.5406 79.7459 30.9967ZM74.94 31.0833C74.94 32.5073 75.9635 33.3155 77.06 33.3155C78.1789 33.3155 79.231 32.4977 79.231 31.0288C79.231 30.0602 78.5889 28.8062 77.1014 28.8062C75.6679 28.8062 74.94 29.8934 74.94 31.0833Z" fill="black"/>
<path d="M81.1256 30.1564C81.1256 29.6048 81.116 29.0595 81.0842 28.5079H81.5801L81.6214 29.5727H81.6436C82.0219 28.8799 82.718 28.3828 83.7733 28.3828C85.2608 28.3828 86.208 29.5727 86.208 30.9582C86.208 32.7446 85.0288 33.7453 83.6461 33.7453C82.8547 33.7453 82.0855 33.4149 81.6659 32.7029H81.6436V35.7434H81.1287V30.1564H81.1256ZM81.6436 31.5612C81.6436 31.6991 81.6659 31.837 81.6977 31.9653C81.9075 32.6869 82.6576 33.3155 83.6048 33.3155C84.8921 33.3155 85.6931 32.4014 85.6931 30.9742C85.6931 29.8164 84.9334 28.803 83.6684 28.803C82.8356 28.803 82.0251 29.2808 81.739 30.2077C81.6977 30.3456 81.6436 30.5156 81.6436 30.6535V31.5612Z" fill="black"/>
<path d="M87.6192 31.0611C87.6192 32.5493 88.5568 33.2933 89.7583 33.2933C90.6324 33.2933 91.0551 33.1233 91.3825 32.9758L91.5192 33.3895C91.3412 33.4761 90.7722 33.7391 89.7074 33.7391C88.1373 33.7391 87.1138 32.6647 87.1138 31.1862C87.1138 29.4511 88.2104 28.3799 89.6439 28.3799C91.5192 28.3799 91.8466 30.0605 91.8466 30.7404C91.8466 30.9008 91.8466 30.9745 91.8243 31.0579H87.6192V31.0611ZM91.3094 30.6474C91.3189 30.115 91.0996 28.8064 89.5803 28.8064C88.293 28.8064 87.7558 29.8712 87.6509 30.6474H91.3094Z" fill="black"/>
<path d="M93.2484 30.1567C93.2484 29.605 93.2388 29.0598 93.207 28.5082H93.6806L93.7029 29.6147H93.7347C93.9889 28.9027 94.5357 28.3799 95.2826 28.3799C95.3684 28.3799 95.4511 28.3895 95.5242 28.412V28.8898C95.4288 28.8674 95.3462 28.8674 95.2286 28.8674C94.5229 28.8674 93.9858 29.4639 93.8173 30.3459C93.7855 30.4934 93.7633 30.6762 93.7633 30.8462V33.6108H93.2484V30.1567Z" fill="black"/>
<path d="M97.6123 26.9878V28.508H99.2143V28.9217H97.6123V32.1867C97.6123 32.8153 97.8031 33.2932 98.4229 33.2932C98.728 33.2932 98.941 33.2515 99.0872 33.197L99.1507 33.6011C98.9727 33.6748 98.7089 33.739 98.372 33.739C97.9715 33.739 97.6441 33.6107 97.4344 33.3573C97.1801 33.0687 97.0974 32.6036 97.0974 32.1225V28.9217H96.1693V28.508H97.0974V27.1482L97.6123 26.9878Z" fill="black"/>
<path d="M100.289 28.5078L101.795 31.9235C101.942 32.2538 102.11 32.6772 102.205 32.9979H102.228C102.342 32.6804 102.482 32.2955 102.65 31.8818L104.062 28.511H104.621L102.828 32.6387C102.132 34.2551 101.681 35.0537 101.004 35.5412C100.572 35.8587 100.181 35.9774 100.076 35.9999L99.939 35.5637C100.193 35.4899 100.549 35.3392 100.867 35.0633C101.131 34.8388 101.522 34.4155 101.837 33.6907C101.878 33.5944 101.9 33.5303 101.9 33.4886C101.9 33.4469 101.878 33.3731 101.827 33.2545L99.7292 28.511H100.289V28.5078Z" fill="black"/>
<path d="M112.052 33.37C111.83 33.4759 111.22 33.7421 110.355 33.7421C108.744 33.7421 107.679 32.6131 107.679 31.1378C107.679 29.4348 108.934 28.3828 110.555 28.3828C111.302 28.3828 111.884 28.5945 112.094 28.7452L111.903 29.1718C111.607 29.0018 111.166 28.8318 110.511 28.8318C109.004 28.8318 108.19 29.8325 108.19 31.0769C108.19 32.4079 109.138 33.2995 110.425 33.2995C111.153 33.2995 111.604 33.0878 111.9 32.9595L112.052 33.37Z" fill="black"/>
<path d="M117.723 32.3821C117.723 32.7959 117.732 33.2 117.764 33.6169H117.278L117.246 32.5842H117.224C116.919 33.1486 116.277 33.742 115.253 33.742C114.675 33.742 113.346 33.5399 113.346 31.3686V28.5078H113.861V31.2628C113.861 32.4527 114.271 33.2833 115.39 33.2833C116.159 33.2833 116.801 32.7926 117.078 32.1993C117.141 32.039 117.205 31.8273 117.205 31.6028V28.5078H117.72V32.3821H117.723Z" fill="black"/>
<path d="M119.366 32.9242C119.671 33.1167 120.126 33.3059 120.631 33.3059C121.518 33.3059 121.906 32.8376 121.906 32.3181C121.906 31.7215 121.505 31.4361 120.714 31.1795C119.795 30.8812 119.344 30.4034 119.344 29.7972C119.344 29.0724 119.913 28.3828 121.009 28.3828C121.505 28.3828 121.938 28.5207 122.233 28.7228L122.033 29.1493C121.864 29.0339 121.496 28.819 120.914 28.819C120.218 28.819 119.849 29.2456 119.849 29.733C119.849 30.3071 120.282 30.5316 121.028 30.785C121.957 31.1025 122.408 31.5066 122.408 32.2732C122.408 33.1038 121.734 33.7421 120.583 33.7421C120.046 33.7421 119.55 33.5945 119.172 33.37L119.366 32.9242Z" fill="black"/>
<path d="M124.604 26.9878V28.508H126.206V28.9217H124.604V32.1867C124.604 32.8153 124.795 33.2932 125.415 33.2932C125.72 33.2932 125.93 33.2515 126.079 33.197L126.143 33.6011C125.965 33.6748 125.701 33.739 125.364 33.739C124.963 33.739 124.636 33.6107 124.426 33.3573C124.172 33.0687 124.089 32.6036 124.089 32.1225V28.9217H123.161V28.508H124.089V27.1482L124.604 26.9878Z" fill="black"/>
<path d="M132.246 30.9967C132.246 32.9114 130.771 33.7421 129.525 33.7421C128.018 33.7421 126.922 32.6259 126.922 31.1154C126.922 29.4123 128.187 28.3828 129.598 28.3828C131.225 28.3828 132.246 29.5406 132.246 30.9967ZM127.44 31.0833C127.44 32.5073 128.463 33.3155 129.56 33.3155C130.679 33.3155 131.731 32.4977 131.731 31.0288C131.731 30.0602 131.089 28.8062 129.601 28.8062C128.167 28.8062 127.44 29.8934 127.44 31.0833Z" fill="black"/>
<path d="M138.119 26V32.3823C138.119 32.7961 138.129 33.2002 138.161 33.6171H137.687L137.655 32.5523H137.633C137.337 33.1906 136.641 33.7422 135.589 33.7422C134.165 33.7422 133.155 32.594 133.155 31.1796C133.145 29.5215 134.283 28.383 135.707 28.383C136.762 28.383 137.363 28.9474 137.582 29.3612H137.604V26H138.119ZM137.601 30.5606C137.601 30.4131 137.579 30.2111 137.538 30.0603C137.315 29.3676 136.664 28.8063 135.713 28.8063C134.512 28.8063 133.669 29.7332 133.669 31.1155C133.669 32.2637 134.334 33.3156 135.704 33.3156C136.568 33.3156 137.328 32.7191 137.538 31.9109C137.579 31.773 137.601 31.6351 137.601 31.4651V30.5606Z" fill="black"/>
<path d="M140.659 27.0011C140.659 27.2352 140.49 27.4597 140.217 27.4597C139.976 27.4597 139.807 27.2352 139.807 27.0011C139.807 26.767 139.998 26.5425 140.239 26.5425C140.478 26.5425 140.659 26.7542 140.659 27.0011ZM139.972 33.6144V28.5085H140.487V33.6144H139.972Z" fill="black"/>
<path d="M145.411 33.6138L145.325 32.828H145.303C145.039 33.2225 144.397 33.7421 143.469 33.7421C142.321 33.7421 141.857 32.9563 141.857 32.3373C141.857 31.1795 142.922 30.4226 145.284 30.4547V30.3392C145.284 29.9576 145.198 28.8062 143.85 28.819C143.345 28.819 142.817 28.9473 142.394 29.2456L142.226 28.8735C142.785 28.5015 143.405 28.3828 143.892 28.3828C145.611 28.3828 145.799 29.7234 145.799 30.5316V32.3822C145.799 32.7959 145.821 33.2 145.884 33.617H145.411V33.6138ZM145.284 30.8908C143.946 30.8492 142.407 31.0608 142.407 32.2411C142.407 32.9659 142.922 33.3155 143.513 33.3155C144.492 33.3155 145.02 32.7318 145.22 32.2732C145.261 32.1673 145.284 32.0615 145.284 31.9749V30.8908Z" fill="black"/>
<path d="M147.572 29.7429C147.572 29.3292 147.563 28.9251 147.531 28.5082H148.017L148.059 29.5281H148.081C148.386 28.8995 149.104 28.3799 150.029 28.3799C150.493 28.3799 152 28.5916 152 30.7083V33.6108H151.485V30.7083C151.485 29.7077 151.053 28.8257 149.893 28.8257C149.082 28.8257 148.405 29.3902 148.173 30.038C148.132 30.1535 148.087 30.3363 148.087 30.4966V33.6141H147.572V29.7429Z" fill="black"/>
<path d="M8.29068 16.5191C8.29068 9.19006 14.0944 3.25163 21.2573 3.25163C28.4201 3.25163 34.2239 9.19331 34.2239 16.5191C34.2239 17.7476 34.056 18.934 33.7518 20.0621C34.5533 18.276 35 16.2922 35 14.1982C35.0032 6.4283 28.8478 0.133301 21.2573 0.133301C13.6668 0.133301 7.51135 6.4283 7.51135 14.1949C7.51135 16.289 7.95804 18.276 8.75954 20.0588C8.45858 18.934 8.29068 17.7444 8.29068 16.5191Z" fill="#0C78E5"/>
<path d="M0 34.1334C0 34.1334 2.49955 31.5111 14.5474 31.8871C24.723 32.2048 28.2648 29.5824 31.4296 24.6099C32.4339 23.0313 33.6916 20.3733 33.6916 20.3733C33.6916 20.3733 31.9492 19.6374 30.4666 21.2485C29.0885 22.746 28.3282 24.947 23.7029 26.4965C19.7778 27.8125 13.9043 26.9211 13.9043 26.9211C13.9043 26.9211 18.1526 26.8076 20.3385 26.4997C23.421 26.0653 24.8846 25.1739 24.8846 25.1739C24.8846 25.1739 24.3967 23.9486 22.2646 23.6083C21.1495 23.43 18.5549 23.6342 15.7101 23.0281C11.1893 22.0653 7.0266 23.3328 3.8998 26.4997C0.510046 29.9292 0 34.1334 0 34.1334Z" fill="#0C78E5"/>
<path fill-rule="evenodd" clip-rule="evenodd" d="M29.5098 16.4669H27.1623V23.3C26.7219 23.702 26.2531 24.0585 25.7367 24.3535L25.7303 24.347C24.9352 23.1282 23.424 22.5156 21.9319 22.4021C20.0185 22.2562 18.0068 22.3113 16.068 21.9159C15.8304 21.8673 15.5928 21.8219 15.3552 21.783V16.4669H13.0077L21.2571 8.75537L29.5098 16.4669Z" fill="#4FA800"/>
</svg>
