<svg width="121" height="36" viewBox="0 0 121 36" fill="none" xmlns="http://www.w3.org/2000/svg">
<path d="M116.695 36H4.23859C1.90194 36 0 34.0848 0 31.7403V4.2534C0 1.908 1.90194 0 4.23859 0H116.695C119.031 0 121 1.908 121 4.2534V31.7403C121 34.0848 119.031 36 116.695 36Z" fill="white"/>
<path d="M120.132 31.7412C120.132 33.6456 118.596 35.1882 116.696 35.1882H4.23855C2.3393 35.1882 0.797668 33.6456 0.797668 31.7412V4.25252C0.797668 2.34903 2.3393 0.801025 4.23855 0.801025H116.695C118.596 0.801025 120.131 2.34903 120.131 4.25252L120.132 31.7412Z" fill="black"/>
<path d="M27.0036 17.8056C26.9776 14.9049 29.3689 13.4937 29.4783 13.428C28.124 11.4453 26.0249 11.1744 25.2872 11.1528C23.5242 10.9665 21.8141 12.2121 20.916 12.2121C19.9999 12.2121 18.617 11.1708 17.1264 11.2014C15.2083 11.2311 13.414 12.3462 12.4298 14.0778C10.3988 17.6085 11.9136 22.797 13.8594 25.6509C14.8328 27.0486 15.9702 28.6092 17.4589 28.5543C18.9154 28.494 19.4595 27.6219 21.2171 27.6219C22.9586 27.6219 23.4695 28.5543 24.9878 28.5192C26.551 28.494 27.5351 27.1152 28.4744 25.7049C29.5993 24.1029 30.051 22.5252 30.0689 22.4442C30.0322 22.4316 27.0332 21.2823 27.0036 17.8056Z" fill="white"/>
<path d="M24.1355 9.27531C24.9188 8.29161 25.4548 6.95331 25.306 5.59521C24.1722 5.64561 22.7543 6.38271 21.9378 7.34481C21.2154 8.19261 20.57 9.58221 20.7367 10.889C22.0104 10.9844 23.3181 10.2437 24.1355 9.27531Z" fill="white"/>
<path d="M48.0818 28.3537H46.0463L44.9313 24.8356H41.0557L39.9936 28.3537H38.0119L41.8516 16.3765H44.2232L48.0818 28.3537ZM44.5952 23.3596L43.5869 20.2321C43.4802 19.9126 43.2803 19.1602 42.9854 17.9758H42.9496C42.8322 18.4852 42.6431 19.2376 42.3831 20.2321L41.3927 23.3596H44.5952Z" fill="white"/>
<path d="M57.9563 23.9293C57.9563 25.3981 57.561 26.5591 56.7705 27.4114C56.0624 28.1701 55.1832 28.549 54.1336 28.549C53.0007 28.549 52.1869 28.1404 51.6912 27.3232H51.6554V31.8727H49.7445V22.5604C49.7445 21.637 49.7203 20.6893 49.6736 19.7173H51.3542L51.4609 21.0862H51.4967C52.134 20.0548 53.1011 19.54 54.3989 19.54C55.4135 19.54 56.2605 19.9423 56.9381 20.7478C57.6175 21.5542 57.9563 22.6144 57.9563 23.9293ZM56.0096 23.9995C56.0096 23.1589 55.8213 22.4659 55.4431 21.9205C55.0299 21.3517 54.4751 21.0673 53.7796 21.0673C53.3081 21.0673 52.8797 21.2257 52.497 21.538C52.1134 21.853 51.8624 22.2643 51.745 22.7737C51.6858 23.0113 51.6563 23.2057 51.6563 23.3587V24.7987C51.6563 25.4269 51.8481 25.957 52.2317 26.3899C52.6153 26.8228 53.1136 27.0388 53.7267 27.0388C54.4464 27.0388 55.0066 26.7598 55.4073 26.2036C55.8088 25.6465 56.0096 24.9121 56.0096 23.9995Z" fill="white"/>
<path d="M67.8487 23.9293C67.8487 25.3981 67.4534 26.5591 66.662 27.4114C65.9548 28.1701 65.0755 28.549 64.026 28.549C62.893 28.549 62.0792 28.1404 61.5845 27.3232H61.5486V31.8727H59.6377V22.5604C59.6377 21.637 59.6135 20.6893 59.5669 19.7173H61.2474L61.3541 21.0862H61.39C62.0263 20.0548 62.9934 19.54 64.2922 19.54C65.3059 19.54 66.1529 19.9423 66.8323 20.7478C67.509 21.5542 67.8487 22.6144 67.8487 23.9293ZM65.9019 23.9995C65.9019 23.1589 65.7128 22.4659 65.3346 21.9205C64.9214 21.3517 64.3684 21.0673 63.6719 21.0673C63.1996 21.0673 62.7721 21.2257 62.3884 21.538C62.0048 21.853 61.7548 22.2643 61.6373 22.7737C61.5791 23.0113 61.5486 23.2057 61.5486 23.3587V24.7987C61.5486 25.4269 61.7404 25.957 62.1222 26.3899C62.5058 26.8219 63.0042 27.0388 63.6191 27.0388C64.3388 27.0388 64.899 26.7598 65.2996 26.2036C65.7011 25.6465 65.9019 24.9121 65.9019 23.9995Z" fill="white"/>
<path d="M78.909 24.9948C78.909 26.0136 78.5567 26.8425 77.8496 27.4824C77.0725 28.1817 75.9906 28.5309 74.6005 28.5309C73.317 28.5309 72.288 28.2825 71.5092 27.7848L71.9519 26.1855C72.7909 26.6949 73.7114 26.9505 74.7143 26.9505C75.434 26.9505 75.9942 26.7867 76.3967 26.4609C76.7973 26.1351 76.9972 25.6977 76.9972 25.1523C76.9972 24.6663 76.8323 24.2568 76.5015 23.9247C76.1726 23.5926 75.6232 23.2839 74.8559 22.9986C72.7676 22.2165 71.7243 21.0708 71.7243 19.5642C71.7243 18.5796 72.09 17.7723 72.8222 17.1441C73.5518 16.515 74.5252 16.2009 75.7424 16.2009C76.8278 16.2009 77.7295 16.3908 78.4492 16.7697L77.9715 18.3339C77.2992 17.9667 76.5392 17.7831 75.6886 17.7831C75.0164 17.7831 74.4911 17.9496 74.1147 18.2808C73.7965 18.5769 73.637 18.9378 73.637 19.3653C73.637 19.8387 73.8189 20.2302 74.1846 20.538C74.5028 20.8224 75.0809 21.1302 75.9198 21.4623C76.9461 21.8772 77.6999 22.3623 78.1848 22.9185C78.6679 23.4729 78.909 24.1668 78.909 24.9948Z" fill="white"/>
<path d="M85.227 21.1573H83.1207V25.3504C83.1207 26.4169 83.4918 26.9497 84.2357 26.9497C84.5772 26.9497 84.8604 26.92 85.0845 26.8606L85.1374 28.3177C84.7609 28.459 84.2653 28.5301 83.6513 28.5301C82.8967 28.5301 82.3069 28.2988 81.8812 27.8371C81.4572 27.3745 81.2439 26.5987 81.2439 25.5088V21.1555H79.9891V19.7155H81.2439V18.1342L83.1207 17.5654V19.7155H85.227V21.1573Z" fill="white"/>
<path d="M94.7304 23.9643C94.7304 25.2918 94.3522 26.3817 93.5975 27.234C92.8061 28.1115 91.7556 28.5489 90.4461 28.5489C89.1842 28.5489 88.1794 28.1286 87.4301 27.288C86.6808 26.4474 86.3062 25.3863 86.3062 24.1074C86.3062 22.7691 86.6916 21.6729 87.4651 20.8206C88.2368 19.9674 89.2783 19.5408 90.5878 19.5408C91.8497 19.5408 92.8652 19.9611 93.6316 20.8026C94.3647 21.6189 94.7304 22.6728 94.7304 23.9643ZM92.7478 24.0264C92.7478 23.2299 92.5784 22.5468 92.2351 21.9771C91.8345 21.2877 91.2618 20.9439 90.5196 20.9439C89.7515 20.9439 89.168 21.2886 88.7674 21.9771C88.4241 22.5477 88.2547 23.2416 88.2547 24.0624C88.2547 24.8589 88.4241 25.542 88.7674 26.1108C89.1806 26.8002 89.7578 27.144 90.5026 27.144C91.2322 27.144 91.8049 26.793 92.2181 26.0928C92.5704 25.5123 92.7478 24.822 92.7478 24.0264Z" fill="white"/>
<path d="M100.942 21.4048C100.753 21.3697 100.551 21.3517 100.339 21.3517C99.6672 21.3517 99.1473 21.6064 98.7817 22.1167C98.4635 22.5667 98.3039 23.1355 98.3039 23.8222V28.3537H96.3939L96.4119 22.4371C96.4119 21.4417 96.3877 20.5354 96.3401 19.7182H98.0046L98.0745 21.3706H98.1274C98.329 20.8027 98.6472 20.3455 99.0828 20.0026C99.5086 19.6939 99.9684 19.54 100.464 19.54C100.641 19.54 100.8 19.5526 100.942 19.5751V21.4048Z" fill="white"/>
<path d="M109.488 23.6268C109.488 23.9706 109.466 24.2604 109.418 24.4971H103.685C103.708 25.3503 103.985 26.0028 104.517 26.4528C105 26.8551 105.625 27.0567 106.392 27.0567C107.241 27.0567 108.015 26.9208 108.712 26.6481L109.011 27.9801C108.197 28.3365 107.236 28.5138 106.128 28.5138C104.794 28.5138 103.747 28.1196 102.985 27.3321C102.225 26.5446 101.844 25.4871 101.844 24.1605C101.844 22.8582 102.198 21.7737 102.907 20.9088C103.649 19.9854 104.652 19.5237 105.914 19.5237C107.154 19.5237 108.092 19.9854 108.73 20.9088C109.234 21.6423 109.488 22.5495 109.488 23.6268ZM107.666 23.1291C107.678 22.5603 107.554 22.0689 107.295 21.654C106.964 21.1203 106.456 20.8539 105.772 20.8539C105.147 20.8539 104.639 21.114 104.251 21.636C103.933 22.0509 103.744 22.5486 103.685 23.1282H107.666V23.1291Z" fill="white"/>
<path d="M43.9633 9.00808C43.9633 10.0674 43.6469 10.8648 43.015 11.4003C42.4297 11.8944 41.598 12.1419 40.5206 12.1419C39.9864 12.1419 39.5293 12.1185 39.1466 12.0717V6.28378C39.6458 6.20278 40.1836 6.16138 40.7644 6.16138C41.7907 6.16138 42.5642 6.38548 43.0858 6.83368C43.6702 7.34038 43.9633 8.06488 43.9633 9.00808ZM42.9729 9.03418C42.9729 8.34748 42.7918 7.82098 42.4297 7.45378C42.0676 7.08748 41.5388 6.90388 40.8424 6.90388C40.5466 6.90388 40.2948 6.92368 40.0859 6.96508V11.3652C40.2015 11.3832 40.4131 11.3913 40.7205 11.3913C41.4393 11.3913 41.9941 11.1906 42.3849 10.7892C42.7757 10.3878 42.9729 9.80278 42.9729 9.03418Z" fill="white"/>
<path d="M49.2147 9.93334C49.2147 10.5858 49.0291 11.1204 48.6581 11.5398C48.2691 11.9709 47.7537 12.186 47.1102 12.186C46.4899 12.186 45.9961 11.9799 45.6277 11.5659C45.2602 11.1528 45.0765 10.6317 45.0765 10.0035C45.0765 9.34654 45.2656 8.80744 45.6456 8.38894C46.0257 7.97044 46.5365 7.76074 47.1801 7.76074C47.8003 7.76074 48.2987 7.96684 48.676 8.37994C49.0345 8.78134 49.2147 9.29974 49.2147 9.93334ZM48.2404 9.96394C48.2404 9.57244 48.1562 9.23674 47.9885 8.95684C47.7914 8.61844 47.5108 8.44924 47.146 8.44924C46.7687 8.44924 46.4819 8.61844 46.2847 8.95684C46.1162 9.23674 46.0328 9.57784 46.0328 9.98104C46.0328 10.3725 46.1171 10.7082 46.2847 10.9881C46.4881 11.3265 46.7714 11.4957 47.1371 11.4957C47.4956 11.4957 47.777 11.3238 47.9796 10.9791C48.1535 10.6938 48.2404 10.3554 48.2404 9.96394Z" fill="white"/>
<path d="M56.256 7.84717L54.9339 12.0898H54.0735L53.5259 10.2475C53.3869 9.78757 53.274 9.33037 53.1862 8.87677H53.1691C53.0876 9.34297 52.9746 9.79927 52.8294 10.2475L52.2477 12.0898H51.3774L50.1343 7.84717H51.0996L51.5773 9.86407C51.6929 10.3411 51.7879 10.7956 51.8641 11.2258H51.8812C51.9511 10.8712 52.0667 10.4194 52.2298 9.87307L52.8294 7.84807H53.5949L54.1694 9.82987C54.3083 10.3132 54.4213 10.7785 54.5082 11.2267H54.5342C54.5978 10.7902 54.6937 10.3249 54.821 9.82987L55.3337 7.84807H56.256V7.84717Z" fill="white"/>
<path d="M61.1256 12.0898H60.1863V9.65976C60.1863 8.91096 59.9031 8.53656 59.3348 8.53656C59.0561 8.53656 58.8311 8.63916 58.6563 8.84526C58.4833 9.05136 58.3955 9.29436 58.3955 9.57246V12.0889H57.4562V9.05946C57.4562 8.68686 57.4445 8.28276 57.4221 7.84536H58.2476L58.2915 8.50866H58.3175C58.4269 8.30256 58.59 8.13246 58.8042 7.99656C59.0588 7.83816 59.3438 7.75806 59.6557 7.75806C60.0501 7.75806 60.3781 7.88586 60.6389 8.14236C60.9634 8.45646 61.1256 8.92536 61.1256 9.54816V12.0898Z" fill="white"/>
<path d="M63.7159 12.0897H62.7775V5.90039H63.7159V12.0897Z" fill="white"/>
<path d="M69.246 9.93334C69.246 10.5858 69.0605 11.1204 68.6894 11.5398C68.3005 11.9709 67.7842 12.186 67.1415 12.186C66.5204 12.186 66.0265 11.9799 65.6591 11.5659C65.2916 11.1528 65.1078 10.6317 65.1078 10.0035C65.1078 9.34654 65.297 8.80744 65.677 8.38894C66.057 7.97044 66.5679 7.76074 67.2106 7.76074C67.8317 7.76074 68.3291 7.96684 68.7074 8.37994C69.0659 8.78134 69.246 9.29974 69.246 9.93334ZM68.2709 9.96394C68.2709 9.57244 68.1866 9.23674 68.019 8.95684C67.8227 8.61844 67.5413 8.44924 67.1774 8.44924C66.7992 8.44924 66.5123 8.61844 66.3161 8.95684C66.1476 9.23674 66.0642 9.57784 66.0642 9.98104C66.0642 10.3725 66.1484 10.7082 66.3161 10.9881C66.5195 11.3265 66.8027 11.4957 67.1684 11.4957C67.527 11.4957 67.8075 11.3238 68.0101 10.9791C68.1848 10.6938 68.2709 10.3554 68.2709 9.96394Z" fill="white"/>
<path d="M73.792 12.0897H72.9486L72.8787 11.601H72.8527C72.5641 11.9907 72.1527 12.186 71.6185 12.186C71.2197 12.186 70.897 12.0573 70.6541 11.8017C70.4336 11.5695 70.3234 11.2806 70.3234 10.9377C70.3234 10.4193 70.5385 10.0242 70.9714 9.75064C71.4034 9.47704 72.0111 9.34294 72.7936 9.34924V9.27004C72.7936 8.71114 72.5014 8.43214 71.9161 8.43214C71.4993 8.43214 71.1318 8.53744 70.8145 8.74624L70.6236 8.12704C71.0162 7.88314 71.5011 7.76074 72.0729 7.76074C73.1772 7.76074 73.7311 8.34574 73.7311 9.51574V11.0781C73.7311 11.502 73.7517 11.8395 73.792 12.0897ZM72.8169 10.6317V9.97744C71.7807 9.95944 71.2627 10.2447 71.2627 10.8324C71.2627 11.0538 71.3218 11.2194 71.4428 11.3301C71.5638 11.4408 71.718 11.4957 71.9017 11.4957C72.1079 11.4957 72.3006 11.43 72.4763 11.2995C72.6528 11.1681 72.7613 11.0016 72.8016 10.7973C72.8115 10.7514 72.8169 10.6956 72.8169 10.6317Z" fill="white"/>
<path d="M79.1295 12.0897H78.2959L78.252 11.4084H78.226C77.9598 11.9268 77.5063 12.186 76.869 12.186C76.3599 12.186 75.936 11.9853 75.5998 11.5839C75.2637 11.1825 75.0961 10.6614 75.0961 10.0215C75.0961 9.33479 75.2781 8.77859 75.6438 8.35379C75.9978 7.95779 76.4316 7.75979 76.9479 7.75979C77.5152 7.75979 77.9123 7.95149 78.1382 8.33579H78.1561V5.90039H79.0963V10.9467C79.0963 11.3598 79.1071 11.7405 79.1295 12.0897ZM78.1561 10.3005V9.59309C78.1561 9.47069 78.1471 9.37169 78.1301 9.29609C78.0772 9.06929 77.9634 8.87849 77.7904 8.72459C77.6156 8.57069 77.405 8.49329 77.1621 8.49329C76.8116 8.49329 76.5374 8.63279 76.3357 8.91269C76.1358 9.19259 76.0345 9.54989 76.0345 9.98639C76.0345 10.4058 76.1305 10.746 76.3232 11.0079C76.5266 11.2869 76.8009 11.4264 77.1442 11.4264C77.4525 11.4264 77.699 11.3103 77.8863 11.0772C78.0674 10.8621 78.1561 10.6029 78.1561 10.3005Z" fill="white"/>
<path d="M87.163 9.93334C87.163 10.5858 86.9775 11.1204 86.6064 11.5398C86.2174 11.9709 85.7029 12.186 85.0585 12.186C84.4391 12.186 83.9453 11.9799 83.576 11.5659C83.2085 11.1528 83.0248 10.6317 83.0248 10.0035C83.0248 9.34654 83.2139 8.80744 83.5939 8.38894C83.974 7.97044 84.4848 7.76074 85.1293 7.76074C85.7486 7.76074 86.2479 7.96684 86.6243 8.37994C86.9828 8.78134 87.163 9.29974 87.163 9.93334ZM86.1896 9.96394C86.1896 9.57244 86.1054 9.23674 85.9377 8.95684C85.7397 8.61844 85.46 8.44924 85.0943 8.44924C84.7179 8.44924 84.4311 8.61844 84.233 8.95684C84.0645 9.23674 83.9811 9.57784 83.9811 9.98104C83.9811 10.3725 84.0654 10.7082 84.233 10.9881C84.4364 11.3265 84.7197 11.4957 85.0854 11.4957C85.4439 11.4957 85.7262 11.3238 85.9288 10.9791C86.1018 10.6938 86.1896 10.3554 86.1896 9.96394Z" fill="white"/>
<path d="M92.2136 12.0898H91.2752V9.65976C91.2752 8.91096 90.992 8.53656 90.4228 8.53656C90.1441 8.53656 89.9191 8.63916 89.7452 8.84526C89.5713 9.05136 89.4844 9.29436 89.4844 9.57246V12.0889H88.5442V9.05946C88.5442 8.68686 88.5334 8.28276 88.511 7.84536H89.3356L89.3795 8.50866H89.4055C89.5158 8.30256 89.6789 8.13246 89.8922 7.99656C90.1477 7.83816 90.4318 7.75806 90.7446 7.75806C91.1381 7.75806 91.4661 7.88586 91.7269 8.14236C92.0523 8.45646 92.2136 8.92536 92.2136 9.54816V12.0898Z" fill="white"/>
<path d="M98.5352 8.55363H97.5009V10.6146C97.5009 11.1384 97.6846 11.4003 98.0485 11.4003C98.217 11.4003 98.3569 11.3859 98.4671 11.3562L98.4913 12.0717C98.3058 12.1419 98.062 12.177 97.7617 12.177C97.3906 12.177 97.102 12.0636 96.8932 11.8368C96.6835 11.61 96.5795 11.2284 96.5795 10.6929V8.55363H95.9619V7.84713H96.5795V7.06953L97.5 6.79053V7.84623H98.5343V8.55363H98.5352Z" fill="white"/>
<path d="M103.508 12.0897H102.568V9.67769C102.568 8.91719 102.284 8.53649 101.717 8.53649C101.281 8.53649 100.984 8.75699 100.821 9.19799C100.793 9.29069 100.777 9.40409 100.777 9.53729V12.0888H99.8384V5.90039H100.777V8.45729H100.795C101.091 7.99199 101.514 7.75979 102.064 7.75979C102.453 7.75979 102.775 7.88759 103.03 8.14409C103.348 8.46359 103.508 8.93879 103.508 9.56699V12.0897Z" fill="white"/>
<path d="M108.637 9.76779C108.637 9.93699 108.625 10.0792 108.602 10.1953H105.785C105.798 10.6147 105.932 10.9342 106.193 11.1556C106.432 11.3536 106.739 11.4526 107.115 11.4526C107.532 11.4526 107.912 11.386 108.255 11.2519L108.402 11.9071C108.001 12.0817 107.53 12.169 106.984 12.169C106.329 12.169 105.814 11.9755 105.441 11.5885C105.067 11.2015 104.881 10.6822 104.881 10.0306C104.881 9.39069 105.054 8.85789 105.403 8.43309C105.767 7.97949 106.259 7.75269 106.88 7.75269C107.487 7.75269 107.949 7.97949 108.261 8.43309C108.513 8.79309 108.637 9.23859 108.637 9.76779ZM107.741 9.52389C107.748 9.24399 107.686 9.00279 107.559 8.79939C107.396 8.53749 107.148 8.40609 106.812 8.40609C106.505 8.40609 106.255 8.53389 106.064 8.79039C105.908 8.99469 105.816 9.23859 105.785 9.52389H107.741Z" fill="white"/>
</svg>
