<svg width="202" height="60" viewBox="0 0 202 60" fill="none" xmlns="http://www.w3.org/2000/svg">
<path d="M200.551 52.902C200.551 56.076 197.987 58.647 194.815 58.647H7.07581C3.90516 58.647 1.33153 56.076 1.33153 52.902V7.08746C1.33153 3.91496 3.90516 1.33496 7.07581 1.33496H194.813C197.987 1.33496 200.55 3.91496 200.55 7.08746L200.551 52.902Z" fill="white"/>
<path d="M194.815 59.9835H7.07599C3.17514 59.9835 0 56.808 0 52.902V7.089C0 3.18 3.17514 0 7.07599 0H194.813C198.71 0 201.889 3.18 201.889 7.089V52.902C201.892 56.808 198.713 59.9835 194.815 59.9835Z" fill="white"/>
<path d="M200.551 52.902C200.551 56.076 197.987 58.647 194.815 58.647H7.07581C3.90516 58.647 1.33153 56.076 1.33153 52.902V7.08746C1.33153 3.91496 3.90516 1.33496 7.07581 1.33496H194.813C197.987 1.33496 200.55 3.91496 200.55 7.08746L200.551 52.902Z" fill="black"/>
<path d="M45.0805 29.6759C45.0371 24.8414 49.0292 22.4894 49.2117 22.3799C46.9508 19.0754 43.4465 18.6239 42.215 18.5879C39.2718 18.2774 36.4169 20.3534 34.9176 20.3534C33.3884 20.3534 31.0796 18.6179 28.5913 18.6689C25.3892 18.7184 22.3936 20.5769 20.7507 23.4629C17.3601 29.3474 19.8888 37.9949 23.1373 42.7514C24.7622 45.0824 26.661 47.6819 29.1464 47.5904C31.5779 47.4914 32.4861 46.0379 35.4204 46.0379C38.3277 46.0379 39.1806 47.5904 41.7153 47.5319C44.3248 47.4914 45.9678 45.1919 47.5359 42.8414C49.4137 40.1729 50.1679 37.5419 50.1978 37.4069C50.1379 37.3859 45.1313 35.4689 45.0805 29.6759Z" fill="white"/>
<path d="M40.2923 15.4591C41.6 13.8196 42.4948 11.5891 42.2464 9.32556C40.3536 9.40956 37.9865 10.6381 36.6234 12.2416C35.4174 13.6546 34.34 15.9706 34.6183 18.1486C36.7446 18.3076 38.9277 17.0731 40.2923 15.4591Z" fill="white"/>
<path d="M194.815 0H94.2563L133.643 59.9835H194.815C198.711 59.9835 201.891 56.808 201.891 52.8975V7.089C201.892 3.18 198.713 0 194.815 0Z" fill="url(#paint0_linear)"/>
<path d="M80.2986 47.2561H76.9005L75.0391 41.3926H68.5691L66.796 47.2561H63.4877L69.8993 27.2941H73.8585L80.2986 47.2561ZM74.478 38.9326L72.7947 33.7201C72.6166 33.1876 72.2814 31.9336 71.7907 29.9596H71.7308C71.5333 30.8086 71.2176 32.0626 70.7851 33.7201L69.1302 38.9326H74.478Z" fill="white"/>
<path d="M96.7549 39.8819C96.7549 42.3299 96.0921 44.2649 94.7648 45.6854C93.5768 46.9499 92.0999 47.5814 90.3388 47.5814C88.437 47.5814 87.0694 46.9019 86.2389 45.5399V53.0924H83.0488V37.5929C83.0488 36.0554 83.0084 34.4789 82.9306 32.8619H85.7362L85.9142 35.1434H85.9741C87.038 33.4244 88.6525 32.5649 90.8191 32.5649C92.5129 32.5649 93.9269 33.2354 95.0581 34.5779C96.1878 35.9234 96.7549 37.6904 96.7549 39.8819ZM93.505 39.9989C93.505 38.5979 93.1907 37.4429 92.5593 36.5324C91.8695 35.5859 90.9433 35.1119 89.7822 35.1119C88.9951 35.1119 88.2799 35.3759 87.641 35.8964C87.0006 36.4214 86.5816 37.1069 86.3856 37.9559C86.2868 38.3519 86.2374 38.6744 86.2374 38.9294V41.3309C86.2374 42.3764 86.5577 43.2599 87.1981 43.9829C87.8385 44.7029 88.6704 45.0644 89.6939 45.0644C90.8954 45.0644 91.8306 44.5979 92.4995 43.6724C93.1698 42.7439 93.505 41.5199 93.505 39.9989Z" fill="white"/>
<path d="M113.27 39.8819C113.27 42.3299 112.607 44.2649 111.28 45.6854C110.09 46.9499 108.615 47.5814 106.852 47.5814C104.95 47.5814 103.583 46.9019 102.752 45.5399V53.0924H99.562V37.5929C99.562 36.0554 99.5216 34.4789 99.4438 32.8619H102.249L102.427 35.1434H102.487C103.55 33.4244 105.164 32.5649 107.332 32.5649C109.025 32.5649 110.439 33.2354 111.573 34.5779C112.701 35.9234 113.27 37.6904 113.27 39.8819ZM110.018 39.9989C110.018 38.5979 109.702 37.4429 109.071 36.5324C108.381 35.5859 107.458 35.1119 106.297 35.1119C105.51 35.1119 104.795 35.3759 104.153 35.8964C103.512 36.4214 103.095 37.1069 102.899 37.9559C102.802 38.3519 102.749 38.6744 102.749 38.9294V41.3309C102.749 42.3764 103.071 43.2599 103.708 43.9829C104.349 44.7014 105.181 45.0644 106.207 45.0644C107.41 45.0644 108.345 44.5979 109.013 43.6724C109.683 42.7439 110.018 41.5199 110.018 39.9989Z" fill="white"/>
<path d="M131.734 41.6565C131.734 43.356 131.141 44.7375 129.964 45.804C128.668 46.968 126.859 47.5515 124.54 47.5515C122.397 47.5515 120.679 47.1375 119.384 46.308L120.121 43.6425C121.52 44.4735 123.057 44.8875 124.73 44.8875C125.933 44.8875 126.868 44.6145 127.535 44.073C128.204 43.53 128.542 42.804 128.542 41.898C128.542 41.0865 128.263 40.407 127.713 39.8535C127.161 39.3015 126.249 38.787 124.966 38.3145C121.48 37.011 119.735 35.1045 119.735 32.5965C119.735 30.9585 120.352 29.6175 121.582 28.569C122.812 27.522 124.443 26.9985 126.472 26.9985C128.284 26.9985 129.793 27.315 130.992 27.9465L130.191 30.5535C129.063 29.9415 127.79 29.6355 126.365 29.6355C125.24 29.6355 124.357 29.913 123.726 30.465C123.195 30.9585 122.925 31.56 122.925 32.274C122.925 33.0615 123.232 33.7155 123.843 34.2285C124.372 34.701 125.339 35.2155 126.736 35.7675C128.451 36.4605 129.711 37.2675 130.517 38.1945C131.33 39.1215 131.734 40.278 131.734 41.6565Z" fill="white"/>
<path d="M142.308 35.2621H138.792V42.2506C138.792 44.0281 139.411 44.9146 140.653 44.9146C141.223 44.9146 141.696 44.8666 142.07 44.7661L142.158 47.1946C141.53 47.4301 140.703 47.5486 139.678 47.5486C138.418 47.5486 137.433 47.1631 136.722 46.3921C136.015 45.6211 135.659 44.3296 135.659 42.5116V35.2561H133.564V32.8561H135.659V30.2206L138.792 29.2726V32.8561H142.308V35.2621Z" fill="white"/>
<path d="M158.142 39.9406C158.142 42.1531 157.511 43.9696 156.251 45.3901C154.933 46.8526 153.179 47.5816 150.993 47.5816C148.883 47.5816 147.206 46.8811 145.955 45.4816C144.704 44.0791 144.078 42.3121 144.078 40.1806C144.078 37.9501 144.725 36.1231 146.013 34.7026C147.304 33.2806 149.043 32.5696 151.229 32.5696C153.336 32.5696 155.028 33.2716 156.309 34.6726C157.533 36.0316 158.142 37.7866 158.142 39.9406ZM154.835 40.0141C154.835 38.6956 154.551 37.5646 153.981 36.6181C153.312 35.4751 152.354 34.9036 151.114 34.9036C149.836 34.9036 148.856 35.4751 148.189 36.6181C147.617 37.5646 147.333 38.7151 147.333 40.0741C147.333 41.3941 147.617 42.5281 148.189 43.4716C148.879 44.6146 149.841 45.1861 151.087 45.1861C152.307 45.1861 153.263 44.6026 153.954 43.4431C154.54 42.4741 154.835 41.3356 154.835 40.0141Z" fill="white"/>
<path d="M168.516 35.6744C168.2 35.6159 167.862 35.5859 167.51 35.5859C166.388 35.5859 165.52 36.0089 164.909 36.8609C164.38 37.6109 164.113 38.5589 164.113 39.7034V47.2559H160.923V37.3949C160.923 35.7374 160.892 34.2254 160.831 32.8634H163.609L163.726 35.6174H163.814C164.152 34.6709 164.682 33.9074 165.409 33.3359C166.12 32.8214 166.888 32.5649 167.715 32.5649C168.01 32.5649 168.276 32.5859 168.513 32.6234L168.516 35.6744Z" fill="white"/>
<path d="M182.783 39.3781C182.783 39.9511 182.746 40.4341 182.666 40.8286H173.096C173.132 42.2506 173.596 43.3396 174.485 44.0896C175.291 44.7586 176.334 45.0946 177.615 45.0946C179.032 45.0946 180.325 44.8696 181.487 44.4151L181.987 46.6336C180.628 47.2276 179.024 47.5231 177.173 47.5231C174.947 47.5231 173.199 46.8661 171.927 45.5551C170.659 44.2426 170.023 42.4786 170.023 40.2691C170.023 38.1001 170.614 36.2926 171.797 34.8511C173.036 33.3121 174.711 32.5426 176.817 32.5426C178.887 32.5426 180.453 33.3121 181.517 34.8511C182.36 36.0706 182.783 37.5826 182.783 39.3781ZM179.741 38.5486C179.764 37.5991 179.554 36.7816 179.122 36.0901C178.569 35.1991 177.72 34.7551 176.581 34.7551C175.538 34.7551 174.688 35.1886 174.042 36.0586C173.51 36.7501 173.195 37.5811 173.097 38.5456L179.741 38.5486Z" fill="white"/>
<path d="M72.9398 20.1495H71.2684L70.3542 17.268H67.1745L66.3022 20.1495H64.6757L67.8269 10.338H69.7721L72.9398 20.1495ZM70.0788 16.059L69.2514 13.497C69.1646 13.2345 69.0045 12.624 68.7576 11.649H68.7277C68.6259 12.0705 68.4808 12.6825 68.2623 13.497L67.4499 16.059H70.0788Z" fill="white"/>
<path d="M80.8192 13.0754L78.1468 20.1494H76.6221L74.0365 13.0754H75.7213L76.9273 16.8164C77.1308 17.4419 77.3044 18.0389 77.4346 18.6059H77.478C77.5947 18.0974 77.7682 17.5004 77.9852 16.8164L79.1763 13.0754H80.8192Z" fill="white"/>
<path d="M86.5083 20.1494L86.3915 19.3349H86.3482C85.8693 19.9904 85.1721 20.3099 84.2863 20.3099C83.0234 20.3099 82.1226 19.4219 82.1226 18.2279C82.1226 16.4819 83.6324 15.5789 86.2464 15.5789V15.4484C86.2464 14.5169 85.7526 14.0504 84.78 14.0504C84.0828 14.0504 83.4723 14.2259 82.9366 14.5754L82.6179 13.5419C83.2718 13.1339 84.0843 12.9299 85.0434 12.9299C86.8868 12.9299 87.8175 13.9049 87.8175 15.8564V18.4619C87.8175 19.1759 87.8474 19.7294 87.9193 20.1509L86.5083 20.1494ZM86.2898 16.6259C84.5466 16.6259 83.6758 17.0489 83.6758 18.0524C83.6758 18.7949 84.1262 19.1579 84.7501 19.1579C85.5491 19.1579 86.2898 18.5474 86.2898 17.7179V16.6259Z" fill="white"/>
<path d="M91.3096 11.91C90.7874 11.91 90.3804 11.502 90.3804 10.9635C90.3804 10.425 90.8009 10.032 91.3396 10.032C91.8767 10.032 92.3122 10.425 92.2972 10.9635C92.2972 11.532 91.8917 11.91 91.3096 11.91ZM92.1236 20.1495H90.5555V13.0755H92.1236V20.1495Z" fill="white"/>
<path d="M96.478 20.1495H94.9099V9.82947H96.478V20.1495Z" fill="white"/>
<path d="M103.143 20.1495L103.026 19.335H102.983C102.504 19.9905 101.806 20.31 100.921 20.31C99.6578 20.31 98.757 19.422 98.757 18.228C98.757 16.482 100.267 15.579 102.881 15.579V15.4485C102.881 14.517 102.387 14.0505 101.414 14.0505C100.717 14.0505 100.107 14.226 99.571 14.5755L99.2508 13.5405C99.9047 13.1325 100.717 12.9285 101.676 12.9285C103.52 12.9285 104.45 13.9035 104.45 15.855V18.4605C104.45 19.1745 104.482 19.728 104.551 20.1495H103.143ZM102.924 16.626C101.181 16.626 100.31 17.049 100.31 18.0525C100.31 18.795 100.761 19.158 101.385 19.158C102.184 19.158 102.924 18.5475 102.924 17.718V16.626Z" fill="white"/>
<path d="M110.804 20.31C109.803 20.31 109.063 19.887 108.585 19.0575H108.553L108.463 20.1495H107.127C107.171 19.5825 107.186 18.9405 107.186 18.243V9.82947H108.755V14.1105H108.785C109.25 13.3245 110.003 12.9315 111.036 12.9315C112.735 12.9315 113.926 14.388 113.926 16.512C113.926 18.708 112.604 20.31 110.804 20.31ZM110.485 14.166C109.583 14.166 108.757 14.952 108.757 16.044V17.2815C108.757 18.2565 109.499 19.0575 110.458 19.0575C111.633 19.0575 112.331 18.0975 112.331 16.569C112.33 15.1425 111.603 14.166 110.485 14.166Z" fill="white"/>
<path d="M117.812 20.1495H116.245V9.82947H117.812V20.1495Z" fill="white"/>
<path d="M126.348 16.9904H121.641C121.672 18.3299 122.555 19.0859 123.863 19.0859C124.56 19.0859 125.199 18.9689 125.765 18.7514L126.009 19.8434C125.341 20.1344 124.557 20.2799 123.643 20.2799C121.435 20.2799 120.128 18.8819 120.128 16.7144C120.128 14.5454 121.466 12.9149 123.466 12.9149C125.267 12.9149 126.401 14.2544 126.401 16.2779C126.407 16.5539 126.393 16.8014 126.348 16.9904ZM124.91 15.8699C124.91 14.7779 124.358 14.0069 123.356 14.0069C122.455 14.0069 121.746 14.7929 121.641 15.8699H124.91Z" fill="white"/>
<path d="M135.853 20.3099C133.791 20.3099 132.455 18.7664 132.455 16.6709C132.455 14.4869 133.819 12.9299 135.971 12.9299C138.002 12.9299 139.369 14.3999 139.369 16.5554C139.369 18.7664 137.96 20.3099 135.853 20.3099ZM135.913 14.0789C134.78 14.0789 134.054 15.1409 134.054 16.6259C134.054 18.0824 134.795 19.1444 135.898 19.1444C137.001 19.1444 137.74 18.0089 137.74 16.5959C137.741 15.1559 137.016 14.0789 135.913 14.0789Z" fill="white"/>
<path d="M147.799 20.1495H146.233V16.0875C146.233 14.8365 145.754 14.2095 144.81 14.2095C143.881 14.2095 143.24 15.0105 143.24 15.942V20.1495H141.674V15.0975C141.674 14.472 141.657 13.8015 141.615 13.074H142.995L143.068 14.166H143.112C143.53 13.41 144.389 12.9285 145.347 12.9285C146.827 12.9285 147.799 14.064 147.799 15.912V20.1495Z" fill="white"/>
<path d="M158.06 14.2545H156.334V17.6895C156.334 18.564 156.638 19.0005 157.247 19.0005C157.524 19.0005 157.757 18.9705 157.944 18.927L157.988 20.121C157.683 20.238 157.274 20.2965 156.77 20.2965C155.534 20.2965 154.796 19.6125 154.796 17.8215V14.2545H153.767V13.0755H154.796V11.7795L156.334 11.313V13.074H158.06V14.2545Z" fill="white"/>
<path d="M166.364 20.1495H164.795V16.1175C164.795 14.8515 164.316 14.211 163.372 14.211C162.559 14.211 161.805 14.7645 161.805 15.885V20.1495H160.235V9.82947H161.805V14.079H161.835C162.329 13.308 163.041 12.9285 163.955 12.9285C165.45 12.9285 166.364 14.0925 166.364 15.942V20.1495Z" fill="white"/>
<path d="M174.377 16.9904H169.671C169.701 18.3299 170.584 19.0859 171.891 19.0859C172.59 19.0859 173.228 18.9689 173.793 18.7514L174.039 19.8434C173.371 20.1344 172.586 20.2799 171.671 20.2799C169.463 20.2799 168.157 18.8819 168.157 16.7144C168.157 14.5454 169.494 12.9149 171.495 12.9149C173.295 12.9149 174.429 14.2544 174.429 16.2779C174.435 16.5539 174.42 16.8014 174.377 16.9904ZM172.939 15.8699C172.939 14.7779 172.388 14.0069 171.386 14.0069C170.483 14.0069 169.774 14.7929 169.671 15.8699H172.939Z" fill="white"/>
<defs>
<linearGradient id="paint0_linear" x1="148.075" y1="60.1458" x2="148.075" y2="6.07695" gradientUnits="userSpaceOnUse">
<stop stop-color="#1A1A1A" stop-opacity="0.1"/>
<stop offset="0.1235" stop-color="#212121" stop-opacity="0.1506"/>
<stop offset="0.3085" stop-color="#353535" stop-opacity="0.2265"/>
<stop offset="0.5321" stop-color="#575757" stop-opacity="0.3181"/>
<stop offset="0.7834" stop-color="#858585" stop-opacity="0.4212"/>
<stop offset="1" stop-color="#B3B3B3" stop-opacity="0.51"/>
</linearGradient>
</defs>
</svg>
