<svg width="53" height="42" viewBox="0 0 53 42" fill="none" xmlns="http://www.w3.org/2000/svg">
<g clip-path="url(#clip0)">
<path opacity="0.4" d="M32.4254 23.305C31.6918 23.6876 30.8777 23.89 30.0503 23.8956C29.223 23.9011 28.4062 23.7097 27.6676 23.337C25.1033 22.0458 24.0541 18.8942 25.328 16.3119L25.8809 15.1921C27.0136 12.8944 28.9521 11.0937 31.327 10.1333L31.9439 9.88143L21.6161 0.731663C21.0857 0.260412 20.4008 0.00012207 19.6913 0.00012207C18.9817 0.00012207 18.2968 0.260412 17.7664 0.731663L0.393028 16.1125C0.162304 16.3168 0.0220896 16.6044 0.00317204 16.912C-0.0157455 17.2196 0.08818 17.5221 0.29213 17.7531L1.8335 19.4988C2.03793 19.7292 2.32525 19.8693 2.63266 19.8885C2.94007 19.9077 3.24259 19.8044 3.47412 19.6013L5.24927 18.0362V31.4999C5.24927 32.1961 5.52584 32.8638 6.01812 33.3561C6.5104 33.8484 7.17808 34.1249 7.87427 34.1249H26.6955L29.2737 31.541C29.5237 31.2939 29.718 30.9963 29.8439 30.6681L31.5427 26.4435L32.5074 24.0441C32.468 23.7997 32.441 23.5528 32.4254 23.305ZM18.3743 22.3124C18.3743 22.6605 18.236 22.9944 17.9898 23.2405C17.7437 23.4867 17.4099 23.6249 17.0618 23.6249H11.8118C11.4637 23.6249 11.1298 23.4867 10.8837 23.2405C10.6375 22.9944 10.4993 22.6605 10.4993 22.3124V17.0624C10.4993 16.7143 10.6375 16.3805 10.8837 16.1344C11.1298 15.8882 11.4637 15.7499 11.8118 15.7499H17.0618C17.4099 15.7499 17.7437 15.8882 17.9898 16.1344C18.236 16.3805 18.3743 16.7143 18.3743 17.0624V22.3124Z" fill="#2CBA67"/>
<path d="M32.2842 31.6427C32.0246 32.3055 31.6283 32.9062 31.121 33.4056L27.0195 37.5162C26.5535 38.013 26.2989 38.6715 26.3094 39.3525C26.3199 40.0336 26.5948 40.6839 27.0759 41.1661C27.557 41.6483 28.2067 41.9245 28.8877 41.9366C29.5688 41.9486 30.2278 41.6954 30.7256 41.2305L35.6024 36.3587C36.1051 35.8549 36.5013 35.2551 36.7672 34.595L37.8747 31.8232C33.3392 26.8775 34.7001 28.3951 33.9864 27.4189L32.2842 31.6427ZM43.3133 7.875C44.0921 7.875 44.8534 7.64407 45.5009 7.21141C46.1484 6.77876 46.6531 6.1638 46.9511 5.44432C47.2491 4.72483 47.3271 3.93313 47.1752 3.16933C47.0232 2.40553 46.6482 1.70394 46.0976 1.15327C45.5469 0.6026 44.8453 0.227589 44.0815 0.0756597C43.3177 -0.0762696 42.526 0.00170606 41.8065 0.299726C41.087 0.597746 40.4721 1.10243 40.0394 1.74994C39.6068 2.39746 39.3758 3.15874 39.3758 3.9375C39.3758 4.98179 39.7907 5.98331 40.5291 6.72173C41.2675 7.46016 42.269 7.875 43.3133 7.875ZM51.0587 20.1026L49.1482 19.1346L48.3525 16.7245C47.1466 13.0651 43.7834 10.5057 39.9697 10.4984C37.0166 10.491 35.3858 11.3261 32.3179 12.5655C30.5404 13.2866 29.0896 14.6352 28.2409 16.3554L27.6913 17.4727C27.3828 18.0944 27.3321 18.8128 27.5502 19.4717C27.7683 20.1306 28.2376 20.6769 28.8562 20.9918C29.1618 21.1453 29.4948 21.2367 29.8359 21.2607C30.1771 21.2847 30.5196 21.2409 30.8437 21.1317C31.1678 21.0226 31.4671 20.8502 31.7242 20.6247C31.9813 20.3992 32.1912 20.125 32.3417 19.8179L32.8954 18.7031C33.1768 18.1309 33.658 17.6815 34.2481 17.4398L36.4465 16.5547L35.1996 21.5332C34.9911 22.3751 34.9936 23.2555 35.2069 24.0962C35.4203 24.9369 35.8379 25.712 36.4227 26.3525L41.3364 31.7166C41.9245 32.3617 42.3438 33.1423 42.557 33.9888L44.0516 40.0009C44.2202 40.6764 44.6503 41.2573 45.2472 41.6157C45.8441 41.9742 46.5589 42.0808 47.2344 41.9122C47.9099 41.7436 48.4908 41.3136 48.8493 40.7167C49.2077 40.1198 49.3143 39.4049 49.1457 38.7294L47.3247 31.4286C47.1129 30.5817 46.6927 29.8012 46.1024 29.158L42.37 25.0811L43.7809 19.4463L44.2321 20.799C44.6626 22.1153 45.5978 23.2069 46.8325 23.8342L48.7438 24.803C49.0494 24.9563 49.3824 25.0476 49.7235 25.0716C50.0647 25.0956 50.4071 25.0517 50.7312 24.9426C51.0553 24.8334 51.3545 24.6611 51.6117 24.4357C51.8688 24.2103 52.0787 23.9361 52.2293 23.6291C52.5342 23.005 52.5824 22.2862 52.3636 21.627C52.1447 20.9677 51.6763 20.4205 51.0587 20.1026Z" fill="#0084F8"/>
</g>
<defs>
<clipPath id="clip0">
<rect width="52.5" height="42" fill="white"/>
</clipPath>
</defs>
</svg>
