<svg width="53" height="42" viewBox="0 0 53 42" fill="none" xmlns="http://www.w3.org/2000/svg">
<g clip-path="url(#clip0)">
<path opacity="0.4" d="M26.5003 17.763L27.4445 17.2848L27.9006 15.9042C28.6736 13.5608 30.1645 11.5203 32.1621 10.0717L21.6162 0.731663C21.0857 0.260412 20.4008 0.00012207 19.6913 0.00012207C18.9818 0.00012207 18.2969 0.260412 17.7664 0.731663L0.393029 16.1117C0.162304 16.316 0.0220896 16.6035 0.00317204 16.9111C-0.0157455 17.2187 0.0881802 17.5213 0.29213 17.7523L1.8335 19.4988C2.03805 19.729 2.32542 19.869 2.63283 19.888C2.94024 19.9071 3.2427 19.8037 3.47413 19.6005L5.24928 18.0362V31.4999C5.24928 32.1961 5.52585 32.8638 6.01813 33.3561C6.51041 33.8484 7.17809 34.1249 7.87429 34.1249H28.0425L28.8743 30.7928C29.192 29.5233 29.8216 28.3531 30.7061 27.3885L30.7454 27.3459C29.5271 27.826 28.1726 27.8295 26.9518 27.3556C25.7311 26.8818 24.7337 25.9653 24.1583 24.789C22.886 22.2042 23.9418 19.0509 26.5003 17.763ZM18.3743 22.3124C18.3743 22.6605 18.236 22.9944 17.9899 23.2405C17.7437 23.4867 17.4099 23.6249 17.0618 23.6249H11.8118C11.4637 23.6249 11.1299 23.4867 10.8837 23.2405C10.6376 22.9944 10.4993 22.6605 10.4993 22.3124V17.0624C10.4993 16.7143 10.6376 16.3805 10.8837 16.1344C11.1299 15.8882 11.4637 15.7499 11.8118 15.7499H17.0618C17.4099 15.7499 17.7437 15.8882 17.9899 16.1344C18.236 16.3805 18.3743 16.7143 18.3743 17.0624V22.3124Z" fill="#2CBA67"/>
<path d="M43.5582 21.5316L42.3113 16.5531L44.5098 17.4382C45.0974 17.6818 45.5758 18.1316 45.8551 18.7031L46.4055 19.8179C46.5561 20.125 46.766 20.3991 47.0231 20.6245C47.2803 20.85 47.5795 21.0222 47.9036 21.1314C48.2277 21.2405 48.5702 21.2844 48.9113 21.2604C49.2524 21.2365 49.5854 21.1452 49.891 20.9918C50.5096 20.6769 50.9789 20.1306 51.197 19.4717C51.4151 18.8128 51.3644 18.0944 51.0559 17.4727L50.5063 16.3579C49.6576 14.6377 48.2068 13.289 46.4293 12.568C43.3613 11.3285 41.7297 10.4926 38.7774 10.5008C34.9638 10.5082 31.6005 13.0676 30.3947 16.7262L29.599 19.1363L27.6885 20.1042C27.0702 20.4217 26.6011 20.9689 26.3818 21.6284C26.1625 22.2879 26.2104 23.0071 26.5154 23.6316C26.6661 23.9385 26.8761 24.2126 27.1332 24.438C27.3903 24.6633 27.6896 24.8356 28.0136 24.9447C28.3376 25.0538 28.6801 25.0977 29.0212 25.0738C29.3623 25.0499 29.6953 24.9587 30.0009 24.8054L31.9123 23.8366C33.1467 23.2091 34.0819 22.1176 34.5126 20.8015L34.9638 19.4488L36.3747 25.0835L32.6481 29.1588C32.0576 29.8022 31.6374 30.583 31.4258 31.4303L29.6047 38.7311C29.4361 39.4066 29.5428 40.1214 29.9012 40.7183C30.2596 41.3152 30.8405 41.7453 31.516 41.9139C32.1916 42.0825 32.9064 41.9758 33.5033 41.6174C34.1002 41.2589 34.5302 40.6781 34.6988 40.0025L36.2 33.9913C36.4128 33.1446 36.8322 32.3639 37.4206 31.719L42.3343 26.355C42.92 25.7142 43.3383 24.9385 43.5518 24.0969C43.7653 23.2554 43.7675 22.3741 43.5582 21.5316ZM35.4371 7.875C36.2159 7.875 36.9772 7.64407 37.6247 7.21141C38.2722 6.77876 38.7769 6.1638 39.0749 5.44432C39.3729 4.72483 39.4509 3.93313 39.299 3.16933C39.147 2.40553 38.772 1.70394 38.2214 1.15327C37.6707 0.6026 36.9691 0.227589 36.2053 0.0756597C35.4415 -0.0762696 34.6498 0.00170606 33.9303 0.299726C33.2108 0.597746 32.5959 1.10243 32.1632 1.74994C31.7306 2.39746 31.4996 3.15874 31.4996 3.9375C31.4996 4.98179 31.9145 5.98331 32.6529 6.72173C33.3913 7.46016 34.3928 7.875 35.4371 7.875ZM51.731 37.5162L47.6294 33.4064C47.1222 32.907 46.7258 32.3063 46.4662 31.6436L44.7682 27.4198C44.0545 28.3959 45.4154 26.8792 40.8799 31.824L41.9873 34.5959C42.2533 35.2557 42.6495 35.8552 43.1522 36.3587L48.0248 41.2314C48.5222 41.6991 49.1823 41.9545 49.8649 41.9436C50.5476 41.9327 51.1992 41.6562 51.6813 41.1728C52.1635 40.6895 52.4384 40.0373 52.4477 39.3546C52.457 38.6719 52.1999 38.0124 51.731 37.5162Z" fill="#0084F8"/>
</g>
<defs>
<clipPath id="clip0">
<rect width="52.5" height="42" fill="white"/>
</clipPath>
</defs>
</svg>
