<svg width="48" height="42" viewBox="0 0 48 42" fill="none" xmlns="http://www.w3.org/2000/svg">
<g clip-path="url(#clip0)">
<path opacity="0.4" d="M23.625 5.90625L5.25 22.1361V39.375C5.25 40.0712 5.52656 40.7389 6.01884 41.2312C6.51113 41.7234 7.17881 42 7.875 42H39.375C40.0712 42 40.7389 41.7234 41.2312 41.2312C41.7234 40.7389 42 40.0712 42 39.375V22.1361L23.625 5.90625ZM28.875 27.1245C28.8737 27.5888 28.6885 28.0336 28.36 28.3617C28.0314 28.6898 27.5863 28.8744 27.122 28.875H20.1255C19.6617 28.8737 19.2172 28.6889 18.8892 28.3608C18.5611 28.0328 18.3763 27.5883 18.375 27.1245V20.1239C18.3767 19.6603 18.5618 19.2162 18.8897 18.8886C19.2177 18.5609 19.662 18.3763 20.1255 18.375H27.122C27.586 18.3756 28.0309 18.56 28.3594 18.8877C28.6879 19.2154 28.8733 19.6599 28.875 20.1239V27.1245Z" fill="#2CBA67"/>
<path d="M46.914 21.2354L45.1577 23.1886C45.0101 23.3527 44.1356 24.0278 43.3046 23.2887L23.6253 5.90625L3.94768 23.2887C3.18479 23.9753 2.32264 23.4445 2.09459 23.1902L0.338302 21.2379C-0.3483 20.475 0.182443 19.6129 0.43674 19.384L21.4367 0.844922C21.9511 0.378164 22.9338 0 23.6253 0C24.3169 0 25.3021 0.378164 25.8172 0.844922L34.1253 8.17605V3.9375C34.1253 3.5894 34.2636 3.25556 34.5098 3.00942C34.7559 2.76328 35.0897 2.625 35.4378 2.625H40.6878C41.0359 2.625 41.3698 2.76328 41.6159 3.00942C41.8621 3.25556 42.0003 3.5894 42.0003 3.9375V15.1298L46.8147 19.3815C47.069 19.6104 47.5973 20.4701 46.914 21.2354Z" fill="#0084F8"/>
</g>
<defs>
<clipPath id="clip0">
<rect width="47.25" height="42" fill="white"/>
</clipPath>
</defs>
</svg>
