<svg width="48" height="42" viewBox="0 0 48 42" fill="none" xmlns="http://www.w3.org/2000/svg">
<path opacity="0.4" d="M46.8144 19.3815L42 15.1298V3.9375C42 3.5894 41.8617 3.25556 41.6156 3.00942C41.3694 2.76328 41.0356 2.625 40.6875 2.625H35.4375C35.0894 2.625 34.7556 2.76328 34.5094 3.00942C34.2633 3.25556 34.125 3.5894 34.125 3.9375V8.17605L25.8218 0.844922C25.3066 0.378164 24.3247 0 23.625 0C22.9253 0 21.9466 0.378164 21.4315 0.844922L0.431484 19.384C0.172743 19.6454 0.0191692 19.9928 0 20.3602C0.0169299 20.6809 0.134301 20.9883 0.335508 21.2387L2.0918 23.1902C2.36552 23.4359 2.71025 23.5881 3.07617 23.625C3.39342 23.5933 3.69631 23.4768 3.95309 23.2879L5.25738 22.1394V39.375C5.25738 40.0712 5.53394 40.7389 6.02623 41.2312C6.51851 41.7234 7.18619 42 7.88238 42H39.375C40.0712 42 40.7389 41.7234 41.2312 41.2312C41.7234 40.7389 42 40.0712 42 39.375V22.1378L43.3051 23.2862C43.5628 23.4755 43.8664 23.5925 44.1845 23.625C44.5471 23.5871 44.8882 23.4345 45.1582 23.1894L46.9145 21.2362C47.103 20.9794 47.2189 20.6765 47.25 20.3593C47.2123 19.9954 47.0598 19.6529 46.8144 19.3815ZM23.625 14.4375C24.6634 14.4375 25.6784 14.7454 26.5417 15.3223C27.4051 15.8992 28.078 16.7191 28.4754 17.6784C28.8727 18.6377 28.9767 19.6933 28.7741 20.7117C28.5716 21.7301 28.0715 22.6656 27.3373 23.3998C26.6031 24.134 25.6676 24.6341 24.6492 24.8366C23.6308 25.0392 22.5752 24.9352 21.6159 24.5379C20.6566 24.1405 19.8367 23.4676 19.2598 22.6042C18.6829 21.7409 18.375 20.7259 18.375 19.6875C18.375 18.2951 18.9281 16.9598 19.9127 15.9752C20.8973 14.9906 22.2326 14.4375 23.625 14.4375ZM32.8125 36.75H14.4375C14.0894 36.75 13.7556 36.6117 13.5094 36.3656C13.2633 36.1194 13.125 35.7856 13.125 35.4375C13.125 33.3489 13.9547 31.3459 15.4315 29.869C16.9084 28.3922 18.9114 27.5625 21 27.5625H26.25C28.3386 27.5625 30.3416 28.3922 31.8185 29.869C33.2953 31.3459 34.125 33.3489 34.125 35.4375C34.125 35.7856 33.9867 36.1194 33.7406 36.3656C33.4944 36.6117 33.1606 36.75 32.8125 36.75Z" fill="#2CBA67"/>
</svg>
