<svg width="44" height="44" viewBox="0 0 44 44" fill="none" xmlns="http://www.w3.org/2000/svg">
<rect x="2" y="39" width="42" height="4" fill="#DDFBAC"/>
<path d="M1.5 9.5L22.5 1L43.5 9.5V13H40V16.5L38.5 17V35H40V39H31.5L32 35.5L33.5 35L33 17L32 16.5V13H26.5V16.5H24.5L25 35H26.5V39H18.5V35H20.5L20 17H18.5V13H13L12.5 16.5L11.5 17.5V35H13.5V39L11.5 39.5L1 39L5 38.5V35.5L6.5 34.5L7 17L4.5 16V13H1.5V9.5Z" fill="#DDFBAC"/>
<path d="M38.4782 26.9245V17.507H39.4915C39.978 17.507 40.3715 17.1135 40.3715 16.627V13.6249H43.1209C43.6074 13.6249 44.0009 13.2314 44.0009 12.7449V9.74149C44.0009 9.38697 43.7885 9.06765 43.4616 8.93062L22.3638 0.06883C22.145 -0.0229433 21.9011 -0.0229433 21.6824 0.06883L0.584584 8.93062C0.25772 9.06765 0.0452581 9.38697 0.0452581 9.74149V12.7436C0.0452581 13.2301 0.438752 13.6236 0.925276 13.6236H3.58419V16.6257C3.58419 17.1123 3.97768 17.5058 4.46421 17.5058H5.47749V34.475H4.46421C3.97768 34.475 3.58419 34.8685 3.58419 35.3551V38.3572H0.880018C0.393494 38.3572 0 38.7507 0 39.2372V43.1206C0 43.6071 0.393494 44.0006 0.880018 44.0006H7.86988V42.2406H1.76004V40.1185H42.1956V42.2406H14.7629V44.0006H43.0756C43.5622 44.0006 43.9557 43.6071 43.9557 43.1206V39.2385C43.9557 38.7519 43.5622 38.3584 43.0756 38.3584H40.3715V35.3563C40.3715 34.8698 39.978 34.4763 39.4915 34.4763H38.4782V29.6991H36.7181V34.4763H34.0152V17.507H36.7181V26.9245H38.4782ZM1.80529 11.8636V10.3261L22.0231 1.8339L42.2409 10.3261V11.8636H1.80529ZM18.7331 15.747V13.6249H25.2226V15.747H18.7331ZM23.3293 17.507V34.4763H20.6264V17.507H23.3293ZM5.34423 15.747V13.6249H11.8337V15.747H5.34423ZM9.94044 17.507V34.4763H7.23752V17.507H9.94044ZM11.8337 38.3584H5.34423V36.2363H11.8337V38.3584ZM16.973 35.3551V38.3572H13.5938V35.3551C13.5938 34.8685 13.2003 34.475 12.7138 34.475H11.7005V17.507H12.7138C13.2003 17.507 13.5938 17.1135 13.5938 16.627V13.6249H16.973V16.627C16.973 17.1135 17.3665 17.507 17.8531 17.507H18.8663V34.4763H17.8531C17.3665 34.475 16.973 34.8698 16.973 35.3551ZM25.2226 38.3584H18.7331V36.2363H25.2226V38.3584ZM30.3619 35.3551V38.3572H26.9826V35.3551C26.9826 34.8685 26.5891 34.475 26.1026 34.475H25.0893V17.507H26.1026C26.5891 17.507 26.9826 17.1135 26.9826 16.627V13.6249H30.3619V16.627C30.3619 17.1135 30.7554 17.507 31.2419 17.507H32.2552V34.4763H31.2419C30.7566 34.475 30.3619 34.8698 30.3619 35.3551ZM38.6114 36.2351V38.3572H32.1219V36.2351H38.6114ZM32.1219 15.747V13.6249H38.6114V15.747H32.1219Z" fill="#27AE60"/>
<path d="M37.7084 29.3039C38.2049 29.3039 38.6073 28.9014 38.6073 28.405C38.6073 27.9085 38.2049 27.5061 37.7084 27.5061C37.212 27.5061 36.8096 27.9085 36.8096 28.405C36.8096 28.9014 37.212 29.3039 37.7084 29.3039Z" fill="#27AE60"/>
<path d="M11.4091 44.0009C11.9056 44.0009 12.308 43.5984 12.308 43.102C12.308 42.6056 11.9056 42.2031 11.4091 42.2031C10.9127 42.2031 10.5103 42.6056 10.5103 43.102C10.5103 43.5984 10.9127 44.0009 11.4091 44.0009Z" fill="#27AE60"/>
</svg>
