<svg width="53" height="42" viewBox="0 0 53 42" fill="none" xmlns="http://www.w3.org/2000/svg">
<g clip-path="url(#clip0)">
<path opacity="0.4" d="M39.3685 17.0625C39.3685 10.6895 34.8994 5.58551 28.8734 4.33453V2.625C28.8734 1.92881 28.5969 1.26113 28.1046 0.768845C27.6123 0.276562 26.9446 0 26.2484 0C25.5522 0 24.8845 0.276562 24.3923 0.768845C23.9 1.26113 23.6234 1.92881 23.6234 2.625V4.33453C17.6007 5.58551 13.1316 10.6895 13.1316 17.0625C13.1316 25.4551 10.167 28.0161 8.58133 29.7183C8.1246 30.1987 7.8715 30.8372 7.87504 31.5C7.88406 32.8461 8.94144 34.125 10.5074 34.125H41.9927C43.5603 34.125 44.6177 32.8461 44.6251 31.5C44.629 30.8371 44.3759 30.1984 43.9188 29.7183C42.3331 28.0161 39.3685 25.4551 39.3685 17.0625Z" fill="#2CBA67"/>
<path d="M7.21875 13.7814H1.96875C1.44661 13.7814 0.945846 13.9888 0.576634 14.358C0.207421 14.7272 0 15.228 0 15.7501C0 16.2723 0.207421 16.773 0.576634 17.1423C0.945846 17.5115 1.44661 17.7189 1.96875 17.7189H7.21875C7.74089 17.7189 8.24165 17.5115 8.61087 17.1423C8.98008 16.773 9.1875 16.2723 9.1875 15.7501C9.1875 15.228 8.98008 14.7272 8.61087 14.358C8.24165 13.9888 7.74089 13.7814 7.21875 13.7814ZM10.7527 4.5299L6.20648 1.9049C5.9824 1.76999 5.73368 1.68108 5.47485 1.64337C5.21602 1.60566 4.95227 1.61991 4.69901 1.68527C4.44575 1.75064 4.20805 1.86581 3.9998 2.02408C3.79155 2.18234 3.61692 2.38051 3.48612 2.60701C3.35532 2.83352 3.27096 3.08382 3.23798 3.34329C3.205 3.60277 3.22405 3.86621 3.29402 4.11824C3.364 4.37027 3.48349 4.60583 3.64552 4.81116C3.80756 5.01649 4.00888 5.18747 4.23773 5.31412L8.78391 7.93912C9.00799 8.07403 9.25671 8.16294 9.51554 8.20065C9.77437 8.23836 10.0381 8.22411 10.2914 8.15875C10.5446 8.09338 10.7823 7.9782 10.9906 7.81994C11.1988 7.66168 11.3735 7.46351 11.5043 7.237C11.6351 7.0105 11.7194 6.7602 11.7524 6.50072C11.7854 6.24125 11.7663 5.9778 11.6964 5.72578C11.6264 5.47375 11.5069 5.23819 11.3449 5.03286C11.1828 4.82753 10.9815 4.65655 10.7527 4.5299ZM48.2623 5.31412C48.7043 5.04801 49.0241 4.61902 49.1531 4.11947C49.282 3.61991 49.2097 3.08971 48.9517 2.64293C48.6937 2.19615 48.2706 1.8685 47.7735 1.73047C47.2764 1.59245 46.7449 1.65509 46.2935 1.9049L41.7473 4.5299C41.5185 4.65655 41.3172 4.82753 41.1551 5.03286C40.9931 5.23819 40.8736 5.47375 40.8036 5.72578C40.7337 5.9778 40.7146 6.24125 40.7476 6.50072C40.7806 6.7602 40.8649 7.0105 40.9957 7.237C41.1265 7.46351 41.3012 7.66168 41.5094 7.81994C41.7177 7.9782 41.9554 8.09338 42.2086 8.15875C42.4619 8.22411 42.7256 8.23836 42.9845 8.20065C43.2433 8.16294 43.492 8.07403 43.7161 7.93912L48.2623 5.31412ZM26.25 42.0001C27.6424 42.0001 28.9777 41.447 29.9623 40.4624C30.9469 39.4779 31.5 38.1425 31.5 36.7501H21C21 38.1425 21.5531 39.4779 22.5377 40.4624C23.5223 41.447 24.8576 42.0001 26.25 42.0001ZM50.5312 13.7814H45.2812C44.7591 13.7814 44.2583 13.9888 43.8891 14.358C43.5199 14.7272 43.3125 15.228 43.3125 15.7501C43.3125 16.2723 43.5199 16.773 43.8891 17.1423C44.2583 17.5115 44.7591 17.7189 45.2812 17.7189H50.5312C51.0534 17.7189 51.5542 17.5115 51.9234 17.1423C52.2926 16.773 52.5 16.2723 52.5 15.7501C52.5 15.228 52.2926 14.7272 51.9234 14.358C51.5542 13.9888 51.0534 13.7814 50.5312 13.7814Z" fill="#0084F8"/>
</g>
<defs>
<clipPath id="clip0">
<rect width="52.5" height="42" fill="white"/>
</clipPath>
</defs>
</svg>
