<svg width="22" height="22" viewBox="0 0 22 22" fill="none" xmlns="http://www.w3.org/2000/svg">
<path d="M0.628906 19.1714V2.82853C0.628906 1.82281 1.467 1.99043 1.88605 2.19996H17.286H20.4289V14.7714C20.6384 15.0857 21.0575 15.9028 21.0575 16.6571C21.0575 17.6 22.0003 17.9142 21.0575 19.8C20.1146 21.6857 19.1718 21.6857 18.2289 21.6857C17.4746 21.6857 15.4003 20.6381 14.4575 20.1142H4.08605C1.32033 20.1142 0.628906 19.4857 0.628906 19.1714Z" fill="#D3F9FC"/>
<rect x="5.02734" y="0.628418" width="1.25714" height="2.51429" fill="#D3F9FC"/>
<rect x="14.457" y="0.628418" width="1.25714" height="2.51429" fill="#D3F9FC"/>
<path d="M20.9688 15.2683V3.0293C20.9688 2.30665 20.3808 1.71875 19.6582 1.71875H16.543V1.28906C16.543 0.578273 15.9647 0 15.2539 0C14.5431 0 13.9648 0.578273 13.9648 1.28906V1.71875H7.00391V1.28906C7.00391 0.578273 6.42563 0 5.71484 0C5.00406 0 4.42578 0.578273 4.42578 1.28906V1.71875H1.31055C0.587941 1.71875 0 2.30665 0 3.0293V18.9707C0 19.6934 0.587941 20.2812 1.31055 20.2812H7.16723C7.4045 20.2812 7.59692 20.0889 7.59692 19.8516C7.59692 19.6142 7.4045 19.4219 7.16723 19.4219H1.31055C1.06176 19.4219 0.859375 19.2195 0.859375 18.9707V3.0293C0.859375 2.78051 1.06176 2.57812 1.31055 2.57812H4.42578V3.00781C4.42578 3.7186 5.00406 4.29688 5.71484 4.29688C6.42563 4.29688 7.00391 3.7186 7.00391 3.00781V2.57812H13.9648V3.00781C13.9648 3.7186 14.5431 4.29688 15.2539 4.29688C15.9647 4.29688 16.543 3.7186 16.543 3.00781V2.57812H19.6582C19.907 2.57812 20.1094 2.78051 20.1094 3.0293V5.15625H3.86719C3.62991 5.15625 3.4375 5.34862 3.4375 5.58594C3.4375 5.82325 3.62991 6.01562 3.86719 6.01562H20.1094V14.5422C19.7435 14.3115 19.3383 14.1379 18.9062 14.0339V7.64844C18.9062 7.41112 18.7138 7.21875 18.4766 7.21875H2.49219C2.25491 7.21875 2.0625 7.41112 2.0625 7.64844V17.7891C2.0625 18.0264 2.25491 18.2188 2.49219 18.2188H13.9303C13.957 18.6405 14.0486 19.0448 14.1954 19.4219H10.6047C10.3674 19.4219 10.175 19.6142 10.175 19.8516C10.175 20.0889 10.3674 20.2812 10.6047 20.2812H14.6568C15.3884 21.32 16.5967 22 17.9609 22C20.1881 22 22 20.1881 22 17.9609C22 16.9274 21.6096 15.9834 20.9688 15.2683ZM6.14453 3.00781C6.14453 3.24474 5.95177 3.4375 5.71484 3.4375C5.47791 3.4375 5.28516 3.24474 5.28516 3.00781V1.28906C5.28516 1.05213 5.47791 0.859375 5.71484 0.859375C5.95177 0.859375 6.14453 1.05213 6.14453 1.28906V3.00781ZM15.6836 3.00781C15.6836 3.24474 15.4908 3.4375 15.2539 3.4375C15.017 3.4375 14.8242 3.24474 14.8242 3.00781V1.28906C14.8242 1.05213 15.017 0.859375 15.2539 0.859375C15.4908 0.859375 15.6836 1.05213 15.6836 1.28906V3.00781ZM17.9609 13.9219C17.7612 13.9219 17.5648 13.9367 17.3727 13.9648H15.7094V11.4727H18.0469V13.9229C18.0183 13.9223 17.9897 13.9219 17.9609 13.9219ZM13.9667 17.3594H12.5125V14.8242H14.85V15.3877C14.3918 15.9407 14.078 16.6173 13.9667 17.3594ZM2.92188 11.4727H5.25938V13.9648H2.92188V11.4727ZM6.11875 11.4727H8.45625V13.9648H6.11875V11.4727ZM12.5125 11.4727H14.85V13.9648H12.5125V11.4727ZM11.6531 13.9648H9.31563V11.4727H11.6531V13.9648ZM12.5125 10.6133V8.07812H14.85V10.6133H12.5125ZM11.6531 10.6133H9.31563V8.07812H11.6531V10.6133ZM8.45625 10.6133H6.11875V8.07812H8.45625V10.6133ZM8.45625 14.8242V17.3594H6.11875V14.8242H8.45625ZM9.31563 14.8242H11.6531V17.3594H9.31563V14.8242ZM18.0469 10.6133H15.7094V8.07812H18.0469V10.6133ZM5.25938 8.07812V10.6133H2.92188V8.07812H5.25938ZM2.92188 14.8242H5.25938V17.3594H2.92188V14.8242ZM17.9609 21.1406C16.2076 21.1406 14.7813 19.7142 14.7813 17.9609C14.7813 16.2076 16.2076 14.7813 17.9609 14.7813C19.7142 14.7813 21.1406 16.2076 21.1406 17.9609C21.1406 19.7142 19.7142 21.1406 17.9609 21.1406Z" fill="#54A7F0"/>
<path d="M19.2046 16.9198L17.8757 18.2488L17.2843 17.6574C17.1166 17.4897 16.8446 17.4897 16.6766 17.6574C16.5088 17.8252 16.5088 18.0973 16.6766 18.2651L17.5718 19.1603C17.6524 19.2409 17.7617 19.2861 17.8756 19.2861C17.9896 19.2861 18.0988 19.2409 18.1795 19.1603L19.8123 17.5275C19.9801 17.3597 19.9801 17.0876 19.8123 16.9198C19.6445 16.752 19.3725 16.752 19.2046 16.9198Z" fill="#54A7F0"/>
<path d="M8.88672 19.4219C8.77371 19.4219 8.66285 19.4679 8.58293 19.5478C8.50305 19.6277 8.45703 19.7386 8.45703 19.8516C8.45703 19.9646 8.50301 20.0754 8.58293 20.1554C8.66285 20.2353 8.77371 20.2812 8.88672 20.2812C8.99973 20.2812 9.11059 20.2353 9.19051 20.1554C9.27039 20.0754 9.31641 19.9646 9.31641 19.8516C9.31641 19.7386 9.27043 19.6277 9.19051 19.5478C9.11059 19.4679 8.99973 19.4219 8.88672 19.4219Z" fill="#54A7F0"/>
<path d="M2.45218 5.88973C2.53215 5.8098 2.57812 5.69895 2.57812 5.58594C2.57812 5.47293 2.53215 5.36207 2.45218 5.28215C2.3723 5.20223 2.26145 5.15625 2.14844 5.15625C2.03496 5.15625 1.92457 5.20223 1.84465 5.28215C1.76473 5.36207 1.71875 5.47293 1.71875 5.58594C1.71875 5.69895 1.76468 5.8098 1.84465 5.88973C1.92461 5.96965 2.03496 6.01562 2.14844 6.01562C2.26145 6.01562 2.3723 5.96965 2.45218 5.88973Z" fill="#54A7F0"/>
</svg>
