<svg width="24" height="24" viewBox="0 0 24 24" fill="none" xmlns="http://www.w3.org/2000/svg">
<rect width="24" height="24" rx="4" fill="#58C2F1"/>
<path d="M18.7278 16.1323L17.1757 15.0975L15.796 14.1778C15.5297 14.0007 15.1719 14.0588 14.9753 14.3111L14.1216 15.4086C13.9382 15.6468 13.6083 15.7152 13.3453 15.5696C12.766 15.2474 12.081 14.944 10.5695 13.4305C9.05798 11.9171 8.75263 11.234 8.43039 10.6547C8.28479 10.3917 8.35323 10.0618 8.59139 9.87846L9.68893 9.02471C9.94123 8.82817 9.99933 8.47032 9.82217 8.20403L8.93077 6.86679L7.86774 5.27223C7.68681 5.00082 7.32462 4.91934 7.0449 5.08709L5.81892 5.82257C5.4876 6.01778 5.24405 6.33299 5.13873 6.70287C4.80347 7.9252 4.73588 10.6216 9.05724 14.943C13.3786 19.2643 16.0748 19.1965 17.2971 18.8613C17.667 18.756 17.9822 18.5124 18.1774 18.1811L18.9129 16.9551C19.0807 16.6754 18.9992 16.3132 18.7278 16.1323Z" fill="white"/>
</svg>
