<svg width="38" height="33" viewBox="0 0 38 33" fill="none" xmlns="http://www.w3.org/2000/svg">
<path d="M1.28906 19.056V1.7426L2.93104 0.580624C8.91252 0.541891 21.6965 0.487666 24.9804 0.580624C28.2644 0.673581 29.6327 1.394 29.9063 1.7426V12.2003C30.7273 12.1616 32.815 12.1074 34.5977 12.2003C36.3804 12.2933 37.1389 13.8658 37.2952 14.6405C37.5689 17.6229 37.952 24.1222 37.2952 26.2602C36.6384 28.3982 35.2232 28.3905 34.5977 28.1194H33.073V31.9539L28.7335 28.1194C25.2932 28.1968 17.8496 28.3053 15.5977 28.1194C13.3459 27.9334 12.7047 26.8025 12.6656 26.2602V20.7989H9.61622L4.6903 24.8658C4.6512 23.6264 4.24462 21.0778 2.93104 20.7989C1.61746 20.5201 1.28906 19.5208 1.28906 19.056Z" fill="#D0EFB5"/>
<path d="M20.9977 27.1074H19.7805C19.3427 27.1222 19.0012 27.4831 19.0161 27.9177C19.0309 28.3302 19.3649 28.669 19.7805 28.6764H20.9977C21.4356 28.6617 21.777 28.3007 21.7622 27.8661C21.7474 27.4536 21.4134 27.1222 20.9977 27.1074Z" fill="#4FA800"/>
<path d="M34.8309 11.3953H30.875V3.14531C30.875 1.40692 29.4574 0 27.7059 0H3.16914C1.41758 0 0 1.40692 0 3.14531V9.84107C0.0148437 10.2757 0.378516 10.6145 0.816406 10.5998C1.23203 10.585 1.57344 10.2536 1.58086 9.84107V3.14531C1.58086 2.27612 2.29336 1.57634 3.16172 1.57634H27.7059C28.5816 1.57634 29.2867 2.28348 29.2867 3.14531V18.4667C29.2867 19.3359 28.5742 20.0357 27.7059 20.0357H9.10664C8.89883 20.0357 8.69844 20.1167 8.55 20.2641L5.54414 23.24V20.8165C5.54414 20.3819 5.18789 20.0283 4.75 20.0283H3.16914C2.29336 20.0283 1.58828 19.3212 1.58828 18.4594V16.4779C1.60312 16.0433 1.26172 15.6824 0.823828 15.6676C0.385938 15.6529 0.0222656 15.9917 0.00742187 16.4263C0.00742187 16.4411 0.00742187 16.4558 0.00742187 16.4779V18.4594C0.00742187 20.1978 1.425 21.5973 3.17656 21.6047H3.9707V25.1404C3.9707 25.575 4.32695 25.9286 4.76484 25.9286C4.97266 25.9286 5.17305 25.8475 5.32148 25.7002L9.44063 21.6121H11.4891V25.5382C11.4891 27.2766 12.9066 28.6761 14.6582 28.6835H17.048C17.4859 28.6687 17.8273 28.3078 17.8125 27.8732C17.7977 27.4607 17.4637 27.1219 17.048 27.1145H14.6582C13.7824 27.1145 13.0773 26.4074 13.0773 25.5455V21.6194H27.7207C29.4723 21.6194 30.8824 20.2125 30.8898 18.4741V12.9643H34.8457C35.7215 12.9643 36.4266 13.6714 36.4266 14.5333V25.5308C36.4266 26.4 35.7141 27.0998 34.8457 27.0998H33.25C32.8121 27.0998 32.4559 27.4533 32.4559 27.8879V30.3114L29.45 27.3281C29.3016 27.1808 29.1012 27.0998 28.8934 27.0998H23.7352C23.2973 27.1145 22.9559 27.4754 22.9707 27.91C22.9855 28.3225 23.3195 28.6614 23.7352 28.6687H28.5668L32.6859 32.7569C32.9977 33.0663 33.4949 33.0663 33.8066 32.7569C33.9551 32.6096 34.0367 32.4107 34.0367 32.2045V28.6687H34.8309C36.5824 28.6687 37.9926 27.2618 38 25.5234V14.5333C38 12.8022 36.5824 11.3953 34.8309 11.3953Z" fill="#4FA800"/>
<path d="M0.794645 14.555C1.23254 14.555 1.58879 14.2014 1.58879 13.7668V12.5588C1.60363 12.1242 1.26222 11.7632 0.824333 11.7485C0.386442 11.7338 0.0227702 12.0726 0.0079264 12.5072C0.0079264 12.5219 0.0079264 12.5367 0.0079264 12.5588V13.7668C0.000504526 14.2014 0.356755 14.5476 0.794645 14.555Z" fill="#4FA800"/>
</svg>
