<svg width="100" height="100" viewBox="0 0 80 80" fill="none" xmlns="http://www.w3.org/2000/svg">
<circle opacity="0.1" cx="40" cy="40" r="40" fill="#2CBA67"/>
<g clip-path="url(#clip0)">
<path d="M40.0038 16C26.7703 16 16.0039 26.7662 16.0039 39.9999C16.0039 53.2336 26.7703 64 40.0038 64C53.2372 64 64.0037 53.2336 64.0037 39.9999C64.0037 26.7662 53.2375 16 40.0038 16ZM53.7849 35.9461L38.707 51.024C38.0659 51.6651 37.2137 52.018 36.3071 52.018C35.4006 52.018 34.5483 51.6651 33.9072 51.024L26.2226 43.3394C25.5815 42.6983 25.2284 41.8461 25.2284 40.9395C25.2284 40.0327 25.5815 39.1805 26.2226 38.5393C26.8635 37.8982 27.7157 37.5451 28.6225 37.5451C29.5291 37.5451 30.3816 37.8982 31.0225 38.5396L36.3069 43.8238L48.9846 31.146C49.6257 30.5049 50.478 30.152 51.3845 30.152C52.2911 30.152 53.1433 30.5049 53.7844 31.146C55.1082 32.4698 55.1082 34.6228 53.7849 35.9461Z" fill="#2CBA67"/>
</g>
<defs>
<clipPath id="clip0">
<rect width="48" height="48" fill="white" transform="translate(16.0039 16)"/>
</clipPath>
</defs>
</svg>
