<svg width="24" height="24" viewBox="0 0 24 24" fill="none" xmlns="http://www.w3.org/2000/svg">
<circle cx="12" cy="12" r="11.5" fill="white" stroke="#E5E8EB"/>
<path d="M13.0619 11.9993L16.0307 9.0306C16.1716 8.88995 16.2508 8.69909 16.251 8.50001C16.2512 8.30093 16.1723 8.10993 16.0316 7.96904C15.891 7.82814 15.7001 7.74889 15.501 7.74871C15.3019 7.74853 15.1109 7.82745 14.97 7.9681L12.0013 10.9368L9.03255 7.9681C8.89165 7.8272 8.70056 7.74805 8.5013 7.74805C8.30204 7.74805 8.11095 7.8272 7.97005 7.9681C7.82915 8.10899 7.75 8.30009 7.75 8.49935C7.75 8.69861 7.82915 8.8897 7.97005 9.0306L10.9388 11.9993L7.97005 14.9681C7.82915 15.109 7.75 15.3001 7.75 15.4993C7.75 15.6986 7.82915 15.8897 7.97005 16.0306C8.11095 16.1715 8.30204 16.2506 8.5013 16.2506C8.70056 16.2506 8.89165 16.1715 9.03255 16.0306L12.0013 13.0618L14.97 16.0306C15.1109 16.1715 15.302 16.2506 15.5013 16.2506C15.7006 16.2506 15.8917 16.1715 16.0325 16.0306C16.1734 15.8897 16.2526 15.6986 16.2526 15.4993C16.2526 15.3001 16.1734 15.109 16.0325 14.9681L13.0619 11.9993Z" fill="#667686"/>
</svg>
