<svg width="21" height="15" viewBox="0 0 21 15" fill="none" xmlns="http://www.w3.org/2000/svg">
<path d="M20.002 9.6972C20.002 11.5228 15.5266 13.0077 10.0049 13.0077C4.48313 13.0077 0.0078125 11.5277 0.0078125 9.6972C0.0078125 7.87157 4.48313 6.38672 10.0049 6.38672C15.5216 6.39159 20.002 7.87157 20.002 9.6972Z" fill="url(#paint0_linear)"/>
<path d="M18.8191 9.48631C18.8191 10.9419 14.8721 12.125 9.99551 12.125C5.12397 12.125 1.17188 10.9468 1.17188 9.48631C1.17188 8.03067 5.11889 6.84766 9.99551 6.84766C14.8721 6.85252 18.8191 8.03067 18.8191 9.48631Z" fill="url(#paint1_linear)"/>
<path d="M9.99707 13.0077C4.47531 13.0077 0 11.5278 0 9.69727V11.6884C0 13.5141 4.47531 14.9989 9.99707 14.9989C15.5188 14.9989 19.9941 13.5189 19.9941 11.6884V9.69727C19.9992 11.5278 15.5188 13.0077 9.99707 13.0077Z" fill="url(#paint2_linear)"/>
<path opacity="0.46" d="M9.99707 12.7835C4.59215 12.7835 0.187952 11.3619 0.0101589 9.58984C0.00507908 9.62879 0 9.66287 0 9.70182C0 11.5275 4.47531 13.0123 9.99707 13.0123C15.5188 13.0123 19.9941 11.5323 19.9941 9.70182C19.9941 9.66287 19.9891 9.62392 19.984 9.58984C19.8062 11.3619 15.4071 12.7835 9.99707 12.7835Z" fill="url(#paint3_linear)"/>
<path d="M9.99668 7.75317C14.3501 7.75317 17.9618 8.69763 18.6781 9.93906C18.7644 9.79301 18.8152 9.64209 18.8152 9.48631C18.8152 8.03067 14.8682 6.84766 9.9916 6.84766C5.11498 6.84766 1.16797 8.0258 1.16797 9.48631C1.16797 9.64209 1.22385 9.79301 1.30512 9.93906C2.03662 8.69763 5.64328 7.75317 9.99668 7.75317Z" fill="url(#paint4_linear)"/>
<path d="M9.99707 9.703C15.5183 9.703 19.9941 8.22085 19.9941 6.39252C19.9941 4.56419 15.5183 3.08203 9.99707 3.08203C4.47584 3.08203 0 4.56419 0 6.39252C0 8.22085 4.47584 9.703 9.99707 9.703Z" fill="url(#paint5_linear)"/>
<path d="M18.8191 6.18162C18.8191 7.63726 14.8721 8.82027 9.99551 8.82027C5.12397 8.82027 1.17188 7.64213 1.17188 6.18162C1.17188 4.72598 5.11889 3.54297 9.99551 3.54297C14.8721 3.54297 18.8191 4.72111 18.8191 6.18162Z" fill="url(#paint6_linear)"/>
<path d="M9.99707 9.6972C4.47531 9.6972 0 8.21722 0 6.38672V8.37788C0 10.2035 4.47531 11.6884 9.99707 11.6884C15.5188 11.6884 19.9941 10.2084 19.9941 8.37788V6.38672C19.9992 8.21722 15.5188 9.6972 9.99707 9.6972Z" fill="url(#paint7_linear)"/>
<path opacity="0.46" d="M9.99707 9.47294C4.59215 9.47294 0.187952 8.05138 0.0101589 6.2793C0.00507908 6.31824 0 6.35232 0 6.39127C0 8.2169 4.47531 9.70175 9.99707 9.70175C15.5188 9.70175 19.9941 8.22177 19.9941 6.39127C19.9941 6.35232 19.9891 6.31338 19.984 6.2793C19.8062 8.05138 15.4071 9.47294 9.99707 9.47294Z" fill="url(#paint8_linear)"/>
<path d="M9.99824 4.44848C14.3516 4.44848 17.9634 5.39295 18.6796 6.63438C18.766 6.48833 18.8168 6.33741 18.8168 6.18162C18.8168 4.72598 14.8698 3.54297 9.99316 3.54297C5.11654 3.54297 1.17969 4.72111 1.17969 6.18162C1.17969 6.33741 1.23556 6.48833 1.31684 6.63438C2.03817 5.39295 5.64484 4.44848 9.99824 4.44848Z" fill="url(#paint9_linear)"/>
<path d="M20.002 3.31048C20.002 5.13612 15.5266 6.62097 10.0049 6.62097C4.48313 6.62097 0.0078125 5.14099 0.0078125 3.31048C0.0078125 1.48485 4.48313 0 10.0049 0C15.5216 0 20.002 1.47998 20.002 3.31048Z" fill="url(#paint10_linear)"/>
<path d="M9.99551 5.73433C14.8687 5.73433 18.8191 4.55297 18.8191 3.09568C18.8191 1.6384 14.8687 0.457031 9.99551 0.457031C5.12235 0.457031 1.17188 1.6384 1.17188 3.09568C1.17188 4.55297 5.12235 5.73433 9.99551 5.73433Z" fill="url(#paint11_linear)"/>
<path d="M9.99707 6.61517C4.47531 6.61517 0 5.13519 0 3.30469V5.29585C0 7.12148 4.47531 8.60633 9.99707 8.60633C15.5188 8.60633 19.9941 7.12635 19.9941 5.29585V3.30956C19.9992 5.13519 15.5188 6.61517 9.99707 6.61517Z" fill="url(#paint12_linear)"/>
<path opacity="0.46" d="M9.99707 6.39091C4.59215 6.39091 0.187952 4.96935 0.0101589 3.19727C0.00507908 3.23621 0 3.27029 0 3.30924C0 5.13487 4.47531 6.61972 9.99707 6.61972C15.5188 6.61972 19.9941 5.13974 19.9941 3.30924C19.9941 3.27029 19.9891 3.23134 19.984 3.19727C19.8062 4.96935 15.4071 6.39091 9.99707 6.39091Z" fill="url(#paint13_linear)"/>
<path d="M9.99824 1.36645C14.3516 1.36645 17.9634 2.31091 18.6796 3.55235C18.766 3.4063 18.8168 3.25538 18.8168 3.09959C18.8168 1.64395 14.8698 0.460938 9.99316 0.460938C5.11654 0.460938 1.17969 1.63908 1.17969 3.09472C1.17969 3.25051 1.23556 3.40143 1.31684 3.54748C2.03817 2.31091 5.64484 1.36645 9.99824 1.36645Z" fill="url(#paint14_linear)"/>
<defs>
<linearGradient id="paint0_linear" x1="4.38148" y1="5.07216" x2="14.8763" y2="14.4785" gradientUnits="userSpaceOnUse">
<stop stop-color="#D9BB2C"/>
<stop offset="0.6435" stop-color="#D69A2C"/>
<stop offset="0.6872" stop-color="#DBA730"/>
<stop offset="0.8172" stop-color="#E9C73A"/>
<stop offset="0.9262" stop-color="#F1DB41"/>
<stop offset="1" stop-color="#F4E243"/>
</linearGradient>
<linearGradient id="paint1_linear" x1="5.07576" y1="5.43549" x2="14.2661" y2="13.6726" gradientUnits="userSpaceOnUse">
<stop stop-color="#D9BB2C"/>
<stop offset="0.6435" stop-color="#D69A2C"/>
<stop offset="0.6872" stop-color="#DBA730"/>
<stop offset="0.8172" stop-color="#E9C73A"/>
<stop offset="0.9262" stop-color="#F1DB41"/>
<stop offset="1" stop-color="#F4E243"/>
</linearGradient>
<linearGradient id="paint2_linear" x1="-0.122119" y1="12.3496" x2="20.2771" y2="12.3496" gradientUnits="userSpaceOnUse">
<stop stop-color="#D9BB2C"/>
<stop offset="0.281" stop-color="#FFFF53"/>
<stop offset="0.8536" stop-color="#C87922"/>
<stop offset="0.854" stop-color="#C87922"/>
<stop offset="0.9005" stop-color="#DBA630"/>
<stop offset="0.942" stop-color="#E9C73A"/>
<stop offset="0.9766" stop-color="#F1DB41"/>
<stop offset="1" stop-color="#F4E243"/>
</linearGradient>
<linearGradient id="paint3_linear" x1="4.4301" y1="5.38251" x2="14.7535" y2="14.6352" gradientUnits="userSpaceOnUse">
<stop stop-color="white"/>
<stop offset="0.3305" stop-color="#FFFFFD"/>
<stop offset="0.4786" stop-color="#FEFEF6"/>
<stop offset="0.5903" stop-color="#FEFCE9"/>
<stop offset="0.6837" stop-color="#FDF9D7"/>
<stop offset="0.7658" stop-color="#FBF5BF"/>
<stop offset="0.8398" stop-color="#FAF1A2"/>
<stop offset="0.9078" stop-color="#F8EB80"/>
<stop offset="0.9693" stop-color="#F5E559"/>
<stop offset="1" stop-color="#F4E243"/>
</linearGradient>
<linearGradient id="paint4_linear" x1="5.10909" y1="5.39786" x2="14.2759" y2="13.6139" gradientUnits="userSpaceOnUse">
<stop stop-color="#D9BB2C"/>
<stop offset="0.6435" stop-color="#D69A2C"/>
<stop offset="0.6872" stop-color="#DBA730"/>
<stop offset="0.8172" stop-color="#E9C73A"/>
<stop offset="0.9262" stop-color="#F1DB41"/>
<stop offset="1" stop-color="#F4E243"/>
</linearGradient>
<linearGradient id="paint5_linear" x1="4.37875" y1="1.76436" x2="14.8735" y2="11.1706" gradientUnits="userSpaceOnUse">
<stop stop-color="#D9BB2C"/>
<stop offset="0.6435" stop-color="#D69A2C"/>
<stop offset="0.6872" stop-color="#DBA730"/>
<stop offset="0.8172" stop-color="#E9C73A"/>
<stop offset="0.9262" stop-color="#F1DB41"/>
<stop offset="1" stop-color="#F4E243"/>
</linearGradient>
<linearGradient id="paint6_linear" x1="5.07576" y1="2.12764" x2="14.2661" y2="10.3648" gradientUnits="userSpaceOnUse">
<stop stop-color="#D9BB2C"/>
<stop offset="0.6435" stop-color="#D69A2C"/>
<stop offset="0.6872" stop-color="#DBA730"/>
<stop offset="0.8172" stop-color="#E9C73A"/>
<stop offset="0.9262" stop-color="#F1DB41"/>
<stop offset="1" stop-color="#F4E243"/>
</linearGradient>
<linearGradient id="paint7_linear" x1="-0.122119" y1="9.0408" x2="20.2771" y2="9.0408" gradientUnits="userSpaceOnUse">
<stop stop-color="#D9BB2C"/>
<stop offset="0.281" stop-color="#FFFF53"/>
<stop offset="0.8536" stop-color="#C87922"/>
<stop offset="0.854" stop-color="#C87922"/>
<stop offset="0.9005" stop-color="#DBA630"/>
<stop offset="0.942" stop-color="#E9C73A"/>
<stop offset="0.9766" stop-color="#F1DB41"/>
<stop offset="1" stop-color="#F4E243"/>
</linearGradient>
<linearGradient id="paint8_linear" x1="4.4301" y1="2.07362" x2="14.7536" y2="11.3263" gradientUnits="userSpaceOnUse">
<stop stop-color="white"/>
<stop offset="0.3305" stop-color="#FFFFFD"/>
<stop offset="0.4786" stop-color="#FEFEF6"/>
<stop offset="0.5903" stop-color="#FEFCE9"/>
<stop offset="0.6837" stop-color="#FDF9D7"/>
<stop offset="0.7658" stop-color="#FBF5BF"/>
<stop offset="0.8398" stop-color="#FAF1A2"/>
<stop offset="0.9078" stop-color="#F8EB80"/>
<stop offset="0.9693" stop-color="#F5E559"/>
<stop offset="1" stop-color="#F4E243"/>
</linearGradient>
<linearGradient id="paint9_linear" x1="5.11065" y1="2.09006" x2="14.2775" y2="10.3061" gradientUnits="userSpaceOnUse">
<stop stop-color="#D9BB2C"/>
<stop offset="0.6435" stop-color="#D69A2C"/>
<stop offset="0.6872" stop-color="#DBA730"/>
<stop offset="0.8172" stop-color="#E9C73A"/>
<stop offset="0.9262" stop-color="#F1DB41"/>
<stop offset="1" stop-color="#F4E243"/>
</linearGradient>
<linearGradient id="paint10_linear" x1="4.38148" y1="-1.31835" x2="14.8763" y2="8.08797" gradientUnits="userSpaceOnUse">
<stop stop-color="#D9BB2C"/>
<stop offset="0.6435" stop-color="#D69A2C"/>
<stop offset="0.6872" stop-color="#DBA730"/>
<stop offset="0.8172" stop-color="#E9C73A"/>
<stop offset="0.9262" stop-color="#F1DB41"/>
<stop offset="1" stop-color="#F4E243"/>
</linearGradient>
<linearGradient id="paint11_linear" x1="5.07576" y1="-0.954111" x2="14.2661" y2="7.28304" gradientUnits="userSpaceOnUse">
<stop stop-color="#D9BB2C"/>
<stop offset="0.6435" stop-color="#D69A2C"/>
<stop offset="0.6872" stop-color="#DBA730"/>
<stop offset="0.8172" stop-color="#E9C73A"/>
<stop offset="0.9262" stop-color="#F1DB41"/>
<stop offset="1" stop-color="#F4E243"/>
</linearGradient>
<linearGradient id="paint12_linear" x1="-0.122119" y1="5.95809" x2="20.2771" y2="5.95809" gradientUnits="userSpaceOnUse">
<stop stop-color="#D9BB2C"/>
<stop offset="0.281" stop-color="#FFFF53"/>
<stop offset="0.8536" stop-color="#C87922"/>
<stop offset="0.854" stop-color="#C87922"/>
<stop offset="0.9005" stop-color="#DBA630"/>
<stop offset="0.942" stop-color="#E9C73A"/>
<stop offset="0.9766" stop-color="#F1DB41"/>
<stop offset="1" stop-color="#F4E243"/>
</linearGradient>
<linearGradient id="paint13_linear" x1="4.4301" y1="-1.009" x2="14.7535" y2="8.24373" gradientUnits="userSpaceOnUse">
<stop stop-color="white"/>
<stop offset="0.3305" stop-color="#FFFFFD"/>
<stop offset="0.4786" stop-color="#FEFEF6"/>
<stop offset="0.5903" stop-color="#FEFCE9"/>
<stop offset="0.6837" stop-color="#FDF9D7"/>
<stop offset="0.7658" stop-color="#FBF5BF"/>
<stop offset="0.8398" stop-color="#FAF1A2"/>
<stop offset="0.9078" stop-color="#F8EB80"/>
<stop offset="0.9693" stop-color="#F5E559"/>
<stop offset="1" stop-color="#F4E243"/>
</linearGradient>
<linearGradient id="paint14_linear" x1="5.11065" y1="-0.992657" x2="14.2775" y2="7.22341" gradientUnits="userSpaceOnUse">
<stop stop-color="#D9BB2C"/>
<stop offset="0.6435" stop-color="#D69A2C"/>
<stop offset="0.6872" stop-color="#DBA730"/>
<stop offset="0.8172" stop-color="#E9C73A"/>
<stop offset="0.9262" stop-color="#F1DB41"/>
<stop offset="1" stop-color="#F4E243"/>
</linearGradient>
</defs>
</svg>
