<svg width="120" height="120" viewBox="0 0 120 120" fill="none" xmlns="http://www.w3.org/2000/svg">
<circle opacity="0.1" cx="60" cy="60" r="60" fill="#47C2B1"/>
<path d="M60.5018 24.0033C40.2572 23.7299 23.7299 40.2572 24.0033 60.5018C24.2733 79.9175 40.0824 95.7266 59.4981 95.9966C79.7462 96.2735 96.27 79.7462 95.9931 59.5015C95.7266 40.0824 79.9175 24.2733 60.5018 24.0033ZM57.5961 57.3123L66.5174 47.1017C67.0007 46.5487 67.684 46.2102 68.4168 46.1609C69.1496 46.1116 69.872 46.3554 70.4251 46.8387C70.9782 47.322 71.3166 48.0052 71.366 48.7381C71.4153 49.4709 71.1715 50.1933 70.6882 50.7464L61.7669 60.957C61.5276 61.2308 61.2367 61.4549 60.9108 61.6163C60.5849 61.7777 60.2304 61.8734 59.8675 61.8978C59.5047 61.9222 59.1405 61.875 58.796 61.7587C58.4514 61.6424 58.1331 61.4593 57.8592 61.22C57.5853 60.9807 57.3613 60.6898 57.1999 60.3639C57.0384 60.038 56.9428 59.6835 56.9184 59.3207C56.8939 58.9578 56.9412 58.5937 57.0575 58.2491C57.1738 57.9045 57.3568 57.5862 57.5961 57.3123ZM50.871 73.0349C50.3518 73.5538 49.6478 73.8453 48.9137 73.8453C48.1796 73.8453 47.4756 73.5538 46.9564 73.0349L38.6581 64.728C38.4011 64.4707 38.1972 64.1653 38.0582 63.8293C37.9192 63.4932 37.8477 63.1331 37.8479 62.7694C37.848 62.4058 37.9198 62.0457 38.0591 61.7098C38.1985 61.3738 38.4026 61.0687 38.6598 60.8116C38.9171 60.5546 39.2225 60.3507 39.5585 60.2117C39.8946 60.0727 40.2547 60.0012 40.6184 60.0014C40.9821 60.0015 41.3421 60.0733 41.6781 60.2126C42.014 60.352 42.3192 60.5561 42.5762 60.8133L50.8831 69.1203C51.4004 69.6411 51.6897 70.346 51.6874 71.0801C51.6852 71.8141 51.3915 72.5173 50.871 73.0349ZM81.4681 50.7464L62.1061 72.8982C61.8566 73.184 61.5511 73.4155 61.2085 73.5784C60.8658 73.7412 60.4933 73.8319 60.1142 73.8448H60.0207C59.6569 73.8449 59.2966 73.7732 58.9604 73.6339C58.6243 73.4947 58.3189 73.2905 58.0617 73.0332L49.7652 64.7262C49.246 64.2067 48.9546 63.5022 48.9549 62.7677C48.9552 62.0332 49.2473 61.329 49.7669 60.8099C50.2865 60.2908 50.991 59.9993 51.7254 59.9996C52.4599 60 53.1641 60.292 53.6832 60.8116L58.8405 65.974C58.9745 66.1081 59.1347 66.2133 59.3111 66.2829C59.4874 66.3525 59.6763 66.3852 59.8658 66.3789C60.0553 66.3726 60.2415 66.3274 60.4128 66.2461C60.5842 66.1649 60.737 66.0493 60.8618 65.9065L77.3026 47.1017C77.7859 46.5487 78.4691 46.2102 79.2019 46.1609C79.9348 46.1116 80.6572 46.3554 81.2103 46.8387C81.7633 47.322 82.1018 48.0052 82.1511 48.7381C82.2004 49.4709 81.9566 50.1933 81.4733 50.7464H81.4681Z" fill="#47C2B1"/>
</svg>
