<svg width="37" height="37" viewBox="0 0 37 37" fill="none" xmlns="http://www.w3.org/2000/svg">
<path d="M10.1684 9.2193V4.00083C10.1684 2.77295 11.707 2.36366 12.4763 2.3125H29.0643L35.8438 9.83324C35.7476 16.6377 35.5553 30.8606 35.5553 33.3164C35.5553 35.7721 33.9205 36.7954 33.1031 37H14.64C11.0628 37 10.1684 35.5675 10.1684 34.8512L9.44724 29.3258C8.62985 28.9165 6.67773 27.6988 5.40839 26.1026C3.82171 24.1073 2.81201 19.6562 3.96596 15.3587C4.88911 11.9206 8.48558 9.83324 10.1684 9.2193Z" fill="#DBE7FF"/>
<path d="M36.9926 9.79171C36.9894 9.74118 36.9794 9.69093 36.9626 9.64323C36.9563 9.6246 36.9515 9.60681 36.9435 9.58875C36.9149 9.52579 36.8752 9.46849 36.8264 9.41937L29.8083 2.48187C29.7586 2.43332 29.7003 2.39408 29.6364 2.36613C29.619 2.35823 29.6013 2.35343 29.5833 2.34722C29.5336 2.33028 29.4822 2.32012 29.4299 2.31702C29.4199 2.31899 29.4094 2.3125 29.3971 2.3125H11.8519C10.2378 2.31448 8.92965 3.60735 8.92765 5.20312V9.45805C4.90716 11.2108 2.3125 15.1447 2.3125 19.4886C2.3125 23.8324 4.90716 27.7664 8.92765 29.5191V34.1094C8.92965 35.7051 10.2378 36.998 11.8519 37H34.0758C35.6901 36.998 36.9983 35.7051 37 34.1094V9.82812C37 9.81542 36.9937 9.80441 36.9926 9.79171ZM35.0033 9.25H30.5668C30.2438 9.25 29.9819 8.99114 29.9819 8.67188V4.28625L35.0033 9.25ZM3.49446 19.4886C3.49103 16.8808 4.53735 14.3792 6.40267 12.5353C8.26799 10.6914 10.799 9.65706 13.4368 9.66045C13.7692 9.66045 14.099 9.67654 14.4245 9.70787C18.9468 10.1497 22.5863 13.5738 23.2562 18.0167C23.3339 18.5037 23.3748 18.9957 23.3785 19.4886C23.3828 21.3401 22.8533 23.1544 21.8527 24.7194C21.0591 25.9699 19.9896 27.0268 18.7243 27.8107C15.6605 29.7127 11.7933 29.8195 8.62695 28.089C5.46059 26.3589 3.49503 23.0649 3.49446 19.4886ZM20.2292 28.1731C20.3092 28.1119 20.3883 28.0512 20.4665 27.9883C20.7553 27.7585 21.0317 27.5143 21.2953 27.2568C21.5557 26.9963 21.8027 26.7233 22.0352 26.4382C22.0988 26.3609 22.1602 26.2821 22.2222 26.2031C22.293 26.1116 22.3698 26.0249 22.4375 25.9318L27.4232 30.8662C27.7534 31.1894 27.9393 31.6298 27.9393 32.089C27.9393 32.5486 27.7534 32.9887 27.4232 33.3122C26.7327 33.9719 25.6376 33.9719 24.9471 33.3122L19.9548 28.386C20.049 28.3182 20.1373 28.2432 20.2292 28.1731ZM34.0758 35.8438H11.8519C10.8829 35.8438 10.0973 35.0672 10.0973 34.1094V29.9705C10.1336 29.982 10.1716 29.9897 10.2084 30.0007C10.3021 30.0289 10.3969 30.0515 10.4917 30.0775C10.7104 30.1353 10.9309 30.1932 11.1536 30.2364C11.263 30.259 11.3724 30.2799 11.4829 30.2991C11.7056 30.3377 11.9304 30.3682 12.156 30.3939C12.2568 30.4052 12.3562 30.4193 12.4573 30.4278C12.7814 30.4552 13.1075 30.4729 13.4368 30.4729C15.37 30.4744 17.2696 29.9741 18.9456 29.022L24.1167 34.1286C24.8423 34.9136 25.9457 35.2416 26.9889 34.9819C28.0324 34.7225 28.8474 33.9177 29.1106 32.8865C29.3742 31.8553 29.0435 30.7643 28.2497 30.0464L23.0809 24.9339C24.0441 23.2772 24.5504 21.3994 24.5487 19.4886C24.5487 19.1224 24.531 18.7591 24.495 18.3989C24.2455 15.873 23.1143 13.512 21.2958 11.7209C19.216 9.65395 16.3861 8.49573 13.4368 8.5042C13.1075 8.5042 12.7814 8.52226 12.4573 8.54936C12.3562 8.55811 12.2559 8.57195 12.1554 8.58352C11.9304 8.60836 11.7068 8.63998 11.484 8.67837C11.373 8.69756 11.2622 8.71845 11.1519 8.74132C10.932 8.78648 10.7139 8.83955 10.4974 8.89855C10.4003 8.92452 10.3032 8.94767 10.205 8.97646C10.1687 8.98747 10.1319 8.99509 10.0956 9.00667V5.20312C10.0956 4.24532 10.8812 3.46875 11.8501 3.46875H28.8122V8.67188C28.8122 9.62968 29.5978 10.4062 30.5668 10.4062H35.8303V34.1094C35.8303 35.0672 35.045 35.8438 34.0758 35.8438Z" fill="#598BEC"/>
<path d="M26.5938 6.35938C26.5938 6.04011 26.3349 5.78125 26.0156 5.78125H13.2969C12.9776 5.78125 12.7188 6.04011 12.7188 6.35938C12.7188 6.67864 12.9776 6.9375 13.2969 6.9375H26.0156C26.3349 6.9375 26.5938 6.67864 26.5938 6.35938Z" fill="#598BEC"/>
<path d="M32.9531 16.1875H26.0156C25.6964 16.1875 25.4375 16.4464 25.4375 16.7656C25.4375 17.0849 25.6964 17.3438 26.0156 17.3438H32.9531C33.2724 17.3438 33.5312 17.0849 33.5312 16.7656C33.5312 16.4464 33.2724 16.1875 32.9531 16.1875Z" fill="#598BEC"/>
<path d="M32.9531 19.6562H26.0156C25.6964 19.6562 25.4375 19.9151 25.4375 20.2344C25.4375 20.5536 25.6964 20.8125 26.0156 20.8125H32.9531C33.2724 20.8125 33.5312 20.5536 33.5312 20.2344C33.5312 19.9151 33.2724 19.6562 32.9531 19.6562Z" fill="#598BEC"/>
<path d="M33.5312 23.7031C33.5312 23.3839 33.2551 23.125 32.9146 23.125H24.8979C24.5574 23.125 24.2812 23.3839 24.2812 23.7031C24.2812 24.0224 24.5574 24.2812 24.8979 24.2812H32.9146C33.2551 24.2812 33.5312 24.0224 33.5312 23.7031Z" fill="#598BEC"/>
<path d="M33.5312 27.1719C33.5312 26.8526 33.2489 26.5938 32.9006 26.5938H27.2244C26.8761 26.5938 26.5938 26.8526 26.5938 27.1719C26.5938 27.4911 26.8761 27.75 27.2244 27.75H32.9006C33.2489 27.75 33.5312 27.4911 33.5312 27.1719Z" fill="#598BEC"/>
<path d="M26.5938 9.82812C26.5938 9.50886 26.3349 9.25 26.0156 9.25H21.3906C21.0714 9.25 20.8125 9.50886 20.8125 9.82812C20.8125 10.1474 21.0714 10.4062 21.3906 10.4062H26.0156C26.3349 10.4062 26.5938 10.1474 26.5938 9.82812Z" fill="#598BEC"/>
<path d="M33.5312 13.2969C33.5312 12.9776 33.2572 12.7188 32.9191 12.7188H23.7371C23.3991 12.7188 23.125 12.9776 23.125 13.2969C23.125 13.6161 23.3991 13.875 23.7371 13.875H32.9191C33.2572 13.875 33.5312 13.6161 33.5312 13.2969Z" fill="#598BEC"/>
<path d="M11.0486 16.1875H15.5451C15.8999 16.1875 16.1875 15.9286 16.1875 15.6094C16.1875 15.2901 15.8999 15.0312 15.5451 15.0312H11.0486C10.6939 15.0312 10.4062 15.2901 10.4062 15.6094C10.4062 15.9286 10.6939 16.1875 11.0486 16.1875Z" fill="#598BEC"/>
<path d="M18.5 19.0781C18.5 18.7589 18.2259 18.5 17.8879 18.5H8.70588C8.36783 18.5 8.09375 18.7589 8.09375 19.0781C8.09375 19.3974 8.36783 19.6562 8.70588 19.6562H17.8879C18.2259 19.6562 18.5 19.3974 18.5 19.0781Z" fill="#598BEC"/>
<path d="M15.5451 21.9688H11.0486C10.6939 21.9688 10.4062 22.2276 10.4062 22.5469C10.4062 22.8661 10.6939 23.125 11.0486 23.125H15.5451C15.8999 23.125 16.1875 22.8661 16.1875 22.5469C16.1875 22.2276 15.8999 21.9688 15.5451 21.9688Z" fill="#598BEC"/>
<path d="M17.4176 26.7007C18.8281 25.9498 19.9977 24.8156 20.7915 23.4293C20.8373 23.3494 20.887 23.2721 20.9299 23.1911C20.9522 23.1493 20.9697 23.1061 20.9912 23.0643C21.079 22.8955 21.1646 22.7267 21.2402 22.5539C21.3162 22.3812 21.3758 22.2169 21.4376 22.047C21.4554 21.9978 21.478 21.9498 21.4955 21.9002C22.9662 17.625 20.9048 12.9374 16.7594 11.1305C12.6137 9.32358 7.77502 11.0037 5.64246 14.9904C4.97123 16.2463 4.62164 17.649 4.62502 19.0731C4.61966 22.1285 6.22501 24.9607 8.84978 26.5262C11.4745 28.0921 14.7301 28.1595 17.4176 26.7041V26.7007ZM9.69693 25.6706C9.06749 25.3277 8.49087 24.8958 7.98455 24.3882C7.63326 24.0373 7.31728 23.6531 7.04082 23.2407C6.90415 23.0364 6.77849 22.8266 6.66299 22.6112C4.92238 19.3257 5.84464 15.2617 8.83312 13.0489C11.8216 10.8361 15.9794 11.1387 18.616 13.7608C20.9511 16.117 21.4763 19.7201 19.9113 22.6445V22.6493C19.2218 23.9391 18.1645 24.9951 16.874 25.6839C14.6353 26.8997 11.932 26.8955 9.69693 25.6729V25.6706Z" fill="#598BEC"/>
<path d="M34.1094 30.0625C33.7901 30.0625 33.5312 30.3214 33.5312 30.6406V32.9531C33.5312 33.2724 33.2724 33.5312 32.9531 33.5312H30.6406C30.3214 33.5312 30.0625 33.7901 30.0625 34.1094C30.0625 34.4286 30.3214 34.6875 30.6406 34.6875H32.9531C33.9112 34.6875 34.6875 33.9109 34.6875 32.9531V30.6406C34.6875 30.3214 34.4286 30.0625 34.1094 30.0625Z" fill="#598BEC"/>
</svg>
