<svg width="34" height="37" viewBox="0 0 34 37" fill="none" xmlns="http://www.w3.org/2000/svg">
<path d="M1.02151 30.4996V3.4996C1.42154 2.29928 2.52152 2.33307 3.02151 2.5H21.0215C20.1882 2.16653 19.6215 1.3996 24.0215 0.999598C29.5215 0.499598 32.5215 4.4996 32.0215 7.9996C31.6215 10.7996 29.5215 13.1663 28.5215 13.9996V33.9996C28.5215 36.7996 26.5215 36.8329 25.5215 36.4996H11.5215C9.02148 36.4996 6.02148 35.9996 6.02148 35.4996C6.02148 34.9996 5.52151 32.4996 3.02151 32.4996C1.02151 32.4996 0.854846 31.1663 1.02151 30.4996Z" fill="#BAEEFF"/>
<path d="M25.4609 12.3096C25.0619 12.3096 24.7383 11.986 24.7383 11.587V6.64551C24.7383 6.24646 25.0619 5.92285 25.4609 5.92285C25.86 5.92285 26.1836 6.24646 26.1836 6.64551V11.587C26.1836 11.986 25.8601 12.3096 25.4609 12.3096Z" fill="#3991DF"/>
<path d="M25.457 5.04199C25.8561 5.04199 26.1797 4.71845 26.1797 4.31934C26.1797 3.92022 25.8561 3.59668 25.457 3.59668C25.0579 3.59668 24.7344 3.92022 24.7344 4.31934C24.7344 4.71845 25.0579 5.04199 25.457 5.04199Z" fill="#3991DF"/>
<path d="M33.0468 7.59201C33.0468 3.40573 29.6417 0 25.4562 0C23.7238 0 22.1251 0.583473 20.8462 1.56426H2.62996C1.17981 1.56426 0 2.744 0 4.19422V30.4825C0 31.9327 1.17981 33.1125 2.62996 33.1125H4.92302V34.37C4.92302 35.8201 6.10283 37 7.55299 37H26.4476C27.8978 37 29.0776 35.8202 29.0776 34.37V24.3466C29.0776 23.9475 28.754 23.6239 28.3549 23.6239C27.9559 23.6239 27.6323 23.9475 27.6323 24.3466V34.37C27.6323 35.0232 27.1008 35.5547 26.4476 35.5547H7.55299C6.89978 35.5547 6.36834 35.0232 6.36834 34.37V33.1125H21.5247C22.9748 33.1125 24.1547 31.9327 24.1547 30.4825V15.0723C24.5778 15.1457 25.0126 15.184 25.4563 15.184C26.2123 15.184 26.9428 15.0729 27.6324 14.8661V17.813C27.6324 18.212 27.956 18.5356 28.355 18.5356C28.7541 18.5356 29.0777 18.212 29.0777 17.813V14.2629C31.4402 12.9747 33.0468 10.4675 33.0468 7.59201ZM22.7094 30.4826C22.7094 31.1358 22.178 31.6673 21.5247 31.6673H2.62996C1.97675 31.6673 1.44531 31.1359 1.44531 30.4826V4.19422C1.44531 3.54102 1.97675 3.00957 2.62996 3.00957H19.4079C18.5009 4.20434 17.9391 5.67495 17.8724 7.27137H5.56626C5.16721 7.27137 4.8436 7.59497 4.8436 7.99402V11.0461C4.8436 11.4451 5.16721 11.7687 5.56626 11.7687H18.5884C18.7526 11.7687 18.9041 11.7139 19.0255 11.6215C19.8888 12.9949 21.1795 14.0736 22.7094 14.6696V30.4826ZM17.8657 8.71668V10.3234H6.28892V8.71668H17.8657ZM25.4562 13.7386C22.0678 13.7386 19.311 10.9813 19.311 7.59194C19.311 4.20268 22.0678 1.44524 25.4562 1.44524C28.8448 1.44524 31.6015 4.20261 31.6015 7.59194C31.6015 10.9813 28.8448 13.7386 25.4562 13.7386Z" fill="#3991DF"/>
<path d="M28.3539 21.7895C28.0562 21.7895 27.7832 21.5989 27.6783 21.3211C27.5705 21.0359 27.6588 20.7006 27.8957 20.5077C28.1331 20.3146 28.4749 20.2914 28.7352 20.453C28.9951 20.6142 29.1281 20.9324 29.0578 21.2308C28.9817 21.5536 28.686 21.7895 28.3539 21.7895Z" fill="#3991DF"/>
<path d="M18.5886 15.7266H5.56641C5.16736 15.7266 4.84375 15.403 4.84375 15.0039C4.84375 14.6049 5.16736 14.2812 5.56641 14.2812H18.5886C18.9876 14.2812 19.3112 14.6049 19.3112 15.0039C19.3112 15.403 18.9877 15.7266 18.5886 15.7266Z" fill="#3991DF"/>
<path d="M18.5886 19.1543H5.56641C5.16736 19.1543 4.84375 18.8307 4.84375 18.4316C4.84375 18.0325 5.16736 17.709 5.56641 17.709H18.5886C18.9876 17.709 19.3112 18.0325 19.3112 18.4316C19.3112 18.8307 18.9877 19.1543 18.5886 19.1543Z" fill="#3991DF"/>
<path d="M18.5886 22.582H5.56641C5.16736 22.582 4.84375 22.2584 4.84375 21.8594C4.84375 21.4603 5.16736 21.1367 5.56641 21.1367H18.5886C18.9876 21.1367 19.3112 21.4603 19.3112 21.8594C19.3112 22.2585 18.9877 22.582 18.5886 22.582Z" fill="#3991DF"/>
<path d="M18.5886 26.0098H5.56641C5.16736 26.0098 4.84375 25.6862 4.84375 25.2871C4.84375 24.888 5.16736 24.5645 5.56641 24.5645H18.5886C18.9876 24.5645 19.3112 24.888 19.3112 25.2871C19.3112 25.6862 18.9877 26.0098 18.5886 26.0098Z" fill="#3991DF"/>
</svg>
