<svg width="90" height="90" viewBox="0 0 90 90" fill="none" xmlns="http://www.w3.org/2000/svg">
<g clip-path="url(#clip0)">
<path d="M40.5244 7.20778H49.3499C50.088 7.20778 50.6861 6.60971 50.6861 5.87157C50.6861 5.13342 50.088 4.53467 49.3499 4.53467H40.5244C39.7863 4.53467 39.1875 5.13342 39.1875 5.87157C39.1875 6.60971 39.7863 7.20778 40.5244 7.20778Z" fill="#4C5F72"/>
<path d="M49.3499 80.8682H40.5244C39.7863 80.8682 39.1875 81.4662 39.1875 82.2044C39.1875 82.9425 39.7863 83.5413 40.5244 83.5413H49.3499C50.088 83.5413 50.6861 82.9425 50.6861 82.2044C50.6861 81.4662 50.088 80.8682 49.3499 80.8682Z" fill="#4C5F72"/>
<path d="M74.8504 8.79385V7.05458C74.8504 3.16474 71.6857 0 67.7958 0H22.0784C18.1885 0 15.0238 3.16474 15.0238 7.05458V8.79385C12.9213 8.92431 11.25 10.6753 11.25 12.8107V18.3492C11.25 20.484 12.9206 22.2349 15.0231 22.3654V22.7286C12.9206 22.8598 11.25 24.6107 11.25 26.7455V32.2839C11.25 34.4187 12.9206 36.1697 15.0231 36.3008L15.0238 82.9459C15.0238 86.8358 18.1885 89.9998 22.0784 89.9998H67.7958C71.6857 89.9998 74.8504 86.8351 74.8504 82.9459V27.7528C76.9529 27.6223 78.6235 25.8714 78.6235 23.7366V12.8107C78.6235 10.6759 76.9529 8.925 74.8504 8.79385ZM17.6969 11.4587H72.1773V75.1374H17.6969V11.4587ZM22.0784 2.67311H67.7958C70.2121 2.67311 72.1773 4.63897 72.1773 7.05458V8.78492H17.6969V7.05458C17.6969 4.63897 19.6628 2.67311 22.0784 2.67311ZM13.9231 18.3492V12.8107C13.9231 12.1515 14.3976 11.6002 15.0231 11.4821V19.6772C14.3976 19.5591 13.9231 19.0084 13.9231 18.3492ZM13.9231 32.2839V26.7455C13.9231 26.0863 14.3976 25.5356 15.0231 25.4168V33.6119C14.3976 33.4938 13.9231 32.9431 13.9231 32.2839ZM67.7958 87.3267H22.0784C19.6628 87.3267 17.6976 85.3608 17.6976 82.9452V77.8105H72.1773V82.9452C72.1773 85.3608 70.2121 87.3267 67.7958 87.3267ZM75.9504 23.7366C75.9504 24.3958 75.4759 24.9465 74.8504 25.0653V11.4821C75.4759 11.6009 75.9504 12.1515 75.9504 12.8107V23.7366Z" fill="#4C5F72"/>
<path d="M60.6576 30.6079C60.2779 29.0863 59.6757 27.6347 58.8627 26.2799C58.483 25.6469 57.6617 25.4416 57.0286 25.822C56.3962 26.2017 56.1909 27.0229 56.5707 27.656C57.4029 29.0423 57.9687 30.5509 58.2529 32.1398C58.3662 32.777 58.921 33.2412 59.5685 33.2412C59.6097 33.2412 59.6509 33.2405 59.6921 33.2384L59.7237 33.2377C63.7269 33.2377 66.9843 36.4938 66.9843 40.4962C66.9843 44.5001 63.7269 47.7568 59.7237 47.7568H53.445V43.3657C53.445 42.6276 52.8463 42.0288 52.1081 42.0288H37.7634C37.0253 42.0288 36.4272 42.6276 36.4272 43.3657V47.7568H32.1817C27.0573 47.7568 22.888 43.5875 22.888 38.4631C22.888 33.349 27.049 29.1803 32.1645 29.1707C32.6658 29.17 33.1238 28.8885 33.3524 28.4429C35.6369 23.9769 40.1701 21.2029 45.1813 21.2029C48.1888 21.2029 51.0226 22.1827 53.3771 24.0367C53.9573 24.4933 54.7977 24.3937 55.2544 23.8135C55.711 23.234 55.6114 22.3935 55.0312 21.9369C52.2008 19.7081 48.7944 18.5298 45.1813 18.5298C39.4272 18.5298 34.1991 21.5737 31.3522 26.5265C25.1402 26.9542 20.2148 32.1487 20.2148 38.4631C20.2148 45.0618 25.583 50.4306 32.1817 50.4306H36.4272V54.5457H31.6578C31.1256 54.5457 30.6443 54.8609 30.4321 55.3491C30.22 55.8373 30.3175 56.4044 30.6807 56.7938L36.3709 62.8946C36.8749 63.4343 37.7209 63.4638 38.2599 62.9598C38.8003 62.4565 38.8291 61.6106 38.3258 61.0709L34.7326 57.2188H37.7634C38.5016 57.2188 39.1003 56.6207 39.1003 55.8826V44.7026H50.7719V55.8826C50.7719 56.6207 51.37 57.2188 52.1081 57.2188H55.139L44.9368 68.155L41.9685 64.9738C41.4645 64.4341 40.6192 64.4045 40.0795 64.9079C39.5398 65.4119 39.5103 66.2578 40.0136 66.7975L43.9597 71.0266C44.2124 71.2978 44.566 71.4516 44.9368 71.4516C45.3076 71.4516 45.6612 71.2978 45.9139 71.0266L59.1916 56.7938C59.5541 56.4044 59.6516 55.8373 59.4395 55.3491C59.228 54.8609 58.7459 54.5457 58.2138 54.5457H53.445V50.4306H59.7237C65.2011 50.4306 69.6574 45.9743 69.6574 40.4969C69.6574 35.3347 65.6982 31.0796 60.6576 30.6079Z" fill="#4C5F72"/>
</g>
<defs>
<clipPath id="clip0">
<rect width="90" height="90" fill="white"/>
</clipPath>
</defs>
</svg>
