<svg width="24" height="24" viewBox="0 0 24 24" fill="none" xmlns="http://www.w3.org/2000/svg">
<path d="M12 0C5.37462 0 0 5.37173 0 12C0 18.6283 5.37231 24 12 24C18.6277 24 24 18.6277 24 12C24 5.37231 18.626 0 12 0V0ZM19.2012 11.7265C19.0367 13.609 18.2325 14.5938 17.5858 15.0877C16.939 15.5815 16.1625 15.7985 15.4927 15.6785C15.1823 15.6229 14.8859 15.5067 14.6204 15.3365C14.3549 15.1664 14.1255 14.9456 13.9454 14.6867C13.2666 15.347 12.3538 15.7115 11.4069 15.7004C10.9888 15.7036 10.5748 15.6188 10.1916 15.4515C9.80844 15.2842 9.46476 15.0382 9.18289 14.7294C8.52635 14.0129 8.20212 12.9779 8.29904 11.8892C8.47212 9.87 10.0823 8.57827 11.58 8.34231C13.1492 8.09481 14.5933 8.71962 15.2088 9.465L15.431 9.73385L15.0652 12.6404C14.9965 13.4677 15.2544 13.995 15.7742 14.0885C15.9121 14.1127 16.2415 14.081 16.6033 13.804C16.991 13.5069 17.4767 12.881 17.5898 11.5846C17.7254 10.0535 17.3388 8.74673 16.4792 7.80635C15.5856 6.83135 14.224 6.31558 12.5429 6.31558C9.4275 6.31558 6.66923 8.87885 6.39404 12.0271C6.2625 13.5387 6.72115 14.951 7.68635 16.0038C8.63019 17.0342 9.95423 17.6042 11.4167 17.6042C12.5129 17.6042 13.1827 17.486 14.2713 17.0977C14.4732 17.0258 14.6953 17.037 14.8888 17.1288C15.0824 17.2207 15.2315 17.3857 15.3035 17.5875C15.3754 17.7893 15.3642 18.0114 15.2723 18.205C15.1805 18.3986 15.0155 18.5477 14.8137 18.6196C13.5548 19.0679 12.6975 19.2196 11.4167 19.2196C9.49673 19.2196 7.74923 18.4662 6.49558 17.0983C5.22346 15.7073 4.61308 13.8577 4.785 11.8892C4.95288 9.96635 5.84942 8.16058 7.31019 6.80538C8.77096 5.45019 10.6315 4.70019 12.5429 4.70019C14.689 4.70019 16.4619 5.39712 17.67 6.71538C18.829 7.97942 19.3725 9.75865 19.2012 11.7265V11.7265Z" fill="#33495E"/>
</svg>
