<svg width="345" height="345" viewBox="0 0 345 345" fill="none" xmlns="http://www.w3.org/2000/svg">
<path d="M295.713 165.655L294.395 163.529C283.293 145.465 263.221 134.549 242.059 135.895C239.336 136.064 236.628 136.43 233.958 136.992C214.714 141.063 197.968 155.429 191.027 173.831C186.949 184.657 185.81 197.119 178.061 205.709C167.981 216.887 150.869 217.239 135.82 216.749C120.771 216.259 103.652 216.68 93.6192 227.906C87.3333 234.93 85.3392 244.929 85.8429 254.347C87.2229 279.27 104.777 301.557 127.139 312.631C149.502 323.706 175.847 324.699 200.328 319.828C234.621 313.004 267.258 294.257 286.833 265.318C306.408 236.379 311.397 196.905 295.713 165.655Z" fill="#EBEBEB"/>
<path d="M102.941 147.432C125.905 147.432 144.52 128.816 144.52 105.853C144.52 82.8892 125.905 64.2734 102.941 64.2734C79.9774 64.2734 61.3617 82.8892 61.3617 105.853C61.3617 128.816 79.9774 147.432 102.941 147.432Z" fill="#EBEBEB"/>
<path d="M182.677 41.042V60.7208C178.213 65.1023 162.081 81.3725 162.081 81.3725H182.677V96.863C182.679 99.4968 183.72 102.024 185.574 103.894C187.428 105.765 189.945 106.829 192.579 106.854L306.76 107.931C308.08 107.943 309.389 107.694 310.612 107.198C311.835 106.701 312.948 105.967 313.885 105.038C314.823 104.109 315.567 103.003 316.074 101.785C316.581 100.566 316.842 99.2593 316.841 97.9394V41.042C316.841 38.3921 315.788 35.8508 313.915 33.9771C312.041 32.1034 309.5 31.0508 306.85 31.0508H192.669C191.357 31.0508 190.057 31.3092 188.845 31.8113C187.633 32.3134 186.532 33.0494 185.604 33.9771C184.676 34.9049 183.94 36.0063 183.438 37.2185C182.936 38.4307 182.677 39.7299 182.677 41.042Z" fill="#FAFAFA"/>
<path d="M182.677 40.945C182.677 40.945 182.677 40.5655 182.719 39.8272C182.84 38.7328 183.138 37.6654 183.602 36.6669C183.939 35.9278 184.366 35.2326 184.872 34.5969C185.495 33.8394 186.22 33.1707 187.024 32.6097C187.972 31.9657 189.022 31.4874 190.129 31.1952C191.395 30.9016 192.696 30.7855 193.993 30.8502L240.389 30.7813H272.426H290.276H306.774C307.181 30.7813 307.595 30.7812 308.002 30.8502C308.414 30.8941 308.822 30.9656 309.223 31.0641C310.858 31.4541 312.37 32.2421 313.625 33.3581C314.881 34.4741 315.841 35.8834 316.42 37.4605C316.716 38.2568 316.913 39.0864 317.007 39.9306C317.062 40.7862 317.062 41.6212 317.055 42.4629C317.055 44.142 317.055 45.8279 317.055 47.5207V68.2275C317.055 75.2747 317.055 82.4392 317.055 89.7211V97.9803C317.04 98.9146 316.901 99.8427 316.641 100.74C316.102 102.567 315.059 104.205 313.633 105.467C312.93 106.11 312.135 106.643 311.273 107.047C310.412 107.464 309.497 107.757 308.554 107.916C307.661 108.048 306.758 108.094 305.856 108.054H303.2L297.901 107.999L287.413 107.903L266.885 107.702L227.962 107.323L192.565 106.971C191.168 106.954 189.789 106.65 188.514 106.078C187.239 105.506 186.096 104.678 185.155 103.645C183.33 101.628 182.373 98.9729 182.491 96.2553C182.491 91.0711 182.491 86.0871 182.491 81.3031L182.657 81.4687H162.06H161.722L161.964 81.2271L182.595 60.6031V60.6721C182.595 54.2826 182.629 49.363 182.636 46.0372C182.636 44.3812 182.636 43.1253 182.636 42.2697C182.636 41.4141 182.636 40.9932 182.636 40.9932C182.636 40.9932 182.636 41.421 182.636 42.2697C182.636 43.1184 182.636 44.3812 182.636 46.0372C182.636 49.363 182.636 54.2826 182.684 60.6721L162.122 81.3721L162.019 81.1306H182.615H182.85V81.2962C182.85 86.0756 182.85 91.0597 182.85 96.2485C182.736 98.8759 183.663 101.442 185.431 103.39C186.338 104.383 187.441 105.18 188.669 105.729C189.898 106.279 191.226 106.57 192.572 106.585L227.969 106.902L266.885 107.254L287.419 107.447L297.908 107.544L303.2 107.592H305.863C306.74 107.633 307.618 107.587 308.485 107.454C310.282 107.142 311.956 106.336 313.32 105.126C314.683 103.915 315.683 102.349 316.206 100.602C316.46 99.7368 316.594 98.8408 316.607 97.9389C316.607 97.0212 316.607 96.1036 316.607 95.1789V68.2275C316.607 61.1849 316.607 54.2711 316.607 47.4861C316.607 45.7887 316.607 44.1029 316.607 42.4285C316.607 41.5867 316.606 40.7517 316.551 39.9444C316.461 39.1343 316.276 38.3376 315.999 37.5708C315.443 36.0592 314.523 34.7082 313.319 33.6381C312.115 32.568 310.666 31.8118 309.099 31.4368C307.561 31.0297 305.946 31.1884 304.345 31.1539H272.398H240.361L193.993 31.0503C192.708 30.9777 191.419 31.0869 190.164 31.3747C189.072 31.6578 188.036 32.1244 187.1 32.7547C186.301 33.3016 185.581 33.9564 184.961 34.7005C184.454 35.3212 184.025 36.0027 183.685 36.729C183.063 38.0502 182.72 39.4854 182.677 40.945Z" fill="#263238"/>
<path d="M209.698 66.7245C209.698 61.2942 213.928 57.2715 219.696 57.2715C225.464 57.2715 229.701 61.2666 229.701 66.7245C229.701 72.1824 225.444 76.1775 219.696 76.1775C213.948 76.1775 209.698 72.1548 209.698 66.7245ZM225.416 66.7245C225.388 65.5998 225.028 64.5084 224.382 63.587C223.737 62.6656 222.834 61.955 221.786 61.5442C220.739 61.1334 219.594 61.0406 218.494 61.2774C217.394 61.5142 216.388 62.0701 215.603 62.8756C214.817 63.681 214.287 64.7002 214.078 65.8057C213.868 66.9111 213.99 68.0537 214.427 69.0905C214.864 70.1273 215.596 71.0123 216.534 71.6346C217.471 72.257 218.571 72.5891 219.696 72.5895C220.465 72.6095 221.23 72.4704 221.943 72.1808C222.655 71.8912 223.3 71.4575 223.837 70.9067C224.375 70.356 224.792 69.7002 225.064 68.9805C225.335 68.2608 225.455 67.4927 225.416 66.7245Z" fill="black"/>
<path d="M231.55 68.8367C231.55 64.607 234.814 61.6055 239.278 61.6055C243.742 61.6055 246.979 64.607 246.979 68.8367C246.979 73.0664 243.742 76.0403 239.278 76.0403C234.814 76.0403 231.55 73.0664 231.55 68.8367ZM242.852 68.8367C242.852 66.4148 241.314 64.952 239.278 64.952C237.243 64.952 235.669 66.4148 235.669 68.8367C235.669 71.2586 237.236 72.7283 239.278 72.7283C241.321 72.7283 242.88 71.2655 242.88 68.8367H242.852Z" fill="black"/>
<path d="M264.96 68.8369C264.96 73.2805 261.931 76.0405 257.991 76.0405C257.206 76.0795 256.422 75.9487 255.692 75.657C254.962 75.3652 254.303 74.9194 253.761 74.35V80.8981H249.69V61.8196H253.582V63.4342C254.13 62.8146 254.811 62.3278 255.575 62.011C256.339 61.6942 257.165 61.5556 257.991 61.6057C261.931 61.6057 264.96 64.4278 264.96 68.8369ZM260.82 68.8369C260.82 66.415 259.281 64.9522 257.246 64.9522C255.21 64.9522 253.672 66.415 253.672 68.8369C253.672 71.2588 255.21 72.7285 257.246 72.7285C259.281 72.7285 260.861 71.2657 260.861 68.8369H260.82Z" fill="black"/>
<path d="M266.34 74.5575L267.72 71.6319C269.195 72.5229 270.882 72.9997 272.605 73.0119C274.482 73.0119 275.186 72.5151 275.186 71.7354C275.186 69.4377 266.706 71.7837 266.706 66.174C266.706 63.5106 269.107 61.6269 273.206 61.6269C275.079 61.5933 276.933 62.0147 278.608 62.8551L277.228 65.7531C275.995 65.0578 274.601 64.6985 273.185 64.7112C271.356 64.7112 270.57 65.2839 270.57 66.0153C270.57 68.4165 279.057 66.0912 279.057 71.625C279.057 74.2401 276.628 76.0893 272.426 76.0893C270.298 76.1236 268.198 75.5952 266.34 74.5575Z" fill="black"/>
<path d="M280.961 73.6944C281.008 73.0623 281.292 72.4712 281.757 72.0399C282.221 71.6086 282.832 71.3689 283.466 71.3689C284.1 71.3689 284.71 71.6086 285.175 72.0399C285.639 72.4712 285.924 73.0623 285.97 73.6944C285.924 74.3266 285.639 74.9176 285.175 75.349C284.71 75.7803 284.1 76.02 283.466 76.02C282.832 76.02 282.221 75.7803 281.757 75.349C281.292 74.9176 281.008 74.3266 280.961 73.6944ZM281.037 57.5898H285.867L285.06 69.5199H281.824L281.037 57.5898Z" fill="black"/>
<path d="M115.168 38.0254L115.814 37.3837C117.626 35.5852 120.078 34.5801 122.631 34.5894C125.184 34.5988 127.628 35.6219 129.427 37.4336L131.259 39.2797C133.058 41.0915 134.063 43.5435 134.054 46.0963C134.044 48.6491 133.021 51.0937 131.21 52.8922L130.563 53.5338L115.168 38.0254Z" fill="#455A64"/>
<path d="M130.562 53.5423L115.154 38.0173L115.796 37.3756C116.689 36.4847 117.749 35.7786 118.915 35.2979C120.081 34.8172 121.331 34.5713 122.592 34.5742H122.627C123.893 34.5753 125.147 34.827 126.316 35.3149C127.485 35.8028 128.546 36.5173 129.437 37.417L131.273 39.2662C133.072 41.0834 134.077 43.5398 134.068 46.0969C134.059 48.654 133.036 51.1032 131.224 52.9075L130.562 53.5423ZM115.189 38.0104L130.562 53.494L131.197 52.8661C133.003 51.0703 134.024 48.6306 134.033 46.0831C134.042 43.5356 133.039 41.0887 131.245 39.28L129.41 37.4308C128.523 36.5325 127.467 35.8193 126.303 35.3324C125.138 34.8456 123.889 34.5949 122.627 34.5949H122.592C121.338 34.5876 120.095 34.8275 118.933 35.3011C117.772 35.7747 116.715 36.4726 115.823 37.3549L115.189 38.0104Z" fill="#263238"/>
<path d="M84.072 99.0977L83.4026 99.7153C81.5265 101.447 79.0395 102.362 76.4887 102.259C73.9379 102.157 71.5323 101.045 69.8011 99.169L68.037 97.2573C66.2995 95.3744 65.3812 92.8785 65.484 90.3186C65.5868 87.7587 66.7024 85.3444 68.5852 83.607L69.2292 83.0127L84.072 99.0977Z" fill="#455A64"/>
<path d="M76.8867 102.291H76.4865C75.221 102.243 73.9775 101.946 72.8276 101.415C71.6778 100.885 70.6442 100.132 69.7866 99.1999L68.0271 97.2886C66.2963 95.4073 65.3818 92.9166 65.484 90.3622C65.5862 87.8079 66.6967 85.3982 68.5722 83.6611L69.2622 83.0332L84.0903 99.1033L83.4003 99.7243C81.6316 101.372 79.3043 102.29 76.8867 102.291ZM68.6067 83.6611C67.6714 84.5169 66.9147 85.5492 66.38 86.6986C65.8453 87.8481 65.5433 89.0919 65.4914 90.3585C65.4394 91.6252 65.6386 92.8896 66.0773 94.079C66.5161 95.2683 67.1857 96.3591 68.0478 97.2886L69.8142 99.1999C70.6685 100.13 71.6987 100.881 72.8451 101.411C73.9916 101.94 75.2315 102.237 76.4934 102.284H76.8867C79.2995 102.289 81.6244 101.379 83.3934 99.7381L84.0834 99.1309L69.2898 83.0953L68.6067 83.6611Z" fill="#263238"/>
<path d="M60.1492 63.7609L59.0662 65.1035L70.178 74.0664L71.261 72.7238L60.1492 63.7609Z" fill="#455A64"/>
<path d="M60.8718 60.9256C61.4138 61.3623 61.8141 61.95 62.0221 62.6142C62.2301 63.2785 62.2365 63.9895 62.0403 64.6573C61.8442 65.3252 61.4545 65.9198 60.9203 66.3661C60.3862 66.8125 59.7317 67.0903 59.0397 67.1647C58.3476 67.239 57.649 67.1064 57.0323 66.7837C56.4156 66.461 55.9085 65.9626 55.575 65.3516C55.2416 64.7407 55.0968 64.0445 55.159 63.3513C55.2212 62.658 55.4876 61.9988 55.9245 61.4569C56.5123 60.7337 57.3621 60.2721 58.2888 60.1726C59.2154 60.073 60.1438 60.3437 60.8718 60.9256Z" fill="#263238"/>
<path d="M102.937 40.35L70.5349 72.5266C66.0733 76.9571 66.0481 84.1657 70.4787 88.6273L90.8212 109.112C95.2517 113.574 102.46 113.599 106.922 109.169L139.324 76.992C143.785 72.5614 143.811 65.3529 139.38 60.8912L119.038 40.4062C114.607 35.9446 107.398 35.9194 102.937 40.35Z" fill="#78B7FA"/>
<path d="M103.845 39.453L102.32 33.6363L98.3526 34.2918L97.2072 30.0897L98.5044 29.793L99.4083 32.8497L103.369 32.3115L105.025 38.28L103.845 39.453Z" fill="#455A64"/>
<path d="M106.174 48.0008L78.164 75.8162C74.3892 79.5647 74.3679 85.6636 78.1164 89.4384L79.4048 90.7358C83.1534 94.5106 89.2522 94.5319 93.027 90.7834L121.037 62.968C124.812 59.2195 124.833 53.1206 121.085 49.3458L119.796 48.0484C116.048 44.2736 109.949 44.2523 106.174 48.0008Z" fill="#263238"/>
<path d="M122.585 65.5485C122.585 65.5485 122.668 65.4381 122.841 65.238C123.111 64.9471 123.365 64.6407 123.6 64.3203C124.533 63.1158 125.22 61.7396 125.621 60.27C125.911 59.2127 126.066 58.1231 126.084 57.027C126.073 55.7241 125.864 54.4304 125.463 53.1906C124.997 51.7671 124.267 50.4443 123.31 49.2921L122.496 48.3951L121.613 47.5119C121.019 46.8883 120.383 46.3073 119.708 45.7731C118.244 44.6363 116.541 43.8481 114.726 43.4685C112.759 43.1028 110.732 43.2212 108.82 43.8135C107.819 44.1297 106.863 44.575 105.977 45.1383C105.071 45.7346 104.233 46.4288 103.479 47.2083L98.6148 52.0383L76.9281 73.587C75.0359 75.4651 73.8222 77.9192 73.4781 80.5629C73.319 81.8473 73.3609 83.1486 73.6023 84.42C73.9883 86.2847 74.8008 88.0347 75.9759 89.5329C76.383 90.009 76.7832 90.4713 77.2386 90.9129C78.0694 91.8241 78.9791 92.66 79.9572 93.4107C81.8466 94.7765 84.0937 95.5608 86.4226 95.6674C88.7515 95.7741 91.0609 95.1984 93.0672 94.011C93.5465 93.7352 94.0075 93.4286 94.4472 93.0933C94.8612 92.7414 95.2683 92.4033 95.6478 92.01L97.9179 89.7675L106.198 81.591L118.183 69.7713L121.44 66.618L122.296 65.79C122.489 65.6106 122.599 65.5209 122.599 65.5209C122.599 65.5209 122.51 65.6244 122.323 65.8176L121.488 66.6732L118.266 69.9162L106.357 81.8187L98.1249 90.0297L95.8686 92.2791C95.4822 92.6586 95.0613 93.0243 94.6473 93.3831C94.2072 93.7284 93.7463 94.0464 93.2673 94.3353C91.2079 95.5572 88.8368 96.1519 86.4445 96.0465C84.0521 95.9411 81.7425 95.1402 79.7985 93.7419C78.8093 92.9766 77.886 92.1295 77.0385 91.2096C76.59 90.7749 76.1691 90.285 75.7482 89.8296C75.3533 89.3189 74.9936 88.7817 74.6718 88.2219C74.0179 87.0852 73.5519 85.8503 73.2918 84.5649C73.041 83.2551 72.9968 81.9141 73.1607 80.5905C73.5053 77.873 74.746 75.3479 76.6866 73.4145L98.394 51.8796L103.272 47.0496C104.043 46.2524 104.899 45.5421 105.825 44.9313C107.948 43.5794 110.437 42.9155 112.951 43.0303C115.465 43.1452 117.883 44.0331 119.874 45.573C120.557 46.1175 121.2 46.7101 121.799 47.3463L122.675 48.2364L123.51 49.1127C124.472 50.3041 125.2 51.6666 125.656 53.1285C126.058 54.3885 126.259 55.7044 126.249 57.027C126.224 58.138 126.059 59.2414 125.759 60.3114C125.344 61.7872 124.64 63.166 123.689 64.3686C123.446 64.6833 123.181 64.9807 122.896 65.2587L122.585 65.5485Z" fill="#263238"/>
<path d="M86.7744 87.2364C86.5656 85.1733 86.4758 83.0999 86.5053 81.0264C86.4143 78.9563 86.4466 76.8827 86.6019 74.8164C86.8055 76.8799 86.893 78.9531 86.8641 81.0264C86.9515 83.0964 86.9216 85.1698 86.7744 87.2364Z" fill="white"/>
<path d="M92.7843 80.5365C90.7255 80.8153 88.6517 80.9697 86.5743 80.9988C84.5078 81.1481 82.4346 81.1827 80.3643 81.1023C82.4232 80.8239 84.4969 80.6696 86.5743 80.64C88.6408 80.4904 90.714 80.4558 92.7843 80.5365Z" fill="white"/>
<path d="M111.366 62.1759C111.158 60.1127 111.068 58.0393 111.097 55.9659C111.005 53.8958 111.038 51.8221 111.194 49.7559C111.397 51.8193 111.485 53.8926 111.456 55.9659C111.543 58.0359 111.513 60.1092 111.366 62.1759Z" fill="white"/>
<path d="M117.376 55.4749C115.316 55.7455 113.243 55.8998 111.166 55.9372C109.1 56.0906 107.026 56.1229 104.956 56.0338C107.016 55.7641 109.089 55.612 111.166 55.5784C113.232 55.4246 115.306 55.3901 117.376 55.4749Z" fill="white"/>
<path d="M97.0991 31.0977C99.0423 31.0675 100.593 29.4677 100.563 27.5245C100.533 25.5812 98.933 24.0304 96.9898 24.0606C95.0465 24.0908 93.4956 25.6906 93.5258 27.6338C93.556 29.5771 95.1558 31.1279 97.0991 31.0977Z" fill="#263238"/>
<path d="M107.992 108.109C107.771 107.965 107.568 107.796 107.385 107.606C107.005 107.268 106.474 106.764 105.818 106.143C104.514 104.901 102.72 103.155 100.768 101.216C98.8149 99.2775 97.0554 97.5042 95.7996 96.2001C95.0849 95.5321 94.4357 94.7973 93.8607 94.0059C94.0629 94.1729 94.2564 94.3502 94.4403 94.5372L95.979 96.0207C97.359 97.3386 99.084 99.0636 101.016 100.961C102.948 102.859 104.735 104.673 105.998 105.964L107.481 107.509C107.675 107.688 107.847 107.889 107.992 108.109Z" fill="#263238"/>
<path d="M137.876 78.003C137.654 77.8599 137.45 77.6908 137.269 77.4993C136.896 77.1611 136.365 76.6643 135.709 76.0433C134.398 74.7944 132.611 73.0556 130.652 71.1167C128.692 69.1778 126.939 67.3976 125.69 66.0935C124.977 65.4268 124.328 64.6944 123.752 63.9062C123.957 64.0668 124.151 64.242 124.331 64.4306L125.87 65.9141L130.907 70.8614C132.866 72.8003 134.626 74.5668 135.889 75.8571L137.372 77.4027C137.566 77.5793 137.736 77.7812 137.876 78.003Z" fill="#263238"/>
<path d="M123.596 68.2078L98.3569 93.8555L101.17 96.6238L126.409 70.9761L123.596 68.2078Z" fill="#263238"/>
<path d="M94.944 98.5445C94.9392 98.6965 94.8889 98.8435 94.7996 98.9665C94.7103 99.0896 94.5862 99.183 94.4432 99.2346C94.3002 99.2862 94.145 99.2937 93.9977 99.2561C93.8504 99.2185 93.7177 99.1376 93.617 99.0237C93.5162 98.9099 93.452 98.7684 93.4326 98.6176C93.4132 98.4668 93.4395 98.3137 93.5082 98.178C93.5768 98.0424 93.6846 97.9305 93.8176 97.8568C93.9506 97.7831 94.1026 97.7511 94.254 97.7648C94.4474 97.7807 94.6272 97.8707 94.7557 98.016C94.8843 98.1613 94.9518 98.3507 94.944 98.5445Z" fill="#263238"/>
<path d="M100.699 104.623C100.675 104.812 100.581 104.984 100.435 105.107C100.29 105.229 100.104 105.293 99.9146 105.285C99.7247 105.278 99.5447 105.199 99.4101 105.065C99.2755 104.931 99.1961 104.751 99.1875 104.561C99.2116 104.373 99.3055 104.2 99.4507 104.078C99.5958 103.955 99.7817 103.891 99.9715 103.899C100.161 103.907 100.341 103.986 100.476 104.12C100.611 104.254 100.69 104.433 100.699 104.623Z" fill="#263238"/>
<path d="M128.768 64.1065C128.75 64.3005 128.659 64.4803 128.512 64.6087C128.366 64.7372 128.176 64.8044 127.981 64.7965C127.876 64.8013 127.771 64.7841 127.673 64.7462C127.575 64.7082 127.486 64.6503 127.411 64.5761C127.337 64.5018 127.279 64.4129 127.24 64.315C127.202 64.2171 127.184 64.1122 127.189 64.0071C127.193 63.902 127.219 63.799 127.265 63.7045C127.312 63.6101 127.377 63.5263 127.457 63.4584C127.538 63.3905 127.631 63.3401 127.732 63.3103C127.833 63.2806 127.939 63.2721 128.043 63.2854C128.146 63.2877 128.247 63.3113 128.341 63.3547C128.434 63.3981 128.517 63.4603 128.585 63.5374C128.653 63.6145 128.705 63.7049 128.736 63.8029C128.768 63.9008 128.778 64.0042 128.768 64.1065Z" fill="#263238"/>
<path d="M134.55 70.1861C134.546 70.2849 134.522 70.3819 134.481 70.4716C134.439 70.5613 134.38 70.6419 134.308 70.7089C134.235 70.7758 134.15 70.8278 134.057 70.8618C133.964 70.8959 133.866 70.9113 133.767 70.9072C133.668 70.9031 133.571 70.8796 133.481 70.8381C133.392 70.7965 133.311 70.7377 133.244 70.665C133.177 70.5922 133.125 70.507 133.091 70.4142C133.057 70.3214 133.042 70.2228 133.046 70.124C133.05 70.0253 133.073 69.9283 133.115 69.8386C133.156 69.7489 133.215 69.6683 133.288 69.6013C133.361 69.5344 133.446 69.4824 133.539 69.4484C133.632 69.4143 133.73 69.3989 133.829 69.403C133.928 69.4071 134.025 69.4306 134.114 69.4721C134.204 69.5137 134.285 69.5725 134.352 69.6452C134.419 69.718 134.471 69.8031 134.505 69.896C134.539 69.9888 134.554 70.0874 134.55 70.1861Z" fill="#263238"/>
<path d="M72.7605 99.36C72.2565 98.8586 71.7243 98.3864 71.1666 97.9455C70.6491 97.5384 69.9936 97.0968 69.3243 96.5034C68.5892 95.8626 67.9928 95.0784 67.5717 94.1988C66.806 92.5911 66.6136 90.7697 67.0266 89.0376C67.1502 88.5207 67.3404 88.022 67.5924 87.5541C67.7856 87.2298 67.896 87.0573 67.9167 87.0711C67.6578 87.7299 67.4434 88.4053 67.275 89.0928C66.947 90.7658 67.1647 92.5 67.896 94.0401C68.724 95.8755 70.3317 96.8829 71.346 97.7454C71.9327 98.1707 72.4161 98.7225 72.7605 99.36Z" fill="white"/>
<path d="M102.755 43.8345C102.824 43.9035 95.5719 51.0657 86.5605 59.8218C77.5491 68.5779 70.173 75.6297 70.104 75.5607C70.035 75.4917 77.28 68.3088 86.3052 59.5665C95.3304 50.8242 102.686 43.7655 102.755 43.8345Z" fill="white"/>
<path d="M57.9048 66.1492C57.9048 66.1906 57.546 66.1492 57.0837 65.8387C56.4688 65.4301 56.0379 64.7972 55.8832 64.0753C55.7285 63.3533 55.8622 62.5995 56.2557 61.9747C56.5593 61.4986 56.8629 61.3192 56.8905 61.3537C56.9181 61.3882 56.6973 61.6366 56.4834 62.092C56.1991 62.6839 56.1121 63.3514 56.235 63.9964C56.391 64.6424 56.7546 65.2193 57.27 65.6386C57.6219 65.9698 57.96 66.094 57.9048 66.1492Z" fill="white"/>
<path d="M96.2274 30.1456C96.2274 30.187 95.8341 30.1456 95.3442 29.7937C95.0277 29.5643 94.7614 29.2727 94.5617 28.9367C94.3619 28.6007 94.2329 28.2274 94.1825 27.8398C94.1321 27.4521 94.1614 27.0583 94.2686 26.6824C94.3758 26.3065 94.5587 25.9565 94.806 25.6537C95.1924 25.1914 95.5512 25.0465 95.5719 25.081C95.5926 25.1155 95.3166 25.3432 95.013 25.771C94.6069 26.357 94.4323 27.0727 94.5227 27.7798C94.6132 28.487 94.9624 29.1356 95.5029 29.6005C95.91 29.9593 96.2481 30.0904 96.2274 30.1456Z" fill="white"/>
<path d="M122.351 35.6788C121.387 35.8061 120.438 36.0232 119.515 36.3274C118.637 36.74 117.799 37.232 117.01 37.7971C117.572 36.9467 118.403 36.31 119.37 35.9893C120.301 35.5571 121.35 35.4479 122.351 35.6788Z" fill="white"/>
<path d="M93.7089 109.336C91.9061 107.734 90.1857 106.041 88.5546 104.265C85.7946 101.394 83.5935 99.0139 83.6694 98.9449C83.7453 98.8759 86.043 101.146 88.8168 104.016C91.5906 106.887 93.7779 109.267 93.7089 109.336Z" fill="white"/>
<path d="M173.349 275.047H143.824V316.895H173.349V275.047Z" fill="#78B7FA"/>
<path d="M144.051 316.178H173.128C174.171 316.178 175.171 316.592 175.909 317.33C176.647 318.067 177.061 319.068 177.061 320.111V320.483H140.111V320.111C140.111 319.594 140.213 319.082 140.411 318.604C140.61 318.126 140.9 317.693 141.266 317.327C141.632 316.962 142.066 316.672 142.544 316.475C143.022 316.278 143.534 316.177 144.051 316.178Z" fill="#263238"/>
<path d="M181.587 320.484H136.744V327.302H181.587V320.484Z" fill="#78B7FA"/>
<path d="M173.19 312.3C173.19 312.397 166.649 312.48 158.576 312.48C150.503 312.48 143.955 312.397 143.955 312.3C143.955 312.204 150.496 312.121 158.576 312.121C166.656 312.121 173.19 312.197 173.19 312.3Z" fill="#263238"/>
<path d="M173.19 307.318C173.19 307.422 166.649 307.497 158.576 307.497C150.503 307.497 143.955 307.422 143.955 307.318C143.955 307.215 150.496 307.139 158.576 307.139C166.656 307.139 173.19 307.221 173.19 307.318Z" fill="#263238"/>
<path d="M173.19 302.433C173.19 302.53 166.649 302.613 158.576 302.613C150.503 302.613 143.955 302.53 143.955 302.433C143.955 302.337 150.496 302.254 158.576 302.254C166.656 302.254 173.19 302.337 173.19 302.433Z" fill="#263238"/>
<path d="M173.19 297.459C173.19 297.555 166.649 297.638 158.576 297.638C150.503 297.638 143.955 297.555 143.955 297.459C143.955 297.362 150.496 297.279 158.576 297.279C166.656 297.279 173.19 297.39 173.19 297.459Z" fill="#263238"/>
<path d="M173.19 292.56C173.19 292.664 166.649 292.74 158.576 292.74C150.503 292.74 143.955 292.664 143.955 292.56C143.955 292.457 150.496 292.381 158.576 292.381C166.656 292.381 173.19 292.471 173.19 292.56Z" fill="#263238"/>
<path d="M173.19 287.591C173.19 287.695 166.649 287.771 158.576 287.771C150.503 287.771 143.955 287.695 143.955 287.591C143.955 287.488 150.496 287.412 158.576 287.412C166.656 287.412 173.19 287.495 173.19 287.591Z" fill="#263238"/>
<path d="M173.19 282.707C173.19 282.803 166.649 282.886 158.576 282.886C150.503 282.886 143.955 282.803 143.955 282.707C143.955 282.61 150.496 282.527 158.576 282.527C166.656 282.527 173.19 282.603 173.19 282.707Z" fill="#263238"/>
<path d="M173.19 277.732C173.19 277.829 166.649 277.912 158.576 277.912C150.503 277.912 143.955 277.829 143.955 277.732C143.955 277.636 150.496 277.553 158.576 277.553C166.656 277.553 173.19 277.629 173.19 277.732Z" fill="#263238"/>
<g opacity="0.3">
<path opacity="0.3" d="M143.824 280.877L173.204 280.063V275.799H143.561L143.824 280.877Z" fill="black"/>
</g>
<path d="M219.593 275.047H190.067V316.895H219.593V275.047Z" fill="#78B7FA"/>
<path d="M190.295 316.178H219.372C220.415 316.178 221.415 316.592 222.153 317.33C222.89 318.067 223.305 319.068 223.305 320.111V320.483H186.355V320.111C186.355 319.594 186.457 319.082 186.655 318.604C186.853 318.126 187.144 317.693 187.51 317.327C187.876 316.962 188.31 316.672 188.788 316.475C189.266 316.278 189.778 316.177 190.295 316.178Z" fill="#263238"/>
<path d="M227.831 320.484H182.988V327.302H227.831V320.484Z" fill="#78B7FA"/>
<path d="M219.42 312.3C219.42 312.397 212.879 312.48 204.806 312.48C196.733 312.48 190.185 312.397 190.185 312.3C190.185 312.204 196.726 312.121 204.806 312.121C212.886 312.121 219.42 312.197 219.42 312.3Z" fill="#263238"/>
<path d="M219.42 307.318C219.42 307.422 212.879 307.497 204.806 307.497C196.733 307.497 190.185 307.422 190.185 307.318C190.185 307.215 196.726 307.139 204.806 307.139C212.886 307.139 219.42 307.221 219.42 307.318Z" fill="#263238"/>
<path d="M219.42 302.433C219.42 302.53 212.879 302.613 204.806 302.613C196.733 302.613 190.185 302.53 190.185 302.433C190.185 302.337 196.726 302.254 204.806 302.254C212.886 302.254 219.42 302.337 219.42 302.433Z" fill="#263238"/>
<path d="M219.42 297.459C219.42 297.555 212.879 297.638 204.806 297.638C196.733 297.638 190.185 297.555 190.185 297.459C190.185 297.362 196.726 297.279 204.806 297.279C212.886 297.279 219.42 297.39 219.42 297.459Z" fill="#263238"/>
<path d="M219.42 292.56C219.42 292.664 212.879 292.74 204.806 292.74C196.733 292.74 190.185 292.664 190.185 292.56C190.185 292.457 196.726 292.381 204.806 292.381C212.886 292.381 219.42 292.471 219.42 292.56Z" fill="#263238"/>
<path d="M219.42 287.591C219.42 287.695 212.879 287.771 204.806 287.771C196.733 287.771 190.185 287.695 190.185 287.591C190.185 287.488 196.726 287.412 204.806 287.412C212.886 287.412 219.42 287.495 219.42 287.591Z" fill="#263238"/>
<path d="M219.42 282.707C219.42 282.803 212.879 282.886 204.806 282.886C196.733 282.886 190.185 282.803 190.185 282.707C190.185 282.61 196.726 282.527 204.806 282.527C212.886 282.527 219.42 282.603 219.42 282.707Z" fill="#263238"/>
<path d="M219.42 277.732C219.42 277.829 212.879 277.912 204.806 277.912C196.733 277.912 190.185 277.829 190.185 277.732C190.185 277.636 196.726 277.553 204.806 277.553C212.886 277.553 219.42 277.629 219.42 277.732Z" fill="#263238"/>
<g opacity="0.3">
<path opacity="0.3" d="M190.067 280.877L219.448 280.063V275.799H189.805L190.067 280.877Z" fill="black"/>
</g>
<path d="M221.035 160.848L221.765 157.958C221.847 157.633 222.055 157.355 222.342 157.183C222.63 157.011 222.974 156.961 223.298 157.043L235.126 160.029L233.775 165.381L221.954 162.397C221.629 162.315 221.35 162.107 221.179 161.82C221.007 161.532 220.957 161.188 221.039 160.863L221.035 160.848Z" fill="#78B7FA"/>
<g opacity="0.3">
<path opacity="0.3" d="M221.035 160.848L221.765 157.958C221.847 157.633 222.055 157.355 222.342 157.183C222.63 157.011 222.974 156.961 223.298 157.043L235.126 160.029L233.775 165.381L221.954 162.397C221.629 162.315 221.35 162.107 221.179 161.82C221.007 161.532 220.957 161.188 221.039 160.863L221.035 160.848Z" fill="black"/>
</g>
<path d="M218.46 171.08L219.463 167.106C219.598 166.574 219.938 166.116 220.41 165.835C220.881 165.554 221.445 165.471 221.977 165.606L232.996 168.388L230.969 176.416L219.977 173.64C219.707 173.576 219.452 173.458 219.229 173.293C219.005 173.129 218.817 172.921 218.676 172.682C218.534 172.443 218.442 172.178 218.405 171.903C218.368 171.627 218.387 171.348 218.46 171.08Z" fill="#78B7FA"/>
<path d="M229.983 158.728L226.539 172.369L231.69 173.67L235.134 160.029L229.983 158.728Z" fill="#78B7FA"/>
<path d="M238.519 214.189C238.519 214.189 260.565 213.292 258.743 192.164C257.363 175.984 233.275 175.839 233.275 175.839L239.43 162.391C239.43 162.391 267.554 164.84 273.109 185.319C279.381 208.462 264.877 227.333 238.519 226.892V214.189Z" fill="#78B7FA"/>
<path d="M241.235 160.491L232.853 158.639L228.733 177.288L237.114 179.14L241.235 160.491Z" fill="#263238"/>
<path d="M237.47 177.177C237.47 177.336 235.566 177.011 233.296 176.487C231.907 176.228 230.542 175.849 229.218 175.355C230.617 175.503 232.001 175.764 233.358 176.135C234.497 176.397 235.525 176.646 236.263 176.825L237.139 177.06C237.254 177.085 237.365 177.125 237.47 177.177Z" fill="#455A64"/>
<path d="M238.209 173.818C238.209 173.976 236.311 173.652 234.034 173.128C232.646 172.873 231.284 172.494 229.963 171.996C231.362 172.145 232.746 172.406 234.103 172.776C235.242 173.038 236.263 173.286 237.008 173.466L237.878 173.7C237.993 173.723 238.105 173.762 238.209 173.818Z" fill="#455A64"/>
<path d="M239.099 170.429C239.099 170.595 237.194 170.27 234.959 169.739C233.569 169.48 232.205 169.101 230.881 168.607C232.28 168.756 233.664 169.017 235.021 169.387C236.153 169.642 237.181 169.891 237.919 170.077L238.795 170.305L239.099 170.429Z" fill="#455A64"/>
<path d="M239.692 167.103C239.692 167.262 237.795 166.937 235.552 166.413C234.162 166.158 232.797 165.779 231.474 165.281C232.873 165.43 234.257 165.69 235.614 166.061C236.753 166.323 237.774 166.572 238.519 166.751L239.389 166.986C239.495 167.01 239.597 167.05 239.692 167.103Z" fill="#455A64"/>
<path d="M240.555 163.956C240.555 164.122 238.657 163.798 236.415 163.266C235.025 163.007 233.661 162.629 232.337 162.135C233.735 162.283 235.12 162.544 236.477 162.914C237.615 163.17 238.643 163.418 239.382 163.604L240.258 163.832C240.359 163.867 240.459 163.909 240.555 163.956Z" fill="#455A64"/>
<path d="M243.335 226.755C243.126 226.15 242.975 225.526 242.887 224.892C242.666 223.733 242.404 222.132 242.197 220.331C241.99 218.53 241.886 216.881 241.845 215.729C241.78 215.091 241.78 214.448 241.845 213.811C241.983 214.434 242.062 215.07 242.08 215.708C242.183 216.881 242.328 218.503 242.535 220.29C242.742 222.077 242.956 223.684 243.115 224.851C243.245 225.478 243.318 226.115 243.335 226.755Z" fill="#263238"/>
<path d="M250.187 225.685C249.401 223.528 248.73 221.331 248.179 219.102C247.508 216.904 246.953 214.672 246.516 212.416C247.299 214.576 247.97 216.776 248.524 219.006C249.192 221.202 249.747 223.431 250.187 225.685Z" fill="#263238"/>
<path d="M259.399 222.386C258.955 221.81 258.56 221.199 258.219 220.557C257.474 219.315 256.556 217.797 255.535 216.058L252.83 211.573C252.427 210.969 252.072 210.335 251.767 209.676C252.245 210.223 252.672 210.812 253.044 211.435C253.789 212.553 254.789 214.119 255.804 215.872C256.818 217.625 257.77 219.246 258.405 220.433C258.791 221.055 259.123 221.708 259.399 222.386Z" fill="#263238"/>
<path d="M267.147 216.177C267.078 216.253 264.339 214.107 261.02 211.347C257.701 208.587 255.058 206.297 255.121 206.221C255.183 206.145 257.929 208.291 261.248 211.051C264.567 213.811 267.209 216.095 267.147 216.177Z" fill="#263238"/>
<path d="M272.136 207.689C272.095 207.785 268.852 206.516 264.884 204.867C260.917 203.218 257.736 201.803 257.777 201.713C257.819 201.624 261.062 202.886 265.022 204.536C268.983 206.185 272.171 207.565 272.136 207.689Z" fill="#263238"/>
<path d="M274.579 198.464C273.799 198.445 273.022 198.371 272.253 198.243L266.678 197.553L261.096 196.863C260.32 196.809 259.549 196.691 258.791 196.511C259.57 196.48 260.35 196.513 261.124 196.608C262.559 196.718 264.539 196.912 266.72 197.181C268.9 197.45 270.86 197.733 272.295 197.974C273.068 198.073 273.833 198.237 274.579 198.464Z" fill="#263238"/>
<path d="M273.44 188.928C272.772 189.22 272.08 189.451 271.37 189.618C270.066 189.997 268.244 190.466 266.216 190.894C264.187 191.322 262.331 191.626 260.986 191.805C260.264 191.934 259.532 191.997 258.798 191.991C259.505 191.794 260.224 191.646 260.951 191.55C262.283 191.308 264.118 190.97 266.14 190.542C268.162 190.115 269.983 189.687 271.301 189.369C272.003 189.171 272.717 189.024 273.44 188.928Z" fill="#263238"/>
<path d="M270.666 179.779C270.708 179.869 267.755 181.449 264.063 183.312C260.372 185.175 257.342 186.61 257.294 186.52C257.246 186.43 260.206 184.85 263.897 182.987C267.589 181.124 270.618 179.696 270.666 179.779Z" fill="#263238"/>
<path d="M264.96 172.361C265.022 172.437 262.566 174.659 259.44 177.329C256.314 180 253.782 182.097 253.72 182.021C253.658 181.945 256.107 179.724 259.24 177.053C262.372 174.383 264.919 172.285 264.96 172.361Z" fill="#263238"/>
<path d="M255.39 166.855C255.473 166.904 253.92 169.615 251.94 172.948C250.784 174.984 249.521 176.958 248.158 178.861C248.076 178.813 249.628 176.101 251.609 172.762C252.768 170.73 254.03 168.759 255.39 166.855Z" fill="#263238"/>
<path d="M246.799 163.406C246.224 165.707 245.533 167.978 244.729 170.21C243.501 173.936 242.425 176.93 242.335 176.903C242.905 174.598 243.596 172.325 244.405 170.092C245.087 167.824 245.887 165.592 246.799 163.406Z" fill="#263238"/>
<g opacity="0.3">
<path opacity="0.3" d="M257.149 202.983C255.514 206.557 252.69 209.454 249.159 211.18C247.443 212.09 245.628 212.799 243.749 213.292C247.965 215.541 253.471 214.196 257.156 211.153C260.841 208.11 262.787 203.28 262.918 198.498C263.027 196.228 262.619 193.963 261.724 191.874C260.785 189.804 259.233 187.651 257.184 186.699C257.792 187.835 258.225 189.056 258.467 190.322C259.337 194.577 258.877 198.998 257.149 202.983Z" fill="black"/>
</g>
<path d="M95.1027 240.201C95.3545 240.436 95.5854 240.692 95.7927 240.967C96.2205 241.471 96.8001 242.223 97.4901 243.182C99.2588 245.691 100.786 248.362 102.051 251.158C103.318 253.96 104.309 256.879 105.011 259.873C105.28 261.018 105.46 261.943 105.556 262.633C105.623 262.97 105.662 263.311 105.674 263.654C105.556 263.332 105.47 263 105.418 262.661C105.28 262.019 105.059 261.094 104.77 259.963C103.99 257.008 102.972 254.121 101.727 251.331C100.469 248.546 98.9848 245.869 97.29 243.327C96.6345 242.354 96.0894 241.581 95.6961 241.05C95.4707 240.787 95.2719 240.503 95.1027 240.201Z" fill="#263238"/>
<path d="M92.1702 237.76C92.2392 237.684 92.5635 237.863 92.9016 238.167C93.2397 238.47 93.4536 238.767 93.3915 238.857C93.3294 238.946 92.9982 238.753 92.6601 238.45C92.322 238.146 92.1081 237.829 92.1702 237.76Z" fill="#263238"/>
<path d="M92.8464 235.73C92.9292 235.682 93.2673 236.089 93.6054 236.655C93.9435 237.221 94.1436 237.711 94.0608 237.759C93.978 237.807 93.633 237.4 93.2949 236.834C92.9568 236.269 92.7567 235.779 92.8464 235.73Z" fill="#263238"/>
<path d="M105.611 264.076C105.632 263.89 105.666 263.705 105.715 263.524C105.812 263.133 105.936 262.609 106.088 261.951C106.412 260.571 106.874 258.612 107.405 256.162C108.468 251.263 109.758 244.432 110.704 236.842C111.214 233.061 111.394 229.39 112.277 226.154C112.679 224.621 113.302 223.154 114.126 221.8C115.97 218.917 118.875 216.877 122.213 216.121C122.739 215.999 123.275 215.918 123.814 215.88C124.002 215.863 124.191 215.863 124.379 215.88C124.195 215.92 124.008 215.948 123.821 215.963C123.289 216.035 122.761 216.137 122.24 216.266C120.332 216.761 118.556 217.671 117.038 218.93C115.997 219.795 115.101 220.82 114.381 221.966C113.58 223.302 112.978 224.748 112.594 226.257C111.739 229.445 111.566 233.109 111.062 236.904C110.11 244.494 108.779 251.318 107.654 256.224C107.088 258.674 106.584 260.64 106.226 261.993C106.042 262.641 105.897 263.159 105.791 263.545C105.746 263.727 105.686 263.905 105.611 264.076Z" fill="#455A64"/>
<path d="M106.432 209.359C106.895 210.294 107.487 211.158 108.192 211.926C109.992 213.695 112.32 214.829 114.823 215.155C117.336 215.43 119.876 215.323 122.358 214.838L124.628 214.438C124.904 214.375 125.186 214.338 125.47 214.327C125.209 214.442 124.936 214.525 124.655 214.576C124.124 214.707 123.358 214.893 122.399 215.086C119.911 215.652 117.345 215.794 114.809 215.507C112.229 215.178 109.84 213.975 108.04 212.099C107.509 211.525 107.071 210.87 106.743 210.16C106.598 209.911 106.494 209.641 106.432 209.359Z" fill="#263238"/>
<path d="M103.811 207.179C103.88 207.11 104.211 207.324 104.542 207.662C104.873 208 105.094 208.352 105.025 208.393C104.956 208.435 104.625 208.248 104.294 207.917C103.962 207.586 103.742 207.248 103.811 207.179Z" fill="#263238"/>
<path d="M104.59 205.978C104.68 205.923 104.99 206.275 105.28 206.758C105.57 207.241 105.756 207.683 105.667 207.731C105.577 207.779 105.273 207.434 104.977 206.951C104.68 206.468 104.507 206.027 104.59 205.978Z" fill="#263238"/>
<path d="M106.75 205.819C106.853 205.819 106.867 206.24 106.791 206.73C106.715 207.219 106.57 207.592 106.474 207.578C106.377 207.564 106.357 207.157 106.432 206.667C106.508 206.178 106.653 205.805 106.75 205.819Z" fill="#263238"/>
<path d="M113.25 232.764C113.267 233.174 113.248 233.585 113.195 233.992C113.132 234.785 113.015 235.924 112.85 237.325C112.525 240.14 111.953 244.004 111.09 248.234C110.228 252.463 109.234 256.251 108.44 258.97C108.04 260.35 107.695 261.419 107.447 262.165C107.331 262.558 107.189 262.943 107.019 263.317C107.089 262.913 107.186 262.514 107.309 262.123C107.537 261.309 107.833 260.219 108.192 258.901C108.923 256.141 109.876 252.387 110.738 248.164C111.601 243.942 112.208 240.091 112.601 237.297C112.787 235.917 112.939 234.82 113.05 233.978C113.092 233.57 113.159 233.164 113.25 232.764Z" fill="#455A64"/>
<path d="M125.483 216.79C125.483 216.859 124.497 216.866 122.972 217.266C120.982 217.781 119.151 218.78 117.641 220.174C116.132 221.568 114.99 223.314 114.319 225.257C113.795 226.74 113.712 227.734 113.629 227.72C113.588 227.492 113.588 227.258 113.629 227.03C113.706 226.403 113.84 225.784 114.029 225.181C114.653 223.164 115.798 221.348 117.349 219.915C118.9 218.483 120.801 217.486 122.861 217.025C123.478 216.884 124.106 216.799 124.738 216.77C124.986 216.738 125.238 216.745 125.483 216.79Z" fill="#455A64"/>
<path d="M108.882 263.932C108.87 263.759 108.87 263.586 108.882 263.414C108.882 263.076 108.965 262.572 109.055 261.931C109.245 260.098 109.801 258.322 110.69 256.707C111.269 255.693 112.07 254.699 112.718 253.526C113.045 252.926 113.278 252.279 113.408 251.608C113.528 250.887 113.546 250.154 113.464 249.428C113.353 247.931 112.919 246.316 113.257 244.598C113.447 243.746 113.824 242.947 114.361 242.259C114.864 241.569 115.451 240.879 115.913 240.189C116.391 239.495 116.66 238.678 116.686 237.836C116.676 237.004 116.565 236.177 116.355 235.373C115.953 233.796 115.817 232.164 115.955 230.543C116.152 228.252 116.921 226.048 118.192 224.133C119.463 222.217 121.194 220.651 123.227 219.578C123.674 219.347 124.135 219.145 124.607 218.971C124.768 218.904 124.934 218.851 125.104 218.812C124.955 218.901 124.798 218.975 124.635 219.033C124.324 219.178 123.869 219.385 123.31 219.723C121.729 220.617 120.335 221.807 119.204 223.228C117.528 225.34 116.517 227.903 116.3 230.591C116.177 232.172 116.317 233.762 116.714 235.297C116.932 236.128 117.048 236.983 117.059 237.843C117.03 238.752 116.74 239.633 116.224 240.382C115.741 241.148 115.154 241.796 114.664 242.486C114.151 243.131 113.793 243.883 113.615 244.688C113.291 246.281 113.698 247.875 113.809 249.407C113.888 250.164 113.862 250.928 113.733 251.677C113.581 252.379 113.323 253.054 112.967 253.678C112.277 254.879 111.476 255.859 110.897 256.845C110.007 258.428 109.427 260.166 109.186 261.965C109.082 262.572 109.006 263.062 108.944 263.428C108.94 263.597 108.919 263.766 108.882 263.932Z" fill="#455A64"/>
<path d="M126.27 223.938C125.696 223.944 125.125 224.025 124.573 224.18C123.088 224.686 121.827 225.694 121.005 227.03C119.901 228.679 119.411 231.045 119.149 233.654C118.885 236.518 118.472 239.367 117.914 242.189C116.819 247.281 115.436 252.308 113.774 257.245C113.153 259.142 112.636 260.695 112.263 261.723C112.091 262.22 111.946 262.62 111.835 262.93C111.794 263.076 111.734 263.215 111.656 263.344C111.685 263.189 111.726 263.037 111.78 262.889C111.87 262.572 111.994 262.164 112.146 261.661L113.526 257.148C114.692 253.332 116.286 248.054 117.528 242.092C118.135 239.118 118.535 236.255 118.811 233.626C119.087 230.997 119.618 228.589 120.791 226.905C121.655 225.539 122.983 224.53 124.531 224.063C124.949 223.946 125.381 223.892 125.815 223.904C125.967 223.903 126.119 223.915 126.27 223.938Z" fill="#E0E0E0"/>
<path d="M100.94 261.461H114.305C114.305 261.461 106.198 325.831 61.4445 325.631L62.0172 313.08C62.0172 313.08 92.46 311.189 100.94 261.461Z" fill="#78B7FA"/>
<path d="M43.5166 313.468L43.5689 310.501C43.5748 310.166 43.7134 309.848 43.9544 309.615C44.1953 309.382 44.5188 309.255 44.8536 309.261L57.0164 309.475L56.9191 314.995L44.7563 314.78C44.5882 314.777 44.4223 314.741 44.2685 314.673C44.1146 314.605 43.9759 314.507 43.8604 314.385C43.7449 314.262 43.655 314.118 43.596 313.961C43.5369 313.803 43.5099 313.636 43.5166 313.468Z" fill="#78B7FA"/>
<g opacity="0.3">
<path opacity="0.3" d="M43.5166 313.468L43.5689 310.501C43.5748 310.166 43.7134 309.848 43.9544 309.615C44.1953 309.382 44.5188 309.255 44.8536 309.261L57.0164 309.475L56.9191 314.994L44.7563 314.78C44.5882 314.777 44.4223 314.741 44.2685 314.673C44.1146 314.605 43.9759 314.507 43.8604 314.385C43.7449 314.262 43.655 314.118 43.596 313.961C43.5369 313.803 43.5099 313.636 43.5166 313.468Z" fill="black"/>
</g>
<path d="M43.4788 324.761L43.5608 320.663C43.5718 320.114 43.8004 319.591 44.1964 319.211C44.5924 318.831 45.1232 318.623 45.6722 318.634L57.0365 318.861L56.8709 327.141L45.548 326.915C45.2691 326.915 44.993 326.859 44.7364 326.749C44.4798 326.64 44.2479 326.48 44.0546 326.279C43.8614 326.078 43.7107 325.84 43.6118 325.579C43.5128 325.318 43.4676 325.04 43.4788 324.761Z" fill="#78B7FA"/>
<path d="M51.74 309.367L51.492 323.434L56.8042 323.527L57.0522 309.46L51.74 309.367Z" fill="#78B7FA"/>
<path d="M63.0982 308.516L54.5152 308.621L54.7485 327.719L63.3315 327.614L63.0982 308.516Z" fill="#263238"/>
<path d="M63.2316 325.61C63.2316 325.769 61.341 325.886 59.0157 325.9C57.6033 325.966 56.1878 325.906 54.786 325.72C56.1865 325.547 57.5985 325.484 59.0088 325.534C60.1749 325.534 61.2306 325.534 61.9965 325.534H62.9004C63.0131 325.548 63.1241 325.574 63.2316 325.61Z" fill="#455A64"/>
<path d="M63.1902 322.174C63.1902 322.333 61.2996 322.444 58.9743 322.457C57.5621 322.524 56.1467 322.466 54.7446 322.285C56.1451 322.111 57.5571 322.049 58.9674 322.099C60.1335 322.099 61.1892 322.099 61.9551 322.099H62.859C62.9724 322.108 63.0839 322.134 63.1902 322.174Z" fill="#455A64"/>
<path d="M63.2868 318.704C63.2868 318.862 61.4031 318.973 59.0709 318.987C57.661 319.053 56.2479 318.995 54.8481 318.814C56.2486 318.64 57.6606 318.578 59.0709 318.628C60.237 318.628 61.2927 318.628 62.0517 318.628H62.9556C63.0687 318.639 63.1799 318.665 63.2868 318.704Z" fill="#455A64"/>
<path d="M63.1074 315.329C63.1074 315.487 61.2168 315.605 58.8846 315.619C57.4745 315.685 56.0612 315.625 54.6618 315.439C56.0623 315.265 57.4743 315.203 58.8846 315.253C60.0507 315.253 61.1064 315.253 61.8723 315.253H62.7762C62.8888 315.267 62.9997 315.293 63.1074 315.329Z" fill="#455A64"/>
<path d="M63.2316 312.039C63.2316 312.198 61.341 312.315 59.0157 312.329C57.6035 312.391 56.1885 312.334 54.786 312.156C56.1858 311.975 57.5985 311.912 59.0088 311.97C60.1749 311.97 61.2306 311.97 61.9965 311.97H62.9004C63.0129 311.982 63.1238 312.005 63.2316 312.039Z" fill="#455A64"/>
<path d="M67.9236 324.989C67.9236 324.989 67.9236 325.1 67.965 325.334V325.734L67.8477 325.348C67.2902 323.268 66.8502 321.157 66.5298 319.028C66.2331 317.172 66.033 315.488 65.9157 314.26C65.8201 313.6 65.7901 312.932 65.826 312.266C65.9911 312.911 66.1065 313.569 66.171 314.232C66.3435 315.447 66.585 317.123 66.861 318.972C67.3371 321.967 67.827 324.492 67.9305 325.32H67.8201C67.8822 325.086 67.9029 324.989 67.9236 324.989Z" fill="#263238"/>
<path d="M74.2716 323.753C73.4153 321.628 72.6737 319.458 72.0498 317.254C71.3043 315.088 70.6755 312.884 70.1661 310.65C71.0224 312.776 71.7641 314.945 72.3879 317.15C73.1334 319.316 73.7622 321.52 74.2716 323.753Z" fill="#263238"/>
<path d="M81.7719 320.586C80.5652 318.561 79.4643 316.474 78.4737 314.335C76.7487 310.83 75.417 307.959 75.5067 307.918C76.7103 309.946 77.8088 312.035 78.798 314.176C80.5299 317.675 81.8547 320.545 81.7719 320.586Z" fill="#263238"/>
<path d="M88.4166 315.619C86.8968 313.879 85.4733 312.057 84.1524 310.161C82.7296 308.337 81.4008 306.442 80.1711 304.482C81.6889 306.228 83.1146 308.053 84.4422 309.947C86.7123 313.025 88.4925 315.564 88.4166 315.619Z" fill="#263238"/>
<path d="M94.2195 310.113C92.4811 308.626 90.8227 307.048 89.2515 305.386C87.5982 303.808 86.0275 302.145 84.5457 300.404C86.2811 301.892 87.9371 303.469 89.5068 305.131C91.1612 306.71 92.7341 308.373 94.2195 310.113Z" fill="#263238"/>
<path d="M99.0012 303.502C98.3952 303.251 97.8152 302.941 97.2693 302.578L93.1845 300.19L89.1066 297.81C88.5211 297.51 87.9644 297.156 87.4437 296.754C88.0622 296.975 88.6582 297.255 89.2239 297.589C90.3003 298.148 91.77 298.969 93.3639 299.88C94.9578 300.79 96.3792 301.701 97.3935 302.364C97.9628 302.694 98.5009 303.075 99.0012 303.502Z" fill="#263238"/>
<path d="M102.237 296.81C101.655 296.614 101.094 296.362 100.561 296.058C99.5463 295.562 98.1387 294.878 96.5793 294.154C95.0199 293.429 93.5847 292.808 92.5497 292.353C91.9738 292.139 91.4175 291.876 90.8868 291.566C91.4898 291.684 92.0777 291.87 92.6394 292.118C93.702 292.512 95.1579 293.105 96.7311 293.83C98.3043 294.554 99.6912 295.279 100.678 295.831C101.229 296.104 101.752 296.432 102.237 296.81Z" fill="#263238"/>
<path d="M106.101 290.337C105.455 290.296 104.815 290.189 104.19 290.02C103.017 289.764 101.43 289.371 99.6567 288.86C97.8834 288.35 96.3309 287.818 95.2062 287.404C94.5871 287.214 93.9885 286.962 93.4191 286.652C94.056 286.768 94.6817 286.939 95.289 287.163C96.4275 287.515 98.0076 288.005 99.7533 288.543C101.499 289.081 103.093 289.481 104.245 289.799C104.878 289.924 105.499 290.104 106.101 290.337Z" fill="#263238"/>
<path d="M108.164 283.811C106.027 283.717 103.896 283.505 101.782 283.176C99.654 282.964 97.5394 282.634 95.4477 282.189C97.5853 282.283 99.7161 282.495 101.83 282.824C103.959 283.029 106.074 283.358 108.164 283.811Z" fill="#263238"/>
<path d="M110.359 277.428C109.74 277.476 109.117 277.457 108.503 277.373C107.357 277.29 105.777 277.152 104.038 276.979C102.299 276.807 100.719 276.627 99.5877 276.476C98.9673 276.432 98.3525 276.328 97.7523 276.165C98.3739 276.127 98.9977 276.148 99.6153 276.227C100.761 276.31 102.334 276.448 104.073 276.621C105.812 276.793 107.385 276.972 108.523 277.117C109.143 277.165 109.758 277.269 110.359 277.428Z" fill="#263238"/>
<path d="M112.049 271.246C109.84 271.491 107.62 271.62 105.398 271.633C103.18 271.757 100.957 271.757 98.739 271.633C100.948 271.388 103.168 271.259 105.391 271.246C107.608 271.126 109.831 271.126 112.049 271.246Z" fill="#263238"/>
<path d="M112.746 266.193C112.15 266.349 111.54 266.444 110.924 266.476C109.793 266.594 108.226 266.69 106.495 266.697C104.763 266.704 103.189 266.621 102.058 266.518C101.443 266.494 100.833 266.406 100.236 266.256C100.847 266.201 101.461 266.201 102.072 266.256C103.203 266.297 104.763 266.345 106.488 266.331C108.213 266.318 109.779 266.262 110.904 266.214C111.516 266.153 112.133 266.146 112.746 266.193Z" fill="#263238"/>
<path d="M101.52 263.373C101.53 263.43 101.53 263.488 101.52 263.546V264.056C101.52 264.505 101.52 265.167 101.471 266.016C101.358 268.422 101.074 270.818 100.623 273.185C99.9646 276.7 98.9592 280.142 97.6212 283.459C94.3751 291.635 89.1609 298.882 82.4412 304.559C79.7138 306.875 76.7648 308.915 73.6368 310.652C71.5348 311.83 69.3511 312.856 67.1025 313.722C66.3159 314.04 65.6811 314.233 65.2602 314.412L64.7772 314.571C64.7223 314.594 64.664 314.608 64.6047 314.612C64.6525 314.578 64.7063 314.552 64.7634 314.537L65.2326 314.343C65.6466 314.171 66.2745 313.957 67.0542 313.653C69.2717 312.738 71.4288 311.682 73.5126 310.493C80.4147 306.584 86.392 301.232 91.0361 294.802C95.6803 288.371 98.882 281.014 100.423 273.233C100.894 270.88 101.214 268.499 101.382 266.105C101.458 265.264 101.458 264.601 101.492 264.153C101.492 263.946 101.492 263.78 101.492 263.642C101.481 263.552 101.49 263.459 101.52 263.373Z" fill="white"/>
<path d="M163.475 188.369C163.475 188.369 156.078 178.357 138.959 179.841C138.959 179.841 156.382 166.455 146.128 152.703C146.128 152.703 168.132 159.203 168.381 131.699C168.381 131.699 172.383 157.229 193.138 149.957C193.138 149.957 194.615 170.215 208.973 166.468C202.025 173.299 195.27 179.323 196.65 188.058" fill="#78B7FA"/>
<g opacity="0.8">
<path opacity="0.8" d="M163.475 188.369C163.475 188.369 156.078 178.357 138.959 179.841C138.959 179.841 156.382 166.455 146.128 152.703C146.128 152.703 168.132 159.203 168.381 131.699C168.381 131.699 172.383 157.229 193.138 149.957C193.138 149.957 194.615 170.215 208.973 166.468C202.025 173.299 195.27 179.323 196.65 188.058" fill="white"/>
</g>
<path d="M163.475 188.37C163.475 188.37 163.302 176.695 149.551 177.889C149.551 177.889 162.336 170.513 154.105 159.466C154.105 159.466 171.782 164.69 171.983 142.596C171.983 142.596 175.191 163.082 191.868 157.258C191.868 157.258 189.874 172.121 201.418 169.106C195.836 174.626 193.573 180.835 194.677 187.874" fill="#78B7FA"/>
<g opacity="0.6">
<path opacity="0.6" d="M163.475 188.37C163.475 188.37 163.302 176.695 149.551 177.889C149.551 177.889 162.336 170.513 154.105 159.466C154.105 159.466 171.782 164.69 171.983 142.596C171.983 142.596 175.191 163.082 191.868 157.258C191.868 157.258 189.874 172.121 201.418 169.106C195.836 174.626 193.573 180.835 194.677 187.874" fill="white"/>
</g>
<path d="M186.058 110.924C186.013 111.072 185.958 111.217 185.893 111.359L185.348 112.573C185.106 113.097 184.816 113.739 184.506 114.505C184.195 115.271 183.816 116.113 183.464 117.086C183.112 118.058 182.684 119.107 182.305 120.26C181.925 121.412 181.532 122.647 181.132 123.951C180.38 126.573 179.662 129.471 179.096 132.59C178.531 135.709 178.199 138.676 177.992 141.394C177.91 142.774 177.82 144.051 177.806 145.265C177.792 146.48 177.772 147.611 177.806 148.639C177.841 149.667 177.861 150.606 177.889 151.399C177.917 152.193 177.958 152.924 178.006 153.469C178.055 154.014 178.068 154.456 178.089 154.794C178.107 154.95 178.107 155.107 178.089 155.263C178.054 155.111 178.029 154.957 178.013 154.801C177.981 154.461 177.933 154.019 177.868 153.476C177.799 152.903 177.73 152.2 177.689 151.406C177.647 150.613 177.565 149.647 177.558 148.646C177.551 147.646 177.503 146.48 177.558 145.258C177.613 144.037 177.641 142.74 177.71 141.374C178.089 135.433 179.147 129.555 180.863 123.854C181.27 122.55 181.649 121.301 182.07 120.163C182.491 119.024 182.884 117.955 183.271 116.996C183.657 116.037 184.044 115.174 184.375 114.422C184.706 113.67 185.01 113.042 185.272 112.511L185.872 111.324C185.92 111.184 185.982 111.05 186.058 110.924Z" fill="#78B7FA"/>
<path d="M136.668 106.183C135.41 104.997 134.021 103.958 132.528 103.085C130.975 102.324 129.341 101.741 127.657 101.347C128.175 101.312 128.695 101.363 129.196 101.498C130.42 101.748 131.601 102.176 132.701 102.768C133.8 103.359 134.808 104.105 135.695 104.983C136.086 105.324 136.415 105.73 136.668 106.183Z" fill="#78B7FA"/>
<path d="M141.967 136.219C142.075 136.298 142.173 136.391 142.257 136.495L143.023 137.316C143.713 138.006 144.617 139.103 145.721 140.462C146.825 141.822 148.088 143.478 149.419 145.368C150.751 147.259 152.124 149.412 153.463 151.716C154.802 154.021 155.961 156.298 156.954 158.388C157.948 160.479 158.748 162.404 159.369 164.04C159.99 165.675 160.466 167.013 160.749 167.945C160.878 168.377 160.989 168.736 161.08 169.021C161.127 169.146 161.157 169.276 161.17 169.408C161.102 169.293 161.049 169.17 161.012 169.042L160.611 167.993C160.287 167.076 159.783 165.751 159.128 164.136C158.472 162.522 157.637 160.617 156.651 158.533C155.664 156.45 154.477 154.207 153.145 151.896C151.814 149.584 150.441 147.466 149.143 145.561C147.846 143.657 146.597 141.987 145.514 140.621C144.431 139.255 143.548 138.151 142.913 137.406L142.223 136.543C142.125 136.446 142.039 136.337 141.967 136.219Z" fill="#78B7FA"/>
<path d="M189.412 139.744C189.38 139.857 189.331 139.963 189.267 140.062L188.805 140.924C188.591 141.297 188.342 141.752 188.073 142.304C187.804 142.856 187.473 143.449 187.163 144.146C186.473 145.526 185.783 147.196 185.093 149.087C183.622 153.203 182.658 157.482 182.222 161.831C182.036 163.832 181.953 165.647 181.96 167.172C181.96 167.931 181.96 168.621 181.994 169.242C182.029 169.863 182.036 170.366 182.063 170.794C182.091 171.222 182.098 171.484 182.112 171.774C182.133 171.888 182.133 172.005 182.112 172.119C182.079 172.009 182.058 171.896 182.05 171.781C182.015 171.519 181.981 171.194 181.932 170.801C181.884 170.408 181.829 169.856 181.801 169.249C181.774 168.641 181.712 167.951 181.712 167.179C181.677 165.385 181.742 163.59 181.905 161.803C182.3 157.422 183.27 153.112 184.789 148.983C185.408 147.298 186.12 145.649 186.921 144.043C187.245 143.353 187.611 142.753 187.887 142.214C188.163 141.676 188.439 141.228 188.667 140.834C188.894 140.441 189.053 140.227 189.191 139.999C189.254 139.906 189.328 139.82 189.412 139.744Z" fill="#78B7FA"/>
<path d="M202.964 142.422C202.998 142.463 202.391 142.912 201.473 143.712C199.07 145.785 197.076 148.289 195.594 151.095C195.316 151.693 195.005 152.276 194.663 152.841C194.813 152.193 195.045 151.567 195.353 150.978C196.044 149.53 196.895 148.164 197.892 146.907C198.891 145.65 200.033 144.513 201.294 143.519C201.8 143.082 202.361 142.713 202.964 142.422Z" fill="#78B7FA"/>
<path d="M145.349 160.018C145.95 160.3 146.516 160.655 147.032 161.073C148.325 162.027 149.517 163.109 150.593 164.302C151.671 165.492 152.623 166.789 153.435 168.173C153.8 168.731 154.095 169.331 154.312 169.96C153.92 169.428 153.556 168.875 153.221 168.304C152.353 166.976 151.384 165.717 150.323 164.537C149.257 163.364 148.104 162.273 146.873 161.273C146.339 160.887 145.83 160.468 145.349 160.018Z" fill="#78B7FA"/>
<path d="M141.85 153.6C141.795 153.697 140.387 152.91 138.483 152.427C136.579 151.944 134.971 151.937 134.971 151.827C137.411 151.551 139.866 152.183 141.871 153.6H141.85Z" fill="#78B7FA"/>
<path fill-rule="evenodd" clip-rule="evenodd" d="M127.65 132.003C127.751 131.603 127.904 131.218 128.105 130.858L127.478 129.905L128.788 128.525L129.761 129.112C130.117 128.903 130.497 128.738 130.893 128.622L131.128 127.511L133.011 127.477L133.28 128.587C133.68 128.688 134.065 128.838 134.426 129.036L135.378 128.415L136.758 129.726L136.165 130.699C136.381 131.051 136.546 131.432 136.655 131.83L137.772 132.058V133.949L136.668 134.218C136.567 134.616 136.414 134.998 136.213 135.356L136.841 136.315L135.53 137.695L134.55 137.102C134.2 137.318 133.822 137.483 133.425 137.592L133.17 138.689H131.286L131.017 137.585C130.617 137.484 130.232 137.331 129.872 137.13L128.92 137.751L127.54 136.44L128.133 135.467C127.917 135.117 127.752 134.738 127.643 134.342L126.525 134.107V132.224L127.629 131.955L127.65 132.003ZM130.134 133.072C130.144 133.472 130.271 133.859 130.501 134.186C130.73 134.512 131.051 134.764 131.423 134.908C131.795 135.053 132.202 135.084 132.592 134.998C132.982 134.912 133.337 134.712 133.614 134.424C133.89 134.136 134.075 133.773 134.145 133.38C134.216 132.987 134.168 132.582 134.008 132.216C133.849 131.85 133.584 131.539 133.248 131.323C132.913 131.107 132.52 130.996 132.121 131.002C131.855 131.008 131.593 131.066 131.349 131.173C131.105 131.28 130.885 131.434 130.701 131.626C130.517 131.819 130.373 132.045 130.277 132.293C130.181 132.542 130.134 132.806 130.141 133.072H130.134Z" fill="#78B7FA"/>
<path fill-rule="evenodd" clip-rule="evenodd" d="M206.703 182.986C206.778 182.693 206.889 182.41 207.035 182.145L206.572 181.455L207.545 180.454L208.235 180.889C208.495 180.734 208.773 180.614 209.063 180.53L209.236 179.709H210.616L210.816 180.53C211.11 180.601 211.394 180.713 211.658 180.861L212.348 180.399L213.348 181.372L212.913 182.062C213.069 182.321 213.189 182.599 213.272 182.89L214.093 183.062V184.442L213.272 184.642C213.198 184.936 213.087 185.219 212.941 185.484L213.396 186.174L212.43 187.175L211.74 186.74C211.479 186.896 211.198 187.017 210.905 187.099L210.74 187.92H209.36L209.16 187.106C208.866 187.032 208.583 186.92 208.318 186.775L207.628 187.23L206.655 186.298L207.09 185.608C206.934 185.347 206.813 185.066 206.731 184.774L205.91 184.601V183.221L206.731 183.021L206.703 182.986ZM208.539 183.773C208.542 183.969 208.584 184.162 208.661 184.342C208.739 184.521 208.852 184.684 208.992 184.82C209.133 184.956 209.299 185.063 209.481 185.135C209.663 185.207 209.858 185.243 210.053 185.239C210.249 185.236 210.442 185.194 210.622 185.117C210.801 185.039 210.964 184.926 211.1 184.786C211.236 184.645 211.343 184.479 211.415 184.297C211.487 184.115 211.523 183.92 211.52 183.725C211.513 183.329 211.35 182.953 211.066 182.678C210.782 182.403 210.4 182.252 210.005 182.259C209.61 182.265 209.233 182.428 208.958 182.712C208.683 182.996 208.532 183.378 208.539 183.773Z" fill="#455A64"/>
<path d="M192.854 123.324L189.765 129.824L192.707 131.222L195.795 124.721L192.854 123.324Z" fill="#E0E0E0"/>
<path d="M189.75 129.831C190.04 129.926 190.323 130.039 190.599 130.169C191.123 130.39 191.861 130.707 192.745 131.107L192.572 131.169C193.345 129.479 194.414 127.174 195.615 124.649C195.539 124.435 195.718 124.945 195.698 124.89H195.656H195.608L195.511 124.849L195.318 124.752L194.932 124.573L194.187 124.214L192.765 123.524L192.993 123.448C192.103 125.297 191.303 126.898 190.73 128.03C190.454 128.554 190.226 129.003 190.04 129.375C189.961 129.549 189.866 129.715 189.757 129.872C189.798 129.709 189.858 129.552 189.936 129.403C190.095 129.03 190.295 128.582 190.523 128.057C191.04 126.891 191.786 125.228 192.689 123.303L192.765 123.145L192.917 123.22L194.345 123.91L195.097 124.262L195.477 124.442L195.67 124.538L195.767 124.58H195.815H195.863C195.863 124.525 196.022 125.035 195.946 124.821C194.746 127.347 193.642 129.651 192.814 131.3L192.758 131.418L192.641 131.356C191.716 130.9 190.978 130.521 190.488 130.258C190.231 130.136 189.984 129.993 189.75 129.831Z" fill="#263238"/>
<path d="M195.512 121.266C195.156 121.097 194.77 120.999 194.377 120.979C193.984 120.958 193.59 121.016 193.219 121.148C192.848 121.28 192.507 121.484 192.214 121.748C191.922 122.012 191.685 122.331 191.516 122.687L196.94 125.268C197.109 124.912 197.207 124.525 197.227 124.131C197.246 123.737 197.188 123.343 197.056 122.971C196.923 122.599 196.718 122.257 196.453 121.965C196.188 121.672 195.868 121.435 195.512 121.266Z" fill="#E0E0E0"/>
<path d="M195.512 121.266C195.632 121.283 195.747 121.325 195.85 121.391C196.141 121.552 196.402 121.762 196.622 122.012C196.971 122.402 197.209 122.879 197.312 123.392C197.455 124.049 197.377 124.735 197.092 125.344L197.029 125.496L196.871 125.427L194.159 124.151L191.441 122.819L191.289 122.75L191.365 122.598C191.666 122.003 192.149 121.519 192.745 121.218C193.207 120.981 193.723 120.867 194.242 120.887C194.574 120.895 194.902 120.965 195.208 121.094C195.422 121.191 195.525 121.26 195.512 121.273C195.096 121.165 194.671 121.102 194.242 121.087C193.758 121.097 193.283 121.227 192.862 121.467C192.329 121.761 191.904 122.218 191.648 122.771L191.572 122.55L194.29 123.826L196.995 125.124L196.774 125.206C197.041 124.658 197.128 124.04 197.023 123.44C196.938 122.968 196.742 122.523 196.45 122.143C196.172 121.815 195.857 121.521 195.512 121.266Z" fill="#263238"/>
<path d="M195.581 122.985C195.675 122.64 195.669 122.275 195.564 121.933C195.459 121.591 195.259 121.286 194.987 121.053" fill="#E0E0E0"/>
<path d="M194.987 121.054C195.035 120.964 195.539 121.24 195.732 121.882C195.926 122.523 195.67 123.027 195.581 122.986C195.491 122.944 195.581 122.496 195.394 121.985C195.208 121.475 194.925 121.136 194.987 121.054Z" fill="#263238"/>
<path d="M192.268 124.248C192.82 124.391 193.35 124.609 193.842 124.897C194.386 125.076 194.904 125.329 195.38 125.649C194.791 125.663 194.208 125.515 193.697 125.221C192.814 124.828 192.213 124.324 192.268 124.248Z" fill="#263238"/>
<path d="M191.903 125.006C192.457 125.167 192.988 125.399 193.483 125.696C194.025 125.874 194.54 126.125 195.015 126.441C194.425 126.463 193.841 126.317 193.331 126.02C192.455 125.579 191.82 125.089 191.903 125.006Z" fill="#263238"/>
<path d="M191.544 125.771C192.096 125.914 192.625 126.133 193.117 126.42C193.661 126.602 194.178 126.855 194.656 127.172C194.067 127.187 193.485 127.041 192.972 126.751C192.089 126.351 191.489 125.847 191.544 125.771Z" fill="#263238"/>
<path d="M191.178 126.531C191.733 126.692 192.264 126.924 192.758 127.221C193.3 127.399 193.816 127.65 194.29 127.966C193.7 127.988 193.117 127.842 192.607 127.546C191.73 127.118 191.13 126.614 191.178 126.531Z" fill="#263238"/>
<path d="M190.813 127.297C191.366 127.441 191.897 127.66 192.393 127.945C192.935 128.13 193.452 128.383 193.931 128.698C192.761 128.623 191.655 128.134 190.813 127.318V127.297Z" fill="#263238"/>
<path d="M190.44 128.062C190.994 128.205 191.526 128.423 192.02 128.711C192.562 128.892 193.077 129.145 193.552 129.463C192.385 129.382 191.283 128.894 190.44 128.083V128.062Z" fill="#263238"/>
<path d="M190.088 128.822C190.643 128.982 191.174 129.214 191.668 129.512C192.21 129.69 192.725 129.941 193.2 130.257C192.612 130.279 192.031 130.133 191.523 129.837C190.64 129.409 190.033 128.905 190.088 128.822Z" fill="#263238"/>
<path d="M124.774 179.365L118.22 182.338L119.566 185.304L126.12 182.331L124.774 179.365Z" fill="#E0E0E0"/>
<path d="M126.111 182.331C125.953 182.071 125.81 181.801 125.683 181.524C125.428 181.02 125.069 180.303 124.648 179.454L124.821 179.516C123.137 180.309 120.833 181.379 118.294 182.531C118.211 182.745 118.397 182.241 118.383 182.297V182.345L118.425 182.442L118.514 182.635L118.687 183.021C118.804 183.276 118.915 183.525 119.032 183.773L119.674 185.215L119.446 185.133C121.33 184.291 122.958 183.594 124.138 183.063L125.518 182.483C125.691 182.401 125.871 182.334 126.056 182.283C125.922 182.383 125.776 182.466 125.621 182.531L124.303 183.18C123.158 183.732 121.543 184.525 119.577 185.415L119.418 185.484L119.349 185.326C119.135 184.87 118.921 184.387 118.659 183.897C118.542 183.649 118.432 183.394 118.314 183.138L118.142 182.759L118.052 182.559L118.004 182.462V182.414V182.379L118.093 182.145C120.64 180.986 122.958 179.958 124.669 179.219L124.786 179.164L124.842 179.281C125.249 180.234 125.566 180.999 125.773 181.517C125.915 181.775 126.028 182.048 126.111 182.331Z" fill="#263238"/>
<path d="M116.203 185.168C116.365 185.527 116.597 185.851 116.885 186.121C117.173 186.391 117.511 186.601 117.88 186.74C118.249 186.879 118.642 186.944 119.036 186.931C119.43 186.918 119.818 186.828 120.177 186.665L117.693 181.193C117.334 181.356 117.01 181.588 116.74 181.875C116.471 182.163 116.261 182.502 116.122 182.871C115.984 183.24 115.92 183.633 115.933 184.027C115.947 184.422 116.039 184.809 116.203 185.168Z" fill="#E0E0E0"/>
<path d="M116.203 185.168C116.203 185.168 116.12 185.072 116.023 184.865C115.904 184.552 115.841 184.22 115.837 183.885C115.825 183.365 115.949 182.852 116.196 182.394C116.512 181.793 117.013 181.309 117.624 181.014L117.776 180.945L117.845 181.097C118.238 181.946 118.659 182.864 119.101 183.857C119.542 184.851 119.943 185.741 120.329 186.617L120.398 186.769L120.246 186.838C119.63 187.108 118.942 187.171 118.287 187.017C117.774 186.914 117.297 186.676 116.907 186.327C116.658 186.107 116.452 185.843 116.3 185.548C116.196 185.334 116.162 185.216 116.182 185.21C116.426 185.564 116.711 185.888 117.031 186.176C117.455 186.515 117.966 186.731 118.506 186.798C119.045 186.865 119.593 186.781 120.088 186.555L120.005 186.776L118.749 184.016C118.321 183.05 117.907 182.132 117.521 181.256L117.742 181.339C117.246 181.561 116.822 181.917 116.518 182.367C116.213 182.816 116.039 183.342 116.017 183.885C116.031 184.318 116.093 184.749 116.203 185.168Z" fill="#263238"/>
<path d="M117.259 183.816C116.964 184.019 116.734 184.301 116.593 184.63C116.453 184.958 116.408 185.32 116.465 185.673" fill="#E0E0E0"/>
<path d="M116.465 185.672C116.375 185.713 116.162 185.168 116.424 184.561C116.686 183.954 117.224 183.726 117.259 183.816C117.293 183.905 116.962 184.202 116.755 184.699C116.548 185.196 116.569 185.651 116.465 185.672Z" fill="#263238"/>
<path d="M120.605 184.988C120.275 184.522 120.01 184.014 119.819 183.476C119.52 182.987 119.288 182.461 119.129 181.91C119.972 182.727 120.496 183.818 120.605 184.988Z" fill="#263238"/>
<path d="M121.371 184.642C121.044 184.173 120.78 183.662 120.584 183.124C120.289 182.636 120.058 182.112 119.894 181.565C119.97 181.503 120.488 182.096 120.902 182.945C121.219 183.454 121.382 184.043 121.371 184.642Z" fill="#263238"/>
<path d="M122.13 184.292C121.801 183.826 121.536 183.318 121.343 182.781C121.045 182.292 120.813 181.765 120.653 181.215C121.497 182.032 122.021 183.123 122.13 184.292Z" fill="#263238"/>
<path d="M122.91 183.946C122.585 183.475 122.32 182.965 122.123 182.428C121.826 181.938 121.594 181.411 121.433 180.861C121.887 181.222 122.235 181.699 122.44 182.241C122.758 182.752 122.921 183.344 122.91 183.946Z" fill="#263238"/>
<path d="M123.683 183.595C123.353 183.127 123.088 182.616 122.896 182.077C122.598 181.59 122.366 181.065 122.206 180.518C123.05 181.334 123.573 182.426 123.683 183.595Z" fill="#263238"/>
<path d="M124.448 183.243C124.121 182.777 123.856 182.269 123.662 181.732C123.365 181.242 123.133 180.716 122.972 180.166C123.426 180.527 123.774 181.004 123.979 181.546C124.295 182.055 124.458 182.644 124.448 183.243Z" fill="#263238"/>
<path d="M125.221 182.898C124.666 181.904 124.173 180.876 123.745 179.821C123.821 179.759 124.345 180.352 124.759 181.201C125.07 181.712 125.23 182.3 125.221 182.898Z" fill="#263238"/>
<path d="M139.049 98.2422C139.049 98.2422 147.405 106.522 149.488 111.649C151.469 116.555 152.78 121.123 152.78 121.123C152.78 121.123 154.933 117.355 157.355 121.123C159.776 124.89 171.224 170.644 173.107 187.866H180.401C180.401 187.866 177.006 159.073 175.391 155.843C173.777 152.614 172.424 151.538 172.424 151.538C172.424 151.538 170.54 139.421 169.195 137.538C168.421 136.432 167.409 135.512 166.235 134.847C166.235 134.847 163.813 121.661 160.315 118.977C156.816 116.293 154.105 117.631 154.105 117.631C154.105 117.631 151.897 103.5 139.049 98.2422Z" fill="#78B7FA"/>
<path d="M207.462 159.39C205.818 159.83 204.204 160.379 202.632 161.032C201.105 161.793 199.628 162.651 198.209 163.599C198.524 163.201 198.902 162.856 199.327 162.578C201.289 161.094 203.557 160.064 205.965 159.563C206.453 159.43 206.957 159.372 207.462 159.39Z" fill="#455A64"/>
<path d="M207.179 157.912C205.518 158.548 203.892 159.271 202.308 160.079C199.734 161.5 197.975 163.149 197.899 163.06C198.212 162.635 198.584 162.256 199.003 161.935C199.973 161.111 201.023 160.385 202.136 159.768C203.247 159.148 204.419 158.644 205.634 158.264C206.129 158.072 206.65 157.953 207.179 157.912Z" fill="#455A64"/>
<path d="M205.765 161.458C205.765 161.569 204.247 161.59 202.46 162.107C200.673 162.625 199.362 163.384 199.307 163.294C201.149 161.886 203.457 161.23 205.765 161.458Z" fill="#455A64"/>
<path d="M189.667 187.796C188.446 178.136 191.62 166.806 199.327 161.383L201.163 162.88C201.163 162.88 191.565 168.593 192.269 187.865" fill="#263238"/>
<path d="M150.013 173.879C148.732 174.319 147.492 174.871 146.308 175.528C145.189 176.291 144.136 177.148 143.161 178.088C143.927 176.929 144.937 175.952 146.121 175.225C147.305 174.498 148.633 174.038 150.013 173.879Z" fill="#455A64"/>
<path d="M149.82 173.023C148.597 173.577 147.344 174.061 146.066 174.472C144.829 175.005 143.562 175.466 142.271 175.852C143.422 175.14 144.654 174.57 145.942 174.155C147.183 173.619 148.485 173.239 149.82 173.023Z" fill="#455A64"/>
<path d="M171.079 190.178L167.739 189.308C168.108 187.922 168.066 186.458 167.619 185.095C167.172 183.732 166.339 182.528 165.221 181.629C165.075 182.691 164.662 183.7 164.021 184.56C163.381 185.42 162.533 186.104 161.557 186.548C160.817 186.839 160.023 186.964 159.23 186.914C158.437 186.864 157.665 186.64 156.968 186.259C156.335 185.936 155.781 185.476 155.348 184.913C154.915 184.349 154.613 183.697 154.463 183.002C154.3 181.92 154.467 180.813 154.944 179.828C155.42 178.843 156.184 178.025 157.134 177.482C157.91 177.032 158.769 176.741 159.659 176.626C159.581 176.554 159.498 176.487 159.411 176.426C157.906 175.338 156.108 174.729 154.252 174.678C152.396 174.628 150.567 175.138 149.006 176.143L147.06 173.293C149.219 171.874 151.761 171.15 154.345 171.219C156.928 171.288 159.428 172.147 161.508 173.68C162.773 174.634 163.8 175.866 164.51 177.282C166.994 178.26 169.034 180.114 170.245 182.494C171.455 184.874 171.752 187.615 171.079 190.198V190.178ZM160.77 179.973C160.105 179.952 159.447 180.112 158.866 180.435C158.529 180.619 158.251 180.895 158.065 181.231C157.88 181.567 157.793 181.949 157.817 182.332C157.873 182.525 157.969 182.704 158.098 182.857C158.228 183.011 158.388 183.135 158.569 183.223C158.817 183.359 159.09 183.441 159.372 183.465C159.654 183.489 159.937 183.453 160.204 183.361C160.761 183.06 161.213 182.596 161.5 182.031C161.786 181.466 161.892 180.827 161.805 180.2V180.062C161.463 180.002 161.117 179.972 160.77 179.973Z" fill="#263238"/>
<path d="M143.065 126.104C143.388 126.237 143.698 126.401 143.989 126.593C144.576 126.925 145.369 127.449 146.39 128.132C147.549 128.945 148.666 129.815 149.737 130.74C152.356 133.012 154.689 135.593 156.685 138.427C157.5 139.58 158.253 140.776 158.942 142.008C159.528 143.064 159.97 143.933 160.239 144.554C160.401 144.862 160.533 145.186 160.632 145.52C160.431 145.236 160.258 144.933 160.115 144.616C159.804 144.016 159.335 143.167 158.735 142.139C158.134 141.111 157.355 139.904 156.43 138.613C154.418 135.836 152.104 133.29 149.53 131.023C148.35 129.947 147.212 129.029 146.28 128.339C145.349 127.649 144.514 127.076 143.948 126.711C143.636 126.535 143.34 126.332 143.065 126.104Z" fill="#78B7FA"/>
<path d="M131.39 202.982H131.976V237.834H131.39C129.743 237.834 128.163 237.18 126.999 236.015C125.834 234.851 125.18 233.271 125.18 231.624V209.165C125.187 207.523 125.845 205.95 127.008 204.792C128.172 203.633 129.748 202.982 131.39 202.982Z" fill="#263238"/>
<path d="M231.75 202.982H232.399C234.024 202.982 235.582 203.628 236.732 204.777C237.881 205.926 238.526 207.485 238.526 209.11V231.714C238.526 233.339 237.881 234.898 236.732 236.047C235.582 237.196 234.024 237.841 232.399 237.841H231.75V202.982Z" fill="#263238"/>
<path d="M223.532 196.18H139.939C134.558 196.18 130.196 200.542 130.196 205.922V262.33C130.196 267.711 134.558 272.073 139.939 272.073H223.532C228.913 272.073 233.275 267.711 233.275 262.33V205.922C233.275 200.542 228.913 196.18 223.532 196.18Z" fill="#78B7FA"/>
<path d="M194.849 204.24C188.585 204.24 182.578 206.729 178.148 211.158C173.719 215.587 171.23 221.595 171.23 227.859H218.475C218.475 224.757 217.864 221.685 216.676 218.819C215.489 215.953 213.748 213.349 211.555 211.156C209.361 208.962 206.756 207.223 203.89 206.036C201.023 204.85 197.951 204.239 194.849 204.24Z" fill="white"/>
<path d="M213.9 226.72C214.894 226.72 215.791 226.72 216.439 226.72C216.793 226.703 217.147 226.726 217.495 226.789C217.149 226.849 216.797 226.874 216.446 226.865C215.756 226.865 214.894 226.865 213.9 226.865H211.361H210.588C210.494 226.876 210.399 226.876 210.305 226.865C210.399 226.85 210.494 226.85 210.588 226.865L211.361 226.831L213.9 226.72Z" fill="#E0E0E0"/>
<path d="M212.23 219.578C214.024 218.722 215.515 218.122 215.563 218.198C215.611 218.274 214.183 219.053 212.375 219.861C211.3 220.404 210.186 220.865 209.042 221.241C210.062 220.608 211.128 220.052 212.23 219.578Z" fill="#E0E0E0"/>
<path d="M207.8 213.741C209.111 212.251 210.243 211.105 210.333 211.181C210.422 211.257 209.401 212.513 208.063 213.976C207.285 214.891 206.439 215.744 205.53 216.529C206.216 215.544 206.975 214.612 207.8 213.741Z" fill="#E0E0E0"/>
<path d="M201.48 210.008C201.825 208.856 202.299 207.748 202.895 206.703C203.005 206.745 202.522 208.276 201.811 210.153C201.419 211.288 200.944 212.393 200.39 213.458C200.664 212.282 201.029 211.129 201.48 210.008Z" fill="#E0E0E0"/>
<path d="M194.242 208.778C194.242 206.791 194.297 205.184 194.414 205.184C194.532 205.184 194.608 206.791 194.594 208.778C194.627 209.98 194.567 211.182 194.414 212.373C194.263 211.181 194.205 209.979 194.242 208.778Z" fill="#E0E0E0"/>
<path d="M187.024 210.132C186.335 208.275 185.824 206.744 185.934 206.682C186.045 206.619 186.68 208.117 187.314 209.987C187.77 211.105 188.135 212.259 188.404 213.437C187.863 212.371 187.402 211.266 187.024 210.132Z" fill="#E0E0E0"/>
<path d="M180.78 213.974C179.441 212.512 178.42 211.263 178.51 211.18C178.6 211.097 179.731 212.249 181.042 213.74C181.866 214.602 182.625 215.525 183.312 216.5C182.405 215.724 181.558 214.88 180.78 213.974Z" fill="#E0E0E0"/>
<path d="M176.454 219.902C174.639 219.087 173.211 218.342 173.259 218.232C173.307 218.121 174.805 218.728 176.599 219.612C177.701 220.086 178.766 220.642 179.786 221.275C178.643 220.901 177.529 220.442 176.454 219.902Z" fill="#E0E0E0"/>
<path d="M174.95 226.893C173.956 226.893 173.059 226.893 172.403 226.893C172.052 226.901 171.701 226.876 171.355 226.817C171.703 226.754 172.057 226.73 172.41 226.748C173.059 226.748 173.956 226.748 174.95 226.748L177.489 226.789L178.262 226.824C178.353 226.808 178.446 226.808 178.538 226.824C178.446 226.835 178.353 226.835 178.262 226.824H177.489L174.95 226.893Z" fill="#E0E0E0"/>
<path d="M155.464 208.379C155.465 209 155.282 209.608 154.938 210.125C154.594 210.642 154.104 211.045 153.531 211.284C152.957 211.523 152.326 211.586 151.716 211.466C151.107 211.345 150.547 211.047 150.107 210.608C149.667 210.169 149.367 209.61 149.246 209.001C149.124 208.391 149.186 207.76 149.423 207.186C149.661 206.612 150.063 206.121 150.579 205.776C151.096 205.43 151.703 205.246 152.324 205.246C153.156 205.246 153.953 205.576 154.542 206.163C155.131 206.75 155.462 207.547 155.464 208.379Z" fill="white"/>
<path d="M155.464 217.832C155.465 218.453 155.282 219.061 154.938 219.578C154.594 220.095 154.104 220.499 153.531 220.737C152.957 220.976 152.326 221.039 151.716 220.919C151.107 220.798 150.547 220.5 150.107 220.061C149.667 219.622 149.367 219.063 149.246 218.454C149.124 217.845 149.186 217.213 149.423 216.639C149.661 216.065 150.063 215.574 150.579 215.229C151.096 214.884 151.703 214.699 152.324 214.699C153.156 214.699 153.953 215.029 154.542 215.616C155.131 216.204 155.462 217 155.464 217.832Z" fill="#455A64"/>
<path d="M214.887 265.526C214.887 265.526 214.887 265.326 214.887 264.94C214.887 264.553 214.887 263.98 214.887 263.249C214.887 261.752 214.887 259.571 214.852 256.777C214.852 251.167 214.811 243.08 214.783 233.11L214.914 233.241L150.627 233.289L150.806 233.11C150.806 244.543 150.806 255.507 150.806 265.54L150.634 265.374L196.809 265.45L210.126 265.498H213.686H214.611H214.928H214.631H213.728H210.202L196.919 265.547L150.634 265.63H150.42V265.457C150.42 255.438 150.42 244.474 150.42 233.027V232.848H150.606L214.894 232.896H215.032V233.027C214.997 243.032 214.976 251.146 214.956 256.77C214.956 259.53 214.956 261.731 214.956 263.215C214.956 263.939 214.956 264.498 214.956 264.884C214.956 265.271 214.887 265.526 214.887 265.526Z" fill="#263238"/>
<path d="M140.829 271.922H222.642V272.329C222.642 272.893 222.531 273.452 222.315 273.974C222.099 274.496 221.782 274.969 221.383 275.369C220.984 275.768 220.51 276.084 219.989 276.3C219.467 276.516 218.908 276.628 218.344 276.628H145.135C143.995 276.628 142.901 276.175 142.095 275.369C141.289 274.562 140.836 273.469 140.836 272.329V271.922H140.829Z" fill="#263238"/>
<g opacity="0.3">
<path opacity="0.3" d="M208.014 237.656C207.962 238.102 208.067 238.552 208.31 238.929C208.552 239.307 208.919 239.588 209.346 239.726C209.776 239.844 210.233 239.825 210.652 239.672C211.072 239.519 211.433 239.238 211.685 238.87C211.92 238.49 212.045 238.051 212.045 237.604C212.045 237.157 211.92 236.718 211.685 236.338C211.711 236.926 211.519 237.503 211.147 237.959C210.957 238.182 210.716 238.353 210.444 238.459C210.172 238.565 209.877 238.602 209.588 238.567C209.298 238.526 209.03 238.394 208.82 238.191C208.611 237.987 208.471 237.723 208.421 237.435" fill="black"/>
</g>
<path d="M211.699 236.891C211.7 237.269 211.589 237.64 211.38 237.955C211.17 238.271 210.872 238.517 210.522 238.662C210.173 238.808 209.788 238.846 209.416 238.773C209.045 238.699 208.704 238.517 208.436 238.249C208.168 237.981 207.986 237.64 207.913 237.269C207.839 236.897 207.878 236.513 208.023 236.163C208.169 235.814 208.415 235.515 208.73 235.306C209.045 235.096 209.416 234.985 209.794 234.986C210.3 234.986 210.784 235.187 211.141 235.544C211.498 235.901 211.699 236.386 211.699 236.891Z" fill="#E0E0E0"/>
<path d="M211.699 236.89C211.648 236.743 211.606 236.593 211.575 236.441C211.453 236.054 211.211 235.716 210.885 235.475C210.645 235.305 210.368 235.196 210.077 235.158C209.786 235.119 209.49 235.152 209.215 235.254C208.882 235.379 208.594 235.602 208.392 235.895C208.189 236.187 208.08 236.534 208.08 236.89C208.08 237.246 208.189 237.593 208.392 237.885C208.594 238.177 208.882 238.401 209.215 238.525C209.49 238.627 209.786 238.66 210.077 238.622C210.368 238.583 210.645 238.474 210.885 238.304C211.211 238.063 211.453 237.725 211.575 237.338C211.608 237.187 211.649 237.037 211.699 236.89C211.699 236.89 211.761 237.062 211.699 237.373C211.615 237.822 211.37 238.225 211.009 238.504C210.741 238.721 210.422 238.865 210.083 238.923C209.743 238.981 209.395 238.951 209.07 238.836C208.67 238.691 208.325 238.426 208.081 238.078C207.837 237.73 207.706 237.315 207.706 236.89C207.706 236.465 207.837 236.05 208.081 235.702C208.325 235.354 208.67 235.089 209.07 234.944C209.395 234.829 209.743 234.799 210.083 234.857C210.422 234.915 210.741 235.059 211.009 235.275C211.37 235.555 211.615 235.958 211.699 236.407C211.761 236.717 211.72 236.89 211.699 236.89Z" fill="#263238"/>
<path d="M210.671 236.075C210.705 236.172 210.257 236.407 209.836 236.848C209.415 237.29 209.194 237.738 209.098 237.704C209.001 237.669 209.098 237.104 209.581 236.593C210.064 236.082 210.65 235.979 210.671 236.075Z" fill="#263238"/>
<path d="M210.671 237.483C210.588 237.538 210.271 237.193 209.801 236.883C209.332 236.572 208.891 236.4 208.911 236.296C208.932 236.193 209.47 236.221 210.002 236.586C210.533 236.952 210.754 237.442 210.671 237.483Z" fill="#263238"/>
<g opacity="0.3">
<path opacity="0.3" d="M208.904 261.254C208.856 261.701 208.962 262.15 209.206 262.527C209.45 262.904 209.816 263.186 210.243 263.324C210.673 263.443 211.13 263.424 211.549 263.271C211.969 263.117 212.33 262.837 212.582 262.469C212.821 262.092 212.951 261.657 212.957 261.211C212.963 260.765 212.845 260.326 212.617 259.943C212.642 260.531 212.447 261.106 212.072 261.558C211.883 261.78 211.643 261.951 211.372 262.057C211.101 262.163 210.808 262.2 210.519 262.165C210.23 262.126 209.96 261.996 209.749 261.794C209.539 261.592 209.397 261.328 209.346 261.04" fill="black"/>
</g>
<path d="M210.692 262.385C211.743 262.385 212.596 261.532 212.596 260.481C212.596 259.429 211.743 258.576 210.692 258.576C209.64 258.576 208.787 259.429 208.787 260.481C208.787 261.532 209.64 262.385 210.692 262.385Z" fill="#E0E0E0"/>
<path d="M212.596 260.481C212.561 260.481 212.555 260.315 212.465 260.032C212.345 259.644 212.103 259.306 211.775 259.066C211.535 258.896 211.258 258.788 210.967 258.749C210.676 258.711 210.38 258.744 210.105 258.845C209.873 258.936 209.664 259.075 209.49 259.254C209.316 259.432 209.183 259.645 209.098 259.879C209.013 260.113 208.979 260.362 208.998 260.611C209.017 260.859 209.088 261.1 209.208 261.318C209.328 261.537 209.492 261.727 209.691 261.877C209.89 262.026 210.118 262.132 210.361 262.187C210.604 262.241 210.856 262.243 211.099 262.193C211.343 262.143 211.573 262.041 211.775 261.895C212.104 261.657 212.346 261.318 212.465 260.929C212.555 260.653 212.561 260.481 212.596 260.481C212.63 260.481 212.658 260.653 212.596 260.964C212.512 261.414 212.266 261.819 211.906 262.102C211.637 262.317 211.318 262.459 210.979 262.516C210.639 262.572 210.291 262.542 209.967 262.426C209.567 262.281 209.222 262.017 208.978 261.669C208.734 261.32 208.603 260.906 208.603 260.481C208.603 260.055 208.734 259.641 208.978 259.292C209.222 258.944 209.567 258.68 209.967 258.535C210.292 258.425 210.64 258.398 210.978 258.455C211.317 258.513 211.636 258.654 211.906 258.866C212.267 259.146 212.512 259.549 212.596 259.998C212.658 260.315 212.617 260.487 212.596 260.481Z" fill="#263238"/>
<path d="M211.568 259.667C211.602 259.764 211.147 259.998 210.733 260.44C210.319 260.881 210.091 261.33 209.988 261.302C209.884 261.275 209.988 260.695 210.471 260.191C210.954 259.688 211.547 259.577 211.568 259.667Z" fill="#263238"/>
<path d="M211.568 261.075C211.478 261.137 211.161 260.785 210.692 260.475C210.222 260.164 209.788 259.992 209.808 259.888C209.829 259.785 210.36 259.812 210.898 260.178C211.437 260.544 211.651 261.034 211.568 261.075Z" fill="#263238"/>
<g opacity="0.3">
<path opacity="0.3" d="M153.442 237.628C153.393 238.075 153.5 238.524 153.744 238.901C153.987 239.278 154.354 239.56 154.781 239.698C155.212 239.815 155.669 239.795 156.088 239.64C156.507 239.486 156.868 239.205 157.12 238.836C157.354 238.456 157.478 238.019 157.478 237.573C157.478 237.127 157.354 236.69 157.12 236.311C157.145 236.9 156.951 237.478 156.575 237.932C156.386 238.154 156.146 238.325 155.875 238.431C155.604 238.537 155.311 238.574 155.022 238.539C154.732 238.5 154.462 238.369 154.251 238.165C154.04 237.962 153.899 237.696 153.849 237.408" fill="black"/>
</g>
<path d="M155.222 238.766C156.274 238.766 157.127 237.913 157.127 236.861C157.127 235.81 156.274 234.957 155.222 234.957C154.171 234.957 153.318 235.81 153.318 236.861C153.318 237.913 154.171 238.766 155.222 238.766Z" fill="#E0E0E0"/>
<path d="M157.134 236.862C157.134 236.862 157.092 236.689 157.003 236.413C156.885 236.024 156.643 235.684 156.313 235.447C156.075 235.277 155.799 235.168 155.509 235.129C155.219 235.091 154.924 235.124 154.65 235.226C154.316 235.351 154.029 235.574 153.826 235.866C153.624 236.159 153.515 236.506 153.515 236.862C153.515 237.217 153.624 237.565 153.826 237.857C154.029 238.149 154.316 238.372 154.65 238.497C154.925 238.598 155.221 238.631 155.512 238.593C155.803 238.554 156.08 238.446 156.32 238.276C156.649 238.038 156.891 237.699 157.01 237.31C157.099 237.034 157.106 236.862 157.141 236.862C157.188 237.019 157.188 237.187 157.141 237.345C157.054 237.792 156.809 238.194 156.451 238.476C156.182 238.692 155.863 238.835 155.524 238.893C155.185 238.951 154.836 238.922 154.512 238.807C154.112 238.662 153.767 238.398 153.523 238.05C153.279 237.701 153.148 237.287 153.148 236.862C153.148 236.436 153.279 236.022 153.523 235.673C153.767 235.325 154.112 235.061 154.512 234.916C154.836 234.801 155.185 234.772 155.524 234.83C155.863 234.888 156.182 235.031 156.451 235.247C156.809 235.529 157.054 235.931 157.141 236.379C157.186 236.537 157.184 236.705 157.134 236.862Z" fill="#263238"/>
<path d="M156.106 236.048C156.106 236.145 155.685 236.38 155.271 236.821C154.857 237.263 154.629 237.711 154.526 237.677C154.422 237.642 154.526 237.07 155.009 236.566C155.492 236.062 156.085 235.979 156.106 236.048Z" fill="#263238"/>
<path d="M156.106 237.456C156.016 237.511 155.699 237.166 155.229 236.856C154.76 236.545 154.325 236.373 154.346 236.269C154.367 236.166 154.898 236.193 155.436 236.552C155.975 236.911 156.188 237.408 156.106 237.456Z" fill="#263238"/>
<g opacity="0.3">
<path opacity="0.3" d="M153.042 261.02C152.989 261.466 153.093 261.917 153.336 262.294C153.579 262.672 153.946 262.954 154.374 263.09C154.804 263.208 155.261 263.19 155.68 263.036C156.099 262.883 156.46 262.603 156.713 262.234C156.948 261.855 157.073 261.418 157.073 260.972C157.073 260.525 156.948 260.088 156.713 259.709C156.737 260.295 156.546 260.869 156.175 261.324C155.985 261.547 155.744 261.719 155.472 261.826C155.2 261.934 154.906 261.972 154.615 261.938C154.326 261.897 154.058 261.765 153.848 261.562C153.638 261.358 153.499 261.094 153.449 260.806" fill="black"/>
</g>
<path d="M154.822 262.151C155.874 262.151 156.727 261.298 156.727 260.246C156.727 259.194 155.874 258.342 154.822 258.342C153.77 258.342 152.918 259.194 152.918 260.246C152.918 261.298 153.77 262.151 154.822 262.151Z" fill="#E0E0E0"/>
<path d="M156.727 260.246C156.727 260.246 156.727 260.081 156.602 259.798C156.477 259.413 156.236 259.076 155.912 258.832C155.673 258.662 155.396 258.552 155.105 258.514C154.814 258.476 154.518 258.509 154.243 258.611C154.011 258.702 153.801 258.841 153.628 259.019C153.454 259.198 153.32 259.411 153.235 259.645C153.15 259.879 153.116 260.128 153.135 260.376C153.154 260.624 153.226 260.866 153.346 261.084C153.465 261.302 153.63 261.493 153.829 261.642C154.027 261.792 154.256 261.898 154.499 261.952C154.742 262.007 154.993 262.009 155.237 261.959C155.481 261.908 155.711 261.807 155.912 261.661C156.239 261.42 156.48 261.082 156.602 260.695C156.635 260.543 156.677 260.393 156.727 260.246C156.727 260.246 156.789 260.419 156.727 260.729C156.643 261.18 156.398 261.585 156.037 261.868C155.766 262.079 155.447 262.22 155.109 262.278C154.771 262.336 154.423 262.309 154.098 262.199C153.696 262.055 153.348 261.791 153.102 261.442C152.856 261.093 152.724 260.676 152.724 260.25C152.724 259.823 152.856 259.406 153.102 259.057C153.348 258.708 153.696 258.444 154.098 258.3C154.423 258.19 154.771 258.163 155.109 258.221C155.447 258.279 155.766 258.42 156.037 258.632C156.398 258.914 156.643 259.319 156.727 259.77C156.789 260.081 156.747 260.253 156.727 260.246Z" fill="#263238"/>
<path d="M155.699 259.439C155.699 259.536 155.285 259.77 154.864 260.212C154.443 260.654 154.222 261.102 154.125 261.074C154.029 261.047 154.125 260.467 154.608 259.964C155.091 259.46 155.678 259.343 155.699 259.439Z" fill="#263238"/>
<path d="M155.698 260.82C155.616 260.875 155.298 260.524 154.829 260.213C154.36 259.903 153.918 259.73 153.939 259.627C153.96 259.523 154.498 259.551 155.029 259.916C155.56 260.282 155.781 260.82 155.698 260.82Z" fill="#263238"/>
<g opacity="0.3">
<path opacity="0.3" d="M150.592 265.704C158.058 267.325 166.78 267.388 174.846 266.994C178.724 266.801 182.981 266.56 186.086 268.899C186.776 269.409 187.563 270.079 188.363 269.782C189.522 269.347 189.564 267.222 190.806 267.181C191.427 267.181 191.903 267.753 192.103 268.34C192.23 268.947 192.42 269.539 192.669 270.106C192.986 270.644 193.738 271.003 194.235 270.624C195.022 270.023 194.111 268.733 194.408 267.788C194.704 266.843 196.112 266.732 197.064 267.098C198.016 267.464 198.941 268.16 199.955 268.009C200.665 267.806 201.329 267.466 201.908 267.008C203.722 265.897 205.965 265.835 208.118 265.794C210.36 265.759 212.672 265.545 214.914 265.504L150.592 265.704Z" fill="black"/>
</g>
<path d="M202.011 241.354C201.899 241.409 201.781 241.451 201.659 241.478C201.319 241.569 200.985 241.681 200.659 241.816C199.46 242.304 198.328 242.944 197.292 243.72C195.946 244.659 194.463 245.956 192.579 247.101C191.593 247.715 190.514 248.164 189.384 248.433C188.169 248.651 186.934 248.743 185.7 248.709C183.181 248.709 180.98 249.73 179.076 250.779C177.171 251.828 175.426 252.739 174.066 253.656C172.983 254.366 171.979 255.189 171.072 256.113C170.43 256.803 170.133 257.182 170.106 257.161C170.078 257.141 170.161 257.051 170.299 256.851C170.513 256.56 170.743 256.281 170.989 256.016C171.867 255.046 172.859 254.184 173.942 253.449C175.553 252.371 177.22 251.381 178.938 250.482C179.939 249.921 180.982 249.437 182.057 249.033C183.226 248.604 184.461 248.382 185.707 248.378C186.92 248.412 188.133 248.324 189.329 248.116C190.424 247.855 191.471 247.427 192.434 246.846C194.283 245.735 195.794 244.459 197.167 243.541C198.228 242.776 199.389 242.16 200.617 241.712C200.951 241.59 201.295 241.498 201.646 241.436C201.763 241.392 201.886 241.364 202.011 241.354Z" fill="#263238"/>
<path d="M185.651 246.819C184.975 246.791 184.304 246.687 183.65 246.508C182.057 246.153 180.494 245.668 178.979 245.059C177.463 244.455 176 243.726 174.605 242.879C174.006 242.558 173.448 242.166 172.942 241.713C173.555 241.993 174.152 242.309 174.729 242.658C177.567 244.209 180.578 245.42 183.699 246.267C184.362 246.405 185.014 246.589 185.651 246.819Z" fill="#263238"/>
<path d="M196.029 224.297C196.56 224.014 212.065 219.025 212.065 219.025L197.243 227.305L196.029 224.297Z" fill="#78B7FA"/>
<path d="M194.414 222.621C193.726 222.621 193.044 222.757 192.408 223.02C191.771 223.284 191.193 223.67 190.706 224.157C190.219 224.644 189.833 225.222 189.57 225.858C189.306 226.495 189.17 227.176 189.17 227.865H199.658C199.658 227.176 199.523 226.495 199.259 225.858C198.996 225.222 198.609 224.644 198.122 224.157C197.636 223.67 197.057 223.284 196.421 223.02C195.785 222.757 195.103 222.621 194.414 222.621Z" fill="#263238"/>
<path d="M141.692 271.922C141.588 271.922 141.512 255.073 141.512 234.29C141.512 213.507 141.588 196.65 141.692 196.65C141.795 196.65 141.871 213.5 141.871 234.29C141.871 255.08 141.788 271.922 141.692 271.922Z" fill="#263238"/>
<path d="M223.698 271.922C223.595 271.922 223.519 255.073 223.519 234.29C223.519 213.507 223.595 196.65 223.698 196.65C223.802 196.65 223.877 213.5 223.877 234.29C223.877 255.08 223.795 271.922 223.698 271.922Z" fill="#263238"/>
<path d="M138.248 206.861C138.694 206.861 139.056 206.499 139.056 206.053C139.056 205.608 138.694 205.246 138.248 205.246C137.803 205.246 137.441 205.608 137.441 206.053C137.441 206.499 137.803 206.861 138.248 206.861Z" fill="#263238"/>
<path d="M138.248 221.958C138.694 221.958 139.056 221.597 139.056 221.151C139.056 220.705 138.694 220.344 138.248 220.344C137.803 220.344 137.441 220.705 137.441 221.151C137.441 221.597 137.803 221.958 138.248 221.958Z" fill="#263238"/>
<path d="M138.248 237.062C138.694 237.062 139.056 236.7 139.056 236.255C139.056 235.809 138.694 235.447 138.248 235.447C137.803 235.447 137.441 235.809 137.441 236.255C137.441 236.7 137.803 237.062 138.248 237.062Z" fill="#263238"/>
<path d="M138.248 252.167C138.694 252.167 139.056 251.806 139.056 251.36C139.056 250.914 138.694 250.553 138.248 250.553C137.803 250.553 137.441 250.914 137.441 251.36C137.441 251.806 137.803 252.167 138.248 252.167Z" fill="#263238"/>
<path d="M138.248 267.265C138.694 267.265 139.056 266.904 139.056 266.458C139.056 266.012 138.694 265.65 138.248 265.65C137.803 265.65 137.441 266.012 137.441 266.458C137.441 266.904 137.803 267.265 138.248 267.265Z" fill="#263238"/>
<path d="M227.914 206.861C228.36 206.861 228.721 206.499 228.721 206.053C228.721 205.608 228.36 205.246 227.914 205.246C227.468 205.246 227.107 205.608 227.107 206.053C227.107 206.499 227.468 206.861 227.914 206.861Z" fill="#263238"/>
<path d="M227.914 221.958C228.36 221.958 228.721 221.597 228.721 221.151C228.721 220.705 228.36 220.344 227.914 220.344C227.468 220.344 227.107 220.705 227.107 221.151C227.107 221.597 227.468 221.958 227.914 221.958Z" fill="#263238"/>
<path d="M227.914 237.062C228.36 237.062 228.721 236.7 228.721 236.255C228.721 235.809 228.36 235.447 227.914 235.447C227.468 235.447 227.107 235.809 227.107 236.255C227.107 236.7 227.468 237.062 227.914 237.062Z" fill="#263238"/>
<path d="M227.914 252.167C228.36 252.167 228.721 251.806 228.721 251.36C228.721 250.914 228.36 250.553 227.914 250.553C227.468 250.553 227.107 250.914 227.107 251.36C227.107 251.806 227.468 252.167 227.914 252.167Z" fill="#263238"/>
<path d="M227.914 267.265C228.36 267.265 228.721 266.904 228.721 266.458C228.721 266.012 228.36 265.65 227.914 265.65C227.468 265.65 227.107 266.012 227.107 266.458C227.107 266.904 227.468 267.265 227.914 267.265Z" fill="#263238"/>
<path d="M196.926 187.865H161.667V196.173H196.926V187.865Z" fill="#455A64"/>
<path d="M164.22 196.181C164.039 194.851 163.979 193.506 164.041 192.165C163.979 190.826 164.039 189.484 164.22 188.156C164.397 189.485 164.457 190.826 164.399 192.165C164.457 193.506 164.397 194.85 164.22 196.181Z" fill="#263238"/>
<path d="M167.829 196.181C167.652 194.85 167.592 193.506 167.649 192.165C167.591 190.826 167.651 189.485 167.829 188.156C168.01 189.484 168.07 190.826 168.008 192.165C168.07 193.506 168.01 194.851 167.829 196.181Z" fill="#263238"/>
<path d="M171.451 196.181C171.274 194.85 171.214 193.506 171.272 192.165C171.214 190.826 171.274 189.485 171.451 188.156C171.629 189.485 171.689 190.826 171.631 192.165C171.688 193.506 171.628 194.85 171.451 196.181Z" fill="#263238"/>
<path d="M175.074 196.181C174.892 194.851 174.832 193.506 174.894 192.165C174.832 190.826 174.892 189.484 175.074 188.156C175.251 189.485 175.311 190.826 175.253 192.165C175.311 193.506 175.251 194.85 175.074 196.181Z" fill="#263238"/>
<path d="M178.71 196.181C178.533 194.85 178.473 193.506 178.531 192.165C178.473 190.826 178.533 189.485 178.71 188.156C178.891 189.484 178.951 190.826 178.889 192.165C178.951 193.506 178.891 194.851 178.71 196.181Z" fill="#263238"/>
<path d="M182.312 196.181C182.135 194.85 182.075 193.506 182.132 192.165C182.074 190.826 182.134 189.485 182.312 188.156C182.489 189.485 182.549 190.826 182.491 192.165C182.549 193.506 182.489 194.85 182.312 196.181Z" fill="#263238"/>
<path d="M185.934 196.181C185.753 194.851 185.693 193.506 185.755 192.165C185.693 190.826 185.753 189.484 185.934 188.156C186.112 189.485 186.172 190.826 186.114 192.165C186.172 193.506 186.112 194.85 185.934 196.181Z" fill="#263238"/>
<path d="M189.55 196.181C189.373 194.85 189.313 193.506 189.371 192.165C189.313 190.826 189.373 189.485 189.55 188.156C189.731 189.484 189.791 190.826 189.729 192.165C189.791 193.506 189.731 194.851 189.55 196.181Z" fill="#263238"/>
<path d="M193.2 196.181C193.023 194.85 192.963 193.506 193.021 192.165C192.963 190.826 193.023 189.485 193.2 188.156C193.377 189.485 193.437 190.826 193.379 192.165C193.437 193.506 193.377 194.85 193.2 196.181Z" fill="#263238"/>
<g opacity="0.3">
<path opacity="0.3" d="M238.519 214.189C239.375 218.509 240.168 222.58 241.017 226.899C240.185 226.956 239.351 226.956 238.519 226.899C238.519 222.759 238.519 218.336 238.519 214.196" fill="black"/>
</g>
<path d="M132.584 204.273C132.68 204.273 132.584 217.163 132.342 233.053C132.101 248.944 131.852 261.826 131.749 261.826C131.645 261.826 131.749 248.944 131.983 233.046C132.218 217.149 132.48 204.273 132.584 204.273Z" fill="white"/>
<path d="M147.584 263.579C147.481 263.579 147.405 257.162 147.405 249.247C147.405 241.333 147.481 234.916 147.584 234.916C147.688 234.916 147.764 241.333 147.764 249.247C147.764 257.162 147.66 263.579 147.584 263.579Z" fill="white"/>
<path d="M215.349 198.498C215.349 198.601 199.527 198.677 180.021 198.677C160.515 198.677 144.693 198.601 144.693 198.498C144.693 198.394 160.508 198.318 180.021 198.318C199.534 198.318 215.349 198.401 215.349 198.498Z" fill="white"/>
<path d="M319.208 327.861C319.208 327.958 253.52 328.04 172.507 328.04C91.494 328.04 25.7922 327.958 25.7922 327.861C25.7922 327.764 91.4664 327.682 172.507 327.682C253.547 327.682 319.208 327.751 319.208 327.861Z" fill="#263238"/>
</svg>
