<svg width="120" height="120" viewBox="0 0 120 120" fill="none" xmlns="http://www.w3.org/2000/svg">
<circle opacity="0.1" cx="60" cy="60" r="60" fill="#F23C06"/>
<path d="M95.3199 81.7808L65.0099 25.4931C62.8615 21.5023 57.1385 21.5023 54.9883 25.4931L24.6801 81.7808C24.2137 82.6472 23.9798 83.6197 24.0014 84.6035C24.0229 85.5872 24.2992 86.5485 24.8032 87.3936C25.3071 88.2387 26.0216 88.9387 26.8769 89.4253C27.7321 89.9118 28.6989 90.1683 29.6829 90.1697H90.3082C91.2929 90.1699 92.2608 89.9145 93.1173 89.4286C93.9738 88.9426 94.6895 88.2428 95.1946 87.3974C95.6996 86.5521 95.9766 85.5901 95.9986 84.6057C96.0206 83.6212 95.7867 82.6479 95.3199 81.7808ZM60 81.4554C59.2965 81.4554 58.6088 81.2468 58.0239 80.8559C57.439 80.4651 56.9831 79.9096 56.7139 79.2597C56.4447 78.6097 56.3742 77.8945 56.5115 77.2046C56.6487 76.5146 56.9875 75.8808 57.4849 75.3834C57.9823 74.886 58.6161 74.5472 59.3061 74.41C59.9961 74.2727 60.7112 74.3431 61.3612 74.6124C62.0111 74.8816 62.5666 75.3375 62.9574 75.9224C63.3483 76.5073 63.5569 77.195 63.5569 77.8985C63.5569 78.3656 63.4649 78.8281 63.2861 79.2597C63.1074 79.6912 62.8454 80.0833 62.5151 80.4136C62.1848 80.7439 61.7927 81.0059 61.3612 81.1846C60.9296 81.3634 60.4671 81.4554 60 81.4554ZM63.8628 45.682L62.842 67.379C62.842 68.1337 62.5422 68.8574 62.0085 69.3911C61.4749 69.9247 60.7511 70.2245 59.9964 70.2245C59.2418 70.2245 58.518 69.9247 57.9844 69.3911C57.4507 68.8574 57.1509 68.1337 57.1509 67.379L56.1301 45.6909C56.1072 45.1726 56.1888 44.6551 56.3702 44.169C56.5515 43.683 56.8288 43.2384 57.1857 42.8619C57.5425 42.4853 57.9715 42.1844 58.447 41.9772C58.9226 41.77 59.435 41.6606 59.9538 41.6556H59.9911C60.5134 41.6553 61.0303 41.7609 61.5107 41.9659C61.991 42.1709 62.4249 42.4711 62.786 42.8484C63.1472 43.2256 63.4282 43.6722 63.612 44.161C63.7958 44.6499 63.8787 45.1709 63.8557 45.6927L63.8628 45.682Z" fill="#F23C06"/>
</svg>
