<svg width="21" height="21" viewBox="0 0 21 21" fill="none" xmlns="http://www.w3.org/2000/svg">
<path d="M21 10.5C21 4.70055 16.2995 0 10.5 0C4.70055 0 0 4.70055 0 10.5C0 15.7414 3.83753 20.0852 8.86027 20.8734V13.5378H6.19644V10.5H8.86027V8.18712C8.86027 5.55781 10.4252 4.10219 12.8244 4.10219C13.9751 4.10219 15.1775 4.30931 15.1775 4.30931V6.8926H13.8542C12.5482 6.8926 12.1455 7.70384 12.1455 8.53233V10.5H15.0567L14.5907 13.5378H12.1455V20.8734C17.1625 20.0852 21 15.7414 21 10.5Z" fill="#1877F2"/>
<path d="M14.5848 13.5377L15.0508 10.4999H12.1396V8.53219C12.1396 7.70369 12.5481 6.89246 13.8484 6.89246H15.1716V4.30917C15.1716 4.30917 13.9692 4.10205 12.8185 4.10205C10.4193 4.10205 8.85439 5.55767 8.85439 8.18698V10.4999H6.19055V13.5377H8.85439V20.8733C9.38946 20.9596 9.93603 20.9999 10.4941 20.9999C11.0522 20.9999 11.5988 20.9538 12.1338 20.8733V13.5377H14.5848Z" fill="white"/>
</svg>
