<svg width="39" height="39" viewBox="0 0 39 39" fill="none" xmlns="http://www.w3.org/2000/svg">
<path d="M8 15V35H13.5V15H8Z" fill="#E8FFD3"/>
<path d="M17.5 35V24.5H23.5V35H17.5Z" fill="#E8FFD3"/>
<path d="M27 35V19H32.5V35H27Z" fill="#E8FFD3"/>
<path d="M17.5 14V2C17.5 0.8 19.1667 0.5 20 0.5H35C36.2 0.5 37.5 1.5 38 2V12.5C38 14.9 36.6667 15.1667 36 15H25.5L20.5 19L20 15L17.5 14Z" fill="#E8FFD3"/>
<path d="M8 15V35H13.5V15H8Z" stroke="black"/>
<path d="M17.5 35V24.5H23.5V35H17.5Z" stroke="black"/>
<path d="M27 35V19H32.5V35H27Z" stroke="black"/>
<path d="M17.5 14V2C17.5 0.8 19.1667 0.5 20 0.5H35C36.2 0.5 37.5 1.5 38 2V12.5C38 14.9 36.6667 15.1667 36 15H25.5L20.5 19L20 15L17.5 14Z" stroke="black"/>
<path d="M38.0354 34.333H33.5937V18.5326C33.5937 18.1142 33.2545 17.775 32.836 17.775H27.38C26.9615 17.775 26.6223 18.1142 26.6223 18.5326V34.3331H24.0457V24.0272C24.0457 23.6087 23.7065 23.2695 23.2881 23.2695H17.832C17.4136 23.2695 17.0743 23.6087 17.0743 24.0272V34.3331H14.7503V14.9934C14.7503 14.575 14.4111 14.2358 13.9926 14.2358H8.53668C8.11821 14.2358 7.779 14.575 7.779 14.9934V34.333H4.74768V11.1297C4.74768 10.7113 4.40847 10.3721 3.99001 10.3721C3.57154 10.3721 3.23233 10.7113 3.23233 11.1297V34.3331H0.757678C0.339212 34.3331 0 34.6723 0 35.0908C0 35.5092 0.339212 35.8485 0.757678 35.8485H3.23233V38.0355C3.23233 38.454 3.57154 38.7932 3.99001 38.7932C4.40847 38.7932 4.74768 38.454 4.74768 38.0355V35.8484H38.0354C38.4539 35.8484 38.7931 35.5092 38.7931 35.0907C38.7931 34.6722 38.4539 34.333 38.0354 34.333ZM9.29436 34.333V15.7511H13.235V34.333H9.29436ZM18.5898 34.333V24.7848H22.5305V34.333H18.5898ZM28.1377 34.333V19.2903H32.0783V34.3331H28.1377V34.333Z" fill="#AAC506"/>
<path d="M3.99205 5.26298C4.41052 5.26298 4.74973 4.92377 4.74973 4.5053V0.757678C4.74973 0.339212 4.41052 0 3.99205 0C3.57359 0 3.23438 0.339212 3.23438 0.757678V4.5053C3.23438 4.92377 3.57359 5.26298 3.99205 5.26298Z" fill="#AAC506"/>
<path d="M36.1757 0H19.1888C17.7449 0 16.5703 1.17463 16.5703 2.61853V13.1621C16.5703 14.6059 17.7449 15.7806 19.1888 15.7806H19.8035V19.0177C19.8035 19.6683 20.611 20.0175 21.0843 19.5658L25.0502 15.7806H29.5424C29.9608 15.7806 30.3 15.4414 30.3 15.0229C30.3 14.6045 29.9608 14.2653 29.5424 14.2653H24.7466C24.5518 14.2653 24.3645 14.3403 24.2235 14.4748L21.3188 17.2472V15.0229C21.3188 14.6045 20.9796 14.2653 20.5612 14.2653H19.1888C18.5806 14.2653 18.0857 13.7704 18.0857 13.1621V2.61853C18.0857 2.01027 18.5806 1.51536 19.1888 1.51536H36.1757C36.7839 1.51536 37.2789 2.01027 37.2789 2.61853V13.1621C37.2789 13.7597 36.7927 14.2543 36.1951 14.2645C35.7767 14.2716 35.4433 14.6166 35.4504 15.035C35.4576 15.4534 35.8003 15.7869 36.2209 15.7796C37.6398 15.7554 38.7941 14.5811 38.7941 13.1621V2.61853C38.7942 1.17463 37.6196 0 36.1757 0Z" fill="#AAC506"/>
<path d="M3.29091 8.04568C3.44745 8.42793 3.89979 8.61318 4.28044 8.45558C4.6614 8.29791 4.84802 7.84671 4.68959 7.46605C4.53093 7.08479 4.08269 6.89847 3.70082 7.05615C3.31993 7.21344 3.13218 7.66502 3.29091 8.04568Z" fill="#AAC506"/>
<path d="M24.9652 6.99897C24.791 6.99897 24.6221 7.05898 24.487 7.16892L20.76 10.2013C20.4354 10.4653 20.3863 10.9426 20.6505 11.2672C20.8002 11.4513 21.0185 11.5467 21.2386 11.5467C21.4067 11.5467 21.5759 11.4911 21.7164 11.3767L25.2346 8.51425H30.2277C30.4088 8.51425 30.5839 8.44939 30.7212 8.33142L33.4293 6.00641V6.6299C33.4293 7.04837 33.7685 7.38758 34.187 7.38758C34.6055 7.38758 34.9447 7.04837 34.9447 6.6299V4.18541C34.9447 3.76695 34.6055 3.42773 34.187 3.42773H31.6046C31.1861 3.42773 30.8469 3.76695 30.8469 4.18541C30.8469 4.60388 31.1861 4.94309 31.6046 4.94309H32.3417L29.947 6.99897H24.9652Z" fill="#AAC506"/>
<path d="M33.589 14.7042C33.3287 14.0795 32.4059 14.099 32.1762 14.7387C32.0673 15.0419 32.1685 15.3938 32.4233 15.5913C32.67 15.7826 33.0148 15.803 33.2819 15.6417C33.5975 15.4512 33.7309 15.0447 33.589 14.7042Z" fill="#AAC506"/>
</svg>
