<svg width="67" height="54" viewBox="0 0 67 54" fill="none" xmlns="http://www.w3.org/2000/svg">
<path d="M65.597 28.2765L51.779 14.4605V5.3485C51.779 4.2125 50.859 3.2915 49.721 3.2915C48.586 3.2915 47.665 4.2125 47.665 5.3485V10.3495L37.917 0.6015C37.114 -0.2005 35.813 -0.2005 35.011 0.6015L16.146 19.4685C17.693 19.7375 19.167 20.2225 20.532 20.8955L36.467 4.9615L62.692 31.1845C63.09 31.5845 63.618 31.7875 64.145 31.7875C64.668 31.7875 65.196 31.5885 65.596 31.1845C66.402 30.3815 66.402 29.0805 65.597 28.2765Z" fill="#0084F8"/>
<path d="M59.716 30.6363L37.921 8.8403C37.533 8.4553 37.013 8.2373 36.468 8.2373C35.922 8.2373 35.401 8.4553 35.015 8.8403L22.085 21.7723C26.618 24.6653 29.635 29.7353 29.635 35.5013C29.635 37.9053 29.108 40.2553 28.096 42.4043L31.722 46.0313C31.835 46.1433 31.939 46.2613 32.041 46.3843C32.749 45.5033 33.139 44.4173 33.139 43.2803V35.4683C33.139 33.5723 34.592 31.9883 36.469 31.8103C38.346 31.9883 39.799 33.5723 39.799 35.4683V43.2803C39.799 44.5323 40.272 45.7303 41.124 46.6523C42.062 47.6693 43.391 48.2513 44.77 48.2513H55.407C58.147 48.2513 60.378 46.0223 60.378 43.2803V32.6423C60.378 32.3303 60.348 32.0143 60.286 31.7003C60.203 31.2973 60.007 30.9273 59.716 30.6363Z" fill="#0084F8"/>
<path d="M24.475 42.9036C25.892 40.7826 26.721 38.2356 26.721 35.5016C26.721 28.1336 20.728 22.1396 13.361 22.1396C5.994 22.1396 0 28.1326 0 35.5016C0 42.8676 5.994 48.8587 13.361 48.8587C15.761 48.8587 18.011 48.2206 19.96 47.1087L25.303 52.4526C25.905 53.0566 26.694 53.3546 27.483 53.3546C28.272 53.3546 29.061 53.0526 29.662 52.4526C30.866 51.2496 30.866 49.2966 29.662 48.0936L24.475 42.9036ZM13.361 44.7516C8.261 44.7516 4.111 40.6026 4.111 35.5016C4.111 30.3986 8.261 26.2516 13.361 26.2516C18.461 26.2516 22.611 30.3996 22.611 35.5016C22.61 40.5986 18.46 44.7516 13.361 44.7516Z" fill="#A7E1C1"/>
</svg>
