<svg width="58" height="50" viewBox="0 0 58 50" fill="none" xmlns="http://www.w3.org/2000/svg">
<g clip-path="url(#clip0)">
<path d="M53.0488 19.1734H26.0508C23.7611 19.1616 21.759 20.72 21.2435 22.916L21.2315 22.9633L14.7098 45.6433C14.3022 47.3434 13.3671 48.8664 12.0364 50.0117H47.9297C50.2914 50.0117 52.3175 48.3706 52.773 46.0919L52.785 46.0565L57.9041 24.9585C58.1798 23.53 57.7962 22.0542 56.8611 20.9326C55.926 19.8228 54.5233 19.1734 53.0488 19.1734Z" fill="#0084F8"/>
<path d="M34.2749 7.7686C37.0922 7.7686 39.5138 9.75207 40.0174 12.4911H40.365C43.1344 12.4911 45.4961 14.4392 46.0116 17.1074H47.0066V10.9681C47.0066 8.08737 44.6329 5.7379 41.6957 5.7379H31.3018C29.5994 5.7379 27.957 5.13577 26.6862 4.03778L23.3774 1.20425C22.4783 0.42503 21.3274 0 20.1286 0H5.31087C2.37371 0 0 2.33766 0 5.23022V43.6836C0 45.915 1.18685 47.9693 3.12898 49.1145V14.6989C3.12898 10.8737 6.28193 7.7686 10.1662 7.7686H34.2749Z" fill="#0084F8"/>
<path d="M12.6958 45.0885L19.2175 22.4085C19.9727 19.2916 22.802 17.0838 26.0629 17.0956H43.8657C43.3981 15.5844 41.9835 14.5454 40.377 14.5454H16.1604C13.4271 14.5454 11.2212 16.7296 11.2212 19.4096V47.8866C11.9285 47.0956 12.432 46.1511 12.6838 45.1239L12.6958 45.0885Z" fill="#A7E1C1"/>
<path d="M37.8714 12.4909C37.4039 10.9207 35.9413 9.83447 34.2749 9.83447H10.1662C7.4328 9.83447 5.22693 12.0187 5.22693 14.6987V49.8935C6.54566 50.1414 7.90035 49.9761 9.12317 49.4212V19.4094C9.12317 15.5842 12.2761 12.4791 16.1604 12.4791H37.8714V12.4909Z" fill="#A7E1C1"/>
</g>
<defs>
<clipPath id="clip0">
<rect width="58" height="50" fill="white"/>
</clipPath>
</defs>
</svg>
