<svg width="76" height="77" viewBox="0 0 76 77" fill="none" xmlns="http://www.w3.org/2000/svg">
<path d="M51.2174 16.8715V5.96211C51.2174 2.66392 48.5485 0 45.2441 0H5.97324C2.6689 0 0 2.66392 0 5.96211V70.911C0 74.2092 2.6689 76.8731 5.97324 76.8731H45.1171C48.4214 76.8731 51.0903 74.2092 51.0903 70.911V58.0988H45.7525V63.173H5.46488V11.0362H45.7525V16.7446H51.2174V16.8715ZM20.3344 68.5008H30.8829C31.6455 68.5008 32.2809 69.1351 32.2809 69.8962C32.2809 70.6573 31.6455 71.2916 30.8829 71.2916H20.3344C19.5719 71.2916 18.9365 70.6573 18.9365 69.8962C18.9365 69.1351 19.5719 68.5008 20.3344 68.5008Z" fill="#00A6E0"/>
<path d="M54.883 15.2656C54.8753 15.3001 54.8791 15.3361 54.8939 15.3682H52.832C52.8413 15.3348 52.845 15.3002 52.8429 15.2656H54.883Z" fill="white"/>
<path d="M26.1406 58.5231C26.2754 57.5041 26.5397 56.5064 26.9272 55.5541C27.6993 53.3469 28.9085 51.3173 30.4828 49.586C32.0571 47.8548 33.9642 46.4573 36.0908 45.4768C39.318 44.0149 42.9339 43.6397 46.3933 44.4076C48.7107 44.8261 51.0596 45.0468 53.4144 45.0674C54.7475 45.0064 56.0739 45.2883 57.2664 45.8861C57.6792 46.1219 58.0458 46.4303 58.3486 46.7963C58.5875 47.0925 58.5308 47.2177 58.2003 47.3646C56.7354 47.988 55.2013 48.4346 53.6304 48.6951C50.9217 49.0744 48.193 49.2947 45.4584 49.3549C45.2445 49.3533 45.032 49.3902 44.8312 49.4637C45.5381 49.5323 46.2493 49.6118 46.9508 49.6455C50.2242 49.9678 53.5287 49.7214 56.7177 48.9172C59.9246 48.0811 62.7504 46.1794 64.7293 43.5258C65.3188 42.5696 66.1425 41.779 67.1228 41.2285C67.9294 40.8326 68.8507 40.7354 69.7224 40.9542C69.9613 41.0108 70.0421 41.0903 69.9166 41.3407C68.4746 44.4771 66.6021 47.3979 64.353 50.019C61.9931 52.5427 58.9002 54.2652 55.509 54.9444C52.7584 55.5159 49.9531 55.7828 47.1439 55.7403C44.3173 55.7294 41.4908 55.5922 38.6533 55.7512C35.1589 55.8188 31.6926 56.3898 28.3617 57.4463C27.5874 57.7309 26.8434 58.0916 26.1406 58.5231Z" fill="#00A6E0"/>
<path d="M43.0781 36.0918C46.6563 32.8256 50.121 29.677 53.5748 26.5033C53.9021 26.1963 54.0308 26.4576 54.2021 26.6285C57.0058 29.1762 59.8094 31.7314 62.613 34.2943C63.2283 34.8518 63.8436 35.4201 64.5843 36.0918C63.6952 36.0918 62.9545 36.1256 62.2137 36.081C61.6781 36.0472 61.5068 36.1833 61.5188 36.7516C61.5527 39.2198 61.5188 41.6771 61.5417 44.1453C61.5722 44.3582 61.5374 44.5754 61.4418 44.7682C61.3461 44.961 61.1943 45.1203 61.0061 45.2253C60.8986 45.3025 60.7959 45.3861 60.6985 45.4757C59.8094 46.1355 59.8257 46.1355 59.0228 45.3842C57.9551 44.3957 56.5784 43.8051 55.125 43.7119C53.3239 43.553 51.525 43.4735 49.7228 43.3712C48.6974 43.3145 47.6938 43.0979 46.6803 42.9727C46.2581 42.9161 46.0989 42.768 46.0989 42.302C46.1327 40.4022 46.0988 38.5143 46.1218 36.6144C46.1218 36.1931 46.0192 36.057 45.5861 36.0799C44.8105 36.1136 44.013 36.0918 43.0781 36.0918ZM56.9948 39.4016C57.4847 39.4016 57.9865 39.3907 58.4763 39.4016C58.7501 39.4125 58.8865 39.3559 58.8756 39.038C58.8527 38.094 58.8647 37.1501 58.8756 36.1942C58.8756 35.9438 58.8298 35.8186 58.5341 35.8305C57.5425 35.8414 56.5628 35.8414 55.5712 35.8305C55.2974 35.8305 55.2178 35.922 55.2178 36.1942C55.2287 37.1381 55.2407 38.094 55.2178 39.038C55.2068 39.357 55.3432 39.4136 55.6279 39.4016C56.0818 39.3896 56.5378 39.4016 56.9948 39.4016ZM50.6348 35.8414C50.145 35.8414 49.6432 35.8523 49.1534 35.8414C48.8796 35.8305 48.789 35.9209 48.7999 36.1942C48.8108 37.1381 48.8108 38.0821 48.7999 39.038C48.789 39.357 48.909 39.4136 49.1992 39.4136C50.145 39.4027 51.0908 39.4027 52.0487 39.4136C52.3454 39.4136 52.4359 39.3221 52.4359 39.0271C52.425 38.1964 52.4021 37.3548 52.4468 36.523C52.4807 35.9993 52.3552 35.7609 51.7858 35.8403C51.4021 35.8635 51.0174 35.8639 50.6338 35.8414H50.6348Z" fill="#4FA800"/>
<path d="M52.8208 15.3691H54.8837C62.2124 16.0224 67.4291 19.6914 70.3746 26.4024C72.1986 30.5657 72.107 37.8451 70.4542 39.5054C71.4688 33.0111 69.6568 27.5053 64.6419 23.2168C62.9348 21.7381 60.936 20.633 58.7746 19.9729C56.6131 19.3128 54.337 19.1123 52.0931 19.3844C49.7166 19.6339 47.4195 20.3805 45.3515 21.5756C43.2835 22.7706 41.4912 24.3873 40.0913 26.3201C38.6914 28.2529 37.7154 30.4585 37.2271 32.793C36.7387 35.1276 36.7488 37.5386 37.2568 39.869C36.3069 37.6424 35.8412 35.24 35.8902 32.8205C35.9393 30.401 36.5021 28.0194 37.5415 25.833C40.5699 19.441 45.7321 15.9603 52.8208 15.3691Z" fill="#00A6E0"/>
</svg>
