<svg width="36" height="36" viewBox="0 0 36 36" fill="none" xmlns="http://www.w3.org/2000/svg">
<g clip-path="url(#clip0)">
<path opacity="0.4" d="M2.50873 24.7547C0.69104 26.5725 -0.207367 31.1199 0.0406491 35.9585C4.89935 36.2087 9.43368 35.301 11.2442 33.4902C14.0768 30.658 14.2586 26.8818 11.6878 24.311C9.11728 21.7404 5.341 21.9224 2.50873 24.7547ZM9.18539 30.4538C8.43091 31.2085 6.54126 31.5867 4.51648 31.4823C4.41348 29.4662 4.78784 27.5713 5.54535 26.8138C6.72528 25.6336 8.29907 25.5578 9.37024 26.6289C10.4411 27.7002 10.3656 29.2738 9.18539 30.4538H9.18539ZM3.65213 10.8622L0.177977 17.8099C0.0697029 18.0466 0.00922097 18.3024 0 18.5625C0.000115378 19.01 0.177942 19.4392 0.494385 19.7556C0.810827 20.0721 1.23998 20.2499 1.6875 20.25H8.25897C9.9072 16.9163 12.5489 11.5753 13.7357 9.18787C13.7722 9.1236 13.806 9.06358 13.8428 9H6.66705C5.51788 9.0011 4.16876 9.83496 3.65213 10.8622ZM26.8127 22.259C24.4248 23.4548 19.0739 26.1037 15.75 27.7486V34.3272C15.7561 34.771 15.936 35.1948 16.2509 35.5075C16.5659 35.8202 16.9909 35.997 17.4348 36C17.693 35.9902 17.9469 35.9298 18.1818 35.822L25.1235 32.3492C26.1519 31.8351 26.9868 30.486 26.9868 29.3357V22.1979C26.9915 22.195 26.9956 22.1917 27 22.1888V22.1517C26.9363 22.1883 26.8772 22.2222 26.8127 22.259Z" fill="#0084F8"/>
<path d="M35.5194 1.37219C35.4701 1.15705 35.3613 0.960095 35.2055 0.80381C35.0496 0.647526 34.853 0.53821 34.638 0.488342C32.36 0 30.5423 0 28.7922 0C22.5239 0 17.7759 2.85576 13.8502 8.98723C13.8109 9.05603 13.775 9.11921 13.736 9.18787C12.5492 11.5753 9.9075 16.9163 8.25928 20.25H9.00031C9.88673 20.25 10.7645 20.4246 11.5834 20.7638C12.4024 21.103 13.1465 21.6002 13.7733 22.227C14.4001 22.8538 14.8973 23.5979 15.2365 24.4169C15.5757 25.2358 15.7503 26.1136 15.7503 27V27.7486C19.0742 26.1037 24.4251 23.4549 26.813 22.259C26.8805 22.2204 26.9418 22.1852 27.0091 22.1467C33.1427 18.2049 35.9992 13.4622 35.9992 7.2209C36.0047 5.45677 36.0093 3.66243 35.5194 1.37219ZM25.8753 13.5C25.2078 13.5 24.5553 13.3021 24.0003 12.9312C23.4452 12.5604 23.0127 12.0333 22.7572 11.4166C22.5018 10.7999 22.4349 10.1213 22.5651 9.46662C22.6953 8.81194 23.0168 8.21057 23.4888 7.73856C23.9607 7.26656 24.5621 6.94511 25.2168 6.81487C25.8715 6.68463 26.55 6.75144 27.1668 7.00687C27.7835 7.26229 28.3106 7.69485 28.6814 8.24985C29.0523 8.80485 29.2503 9.45736 29.2503 10.1249C29.2499 11.0199 28.8942 11.8781 28.2614 12.511C27.6285 13.1439 26.7703 13.4996 25.8753 13.5ZM5.54566 26.8138C4.78815 27.5713 4.41379 29.4662 4.51679 31.4823C6.54157 31.5867 8.43121 31.2085 9.1857 30.4538C10.3659 29.2738 10.4414 27.7002 9.37054 26.6289C8.29938 25.5578 6.72559 25.6336 5.54566 26.8138Z" fill="#0084F8"/>
</g>
<defs>
<clipPath id="clip0">
<rect width="36" height="36" fill="white"/>
</clipPath>
</defs>
</svg>
