<svg width="21" height="21" viewBox="0 0 21 21" fill="none" xmlns="http://www.w3.org/2000/svg">
<path d="M7.21073 0.577389C4.6016 1.45346 2.37635 3.37025 1.14077 5.78681C0.70891 6.62173 0.397015 7.50956 0.211078 8.4268C-0.262763 10.7081 0.067126 13.1364 1.14077 15.2179C1.83653 16.5761 2.83819 17.7814 4.04979 18.7222C5.1954 19.6159 6.52696 20.2744 7.94248 20.6448C9.72388 21.1152 11.6252 21.1034 13.4246 20.7036C15.0501 20.3391 16.5856 19.5747 17.8092 18.4693C19.1047 17.2993 20.0284 15.7647 20.5203 14.1125C21.0541 12.3074 21.126 10.3847 20.7902 8.53851C17.4313 8.53851 14.0724 8.53851 10.7076 8.53851C10.7076 9.9026 10.7076 11.2726 10.7076 12.6367C12.6509 12.6367 14.6002 12.6367 16.5436 12.6367C16.3157 13.9478 15.5239 15.1414 14.3963 15.8823C13.6885 16.3468 12.8788 16.6525 12.0391 16.7936C11.1934 16.9347 10.3237 16.9524 9.48396 16.7877C8.62625 16.6231 7.81052 16.2703 7.09676 15.7764C5.95715 14.9944 5.08744 13.842 4.64359 12.5544C4.18774 11.2432 4.18174 9.77913 4.64359 8.46796C4.96148 7.54484 5.4953 6.6864 6.19707 5.9926C7.06078 5.1224 8.1824 4.50503 9.39399 4.25221C10.4316 4.03466 11.5233 4.07581 12.5369 4.37568C13.4006 4.63439 14.1924 5.093 14.8462 5.70449C15.5059 5.0636 16.1597 4.41684 16.8195 3.77595C17.1614 3.42905 17.5273 3.09978 17.8631 2.74112C16.8675 1.83565 15.6919 1.10656 14.4143 0.647946C12.1231 -0.192853 9.52595 -0.210492 7.21073 0.577389Z" fill="white"/>
<path d="M7.21094 0.576602C9.52616 -0.211278 12.1233 -0.193639 14.4265 0.64128C15.7041 1.0999 16.8737 1.82898 17.8754 2.73445C17.5395 3.08724 17.1796 3.42238 16.8317 3.76928C16.1719 4.41017 15.5181 5.05694 14.8584 5.69783C14.2046 5.08634 13.4129 4.62184 12.5491 4.36901C11.5355 4.06915 10.4439 4.02799 9.4062 4.24554C8.19461 4.49837 7.07298 5.12161 6.20927 5.98593C5.50751 6.67974 4.97369 7.53817 4.65579 8.46129C3.48619 7.57345 2.31658 6.67974 1.14697 5.7919C2.37656 3.36946 4.60181 1.45268 7.21094 0.576602Z" fill="#E94435"/>
<path d="M0.211078 8.42612C0.397015 7.50889 0.714908 6.62105 1.14077 5.78613C2.31037 6.67397 3.47998 7.56768 4.64959 8.45552C4.18774 9.76669 4.19374 11.2307 4.64959 12.5419C3.47998 13.4297 2.31037 14.3235 1.14077 15.2113C0.067126 13.1416 -0.262763 10.7074 0.211078 8.42612Z" fill="#F8BB15"/>
<path d="M10.7135 8.53174C14.0724 8.53174 17.4312 8.53174 20.7961 8.53174C21.132 10.378 21.06 12.3006 20.5262 14.1057C20.0344 15.7579 19.1107 17.2984 17.8151 18.4626C16.6815 17.5982 15.5419 16.7339 14.4142 15.8696C15.5419 15.1346 16.3336 13.9352 16.5615 12.624C14.6182 12.624 12.6688 12.624 10.7255 12.624C10.7075 11.2658 10.7135 9.90171 10.7135 8.53174Z" fill="#547DBE"/>
<path d="M1.14087 15.2172C2.31048 14.3294 3.48008 13.4357 4.64969 12.5479C5.09354 13.8414 5.96325 14.9879 7.10287 15.7699C7.81663 16.2638 8.63235 16.6107 9.49006 16.7812C10.3298 16.9459 11.2055 16.9282 12.0452 16.7871C12.8849 16.646 13.6947 16.3403 14.4024 15.8758C15.536 16.7401 16.6756 17.6044 17.8033 18.4687C16.5797 19.58 15.0442 20.3385 13.4187 20.703C11.6253 21.1028 9.72398 21.1146 7.93659 20.6442C6.52106 20.2738 5.18951 19.6153 4.04389 18.7215C2.8383 17.7749 1.83664 16.5696 1.14087 15.2172Z" fill="#34A751"/>
</svg>
