<svg width="48" height="42" viewBox="0 0 48 42" fill="none" xmlns="http://www.w3.org/2000/svg">
<g clip-path="url(#clip0)">
<path opacity="0.4" d="M41.8866 7.59847L34.0674 13.8558C34.1007 14.048 34.1199 14.2424 34.1248 14.4374C34.1248 15.4817 33.71 16.4832 32.9716 17.2216C32.2332 17.9601 31.2316 18.3749 30.1873 18.3749C29.1431 18.3749 28.1415 17.9601 27.4031 17.2216C26.6647 16.4832 26.2498 15.4817 26.2498 14.4374C26.2546 14.2421 26.2741 14.0474 26.3081 13.855L18.4881 7.59847C17.715 7.91536 16.8575 7.96133 16.055 7.7289L7.72883 16.0551C7.93749 16.8487 7.89245 17.6877 7.60003 18.4544C7.30761 19.2211 6.7825 19.8771 6.09835 20.3302C5.41421 20.7833 4.60538 21.0108 3.78534 20.9809C2.96531 20.9509 2.17522 20.665 1.52594 20.1632C0.876653 19.6615 0.400757 18.969 0.165021 18.183C-0.0707146 17.397 -0.0544602 16.5569 0.211504 15.7807C0.477468 15.0044 0.979794 14.3308 1.648 13.8545C2.31621 13.3782 3.11677 13.1231 3.93735 13.1249C4.27804 13.1297 4.61667 13.1788 4.94469 13.2709L13.2709 4.94476C13.1787 4.61674 13.1296 4.27811 13.1248 3.93742C13.1248 2.89313 13.5397 1.89161 14.2781 1.15318C15.0165 0.414759 16.0181 -8.39829e-05 17.0623 -8.39829e-05C18.1066 -8.39829e-05 19.1082 0.414759 19.8466 1.15318C20.585 1.89161 20.9998 2.89313 20.9998 3.93742C20.9951 4.13274 20.9756 4.32743 20.9416 4.51984L28.7608 10.7755C29.6756 10.4069 30.6975 10.4069 31.6122 10.7755L39.4331 4.51902C39.3995 4.32683 39.38 4.13245 39.3748 3.93742C39.3685 3.08802 39.635 2.25902 40.1351 1.57241C40.6352 0.885801 41.3425 0.377839 42.1529 0.123267C42.9632 -0.131304 43.8339 -0.11904 44.6368 0.158255C45.4397 0.43555 46.1324 0.963232 46.6129 1.66365C47.0935 2.36408 47.3365 3.20025 47.3063 4.04914C47.2761 4.89802 46.9742 5.71479 46.445 6.37925C45.9158 7.04372 45.1874 7.52079 44.3668 7.74027C43.5462 7.95975 42.6769 7.91004 41.8866 7.59847Z" fill="#2CBA67"/>
<path d="M32.8125 26.25H27.5625C27.2144 26.25 26.8806 26.3883 26.6344 26.6344C26.3883 26.8806 26.25 27.2144 26.25 27.5625V40.6875C26.25 41.0356 26.3883 41.3694 26.6344 41.6156C26.8806 41.8617 27.2144 42 27.5625 42H32.8125C33.1606 42 33.4944 41.8617 33.7406 41.6156C33.9867 41.3694 34.125 41.0356 34.125 40.6875V27.5625C34.125 27.2144 33.9867 26.8806 33.7406 26.6344C33.4944 26.3883 33.1606 26.25 32.8125 26.25ZM45.9375 15.75H40.6875C40.3394 15.75 40.0056 15.8883 39.7594 16.1344C39.5133 16.3806 39.375 16.7144 39.375 17.0625V40.6875C39.375 41.0356 39.5133 41.3694 39.7594 41.6156C40.0056 41.8617 40.3394 42 40.6875 42H45.9375C46.2856 42 46.6194 41.8617 46.8656 41.6156C47.1117 41.3694 47.25 41.0356 47.25 40.6875V17.0625C47.25 16.7144 47.1117 16.3806 46.8656 16.1344C46.6194 15.8883 46.2856 15.75 45.9375 15.75ZM19.6875 15.75H14.4375C14.0894 15.75 13.7556 15.8883 13.5094 16.1344C13.2633 16.3806 13.125 16.7144 13.125 17.0625V40.6875C13.125 41.0356 13.2633 41.3694 13.5094 41.6156C13.7556 41.8617 14.0894 42 14.4375 42H19.6875C20.0356 42 20.3694 41.8617 20.6156 41.6156C20.8617 41.3694 21 41.0356 21 40.6875V17.0625C21 16.7144 20.8617 16.3806 20.6156 16.1344C20.3694 15.8883 20.0356 15.75 19.6875 15.75ZM6.5625 28.875H1.3125C0.964403 28.875 0.630564 29.0133 0.384422 29.2594C0.138281 29.5056 0 29.8394 0 30.1875L0 40.6875C0 41.0356 0.138281 41.3694 0.384422 41.6156C0.630564 41.8617 0.964403 42 1.3125 42H6.5625C6.9106 42 7.24444 41.8617 7.49058 41.6156C7.73672 41.3694 7.875 41.0356 7.875 40.6875V30.1875C7.875 29.8394 7.73672 29.5056 7.49058 29.2594C7.24444 29.0133 6.9106 28.875 6.5625 28.875Z" fill="#0084F8"/>
</g>
<defs>
<clipPath id="clip0">
<rect width="47.25" height="42" fill="white"/>
</clipPath>
</defs>
</svg>
