<svg width="34" height="34" viewBox="0 0 34 34" fill="none" xmlns="http://www.w3.org/2000/svg">
<path d="M27.9982 6.0001C31.5982 10.0001 31.8315 16.3334 31.4982 19.0001C31.4982 20.2002 30.8314 21.8334 30.498 22.5C30.6647 22.6667 31.0981 23.2 31.4982 24C31.8983 24.8 31.6649 25.6667 31.4982 26L29.498 28C29.098 28.4 27.998 28.1667 27.498 28L26.498 29.5H24.498C23.698 29.5 22.1647 27.1667 21.498 26C22.998 23.6667 26.098 18.9001 26.498 18.5C26.898 18.0999 27.998 17.6666 28.498 17.5C28.498 16.3333 28.298 13.2 27.498 10C26.498 6 20.998 3.5 15.998 3.5C10.998 3.5 8.49805 8 6.49805 10C4.89805 11.6 5.16471 15.6667 5.49805 17.5H6.49805L8.49805 19.0001C9.83138 20.6667 12.398 24.5 11.998 26.5C11.498 29 10.9982 29 8.99805 29.5C7.39792 29.9 5.99799 28.3333 5.49805 27.5C4.99805 27.6667 3.89805 28 3.49805 28C2.99805 28 2.4982 26.5 2.4982 25C2.4982 23.8 2.83143 23.1667 2.99805 23L2.4982 21.5V19.0001C2.33154 19.0001 2.0982 18.1001 2.4982 14.5C2.9982 9.9999 5.4982 4.5001 10.9982 2.0001C16.4982 -0.499901 23.4982 1.0001 27.9982 6.0001Z" fill="#FDF9A6"/>
<path d="M31.2786 23.0855L31.8201 22.1475C32.1535 21.5701 32.2937 20.9179 32.2326 20.2673C32.2416 20.2237 32.2464 20.1785 32.2464 20.1322V15.1762C32.2464 11.1222 30.6644 7.311 27.7919 4.4445C24.9196 1.57848 21.101 0 17.0393 0C12.9776 0 9.159 1.57848 6.28686 4.4445C3.41433 7.311 1.83233 11.1223 1.83233 15.1762V20.4966C1.82024 21.0701 1.96441 21.6379 2.25866 22.1475L2.78167 23.0533C2.24909 23.3911 1.86799 23.9083 1.70377 24.5212C1.53031 25.1686 1.6193 25.8448 1.95438 26.4253L2.65796 27.6439C3.1222 28.448 3.96736 28.8981 4.83515 28.898C5.22702 28.898 5.6232 28.805 5.99129 28.6127L6.11852 28.8331C6.54312 29.5684 7.2287 30.0945 8.04895 30.3144C8.32281 30.3877 8.60079 30.424 8.87697 30.424C9.42781 30.424 9.97148 30.2795 10.4614 29.9967L11.3815 29.4654C12.1169 29.0408 12.6429 28.3553 12.8628 27.535C13.0826 26.7148 12.9698 25.858 12.5452 25.1226L8.68532 18.4371C8.26072 17.7017 7.57514 17.1756 6.75489 16.9558C6.53236 16.8962 6.30712 16.8619 6.08233 16.8509V15.207C6.08233 10.3787 9.31379 6.05559 13.9406 4.69413C14.2925 4.59053 14.4937 4.22145 14.3903 3.86956C14.2867 3.51774 13.9177 3.31659 13.5657 3.41992C11.073 4.15351 8.83009 5.70304 7.25022 7.78314C5.61729 9.93325 4.75414 12.5003 4.75414 15.207V16.9576C4.75414 16.9957 4.75806 17.0328 4.76423 17.0691C4.62013 17.1264 4.47915 17.1944 4.34242 17.2734L3.42229 17.8046C3.33172 17.8569 3.24446 17.9132 3.16045 17.9732V15.1762C3.16045 7.54036 9.38651 1.32812 17.0394 1.32812C24.6922 1.32812 30.9183 7.54036 30.9183 15.1762V17.9732C30.8343 17.9132 30.7469 17.8569 30.6564 17.8046L29.7363 17.2734C29.5996 17.1944 29.4586 17.1264 29.3145 17.0691C29.3207 17.0328 29.3246 16.9958 29.3246 16.9576V15.207C29.3246 12.4714 28.4447 9.88231 26.7801 7.71973C25.1684 5.6258 22.8866 4.08272 20.3554 3.3747C20.0027 3.27609 19.6358 3.48214 19.5371 3.83543C19.4383 4.18857 19.6445 4.555 19.9978 4.65382C24.7072 5.97105 27.9963 10.3108 27.9963 15.207V16.8508C27.7715 16.8619 27.5464 16.8961 27.3238 16.9558C26.5034 17.1756 25.8179 17.7016 25.3933 18.4371L21.5335 25.1226C21.1088 25.858 20.996 26.7148 21.2159 27.535C21.4357 28.3553 21.9617 29.0409 22.6972 29.4654L23.6173 29.9967C24.1072 30.2796 24.6508 30.4241 25.2017 30.424C25.4778 30.424 25.7558 30.3877 26.0297 30.3144C26.85 30.0945 27.5356 29.5685 27.9601 28.8331L28.0726 28.6382C28.4045 28.8 28.7625 28.8846 29.1252 28.8904V30.3809C29.1252 31.6441 28.0975 32.6719 26.8342 32.6719H19.4558V30.8125C19.4558 29.4943 18.3834 28.4219 17.0652 28.4219C15.747 28.4219 14.6746 29.4943 14.6746 30.8125V33.3359C14.6746 33.7026 14.9719 34 15.3386 34H26.8342C28.8299 34 30.4534 32.3765 30.4534 30.3809V28.5374C30.8183 28.3207 31.1239 28.0135 31.3419 27.636L32.0455 26.4173C32.7072 25.2713 32.3584 23.8154 31.2786 23.0855ZM4.08636 18.9549L5.00648 18.4236C5.29727 18.2557 5.61503 18.176 5.92893 18.176C6.56915 18.176 7.19264 18.5081 7.53517 19.1012L11.395 25.7867C11.9054 26.6707 11.6014 27.805 10.7175 28.3154L9.79736 28.8466C8.91336 29.3569 7.77908 29.0529 7.26874 28.1691L3.40881 21.4835C2.89842 20.5996 3.20236 19.4652 4.08636 18.9549ZM3.44693 24.2058L5.32636 27.461C5.07581 27.5774 4.79511 27.6026 4.52524 27.5301C4.2205 27.4485 3.96576 27.2531 3.80805 26.9799L3.10447 25.7612C2.94676 25.488 2.90486 25.1698 2.98654 24.865C3.05892 24.5949 3.22088 24.3646 3.44693 24.2058ZM18.1278 32.6719H16.0028V30.8125C16.0028 30.2267 16.4794 29.75 17.0653 29.75C17.6511 29.75 18.1278 30.2267 18.1278 30.8125V32.6719ZM26.81 28.1689C26.2997 29.0529 25.1652 29.3567 24.2814 28.8465L23.3612 28.3153C22.4772 27.8049 22.1733 26.6705 22.6837 25.7867L26.5436 19.1012C26.886 18.508 27.5095 18.1759 28.1498 18.1759C28.4636 18.1759 28.7815 18.2557 29.0722 18.4236L29.9924 18.9548C30.8764 19.4652 31.1803 20.5996 30.6699 21.4834L26.81 28.1689ZM30.8954 25.7533L30.1918 26.972C30.0341 27.2451 29.7794 27.4406 29.4747 27.5222C29.2285 27.5881 28.9738 27.5721 28.7409 27.4808L30.6105 24.2425C31.0577 24.6008 31.1904 25.2421 30.8954 25.7533Z" fill="#FDA117"/>
<path d="M17.0425 2.92188C17.0105 2.92188 16.9789 2.92413 16.9481 2.92858C16.5827 2.97713 16.3674 3.28731 16.3672 3.586C16.3671 3.90934 16.6171 4.24635 17.0358 4.25053C17.0381 4.2506 17.0404 4.2506 17.0426 4.2506C17.065 4.2506 17.087 4.24947 17.1088 4.24734C17.4489 4.21633 17.7193 3.92999 17.7178 3.58295C17.7161 3.21738 17.4081 2.92188 17.0425 2.92188Z" fill="#FDA117"/>
<path d="M13.7237 20.6191H13.6719C13.3052 20.6191 13.0078 20.9165 13.0078 21.2832C13.0078 21.6499 13.3052 21.9473 13.6719 21.9473H13.7237C14.0904 21.9473 14.3877 21.6499 14.3877 21.2832C14.3877 20.9165 14.0904 20.6191 13.7237 20.6191Z" fill="#FDA117"/>
<path d="M17.0674 20.6191H17.0156C16.6489 20.6191 16.3516 20.9165 16.3516 21.2832C16.3516 21.6499 16.6489 21.9473 17.0156 21.9473H17.0674C17.4341 21.9473 17.7314 21.6499 17.7314 21.2832C17.7314 20.9165 17.434 20.6191 17.0674 20.6191Z" fill="#FDA117"/>
<path d="M20.4073 20.6191H20.3555C19.9888 20.6191 19.6914 20.9165 19.6914 21.2832C19.6914 21.6499 19.9888 21.9473 20.3555 21.9473H20.4073C20.774 21.9473 21.0713 21.6499 21.0713 21.2832C21.0713 20.9165 20.7739 20.6191 20.4073 20.6191Z" fill="#FDA117"/>
</svg>
