<svg width="189" height="48" viewBox="0 0 189 48" fill="none" xmlns="http://www.w3.org/2000/svg">
<rect width="189" height="48" rx="5" fill="#FFC931"/>
<path d="M45.2222 14.7461L49.6036 18.2843C49.8269 18.5101 49.9657 18.7951 50 19.098C49.9717 19.3619 49.8662 19.614 49.6947 19.8278L48.0964 21.4531C47.8507 21.6571 47.5403 21.7841 47.2102 21.8156C46.9207 21.7886 46.6444 21.6912 46.4099 21.5337L45.2222 20.578V34.9225C45.2222 35.5019 44.9705 36.0575 44.5225 36.4672C44.0745 36.8769 43.4669 37.107 42.8333 37.107H14.1734C13.5398 37.107 12.9322 36.8769 12.4842 36.4672C12.0362 36.0575 11.7845 35.5019 11.7845 34.9225V20.5794L10.5975 21.5351C10.3638 21.6923 10.0882 21.7892 9.79948 21.8156C9.46647 21.7849 9.15275 21.6582 8.90365 21.4538L7.30533 19.8298C7.12222 19.6214 7.01541 19.3656 7 19.0987C7.01744 18.793 7.15721 18.5039 7.39267 18.2863L26.5038 2.8584C26.9726 2.46998 27.8632 2.15527 28.5 2.15527C29.1368 2.15527 30.0304 2.46998 30.4992 2.8584L38.0556 8.95926V5.432C38.0556 5.14232 38.1814 4.8645 38.4054 4.65967C38.6294 4.45483 38.9332 4.33976 39.25 4.33976H44.0278C44.3446 4.33976 44.6484 4.45483 44.8724 4.65967C45.0964 4.8645 45.2222 5.14232 45.2222 5.432V14.7461Z" fill="#0084F8"/>
<path d="M48.903 17.1241C41.1218 10.4158 31.228 16.3062 31.0606 24.2999C31.0188 26.3344 31.6184 28.3207 32.8037 30.149H40.5013L41.8679 27.9015C42.2653 27.2485 43.2275 27.2279 43.6458 27.8809L46.5324 32.3554L50.7437 23.5988C51.1133 22.8358 52.2079 22.8083 52.6123 23.5507L56.2171 30.1559H64.9953C71.4936 20.1346 58.6435 8.71804 48.903 17.1241Z" fill="#FFC931"/>
<path d="M48.903 17.1241C41.1218 10.4158 31.228 16.3062 31.0606 24.2999C31.0188 26.3344 31.6184 28.3207 32.8037 30.149H40.5013L41.8679 27.9015C42.2653 27.2485 43.2275 27.2279 43.6458 27.8809L46.5324 32.3554L50.7437 23.5988C51.1133 22.8358 52.2079 22.8083 52.6123 23.5507L56.2171 30.1559H64.9953C71.4936 20.1346 58.6435 8.71804 48.903 17.1241Z" stroke="white"/>
<path d="M54.5885 31.7481L51.7124 26.3047L47.6419 35.0533C47.2987 35.801 46.2759 35.8639 45.8434 35.1651L44.0677 23.2793L41.0423 26.0021C40.9907 26.0898 40.9256 26.2461 40.8506 26.4261C40.6567 26.8916 40.3971 27.5148 40.1347 27.5148L32.5713 29.9351C32.5886 29.9533 32.6116 29.9788 32.6478 30.0189C33.0432 30.4567 35.009 32.6334 48.1773 45.9682C48.5754 46.3735 49.2275 46.3735 49.6325 45.9682C62.9431 32.497 62.9722 32.4659 63.0987 32.3308C63.1067 32.3222 63.1152 32.3132 63.1276 32.3002H55.4946C55.117 32.3002 54.7738 32.0905 54.5885 31.7481Z" fill="#FFC931"/>
<path d="M54.5885 31.7481L51.7124 26.3047L47.6419 35.0533C47.2987 35.801 46.2759 35.8639 45.8434 35.1651L44.0677 23.2793L41.0423 26.0021C40.9907 26.0898 40.9256 26.2461 40.8506 26.4261C40.6567 26.8916 40.3971 27.5148 40.1347 27.5148L32.5713 29.9351C32.5886 29.9533 32.6116 29.9788 32.6478 30.0189C33.0432 30.4567 35.009 32.6334 48.1773 45.9682C48.5754 46.3735 49.2275 46.3735 49.6325 45.9682C62.9431 32.497 62.9722 32.4659 63.0987 32.3308C63.1067 32.3222 63.1152 32.3132 63.1276 32.3002H55.4946C55.117 32.3002 54.7738 32.0905 54.5885 31.7481Z" stroke="white"/>
<path d="M47.996 18.4295C41.6655 12.8926 33.6163 17.7544 33.4802 24.3521C33.4461 26.0314 33.934 27.6709 34.8983 29.1799H41.1607L42.2725 27.3248C42.5958 26.7859 43.3786 26.7689 43.719 27.3078L46.0674 31.001L49.4935 23.7735C49.7942 23.1438 50.6848 23.1211 51.0138 23.7338L53.9464 29.1856H61.0881C66.3748 20.9143 55.9204 11.4913 47.996 18.4295Z" fill="#0084F8"/>
<path d="M47.996 18.4295C41.6655 12.8926 33.6163 17.7544 33.4802 24.3521C33.4461 26.0314 33.934 27.6709 34.8983 29.1799H41.1607L42.2725 27.3248C42.5958 26.7859 43.3786 26.7689 43.719 27.3078L46.0674 31.001L49.4935 23.7735C49.7942 23.1438 50.6848 23.1211 51.0138 23.7338L53.9464 29.1856H61.0881C66.3748 20.9143 55.9204 11.4913 47.996 18.4295Z" stroke="white"/>
<path d="M52.6876 30.434L50.3109 26.0146L46.9471 33.1173C46.6635 33.7243 45.8183 33.7754 45.4609 33.2081L43.0218 29.3788L42.3694 30.468C42.2163 30.7233 41.9383 30.8821 41.6377 30.8821H36.2432C36.2553 30.8947 36.262 30.9018 36.2683 30.9085C36.3497 30.9948 36.3619 31.0078 47.3896 41.9786C47.7186 42.3077 48.2574 42.3077 48.5921 41.9786C59.5916 31.0419 59.6157 31.0167 59.7203 30.907C59.727 30.9 59.734 30.8927 59.7442 30.8821H53.4364C53.1244 30.8821 52.8408 30.7119 52.6876 30.434Z" fill="#0084F8"/>
<path d="M52.6876 30.434L50.3109 26.0146L46.9471 33.1173C46.6635 33.7243 45.8183 33.7754 45.4609 33.2081L43.0218 29.3788L42.3694 30.468C42.2163 30.7233 41.9383 30.8821 41.6377 30.8821H36.2432C36.2553 30.8947 36.262 30.9018 36.2683 30.9085C36.3497 30.9948 36.3619 31.0078 47.3896 41.9786C47.7186 42.3077 48.2574 42.3077 48.5921 41.9786C59.5916 31.0419 59.6157 31.0167 59.7203 30.907C59.727 30.9 59.734 30.8927 59.7442 30.8821H53.4364C53.1244 30.8821 52.8408 30.7119 52.6876 30.434Z" stroke="white"/>
<path d="M72.3594 20H70.5078V8.57812H76.9531V10.1562H72.3594V13.7266H76.6641V15.3125H72.3594V20ZM80.8906 13.8906H82.1875C83.0573 13.8906 83.6875 13.7292 84.0781 13.4062C84.4688 13.0833 84.6641 12.6042 84.6641 11.9688C84.6641 11.3229 84.4531 10.8594 84.0312 10.5781C83.6094 10.2969 82.974 10.1562 82.125 10.1562H80.8906V13.8906ZM80.8906 15.4375V20H79.0234V8.57812H82.25C83.724 8.57812 84.8151 8.85417 85.5234 9.40625C86.2318 9.95833 86.5859 10.7917 86.5859 11.9062C86.5859 13.3281 85.8464 14.3411 84.3672 14.9453L87.5938 20H85.4688L82.7344 15.4375H80.8906ZM95.7188 20H89.2578V8.57812H95.7188V10.1562H91.125V13.2656H95.4297V14.8281H91.125V18.4141H95.7188V20ZM104.656 20H98.1953V8.57812H104.656V10.1562H100.062V13.2656H104.367V14.8281H100.062V18.4141H104.656V20ZM118.852 12.0312C118.852 13.224 118.461 14.138 117.68 14.7734C116.898 15.4089 115.786 15.7266 114.344 15.7266H113.156V20H111.289V8.57812H114.578C116.005 8.57812 117.073 8.86979 117.781 9.45312C118.495 10.0365 118.852 10.8958 118.852 12.0312ZM113.156 14.1562H114.148C115.107 14.1562 115.81 13.9896 116.258 13.6562C116.706 13.3229 116.93 12.8021 116.93 12.0938C116.93 11.4375 116.729 10.9479 116.328 10.625C115.927 10.3021 115.302 10.1406 114.453 10.1406H113.156V14.1562ZM125.32 11.2031C125.69 11.2031 125.995 11.2292 126.234 11.2812L126.055 12.9922C125.794 12.9297 125.523 12.8984 125.242 12.8984C124.508 12.8984 123.911 13.138 123.453 13.6172C123 14.0964 122.773 14.7188 122.773 15.4844V20H120.938V11.3594H122.375L122.617 12.8828H122.711C122.997 12.3672 123.37 11.9583 123.828 11.6562C124.292 11.3542 124.789 11.2031 125.32 11.2031ZM135.508 15.6641C135.508 17.0755 135.146 18.1771 134.422 18.9688C133.698 19.7604 132.69 20.1562 131.398 20.1562C130.591 20.1562 129.878 19.974 129.258 19.6094C128.638 19.2448 128.161 18.7214 127.828 18.0391C127.495 17.3568 127.328 16.5651 127.328 15.6641C127.328 14.263 127.688 13.1693 128.406 12.3828C129.125 11.5964 130.138 11.2031 131.445 11.2031C132.695 11.2031 133.685 11.6068 134.414 12.4141C135.143 13.2161 135.508 14.2995 135.508 15.6641ZM129.219 15.6641C129.219 17.6589 129.956 18.6562 131.43 18.6562C132.888 18.6562 133.617 17.6589 133.617 15.6641C133.617 13.6901 132.883 12.7031 131.414 12.7031C130.643 12.7031 130.083 12.9583 129.734 13.4688C129.391 13.9792 129.219 14.7109 129.219 15.6641ZM142.008 20.1562C140.914 20.1562 140.065 19.763 139.461 18.9766H139.352C139.424 19.7057 139.461 20.1484 139.461 20.3047V23.8438H137.625V11.3594H139.109C139.151 11.5208 139.237 11.9062 139.367 12.5156H139.461C140.034 11.6406 140.893 11.2031 142.039 11.2031C143.117 11.2031 143.956 11.5938 144.555 12.375C145.159 13.1562 145.461 14.2526 145.461 15.6641C145.461 17.0755 145.154 18.1771 144.539 18.9688C143.93 19.7604 143.086 20.1562 142.008 20.1562ZM141.562 12.7031C140.833 12.7031 140.299 12.9167 139.961 13.3438C139.628 13.7708 139.461 14.4531 139.461 15.3906V15.6641C139.461 16.7161 139.628 17.4792 139.961 17.9531C140.294 18.4219 140.839 18.6562 141.594 18.6562C142.229 18.6562 142.719 18.3958 143.062 17.875C143.406 17.3542 143.578 16.612 143.578 15.6484C143.578 14.6797 143.406 13.9479 143.062 13.4531C142.724 12.9531 142.224 12.7031 141.562 12.7031ZM151.367 20.1562C150.023 20.1562 148.971 19.7656 148.211 18.9844C147.456 18.1979 147.078 17.1172 147.078 15.7422C147.078 14.3307 147.43 13.2214 148.133 12.4141C148.836 11.6068 149.802 11.2031 151.031 11.2031C152.172 11.2031 153.073 11.5495 153.734 12.2422C154.396 12.9349 154.727 13.888 154.727 15.1016V16.0938H148.969C148.995 16.9323 149.221 17.5781 149.648 18.0312C150.076 18.4792 150.677 18.7031 151.453 18.7031C151.964 18.7031 152.438 18.6562 152.875 18.5625C153.318 18.4635 153.792 18.3021 154.297 18.0781V19.5703C153.849 19.7839 153.396 19.9349 152.938 20.0234C152.479 20.112 151.956 20.1562 151.367 20.1562ZM151.031 12.5938C150.448 12.5938 149.979 12.7786 149.625 13.1484C149.276 13.5182 149.068 14.0573 149 14.7656H152.922C152.911 14.0521 152.74 13.513 152.406 13.1484C152.073 12.7786 151.615 12.5938 151.031 12.5938ZM161.195 11.2031C161.565 11.2031 161.87 11.2292 162.109 11.2812L161.93 12.9922C161.669 12.9297 161.398 12.8984 161.117 12.8984C160.383 12.8984 159.786 13.138 159.328 13.6172C158.875 14.0964 158.648 14.7188 158.648 15.4844V20H156.812V11.3594H158.25L158.492 12.8828H158.586C158.872 12.3672 159.245 11.9583 159.703 11.6562C160.167 11.3542 160.664 11.2031 161.195 11.2031ZM166.938 18.6719C167.385 18.6719 167.833 18.6016 168.281 18.4609V19.8438C168.078 19.9323 167.815 20.0052 167.492 20.0625C167.174 20.125 166.844 20.1562 166.5 20.1562C164.76 20.1562 163.891 19.2396 163.891 17.4062V12.75H162.711V11.9375L163.977 11.2656L164.602 9.4375H165.734V11.3594H168.195V12.75H165.734V17.375C165.734 17.8177 165.844 18.1458 166.062 18.3594C166.286 18.5677 166.578 18.6719 166.938 18.6719ZM168.703 11.3594H170.703L172.461 16.2578C172.727 16.9557 172.904 17.612 172.992 18.2266H173.055C173.102 17.9401 173.188 17.5938 173.312 17.1875C173.438 16.776 174.099 14.8333 175.297 11.3594H177.281L173.586 21.1484C172.914 22.9453 171.794 23.8438 170.227 23.8438C169.82 23.8438 169.424 23.7995 169.039 23.7109V22.2578C169.315 22.3203 169.63 22.3516 169.984 22.3516C170.87 22.3516 171.492 21.8385 171.852 20.8125L172.172 20L168.703 11.3594ZM79.5156 40H77.6406V34.8516H72.375V40H70.5078V28.5781H72.375V33.25H77.6406V28.5781H79.5156V40ZM86.1016 40.1562C84.7578 40.1562 83.7057 39.7656 82.9453 38.9844C82.1901 38.1979 81.8125 37.1172 81.8125 35.7422C81.8125 34.3307 82.1641 33.2214 82.8672 32.4141C83.5703 31.6068 84.5365 31.2031 85.7656 31.2031C86.9062 31.2031 87.8073 31.5495 88.4688 32.2422C89.1302 32.9349 89.4609 33.888 89.4609 35.1016V36.0938H83.7031C83.7292 36.9323 83.9557 37.5781 84.3828 38.0312C84.8099 38.4792 85.4115 38.7031 86.1875 38.7031C86.6979 38.7031 87.1719 38.6562 87.6094 38.5625C88.0521 38.4635 88.526 38.3021 89.0312 38.0781V39.5703C88.5833 39.7839 88.1302 39.9349 87.6719 40.0234C87.2135 40.112 86.6901 40.1562 86.1016 40.1562ZM85.7656 32.5938C85.1823 32.5938 84.7135 32.7786 84.3594 33.1484C84.0104 33.5182 83.8021 34.0573 83.7344 34.7656H87.6562C87.6458 34.0521 87.474 33.513 87.1406 33.1484C86.8073 32.7786 86.349 32.5938 85.7656 32.5938ZM96.9531 40L96.5859 38.7969H96.5234C96.1068 39.3229 95.6875 39.6823 95.2656 39.875C94.8438 40.0625 94.3021 40.1562 93.6406 40.1562C92.7917 40.1562 92.1276 39.9271 91.6484 39.4688C91.1745 39.0104 90.9375 38.362 90.9375 37.5234C90.9375 36.6328 91.2682 35.9609 91.9297 35.5078C92.5911 35.0547 93.599 34.8073 94.9531 34.7656L96.4453 34.7188V34.2578C96.4453 33.7057 96.3151 33.2943 96.0547 33.0234C95.7995 32.7474 95.401 32.6094 94.8594 32.6094C94.4167 32.6094 93.9922 32.6745 93.5859 32.8047C93.1797 32.9349 92.7891 33.0885 92.4141 33.2656L91.8203 31.9531C92.2891 31.7083 92.8021 31.5234 93.3594 31.3984C93.9167 31.2682 94.4427 31.2031 94.9375 31.2031C96.0365 31.2031 96.8646 31.4427 97.4219 31.9219C97.9844 32.401 98.2656 33.1536 98.2656 34.1797V40H96.9531ZM94.2188 38.75C94.8854 38.75 95.4193 38.5651 95.8203 38.1953C96.2266 37.8203 96.4297 37.2969 96.4297 36.625V35.875L95.3203 35.9219C94.4557 35.9531 93.8255 36.099 93.4297 36.3594C93.0391 36.6146 92.8438 37.0078 92.8438 37.5391C92.8438 37.9245 92.9583 38.224 93.1875 38.4375C93.4167 38.6458 93.7604 38.75 94.2188 38.75ZM102.664 40H100.828V27.8438H102.664V40ZM108.516 38.6719C108.964 38.6719 109.411 38.6016 109.859 38.4609V39.8438C109.656 39.9323 109.393 40.0052 109.07 40.0625C108.753 40.125 108.422 40.1562 108.078 40.1562C106.339 40.1562 105.469 39.2396 105.469 37.4062V32.75H104.289V31.9375L105.555 31.2656L106.18 29.4375H107.312V31.3594H109.773V32.75H107.312V37.375C107.312 37.8177 107.422 38.1458 107.641 38.3594C107.865 38.5677 108.156 38.6719 108.516 38.6719ZM119.195 40H117.352V34.6875C117.352 34.0208 117.216 33.5234 116.945 33.1953C116.68 32.8672 116.255 32.7031 115.672 32.7031C114.901 32.7031 114.333 32.9349 113.969 33.3984C113.609 33.8568 113.43 34.6276 113.43 35.7109V40H111.594V27.8438H113.43V30.9297C113.43 31.4245 113.398 31.9531 113.336 32.5156H113.453C113.703 32.099 114.049 31.776 114.492 31.5469C114.94 31.3177 115.461 31.2031 116.055 31.2031C118.148 31.2031 119.195 32.2578 119.195 34.3672V40ZM130.961 30.0156C129.888 30.0156 129.044 30.3958 128.43 31.1562C127.815 31.9167 127.508 32.9661 127.508 34.3047C127.508 35.7057 127.802 36.7656 128.391 37.4844C128.984 38.2031 129.841 38.5625 130.961 38.5625C131.445 38.5625 131.914 38.5156 132.367 38.4219C132.82 38.3229 133.292 38.1979 133.781 38.0469V39.6484C132.885 39.987 131.87 40.1562 130.734 40.1562C129.062 40.1562 127.779 39.651 126.883 38.6406C125.987 37.625 125.539 36.1745 125.539 34.2891C125.539 33.1016 125.755 32.0625 126.188 31.1719C126.625 30.2812 127.255 29.599 128.078 29.125C128.901 28.651 129.867 28.4141 130.977 28.4141C132.143 28.4141 133.221 28.6589 134.211 29.1484L133.539 30.7031C133.154 30.5208 132.745 30.362 132.312 30.2266C131.885 30.0859 131.435 30.0156 130.961 30.0156ZM143.648 40H141.805V34.6875C141.805 34.0208 141.669 33.5234 141.398 33.1953C141.133 32.8672 140.708 32.7031 140.125 32.7031C139.354 32.7031 138.786 32.9349 138.422 33.3984C138.062 33.8568 137.883 34.6276 137.883 35.7109V40H136.047V27.8438H137.883V30.9297C137.883 31.4245 137.852 31.9531 137.789 32.5156H137.906C138.156 32.099 138.503 31.776 138.945 31.5469C139.393 31.3177 139.914 31.2031 140.508 31.2031C142.602 31.2031 143.648 32.2578 143.648 34.3672V40ZM149.977 40.1562C148.633 40.1562 147.581 39.7656 146.82 38.9844C146.065 38.1979 145.688 37.1172 145.688 35.7422C145.688 34.3307 146.039 33.2214 146.742 32.4141C147.445 31.6068 148.411 31.2031 149.641 31.2031C150.781 31.2031 151.682 31.5495 152.344 32.2422C153.005 32.9349 153.336 33.888 153.336 35.1016V36.0938H147.578C147.604 36.9323 147.831 37.5781 148.258 38.0312C148.685 38.4792 149.286 38.7031 150.062 38.7031C150.573 38.7031 151.047 38.6562 151.484 38.5625C151.927 38.4635 152.401 38.3021 152.906 38.0781V39.5703C152.458 39.7839 152.005 39.9349 151.547 40.0234C151.089 40.112 150.565 40.1562 149.977 40.1562ZM149.641 32.5938C149.057 32.5938 148.589 32.7786 148.234 33.1484C147.885 33.5182 147.677 34.0573 147.609 34.7656H151.531C151.521 34.0521 151.349 33.513 151.016 33.1484C150.682 32.7786 150.224 32.5938 149.641 32.5938ZM158.906 40.1562C157.599 40.1562 156.604 39.776 155.922 39.0156C155.245 38.25 154.906 37.1536 154.906 35.7266C154.906 34.2734 155.26 33.1562 155.969 32.375C156.682 31.5938 157.711 31.2031 159.055 31.2031C159.966 31.2031 160.786 31.3724 161.516 31.7109L160.961 33.1875C160.185 32.8854 159.544 32.7344 159.039 32.7344C157.544 32.7344 156.797 33.7266 156.797 35.7109C156.797 36.6797 156.982 37.4089 157.352 37.8984C157.727 38.3828 158.273 38.625 158.992 38.625C159.81 38.625 160.583 38.4219 161.312 38.0156V39.6172C160.984 39.8099 160.633 39.9479 160.258 40.0312C159.888 40.1146 159.438 40.1562 158.906 40.1562ZM165.117 35.4375L166.156 34.1406L168.766 31.3594H170.883L167.406 35.0703L171.102 40H168.945L166.172 36.2109L165.164 37.0391V40H163.344V27.8438H165.164V33.7734L165.07 35.4375H165.117Z" fill="black"/>
</svg>
