<svg width="31" height="33" viewBox="0 0 31 33" fill="none" xmlns="http://www.w3.org/2000/svg">
<circle cx="15.25" cy="16.5" r="14.5" fill="#F4E9FF"/>
<path d="M20.247 15.5832C21.1288 14.8752 21.6949 13.7894 21.6949 12.5733C21.6949 10.4452 19.9633 8.71387 17.8348 8.71387C15.7067 8.71387 13.9754 10.4452 13.9754 12.5733C13.9754 13.7891 14.5409 14.8746 15.4221 15.5825C14.4542 15.9504 13.5774 16.5374 12.8633 17.3058C13.1624 16.864 13.3373 16.3317 13.3373 15.7591C13.3373 14.2342 12.0966 12.9935 10.5716 12.9935C9.04668 12.9935 7.80602 14.2342 7.80602 15.7591C7.80602 16.5028 8.1016 17.1783 8.58075 17.6758C6.98379 18.4265 5.875 20.0499 5.875 21.9278C5.875 22.2848 6.1644 22.5743 6.52147 22.5743H11.6933H23.9763C24.3333 22.5743 24.6228 22.2848 24.6228 21.9278C24.6228 19.0342 22.8025 16.5581 20.247 15.5832ZM15.2683 12.5734C15.2683 11.1582 16.4197 10.0069 17.8348 10.0069C19.2503 10.0069 20.402 11.1583 20.402 12.5734C20.402 13.9885 19.2504 15.1399 17.8348 15.1399C16.4196 15.1399 15.2683 13.9886 15.2683 12.5734ZM11.0784 21.2815H7.22961C7.53235 19.713 8.91578 18.5248 10.5716 18.5248C11.005 18.5248 11.4305 18.6071 11.8279 18.7648C11.4153 19.5462 11.1619 20.3987 11.0784 21.2815ZM10.5716 17.2318C9.7596 17.2318 9.09895 16.5712 9.09895 15.7592C9.09895 14.9471 9.7596 14.2865 10.5716 14.2865C11.3837 14.2865 12.0443 14.9472 12.0443 15.7592C12.0443 16.5712 11.3837 17.2318 10.5716 17.2318ZM12.3774 21.2814C12.4784 20.4191 12.7814 19.5958 13.2684 18.8704C13.2707 18.867 13.2729 18.8637 13.2752 18.8602C14.3 17.3402 16.004 16.4329 17.8348 16.4329C20.6462 16.4329 22.9712 18.5549 23.2921 21.2814H12.3774Z" fill="#695AC7"/>
<path d="M14.6846 1.94535C14.6846 1.92537 14.6835 1.90552 14.6816 1.88567C14.6813 1.8827 14.6811 1.8798 14.6808 1.8769C14.679 1.85995 14.6763 1.84313 14.6731 1.82637C14.6721 1.82128 14.6713 1.81612 14.6702 1.81103C14.6671 1.79666 14.6633 1.78248 14.6592 1.7683C14.6573 1.76172 14.6556 1.75496 14.6534 1.74851C14.6494 1.73575 14.6445 1.72337 14.6396 1.71087C14.6368 1.70365 14.6342 1.6963 14.6311 1.68921C14.626 1.67755 14.6202 1.6662 14.6144 1.6548C14.6107 1.64745 14.6072 1.63997 14.6032 1.63282C14.5974 1.62225 14.5908 1.61194 14.5843 1.60169C14.5795 1.59415 14.5749 1.58648 14.5698 1.57919C14.5636 1.57023 14.5568 1.5616 14.5501 1.5529C14.5436 1.54458 14.5372 1.53614 14.5303 1.52815C14.5245 1.52144 14.5183 1.51487 14.5123 1.50829C14.505 1.50043 14.4978 1.49237 14.4902 1.4849C14.4898 1.48451 14.4895 1.48406 14.489 1.48367C14.4877 1.48245 14.4862 1.48142 14.485 1.48019C14.4848 1.48013 14.4848 1.48 14.4846 1.47993C14.4801 1.47555 14.4752 1.47136 14.4704 1.46704C14.4585 1.45628 14.4463 1.44597 14.4336 1.43617C14.4313 1.43443 14.4294 1.43237 14.4271 1.43069L12.7062 0.130606C12.4214 -0.0844742 12.0159 -0.0280776 11.8007 0.256806C11.5855 0.541625 11.642 0.9471 11.9269 1.16231L12.398 1.51822C9.34817 2.09746 6.52879 3.60348 4.33325 5.8527C1.73811 8.51127 0.206182 12.0209 0.0194608 15.7351C-0.172674 19.5533 1.06302 23.2771 3.49884 26.2202C5.91919 29.1447 9.3131 31.0526 13.0556 31.5925C13.0869 31.597 13.118 31.5992 13.1487 31.5992C13.4649 31.5992 13.7413 31.367 13.7878 31.045C13.839 30.6915 13.5939 30.3637 13.2406 30.3128C6.07517 29.2791 0.946685 23.0401 1.31097 15.7999C1.63511 9.35051 6.37481 4.00296 12.5853 2.79852L12.2212 3.28005C12.0059 3.5648 12.0623 3.97028 12.347 4.18555C12.4637 4.27379 12.6006 4.31639 12.7364 4.31639C12.9321 4.31639 13.1254 4.2279 13.2525 4.05968L14.5546 2.33749C14.6429 2.2207 14.6848 2.0836 14.6846 1.94774C14.6846 1.94729 14.6847 1.94683 14.6847 1.94638C14.6847 1.94606 14.6846 1.94567 14.6846 1.94535Z" fill="#695AC7"/>
<path d="M28.023 8.1639C27.8275 7.86509 27.427 7.78111 27.1281 7.9766C26.8292 8.17196 26.7453 8.57266 26.9407 8.87147C28.5617 11.351 29.3397 14.2306 29.1905 17.1988C28.8659 23.6487 24.1259 28.9969 17.9155 30.2011L18.2797 29.7194C18.495 29.4346 18.4386 29.0292 18.1538 28.8138C17.869 28.5985 17.4635 28.655 17.2482 28.9397L15.9469 30.6612C15.8022 30.8526 15.7807 31.0982 15.8682 31.3042C15.8683 31.3044 15.8683 31.3045 15.8684 31.3047C15.8762 31.3232 15.885 31.3412 15.8946 31.3589C15.8951 31.3599 15.8955 31.3609 15.8961 31.3618C15.9049 31.378 15.9146 31.3938 15.9249 31.4091C15.9264 31.4114 15.9278 31.4139 15.9294 31.4162C15.9384 31.4293 15.9482 31.442 15.9582 31.4546C15.9617 31.459 15.9651 31.4636 15.9688 31.4679C15.977 31.4776 15.9858 31.487 15.9946 31.4963C16.0011 31.5032 16.0077 31.5102 16.0145 31.5167C16.0211 31.523 16.0281 31.5292 16.035 31.5353C16.0452 31.5444 16.0558 31.5534 16.0666 31.5618C16.0687 31.5635 16.0705 31.5653 16.0725 31.5668C16.0731 31.5672 16.0736 31.5676 16.0742 31.568C16.0745 31.5682 16.0747 31.5684 16.0749 31.5685L17.794 32.8686C17.9107 32.9569 18.0476 32.9995 18.1834 32.9995C18.379 32.9995 18.5724 32.911 18.6995 32.743C18.9149 32.4582 18.8585 32.0527 18.5738 31.8374L18.103 31.4813C21.1529 30.902 23.9722 29.3958 26.1677 27.1464C28.7626 24.4879 30.2946 20.9781 30.4815 17.2637C30.6448 14.0204 29.7945 10.8738 28.023 8.1639Z" fill="#695AC7"/>
<path d="M25.3763 5.09616C23.1741 3.13813 20.4742 1.86879 17.5683 1.42542C17.2153 1.37173 16.8855 1.61401 16.8317 1.96695C16.7778 2.3199 17.0204 2.64977 17.3732 2.70359C20.0318 3.10919 22.502 4.27064 24.5171 6.06238C24.6403 6.17189 24.7936 6.22577 24.9464 6.22577C25.1247 6.22577 25.3021 6.15255 25.4299 6.00882C25.6671 5.74198 25.6432 5.33335 25.3763 5.09616Z" fill="#695AC7"/>
<path d="M26.2612 6.33594C25.4292 6.33594 25.4279 7.62887 26.2612 7.62887C27.0932 7.62887 27.0945 6.33594 26.2612 6.33594Z" fill="#695AC7"/>
</svg>
