<svg width="49" height="51" viewBox="0 0 49 51" fill="none" xmlns="http://www.w3.org/2000/svg">
<g clip-path="url(#clip0)">
<path d="M32.5551 32.8711L44.4376 27.6117C44.6911 27.5021 44.9547 27.4025 45.2183 27.3328V27.283V14.5828L47.1041 16.057L49.0101 13.7262L31.521 0L14.042 13.7361L15.9481 16.067L17.9961 14.4533L17.9555 28.2891L28.52 29.8629C30.3551 30.1318 31.8252 31.3072 32.5551 32.8711ZM24.8599 13.7859C26.7457 11.9432 29.767 11.8734 31.7339 13.5768C33.7008 11.8635 36.7221 11.9332 38.6079 13.7859C40.5647 15.6984 40.5647 18.8162 38.6079 20.7387L31.7339 27.4723L24.8599 20.7387C22.9133 18.8262 22.9133 15.7084 24.8599 13.7859Z" fill="#A7E1C1"/>
<path d="M27.0195 18.6369L31.7339 23.2588L36.4484 18.6369C37.2189 17.8799 37.2189 16.6547 36.4484 15.9076C35.6778 15.1506 34.4308 15.1506 33.6603 15.9076L31.7339 17.8002L29.8076 15.9076C29.4223 15.5291 28.9154 15.3398 28.4084 15.3398C27.9015 15.3398 27.3946 15.5291 27.0093 15.9076C26.2489 16.6547 26.2489 17.8799 27.0195 18.6369Z" fill="#0084F8"/>
<path d="M48.6654 31.5264C48.412 30.9487 47.9557 30.5104 47.3778 30.2913C46.8303 30.0821 46.222 30.092 45.6847 30.3311L33.5386 35.71C33.5386 35.71 33.5386 35.71 33.5386 35.72C33.3662 37.1743 32.6261 38.4592 31.4602 39.3458C30.5578 40.0231 29.4933 40.3917 28.3882 40.4315C28.1753 40.4614 27.9623 40.4713 27.7494 40.4713C27.4858 40.4713 27.2222 40.4514 26.9485 40.4116L14.113 38.4891L14.5692 35.5307L14.7314 35.5506L14.7416 35.461L27.8407 37.4133C27.9319 37.4233 28.0333 37.4333 28.1246 37.4333C28.4591 37.3735 28.7836 37.234 29.0675 37.0149C29.5845 36.6264 29.909 36.0487 29.9901 35.4012C30.1421 34.1262 29.2905 32.9907 28.0536 32.8014L14.4374 30.7794C11.6493 30.361 8.89158 31.2575 6.85371 33.2297L6.8233 33.2596L0 39.5649V51.0001H1.94662L11.7912 43.2206L24.4747 45.0534L29.4831 42.8221L47.4893 34.6442C48.6654 34.1262 49.1926 32.7317 48.6654 31.5264Z" fill="#0084F8"/>
</g>
<defs>
<clipPath id="clip0">
<rect width="49" height="51" fill="white"/>
</clipPath>
</defs>
</svg>
