<svg width="34" height="34" viewBox="0 0 34 34" fill="none" xmlns="http://www.w3.org/2000/svg">
<path d="M8.05393 16.3858C8.05393 9.05676 13.6919 3.11833 20.65 3.11833C27.6082 3.11833 33.2462 9.06001 33.2462 16.3858C33.2462 17.6143 33.0831 18.8007 32.7876 19.9288C33.5662 18.1427 34.0001 16.1589 34.0001 14.0649C34.0032 6.295 28.0237 0 20.65 0C13.2764 0 7.29688 6.295 7.29688 14.0616C7.29688 16.1557 7.7308 18.1427 8.5094 19.9255C8.21704 18.8007 8.05393 17.6111 8.05393 16.3858Z" fill="#0C78E5"/>
<path d="M0 34.0001C0 34.0001 2.42813 31.3778 14.1318 31.7538C24.0166 32.0715 27.4572 29.4491 30.5316 24.4766C31.5072 22.898 32.729 20.24 32.729 20.24C32.729 20.24 31.0364 19.5041 29.5961 21.1152C28.2574 22.6127 27.5188 24.8137 23.0257 26.3632C19.2127 27.6792 13.507 26.7878 13.507 26.7878C13.507 26.7878 17.6339 26.6743 19.7574 26.3664C22.7518 25.932 24.1736 25.0406 24.1736 25.0406C24.1736 25.0406 23.6996 23.8153 21.6285 23.475C20.5452 23.2967 18.0248 23.5009 15.2612 22.8948C10.8696 21.932 6.82584 23.1995 3.78837 26.3664C0.495474 29.7959 0 34.0001 0 34.0001Z" fill="#0C78E5"/>
<path fill-rule="evenodd" clip-rule="evenodd" d="M28.6663 16.3339H26.3859V23.1669C25.9581 23.5689 25.5027 23.9255 25.001 24.2204L24.9949 24.214C24.2224 22.9951 22.7545 22.3825 21.305 22.2691C19.4462 22.1232 17.492 22.1783 15.6086 21.7828C15.3778 21.7342 15.147 21.6888 14.9162 21.6499V16.3339H12.6357L20.6495 8.62231L28.6663 16.3339Z" fill="#4FA800"/>
</svg>
