<svg width="45" height="49" viewBox="0 0 45 49" fill="none" xmlns="http://www.w3.org/2000/svg">
<ellipse cx="23.371" cy="21.4778" rx="21.629" ry="21.4778" fill="#F0F5F9"/>
<path d="M30.9581 11.5523C30.4431 9.37043 28.8124 7.78516 26.8555 7.78516C24.9157 7.78516 23.285 9.37043 22.77 11.5523H21.5341V37.07H32.1941V11.5523H30.9581Z" fill="url(#paint0_linear)"/>
<path d="M20.5557 24.5234H9.05457V28.1031H20.5557V24.5234Z" fill="url(#paint1_linear)"/>
<path d="M20.5198 29.4512H9.01868V37.0707H20.5198V29.4512Z" fill="url(#paint2_linear)"/>
<path d="M8.71069 24.2676H20.9328L14.7874 21.8301L8.71069 24.2676Z" fill="#03DABB"/>
<path d="M11.0113 25.207H9.77539V27.2696H11.0113V25.207Z" fill="white"/>
<path d="M12.4867 25.207H11.2507V27.2696H12.4867V25.207Z" fill="white"/>
<path d="M14.6311 25.207H13.3951V27.2696H14.6311V25.207Z" fill="white"/>
<path d="M16.1087 25.207H14.8728V27.2696H16.1087V25.207Z" fill="white"/>
<path d="M18.3733 25.207H17.1373V27.2696H18.3733V25.207Z" fill="white"/>
<path d="M19.8504 25.207H18.6145V27.2696H19.8504V25.207Z" fill="white"/>
<path d="M10.9068 30.2168H9.6709V32.2794H10.9068V30.2168Z" fill="white"/>
<path d="M12.384 30.2168H11.1481V32.2794H12.384V30.2168Z" fill="white"/>
<path d="M14.5289 30.2168H13.293V32.2794H14.5289V30.2168Z" fill="white"/>
<path d="M16.0071 30.2168H14.7711V32.2794H16.0071V30.2168Z" fill="white"/>
<path d="M18.2716 30.2168H17.0356V32.2794H18.2716V30.2168Z" fill="white"/>
<path d="M19.7492 30.2168H18.5133V32.2794H19.7492V30.2168Z" fill="white"/>
<path d="M20.5198 28.4102H9.01868V29.1943H20.5198V28.4102Z" fill="url(#paint3_linear)"/>
<path d="M23.5593 13.2402H22.7697V15.2346H23.5593V13.2402Z" fill="white"/>
<path d="M24.606 13.2402H23.8164V15.2346H24.606V13.2402Z" fill="white"/>
<path d="M26.5805 13.2402H25.7909V15.2346H26.5805V13.2402Z" fill="white"/>
<path d="M27.6099 13.2402H26.8203V15.2346H27.6099V13.2402Z" fill="white"/>
<path d="M29.7214 13.2402H28.9318V15.2346H29.7214V13.2402Z" fill="white"/>
<path d="M30.7502 13.2402H29.9606V15.2346H30.7502V13.2402Z" fill="white"/>
<path d="M23.5593 16.4102H22.7697V18.4045H23.5593V16.4102Z" fill="white"/>
<path d="M24.606 16.4102H23.8164V18.4045H24.606V16.4102Z" fill="white"/>
<path d="M26.5805 16.4102H25.7909V18.4045H26.5805V16.4102Z" fill="white"/>
<path d="M27.6099 16.4102H26.8203V18.4045H27.6099V16.4102Z" fill="white"/>
<path d="M29.7214 16.4102H28.9318V18.4045H29.7214V16.4102Z" fill="white"/>
<path d="M30.7502 16.4102H29.9606V18.4045H30.7502V16.4102Z" fill="white"/>
<path d="M23.5085 19.2402H22.7189V21.2346H23.5085V19.2402Z" fill="white"/>
<path d="M24.5557 19.2402H23.7661V21.2346H24.5557V19.2402Z" fill="white"/>
<path d="M26.5297 19.2402H25.7401V21.2346H26.5297V19.2402Z" fill="white"/>
<path d="M27.5585 19.2402H26.7689V21.2346H27.5585V19.2402Z" fill="white"/>
<path d="M29.6705 19.2402H28.8809V21.2346H29.6705V19.2402Z" fill="white"/>
<path d="M30.6994 19.2402H29.9098V21.2346H30.6994V19.2402Z" fill="white"/>
<path d="M23.5085 22.4102H22.7189V24.4045H23.5085V22.4102Z" fill="white"/>
<path d="M24.5557 22.4102H23.7661V24.4045H24.5557V22.4102Z" fill="white"/>
<path d="M26.5297 22.4102H25.7401V24.4045H26.5297V22.4102Z" fill="white"/>
<path d="M27.5585 22.4102H26.7689V24.4045H27.5585V22.4102Z" fill="white"/>
<path d="M29.6705 22.4102H28.8809V24.4045H29.6705V22.4102Z" fill="white"/>
<path d="M30.6994 22.4102H29.9098V24.4045H30.6994V22.4102Z" fill="white"/>
<path d="M23.5085 25.5293H22.7189V27.5237H23.5085V25.5293Z" fill="white"/>
<path d="M24.5557 25.5293H23.7661V27.5237H24.5557V25.5293Z" fill="white"/>
<path d="M26.5297 25.5293H25.7401V27.5237H26.5297V25.5293Z" fill="white"/>
<path d="M27.5585 25.5293H26.7689V27.5237H27.5585V25.5293Z" fill="white"/>
<path d="M29.6705 25.5293H28.8809V27.5237H29.6705V25.5293Z" fill="white"/>
<path d="M30.6994 25.5293H29.9098V27.5237H30.6994V25.5293Z" fill="white"/>
<path d="M23.5085 28.7012H22.7189V30.6955H23.5085V28.7012Z" fill="white"/>
<path d="M24.5557 28.7012H23.7661V30.6955H24.5557V28.7012Z" fill="white"/>
<path d="M26.5297 28.7012H25.7401V30.6955H26.5297V28.7012Z" fill="white"/>
<path d="M27.5585 28.7012H26.7689V30.6955H27.5585V28.7012Z" fill="white"/>
<path d="M29.6705 28.7012H28.8809V30.6955H29.6705V28.7012Z" fill="white"/>
<path d="M30.6994 28.7012H29.9098V30.6955H30.6994V28.7012Z" fill="white"/>
<path d="M44.2433 30.5234C43.259 32.6528 41.5186 35.7107 39.3035 38.3729C36.9554 41.1949 34.115 43.5226 31.1141 43.896C29.1912 44.1353 26.6097 44.2279 23.7263 44.2987C23.1179 44.3136 22.4963 44.3275 21.865 44.3417C19.5098 44.3946 17.0203 44.4504 14.5822 44.5712C11.4909 44.7244 8.47127 44.9824 5.89874 45.4736C3.69044 45.8952 1.78233 46.4937 0.441368 47.3666C1.20524 44.9103 2.85925 41.6019 5.57956 38.9127C8.56019 35.9662 12.8189 33.7634 18.6072 34.2314C20.6571 34.3971 22.392 34.5338 23.8615 34.6497C27.6603 34.9491 29.6853 35.1087 30.7927 35.2681C31.1749 35.3231 31.4359 35.3765 31.6181 35.4323C31.8002 35.4881 31.8856 35.541 31.932 35.5841C31.975 35.6239 32.0029 35.6717 32.0372 35.7645C32.046 35.7883 32.0562 35.8185 32.0679 35.8531C32.0966 35.9379 32.1344 36.0495 32.1828 36.1596C32.23 36.267 32.2388 36.3596 32.2241 36.4427C32.2091 36.5278 32.1666 36.6191 32.0868 36.7165C31.9227 36.9166 31.6235 37.115 31.2049 37.2942C30.3738 37.6501 29.175 37.8875 28.0001 37.9606C26.0924 38.0793 21.7408 38.3562 19.8036 38.4799L19.8048 38.9789C21.273 39.0656 23.6016 39.1696 25.8179 39.2C28.0226 39.2302 30.1502 39.1884 31.1952 38.9743C32.5155 38.7037 34.3205 37.7132 35.9751 36.5314C37.6333 35.3469 39.1867 33.9369 39.9926 32.7908C40.6094 31.9136 41.1364 31.3488 41.5388 31.0002C41.7401 30.8258 41.9083 30.7072 42.0392 30.6307C42.156 30.5623 42.2333 30.5334 42.2723 30.5234H44.2433Z" fill="url(#paint4_linear)" stroke="white" stroke-width="0.5"/>
<defs>
<linearGradient id="paint0_linear" x1="21.5301" y1="22.4276" x2="32.1931" y2="22.4276" gradientUnits="userSpaceOnUse">
<stop stop-color="#03ADCB"/>
<stop offset="1" stop-color="#03DABB"/>
</linearGradient>
<linearGradient id="paint1_linear" x1="9.04651" y1="26.3096" x2="20.5391" y2="26.3096" gradientUnits="userSpaceOnUse">
<stop stop-color="#03ADCB"/>
<stop offset="1" stop-color="#03DABB"/>
</linearGradient>
<linearGradient id="paint2_linear" x1="9.02709" y1="33.2598" x2="20.5197" y2="33.2598" gradientUnits="userSpaceOnUse">
<stop stop-color="#03ADCB"/>
<stop offset="1" stop-color="#03DABB"/>
</linearGradient>
<linearGradient id="paint3_linear" x1="9.02709" y1="28.795" x2="20.5197" y2="28.795" gradientUnits="userSpaceOnUse">
<stop stop-color="#03ADCB"/>
<stop offset="1" stop-color="#03DABB"/>
</linearGradient>
<linearGradient id="paint4_linear" x1="25.9204" y1="31.978" x2="12.2659" y2="43.3223" gradientUnits="userSpaceOnUse">
<stop stop-color="#90DDE8"/>
<stop offset="1" stop-color="#8ED5CB"/>
</linearGradient>
</defs>
</svg>
