<svg width="156" height="77" viewBox="0 0 156 77" fill="none" xmlns="http://www.w3.org/2000/svg">
<path d="M153.532 44.9766H5.10547V76.4966H153.532V44.9766Z" fill="white"/>
<path d="M0.363281 48.4261L16.52 14.5312H145.559L157.622 48.4261H0.363281Z" fill="#78B7FA"/>
<path d="M100.532 16.6836H40.6445V36.5455H100.532V16.6836Z" fill="white"/>
<path d="M44.5216 0.5L35.043 20.3619H106.133L100.532 0.5H44.5216Z" fill="#78B7FA"/>
<path d="M93.2073 51.2383H45.9219V76.4975H93.2073V51.2383Z" fill="#E0E5E6"/>
<path d="M36.1186 52.1016H10.9141V76.4972H36.1186V52.1016Z" fill="#E0E5E6"/>
<path d="M114.428 53.6055H101.395V76.4899H114.428V53.6055Z" fill="#78B7FA"/>
<path d="M134.894 54.8984H128.539V60.8354H134.894V54.8984Z" fill="#78B7FA"/>
<path d="M143.402 54.8984H137.047V60.8354H143.402V54.8984Z" fill="#78B7FA"/>
<path d="M134.894 63.0039H128.539V69.1568H134.894V63.0039Z" fill="#78B7FA"/>
<path d="M143.402 63.0039H137.047V69.1568H143.402V63.0039Z" fill="#78B7FA"/>
<path d="M51.1063 22.125H46.1328V26.7713H51.1063V22.125Z" fill="#78B7FA"/>
<path d="M57.7742 22.125H52.8008V26.7713H57.7742V22.125Z" fill="#78B7FA"/>
<path d="M51.1063 28.4648H46.1328V33.2801H51.1063V28.4648Z" fill="#78B7FA"/>
<path d="M57.7742 28.4648H52.8008V33.2801H57.7742V28.4648Z" fill="#78B7FA"/>
<path d="M88.3837 22.125H83.4102V26.7713H88.3837V22.125Z" fill="#78B7FA"/>
<path d="M95.0399 22.125H90.0664V26.7713H95.0399V22.125Z" fill="#78B7FA"/>
<path d="M88.3837 28.4648H83.4102V33.2801H88.3837V28.4648Z" fill="#78B7FA"/>
<path d="M95.0399 28.4648H90.0664V33.2801H95.0399V28.4648Z" fill="#78B7FA"/>
<path d="M69.8563 22.125H64.8828V26.7713H69.8563V22.125Z" fill="#78B7FA"/>
<path d="M76.5125 22.125H71.5391V26.7713H76.5125V22.125Z" fill="#78B7FA"/>
<path d="M69.8563 28.4648H64.8828V33.2801H69.8563V28.4648Z" fill="#78B7FA"/>
<path d="M76.5125 28.4648H71.5391V33.2801H76.5125V28.4648Z" fill="#78B7FA"/>
<path d="M107.432 55.9297H104.301V58.8552H107.432V55.9297Z" fill="white"/>
<path d="M111.628 55.9297H108.496V58.8552H111.628V55.9297Z" fill="white"/>
<path d="M107.432 59.9102H104.301V62.942H107.432V59.9102Z" fill="white"/>
<path d="M111.628 59.9102H108.496V62.942H111.628V59.9102Z" fill="white"/>
<path d="M112.705 67.5357C113.181 67.5357 113.567 67.1491 113.567 66.6722C113.567 66.1952 113.181 65.8086 112.705 65.8086C112.23 65.8086 111.844 66.1952 111.844 66.6722C111.844 67.1491 112.23 67.5357 112.705 67.5357Z" fill="white"/>
<path d="M93.315 53.9375H45.9219V54.3693H93.315V53.9375Z" fill="white"/>
<path d="M93.315 55.875H45.9219V56.3068H93.315V55.875Z" fill="white"/>
<path d="M93.315 57.8242H45.9219V58.256H93.315V57.8242Z" fill="white"/>
<path d="M93.315 59.7617H45.9219V60.1935H93.315V59.7617Z" fill="white"/>
<path d="M93.315 61.7109H45.9219V62.1427H93.315V61.7109Z" fill="white"/>
<path d="M93.315 63.6523H45.9219V64.0841H93.315V63.6523Z" fill="white"/>
<path d="M93.315 65.5859H45.9219V66.0177H93.315V65.5859Z" fill="white"/>
<path d="M93.315 67.5352H45.9219V67.9669H93.315V67.5352Z" fill="white"/>
<path d="M93.315 69.4844H45.9219V69.9162H93.315V69.4844Z" fill="white"/>
<path d="M93.315 71.4219H45.9219V71.8537H93.315V71.4219Z" fill="white"/>
<path d="M93.315 73.3633H45.9219V73.7951H93.315V73.3633Z" fill="white"/>
<path d="M36.1186 53.9375H10.9141V54.3693H36.1186V53.9375Z" fill="white"/>
<path d="M36.1186 55.875H10.9141V56.3068H36.1186V55.875Z" fill="white"/>
<path d="M36.1186 57.8242H10.9141V58.256H36.1186V57.8242Z" fill="white"/>
<path d="M36.1186 59.7617H10.9141V60.1935H36.1186V59.7617Z" fill="white"/>
<path d="M36.1186 61.7109H10.9141V62.1427H36.1186V61.7109Z" fill="white"/>
<path d="M36.1186 63.6523H10.9141V64.0841H36.1186V63.6523Z" fill="white"/>
<path d="M36.1186 65.5859H10.9141V66.0177H36.1186V65.5859Z" fill="white"/>
<path d="M36.1186 67.5352H10.9141V67.9669H36.1186V67.5352Z" fill="white"/>
<path d="M36.1186 69.4844H10.9141V69.9162H36.1186V69.4844Z" fill="white"/>
<path d="M36.1186 71.4219H10.9141V71.8537H36.1186V71.4219Z" fill="white"/>
<path d="M36.1186 73.3633H10.9141V73.7951H36.1186V73.3633Z" fill="white"/>
</svg>
