<svg width="311" height="193" viewBox="0 0 311 193" fill="none" xmlns="http://www.w3.org/2000/svg">
<path d="M164.58 52.7734C164.569 52.8237 164.574 52.8762 164.596 52.923H161.589C161.602 52.8743 161.608 52.8238 161.605 52.7734H164.58Z" fill="white"/>
<path d="M122.664 115.982C122.861 114.493 123.246 113.035 123.811 111.644C124.937 108.418 126.701 105.453 128.996 102.923C131.292 100.393 134.074 98.3511 137.175 96.9183C141.881 94.7821 147.154 94.2338 152.199 95.356C155.579 95.9674 159.004 96.29 162.438 96.3201C164.382 96.2309 166.317 96.6429 168.056 97.5164C168.658 97.861 169.192 98.3116 169.634 98.8465C169.982 99.2792 169.9 99.4621 169.418 99.6769C167.282 100.588 165.044 101.24 162.753 101.621C158.803 102.175 154.824 102.497 150.836 102.585C150.524 102.583 150.214 102.637 149.921 102.744C150.952 102.844 151.989 102.961 153.012 103.01C157.786 103.481 162.605 103.121 167.256 101.946C171.932 100.724 176.053 97.945 178.939 94.0674C179.799 92.6702 181 91.515 182.43 90.7105C183.606 90.132 184.95 89.99 186.221 90.3096C186.569 90.3924 186.687 90.5085 186.504 90.8744C184.401 95.4575 181.67 99.7255 178.39 103.556C174.949 107.243 170.439 109.76 165.493 110.753C161.482 111.588 157.391 111.978 153.294 111.916C149.172 111.9 145.05 111.699 140.912 111.932C135.816 112.031 130.761 112.865 125.903 114.409C124.774 114.825 123.689 115.352 122.664 115.982Z" fill="#E5E8EB"/>
<path d="M147.361 83.2069C152.58 78.4342 157.632 73.8333 162.669 69.1958C163.146 68.7471 163.334 69.1289 163.584 69.3787C167.672 73.1014 171.761 76.8353 175.85 80.5803C176.747 81.3948 177.644 82.2253 178.725 83.2069C177.428 83.2069 176.348 83.2562 175.267 83.191C174.486 83.1417 174.237 83.3405 174.254 84.171C174.303 87.7776 174.254 91.3682 174.287 94.9748C174.332 95.286 174.281 95.6034 174.142 95.8851C174.002 96.1668 173.781 96.3997 173.506 96.553C173.35 96.6658 173.2 96.788 173.058 96.9189C171.761 97.883 171.785 97.883 170.614 96.7853C169.057 95.3408 167.049 94.4777 164.93 94.3417C162.303 94.1094 159.68 93.9932 157.052 93.8437C155.556 93.761 154.092 93.4444 152.615 93.2614C151.999 93.1787 151.767 92.9623 151.767 92.2814C151.816 89.5053 151.767 86.7467 151.8 83.9705C151.8 83.3548 151.65 83.156 151.019 83.1894C149.888 83.2387 148.725 83.2069 147.361 83.2069ZM167.657 88.0432C168.371 88.0432 169.103 88.0273 169.817 88.0432C170.216 88.0592 170.415 87.9764 170.399 87.5119C170.366 86.1326 170.383 84.7532 170.399 83.3564C170.399 82.9905 170.332 82.8076 169.901 82.8251C168.455 82.841 167.027 82.841 165.58 82.8251C165.181 82.8251 165.065 82.9587 165.065 83.3564C165.081 84.7357 165.098 86.1326 165.065 87.5119C165.049 87.978 165.248 88.0607 165.663 88.0432C166.325 88.0257 166.99 88.0432 167.657 88.0432ZM158.382 82.841C157.667 82.841 156.935 82.8569 156.221 82.841C155.822 82.8251 155.69 82.9571 155.706 83.3564C155.722 84.7357 155.722 86.1151 155.706 87.5119C155.69 87.978 155.865 88.0607 156.288 88.0607C157.667 88.0448 159.047 88.0448 160.443 88.0607C160.876 88.0607 161.008 87.9271 161.008 87.496C160.992 86.2821 160.959 85.0523 161.024 83.8369C161.073 83.0717 160.89 82.7232 160.06 82.8394C159.5 82.8732 158.94 82.8737 158.38 82.841H158.382Z" fill="#B2BBC3"/>
<path d="M161.571 52.9238H164.58C175.268 53.8784 182.875 59.2397 187.171 69.0461C189.831 75.1298 189.697 85.7666 187.287 88.1927C188.767 78.7029 186.124 70.6577 178.811 64.3911C176.321 62.2304 173.406 60.6157 170.254 59.6511C167.102 58.6865 163.783 58.3936 160.51 58.7911C157.045 59.1557 153.695 60.2467 150.679 61.9929C147.663 63.7392 145.049 66.1015 143.008 68.9258C140.966 71.7501 139.543 74.973 138.831 78.3844C138.118 81.7957 138.133 85.3188 138.874 88.7241C137.489 85.4705 136.81 81.96 136.881 78.4245C136.953 74.889 137.773 71.4089 139.289 68.2141C143.706 58.8738 151.234 53.7877 161.571 52.9238Z" fill="#E5E8EB"/>
<path d="M100.646 140H98.6426L93.7275 132.036H93.6729L93.707 132.48C93.7708 133.328 93.8027 134.103 93.8027 134.805V140H92.3193V130.006H94.3018L99.2031 137.929H99.2441C99.235 137.824 99.2168 137.443 99.1895 136.787C99.1621 136.126 99.1484 135.611 99.1484 135.242V130.006H100.646V140ZM109.819 136.206C109.819 137.441 109.503 138.405 108.869 139.098C108.236 139.79 107.354 140.137 106.224 140.137C105.517 140.137 104.893 139.977 104.351 139.658C103.808 139.339 103.391 138.881 103.1 138.284C102.808 137.687 102.662 136.994 102.662 136.206C102.662 134.98 102.977 134.023 103.605 133.335C104.234 132.647 105.121 132.303 106.265 132.303C107.358 132.303 108.224 132.656 108.862 133.362C109.5 134.064 109.819 135.012 109.819 136.206ZM104.316 136.206C104.316 137.951 104.961 138.824 106.251 138.824C107.527 138.824 108.165 137.951 108.165 136.206C108.165 134.479 107.522 133.615 106.237 133.615C105.563 133.615 105.073 133.839 104.768 134.285C104.467 134.732 104.316 135.372 104.316 136.206ZM115.479 140V130.006H117.113V140H115.479ZM125.959 140H124.346V135.338C124.346 134.759 124.236 134.328 124.018 134.046C123.799 133.759 123.457 133.615 122.992 133.615C122.372 133.615 121.917 133.818 121.625 134.224C121.338 134.625 121.194 135.295 121.194 136.233V140H119.588V132.439H120.846L121.071 133.431H121.153C121.363 133.071 121.666 132.793 122.062 132.597C122.464 132.401 122.903 132.303 123.382 132.303C124.544 132.303 125.314 132.699 125.692 133.492H125.802C126.025 133.118 126.34 132.827 126.745 132.617C127.151 132.408 127.616 132.303 128.14 132.303C129.042 132.303 129.698 132.531 130.108 132.986C130.523 133.442 130.73 134.137 130.73 135.071V140H129.124V135.338C129.124 134.759 129.012 134.328 128.789 134.046C128.57 133.759 128.229 133.615 127.764 133.615C127.139 133.615 126.681 133.811 126.39 134.203C126.103 134.59 125.959 135.188 125.959 135.994V140ZM137.703 140L137.382 138.947H137.327C136.963 139.408 136.596 139.722 136.227 139.891C135.857 140.055 135.383 140.137 134.805 140.137C134.062 140.137 133.481 139.936 133.062 139.535C132.647 139.134 132.439 138.567 132.439 137.833C132.439 137.054 132.729 136.466 133.308 136.069C133.886 135.673 134.768 135.456 135.953 135.42L137.259 135.379V134.976C137.259 134.493 137.145 134.132 136.917 133.896C136.694 133.654 136.345 133.533 135.871 133.533C135.484 133.533 135.112 133.59 134.757 133.704C134.401 133.818 134.06 133.952 133.731 134.107L133.212 132.959C133.622 132.745 134.071 132.583 134.559 132.474C135.046 132.36 135.507 132.303 135.939 132.303C136.901 132.303 137.626 132.512 138.113 132.932C138.605 133.351 138.852 134.009 138.852 134.907V140H137.703ZM135.311 138.906C135.894 138.906 136.361 138.744 136.712 138.421C137.067 138.093 137.245 137.635 137.245 137.047V136.391L136.274 136.432C135.518 136.459 134.966 136.587 134.62 136.814C134.278 137.038 134.107 137.382 134.107 137.847C134.107 138.184 134.208 138.446 134.408 138.633C134.609 138.815 134.91 138.906 135.311 138.906ZM147.479 132.439V133.321L146.187 133.561C146.305 133.72 146.403 133.916 146.48 134.148C146.558 134.381 146.597 134.627 146.597 134.887C146.597 135.666 146.328 136.279 145.79 136.726C145.252 137.172 144.512 137.396 143.568 137.396C143.327 137.396 143.108 137.377 142.912 137.341C142.566 137.555 142.393 137.806 142.393 138.093C142.393 138.266 142.472 138.396 142.632 138.482C142.796 138.569 143.094 138.612 143.527 138.612H144.847C145.681 138.612 146.314 138.79 146.747 139.146C147.18 139.501 147.396 140.014 147.396 140.684C147.396 141.54 147.043 142.201 146.337 142.666C145.631 143.131 144.61 143.363 143.274 143.363C142.244 143.363 141.458 143.181 140.916 142.816C140.374 142.452 140.103 141.932 140.103 141.258C140.103 140.793 140.248 140.401 140.54 140.082C140.836 139.768 141.249 139.549 141.777 139.426C141.563 139.335 141.385 139.189 141.244 138.988C141.107 138.783 141.039 138.569 141.039 138.346C141.039 138.063 141.119 137.824 141.278 137.628C141.438 137.432 141.675 137.238 141.989 137.047C141.597 136.878 141.278 136.605 141.032 136.227C140.791 135.844 140.67 135.397 140.67 134.887C140.67 134.066 140.927 133.431 141.442 132.979C141.962 132.528 142.7 132.303 143.657 132.303C143.871 132.303 144.095 132.319 144.327 132.351C144.564 132.378 144.742 132.408 144.86 132.439H147.479ZM141.538 141.176C141.538 141.522 141.693 141.789 142.003 141.976C142.317 142.162 142.757 142.256 143.322 142.256C144.197 142.256 144.849 142.131 145.277 141.88C145.706 141.629 145.92 141.297 145.92 140.882C145.92 140.554 145.801 140.319 145.564 140.178C145.332 140.041 144.897 139.973 144.259 139.973H143.042C142.582 139.973 142.215 140.08 141.941 140.294C141.673 140.513 141.538 140.807 141.538 141.176ZM142.229 134.887C142.229 135.361 142.349 135.725 142.591 135.98C142.837 136.236 143.188 136.363 143.644 136.363C144.573 136.363 145.038 135.867 145.038 134.873C145.038 134.381 144.922 134.003 144.689 133.738C144.462 133.469 144.113 133.335 143.644 133.335C143.179 133.335 142.826 133.467 142.584 133.731C142.347 133.996 142.229 134.381 142.229 134.887ZM152.188 140.137C151.013 140.137 150.092 139.795 149.427 139.111C148.766 138.423 148.436 137.478 148.436 136.274C148.436 135.039 148.743 134.069 149.358 133.362C149.974 132.656 150.819 132.303 151.895 132.303C152.893 132.303 153.681 132.606 154.26 133.212C154.839 133.818 155.128 134.652 155.128 135.714V136.582H150.09C150.113 137.316 150.311 137.881 150.685 138.277C151.058 138.669 151.585 138.865 152.264 138.865C152.71 138.865 153.125 138.824 153.508 138.742C153.895 138.656 154.31 138.514 154.752 138.318V139.624C154.36 139.811 153.964 139.943 153.562 140.021C153.161 140.098 152.703 140.137 152.188 140.137ZM151.895 133.52C151.384 133.52 150.974 133.681 150.664 134.005C150.359 134.328 150.176 134.8 150.117 135.42H153.549C153.54 134.796 153.389 134.324 153.098 134.005C152.806 133.681 152.405 133.52 151.895 133.52ZM166.961 140L165.963 137.225H162.142L161.164 140H159.441L163.181 129.965H164.958L168.697 140H166.961ZM165.532 135.816L164.596 133.096C164.527 132.913 164.432 132.626 164.309 132.234C164.19 131.842 164.108 131.555 164.062 131.373C163.939 131.934 163.759 132.547 163.522 133.212L162.62 135.816H165.532ZM171.568 140L168.697 132.439H170.393L171.931 136.835C172.195 137.573 172.354 138.17 172.409 138.626H172.464C172.505 138.298 172.664 137.701 172.942 136.835L174.48 132.439H176.189L173.305 140H171.568ZM182.068 140L181.747 138.947H181.692C181.328 139.408 180.961 139.722 180.592 139.891C180.223 140.055 179.749 140.137 179.17 140.137C178.427 140.137 177.846 139.936 177.427 139.535C177.012 139.134 176.805 138.567 176.805 137.833C176.805 137.054 177.094 136.466 177.673 136.069C178.252 135.673 179.133 135.456 180.318 135.42L181.624 135.379V134.976C181.624 134.493 181.51 134.132 181.282 133.896C181.059 133.654 180.71 133.533 180.236 133.533C179.849 133.533 179.478 133.59 179.122 133.704C178.767 133.818 178.425 133.952 178.097 134.107L177.577 132.959C177.987 132.745 178.436 132.583 178.924 132.474C179.411 132.36 179.872 132.303 180.305 132.303C181.266 132.303 181.991 132.512 182.479 132.932C182.971 133.351 183.217 134.009 183.217 134.907V140H182.068ZM179.676 138.906C180.259 138.906 180.726 138.744 181.077 138.421C181.433 138.093 181.61 137.635 181.61 137.047V136.391L180.64 136.432C179.883 136.459 179.332 136.587 178.985 136.814C178.644 137.038 178.473 137.382 178.473 137.847C178.473 138.184 178.573 138.446 178.773 138.633C178.974 138.815 179.275 138.906 179.676 138.906ZM187.065 140H185.459V132.439H187.065V140ZM185.363 130.437C185.363 130.149 185.441 129.928 185.596 129.773C185.755 129.618 185.981 129.541 186.272 129.541C186.555 129.541 186.774 129.618 186.929 129.773C187.088 129.928 187.168 130.149 187.168 130.437C187.168 130.71 187.088 130.926 186.929 131.086C186.774 131.241 186.555 131.318 186.272 131.318C185.981 131.318 185.755 131.241 185.596 131.086C185.441 130.926 185.363 130.71 185.363 130.437ZM190.976 140H189.369V129.363H190.976V140ZM198.01 140L197.688 138.947H197.634C197.269 139.408 196.902 139.722 196.533 139.891C196.164 140.055 195.69 140.137 195.111 140.137C194.368 140.137 193.787 139.936 193.368 139.535C192.953 139.134 192.746 138.567 192.746 137.833C192.746 137.054 193.035 136.466 193.614 136.069C194.193 135.673 195.075 135.456 196.26 135.42L197.565 135.379V134.976C197.565 134.493 197.451 134.132 197.224 133.896C197 133.654 196.652 133.533 196.178 133.533C195.79 133.533 195.419 133.59 195.063 133.704C194.708 133.818 194.366 133.952 194.038 134.107L193.519 132.959C193.929 132.745 194.378 132.583 194.865 132.474C195.353 132.36 195.813 132.303 196.246 132.303C197.208 132.303 197.932 132.512 198.42 132.932C198.912 133.351 199.158 134.009 199.158 134.907V140H198.01ZM195.617 138.906C196.201 138.906 196.668 138.744 197.019 138.421C197.374 138.093 197.552 137.635 197.552 137.047V136.391L196.581 136.432C195.825 136.459 195.273 136.587 194.927 136.814C194.585 137.038 194.414 137.382 194.414 137.847C194.414 138.184 194.514 138.446 194.715 138.633C194.915 138.815 195.216 138.906 195.617 138.906ZM205.263 132.303C206.206 132.303 206.94 132.645 207.464 133.328C207.993 134.012 208.257 134.971 208.257 136.206C208.257 137.446 207.99 138.412 207.457 139.104C206.924 139.793 206.183 140.137 205.235 140.137C204.278 140.137 203.535 139.793 203.007 139.104H202.897L202.604 140H201.4V129.363H203.007V131.893C203.007 132.079 202.998 132.357 202.979 132.727C202.961 133.096 202.948 133.33 202.938 133.431H203.007C203.517 132.679 204.269 132.303 205.263 132.303ZM204.846 133.615C204.199 133.615 203.731 133.807 203.444 134.189C203.162 134.568 203.016 135.203 203.007 136.097V136.206C203.007 137.127 203.153 137.794 203.444 138.209C203.736 138.619 204.212 138.824 204.873 138.824C205.443 138.824 205.873 138.599 206.165 138.147C206.461 137.696 206.609 137.045 206.609 136.192C206.609 134.474 206.021 133.615 204.846 133.615ZM211.729 140H210.123V129.363H211.729V140ZM217.335 140.137C216.159 140.137 215.239 139.795 214.573 139.111C213.912 138.423 213.582 137.478 213.582 136.274C213.582 135.039 213.89 134.069 214.505 133.362C215.12 132.656 215.965 132.303 217.041 132.303C218.039 132.303 218.827 132.606 219.406 133.212C219.985 133.818 220.274 134.652 220.274 135.714V136.582H215.236C215.259 137.316 215.457 137.881 215.831 138.277C216.205 138.669 216.731 138.865 217.41 138.865C217.857 138.865 218.271 138.824 218.654 138.742C219.042 138.656 219.456 138.514 219.898 138.318V139.624C219.507 139.811 219.11 139.943 218.709 140.021C218.308 140.098 217.85 140.137 217.335 140.137ZM217.041 133.52C216.531 133.52 216.12 133.681 215.811 134.005C215.505 134.328 215.323 134.8 215.264 135.42H218.695C218.686 134.796 218.536 134.324 218.244 134.005C217.952 133.681 217.551 133.52 217.041 133.52Z" fill="#B2BBC3"/>
</svg>
