<svg width="168" height="82" viewBox="0 0 168 82" fill="none" xmlns="http://www.w3.org/2000/svg">
<path d="M25.6113 75V60.7227H27.2715V75H25.6113ZM38.2773 75V68.0762C38.2773 67.2038 38.0788 66.5527 37.6816 66.123C37.2845 65.6934 36.6628 65.4785 35.8164 65.4785C34.6966 65.4785 33.8763 65.7812 33.3555 66.3867C32.8346 66.9922 32.5742 67.9915 32.5742 69.3848V75H30.9531V64.2969H32.2715L32.5352 65.7617H32.6133C32.9453 65.2344 33.4108 64.8275 34.0098 64.541C34.6087 64.248 35.276 64.1016 36.0117 64.1016C37.3008 64.1016 38.2708 64.4141 38.9219 65.0391C39.5729 65.6576 39.8984 66.6504 39.8984 68.0176V75H38.2773ZM48.0625 65.5566H45.3379V75H43.7168V65.5566H41.8027V64.8242L43.7168 64.2383V63.6426C43.7168 61.0124 44.8659 59.6973 47.1641 59.6973C47.7305 59.6973 48.3945 59.8112 49.1562 60.0391L48.7363 61.3379C48.1113 61.1361 47.5775 61.0352 47.1348 61.0352C46.5228 61.0352 46.0703 61.2402 45.7773 61.6504C45.4844 62.054 45.3379 62.7051 45.3379 63.6035V64.2969H48.0625V65.5566ZM59.2539 69.6387C59.2539 71.3835 58.8145 72.7474 57.9355 73.7305C57.0566 74.707 55.8424 75.1953 54.293 75.1953C53.3359 75.1953 52.4863 74.9707 51.7441 74.5215C51.002 74.0723 50.429 73.4277 50.0254 72.5879C49.6217 71.748 49.4199 70.765 49.4199 69.6387C49.4199 67.8939 49.8561 66.5365 50.7285 65.5664C51.6009 64.5898 52.8118 64.1016 54.3613 64.1016C55.8587 64.1016 57.0469 64.5996 57.9258 65.5957C58.8112 66.5918 59.2539 67.9395 59.2539 69.6387ZM51.0996 69.6387C51.0996 71.0059 51.373 72.0475 51.9199 72.7637C52.4668 73.4798 53.2708 73.8379 54.332 73.8379C55.3932 73.8379 56.1973 73.4831 56.7441 72.7734C57.2975 72.0573 57.5742 71.0124 57.5742 69.6387C57.5742 68.278 57.2975 67.2461 56.7441 66.543C56.1973 65.8333 55.3867 65.4785 54.3125 65.4785C53.2513 65.4785 52.4505 65.8268 51.9102 66.5234C51.3698 67.2201 51.0996 68.2585 51.0996 69.6387ZM66.9883 64.1016C67.4635 64.1016 67.89 64.1406 68.2676 64.2188L68.043 65.7227C67.6003 65.625 67.2096 65.5762 66.8711 65.5762C66.0052 65.5762 65.263 65.9277 64.6445 66.6309C64.0326 67.334 63.7266 68.2096 63.7266 69.2578V75H62.1055V64.2969H63.4434L63.6289 66.2793H63.707C64.1042 65.5827 64.5827 65.0456 65.1426 64.668C65.7025 64.2904 66.3177 64.1016 66.9883 64.1016ZM83.9121 75V68.0371C83.9121 67.1842 83.7298 66.5462 83.3652 66.123C83.0007 65.6934 82.4342 65.4785 81.666 65.4785C80.6569 65.4785 79.9115 65.7682 79.4297 66.3477C78.9479 66.9271 78.707 67.819 78.707 69.0234V75H77.0859V68.0371C77.0859 67.1842 76.9036 66.5462 76.5391 66.123C76.1745 65.6934 75.6048 65.4785 74.8301 65.4785C73.8145 65.4785 73.069 65.7845 72.5938 66.3965C72.125 67.002 71.8906 67.998 71.8906 69.3848V75H70.2695V64.2969H71.5879L71.8516 65.7617H71.9297C72.2357 65.2409 72.6654 64.834 73.2188 64.541C73.7786 64.248 74.4036 64.1016 75.0938 64.1016C76.7669 64.1016 77.8607 64.707 78.375 65.918H78.4531C78.7721 65.3581 79.2344 64.9154 79.8398 64.5898C80.4453 64.2643 81.1354 64.1016 81.9102 64.1016C83.1211 64.1016 84.026 64.4141 84.625 65.0391C85.2305 65.6576 85.5332 66.6504 85.5332 68.0176V75H83.9121ZM95.4648 75L95.1426 73.4766H95.0645C94.5306 74.1471 93.9967 74.6029 93.4629 74.8438C92.9355 75.0781 92.2747 75.1953 91.4805 75.1953C90.4193 75.1953 89.5859 74.9219 88.9805 74.375C88.3815 73.8281 88.082 73.0501 88.082 72.041C88.082 69.8796 89.8105 68.7467 93.2676 68.6426L95.084 68.584V67.9199C95.084 67.0801 94.9017 66.4616 94.5371 66.0645C94.179 65.6608 93.6029 65.459 92.8086 65.459C91.9167 65.459 90.9076 65.7324 89.7812 66.2793L89.2832 65.0391C89.8105 64.7526 90.3867 64.528 91.0117 64.3652C91.6432 64.2025 92.2747 64.1211 92.9062 64.1211C94.1823 64.1211 95.1263 64.4043 95.7383 64.9707C96.3568 65.5371 96.666 66.4453 96.666 67.6953V75H95.4648ZM91.8027 73.8574C92.8118 73.8574 93.6029 73.5807 94.1758 73.0273C94.7552 72.474 95.0449 71.6992 95.0449 70.7031V69.7363L93.4238 69.8047C92.1348 69.8503 91.2038 70.0521 90.6309 70.4102C90.0645 70.7617 89.7812 71.3118 89.7812 72.0605C89.7812 72.6465 89.957 73.0924 90.3086 73.3984C90.6667 73.7044 91.1647 73.8574 91.8027 73.8574ZM103.473 73.8574C103.759 73.8574 104.036 73.8379 104.303 73.7988C104.57 73.7533 104.781 73.7077 104.938 73.6621V74.9023C104.762 74.987 104.501 75.0553 104.156 75.1074C103.818 75.166 103.512 75.1953 103.238 75.1953C101.168 75.1953 100.133 74.1048 100.133 71.9238V65.5566H98.5996V64.7754L100.133 64.1016L100.816 61.8164H101.754V64.2969H104.859V65.5566H101.754V71.8555C101.754 72.5 101.907 72.9948 102.213 73.3398C102.519 73.6849 102.939 73.8574 103.473 73.8574ZM108.707 75H107.086V64.2969H108.707V75ZM106.949 61.3965C106.949 61.0254 107.04 60.7552 107.223 60.5859C107.405 60.4102 107.633 60.3223 107.906 60.3223C108.167 60.3223 108.391 60.4102 108.58 60.5859C108.769 60.7617 108.863 61.0319 108.863 61.3965C108.863 61.7611 108.769 62.0345 108.58 62.2168C108.391 62.3926 108.167 62.4805 107.906 62.4805C107.633 62.4805 107.405 62.3926 107.223 62.2168C107.04 62.0345 106.949 61.7611 106.949 61.3965ZM121.383 69.6387C121.383 71.3835 120.943 72.7474 120.064 73.7305C119.186 74.707 117.971 75.1953 116.422 75.1953C115.465 75.1953 114.615 74.9707 113.873 74.5215C113.131 74.0723 112.558 73.4277 112.154 72.5879C111.751 71.748 111.549 70.765 111.549 69.6387C111.549 67.8939 111.985 66.5365 112.857 65.5664C113.73 64.5898 114.941 64.1016 116.49 64.1016C117.988 64.1016 119.176 64.5996 120.055 65.5957C120.94 66.5918 121.383 67.9395 121.383 69.6387ZM113.229 69.6387C113.229 71.0059 113.502 72.0475 114.049 72.7637C114.596 73.4798 115.4 73.8379 116.461 73.8379C117.522 73.8379 118.326 73.4831 118.873 72.7734C119.426 72.0573 119.703 71.0124 119.703 69.6387C119.703 68.278 119.426 67.2461 118.873 66.543C118.326 65.8333 117.516 65.4785 116.441 65.4785C115.38 65.4785 114.579 65.8268 114.039 66.5234C113.499 67.2201 113.229 68.2585 113.229 69.6387ZM131.559 75V68.0762C131.559 67.2038 131.36 66.5527 130.963 66.123C130.566 65.6934 129.944 65.4785 129.098 65.4785C127.978 65.4785 127.158 65.7812 126.637 66.3867C126.116 66.9922 125.855 67.9915 125.855 69.3848V75H124.234V64.2969H125.553L125.816 65.7617H125.895C126.227 65.2344 126.692 64.8275 127.291 64.541C127.89 64.248 128.557 64.1016 129.293 64.1016C130.582 64.1016 131.552 64.4141 132.203 65.0391C132.854 65.6576 133.18 66.6504 133.18 68.0176V75H131.559ZM143.424 72.0801C143.424 73.0762 143.053 73.8444 142.311 74.3848C141.568 74.9251 140.527 75.1953 139.186 75.1953C137.766 75.1953 136.66 74.9707 135.865 74.5215V73.0176C136.38 73.278 136.93 73.4831 137.516 73.6328C138.108 73.7826 138.678 73.8574 139.225 73.8574C140.071 73.8574 140.722 73.724 141.178 73.457C141.633 73.1836 141.861 72.7702 141.861 72.2168C141.861 71.8001 141.679 71.4453 141.314 71.1523C140.956 70.8529 140.253 70.5013 139.205 70.0977C138.209 69.7266 137.499 69.4043 137.076 69.1309C136.66 68.8509 136.347 68.5352 136.139 68.1836C135.937 67.832 135.836 67.4121 135.836 66.9238C135.836 66.0514 136.191 65.3646 136.9 64.8633C137.61 64.3555 138.583 64.1016 139.82 64.1016C140.973 64.1016 142.099 64.3359 143.199 64.8047L142.623 66.123C141.549 65.6803 140.576 65.459 139.703 65.459C138.935 65.459 138.355 65.5794 137.965 65.8203C137.574 66.0612 137.379 66.3932 137.379 66.8164C137.379 67.1029 137.451 67.347 137.594 67.5488C137.743 67.7507 137.981 67.9427 138.307 68.125C138.632 68.3073 139.257 68.571 140.182 68.916C141.451 69.3783 142.307 69.8438 142.75 70.3125C143.199 70.7812 143.424 71.3704 143.424 72.0801Z" fill="#19324A"/>
<g clip-path="url(#clip0)">
<path opacity="0.4" d="M84.4613 -5.80916e-05C77.2888 0.0217388 72.125 5.83588 72.125 12.3749C72.1208 15.3709 73.2099 18.2655 75.1878 20.5157C76.3494 21.8411 78.1663 24.6093 78.8588 26.9451C78.8588 26.9648 78.8638 26.9824 78.8666 26.9999H90.1335C90.1335 26.9824 90.1384 26.9648 90.1412 26.9451C90.8338 24.6093 92.6506 21.8411 93.8122 20.5157C95.7902 18.2655 96.8792 15.3709 96.875 12.3749C96.875 5.52861 91.314 -0.021855 84.4613 -5.80916e-05ZM84.5 6.74994C83.0087 6.75162 81.5789 7.34479 80.5244 8.39932C79.4699 9.45385 78.8767 10.8836 78.875 12.3749C78.875 12.6733 78.7565 12.9595 78.5455 13.1704C78.3345 13.3814 78.0484 13.4999 77.75 13.4999C77.4516 13.4999 77.1655 13.3814 76.9545 13.1704C76.7435 12.9595 76.625 12.6733 76.625 12.3749C76.6272 10.287 77.4576 8.28531 78.934 6.80894C80.4104 5.33258 82.4121 4.50218 84.5 4.49994C84.7984 4.49994 85.0845 4.61847 85.2955 4.82945C85.5065 5.04043 85.625 5.32657 85.625 5.62494C85.625 5.92331 85.5065 6.20946 85.2955 6.42044C85.0845 6.63142 84.7984 6.74994 84.5 6.74994Z" fill="#808D9B"/>
<path d="M78.8792 31.9458C78.8802 32.3877 79.0112 32.8196 79.2561 33.1875L80.4584 34.9938C80.8262 35.55 81.6657 35.9979 82.3316 35.9979H86.6698C87.3357 35.9979 88.1752 35.55 88.543 34.9938L89.7446 33.1875C89.973 32.8118 90.1038 32.385 90.125 31.9458V29.25H78.875L78.8792 31.9458ZM69.875 13.5C69.875 13.0525 69.6972 12.6232 69.3807 12.3068C69.0643 11.9903 68.6351 11.8125 68.1875 11.8125H63.6875C63.2399 11.8125 62.8107 11.9903 62.4943 12.3068C62.1778 12.6232 62 13.0525 62 13.5C62 13.9476 62.1778 14.3768 62.4943 14.6933C62.8107 15.0097 63.2399 15.1875 63.6875 15.1875H68.1875C68.6351 15.1875 69.0643 15.0097 69.3807 14.6933C69.6972 14.3768 69.875 13.9476 69.875 13.5ZM105.312 11.8125H100.812C100.365 11.8125 99.9357 11.9903 99.6193 12.3068C99.3028 12.6232 99.125 13.0525 99.125 13.5C99.125 13.9476 99.3028 14.3768 99.6193 14.6933C99.9357 15.0097 100.365 15.1875 100.812 15.1875H105.312C105.76 15.1875 106.189 15.0097 106.506 14.6933C106.822 14.3768 107 13.9476 107 13.5C107 13.0525 106.822 12.6232 106.506 12.3068C106.189 11.9903 105.76 11.8125 105.312 11.8125ZM71.2166 3.88267L67.3198 1.63267C67.1278 1.51703 66.9146 1.44082 66.6927 1.4085C66.4709 1.37618 66.2448 1.38839 66.0277 1.44441C65.8106 1.50044 65.6069 1.59916 65.4284 1.73482C65.2499 1.87047 65.1002 2.04033 64.9881 2.23448C64.876 2.42863 64.8037 2.64317 64.7754 2.86558C64.7471 3.08798 64.7635 3.31379 64.8234 3.52982C64.8834 3.74584 64.9858 3.94775 65.1247 4.12374C65.2636 4.29974 65.4362 4.4463 65.6323 4.55485L69.5291 6.80485C69.7211 6.92049 69.9343 6.9967 70.1562 7.02902C70.378 7.06134 70.6041 7.04913 70.8212 6.99311C71.0383 6.93708 71.242 6.83836 71.4205 6.7027C71.599 6.56705 71.7487 6.39719 71.8608 6.20304C71.9729 6.00889 72.0452 5.79435 72.0735 5.57194C72.1018 5.34954 72.0854 5.12373 72.0255 4.9077C71.9655 4.69168 71.8631 4.48977 71.7242 4.31378C71.5853 4.13778 71.4127 3.99122 71.2166 3.88267ZM103.368 22.4452L99.4709 20.1952C99.2789 20.0795 99.0657 20.0033 98.8438 19.971C98.622 19.9387 98.3959 19.9509 98.1788 20.0069C97.9617 20.0629 97.758 20.1617 97.5795 20.2973C97.401 20.433 97.2513 20.6028 97.1392 20.797C97.0271 20.9911 96.9548 21.2057 96.9265 21.4281C96.8982 21.6505 96.9146 21.8763 96.9745 22.0923C97.0345 22.3083 97.1369 22.5102 97.2758 22.6862C97.4147 22.8622 97.5873 23.0088 97.7834 23.1174L101.68 25.3674C102.067 25.5815 102.523 25.6352 102.949 25.5169C103.375 25.3986 103.737 25.1177 103.959 24.7348C104.18 24.3518 104.242 23.8973 104.131 23.4692C104.021 23.041 103.747 22.6733 103.368 22.4452ZM69.5291 20.1952L65.6323 22.4452C65.4362 22.5537 65.2636 22.7003 65.1247 22.8763C64.9858 23.0523 64.8834 23.2542 64.8234 23.4702C64.7635 23.6862 64.7471 23.912 64.7754 24.1344C64.8037 24.3568 64.876 24.5714 64.9881 24.7655C65.1002 24.9597 65.2499 25.1296 65.4284 25.2652C65.6069 25.4009 65.8106 25.4996 66.0277 25.5556C66.2448 25.6116 66.4709 25.6238 66.6927 25.5915C66.9146 25.5592 67.1278 25.483 67.3198 25.3674L71.2166 23.1174C71.5954 22.8893 71.8696 22.5216 71.9801 22.0934C72.0906 21.6652 72.0286 21.2107 71.8075 20.8278C71.5863 20.4448 71.2237 20.164 70.7976 20.0457C70.3715 19.9274 69.916 19.981 69.5291 20.1952ZM98.6286 7.03126C98.9249 7.03183 99.2161 6.9537 99.4723 6.80485L103.369 4.55485C103.748 4.32676 104.022 3.95906 104.133 3.53087C104.243 3.10268 104.181 2.64822 103.96 2.26526C103.739 1.88231 103.376 1.60146 102.95 1.48316C102.524 1.36485 102.068 1.41854 101.682 1.63267L97.7848 3.88267C97.4633 4.06848 97.212 4.35517 97.07 4.6983C96.9279 5.04143 96.903 5.42184 96.9992 5.78056C97.0953 6.13928 97.3071 6.45626 97.6017 6.68239C97.8963 6.90851 98.2572 7.03114 98.6286 7.03126Z" fill="#808D9B"/>
</g>
<defs>
<clipPath id="clip0">
<rect width="45" height="36" fill="white" transform="translate(62)"/>
</clipPath>
</defs>
</svg>
