<svg width="19" height="19" viewBox="0 0 19 19" fill="none" xmlns="http://www.w3.org/2000/svg">
<path d="M9.1915 4.7833C6.58291 4.7833 4.47881 6.8874 4.47881 9.49599C4.47881 12.1046 6.58291 14.2087 9.1915 14.2087C11.8001 14.2087 13.9042 12.1046 13.9042 9.49599C13.9042 6.8874 11.8001 4.7833 9.1915 4.7833ZM9.1915 12.5599C7.50576 12.5599 6.12764 11.1858 6.12764 9.49599C6.12764 7.80615 7.50166 6.43213 9.1915 6.43213C10.8813 6.43213 12.2554 7.80615 12.2554 9.49599C12.2554 11.1858 10.8772 12.5599 9.1915 12.5599ZM15.1962 4.59053C15.1962 5.20166 14.704 5.68975 14.097 5.68975C13.4858 5.68975 12.9978 5.19756 12.9978 4.59053C12.9978 3.9835 13.4899 3.49131 14.097 3.49131C14.704 3.49131 15.1962 3.9835 15.1962 4.59053ZM18.3175 5.70615C18.2478 4.23369 17.9114 2.92939 16.8327 1.85478C15.7581 0.780176 14.4538 0.443848 12.9813 0.37002C11.4638 0.283887 6.91514 0.283887 5.39756 0.37002C3.9292 0.439746 2.6249 0.776074 1.54619 1.85068C0.467481 2.92529 0.135254 4.22959 0.0614258 5.70205C-0.024707 7.21963 -0.024707 11.7683 0.0614258 13.2858C0.131152 14.7583 0.467481 16.0626 1.54619 17.1372C2.6249 18.2118 3.9251 18.5481 5.39756 18.622C6.91514 18.7081 11.4638 18.7081 12.9813 18.622C14.4538 18.5522 15.7581 18.2159 16.8327 17.1372C17.9073 16.0626 18.2437 14.7583 18.3175 13.2858C18.4036 11.7683 18.4036 7.22373 18.3175 5.70615ZM16.3569 14.9142C16.037 15.7181 15.4177 16.3374 14.6097 16.6614C13.3997 17.1413 10.5286 17.0306 9.1915 17.0306C7.85439 17.0306 4.9792 17.1372 3.77334 16.6614C2.96943 16.3415 2.3501 15.7222 2.02607 14.9142C1.54619 13.7042 1.65693 10.8331 1.65693 9.49599C1.65693 8.15889 1.55029 5.28369 2.02607 4.07783C2.346 3.27393 2.96533 2.65459 3.77334 2.33057C4.9833 1.85068 7.85439 1.96143 9.1915 1.96143C10.5286 1.96143 13.4038 1.85478 14.6097 2.33057C15.4136 2.65049 16.0329 3.26982 16.3569 4.07783C16.8368 5.28779 16.7261 8.15889 16.7261 9.49599C16.7261 10.8331 16.8368 13.7083 16.3569 14.9142Z" fill="white"/>
</svg>
