<svg width="270" height="180" viewBox="0 0 270 180" fill="none" xmlns="http://www.w3.org/2000/svg">
<path d="M225.697 98.6219L217.934 117.09L245.333 128.608L253.096 110.139L225.697 98.6219Z" fill="#EBEBEB"/>
<path d="M253.081 110.405C252.964 110.46 252.844 110.505 252.721 110.542L251.677 110.902L247.821 112.133L235.045 116.1L234.94 116.132L234.886 116.035L234.76 115.801L228.28 103.867C227.477 102.352 226.819 101.12 226.351 100.235C226.138 99.8208 225.965 99.4932 225.836 99.2412C225.772 99.1261 225.717 99.0057 225.674 98.8812C225.756 98.9842 225.827 99.0951 225.886 99.2124L226.444 100.181C226.93 101.056 227.611 102.276 228.449 103.781C230.131 106.848 232.435 111.042 234.98 115.661L235.106 115.898L234.947 115.834L247.774 111.96L251.659 110.808L252.717 110.509C252.834 110.462 252.956 110.427 253.081 110.405Z" fill="#E0E0E0"/>
<path d="M217.93 117.36C217.894 117.295 221.019 115.628 224.907 113.641C228.795 111.654 231.974 110.095 232.01 110.164C232.046 110.232 228.917 111.895 225.029 113.882C221.141 115.87 217.962 117.421 217.93 117.36Z" fill="#E0E0E0"/>
<path d="M241.2 113.76C241.272 113.742 242.255 117.108 243.389 121.284C244.523 125.46 245.387 128.844 245.315 128.88C245.243 128.916 244.264 125.532 243.13 121.356C241.996 117.18 241.142 113.76 241.2 113.76Z" fill="#E0E0E0"/>
<path d="M50.0345 132.341L44.2617 146.074L64.6386 154.64L70.4113 140.907L50.0345 132.341Z" fill="#F5F5F5"/>
<path d="M70.406 141.12C70.3212 141.164 70.2319 141.199 70.1396 141.224L69.3656 141.48L66.4856 142.398L56.978 145.357L56.8988 145.382L56.8592 145.31C56.8304 145.253 56.798 145.195 56.762 145.134L51.9596 136.26L50.5196 133.556L50.138 132.818C50.0904 132.734 50.0494 132.646 50.0156 132.556C50.0773 132.631 50.1304 132.713 50.174 132.8L50.588 133.52C50.948 134.168 51.4592 135.076 52.0784 136.192L56.9348 145.037C56.9672 145.098 56.9996 145.159 57.032 145.213L56.9132 145.166L66.4388 142.265L69.3188 141.408L70.1072 141.185C70.2041 141.152 70.3043 141.13 70.406 141.12Z" fill="#E0E0E0"/>
<path d="M44.26 146.272C44.2348 146.221 46.5568 144.983 49.4476 143.503C52.3384 142.024 54.7216 140.868 54.7216 140.918C54.7216 140.969 52.4248 142.204 49.534 143.683C46.6432 145.163 44.2816 146.318 44.26 146.272Z" fill="#E0E0E0"/>
<path d="M61.5604 143.593C61.6108 143.593 62.3416 146.084 63.184 149.188C64.0264 152.291 64.6708 154.822 64.624 154.836C64.5772 154.85 63.8392 152.345 62.9968 149.242C62.1544 146.138 61.5208 143.608 61.5604 143.593Z" fill="#E0E0E0"/>
<path d="M40.6609 87.2661L16.4941 96.8441L25.7618 120.228L49.9286 110.65L40.6609 87.2661Z" fill="#F5F5F5"/>
<path d="M26.8359 117.482L28.7547 102.802L37.2723 108.324L38.9751 102.924L47.2587 109.393L26.8359 117.482Z" fill="#E0E0E0"/>
<path d="M35.6418 97.3728C35.7781 97.7171 35.8093 98.094 35.7314 98.4559C35.6535 98.8179 35.47 99.1486 35.2042 99.4063C34.9383 99.6639 34.602 99.837 34.2378 99.9035C33.8736 99.9701 33.4978 99.9272 33.158 99.7802C32.8182 99.6332 32.5297 99.3887 32.3288 99.0777C32.1279 98.7667 32.0238 98.4031 32.0295 98.0329C32.0353 97.6628 32.1507 97.3026 32.3611 96.998C32.5716 96.6934 32.8676 96.458 33.2118 96.3216C33.4403 96.2306 33.6846 96.1856 33.9306 96.1892C34.1765 96.1927 34.4194 96.2449 34.6451 96.3425C34.8709 96.4402 35.0752 96.5815 35.2462 96.7583C35.4173 96.9351 35.5517 97.144 35.6418 97.3728Z" fill="#E0E0E0"/>
<g opacity="0.3">
<path opacity="0.3" d="M47.2832 109.458C47.2663 109.428 47.2518 109.397 47.24 109.364C47.2112 109.292 47.1716 109.206 47.1248 109.094L46.6964 108.043C46.3364 107.122 45.7856 105.782 45.098 104.083C43.7336 100.674 41.786 95.8031 39.4532 89.9855L39.59 90.0467L19.178 98.1539C19.16 98.1899 19.3076 97.8515 19.2464 97.9955V98.0135V98.0351V98.0747L19.2788 98.1575L19.3436 98.3267L19.4768 98.6579L19.7396 99.3239C19.916 99.7631 20.0996 100.206 20.2616 100.642L21.2948 103.248L23.2892 108.288L26.9288 117.511L26.792 117.454L41.5736 111.654L45.7496 110.027L46.8584 109.602L47.1464 109.494C47.1802 109.48 47.2151 109.469 47.2508 109.462L47.1644 109.501L46.8908 109.616L45.8108 110.059L41.678 111.726L26.9036 117.648L26.8028 117.691L26.7632 117.59C25.6292 114.743 24.398 111.647 23.0984 108.374C22.448 106.738 21.7808 105.058 21.0968 103.334C20.7584 102.474 20.4128 101.606 20.0672 100.732C19.8908 100.292 19.7072 99.8532 19.5416 99.4104L19.2788 98.7443L19.1456 98.4131L19.0808 98.2475L19.0484 98.1611V98.1215V98.0999C18.9872 98.2403 19.1312 97.8983 19.1204 97.9343L39.5432 89.8595L39.644 89.8199L39.6836 89.9171L45.2528 104.119L46.79 108.079L47.1896 109.116C47.2292 109.228 47.2616 109.314 47.2868 109.379C47.2882 109.405 47.287 109.432 47.2832 109.458Z" fill="#E0E0E0"/>
</g>
<path d="M179.112 151.272L177.805 150.329C177.063 149.791 176.54 149.004 176.333 148.111L175.411 144.151C175.116 142.907 174.386 141.81 173.353 141.056C172.32 140.302 171.052 139.942 169.777 140.04L169.417 138.506C169.396 138.414 169.357 138.326 169.301 138.249C169.246 138.172 169.176 138.106 169.096 138.056C169.015 138.006 168.925 137.972 168.832 137.956C168.738 137.941 168.642 137.944 168.55 137.966C168.457 137.988 168.369 138.027 168.292 138.082C168.215 138.137 168.149 138.207 168.099 138.288C168.049 138.368 168.015 138.458 168 138.552C167.984 138.646 167.988 138.742 168.01 138.834L168.37 140.339C167.132 140.784 166.102 141.667 165.473 142.822C164.845 143.977 164.662 145.322 164.96 146.603L165.842 150.404C166.037 151.233 165.947 152.103 165.587 152.874L164.77 154.627L170.087 153.36C170.292 153.668 170.569 153.921 170.895 154.097C171.22 154.273 171.584 154.366 171.954 154.368C172.324 154.371 172.689 154.283 173.017 154.111C173.344 153.94 173.625 153.69 173.834 153.385C174.03 153.092 174.153 152.756 174.194 152.406L179.112 151.272Z" fill="#EBEBEB"/>
<path d="M182.201 43.2324L205.234 58.2804L195.528 74.2896L171.938 58.3128L182.201 43.2324Z" fill="#F5F5F5"/>
<path d="M182.201 43.2322L198.876 41.6554C199.219 41.6228 199.562 41.7092 199.848 41.9C200.133 42.0909 200.345 42.3745 200.446 42.703L205.234 58.2802" fill="#78B7FA"/>
<path d="M182.201 43.2322L198.876 41.6554C199.219 41.6228 199.562 41.7092 199.848 41.9C200.133 42.0909 200.345 42.3745 200.446 42.703L205.234 58.2802" fill="#E0E0E0"/>
<path d="M171.938 58.32C171.938 58.2732 175.091 57.4884 179.008 56.5668C182.925 55.6452 186.121 54.9252 186.121 54.972C186.121 55.0188 182.968 55.8 179.055 56.7252C175.141 57.6504 171.948 58.3596 171.938 58.32Z" fill="#E0E0E0"/>
<path d="M195.528 74.2896C195.481 74.2896 194.995 71.1468 194.448 67.2552C193.9 63.3636 193.49 60.2028 193.537 60.1992C193.584 60.1956 194.066 63.3384 194.617 67.2336C195.168 71.1288 195.574 74.2824 195.528 74.2896Z" fill="#E0E0E0"/>
<path d="M182.201 43.2324L187.619 59.8356L205.234 58.2804L182.201 43.2324Z" fill="#E0E0E0"/>
<path d="M182.791 44.8487L187.507 37.6667L207.735 50.7527L202.962 58.4351L187.698 59.7131L182.791 44.8487Z" fill="#FAFAFA"/>
<path d="M182.791 44.8488C182.791 44.8488 182.827 44.9424 182.888 45.1188L183.162 45.9036C183.396 46.602 183.734 47.61 184.17 48.8988C185.034 51.4872 186.272 55.1952 187.77 59.6988L187.691 59.6448L202.955 58.3488L202.883 58.392L205.719 53.8236C206.375 52.7724 207.02 51.7344 207.656 50.7096L207.685 50.8392L187.475 37.7244H187.557L184.065 42.9876C183.659 43.596 183.345 44.0676 183.126 44.3916L182.877 44.7516C182.823 44.8344 182.791 44.874 182.791 44.874C182.791 44.874 182.813 44.8308 182.863 44.748C182.913 44.6652 182.993 44.5392 183.093 44.388L184.001 42.9732L187.457 37.6632L187.489 37.6128L187.539 37.6452L207.786 50.7024L207.861 50.7528L207.815 50.832L205.878 53.946L203.041 58.4856L203.016 58.5252H202.969L187.705 59.7888H187.644L187.626 59.7312L184.083 48.8916C183.666 47.6028 183.338 46.5912 183.115 45.8928L182.867 45.108C182.813 44.9388 182.791 44.8488 182.791 44.8488Z" fill="#E0E0E0"/>
<path d="M202.17 52.2504C202.141 52.2936 199.038 50.31 195.237 47.8188C191.435 45.3276 188.375 43.2756 188.397 43.2324C188.418 43.1892 191.529 45.1728 195.33 47.664C199.132 50.1552 202.199 52.2 202.17 52.2504Z" fill="#E0E0E0"/>
<path d="M200.826 54.2736C200.798 54.3168 197.694 52.3332 193.893 49.842C190.091 47.3508 187.031 45.2988 187.053 45.2556C187.074 45.2124 190.185 47.196 193.99 49.6872C197.795 52.1784 200.855 54.2304 200.826 54.2736Z" fill="#E0E0E0"/>
<path d="M199.28 56.6027C199.254 56.6459 196.148 54.6623 192.346 52.1747C188.544 49.6871 185.484 47.6279 185.506 47.5847C185.528 47.5415 188.642 49.5251 192.443 52.0163C196.245 54.5075 199.308 56.5595 199.28 56.6027Z" fill="#E0E0E0"/>
<path d="M197.734 58.9355C197.705 58.9787 194.743 57.0887 191.114 54.7127C187.485 52.3367 184.569 50.3927 184.598 50.3315C184.627 50.2703 187.589 52.1783 191.218 54.5543C194.847 56.9303 197.763 58.8923 197.734 58.9355Z" fill="#E0E0E0"/>
<path d="M193.806 59.2776C193.689 59.2321 193.578 59.1729 193.475 59.1012L192.6 58.572L189.767 56.772C188.662 56.052 187.672 55.4076 186.959 54.9252C186.599 54.684 186.318 54.4824 186.124 54.342C186.017 54.277 185.919 54.1984 185.832 54.108C185.95 54.1502 186.061 54.2083 186.163 54.2808L187.031 54.8136L189.868 56.6136C190.973 57.3336 191.963 57.9744 192.672 58.4604C193.032 58.7016 193.313 58.8996 193.507 59.0436C193.617 59.1081 193.717 59.1868 193.806 59.2776Z" fill="#E0E0E0"/>
<path d="M189.919 59.5296C189.385 59.2866 188.878 58.9873 188.407 58.6368C187.9 58.3384 187.427 57.9859 186.996 57.5856C187.53 57.8286 188.037 58.1279 188.508 58.4784C189.015 58.7768 189.488 59.1292 189.919 59.5296Z" fill="#E0E0E0"/>
<path d="M101.759 56.7073L98.2202 61.9777L96.8414 61.4089L86.5778 67.8889L84.5762 62.4565C84.5762 62.4565 90.3866 60.7393 91.6466 58.8889C92.9066 57.0385 91.7762 56.4517 91.7762 56.4517L94.7318 53.8093L101.759 56.7073Z" fill="#EBEBEB"/>
<path d="M99.4039 44.7949C99.4039 44.7949 95.3215 43.3549 90.1015 36.9865C84.8815 30.6181 83.0095 22.7377 82.2823 22.6801C81.5551 22.6225 78.578 20.7901 71.018 33.1201C63.458 45.4501 65.456 48.7621 66.6548 48.8809C67.8536 48.9997 76.2236 47.7109 81.2168 48.8809C86.21 50.0509 92.402 53.4781 92.402 53.4781L99.4039 44.7949Z" fill="#EBEBEB"/>
<path d="M107.442 53.4708L105.685 56.0196L104.9 57.1608C104.38 57.9157 103.59 58.4423 102.693 58.6319C101.796 58.8214 100.861 58.6595 100.08 58.1796L91.4688 53.9712L98.1324 42.6492L106.56 48.51C107.332 49.0529 107.858 49.8792 108.024 50.8086C108.189 51.7379 107.98 52.695 107.442 53.4708Z" fill="#E0E0E0"/>
<path d="M71.4755 33.4222C67.4363 40.1074 65.3555 46.2454 66.8207 47.1346C68.2859 48.0238 72.7571 43.3222 76.7927 36.637C80.8283 29.9518 82.9127 23.8102 81.4475 22.9246C79.9823 22.039 75.5111 26.737 71.4755 33.4222Z" fill="#E0E0E0"/>
<path d="M105.51 53.7156C105.467 53.7876 104.308 53.172 102.922 52.3332C101.536 51.4944 100.452 50.7564 100.495 50.6844C100.539 50.6124 101.701 51.228 103.084 52.0632C104.466 52.8984 105.557 53.64 105.51 53.7156Z" fill="#EBEBEB"/>
<path d="M106.463 52.0957C106.417 52.1713 105.383 51.5737 104.131 50.7673C102.878 49.9609 101.92 49.2481 101.971 49.1725C102.021 49.0969 103.051 49.6945 104.303 50.5045C105.556 51.3145 106.51 52.0237 106.463 52.0957Z" fill="#EBEBEB"/>
<path d="M104.351 55.3931C104.333 55.4327 104.052 55.3319 103.609 55.1339C103.386 55.0331 103.123 54.9107 102.832 54.7739C102.54 54.6371 102.252 54.4355 101.939 54.2411C100.679 53.4635 99.7322 52.7363 99.779 52.6679C99.8258 52.5995 100.859 53.2043 102.105 53.9747C102.418 54.1619 102.706 54.3671 102.979 54.5219C103.253 54.6767 103.505 54.8135 103.699 54.9359C104.121 55.1807 104.369 55.3535 104.351 55.3931Z" fill="#EBEBEB"/>
<path d="M78.1722 32.6305C78.1722 32.6305 74.7954 29.9341 72.2142 34.6177C69.633 39.3013 73.3662 40.5721 73.3662 40.5721C75.333 38.1636 76.9509 35.4902 78.1722 32.6305Z" fill="#FAFAFA"/>
<path d="M82.7467 27.2268C82.6902 27.5413 82.6047 27.8498 82.4911 28.1484C82.3039 28.7352 82.0375 29.5884 81.6775 30.636C81.4579 31.1436 81.2203 31.716 80.9575 32.2992L80.5579 33.2244C80.4895 33.3828 80.4211 33.5448 80.3491 33.7068C80.2771 33.8688 80.1835 34.0272 80.1007 34.1892C79.7551 34.8348 79.3951 35.5104 79.0207 36.216C78.9271 36.3888 78.8335 36.5652 78.7399 36.7452C78.6463 36.9252 78.5239 37.1052 78.4159 37.2636L77.7607 38.3184L77.0803 39.3696C76.9687 39.5388 76.8679 39.7296 76.7419 39.8772L76.3819 40.356L74.9851 42.1776C74.8699 42.3216 74.7655 42.4692 74.6503 42.606L74.2903 42.9948L73.6099 43.7436L72.3931 45.0828C71.5939 45.8424 70.9279 46.44 70.4743 46.854C70.2464 47.08 69.9995 47.286 69.7363 47.4696C69.9336 47.2123 70.1515 46.9715 70.3879 46.7496L72.2383 44.9064L73.4191 43.5528L74.0779 42.8004C74.1931 42.6744 74.3083 42.5412 74.4379 42.408C74.5675 42.2748 74.6539 42.1272 74.7655 41.9832L76.1371 40.1616L76.4971 39.6828C76.6195 39.5244 76.7167 39.348 76.8319 39.1788L77.5015 38.1312L78.1747 37.0872C78.2791 36.9144 78.4015 36.7524 78.4951 36.5724L78.7795 36.0468C79.1395 35.352 79.5175 34.6824 79.8595 34.0452C79.9423 33.8832 80.0359 33.7284 80.1115 33.57C80.1871 33.4116 80.2555 33.2496 80.3239 33.0912L80.7343 32.1768L81.4759 30.5388L82.3831 28.098C82.4813 27.7985 82.6029 27.5072 82.7467 27.2268Z" fill="#E0E0E0"/>
<path d="M63.238 36.9287C63.238 36.9827 60.592 36.8927 57.3304 36.7343C54.0688 36.5759 51.43 36.4031 51.4336 36.3527C51.4372 36.3023 54.0796 36.3887 57.3412 36.5471C60.6028 36.7055 63.2416 36.8783 63.238 36.9287Z" fill="#EBEBEB"/>
<path d="M65.8129 29.2141C65.7913 29.2609 62.7241 27.7741 58.9729 25.8661C55.2217 23.9581 52.1761 22.3957 52.2013 22.3525C52.2265 22.3093 55.2901 23.7925 59.0413 25.6969C62.7925 27.6013 65.8381 29.1601 65.8129 29.2141Z" fill="#EBEBEB"/>
<path d="M70.4343 24.2424C70.3839 24.2424 69.7143 21.9312 68.9511 19.0512C68.1879 16.1712 67.6011 13.8204 67.6515 13.806C67.7019 13.7916 68.3715 16.1208 69.1347 19.0008C69.8979 21.8808 70.4847 24.228 70.4343 24.2424Z" fill="#EBEBEB"/>
<path d="M173.83 30.7799C173.558 29.9216 173.029 29.1677 172.315 28.6199C171.636 28.0593 170.799 27.7257 169.921 27.6659C169.457 27.6499 168.995 27.7274 168.562 27.8938C168.129 28.0602 167.734 28.312 167.401 28.6343C167.005 29.023 166.709 29.5024 166.54 30.0311C166.078 29.4758 165.451 29.0824 164.75 28.9083C164.048 28.7341 163.31 28.7882 162.642 29.0627C161.834 29.4143 161.158 30.0114 160.708 30.7691C160.213 31.522 159.961 32.4096 159.988 33.3107C160.047 34.4561 160.474 35.552 161.205 36.4355C162.027 37.3193 163.049 37.9922 164.186 38.3975C166.036 39.1175 168.463 39.9995 168.463 39.9995C168.463 39.9995 170.09 38.2823 171.591 36.9791C172.528 36.2161 173.269 35.2397 173.751 34.1315C174.135 33.0515 174.163 31.8768 173.83 30.7799Z" fill="#EBEBEB"/>
<path d="M157.681 21.2399C157.691 20.7081 157.539 20.1857 157.245 19.7423C156.974 19.296 156.568 18.9469 156.086 18.7451C155.829 18.6451 155.554 18.5982 155.278 18.6075C155.002 18.6168 154.731 18.682 154.481 18.7991C154.179 18.9482 153.919 19.1681 153.721 19.4399C153.613 19.1666 153.446 18.9206 153.231 18.7199C153.032 18.53 152.795 18.3829 152.536 18.2876C152.277 18.1922 152.002 18.1507 151.727 18.1655C151.212 18.1995 150.721 18.3933 150.323 18.7199C149.904 19.0493 149.596 19.4991 149.441 20.0087C149.254 20.6613 149.282 21.3567 149.52 21.9923C149.811 22.6452 150.256 23.2181 150.816 23.6627C151.712 24.4223 152.904 25.3835 152.904 25.3835C152.904 25.3835 154.142 24.7355 155.233 24.3035C155.904 24.0577 156.506 23.6525 156.986 23.1227C157.415 22.5866 157.659 21.9261 157.681 21.2399Z" fill="#EBEBEB"/>
<path d="M90.8037 138.906C90.5866 138.42 90.2245 138.012 89.7669 137.74C89.3286 137.456 88.8128 137.315 88.2909 137.336C87.8488 137.365 87.4286 137.54 87.0963 137.833C86.7641 138.126 86.5385 138.521 86.4549 138.956C86.2388 138.75 85.9793 138.595 85.6953 138.503C85.433 138.418 85.1561 138.387 84.8814 138.411C84.6067 138.436 84.3399 138.516 84.0969 138.647C83.6443 138.909 83.2854 139.307 83.0709 139.784C82.8347 140.261 82.7505 140.799 82.8297 141.325C82.9397 141.997 83.2643 142.614 83.7549 143.086C84.299 143.548 84.9458 143.874 85.6413 144.036C86.7789 144.335 88.2657 144.691 88.2657 144.691C88.2657 144.691 89.1045 143.572 89.9037 142.704C90.4014 142.198 90.7715 141.581 90.9837 140.904C91.1415 140.236 91.0783 139.535 90.8037 138.906Z" fill="#EBEBEB"/>
<path d="M232.445 69.7428C232.424 69.1082 232.353 68.4763 232.232 67.8528C232.076 67.1251 231.811 66.4249 231.448 65.7756C230.588 64.2151 229.212 63.0024 227.556 62.3455C225.9 61.6886 224.067 61.6286 222.372 62.1756C221.668 62.3944 221.003 62.7211 220.399 63.144C220.087 63.3592 219.789 63.5937 219.506 63.846C219.228 64.1143 218.967 64.4005 218.725 64.7028C217.71 65.971 217.127 67.531 217.062 69.1544C216.997 70.7778 217.454 72.3794 218.365 73.7244C218.584 74.0453 218.825 74.3508 219.085 74.6388C219.348 74.9145 219.628 75.173 219.924 75.4128C220.494 75.8782 221.131 76.2545 221.814 76.5288C223.081 77.0465 224.463 77.2168 225.817 77.022C226.997 76.8546 228.121 76.4105 229.097 75.726C229.907 75.1653 230.601 74.4539 231.142 73.6308C231.556 73.013 231.874 72.3356 232.085 71.622C232.254 71.0097 232.374 70.3849 232.445 69.7536C232.445 69.7536 232.445 69.7968 232.445 69.8796C232.445 69.9624 232.445 70.0992 232.423 70.2396C232.415 70.4404 232.391 70.6402 232.351 70.8372C232.311 71.1088 232.25 71.3771 232.171 71.64C231.971 72.3683 231.66 73.0616 231.25 73.6956C230.649 74.63 229.858 75.4264 228.927 76.0321C227.996 76.6378 226.947 77.039 225.85 77.2092C224.459 77.4158 223.038 77.2468 221.735 76.7196C221.031 76.4399 220.373 76.0552 219.784 75.5784C219.48 75.3317 219.192 75.0672 218.92 74.7864C218.66 74.4887 218.42 74.1749 218.2 73.8468C217.255 72.4628 216.781 70.8121 216.846 69.138C216.911 67.4639 217.511 65.8549 218.56 64.548C218.809 64.2365 219.078 63.9418 219.366 63.666C219.659 63.4065 219.968 63.166 220.291 62.946C220.914 62.5122 221.6 62.1782 222.325 61.956C223.664 61.5304 225.093 61.4732 226.462 61.7904C227.544 62.043 228.561 62.5232 229.444 63.1992C230.326 63.8752 231.055 64.7314 231.581 65.7108C231.942 66.3741 232.198 67.0894 232.34 67.8312C232.399 68.0992 232.437 68.3711 232.456 68.6448C232.482 68.844 232.491 69.0453 232.481 69.246C232.481 69.3972 232.481 69.5196 232.481 69.606C232.481 69.6924 232.452 69.7428 232.445 69.7428Z" fill="#E0E0E0"/>
<path d="M224.662 77.4683C223.634 77.4754 222.614 77.2772 221.664 76.8851C220.943 76.6008 220.27 76.2074 219.669 75.7187C219.414 75.5202 219.173 75.3036 218.949 75.0707L218.791 74.9159L218.65 74.7539C218.423 74.4973 218.214 74.2255 218.024 73.9403C217.059 72.5254 216.574 70.8385 216.639 69.1272C216.703 67.416 217.315 65.7706 218.384 64.4327C218.595 64.1657 218.823 63.9131 219.068 63.6767L219.205 63.5399L219.385 63.3851C219.63 63.1704 219.888 62.972 220.159 62.7911C220.796 62.351 221.496 62.0111 222.236 61.7831C223.606 61.3524 225.066 61.294 226.466 61.6139C227.575 61.8712 228.615 62.3625 229.519 63.0547C230.422 63.747 231.167 64.6243 231.704 65.6279C232.073 66.3035 232.335 67.0321 232.482 67.7879C232.539 68.0341 232.576 68.2845 232.593 68.5367V68.6159C232.62 68.8223 232.628 69.0308 232.618 69.2387V69.5987C232.621 69.6455 232.621 69.6923 232.618 69.7391V69.8543L232.597 70.2143C232.587 70.4234 232.561 70.6316 232.521 70.8371V70.9127C232.482 71.1646 232.425 71.4136 232.352 71.6579C232.147 72.4005 231.829 73.1071 231.409 73.7531C230.796 74.7123 229.985 75.5297 229.031 76.1505C228.077 76.7713 227.001 77.1813 225.876 77.3531C225.474 77.4185 225.069 77.457 224.662 77.4683ZM224.662 61.9883C223.9 61.9847 223.142 62.1063 222.42 62.3483C221.732 62.56 221.082 62.8783 220.494 63.2915C220.241 63.4551 220 63.6368 219.774 63.8351L219.468 64.1159C219.257 64.3305 219.061 64.559 218.881 64.7999C217.887 66.0378 217.317 67.5612 217.252 69.1471C217.187 70.733 217.632 72.2979 218.521 73.6127C218.696 73.8748 218.888 74.125 219.097 74.3615L219.226 74.5127L219.374 74.6603C219.58 74.8686 219.8 75.0623 220.033 75.2399C220.59 75.6935 221.214 76.0579 221.883 76.3199C223.122 76.8252 224.472 76.9929 225.796 76.8059C226.847 76.6508 227.852 76.2756 228.748 75.7048C229.643 75.134 230.407 74.3806 230.991 73.4939C231.395 72.891 231.706 72.2308 231.913 71.5355C232.074 70.994 232.183 70.4382 232.237 69.8759C232.237 69.8039 232.237 69.7499 232.258 69.7067C232.28 69.6635 232.258 69.6095 232.258 69.5375C232.247 68.9734 232.182 68.4116 232.064 67.8599C231.91 67.1501 231.652 66.4671 231.297 65.8331C230.831 64.9925 230.209 64.2484 229.465 63.6407C228.565 62.9023 227.505 62.3845 226.369 62.1287C225.81 62.0198 225.242 61.9691 224.673 61.9775L224.662 61.9883Z" fill="#E0E0E0"/>
<path d="M229.784 75.294C229.831 75.2508 231.458 76.9284 233.417 79.0452C235.375 81.162 236.923 82.9116 236.873 82.9584C236.822 83.0052 235.199 81.324 233.24 79.2072C231.282 77.0904 229.737 75.3408 229.784 75.294Z" fill="#E0E0E0"/>
<path d="M236.942 83.1384H236.881C236.809 83.1384 236.639 83.1384 233.126 79.3296C229.612 75.5208 229.616 75.3696 229.619 75.2904V75.2148L229.673 75.1644C229.825 75.0204 229.839 75.0096 231.027 76.2444C231.711 76.9644 232.611 77.9076 233.547 78.9336C234.483 79.9596 235.376 80.928 236.031 81.6696C237.158 82.9476 237.147 82.9584 236.992 83.1096L236.942 83.1384Z" fill="#E0E0E0"/>
<path d="M54.0303 59.7096L52.5327 60.3108L47.4279 57.0708L46.2291 54.0756C46.2291 54.0756 43.8531 54.864 45.6963 58.6764C47.5395 62.4888 46.8447 61.6068 46.8447 61.6068C46.8447 61.6068 41.9307 63.5976 41.6931 64.1916C41.5203 64.62 43.3455 69.5664 44.3571 72.2376C44.8647 73.584 46.1823 74.4984 47.5503 74.3148C47.7416 74.2923 47.9292 74.2451 48.1083 74.1744C49.3359 73.6812 55.2111 70.1712 55.2111 70.1712L57.8031 69.1308L54.0303 59.7096Z" fill="#EBEBEB"/>
<path d="M57.9971 57.168L61.1867 67.7988L58.6163 68.8284L54.5879 58.7736L57.9971 57.168Z" fill="#EBEBEB"/>
<path d="M206.564 137.455L204.797 137.747L200.052 133.006L199.473 129.478C199.473 129.478 196.711 129.758 197.795 134.327C198.879 138.895 198.335 137.776 198.335 137.776C198.335 137.776 192.535 138.755 192.136 139.342C191.848 139.763 192.64 145.555 193.093 148.702C193.324 150.282 194.533 151.582 196.053 151.715C196.265 151.74 196.48 151.74 196.693 151.715C198.133 151.477 205.333 149.08 205.333 149.08L208.386 148.576L206.564 137.455Z" fill="#F5F5F5"/>
<path d="M211.468 135.651L212.375 147.924L209.347 148.424L207.393 136.573L211.468 135.651Z" fill="#F5F5F5"/>
<path d="M112.569 148.889C113.449 148.795 114.282 148.445 114.965 147.883C115.647 147.32 116.15 146.57 116.411 145.724C117.181 143.352 116 140.839 113.775 140.112C111.551 139.385 109.117 140.728 108.347 143.104C108.056 143.949 108.023 144.862 108.252 145.727C108.481 146.591 108.961 147.369 109.632 147.96C103.119 146.909 101.24 153.752 101.24 153.752L115.921 158.512C115.921 158.512 118.441 151.79 112.569 148.889Z" fill="#EBEBEB"/>
<path d="M208.364 84.1069H63.586C51.2491 84.1069 41.248 94.108 41.248 106.445V108.022C41.248 120.359 51.2491 130.36 63.586 130.36H208.364C220.701 130.36 230.702 120.359 230.702 108.022V106.445C230.702 94.108 220.701 84.1069 208.364 84.1069Z" fill="#78B7FA"/>
<g opacity="0.3">
<path opacity="0.3" d="M208.364 84.1069H63.586C51.2491 84.1069 41.248 94.108 41.248 106.445V108.022C41.248 120.359 51.2491 130.36 63.586 130.36H208.364C220.701 130.36 230.702 120.359 230.702 108.022V106.445C230.702 94.108 220.701 84.1069 208.364 84.1069Z" fill="black"/>
</g>
<path d="M207.575 80.3196H64.3744C51.6021 80.3196 41.248 90.6736 41.248 103.446C41.248 116.218 51.6021 126.572 64.3744 126.572H207.575C220.348 126.572 230.702 116.218 230.702 103.446C230.702 90.6736 220.348 80.3196 207.575 80.3196Z" fill="#78B7FA"/>
<g opacity="0.3">
<path opacity="0.3" d="M179.139 80.3196C179.139 80.3196 178.098 80.3412 177.573 80.3196C175.773 80.3196 172.533 80.3196 172.533 80.3196L170.207 84.6C170.743 85.734 171.442 86.9976 172.669 87.2496C173.288 87.3312 173.916 87.2518 174.495 87.0192C175.952 86.571 177.315 85.8597 178.516 84.9204C179.264 84.3895 179.822 83.6323 180.107 82.7604C180.334 81.8712 179.967 80.7084 179.139 80.3196Z" fill="black"/>
</g>
<g opacity="0.3">
<path opacity="0.3" d="M96.7701 84.9384C96.2265 83.6028 95.3589 81.2052 94.2249 80.3196C94.2249 80.3196 86.9637 80.442 86.9277 80.3196L90.3009 92.4012C91.3809 93.2616 91.9281 94.4496 92.2773 95.5728C92.6265 96.696 92.9145 97.902 93.7173 98.748C94.5201 99.594 96.1113 99.828 96.8097 98.8956C97.5981 97.8408 96.7413 96.3756 96.7161 95.0616C96.6909 93.7476 97.5225 92.5884 97.8609 91.3176C98.4405 89.19 97.5981 86.9724 96.7701 84.9384Z" fill="black"/>
</g>
<path d="M151.393 42.9877C151.897 41.7097 152.404 40.3921 152.412 39.0277C152.419 37.6633 151.81 36.1729 150.612 35.5825C149.496 35.0389 148.153 35.3521 146.976 34.9741C145.536 34.5061 144.567 33.0841 143.883 31.6765C143.199 30.2689 142.641 28.7425 141.529 27.6697C140.782 26.9781 139.84 26.534 138.832 26.398C137.824 26.2621 136.798 26.4409 135.895 26.9101C134.591 26.064 133.078 25.5967 131.524 25.5601C129.584 25.5601 127.381 25.7833 126.07 27.2161C125.055 28.3249 124.429 29.7361 123.165 30.5317C121.423 31.6549 119.137 30.8161 117.07 30.9565C116.649 30.9853 116.16 31.1077 115.99 31.4965C115.948 31.674 115.943 31.8586 115.978 32.0379C116.012 32.2173 116.084 32.3874 116.188 32.5369L117.891 35.8273C117.459 36.0361 116.985 36.1445 116.505 36.1445C116.025 36.1445 115.551 36.0361 115.119 35.8273C115.289 38.0223 116.223 40.0885 117.758 41.6665C117.398 41.4181 116.84 41.7025 116.678 42.1201C116.548 42.5544 116.568 43.0199 116.736 43.4413C117.138 44.7673 117.821 45.9914 118.737 47.031C119.654 48.0707 120.783 48.9016 122.048 49.4677C123.312 50.0338 124.684 50.3219 126.07 50.3126C127.456 50.3033 128.824 49.9967 130.081 49.4137L141.511 49.9213C141.681 50.3565 141.954 50.7441 142.306 51.0513C142.658 51.3584 143.08 51.5759 143.534 51.6853C144.78 50.7025 144.974 50.1661 144.974 50.1661C145.78 50.7241 145.154 50.4505 145.78 50.7241C147.22 51.3541 149.28 50.4901 149.55 48.9061C149.614 48.2619 149.864 47.6504 150.27 47.1457C150.709 46.6705 151.35 46.4761 151.908 46.1701C152.804 45.6755 153.514 44.9019 153.931 43.9669C153.463 43.9881 152.996 43.9121 152.559 43.7435C152.122 43.575 151.725 43.3176 151.393 42.9877Z" fill="#263238"/>
<path d="M123.209 38.6532C123.229 35.894 124.288 33.2435 126.173 31.2291C128.059 29.2146 130.634 27.9837 133.386 27.7812L133.955 27.7416C140.096 27.6516 143.606 32.814 143.527 38.9556L144.438 67.2408L130.419 68.2416L129.887 59.04C129.887 59.04 123.943 58.5576 123.439 52.686C123.194 49.86 123.169 43.9776 123.209 38.6532Z" fill="#FFBE9D"/>
<path d="M126.154 43.0993C126.168 43.3183 126.267 43.5232 126.43 43.6705C126.593 43.8177 126.806 43.8957 127.026 43.8877C127.133 43.8877 127.239 43.8664 127.338 43.825C127.437 43.7837 127.527 43.723 127.602 43.6467C127.678 43.5703 127.737 43.4797 127.777 43.3802C127.817 43.2807 127.837 43.1742 127.836 43.0669C127.823 42.8476 127.724 42.6421 127.561 42.4947C127.398 42.3473 127.184 42.2696 126.965 42.2785C126.857 42.2775 126.75 42.2982 126.651 42.3392C126.551 42.3802 126.461 42.4408 126.386 42.5174C126.31 42.5939 126.251 42.6849 126.211 42.7849C126.171 42.8848 126.152 42.9918 126.154 43.0993Z" fill="#263238"/>
<path d="M124.983 40.9031C125.095 41.0075 125.703 40.4891 126.599 40.4243C127.496 40.3595 128.198 40.7627 128.288 40.6475C128.335 40.5935 128.212 40.4027 127.91 40.2155C127.498 39.9739 127.022 39.8646 126.545 39.9023C126.076 39.9351 125.63 40.1167 125.271 40.4207C125.008 40.6547 124.918 40.8599 124.983 40.9031Z" fill="#263238"/>
<path d="M130.972 48.2401C130.972 48.1861 130.403 48.1321 129.485 48.0817C129.251 48.0817 129.031 48.0457 128.981 47.8909C128.943 47.6545 128.978 47.412 129.082 47.1961C129.259 46.6201 129.444 46.0201 129.636 45.3961C130.399 42.8257 130.936 40.7161 130.831 40.6909C130.727 40.6657 130.025 42.7177 129.262 45.2881C129.079 45.9217 128.904 46.5217 128.736 47.0881C128.612 47.3774 128.593 47.7007 128.682 48.0025C128.722 48.0816 128.779 48.1506 128.85 48.2043C128.92 48.2579 129.002 48.2948 129.089 48.3121C129.218 48.339 129.35 48.3475 129.481 48.3373C130.403 48.3301 130.972 48.2941 130.972 48.2401Z" fill="#263238"/>
<path d="M124.707 38.7289C124.912 38.9233 125.661 38.6605 126.579 38.5957C127.497 38.5309 128.281 38.6245 128.443 38.4013C128.515 38.2897 128.382 38.0917 128.029 37.9189C127.544 37.7057 127.012 37.6225 126.485 37.6777C125.959 37.7156 125.453 37.8906 125.016 38.1853C124.707 38.4157 124.613 38.6353 124.707 38.7289Z" fill="#263238"/>
<path d="M142.959 43.3727C143.056 43.3223 146.919 41.8823 147.074 45.8927C147.229 49.9031 143.164 49.2587 143.15 49.1327C143.135 49.0067 142.959 43.3727 142.959 43.3727Z" fill="#FFBE9D"/>
<path d="M143.963 47.6066C143.981 47.6066 144.039 47.6534 144.158 47.7038C144.327 47.77 144.514 47.77 144.683 47.7038C145.101 47.531 145.432 46.8398 145.421 46.1126C145.417 45.7667 145.336 45.426 145.184 45.1154C145.141 44.9912 145.068 44.8794 144.972 44.7897C144.876 44.7 144.76 44.6351 144.633 44.6006C144.552 44.5838 144.468 44.5954 144.394 44.6334C144.321 44.6715 144.263 44.7336 144.23 44.8094C144.179 44.9246 144.208 45.0038 144.186 45.011C144.165 45.0182 144.096 44.9462 144.122 44.7806C144.14 44.6799 144.192 44.5885 144.269 44.5214C144.377 44.4325 144.515 44.3898 144.654 44.4026C144.822 44.4273 144.98 44.4951 145.113 44.5992C145.246 44.7033 145.35 44.8403 145.414 44.9966C145.6 45.3382 145.699 45.7202 145.702 46.109C145.702 46.9226 145.342 47.6966 144.752 47.891C144.645 47.9273 144.531 47.9391 144.419 47.9253C144.306 47.9116 144.199 47.8728 144.104 47.8118C143.978 47.7038 143.952 47.6174 143.963 47.6066Z" fill="#EB996E"/>
<path d="M144.32 34.1712C144.011 33.0006 143.479 31.9005 142.754 30.9312C140.648 28.0044 135.838 26.6364 133.106 26.8812C130.373 27.126 127.54 29.1492 124.995 30.1644C123.328 30.8304 122.064 32.3604 122.702 33.5448C121.714 33.9288 120.671 34.15 119.613 34.2C119.613 34.2 119.516 35.7012 120.351 36.1008L122.979 37.8216C126.482 38.286 132.63 34.8372 133.815 33.7536C134.914 32.7446 136.132 31.8719 137.44 31.1544C136.324 34.0812 139.96 33.4332 139.859 34.5672C138.747 38.682 142.106 40.2012 142.106 40.2012L142.188 43.8012C142.113 44.7228 142.509 45.432 143.43 45.3708C143.43 45.3708 144.431 43.9956 144.6 42.876C144.932 40.716 144.719 36.3276 144.32 34.1712Z" fill="#263238"/>
<path d="M129.84 59.0401C132.569 58.8408 135.184 57.8624 137.375 56.2213C137.375 56.2213 135.873 60.5917 129.959 60.4801L129.84 59.0401Z" fill="#EB996E"/>
<path d="M134.639 42.5591C134.653 42.7781 134.751 42.9831 134.914 43.1303C135.077 43.2776 135.291 43.3555 135.51 43.3475C135.617 43.3485 135.724 43.3279 135.824 43.2869C135.923 43.2458 136.013 43.1852 136.089 43.1087C136.164 43.0321 136.224 42.9411 136.263 42.8412C136.303 42.7412 136.322 42.6343 136.32 42.5267C136.306 42.3077 136.207 42.1028 136.044 41.9556C135.882 41.8083 135.668 41.7304 135.449 41.7383C135.341 41.7383 135.235 41.7596 135.136 41.801C135.037 41.8424 134.947 41.903 134.872 41.9794C134.797 42.0558 134.737 42.1463 134.697 42.2459C134.657 42.3454 134.637 42.4519 134.639 42.5591Z" fill="#263238"/>
<path d="M133.654 40.4497C133.766 40.5649 134.475 40.1185 135.454 40.1545C136.433 40.1905 137.153 40.6729 137.254 40.5685C137.308 40.5181 137.196 40.3165 136.894 40.0969C136.468 39.8071 135.969 39.6448 135.454 39.6289C134.949 39.6047 134.448 39.7299 134.014 39.9889C133.708 40.2049 133.6 40.3993 133.654 40.4497Z" fill="#263238"/>
<path d="M133.559 37.6163C133.645 37.8647 134.549 37.7531 135.611 37.8899C136.673 38.0267 137.53 38.3219 137.674 38.1023C137.738 37.9979 137.591 37.7639 137.245 37.5227C136.784 37.2285 136.262 37.0431 135.719 36.9808C135.176 36.9184 134.625 36.9806 134.11 37.1627C133.721 37.3067 133.523 37.5011 133.559 37.6163Z" fill="#263238"/>
<path d="M130.889 49.9825C131.647 49.7281 132.423 49.5295 133.211 49.3885L133.783 49.2085C133.927 49.4658 134.014 49.7515 134.036 50.0456C134.058 50.3397 134.016 50.6351 133.913 50.9113C133.792 51.1099 133.63 51.2806 133.438 51.4122C133.247 51.5437 133.029 51.6331 132.8 51.6745C132.64 51.7167 132.472 51.7247 132.309 51.698C132.145 51.6714 131.989 51.6106 131.85 51.5197C131.85 51.5197 131.108 51.2281 130.889 49.9825Z" fill="#EB996E"/>
<path d="M132.455 51.6782C132.765 51.6297 133.058 51.5061 133.308 51.3182C133.569 51.1121 133.758 50.8303 133.852 50.5118C133.973 50.1238 133.973 49.7082 133.852 49.3202L133.83 49.2554L133.938 49.3166C133.074 49.5074 132.293 49.6766 131.728 49.781C131.425 49.8576 131.115 49.9035 130.803 49.9178C131.093 49.8026 131.393 49.7134 131.699 49.6514C132.257 49.511 133.035 49.3274 133.899 49.133L133.982 49.115L134.007 49.1906L134.028 49.2626C134.165 49.6862 134.165 50.1422 134.028 50.5658C133.917 50.9131 133.696 51.215 133.398 51.4262C133.199 51.5669 132.968 51.6537 132.725 51.6782C132.545 51.7106 132.452 51.689 132.455 51.6782Z" fill="#263238"/>
<path d="M150.772 46.4688C150.689 46.4626 150.607 46.4419 150.531 46.4076C150.308 46.3087 150.114 46.1536 149.969 45.9576C149.737 45.6506 149.594 45.2857 149.555 44.9028C149.516 44.4018 149.537 43.8979 149.616 43.4016C149.72 42.8175 149.694 42.2179 149.541 41.6448C149.439 41.3372 149.25 41.0658 148.997 40.8636C148.721 40.6495 148.419 40.4716 148.097 40.3344C147.748 40.1861 147.413 40.0066 147.096 39.798C146.761 39.5622 146.501 39.2347 146.348 38.8548C146.02 38.0916 146.052 37.2348 145.869 36.432C145.793 36.0344 145.631 35.6584 145.394 35.3304C145.158 35.0232 144.817 34.8141 144.436 34.7436C144.076 34.6572 143.666 34.6428 143.28 34.5672C142.889 34.5065 142.53 34.3149 142.262 34.0236C142.034 33.7312 141.877 33.3898 141.804 33.0264C141.718 32.6844 141.668 32.3496 141.599 32.0364C141.533 31.7362 141.432 31.4449 141.297 31.1688C141.163 30.9194 141.002 30.6862 140.814 30.474C140.238 29.8276 139.456 29.3993 138.6 29.2608C138.284 29.2276 137.965 29.2204 137.646 29.2392C137.962 29.1616 138.289 29.1445 138.611 29.1888C139.498 29.3014 140.315 29.7249 140.919 30.384C141.118 30.6021 141.29 30.844 141.43 31.104C141.577 31.3891 141.687 31.6915 141.758 32.004C141.83 32.3208 141.884 32.6556 141.97 32.9832C142.04 33.3203 142.187 33.6369 142.398 33.9084C142.641 34.1724 142.968 34.3431 143.324 34.3908C143.684 34.4628 144.083 34.4736 144.483 34.5636C144.911 34.6413 145.295 34.8731 145.563 35.2152C145.816 35.5648 145.991 35.9652 146.074 36.3888C146.261 37.2276 146.232 38.0664 146.538 38.7828C146.678 39.1321 146.915 39.4335 147.222 39.6504C147.529 39.8569 147.855 40.034 148.194 40.1796C148.527 40.3261 148.84 40.5122 149.127 40.734C149.398 40.9601 149.599 41.2585 149.706 41.5944C149.865 42.189 149.887 42.8117 149.771 43.416C149.684 43.9016 149.654 44.3958 149.681 44.8884C149.708 45.2563 149.833 45.6103 150.041 45.9144C150.218 46.174 150.475 46.3686 150.772 46.4688Z" fill="#455A64"/>
<path d="M118.375 32.1408C118.44 32.1701 118.501 32.2089 118.555 32.256L119.059 32.616C119.674 33.0408 120.341 33.3855 121.043 33.642C122.078 34.0309 123.215 34.0538 124.265 33.7068C124.874 33.4941 125.409 33.1104 125.805 32.6016C126.21 32.0344 126.563 31.432 126.86 30.8016C127.175 30.1416 127.617 29.5496 128.16 29.0592C128.67 28.6236 129.255 28.2855 129.888 28.062C130.96 27.6931 132.11 27.6088 133.225 27.8172C133.971 27.9476 134.696 28.1726 135.385 28.4868C135.63 28.5948 135.813 28.6884 135.936 28.7568C136.001 28.7871 136.063 28.8245 136.119 28.8684C136.051 28.8516 135.984 28.8262 135.921 28.7928C135.792 28.7352 135.605 28.6524 135.356 28.5516C134.661 28.2689 133.937 28.066 133.196 27.9468C132.11 27.765 130.996 27.8604 129.956 28.224C129.346 28.4443 128.781 28.7736 128.289 29.196C127.773 29.6652 127.352 30.23 127.051 30.8592C126.75 31.5054 126.389 32.1214 125.971 32.6988C125.546 33.2337 124.972 33.6308 124.322 33.84C123.235 34.1941 122.059 34.1584 120.996 33.7392C120.29 33.4703 119.624 33.107 119.016 32.6592C118.8 32.5008 118.656 32.3712 118.533 32.2992C118.475 32.2523 118.422 32.1992 118.375 32.1408Z" fill="#455A64"/>
<path d="M116.855 37.4869C116.876 37.4617 117.154 37.7065 117.65 38.0125C118.304 38.4082 119.016 38.6974 119.76 38.8693C120.505 39.0354 121.272 39.0803 122.032 39.0025C122.615 38.9413 122.968 38.8405 122.978 38.8729C122.989 38.9053 122.896 38.9197 122.737 38.9737C122.513 39.0452 122.283 39.0981 122.05 39.1321C121.274 39.2532 120.482 39.2263 119.717 39.0529C118.952 38.8793 118.227 38.5643 117.578 38.1241C117.383 37.9914 117.199 37.8433 117.028 37.6813C116.905 37.5661 116.844 37.4977 116.855 37.4869Z" fill="#455A64"/>
<path d="M120.24 40.853C120.262 40.8026 120.874 41.0546 121.68 41.1842C122.487 41.3138 123.12 41.285 123.142 41.339C122.155 41.5423 121.127 41.3689 120.262 40.853H120.24Z" fill="#455A64"/>
<path d="M130.085 62.4781L118.529 65.6605L106.059 74.6605L109.385 80.3485L168.177 80.4493C168.177 80.4493 166.017 72.5905 165.329 70.1785C164.267 66.5389 162.827 65.4985 161.513 64.1809C160.901 63.6359 160.188 63.2164 159.414 62.9461C157.089 62.4385 146.328 60.0229 144.233 60.0661C144.233 60.0661 141.817 65.0593 136.756 65.0089C131.694 64.9585 130.085 62.4781 130.085 62.4781Z" fill="#455A64"/>
<path d="M153.914 71.7048C153.95 71.7048 154.058 71.2296 154.4 70.5204C154.857 69.6001 155.459 68.7591 156.182 68.0292C156.913 67.3006 157.694 66.6233 158.519 66.0024C158.87 65.755 159.203 65.4831 159.516 65.1888C159.135 65.3864 158.773 65.619 158.436 65.8836C157.575 66.4725 156.773 67.1414 156.038 67.8816C155.296 68.6254 154.697 69.4991 154.271 70.4592C154.143 70.7492 154.043 71.0505 153.972 71.3592C153.932 71.4699 153.912 71.5871 153.914 71.7048Z" fill="#263238"/>
<path d="M118.799 77.9472C118.85 77.5426 118.864 77.134 118.838 76.7268C118.838 75.9708 118.788 74.9268 118.702 73.782C118.615 72.6372 118.496 71.5932 118.388 70.848C118.354 70.4409 118.279 70.0382 118.165 69.6456C118.158 70.0538 118.183 70.4619 118.241 70.866C118.309 71.6832 118.396 72.6876 118.489 73.7964C118.583 74.9052 118.633 75.9132 118.687 76.7304C118.692 77.1384 118.729 77.5452 118.799 77.9472Z" fill="#263238"/>
<g opacity="0.3">
<path opacity="0.3" d="M115.337 79.4448C116.287 79.1604 117.256 78.8004 117.961 78.1056C118.667 77.4108 119.041 76.3056 118.624 75.3912C119.325 76.8778 120.441 78.1301 121.837 78.9974C123.233 79.8647 124.85 80.3101 126.493 80.28L112.547 80.4564C113.431 80.0044 114.368 79.6645 115.337 79.4448Z" fill="black"/>
</g>
<path d="M181.109 80.4313C181.109 80.4313 179.698 78.5125 178.999 78.1489C178.301 77.7853 177.347 77.7889 176.926 78.1705L176.505 78.5485C176.505 78.5485 174.309 77.5657 173.265 78.3217C173.265 78.3217 171.177 77.3353 170.179 78.4657C170.179 78.4657 168.57 77.4181 167.89 78.3325C167.209 79.2469 167.278 80.7877 167.605 81.5725C167.933 82.3573 168.552 85.0753 169.045 85.1221C169.045 85.1221 170.327 85.2589 170.485 84.5641C170.644 83.8693 170.73 83.5381 170.73 83.5381C170.73 83.5381 171.22 85.9897 171.81 86.1121C172.401 86.2345 173.527 86.1697 173.563 85.0933C173.563 85.0933 174.111 85.9033 174.643 85.6693C175.176 85.4353 175.839 85.0393 175.781 84.3733C175.723 83.7073 175.713 83.0413 175.713 83.0413C175.713 83.0413 176.008 84.0133 176.49 83.8009C176.973 83.5885 177.462 83.6353 177.736 82.8145C178.009 81.9937 178.683 80.4205 178.683 80.4205L181.109 80.4313Z" fill="#FFBE9D"/>
<path d="M175.747 82.9981C175.69 82.7639 175.621 82.5331 175.538 82.3069C175.389 81.7526 175.365 81.1718 175.47 80.6073C175.575 80.0429 175.805 79.5091 176.143 79.0453C176.402 78.6853 176.611 78.4981 176.589 78.4729C176.568 78.4477 176.327 78.6025 176.024 78.9517C175.632 79.4142 175.368 79.9711 175.258 80.5671C175.147 81.1632 175.194 81.7778 175.394 82.3501C175.457 82.5918 175.578 82.8143 175.747 82.9981Z" fill="#EB996E"/>
<path d="M173.116 78.3361C172.974 78.6416 172.879 78.9669 172.835 79.3009C172.529 80.9065 172.64 82.564 173.159 84.1141C173.249 84.4384 173.386 84.7477 173.566 85.0321C173.634 85.0105 173.019 83.5921 172.9 81.7129C172.781 79.8337 173.184 78.3469 173.116 78.3361Z" fill="#EB996E"/>
<path d="M170.116 78.498C169.96 79.3541 169.949 80.2304 170.084 81.09C170.15 81.9585 170.359 82.81 170.703 83.6101C170.764 83.6101 170.455 82.476 170.296 81.0648C170.138 79.6536 170.177 78.5016 170.116 78.498Z" fill="#EB996E"/>
<path d="M161.481 79.0488C161.534 78.9372 161.611 78.8391 161.707 78.7618C161.803 78.6844 161.915 78.6299 162.035 78.6024C162.315 78.5397 162.606 78.5455 162.883 78.6195C163.16 78.6935 163.415 78.8333 163.627 79.0272C164.085 79.4455 164.477 79.931 164.789 80.4672L161.679 80.4456C161.708 79.9632 161.308 79.4916 161.481 79.0488Z" fill="#FFBE9D"/>
<path d="M82.6552 81.2701C82.7503 80.3192 83.0623 79.4028 83.5672 78.5914C84.0721 77.7801 84.7565 77.0954 85.5676 76.5901C86.2136 76.21 86.9346 75.9748 87.6805 75.9008C88.4264 75.8269 89.1795 75.9159 89.8876 76.1617L95.8888 78.2497C96.2128 78.6097 106.116 74.7793 106.116 74.7793L109.439 80.4601L90.5104 80.4313C91.551 81.6185 92.6541 82.7493 93.8152 83.8189L95.1004 88.0885L94.9744 91.9513C94.294 92.2645 93.2788 91.0729 93.2788 91.0729L92.6848 92.1529L92.8828 93.2005C92.8828 93.2005 94.6324 97.4485 94.5712 98.3953C94.5712 98.467 94.5569 98.5379 94.529 98.6039C94.5012 98.67 94.4604 98.7298 94.409 98.7798C94.3577 98.8298 94.2969 98.869 94.2301 98.8951C94.1634 98.9212 94.0921 98.9336 94.0204 98.9317C93.7692 98.9452 93.5195 98.884 93.303 98.7559C93.0865 98.6278 92.9127 98.4384 92.8036 98.2117L90.316 93.3769C90.316 93.3769 88.39 92.9089 87.7168 92.2753C87.0436 91.6417 86.0392 90.4321 86.0392 90.4321L84.8152 90.2593C84.6695 90.2803 84.5209 90.2511 84.394 90.1765C84.072 90.0172 83.792 89.7842 83.5768 89.4965C83.3617 89.2088 83.2174 88.8744 83.1556 88.5205L82.5328 85.2805C82.3816 84.5461 82.5004 82.8325 82.6552 81.2701Z" fill="#FFBE9D"/>
<path d="M88.293 89.6834C88.6409 91.0845 89.3453 92.3718 90.3378 93.4202C90.3846 93.3842 89.8122 92.6174 89.2578 91.5878C88.7034 90.5582 88.347 89.6654 88.293 89.6834Z" fill="#EB996E"/>
<path d="M85.4055 89.3306C85.3407 89.3558 85.5675 89.8562 85.9563 90.3818C86.1623 90.7219 86.4282 91.022 86.7411 91.2674C86.5871 90.9021 86.377 90.5632 86.1183 90.263C85.9066 89.9332 85.6682 89.6214 85.4055 89.3306Z" fill="#EB996E"/>
<path d="M93.2792 94.1832C93.1903 93.7832 93.0773 93.3889 92.9408 93.0024C92.7212 92.2824 92.4368 91.2708 92.1596 90.1512C92.0192 89.5896 91.8932 89.0712 91.7996 88.5672C91.6873 88.1462 91.6436 87.7098 91.67 87.2748C91.7131 86.8777 91.8721 86.5021 92.1272 86.1948C92.1272 86.1948 92.012 86.2452 91.8752 86.4144C91.6834 86.6615 91.5594 86.9544 91.5152 87.264C91.4657 87.7158 91.4962 88.1728 91.6052 88.614C91.7024 89.1072 91.8248 89.6436 91.9652 90.2088C92.246 91.332 92.552 92.3364 92.8076 93.0528C92.9272 93.4442 93.0852 93.8229 93.2792 94.1832Z" fill="#EB996E"/>
<path d="M91.9787 87.0049C91.9535 87.0265 92.1587 87.2605 92.3963 87.6889C92.7049 88.2423 92.888 88.8568 92.9327 89.4889C92.927 89.851 92.9572 90.2127 93.0227 90.5689C93.0944 90.869 93.252 91.1417 93.4763 91.3537C93.6599 91.5588 93.8911 91.7158 94.1495 91.8109C94.1711 91.7821 93.9047 91.6129 93.5807 91.2565C93.3932 91.0542 93.2627 90.8057 93.2027 90.5365C93.1502 90.1886 93.1273 89.837 93.1343 89.4853C93.0889 88.8219 92.8772 88.1805 92.5187 87.6205C92.3856 87.3784 92.2013 87.1683 91.9787 87.0049Z" fill="#EB996E"/>
<path d="M90.5676 80.4852C90.6036 80.4384 89.9016 79.8552 89.1924 78.9876C88.4832 78.12 88.0296 77.3208 87.9648 77.3748C88.0247 77.5645 88.1082 77.7459 88.2132 77.9148C88.4507 78.34 88.7266 78.7425 89.0376 79.1172C89.4502 79.6717 89.9706 80.137 90.5676 80.4852Z" fill="#EB996E"/>
<g opacity="0.3">
<path opacity="0.3" d="M152.84 80.4348L153.074 75.0096L149.266 80.4276L152.84 80.4348Z" fill="black"/>
</g>
<path d="M152.837 80.4311C152.805 79.36 152.834 78.2879 152.923 77.2199C152.952 76.1488 153.042 75.0803 153.193 74.0195C153.229 75.0906 153.201 76.1629 153.11 77.2307C153.084 78.3021 152.993 79.3709 152.837 80.4311Z" fill="#263238"/>
<path d="M151.674 61.4916C151.73 61.6039 151.763 61.7263 151.771 61.8516C151.799 62.2053 151.707 62.5582 151.508 62.8524C151.204 63.3287 150.733 63.6742 150.187 63.8208C149.481 63.9934 148.752 64.0554 148.027 64.0044C147.608 63.9961 147.19 64.0177 146.774 64.0692C146.33 64.1247 145.904 64.2771 145.525 64.5156C145.133 64.7864 144.822 65.1601 144.628 65.5956C144.424 66.0665 144.27 66.5576 144.168 67.0608C144.052 67.5792 143.948 68.1156 143.782 68.6592C143.528 69.5312 143.012 70.304 142.303 70.8726C141.595 71.4413 140.729 71.7783 139.822 71.838C139.207 71.8698 138.591 71.7796 138.01 71.5726C137.429 71.3656 136.895 71.046 136.438 70.632C136.012 70.2411 135.654 69.7811 135.38 69.2712C135.148 68.7909 134.791 68.3818 134.347 68.0868C133.898 67.8529 133.387 67.7636 132.885 67.8312C132.401 67.8839 131.92 67.9657 131.445 68.076C130.995 68.1815 130.536 68.2441 130.074 68.2632C129.643 68.2733 129.213 68.205 128.806 68.0616C128.113 67.818 127.494 67.4017 127.006 66.852C126.634 66.441 126.346 65.9601 126.16 65.4372C126.09 65.2488 126.036 65.055 125.998 64.8576C125.98 64.6812 125.952 64.5372 125.952 64.4184V64.1448C125.948 64.1149 125.948 64.0847 125.952 64.0548C125.969 64.5187 126.06 64.9769 126.222 65.412C126.415 65.9197 126.706 66.3846 127.078 66.78C127.562 67.3113 128.175 67.7093 128.857 67.9356C129.249 68.069 129.663 68.1312 130.077 68.1192C130.53 68.0966 130.98 68.0315 131.42 67.9248C131.895 67.8106 132.375 67.724 132.86 67.6656C133.395 67.5926 133.94 67.6869 134.419 67.9356C134.891 68.2432 135.271 68.6722 135.52 69.1776C135.788 69.6707 136.136 70.116 136.55 70.4952C137.436 71.2922 138.6 71.7075 139.79 71.6508C140.376 71.6067 140.947 71.4447 141.468 71.1743C141.99 70.9039 142.451 70.5309 142.825 70.0776C143.57 69.1956 143.746 68.0508 143.988 67.0212C144.092 66.5048 144.252 66.0014 144.466 65.52C144.676 65.0585 145.007 64.6627 145.424 64.3752C145.823 64.1254 146.274 63.968 146.742 63.9144C147.163 63.866 147.588 63.8492 148.012 63.864C148.736 63.9212 149.464 63.8702 150.172 63.7128C150.699 63.5772 151.158 63.2531 151.461 62.802C151.66 62.5219 151.76 62.1838 151.746 61.8408C151.73 61.7229 151.705 61.6062 151.674 61.4916Z" fill="white"/>
<path d="M134.167 80.0425C134.133 79.964 134.108 79.8819 134.092 79.7977L133.894 79.0777C133.667 78.2037 133.302 77.3713 132.814 76.6117C132.648 76.3674 132.456 76.1417 132.241 75.9385C132.007 75.7227 131.744 75.5398 131.46 75.3949C130.82 75.0961 130.112 74.9719 129.408 75.0349C128.622 75.105 127.842 75.241 127.079 75.4417C126.247 75.6634 125.39 75.7747 124.53 75.7729C123.645 75.7882 122.787 75.4679 122.129 74.8765C121.566 74.2758 121.23 73.4982 121.178 72.6769C121.126 71.957 121.143 71.2336 121.229 70.5169C121.299 69.8991 121.315 69.2763 121.276 68.6557C121.254 68.2085 121.143 67.7701 120.95 67.3659C120.757 66.9618 120.486 66.5999 120.152 66.3013C119.893 66.0988 119.598 65.9485 119.281 65.8585H119.346C119.411 65.8651 119.475 65.8784 119.537 65.8981C119.777 65.9694 120.001 66.0841 120.199 66.2365C120.552 66.534 120.841 66.8997 121.049 67.3118C121.257 67.7238 121.379 68.1736 121.409 68.6341C121.458 69.2624 121.449 69.8938 121.384 70.5205C121.306 71.2295 121.295 71.9443 121.351 72.6553C121.357 73.0631 121.445 73.4655 121.612 73.8377C121.778 74.21 122.019 74.5443 122.319 74.8201C122.62 75.0959 122.973 75.3073 123.359 75.4415C123.744 75.5756 124.152 75.6296 124.559 75.6001C125.409 75.604 126.257 75.495 127.079 75.2761C127.852 75.0758 128.641 74.9421 129.437 74.8765C130.171 74.8185 130.907 74.9551 131.572 75.2725C131.867 75.4275 132.14 75.6226 132.382 75.8521C132.6 76.0716 132.796 76.3128 132.965 76.5721C133.446 77.3486 133.793 78.2005 133.991 79.0921C134.07 79.4017 134.12 79.6465 134.153 79.8121C134.165 79.8883 134.169 79.9654 134.167 80.0425Z" fill="white"/>
<path d="M153.279 75.4453C152.778 75.19 152.25 74.9885 151.706 74.8441C151.117 74.7039 150.51 74.6589 149.906 74.7109C149.167 74.776 148.45 74.9956 147.8 75.3553C147.15 75.7187 146.578 76.2082 146.119 76.7953C145.742 77.2701 145.45 77.8074 145.259 78.3829C145.123 78.7677 145.096 79.1824 145.18 79.5817C145.222 79.7253 145.273 79.866 145.334 80.0029C145.334 80.0029 145.302 79.9741 145.255 79.9129C145.193 79.8152 145.143 79.71 145.107 79.5997C144.994 79.1887 145.001 78.7537 145.129 78.3469C145.311 77.7477 145.6 77.1865 145.982 76.6909C146.449 76.0814 147.036 75.5742 147.707 75.2005C148.379 74.8274 149.125 74.6039 149.892 74.5453C150.514 74.4996 151.14 74.5592 151.742 74.7217C152.148 74.8313 152.538 74.9897 152.905 75.1933C153.035 75.2653 153.128 75.3301 153.193 75.3733C153.258 75.4165 153.283 75.4381 153.279 75.4453Z" fill="white"/>
<path d="M157.162 65.7324C157.144 65.7324 157.032 65.5848 156.942 65.286C156.831 64.896 156.814 64.4852 156.892 64.0872C156.97 63.6876 157.14 63.3117 157.389 62.9892C157.583 62.748 157.749 62.6292 157.749 62.658C157.404 63.082 157.17 63.5843 157.065 64.1205C156.961 64.6567 156.99 65.2103 157.151 65.7324H157.162Z" fill="white"/>
<path d="M165.959 72.8677C165.953 72.9221 165.939 72.9753 165.919 73.0261C165.876 73.1745 165.821 73.319 165.753 73.4581C165.505 73.9751 165.153 74.4357 164.72 74.8117C164.075 75.3764 163.28 75.7405 162.431 75.8593C161.459 76.0033 160.418 75.6937 159.374 75.4345C158.868 75.296 158.347 75.2163 157.823 75.1969C157.333 75.1896 156.847 75.2651 156.383 75.4201C155.599 75.6861 154.896 76.1455 154.338 76.7557C153.958 77.1656 153.655 77.6398 153.441 78.1561C153.29 78.5161 153.251 78.7429 153.229 78.7393C153.226 78.6845 153.234 78.6296 153.251 78.5773C153.28 78.4257 153.321 78.2765 153.373 78.1309C153.565 77.5921 153.859 77.0948 154.237 76.6657C154.802 76.0245 155.522 75.5387 156.329 75.2545C156.806 75.0883 157.31 75.0067 157.815 75.0133C158.353 75.0328 158.887 75.1125 159.407 75.2509C160.461 75.5137 161.473 75.8197 162.398 75.6865C163.218 75.5808 163.99 75.2422 164.623 74.7109C165.053 74.3533 165.411 73.9172 165.678 73.4257C165.89 73.0801 165.959 72.8605 165.959 72.8677Z" fill="white"/>
<path d="M117.828 79.4448C117.786 79.45 117.743 79.45 117.702 79.4448C117.582 79.4564 117.461 79.4564 117.342 79.4448C116.892 79.4158 116.452 79.3009 116.046 79.1064C115.437 78.8185 114.916 78.3752 114.534 77.8212C114.311 77.4907 114.144 77.1258 114.04 76.7412C113.943 76.3322 113.872 75.9173 113.828 75.4992C113.731 74.6568 113.594 73.836 113.108 73.2852C112.669 72.8135 112.082 72.5061 111.445 72.414C111.013 72.3381 110.576 72.2936 110.138 72.2808C109.974 72.2831 109.811 72.2735 109.648 72.252C109.809 72.2173 109.974 72.2028 110.138 72.2088C110.583 72.1917 111.029 72.217 111.47 72.2844C112.145 72.3642 112.771 72.679 113.238 73.1736C113.495 73.4832 113.68 73.8459 113.781 74.2356C113.886 74.6421 113.96 75.0562 114.001 75.474C114.045 75.8834 114.113 76.2897 114.206 76.6908C114.301 77.0573 114.457 77.4053 114.667 77.7204C115.031 78.258 115.526 78.6932 116.107 78.984C116.644 79.2513 117.229 79.408 117.828 79.4448Z" fill="white"/>
<path d="M132.75 140.681C133.293 141.688 133.648 142.786 133.798 143.921H135.72L143.831 143.78L143.77 143.924C143.77 143.924 145.094 137.704 145.336 135.853C145.534 134.327 146.477 130.676 145.336 129.064C145.13 128.78 144.84 128.568 144.508 128.457C144.175 128.346 143.817 128.341 143.482 128.444C143.247 128.512 143.036 128.642 142.872 128.822C142.707 129.002 142.595 129.224 142.549 129.463C142.549 129.463 142.452 127.303 140.904 127.274C139.356 127.246 139.302 128.452 139.302 128.452C139.302 128.452 138.877 125.986 137.142 126.007C136.809 126.038 136.493 126.169 136.236 126.383C135.979 126.597 135.793 126.884 135.702 127.206V122.526C135.703 122.069 135.53 121.629 135.219 121.295C134.907 120.96 134.48 120.757 134.024 120.726C133.793 120.719 133.562 120.758 133.345 120.841C133.129 120.924 132.931 121.049 132.764 121.209C132.596 121.369 132.462 121.561 132.37 121.774C132.277 121.986 132.228 122.215 132.224 122.447L132.12 133.276L129.488 129.899C128.801 129.024 127.159 129.456 126.968 130.208C126.968 130.208 126.493 131.198 127.476 132.656C128.16 133.747 132.75 140.681 132.75 140.681Z" fill="#EBEBEB"/>
<path d="M132.751 140.681C132.751 140.681 132.704 140.623 132.625 140.508L132.265 139.99L130.915 137.977L128.78 134.78L127.448 132.779C127.188 132.417 126.989 132.014 126.861 131.587C126.71 131.13 126.71 130.637 126.861 130.18C126.969 129.908 127.176 129.688 127.441 129.564C127.705 129.431 127.995 129.357 128.291 129.348C128.597 129.33 128.902 129.401 129.169 129.553C129.236 129.594 129.299 129.64 129.36 129.69C129.417 129.744 129.471 129.805 129.522 129.863L129.803 130.223L132.153 133.229L132.013 133.276C132.049 130.252 132.089 126.936 132.128 123.408V122.746C132.119 122.517 132.135 122.287 132.175 122.062C132.279 121.593 132.562 121.184 132.963 120.92C133.165 120.789 133.392 120.7 133.629 120.657C133.867 120.615 134.11 120.621 134.345 120.675C134.58 120.729 134.802 120.829 134.998 120.97C135.193 121.111 135.358 121.29 135.483 121.496C135.614 121.704 135.703 121.935 135.746 122.177C135.78 122.415 135.792 122.656 135.782 122.897V127.192L135.599 127.166C135.725 126.735 136.009 126.366 136.394 126.133C136.558 126.039 136.735 125.969 136.92 125.928C137.014 125.906 137.111 125.899 137.208 125.906C137.302 125.912 137.396 125.922 137.489 125.939C137.857 126.019 138.191 126.212 138.446 126.49C138.914 127.04 139.226 127.707 139.35 128.419H139.166C139.189 128.18 139.275 127.951 139.415 127.756C139.556 127.561 139.745 127.407 139.965 127.31C140.179 127.22 140.407 127.169 140.639 127.159C140.758 127.147 140.879 127.147 140.999 127.159L141.171 127.181L141.337 127.231C141.553 127.31 141.749 127.433 141.915 127.593C142.08 127.752 142.211 127.944 142.298 128.156C142.479 128.558 142.588 128.988 142.619 129.427L142.439 129.409C142.487 129.177 142.592 128.961 142.744 128.78C142.896 128.598 143.09 128.457 143.31 128.369C143.745 128.2 144.229 128.21 144.656 128.398C144.867 128.487 145.058 128.618 145.218 128.783C145.362 128.951 145.483 129.137 145.578 129.337C145.75 129.737 145.86 130.161 145.905 130.594C146.06 132.304 145.693 133.927 145.445 135.464C145.196 137.002 144.919 138.499 144.642 139.907C144.365 141.314 144.073 142.646 143.81 143.906L143.681 143.867L143.738 143.723L143.803 143.816L135.692 143.935L135.735 143.888V143.935H135.721H133.788H133.755V143.903C133.645 143.069 133.427 142.254 133.107 141.476C132.999 141.21 132.906 141.012 132.837 140.879C132.769 140.746 132.744 140.677 132.744 140.677C132.895 140.929 133.029 141.191 133.143 141.462C133.48 142.238 133.71 143.057 133.827 143.896L133.791 143.863H135.725L135.678 143.91V143.867H135.721L143.828 143.701H143.933L143.893 143.798L143.835 143.942L143.706 143.903C143.963 142.643 144.234 141.308 144.519 139.9C144.793 138.492 145.095 137.02 145.308 135.464C145.52 133.909 145.913 132.304 145.758 130.637C145.715 130.224 145.609 129.819 145.445 129.438C145.349 129.253 145.228 129.082 145.085 128.93C144.941 128.781 144.772 128.658 144.584 128.57C144.199 128.405 143.765 128.397 143.375 128.549C143.18 128.624 143.008 128.748 142.875 128.908C142.742 129.067 142.651 129.259 142.611 129.463L142.482 130.086L142.431 129.445C142.401 129.031 142.299 128.625 142.129 128.246C142.052 128.057 141.936 127.885 141.789 127.742C141.642 127.599 141.467 127.487 141.276 127.415C140.872 127.303 140.443 127.329 140.055 127.487C139.867 127.57 139.705 127.701 139.584 127.867C139.463 128.034 139.388 128.229 139.368 128.434L139.31 129.042L139.181 128.444C139.061 127.769 138.766 127.137 138.324 126.612C138.107 126.353 137.806 126.179 137.474 126.12C137.141 126.061 136.799 126.12 136.506 126.288C136.158 126.495 135.901 126.825 135.786 127.213L135.602 127.782V122.89C135.613 122.661 135.603 122.432 135.573 122.206C135.532 121.987 135.45 121.779 135.332 121.59C135.217 121.403 135.066 121.241 134.888 121.112C134.71 120.984 134.509 120.892 134.295 120.841C133.87 120.751 133.426 120.832 133.06 121.068C132.694 121.303 132.435 121.673 132.341 122.098C132.302 122.31 132.288 122.526 132.297 122.742V123.408C132.251 126.932 132.204 130.248 132.161 133.276V133.502L132.024 133.322L129.702 130.32C129.547 130.073 129.347 129.858 129.111 129.686C128.867 129.548 128.589 129.482 128.309 129.496C128.035 129.505 127.766 129.573 127.52 129.694C127.284 129.801 127.098 129.996 127.002 130.237C126.861 130.665 126.861 131.127 127.002 131.555C127.124 131.97 127.315 132.362 127.567 132.714L128.888 134.723L130.994 137.938L132.315 139.968C132.463 140.198 132.575 140.375 132.657 140.497C132.74 140.62 132.751 140.681 132.751 140.681Z" fill="#263238"/>
<path d="M143.947 143.78H133.791C133.02 143.78 132.395 144.406 132.395 145.177V145.278C132.395 146.049 133.02 146.675 133.791 146.675H143.947C144.718 146.675 145.344 146.049 145.344 145.278V145.177C145.344 144.406 144.718 143.78 143.947 143.78Z" fill="#EBEBEB"/>
<path d="M143.951 146.675C143.951 146.675 144.051 146.675 144.239 146.624C144.515 146.557 144.766 146.409 144.959 146.2C145.092 146.051 145.191 145.875 145.25 145.685C145.313 145.45 145.327 145.205 145.29 144.965C145.244 144.681 145.109 144.42 144.903 144.219C144.698 144.018 144.433 143.888 144.149 143.849H133.806C133.571 143.851 133.342 143.915 133.14 144.034C132.938 144.154 132.772 144.324 132.657 144.529C132.552 144.732 132.497 144.959 132.499 145.188C132.485 145.523 132.6 145.851 132.819 146.104C133.039 146.357 133.346 146.518 133.68 146.552C134.123 146.552 134.583 146.552 135.015 146.552L139.67 146.574L142.809 146.603L143.663 146.621C143.763 146.617 143.863 146.623 143.961 146.639C143.863 146.655 143.763 146.661 143.663 146.657H142.809L139.67 146.686L135.015 146.707C134.576 146.707 134.137 146.707 133.662 146.707C133.413 146.682 133.175 146.596 132.968 146.456C132.761 146.316 132.592 146.126 132.477 145.904C132.353 145.672 132.29 145.411 132.295 145.148C132.3 144.884 132.373 144.626 132.506 144.398C132.64 144.171 132.829 143.981 133.057 143.848C133.284 143.714 133.542 143.641 133.806 143.636C137.852 143.636 141.499 143.636 144.167 143.683C144.477 143.727 144.764 143.871 144.985 144.094C145.206 144.316 145.348 144.604 145.391 144.914C145.425 145.164 145.407 145.418 145.337 145.66C145.269 145.862 145.157 146.046 145.009 146.2C144.809 146.412 144.547 146.556 144.26 146.61C144.161 146.648 144.057 146.67 143.951 146.675Z" fill="#263238"/>
<path d="M135.644 131.162C135.52 129.767 135.52 128.364 135.644 126.968C135.769 128.364 135.769 129.767 135.644 131.162Z" fill="#263238"/>
<path d="M139.256 130.878C139.131 130.051 139.131 129.21 139.256 128.383C139.38 129.21 139.38 130.051 139.256 130.878Z" fill="#263238"/>
<path d="M142.562 131.929C142.432 131.101 142.432 130.259 142.562 129.431C142.687 130.259 142.687 131.101 142.562 131.929Z" fill="#263238"/>
<path d="M131.502 120.55C130.818 120.305 130.155 120.003 129.522 119.646C128.86 119.341 128.225 118.98 127.625 118.566C128.971 119.115 130.268 119.777 131.502 120.546V120.55Z" fill="#263238"/>
<path d="M133.259 119.56C133.024 118.658 132.849 117.741 132.737 116.816C132.561 115.9 132.446 114.973 132.395 114.041C132.633 114.943 132.809 115.861 132.92 116.788C133.094 117.703 133.207 118.629 133.259 119.56Z" fill="#263238"/>
<path d="M135.443 119.812C135.8 119.144 136.209 118.506 136.667 117.904C137.075 117.267 137.535 116.665 138.043 116.104C137.281 117.411 136.412 118.653 135.443 119.815V119.812Z" fill="#263238"/>
<path d="M200.247 112.368L199.188 111.152C198.587 110.46 198.256 109.574 198.256 108.657V104.596C198.255 103.315 197.795 102.077 196.961 101.105C196.126 100.133 194.972 99.4918 193.706 99.2968V97.72C193.706 97.529 193.63 97.3459 193.495 97.2109C193.36 97.0759 193.177 97 192.986 97C192.795 97 192.612 97.0759 192.477 97.2109C192.341 97.3459 192.266 97.529 192.266 97.72V99.268C190.959 99.4206 189.755 100.047 188.88 101.03C188.005 102.012 187.522 103.281 187.521 104.596V108.498C187.521 109.349 187.236 110.176 186.711 110.846L185.516 112.365H190.984C191.114 112.711 191.327 113.02 191.604 113.264C191.882 113.509 192.215 113.682 192.574 113.768C192.934 113.854 193.309 113.85 193.667 113.757C194.025 113.665 194.355 113.486 194.627 113.236C194.886 112.993 195.084 112.694 195.207 112.361L200.247 112.368Z" fill="white"/>
<path d="M77.5625 111V99.5781H79.4297V109.398H84.2656V111H77.5625ZM87.875 111H86.0391V102.359H87.875V111ZM85.9297 100.07C85.9297 99.7422 86.0182 99.4896 86.1953 99.3125C86.3776 99.1354 86.6354 99.0469 86.9688 99.0469C87.2917 99.0469 87.5417 99.1354 87.7188 99.3125C87.901 99.4896 87.9922 99.7422 87.9922 100.07C87.9922 100.383 87.901 100.63 87.7188 100.812C87.5417 100.99 87.2917 101.078 86.9688 101.078C86.6354 101.078 86.3776 100.99 86.1953 100.812C86.0182 100.63 85.9297 100.383 85.9297 100.07ZM97.7891 111H95.9453V105.672C95.9453 105.01 95.8203 104.518 95.5703 104.195C95.3203 103.867 94.9297 103.703 94.3984 103.703C93.6901 103.703 93.1693 103.935 92.8359 104.398C92.5078 104.857 92.3438 105.622 92.3438 106.695V111H90.5078V102.359H91.9453L92.2031 103.492H92.2969C92.5365 103.081 92.8828 102.763 93.3359 102.539C93.7943 102.315 94.2969 102.203 94.8438 102.203C96.1719 102.203 97.0521 102.656 97.4844 103.562H97.6094C97.8646 103.135 98.224 102.802 98.6875 102.562C99.151 102.323 99.6823 102.203 100.281 102.203C101.312 102.203 102.062 102.464 102.531 102.984C103.005 103.505 103.242 104.299 103.242 105.367V111H101.406V105.672C101.406 105.01 101.279 104.518 101.023 104.195C100.773 103.867 100.383 103.703 99.8516 103.703C99.138 103.703 98.6146 103.927 98.2812 104.375C97.9531 104.818 97.7891 105.5 97.7891 106.422V111ZM107.641 111H105.805V102.359H107.641V111ZM105.695 100.07C105.695 99.7422 105.784 99.4896 105.961 99.3125C106.143 99.1354 106.401 99.0469 106.734 99.0469C107.057 99.0469 107.307 99.1354 107.484 99.3125C107.667 99.4896 107.758 99.7422 107.758 100.07C107.758 100.383 107.667 100.63 107.484 100.812C107.307 100.99 107.057 101.078 106.734 101.078C106.401 101.078 106.143 100.99 105.961 100.812C105.784 100.63 105.695 100.383 105.695 100.07ZM113.492 109.672C113.94 109.672 114.388 109.602 114.836 109.461V110.844C114.633 110.932 114.37 111.005 114.047 111.062C113.729 111.125 113.398 111.156 113.055 111.156C111.315 111.156 110.445 110.24 110.445 108.406V103.75H109.266V102.938L110.531 102.266L111.156 100.438H112.289V102.359H114.75V103.75H112.289V108.375C112.289 108.818 112.398 109.146 112.617 109.359C112.841 109.568 113.133 109.672 113.492 109.672ZM120.344 111.156C119 111.156 117.948 110.766 117.188 109.984C116.432 109.198 116.055 108.117 116.055 106.742C116.055 105.331 116.406 104.221 117.109 103.414C117.812 102.607 118.779 102.203 120.008 102.203C121.148 102.203 122.049 102.549 122.711 103.242C123.372 103.935 123.703 104.888 123.703 106.102V107.094H117.945C117.971 107.932 118.198 108.578 118.625 109.031C119.052 109.479 119.654 109.703 120.43 109.703C120.94 109.703 121.414 109.656 121.852 109.562C122.294 109.464 122.768 109.302 123.273 109.078V110.57C122.826 110.784 122.372 110.935 121.914 111.023C121.456 111.112 120.932 111.156 120.344 111.156ZM120.008 103.594C119.424 103.594 118.956 103.779 118.602 104.148C118.253 104.518 118.044 105.057 117.977 105.766H121.898C121.888 105.052 121.716 104.513 121.383 104.148C121.049 103.779 120.591 103.594 120.008 103.594ZM128.703 111.156C127.625 111.156 126.784 110.766 126.18 109.984C125.576 109.203 125.273 108.107 125.273 106.695C125.273 105.279 125.578 104.177 126.188 103.391C126.802 102.599 127.651 102.203 128.734 102.203C129.87 102.203 130.734 102.622 131.328 103.461H131.422C131.333 102.841 131.289 102.352 131.289 101.992V98.8438H133.133V111H131.695L131.375 109.867H131.289C130.701 110.727 129.839 111.156 128.703 111.156ZM129.195 109.672C129.951 109.672 130.5 109.461 130.844 109.039C131.188 108.612 131.365 107.922 131.375 106.969V106.711C131.375 105.622 131.198 104.849 130.844 104.391C130.49 103.932 129.935 103.703 129.18 103.703C128.534 103.703 128.036 103.966 127.688 104.492C127.339 105.013 127.164 105.758 127.164 106.727C127.164 107.685 127.333 108.417 127.672 108.922C128.01 109.422 128.518 109.672 129.195 109.672ZM150.25 105.273C150.25 107.133 149.784 108.578 148.852 109.609C147.924 110.641 146.609 111.156 144.906 111.156C143.182 111.156 141.857 110.646 140.93 109.625C140.008 108.599 139.547 107.143 139.547 105.258C139.547 103.372 140.01 101.924 140.938 100.914C141.87 99.9036 143.198 99.3984 144.922 99.3984C146.62 99.3984 147.932 99.9115 148.859 100.938C149.786 101.964 150.25 103.409 150.25 105.273ZM141.531 105.273C141.531 106.68 141.815 107.747 142.383 108.477C142.951 109.201 143.792 109.562 144.906 109.562C146.016 109.562 146.852 109.203 147.414 108.484C147.982 107.766 148.266 106.695 148.266 105.273C148.266 103.872 147.984 102.81 147.422 102.086C146.865 101.362 146.031 101 144.922 101C143.802 101 142.956 101.362 142.383 102.086C141.815 102.81 141.531 103.872 141.531 105.273ZM156.844 103.75H154.734V111H152.891V103.75H151.469V102.891L152.891 102.328V101.766C152.891 100.745 153.13 99.9896 153.609 99.5C154.089 99.0052 154.82 98.7578 155.805 98.7578C156.451 98.7578 157.086 98.8646 157.711 99.0781L157.227 100.469C156.773 100.323 156.341 100.25 155.93 100.25C155.513 100.25 155.208 100.38 155.016 100.641C154.828 100.896 154.734 101.281 154.734 101.797V102.359H156.844V103.75ZM162.648 103.75H160.539V111H158.695V103.75H157.273V102.891L158.695 102.328V101.766C158.695 100.745 158.935 99.9896 159.414 99.5C159.893 99.0052 160.625 98.7578 161.609 98.7578C162.255 98.7578 162.891 98.8646 163.516 99.0781L163.031 100.469C162.578 100.323 162.146 100.25 161.734 100.25C161.318 100.25 161.013 100.38 160.82 100.641C160.633 100.896 160.539 101.281 160.539 101.797V102.359H162.648V103.75ZM167.906 111.156C166.562 111.156 165.51 110.766 164.75 109.984C163.995 109.198 163.617 108.117 163.617 106.742C163.617 105.331 163.969 104.221 164.672 103.414C165.375 102.607 166.341 102.203 167.57 102.203C168.711 102.203 169.612 102.549 170.273 103.242C170.935 103.935 171.266 104.888 171.266 106.102V107.094H165.508C165.534 107.932 165.76 108.578 166.188 109.031C166.615 109.479 167.216 109.703 167.992 109.703C168.503 109.703 168.977 109.656 169.414 109.562C169.857 109.464 170.331 109.302 170.836 109.078V110.57C170.388 110.784 169.935 110.935 169.477 111.023C169.018 111.112 168.495 111.156 167.906 111.156ZM167.57 103.594C166.987 103.594 166.518 103.779 166.164 104.148C165.815 104.518 165.607 105.057 165.539 105.766H169.461C169.451 105.052 169.279 104.513 168.945 104.148C168.612 103.779 168.154 103.594 167.57 103.594ZM177.734 102.203C178.104 102.203 178.409 102.229 178.648 102.281L178.469 103.992C178.208 103.93 177.938 103.898 177.656 103.898C176.922 103.898 176.326 104.138 175.867 104.617C175.414 105.096 175.188 105.719 175.188 106.484V111H173.352V102.359H174.789L175.031 103.883H175.125C175.411 103.367 175.784 102.958 176.242 102.656C176.706 102.354 177.203 102.203 177.734 102.203Z" fill="white"/>
</svg>
