<svg width="21" height="21" viewBox="0 0 21 21" fill="none" xmlns="http://www.w3.org/2000/svg">
<path d="M10.5 21C16.299 21 21 16.299 21 10.5C21 4.70101 16.299 0 10.5 0C4.70101 0 0 4.70101 0 10.5C0 16.299 4.70101 21 10.5 21Z" fill="#346DA6"/>
<path d="M7.78911 15.387V8.9725H5.80366V15.387H7.78911ZM7.78911 6.71978C7.78911 6.14705 7.4073 5.72705 6.7582 5.72705C6.1473 5.72705 5.72729 6.14705 5.72729 6.71978C5.72729 7.2925 6.10911 7.7125 6.72002 7.7125C7.36911 7.7125 7.78911 7.25432 7.78911 6.71978ZM10.9964 15.387V11.7216C10.9964 11.5307 10.9964 11.3398 11.0728 11.187C11.2255 10.8052 11.5691 10.3852 12.18 10.3852C12.9818 10.3852 13.44 10.8434 13.44 11.7216V15.387H15.4255V11.6452C15.4255 9.6216 14.3564 8.70523 12.9437 8.70523C11.76 8.70523 11.2637 9.35432 10.9582 9.8125V8.9725H8.97275C9.01093 9.58341 8.97275 15.4252 8.97275 15.4252H10.9964V15.387Z" fill="white"/>
</svg>
