<svg width="21" height="21" viewBox="0 0 21 21" fill="none" xmlns="http://www.w3.org/2000/svg">
<g clip-path="url(#clip0)">
<path d="M20.9949 20.9999V20.9991H21.0001V13.2973C21.0001 9.52957 20.189 6.6272 15.7842 6.6272C13.6667 6.6272 12.2457 7.7892 11.6656 8.89082H11.6044V6.97895H7.42798V20.9991H11.7767V14.0568C11.7767 12.2289 12.1232 10.4614 14.3869 10.4614C16.6172 10.4614 16.6505 12.5474 16.6505 14.1741V20.9999H20.9949Z" fill="white"/>
<path d="M0.346436 6.97998H4.70044V21.0001H0.346436V6.97998Z" fill="white"/>
<path d="M2.52175 0C1.12962 0 0 1.12963 0 2.52175C0 3.91388 1.12962 5.06713 2.52175 5.06713C3.91387 5.06713 5.0435 3.91388 5.0435 2.52175C5.04262 1.12963 3.913 0 2.52175 0V0Z" fill="white"/>
</g>
<defs>
<clipPath id="clip0">
<rect width="21" height="21" fill="white"/>
</clipPath>
</defs>
</svg>
