<svg width="24" height="24" viewBox="0 0 24 24" fill="none" xmlns="http://www.w3.org/2000/svg">
<rect width="24" height="24" rx="4" fill="#58C2F1"/>
<path d="M5.83401 10.5168C6.4105 10.9679 7.13739 11.5194 9.69403 13.3742C10.1953 13.7502 11.1227 14.5773 12 14.5773C12.9024 14.5773 13.8047 13.7502 14.3311 13.3742C16.8877 11.5194 17.6146 10.9679 18.1911 10.5168C18.2914 10.4416 18.4167 10.5168 18.4167 10.6421V15.7554C18.4167 16.4321 17.8903 16.9585 17.2136 16.9585H6.78648C6.13479 16.9585 5.58335 16.4321 5.58335 15.7554V10.6421C5.58335 10.5168 5.73374 10.4416 5.83401 10.5168ZM12 13.7502C11.4235 13.7752 10.5964 13.0233 10.1703 12.7225C6.83661 10.3162 6.58596 10.0907 5.83401 9.48909C5.68361 9.38883 5.58335 9.21338 5.58335 9.01286V8.53662C5.58335 7.88493 6.13479 7.3335 6.78648 7.3335H17.2136C17.8903 7.3335 18.4167 7.88493 18.4167 8.53662V9.01286C18.4167 9.21338 18.3415 9.38883 18.1911 9.48909C17.4391 10.0907 17.1885 10.3162 13.8548 12.7225C13.4287 13.0233 12.6016 13.7752 12 13.7502Z" fill="white"/>
</svg>
