<svg width="90" height="84" viewBox="0 0 90 84" fill="none" xmlns="http://www.w3.org/2000/svg">
<path d="M89.0423 52.8867C87.3304 50.3709 83.883 49.705 81.3595 51.401L69.8739 59.0875L69.8405 35.162L73.8308 38.8999C74.6793 39.6947 75.7856 40.132 76.9472 40.132C76.9493 40.132 76.9518 40.132 76.954 40.132C78.2081 40.1302 79.4188 39.6047 80.276 38.6897C81.1086 37.8008 81.5454 36.641 81.5057 35.4235C81.466 34.2061 80.9545 33.077 80.0656 32.2443L72.5008 25.1579C71.9829 24.6727 71.17 24.6993 70.685 25.2171C70.2 25.735 70.2265 26.5478 70.7442 27.033L78.309 34.1194C78.6971 34.4829 78.9203 34.9758 78.9377 35.5072C78.955 36.0386 78.7644 36.545 78.4007 36.933C78.021 37.3383 77.506 37.5619 76.9502 37.5626C76.9491 37.5626 76.9482 37.5626 76.9472 37.5626C76.4404 37.5626 75.9575 37.3717 75.5872 37.0247C75.587 37.0245 75.587 37.0245 75.587 37.0245L45.5491 8.88565C45.0541 8.42211 44.2839 8.42282 43.7901 8.88811L13.8303 37.1112C13.4434 37.4758 12.9375 37.6667 12.4059 37.6519C11.8744 37.6361 11.381 37.4141 11.0164 37.0268C10.6518 36.6399 10.4597 36.134 10.4757 35.6026C10.4915 35.0711 10.7135 34.5777 11.1004 34.2131L43.2995 3.88063C44.0627 3.16151 45.2602 3.15975 46.0253 3.87694L64.8633 21.524C65.381 22.009 66.1939 21.9826 66.6791 21.4647C67.1641 20.9469 67.1375 20.1341 66.6199 19.6489L47.7821 2.00188C46.029 0.359379 43.2863 0.363071 41.5378 2.01049L31.2302 11.7206L31.2274 9.98868C31.2267 9.4427 31.0133 8.92977 30.6267 8.54446C30.2409 8.15967 29.7287 7.94786 29.1837 7.94786C29.1827 7.94786 29.1818 7.94786 29.1807 7.94786L21.8072 7.95823C21.2613 7.95893 20.7485 8.17233 20.363 8.55887C19.9777 8.94542 19.7657 9.45887 19.7666 10.005L19.787 22.5008L9.33873 32.3433C8.45209 33.1784 7.94391 34.3089 7.90752 35.5264C7.87113 36.7438 8.31111 37.9026 9.14625 38.7889C9.98121 39.6755 11.1117 40.1839 12.3293 40.2202C12.3759 40.2216 12.4225 40.2223 12.469 40.2223C13.6354 40.2223 14.7398 39.7847 15.5921 38.9813L19.5734 35.2309L19.5892 46.532C18.3011 46.3445 16.9979 46.246 15.6887 46.246H13.4905V45.4757C13.4905 42.8898 11.3866 40.7859 8.80066 40.7859H4.68984C2.10393 40.7857 0 42.8895 0 45.4756V65.6057C0 66.3151 0.575156 66.8903 1.28461 66.8903C1.99406 66.8903 2.56922 66.3151 2.56922 65.6057V45.4756C2.56922 44.3063 3.52055 43.3549 4.68984 43.3549H8.80049C9.96978 43.3549 10.9211 44.3063 10.9211 45.4756V47.5305V73.8618V75.8965C10.9211 77.0658 9.96978 78.0171 8.80049 78.0171H4.68984C3.52055 78.0171 2.56922 77.0658 2.56922 75.8965V73.6486C2.56922 72.9391 1.99406 72.364 1.28461 72.364C0.575156 72.364 0 72.9391 0 73.6486V75.8965C0 78.4824 2.10393 80.5863 4.68984 80.5863H8.80049C11.3864 80.5863 13.4903 78.4825 13.4903 75.8965V75.7219L32.3031 82.846C32.3379 82.8591 32.3733 82.8708 32.4091 82.8808C33.2271 83.1117 34.0446 83.2276 34.8518 83.2276C35.2884 83.2276 35.7221 83.1937 36.1513 83.1258L63.7984 79.1405C63.8049 79.1396 63.8112 79.1386 63.8177 79.1375C66.1683 78.7622 68.3858 77.7685 70.2302 76.2642C70.2462 76.2512 70.262 76.2376 70.2773 76.2238L88.1387 60.1595C90.2187 58.3129 90.607 55.1863 89.0423 52.8867ZM28.6588 10.518L28.6648 14.1373L22.3522 20.084L22.3365 10.5266L28.6588 10.518ZM44.6732 11.5856L67.2678 32.7518L67.307 60.8053L63.6699 63.2395L59.8184 63.0235L59.7166 62.0004C59.3582 58.3973 56.6982 55.4988 53.181 54.8071L53.1578 38.1175C53.1561 36.8368 52.1133 35.796 50.8328 35.796C50.8317 35.796 50.8308 35.796 50.8296 35.796L38.5857 35.8132C37.9647 35.8141 37.3811 36.0567 36.9427 36.4965C36.5041 36.9361 36.2631 37.5204 36.264 38.1413L36.2844 52.6926C33.8592 52.1382 31.5434 51.2226 29.3783 49.9561C29.1081 49.798 28.8353 49.6455 28.5602 49.4971C28.453 49.4393 28.344 49.3849 28.2359 49.3285C28.0686 49.2412 27.9016 49.1533 27.7325 49.0694C27.5978 49.0026 27.4616 48.9393 27.3259 48.8748C27.1819 48.8064 27.0381 48.7374 26.8931 48.6715C26.7455 48.6045 26.5966 48.5407 26.4479 48.4763C26.312 48.4176 26.1761 48.3586 26.0394 48.3021C25.8864 48.239 25.7326 48.1784 25.5786 48.1181C25.4421 48.0647 25.3053 48.0116 25.168 47.9602C25.0156 47.9033 24.8625 47.8483 24.709 47.7943C24.5651 47.7435 24.4209 47.6939 24.2761 47.6456C24.1291 47.5965 23.9818 47.5486 23.8338 47.502C23.6762 47.4522 23.5178 47.4048 23.3592 47.3578C23.223 47.3178 23.0869 47.2777 22.95 47.2397C22.7712 47.19 22.5916 47.1434 22.4118 47.0973C22.3276 47.0757 22.2439 47.0513 22.1592 47.0304L22.1393 32.8135L44.6732 11.5856ZM50.6115 54.4856L39.8668 53.2486L38.8545 53.1321L38.8338 38.3821L50.589 38.3656L50.6115 54.4856ZM86.4269 58.244L68.5832 74.2924C67.0962 75.4981 65.3126 76.2956 63.4221 76.599L35.787 80.5826C35.7812 80.5835 35.7755 80.5844 35.7697 80.5852L35.7506 80.5882C34.9133 80.7208 34.0414 80.6649 33.1588 80.4226L13.4905 72.9744V48.8151H15.6887C17.5598 48.8151 19.4184 49.0311 21.2282 49.4507C21.2955 49.4663 21.3627 49.4823 21.4298 49.4985C21.6522 49.5521 21.874 49.6073 22.0948 49.6671C22.1142 49.6724 22.1333 49.678 22.1527 49.6833C22.374 49.7437 22.5944 49.8075 22.8141 49.8741C22.8535 49.8861 22.893 49.8979 22.9322 49.91C23.166 49.9823 23.3988 50.0577 23.6303 50.1368C23.6542 50.145 23.6779 50.1535 23.7018 50.1617C24.184 50.3282 24.6614 50.5098 25.1329 50.7063C25.1585 50.717 25.1842 50.7277 25.2098 50.7386C25.4449 50.8374 25.6785 50.9396 25.9105 51.0457C25.9167 51.0485 25.923 51.0515 25.9291 51.0545C26.1534 51.1575 26.3762 51.2644 26.5975 51.3743C26.6235 51.3871 26.6497 51.3998 26.6757 51.4128C26.8919 51.5209 27.1063 51.6328 27.3196 51.7474C27.3598 51.7691 27.3999 51.7912 27.4402 51.813C27.6553 51.9303 27.8692 52.0498 28.0811 52.1737C31.1381 53.9619 34.466 55.1202 37.9724 55.6164C37.9835 55.618 37.9944 55.6194 38.0055 55.6206L52.3986 57.2777C52.4783 57.2891 52.5574 57.3023 52.6359 57.3171C54.7548 57.715 56.4272 59.2807 56.9867 61.3196C57.0697 61.6216 57.128 61.9341 57.16 62.2546L57.2172 62.8294L30.2418 60.466C29.5355 60.4043 28.9118 60.9269 28.8499 61.6336C28.7879 62.3404 29.3108 62.9635 30.0175 63.0254L58.5366 65.5241C58.5434 65.5247 58.5501 65.5245 58.5568 65.525C58.5635 65.5255 58.57 65.5266 58.5768 65.5271L63.9552 65.8289C63.9793 65.8303 64.0032 65.8309 64.0271 65.8309C64.0526 65.8309 64.0777 65.8268 64.103 65.8252C64.1317 65.8235 64.1603 65.8224 64.1888 65.8189C64.2271 65.814 64.2646 65.8057 64.3022 65.7975C64.3291 65.7915 64.3562 65.7871 64.3825 65.7794C64.4237 65.7676 64.4632 65.7516 64.5031 65.7356C64.5246 65.727 64.5467 65.7205 64.5678 65.7106C64.6277 65.6829 64.6861 65.6509 64.7416 65.6136L69.307 62.5583C69.3072 62.5582 69.3074 62.558 69.3076 62.5578L82.7903 53.5346C84.1468 52.6228 85.9985 52.9806 86.918 54.332C87.7586 55.567 87.55 57.2466 86.4269 58.244Z" fill="#4C5F72"/>
</svg>
