<svg width="42" height="42" viewBox="0 0 42 42" fill="none" xmlns="http://www.w3.org/2000/svg">
<path d="M29.6133 40.7695C29.6133 40.0894 29.0629 39.5391 28.3828 39.5391H13.6172C12.9371 39.5391 12.3867 40.0894 12.3867 40.7695C12.3867 41.4497 12.9371 42 13.6172 42H28.3828C29.0629 42 29.6133 41.4497 29.6133 40.7695Z" fill="#0084F8"/>
<path d="M21 0C13.5367 0 7.46484 6.07187 7.46484 13.5352C7.46484 23.7706 19.6133 36.201 20.1301 36.7176C20.3704 36.958 20.6852 37.0781 21 37.0781C21.3148 37.0781 21.6297 36.958 21.8699 36.7176C22.3867 36.201 34.5352 23.7706 34.5352 13.5352C34.5352 6.07187 28.4633 0 21 0ZM29.4066 14.2177C29.0357 14.7749 28.2757 14.9403 27.7002 14.5589L27.1523 14.1936V20.918C27.1523 21.5981 26.6019 22.1484 25.9218 22.1484H16.0781C15.398 22.1484 14.8477 21.5981 14.8477 20.918V14.1936L14.2997 14.5589C13.7313 14.9326 12.9683 14.7812 12.5934 14.2177C12.216 13.6517 12.3687 12.8887 12.9346 12.5113L20.3174 7.58945C20.7308 7.31309 21.2691 7.31309 21.6825 7.58945L29.0653 12.5113C29.6313 12.8887 29.7839 13.6517 29.4066 14.2177Z" fill="#0084F8"/>
<path d="M17.3086 12.5526V19.6868H24.6914V12.5526L21 10.0918L17.3086 12.5526Z" fill="#0084F8"/>
</svg>
