<svg width="1280" height="808" viewBox="0 0 1280 808" fill="none" xmlns="http://www.w3.org/2000/svg">
    <g opacity="0.84">
        <path d="M3.7809 330.6L2.56104 595.324L56.3569 430.024L3.7809 330.6Z" fill="#A4ACB7"/>
        <path d="M0 0L3.78157 330.6L101.126 135.546L0 0Z" fill="#8D95A0"/>
        <path d="M90.8796 86.5681L0 0L101.126 135.546L90.8796 86.5681Z" fill="#8B8F98"/>
        <path d="M2.56171 595.324L0 807.03L111.373 723.156L2.56171 595.324Z" fill="#848B95"/>
        <path d="M56.3569 430.024L2.56104 595.324L119.058 588.835L56.3569 430.024Z" fill="#9498A3"/>
        <path d="M2.56104 595.325L111.373 723.156L119.058 588.835L2.56104 595.325Z" fill="#949CA7"/>
        <path d="M90.8799 86.5684L101.127 135.546L131.867 117.547L90.8799 86.5684Z" fill="#8B8F98"/>
        <path d="M56.3574 430.024L119.058 588.835L147.237 457.085L56.3574 430.024Z" fill="#A0A6B2"/>
        <path d="M101.126 135.546L3.78125 330.6L184.321 245.378L101.126 135.546Z" fill="#929AA5"/>
        <path d="M3.78125 330.599L56.3572 430.024L184.321 245.378L3.78125 330.599Z" fill="#9BA3AE"/>
        <path d="M56.3574 430.024L147.237 457.084L184.321 245.378L56.3574 430.024Z" fill="#92969F"/>
        <path d="M131.867 117.547L101.127 135.546L184.321 245.379L131.867 117.547Z" fill="#8E96A3"/>
        <path d="M119.058 588.835L111.373 723.156L254.707 623.732L119.058 588.835Z" fill="#949CA7"/>
        <path d="M147.237 457.085L119.058 588.835L254.707 623.732L147.237 457.085Z" fill="#949CA7"/>
        <path d="M254.707 623.731L111.373 723.156L275.2 761.849L254.707 623.731Z" fill="#89919C"/>
        <path d="M111.373 723.156L0 807.031L275.201 761.849L111.373 723.156Z" fill="#8E95A5"/>
        <path d="M0 0L90.8796 86.5681L305.941 12.8567L0 0Z" fill="#7B8390"/>
        <path d="M90.8799 86.5679L131.867 117.546L305.941 12.8564L90.8799 86.5679Z" fill="#808893"/>
        <path d="M131.866 117.547L184.32 245.379L359.736 132.975L131.866 117.547Z" fill="#9FA5B1"/>
        <path d="M305.94 12.8564L131.866 117.546L359.736 132.974L305.94 12.8564Z" fill="#9399A5"/>
        <path d="M147.237 457.084L254.707 623.731L367.422 441.656L147.237 457.084Z" fill="#9CA3AD"/>
        <path d="M184.321 245.378L147.237 457.084L367.422 441.656L184.321 245.378Z" fill="#ACB4BF"/>
        <path d="M254.707 623.731L275.2 761.849L387.793 698.667L254.707 623.731Z" fill="#7B828C"/>
        <path d="M367.422 441.656L254.707 623.731L387.793 698.667L367.422 441.656Z" fill="#848891"/>
        <path d="M359.736 132.975L184.32 245.378L414.752 312.478L359.736 132.975Z" fill="#B3BBC8"/>
        <path d="M184.32 245.378L367.421 441.656L414.752 312.477L184.32 245.378Z" fill="#A6AEBB"/>
        <path d="M359.737 132.975L414.753 312.478L440.37 214.4L359.737 132.975Z" fill="#B3BBC8"/>
        <path d="M387.793 698.667L275.2 761.848L494.043 804.459L387.793 698.667Z" fill="#727A85"/>
        <path d="M275.201 761.849L0 807.031L494.043 804.459L275.201 761.849Z" fill="#7A828F"/>
        <path d="M414.752 312.478L367.422 441.656L517.099 328.028L414.752 312.478Z" fill="#B0B6C6"/>
        <path d="M440.37 214.399L414.752 312.477L517.099 328.028L440.37 214.399Z" fill="#B0B6C6"/>
        <path d="M387.794 698.667L494.044 804.459L559.428 641.73L387.794 698.667Z" fill="#848B95"/>
        <path d="M367.422 441.656L387.794 698.667L559.428 641.73L367.422 441.656Z" fill="#7B828C"/>
        <path d="M517.099 328.028L367.422 441.657L559.428 641.731L517.099 328.028Z" fill="#9498A3"/>
        <path d="M305.94 12.8564L359.736 132.974L617.005 59.3853L305.94 12.8564Z" fill="#9CA0A9"/>
        <path d="M359.737 132.975L440.37 214.4L617.006 59.3857L359.737 132.975Z" fill="#B3BBC8"/>
        <path d="M440.37 214.4L517.099 328.028L660.432 101.996L440.37 214.4Z" fill="#A6AEBB"/>
        <path d="M617.005 59.3857L440.37 214.4L660.432 101.996L617.005 59.3857Z" fill="#B1B9C4"/>
        <path d="M517.099 328.028L559.428 641.731L741.187 430.024L517.099 328.028Z" fill="#888E9A"/>
        <path d="M660.433 101.996L517.099 328.028L748.873 259.582L660.433 101.996Z" fill="#9FA5B1"/>
        <path d="M517.099 328.028L741.187 430.025L748.873 259.582L517.099 328.028Z" fill="#979DA9"/>
        <path d="M559.428 641.73L494.043 804.459L824.382 706.381L559.428 641.73Z" fill="#848B95"/>
        <path d="M741.187 430.024L559.428 641.731L824.381 706.381L741.187 430.024Z" fill="#9097A1"/>
        <path d="M617.005 59.3853L660.432 101.996L851.218 1.34668L617.005 59.3853Z" fill="#A6ADB7"/>
        <path d="M305.94 12.8564L617.005 59.3853L851.218 1.34668L305.94 12.8564Z" fill="#BAC2CF"/>
        <path d="M660.433 101.996L748.872 259.582L862.685 113.628L660.433 101.996Z" fill="#A9B1BC"/>
        <path d="M851.219 1.34668L660.433 101.996L862.685 113.628L851.219 1.34668Z" fill="#B8BFCF"/>
        <path d="M824.382 706.381L494.043 804.459L893.426 805.806L824.382 706.381Z" fill="#7B8390"/>
        <path d="M748.872 259.581L741.187 430.024L905.014 220.767L748.872 259.581Z" fill="#8B919D"/>
        <path d="M862.686 113.628L748.873 259.582L905.015 220.767L862.686 113.628Z" fill="#A6AEBB"/>
        <path d="M741.187 430.024L824.381 706.381L983.085 574.631L741.187 430.024Z" fill="#9097A1"/>
        <path d="M824.381 706.381L893.425 805.806L983.085 574.631L824.381 706.381Z" fill="#979DA9"/>
        <path d="M862.685 113.628L905.014 220.767L1020.17 211.828L862.685 113.628Z" fill="#B0B7C7"/>
        <path d="M1020.17 211.829L905.015 220.768L1038.1 295.703L1020.17 211.829Z" fill="#89909A"/>
        <path d="M905.014 220.767L741.187 430.024L1038.1 295.703L905.014 220.767Z" fill="#8D95A0"/>
        <path d="M741.187 430.025L983.085 574.631L1038.1 295.703L741.187 430.025Z" fill="#B0B7C7"/>
        <path d="M851.219 1.34689L862.685 113.628L1079.09 0L851.219 1.34689Z" fill="#AFB7C2"/>
        <path d="M862.685 113.628L1020.17 211.829L1079.09 0L862.685 113.628Z" fill="#B0B7C7"/>
        <path d="M1079.09 0L1020.17 211.829L1137.89 83.9968L1079.09 0Z" fill="#9AA1AB"/>
        <path d="M983.086 574.631L893.426 805.806L1177.65 734.788L983.086 574.631Z" fill="#727A85"/>
        <path d="M1038.1 295.703L983.086 574.631L1182.78 507.532L1038.1 295.703Z" fill="#A3A9B5"/>
        <path d="M983.086 574.631L1177.65 734.788L1182.78 507.531L983.086 574.631Z" fill="#7B8390"/>
        <path d="M1038.1 295.703L1182.78 507.532L1218.64 318.968L1038.1 295.703Z" fill="#A8AFBF"/>
        <path d="M1020.17 211.829L1038.1 295.703L1218.64 318.968L1020.17 211.829Z" fill="#808692"/>
        <path d="M1137.89 83.9971L1020.17 211.829L1218.64 318.968L1137.89 83.9971Z" fill="#8C949F"/>
        <path d="M1137.89 83.9968L1218.64 318.967L1280 0L1137.89 83.9968Z" fill="#969EAB"/>
        <path d="M1079.09 0L1137.89 83.9968L1280 0H1079.09Z" fill="#9EA5AF"/>
        <path d="M1280 0L1218.64 318.967L1280 807.031V0Z" fill="#9EA5AF"/>
        <path d="M1182.78 507.531L1177.65 734.788L1280 807.03L1182.78 507.531Z" fill="#808893"/>
        <path d="M1218.64 318.968L1182.78 507.532L1280 807.031L1218.64 318.968Z" fill="#9CA3AD"/>
        <path d="M1177.65 734.788L893.426 805.806L1280 807.03L1177.65 734.788Z" fill="#7B8390"/>
    </g>
</svg>
