<svg width="54" height="54" viewBox="0 0 54 54" fill="none" xmlns="http://www.w3.org/2000/svg">
<path d="M49.2515 11.7028C48.921 11.223 48.2643 11.1021 47.7846 11.4325C47.3048 11.7628 47.1839 12.4196 47.5142 12.8993C50.3773 17.0564 51.8906 21.9323 51.8906 27C51.8906 40.7248 40.7248 51.8906 27 51.8906C13.2752 51.8906 2.10938 40.7248 2.10938 27C2.10938 13.2752 13.2752 2.10938 27 2.10938C32.0652 2.10938 36.9392 3.62138 41.0949 6.48179C41.5748 6.81223 42.2315 6.69083 42.5617 6.21105C42.8919 5.73117 42.7707 5.07452 42.291 4.7443C37.7818 1.64057 32.4942 0 27 0C19.788 0 13.0078 2.80853 7.90815 7.90805C2.80842 13.0078 0 19.788 0 27C0 34.212 2.80842 40.9922 7.90815 46.092C13.0078 51.1915 19.788 54 27 54C34.212 54 40.9922 51.1915 46.0919 46.092C51.1916 40.9922 54 34.212 54 27C54 21.5031 52.358 16.2134 49.2515 11.7028Z" fill="#667686"/>
<path d="M13.0056 9.56264C12.7721 9.75027 12.6294 10.0284 12.6131 10.3276C12.5968 10.6267 12.7086 10.9187 12.9204 11.1305L34.8537 33.0638C34.8554 33.0655 34.8569 33.0672 34.8586 33.0688L42.8694 41.0796C43.0677 41.2778 43.3362 41.3885 43.6152 41.3885C43.6343 41.3885 43.6533 41.3879 43.6724 41.3869C43.9716 41.3706 44.2498 41.2279 44.4374 40.9943C47.6114 37.0444 49.3594 32.0744 49.3594 27C49.3594 14.671 39.329 4.64062 27.0001 4.64062C21.9256 4.64062 16.9556 6.38856 13.0056 9.56264ZM41.1329 20.3623L41.1328 33.8566L36.2065 31.4334L33.961 29.1879V23.89L41.1329 20.3623ZM31.8516 23.2335V27.0786L24.2769 19.5038H29.457C30.7774 19.5038 31.8517 20.5781 31.8517 21.8985V23.2335H31.8516ZM47.2501 27C47.2501 31.2664 45.9594 35.2984 43.5059 38.733L40.6965 35.9236C40.8436 35.9557 40.9925 35.9723 41.1414 35.9723C41.5266 35.9723 41.9103 35.8652 42.251 35.6531C42.8717 35.2666 43.2422 34.5996 43.2422 33.8684V20.3505C43.2422 19.6194 42.8716 18.9522 42.251 18.5659C41.6304 18.1795 40.8681 18.1417 40.2122 18.4642L33.9459 21.5466C33.7657 19.2271 31.8219 17.3943 29.4568 17.3943H22.1675L15.2671 10.4939C18.7017 8.04052 22.7336 6.75 27.0001 6.75C38.1659 6.75 47.2501 15.8341 47.2501 27Z" fill="#667686"/>
<path d="M10.3275 12.6148C10.0284 12.6311 9.75027 12.7738 9.56253 13.0074C6.38866 16.9573 4.64062 21.9273 4.64062 27.0018C4.64062 39.3308 14.671 49.3612 27 49.3612C32.0744 49.3612 37.0444 47.6133 40.9944 44.4392C41.2279 44.2516 41.3706 43.9734 41.387 43.6742C41.4032 43.3751 41.2914 43.0832 41.0797 42.8713L11.1305 12.9222C10.9187 12.7104 10.6277 12.5986 10.3275 12.6148ZM27 47.2518C15.8341 47.2518 6.75 38.1677 6.75 27.0018C6.75 22.7354 8.04052 18.7033 10.4941 15.2688L13.1434 17.9181C11.7164 18.6715 10.7578 20.1656 10.7578 21.9003V32.1033C10.7578 34.5869 12.7784 36.6074 15.262 36.6074H29.4569C30.1388 36.6074 30.7957 36.4579 31.3958 36.1705L38.733 43.5078C35.2984 45.9613 31.2664 47.2518 27 47.2518ZM29.7088 34.4836C29.6255 34.4922 29.5418 34.4981 29.4569 34.4981H15.262C13.9415 34.4981 12.8672 33.4238 12.8672 32.1035V21.9004C12.8672 20.7359 13.6791 19.7752 14.7792 19.5541L29.7088 34.4836Z" fill="#667686"/>
<path d="M17.6843 31.7461C17.9616 31.7461 18.2327 31.6332 18.4299 31.437C18.6261 31.2409 18.739 30.9688 18.739 30.6914C18.739 30.414 18.6261 30.1419 18.4299 29.9457C18.2338 29.7496 17.9616 29.6367 17.6843 29.6367C17.4058 29.6367 17.1348 29.7495 16.9386 29.9457C16.7414 30.1419 16.6296 30.414 16.6296 30.6914C16.6296 30.9688 16.7414 31.2409 16.9386 31.437C17.1348 31.6332 17.4069 31.7461 17.6843 31.7461Z" fill="#667686"/>
<path d="M45.3461 9.70703C45.6235 9.70703 45.8956 9.59418 46.0918 9.39801C46.288 9.20184 46.4008 8.93068 46.4008 8.65234C46.4008 8.37496 46.288 8.10285 46.0918 7.90668C45.8956 7.71061 45.6235 7.59766 45.3461 7.59766C45.0687 7.59766 44.7966 7.71051 44.6005 7.90668C44.4043 8.10285 44.2914 8.37496 44.2914 8.65234C44.2914 8.93078 44.4043 9.20184 44.6005 9.39801C44.7966 9.59407 45.0687 9.70703 45.3461 9.70703Z" fill="#667686"/>
</svg>
