<svg width="31" height="36" viewBox="0 0 31 36" fill="none" xmlns="http://www.w3.org/2000/svg">
<path d="M13 3C13 1.8 14 1.16667 14.5 1C18.1 1 17 3.33333 16 4.5C17.5 5 20.7 6.4 21.5 8C22.5 10 23 13.5 23 16.5C23 19.5 27.5 21.5 27.5 23V26H19C18.1667 27 16.1 29 14.5 29C12.9 29 10.8333 26.3333 10 25H1.5C1.5 24.1667 1.9 22.3 3.5 21.5C5.5 20.5 6.5 14.5 7 11C7.5 7.5 13 4.5 13 3Z" fill="#FFDCDC"/>
<path d="M1.58364 19.1858C1.30387 18.8805 0.8294 18.8594 0.523964 19.1394C0.437269 19.2189 0.347551 19.299 0.25502 19.3804C-0.0561118 19.6538 -0.0868384 20.1276 0.186465 20.4388C0.334894 20.6076 0.541964 20.6939 0.750299 20.6939C0.92608 20.6939 1.10256 20.6324 1.24502 20.5073C1.34563 20.419 1.44309 20.3317 1.53723 20.2454C1.84267 19.9656 1.86348 19.4911 1.58364 19.1858Z" fill="#FF1F00"/>
<path d="M2.08345 18.6619C2.21395 18.7527 2.36322 18.7964 2.51116 18.7964C2.74832 18.7964 2.98169 18.6841 3.12745 18.4747C4.36235 16.7002 4.54818 14.9464 4.79421 11.744C4.82599 11.331 4.51696 10.9705 4.10381 10.9388C3.6896 10.907 3.3303 11.2162 3.29859 11.6292C3.06684 14.6457 2.91053 16.1604 1.89635 17.618C1.65946 17.9578 1.74342 18.4254 2.08345 18.6619Z" fill="#FF1F00"/>
<path d="M25.0099 10.3944C25.085 10.7468 25.3962 10.9883 25.7426 10.9883C25.7943 10.9883 25.847 10.9828 25.8997 10.9716C26.3047 10.8852 26.5633 10.4869 26.4768 10.0818C26.446 9.93665 26.4118 9.79054 26.3755 9.64745C26.2734 9.24604 25.8651 9.00325 25.4638 9.10534C25.0624 9.20744 24.8197 9.6156 24.9218 10.017C24.9533 10.1413 24.983 10.2683 25.0099 10.3944Z" fill="#FF1F00"/>
<path d="M29.7308 19.3676C27.5354 17.5416 27.0531 15.7627 26.7472 12.212C26.7116 11.7993 26.3479 11.4934 25.9356 11.5292C25.523 11.5648 25.2172 11.9282 25.2528 12.3408C25.5831 16.175 26.1938 18.377 28.7717 20.5209C28.9119 20.6374 29.0818 20.6943 29.2509 20.6943C29.466 20.6943 29.6796 20.6021 29.828 20.4238C30.0928 20.1053 30.0493 19.6325 29.7308 19.3676Z" fill="#FF1F00"/>
<path d="M28.0702 22.0949C28.0602 22.075 28.0494 22.0556 28.0376 22.0367C27.8563 21.7132 27.6251 21.4662 27.347 21.3057C25.3229 20.1376 24.098 16.9593 23.7061 11.8591C23.4155 8.0763 20.7182 4.97587 17.2088 4.04128C17.4716 3.63255 17.6247 3.14691 17.6247 2.62596C17.6248 1.17802 16.4467 0 14.9987 0C13.5508 0 12.3728 1.17802 12.3728 2.62603C12.3728 3.14698 12.526 3.63255 12.7887 4.04135C9.27924 4.97587 6.58199 8.07638 6.29124 11.8592C5.89939 16.9594 4.67448 20.1376 2.65053 21.3058C2.06434 21.6441 1.68338 22.3624 1.54909 23.3834C1.46197 24.0462 1.43511 25.4377 1.9581 25.9603C2.09872 26.1008 2.28948 26.1798 2.48818 26.1798H10.4914C10.8502 28.3441 12.7343 30 14.9989 30C17.2634 30 19.1474 28.3441 19.5064 26.1798H27.5094C27.7082 26.1798 27.8989 26.1008 28.0395 25.9603C28.5627 25.4374 28.5357 24.0454 28.4483 23.3824C28.3814 22.8753 28.2536 22.4431 28.0702 22.0949ZM14.9987 1.49998C15.6196 1.49998 16.1247 2.0051 16.1247 2.62603C16.1247 3.24689 15.6197 3.75202 14.9987 3.75202C14.3779 3.75202 13.8728 3.24689 13.8728 2.62603C13.8728 2.0051 14.378 1.49998 14.9987 1.49998ZM14.9987 28.5C13.5644 28.5 12.3571 27.5113 12.0216 26.1798H17.9757C17.6402 27.5113 16.4329 28.5 14.9987 28.5ZM26.9684 24.6798H3.02903C2.99795 24.4346 2.98156 24.0792 3.02431 23.6789C3.0961 23.0087 3.28841 22.6695 3.4002 22.6049C5.91374 21.1543 7.34867 17.6769 7.78679 11.9741C8.07634 8.2047 11.2443 5.25199 14.9986 5.25199C18.753 5.25199 21.9209 8.20477 22.2104 11.9741C22.4212 14.7176 22.8633 16.9445 23.5446 18.6801H20.7251C20.311 18.6801 19.975 19.0158 19.975 19.4301C19.975 19.8444 20.311 20.1801 20.7251 20.1801H24.2634C24.6024 20.7601 24.9821 21.2594 25.4023 21.6801H17.9235C17.5095 21.6801 17.1735 22.0158 17.1735 22.4301C17.1735 22.8443 17.5095 23.1801 17.9235 23.1801H26.8851C26.9211 23.3199 26.9522 23.4851 26.9729 23.6789C27.0159 24.0791 26.9994 24.4346 26.9684 24.6798Z" fill="#FF1F00"/>
<path d="M22.5 34.5003L7.50002 34.5C7.08595 34.5 6.75 34.8357 6.75 35.25C6.75 35.6642 7.08574 36.0001 7.50002 36.0001L22.5 36.0003C22.9142 36.0003 23.25 35.6645 23.25 35.2502C23.25 34.836 22.9143 34.5003 22.5 34.5003Z" fill="#FF1F00"/>
<path d="M15.2234 21.6807H14.7735C14.3592 21.6807 14.0234 22.0164 14.0234 22.4307C14.0234 22.8449 14.3592 23.1807 14.7735 23.1807H15.2234C15.6375 23.1807 15.9735 22.845 15.9735 22.4307C15.9735 22.0164 15.6376 21.6807 15.2234 21.6807Z" fill="#FF1F00"/>
</svg>
