<svg width="23" height="21" viewBox="0 0 23 21" fill="none" xmlns="http://www.w3.org/2000/svg">
<path d="M0.74944 11.0371L10.9994 0.537109H18.7495C19.5495 0.537109 19.9162 0.870443 19.9995 1.03711C20.0828 2.53711 20.2495 5.88711 20.2495 7.28711C20.2495 8.68711 19.7495 9.70378 19.4995 10.0371C16.6662 13.0371 10.7495 19.1871 9.74951 19.7871C8.74957 20.3871 7.83287 20.0371 7.49951 19.7871C5.66615 18.1204 1.79944 14.4871 0.99944 13.2871C0.19944 12.0871 0.49944 11.2871 0.74944 11.0371Z" fill="#C8EAAA"/>
<path d="M21.4727 3.57006H20.5733L20.5742 1.96235C20.5747 0.882996 19.6972 0.0043869 18.6177 0.00386047L11.7923 0C11.792 0 11.7918 0 11.7915 0C11.403 0 11.0376 0.15126 10.7628 0.426056L0.57328 10.6156C0.203552 10.9853 0 11.4768 0 11.9998C0 12.5227 0.203552 13.0142 0.57328 13.3839L7.18592 19.9966C7.56758 20.3782 8.06892 20.569 8.57008 20.569C9.07141 20.569 9.57275 20.3782 9.95441 19.9966L16.3698 13.5811C16.5453 13.4057 16.5453 13.1212 16.3698 12.9459C16.1943 12.7704 15.9099 12.7704 15.7344 12.9459L9.31901 19.3613C8.90611 19.7742 8.23421 19.7742 7.82132 19.3613L1.20868 12.7487C1.00864 12.5486 0.898438 12.2826 0.898438 11.9998C0.898438 11.7169 1.00864 11.4509 1.20868 11.2508L11.398 1.06145C11.5032 0.956345 11.6428 0.898438 11.7915 0.898438H11.7918L18.6171 0.902298C19.2011 0.902473 19.6761 1.37801 19.6758 1.962L19.6737 5.72631H17.6503C17.476 5.72631 17.3183 5.65507 17.2042 5.54031C17.3921 5.45976 17.5683 5.34342 17.7215 5.19023C18.3671 4.54448 18.3671 3.49408 17.7215 2.8485C17.0758 2.20275 16.0254 2.20275 15.3796 2.8485C14.734 3.49408 14.734 4.54448 15.3796 5.19023C15.6189 5.42958 15.9141 5.57996 16.2235 5.64191C16.4433 6.21589 16.9998 6.62475 17.6503 6.62475H19.6731L19.6719 8.77819C19.6719 8.92682 19.614 9.06632 19.5089 9.17126L18.2757 10.4047C18.1002 10.5802 18.1002 10.8646 18.2757 11.0401C18.451 11.2154 18.7354 11.2154 18.9109 11.0401L20.1443 9.80666C20.4187 9.53204 20.5702 9.16705 20.5704 8.77872L20.5716 6.62475H21.4727C22.3148 6.62475 23 5.93969 23 5.0974C23 4.25529 22.3148 3.57006 21.4727 3.57006ZM16.015 3.48373C16.1628 3.33598 16.3567 3.26228 16.5507 3.26228C16.7446 3.26228 16.9385 3.33615 17.0863 3.48373C17.133 3.53058 17.1716 3.58234 17.2035 3.63692C16.7104 3.788 16.323 4.18265 16.1814 4.67995C16.1219 4.64678 16.0655 4.60555 16.015 4.55501C15.7197 4.25951 15.7197 3.77905 16.015 3.48373ZM21.4727 5.72631H20.5721L20.5728 4.4685H21.4727C21.8194 4.4685 22.1016 4.75066 22.1016 5.0974C22.1016 5.44415 21.8194 5.72631 21.4727 5.72631Z" fill="#4FA800"/>
<path d="M7.25093 11.3332C7.3062 11.5321 7.48677 11.6621 7.6833 11.6621C7.72331 11.6621 7.76384 11.6568 7.80403 11.6456L12.4155 10.362C12.6545 10.2955 12.7944 10.0477 12.7279 9.80871C12.6614 9.56988 12.4138 9.43003 12.1746 9.49654L7.5631 10.78C7.32428 10.8467 7.18442 11.0942 7.25093 11.3332Z" fill="#4FA800"/>
<path d="M9.28251 11.9274C9.03228 12.1776 8.89453 12.5101 8.89453 12.864C8.89453 13.2178 9.03228 13.5503 9.28251 13.8006C9.54081 14.0587 9.87983 14.1878 10.219 14.1878C10.5582 14.1878 10.8974 14.0587 11.1557 13.8006C11.6721 13.2841 11.6721 12.4438 11.1557 11.9274C10.6393 11.4109 9.79894 11.4109 9.28251 11.9274ZM10.5203 13.1652C10.3541 13.3313 10.0839 13.3313 9.91773 13.1652C9.83719 13.0848 9.79297 12.9778 9.79297 12.8639C9.79297 12.7502 9.83736 12.6431 9.91773 12.5626C10.0009 12.4796 10.1101 12.438 10.219 12.438C10.3282 12.438 10.4373 12.4796 10.5203 12.5626C10.6865 12.7288 10.6865 12.9992 10.5203 13.1652Z" fill="#4FA800"/>
<path d="M11.3738 9.25142C11.8902 8.73482 11.8902 7.89464 11.3738 7.37821C11.1236 7.12798 10.7909 6.99023 10.4371 6.99023C10.0834 6.99023 9.75065 7.12798 9.5006 7.37821C8.98417 7.89464 8.98417 8.73482 9.5006 9.25142C9.7589 9.50954 10.0979 9.63869 10.4371 9.63869C10.7763 9.63869 11.1155 9.50954 11.3738 9.25142ZM10.1358 8.01344C10.2164 7.93289 10.3234 7.88867 10.4371 7.88867C10.551 7.88867 10.658 7.93289 10.7384 8.01344C10.9046 8.17961 10.9046 8.44984 10.7384 8.61602C10.5724 8.7822 10.302 8.7822 10.1358 8.61602C9.96982 8.44984 9.96982 8.17961 10.1358 8.01344Z" fill="#4FA800"/>
<path d="M4.4692 10.4055C4.29372 10.23 4.00928 10.23 3.8338 10.4055L2.55739 11.6819C2.47316 11.7661 2.42578 11.8804 2.42578 11.9995C2.42578 12.1187 2.47316 12.2329 2.55739 12.3171L8.25387 18.0136C8.34143 18.1012 8.45654 18.145 8.57148 18.145C8.68642 18.145 8.80135 18.1012 8.88909 18.0136L17.406 9.49651C17.5815 9.32104 17.5815 9.03659 17.406 8.86111L11.7097 3.16481C11.6255 3.08058 11.5112 3.0332 11.3921 3.0332C11.2729 3.0332 11.1587 3.08058 11.0745 3.16481L6.37505 7.86423C6.19957 8.03971 6.19957 8.32416 6.37505 8.49963C6.55035 8.67493 6.83479 8.67493 7.01027 8.49963L11.3921 4.11782L16.4532 9.1789L8.57148 17.0606L3.5104 11.9995L4.4692 11.0407C4.6445 10.8652 4.64468 10.581 4.4692 10.4055Z" fill="#4FA800"/>
<path d="M17.3242 11.5439C17.2059 11.5439 17.0901 11.592 17.0066 11.6756C16.9231 11.7591 16.875 11.8751 16.875 11.9932C16.875 12.1113 16.9231 12.2272 17.0066 12.3108C17.0901 12.3943 17.2059 12.4424 17.3242 12.4424C17.4423 12.4424 17.5581 12.3943 17.6418 12.3108C17.7254 12.2272 17.7734 12.1113 17.7734 11.9932C17.7734 11.8751 17.7254 11.7591 17.6418 11.6756C17.5581 11.592 17.4423 11.5439 17.3242 11.5439Z" fill="#4FA800"/>
<path d="M5.73931 9.76976C5.82336 9.68623 5.87109 9.57077 5.87109 9.45215C5.87109 9.33405 5.82336 9.21859 5.73931 9.13454C5.65578 9.05101 5.54032 9.00293 5.42188 9.00293C5.3036 9.00293 5.18779 9.05101 5.10426 9.13454C5.02056 9.21806 4.97266 9.33405 4.97266 9.45215C4.97266 9.57077 5.02056 9.68623 5.10426 9.76976C5.18814 9.85381 5.3036 9.90137 5.42188 9.90137C5.54032 9.90137 5.65578 9.85381 5.73931 9.76976Z" fill="#4FA800"/>
</svg>
