<svg width="40" height="37" viewBox="0 0 40 37" fill="none" xmlns="http://www.w3.org/2000/svg">
<path d="M9.00007 29V2.5C9.00007 0.9 10.6665 0.5 11.4998 0.5H34.4998C37.2998 0.5 38.6664 1.83333 38.9998 2.5V8H33.4998C33.6664 15.8333 33.8998 32 33.4998 34C33.0998 36 30.6664 36.1667 29.4998 36H7.50007C3.90007 36 3.33341 34.6667 3.50007 34V29H9.00007Z" fill="#BAEEFF"/>
<circle cx="8" cy="17" r="8" fill="#BAEEFF"/>
<path d="M38.9337 1.07325C38.2469 0.381906 37.3349 0 36.368 0H11.304C9.30171 0 7.672 1.64381 7.672 3.66376V8.56527C3.37486 8.97249 0 12.6201 0 17.0466C0 21.4764 3.37486 25.1287 7.672 25.5359V28.5532H2.8C2.35771 28.5532 2 28.9133 2 29.3584V33.3443C2 35.3596 3.62971 37 5.632 37H30.696C31.6731 37 32.5874 36.6215 33.2697 35.9348C33.952 35.2481 34.328 34.3278 34.328 33.3443V28.0183H32.728V33.3443C32.728 33.8976 32.5189 34.4141 32.1383 34.796C31.7589 35.179 31.2457 35.3896 30.696 35.3896C29.5714 35.3896 28.656 34.4716 28.656 33.3443V29.3584C28.656 29.3446 28.656 29.3308 28.6549 29.317C28.6549 29.3078 28.6537 29.2998 28.6526 29.2906C28.6526 29.286 28.6514 29.2814 28.6514 29.2756C28.6503 29.263 28.648 29.2503 28.6469 29.2376C28.6469 29.2365 28.6469 29.2365 28.6469 29.2353C28.6091 28.9846 28.456 28.7718 28.2434 28.6533C28.2423 28.6533 28.2423 28.6521 28.2411 28.6521C28.2309 28.6464 28.2217 28.6418 28.2114 28.636C28.2103 28.6349 28.208 28.6349 28.2069 28.6337C28.1977 28.6291 28.1886 28.6245 28.1794 28.6211C28.1771 28.6199 28.1749 28.6188 28.1714 28.6176C28.1623 28.6142 28.1543 28.6107 28.1451 28.6073C28.1417 28.6061 28.1383 28.605 28.1349 28.6027C28.1269 28.5992 28.1189 28.5969 28.1109 28.5946C28.1063 28.5935 28.1017 28.5912 28.0971 28.59C28.0903 28.5877 28.0823 28.5854 28.0754 28.5831C28.0697 28.582 28.0651 28.5797 28.0594 28.5785C28.0526 28.5762 28.0457 28.5751 28.0389 28.5739C28.0331 28.5728 28.0263 28.5705 28.0206 28.5693C28.0149 28.5682 28.008 28.567 28.0023 28.5659C27.9954 28.5647 27.9886 28.5636 27.9817 28.5624C27.976 28.5613 27.9703 28.5613 27.9646 28.5601C27.9566 28.559 27.9497 28.5578 27.9417 28.5567C27.936 28.5567 27.9314 28.5555 27.9257 28.5555C27.9177 28.5544 27.9097 28.5544 27.9006 28.5532C27.896 28.5532 27.8903 28.5532 27.8857 28.5532C27.8789 28.5532 27.872 28.5521 27.8651 28.5521L19.2469 28.4589V30.1625H27.056V33.3431C27.056 33.3719 27.056 33.3995 27.0571 33.4283C27.0571 33.4363 27.0571 33.4455 27.0583 33.4536C27.0594 33.4743 27.0594 33.495 27.0606 33.5157C27.0606 33.5237 27.0617 33.5329 27.0617 33.541C27.0629 33.5686 27.0651 33.5951 27.0674 33.6227C27.0674 33.6238 27.0674 33.6238 27.0674 33.625C27.0697 33.6526 27.072 33.6802 27.0743 33.7078C27.0754 33.7158 27.0766 33.725 27.0766 33.7331C27.0789 33.7527 27.0811 33.7734 27.0834 33.7929C27.0846 33.8021 27.0857 33.8102 27.0869 33.8194C27.0903 33.8447 27.0937 33.87 27.0971 33.8953C27.0971 33.8976 27.0983 33.8999 27.0983 33.9022C27.1029 33.9286 27.1063 33.9551 27.112 33.9816C27.1131 33.9908 27.1154 33.9988 27.1166 34.008C27.12 34.0264 27.1234 34.0448 27.1269 34.0644C27.1291 34.0736 27.1303 34.0828 27.1326 34.092C27.1371 34.115 27.1417 34.1369 27.1474 34.1599C27.1486 34.1645 27.1497 34.1702 27.1509 34.1748C27.1566 34.199 27.1623 34.2243 27.1691 34.2484C27.1714 34.2576 27.1737 34.2668 27.176 34.276C27.1806 34.2933 27.1851 34.3106 27.1897 34.3278C27.192 34.337 27.1954 34.3474 27.1977 34.3566C27.2034 34.3773 27.2091 34.3968 27.216 34.4175C27.2183 34.4256 27.2206 34.4325 27.2229 34.4405C27.2297 34.4624 27.2366 34.4854 27.2446 34.5073C27.248 34.5176 27.2514 34.5268 27.2549 34.536C27.2606 34.5521 27.2663 34.5682 27.272 34.5832C27.2754 34.5935 27.2789 34.6027 27.2823 34.6131C27.2891 34.6315 27.296 34.6499 27.3029 34.6683C27.3063 34.6764 27.3097 34.6856 27.3131 34.6936C27.3211 34.7143 27.3303 34.7362 27.3394 34.7569C27.3429 34.7661 27.3474 34.7753 27.352 34.7856C27.3589 34.8006 27.3657 34.8167 27.3726 34.8316C27.3771 34.8409 27.3806 34.8501 27.3851 34.8604C27.3931 34.8788 27.4023 34.8972 27.4103 34.9156C27.4126 34.9214 27.416 34.9271 27.4183 34.934C27.4286 34.9559 27.44 34.9789 27.4514 35.0007C27.456 35.0088 27.4594 35.0169 27.464 35.0249C27.472 35.041 27.4811 35.0571 27.4891 35.0732C27.4937 35.0813 27.4971 35.0893 27.5017 35.0962C27.5131 35.1169 27.5246 35.1388 27.5371 35.1595C27.5383 35.1618 27.5394 35.1629 27.5406 35.1652C27.5543 35.1882 27.568 35.2124 27.5817 35.2354C27.5851 35.24 27.5874 35.2458 27.5909 35.2504C27.6023 35.2699 27.6149 35.2883 27.6263 35.3079C27.6286 35.3125 27.632 35.3171 27.6343 35.3205C27.6491 35.3447 27.6651 35.3677 27.6811 35.3919H5.632C4.512 35.3919 3.6 34.4739 3.6 33.3466V30.166H16.032V28.4278L9.272 28.3542V25.5382C11.8023 25.2967 14.0606 23.9197 15.4594 21.863C15.624 21.6214 15.776 21.3706 15.9166 21.1106C15.9177 21.1083 15.9189 21.106 15.92 21.1037C15.9314 21.083 15.9417 21.0623 15.9531 21.0416C15.9554 21.0382 15.9566 21.0347 15.9589 21.0301C15.9691 21.0106 15.9794 20.9899 15.9897 20.9703C15.992 20.9657 15.9943 20.9611 15.9966 20.9565C16.0069 20.937 16.0171 20.9174 16.0263 20.8978C16.0286 20.8932 16.0309 20.8875 16.0343 20.8829C16.0446 20.8633 16.0537 20.8438 16.0629 20.8242C16.0651 20.8185 16.0674 20.8139 16.0709 20.8081C16.08 20.7886 16.0903 20.769 16.0994 20.7494C16.1017 20.7448 16.104 20.7391 16.1063 20.7345C16.1154 20.7149 16.1257 20.6942 16.1349 20.6747C16.1371 20.6701 16.1394 20.6655 16.1406 20.6609C16.1497 20.6402 16.16 20.6195 16.1691 20.5976C16.1703 20.5953 16.1714 20.5919 16.1726 20.5896C16.2251 20.4722 16.2766 20.3537 16.3246 20.233C16.3269 20.2284 16.3291 20.2226 16.3303 20.218C16.3371 20.1996 16.3451 20.1812 16.352 20.1628C16.3554 20.1547 16.3589 20.1467 16.3611 20.1386C16.368 20.1214 16.3737 20.1041 16.3806 20.088C16.384 20.0788 16.3874 20.0685 16.392 20.0593C16.3977 20.0432 16.4034 20.027 16.4103 20.0109C16.4137 20.0006 16.4183 19.9891 16.4217 19.9787C16.4274 19.9626 16.4331 19.9477 16.4389 19.9316C16.4434 19.9201 16.4469 19.9086 16.4514 19.8971C16.4549 19.889 16.4571 19.8798 16.4606 19.8718H28.2149C28.6571 19.8718 29.0149 19.5117 29.0149 19.0665C29.0149 18.6214 28.6571 18.2613 28.2149 18.2613H16.8514C16.9074 17.8656 16.9349 17.4607 16.9349 17.05C16.9349 16.9891 16.9337 16.9281 16.9326 16.8671C16.9326 16.8579 16.9326 16.8499 16.9326 16.8407C16.9326 16.8177 16.9314 16.7947 16.9303 16.7705C16.9303 16.7578 16.9291 16.7463 16.9291 16.7337C16.928 16.7118 16.9269 16.69 16.9269 16.6681C16.9257 16.6543 16.9257 16.6417 16.9246 16.6279C16.9234 16.6072 16.9223 16.5864 16.9211 16.5646C16.92 16.5508 16.92 16.5358 16.9189 16.522C16.9177 16.5013 16.9166 16.4806 16.9143 16.4611C16.9131 16.4461 16.912 16.4323 16.9109 16.4173C16.9097 16.3978 16.9074 16.3771 16.9063 16.3575C16.9051 16.3426 16.904 16.3276 16.9029 16.3127C16.9017 16.2931 16.8994 16.2724 16.8971 16.2529C16.896 16.2379 16.8949 16.2229 16.8926 16.208C16.8903 16.1884 16.8891 16.1689 16.8869 16.1493C16.8857 16.1344 16.8834 16.1194 16.8823 16.1045C16.88 16.0849 16.8777 16.0654 16.8754 16.0458C16.8731 16.0308 16.872 16.0159 16.8697 16.0009C16.8674 15.9814 16.8651 15.9618 16.8629 15.9423C16.8606 15.9273 16.8594 15.9135 16.8571 15.8986C16.8549 15.879 16.8514 15.8594 16.8491 15.8399C16.8469 15.8249 16.8446 15.8111 16.8423 15.7962C16.8389 15.7766 16.8366 15.7571 16.8331 15.7364C16.8309 15.7226 16.8286 15.7088 16.8263 15.6949C16.8229 15.6742 16.8194 15.6547 16.816 15.634C16.8137 15.6213 16.8114 15.6075 16.8091 15.5949C16.8057 15.5742 16.8023 15.5535 16.7989 15.5328C16.7966 15.5213 16.7943 15.5097 16.792 15.4982C16.7874 15.4764 16.784 15.4534 16.7794 15.4315C16.7783 15.4258 16.7771 15.42 16.776 15.4143C16.7589 15.3291 16.7417 15.2429 16.7223 15.1589C16.72 15.1508 16.7189 15.1439 16.7177 15.1359C16.7131 15.114 16.7074 15.091 16.7017 15.0692C16.6994 15.0577 16.696 15.0473 16.6937 15.0358C16.6891 15.0151 16.6834 14.9944 16.6777 14.9737C16.6743 14.961 16.672 14.9495 16.6686 14.9369C16.6629 14.9162 16.6583 14.8966 16.6526 14.8759C16.6491 14.8633 16.6457 14.8506 16.6423 14.838C16.6366 14.8184 16.632 14.7977 16.6263 14.7781C16.6229 14.7655 16.6194 14.7528 16.616 14.7402C16.6103 14.7206 16.6046 14.7011 16.5989 14.6815C16.5954 14.6689 16.592 14.6562 16.5874 14.6436C16.5817 14.624 16.576 14.6044 16.5703 14.5849C16.5669 14.5722 16.5623 14.5596 16.5589 14.5469C16.5531 14.5274 16.5463 14.5078 16.5406 14.4883C16.5371 14.4756 16.5326 14.463 16.5291 14.4503C16.5234 14.4307 16.5166 14.4112 16.5097 14.3916C16.5063 14.379 16.5017 14.3675 16.4971 14.3548C16.4903 14.3353 16.4834 14.3157 16.4777 14.295C16.4731 14.2835 16.4697 14.2709 16.4651 14.2594C16.4583 14.2398 16.4514 14.2191 16.4446 14.1995C16.4411 14.188 16.4366 14.1765 16.432 14.1662C16.4251 14.1455 16.4171 14.1248 16.4103 14.1052C16.4069 14.0949 16.4023 14.0845 16.3989 14.0741C16.3909 14.0534 16.3829 14.0316 16.3749 14.0109C16.3714 14.0017 16.368 13.9925 16.3646 13.9844C16.3554 13.9626 16.3474 13.9396 16.3383 13.9177C16.336 13.912 16.3337 13.9051 16.3303 13.8993C16.3029 13.8291 16.2743 13.7601 16.2446 13.6922H28.2103C28.6526 13.6922 29.0103 13.3322 29.0103 12.887C29.0103 12.4418 28.6526 12.0818 28.2103 12.0818H15.3429C15.3189 12.0473 15.2937 12.0139 15.2686 11.9794C15.2663 11.976 15.264 11.9737 15.2617 11.9702C15.2457 11.9495 15.2297 11.9277 15.2149 11.9069C15.2114 11.9012 15.2069 11.8966 15.2034 11.8908C15.1886 11.8713 15.1737 11.8517 15.1589 11.8322C15.1543 11.8253 15.1486 11.8195 15.144 11.8126C15.1291 11.7942 15.1143 11.7747 15.0994 11.7563C15.0937 11.7494 15.088 11.7425 15.0823 11.7344C15.0674 11.716 15.0537 11.6976 15.0389 11.6803C15.0331 11.6723 15.0263 11.6654 15.0206 11.6573C15.0057 11.6401 14.992 11.6217 14.9771 11.6044C14.9703 11.5964 14.9646 11.5895 14.9577 11.5814C14.9429 11.5642 14.9291 11.5469 14.9143 11.5296C14.9074 11.5216 14.9017 11.5147 14.8949 11.5066C14.88 11.4894 14.8651 11.4721 14.8503 11.4549C14.8434 11.4468 14.8366 11.4399 14.8309 11.4319C14.816 11.4146 14.8011 11.3974 14.7863 11.3813C14.7794 11.3744 14.7737 11.3663 14.7669 11.3594C14.752 11.3421 14.736 11.3249 14.7211 11.3088C14.7143 11.3019 14.7086 11.295 14.7017 11.2881C14.6857 11.2708 14.6697 11.2536 14.6549 11.2363C14.6491 11.2294 14.6434 11.2237 14.6366 11.2179C14.6206 11.2007 14.6034 11.1822 14.5874 11.165C14.5829 11.1604 14.5771 11.1546 14.5726 11.15C14.5543 11.1316 14.5371 11.1132 14.5189 11.0948C14.5166 11.0925 14.5143 11.0902 14.512 11.0868C14.4263 10.9993 14.3394 10.9131 14.2503 10.8291C14.248 10.8268 14.2457 10.8256 14.2446 10.8233C14.2274 10.8072 14.2091 10.79 14.1909 10.7739C14.184 10.7681 14.1783 10.7624 14.1714 10.7566C14.1554 10.7417 14.1394 10.7267 14.1223 10.7129C14.1143 10.706 14.1063 10.698 14.0971 10.6911C14.0823 10.6773 14.0663 10.6635 14.0503 10.6497C14.0411 10.6416 14.032 10.6335 14.0229 10.6255C14.008 10.6128 13.9931 10.599 13.9783 10.5864C13.968 10.5772 13.9577 10.5691 13.9486 10.5599C13.9337 10.5473 13.9189 10.5346 13.9051 10.5231C13.8949 10.5139 13.8834 10.5047 13.8731 10.4967C13.8583 10.4852 13.8446 10.4725 13.8297 10.461C13.8183 10.4518 13.808 10.4426 13.7966 10.4334C13.7829 10.4219 13.768 10.4104 13.7543 10.3989C13.7429 10.3897 13.7314 10.3805 13.72 10.3713C13.7063 10.3598 13.6914 10.3494 13.6777 10.3379C13.6651 10.3287 13.6537 10.3195 13.6411 10.3092C13.6274 10.2988 13.6137 10.2873 13.6 10.2769C13.5874 10.2677 13.5749 10.2574 13.5623 10.2482C13.5486 10.2378 13.5349 10.2275 13.5211 10.2171C13.5086 10.2068 13.4949 10.1976 13.4823 10.1884C13.4686 10.178 13.456 10.1688 13.4423 10.1585C13.4286 10.1481 13.4149 10.1389 13.4011 10.1286C13.3886 10.1194 13.376 10.1102 13.3623 10.1009C13.3474 10.0906 13.3326 10.0802 13.3177 10.0699C13.3051 10.0618 13.2937 10.0526 13.2811 10.0446C13.264 10.0331 13.248 10.0216 13.2309 10.0101C13.2206 10.0032 13.2103 9.99512 13.2 9.98822C13.1783 9.97326 13.1566 9.95831 13.1349 9.9445C13.1291 9.94105 13.1234 9.93645 13.1177 9.933C13.0903 9.9146 13.0617 9.89619 13.0331 9.87779C13.0309 9.87664 13.0286 9.87549 13.0263 9.87319C13 9.85708 12.9749 9.83983 12.9486 9.82372C12.9417 9.81912 12.9349 9.81567 12.928 9.81107C12.9063 9.79727 12.8846 9.78461 12.8629 9.77081C12.8549 9.76621 12.8469 9.76045 12.8377 9.75585C12.8171 9.7432 12.7977 9.7317 12.7771 9.71904C12.768 9.71329 12.7589 9.70869 12.7497 9.70294C12.7303 9.69143 12.7097 9.67993 12.6903 9.66843C12.6811 9.66268 12.672 9.65808 12.6629 9.65232C12.6434 9.64082 12.6229 9.62932 12.6034 9.61781C12.5943 9.61206 12.5851 9.60746 12.576 9.60171C12.5554 9.59021 12.536 9.57985 12.5154 9.56835C12.5063 9.56375 12.4971 9.558 12.488 9.5534C12.4674 9.54189 12.4469 9.53154 12.4263 9.52004C12.4171 9.51544 12.408 9.51084 12.3989 9.50623C12.3783 9.49473 12.3566 9.48438 12.336 9.47287C12.3269 9.46827 12.3189 9.46367 12.3097 9.45907C12.288 9.44757 12.2663 9.43721 12.2446 9.42571C12.2366 9.42111 12.2286 9.41766 12.2206 9.41421C12.1977 9.40271 12.1749 9.3912 12.152 9.38085C12.1451 9.3774 12.1383 9.37395 12.1303 9.3705C12.1063 9.35899 12.0823 9.34749 12.0571 9.33599C12.0514 9.33369 12.0457 9.33024 12.04 9.32793C12.0137 9.31528 11.9874 9.30378 11.9611 9.29112C11.9577 9.28882 11.9531 9.28767 11.9497 9.28537C11.92 9.27157 11.8903 9.25776 11.8594 9.24511C11.8594 9.24511 11.8583 9.24511 11.8583 9.24396C11.6069 9.13353 11.3497 9.0346 11.0857 8.94833H11.0846C11.0526 8.93798 11.0194 8.92762 10.9874 8.91727C10.9863 8.91727 10.9851 8.91612 10.984 8.91612C10.952 8.90577 10.92 8.89656 10.888 8.88621C10.8869 8.88621 10.8857 8.88506 10.8846 8.88506C10.8526 8.87586 10.8206 8.86551 10.7886 8.8563C10.7874 8.8563 10.7863 8.85515 10.7851 8.85515C10.752 8.84595 10.72 8.83675 10.6869 8.82755H10.6857C10.2286 8.70331 9.75657 8.61589 9.272 8.56987V3.66376C9.272 2.53185 10.184 1.61045 11.304 1.61045H33.3543C33.3383 1.6346 33.3211 1.65991 33.3051 1.68522C33.3029 1.68982 33.2994 1.69327 33.2971 1.69787C33.2846 1.71743 33.272 1.73813 33.2594 1.75884C33.2571 1.76229 33.2549 1.76574 33.2526 1.76919C33.2377 1.79335 33.224 1.81635 33.2103 1.84051C33.2091 1.84281 33.208 1.84396 33.2069 1.84626C33.1943 1.86812 33.1829 1.88882 33.1703 1.91068C33.1669 1.91643 33.1634 1.92333 33.16 1.92908C33.1497 1.94749 33.1406 1.96705 33.1303 1.98545C33.1269 1.9912 33.1246 1.99695 33.1211 2.0027C33.1086 2.02686 33.0971 2.05102 33.0857 2.07517C33.0846 2.07863 33.0834 2.08093 33.0811 2.08438C33.0709 2.10508 33.0617 2.12694 33.0514 2.14764C33.048 2.15455 33.0446 2.1626 33.0423 2.1695C33.0343 2.18791 33.0263 2.20631 33.0183 2.22587C33.016 2.23277 33.0126 2.23852 33.0103 2.24542C33 2.27073 32.9897 2.29489 32.9794 2.32019C32.9783 2.32364 32.9771 2.32594 32.976 2.3294C32.9669 2.35125 32.9589 2.37311 32.9509 2.39611C32.9486 2.40417 32.9451 2.41107 32.9429 2.41912C32.936 2.43868 32.9291 2.45708 32.9223 2.47664C32.92 2.48354 32.9177 2.49044 32.9154 2.49734C32.9063 2.52265 32.8983 2.54911 32.8903 2.57441C32.8891 2.57671 32.8891 2.57901 32.888 2.58132C32.8811 2.60432 32.8743 2.62848 32.8674 2.65264C32.8651 2.66069 32.8629 2.66759 32.8606 2.67564C32.8549 2.6952 32.8491 2.7159 32.8446 2.73546C32.8423 2.74236 32.8411 2.74926 32.8389 2.75616C32.832 2.78262 32.8251 2.80908 32.8194 2.83669C32.8194 2.83899 32.8183 2.84014 32.8183 2.84244C32.8126 2.86774 32.8069 2.8919 32.8023 2.91721C32.8011 2.92526 32.7989 2.93216 32.7977 2.94021C32.7931 2.96092 32.7897 2.98163 32.7863 3.00118C32.7851 3.00808 32.784 3.01614 32.7817 3.02304C32.7771 3.05065 32.7726 3.07825 32.768 3.10471C32.768 3.10586 32.768 3.10701 32.768 3.10816C32.7646 3.13462 32.76 3.16108 32.7566 3.18753C32.7554 3.19559 32.7543 3.20364 32.7531 3.21169C32.7509 3.2324 32.7486 3.2531 32.7463 3.27381C32.7451 3.28186 32.7451 3.28991 32.744 3.29796C32.7417 3.32557 32.7383 3.35318 32.7371 3.38194C32.7371 3.38309 32.7371 3.38309 32.7371 3.38424C32.7349 3.41185 32.7337 3.4383 32.7314 3.46591C32.7314 3.47396 32.7303 3.48201 32.7303 3.49122C32.7291 3.51192 32.728 3.53263 32.728 3.55333C32.728 3.56139 32.728 3.56944 32.7269 3.57864C32.7257 3.6074 32.7257 3.63501 32.7257 3.66376V23.4492H34.3257V8.44679H39.2C39.6423 8.44679 40 8.08674 40 7.64157V3.66376C40 2.68484 39.6206 1.76459 38.9337 1.07325ZM13.3257 12.1658C14.5669 13.4162 15.336 15.1428 15.336 17.0466C15.336 17.6712 15.2571 18.2763 15.0994 18.8503C14.296 21.8607 11.5703 23.9634 8.472 23.9634C8.46971 23.9634 8.46743 23.9634 8.46629 23.9634C4.68 23.96 1.60114 20.8587 1.60114 17.0466C1.60114 13.2367 4.68343 10.1378 8.47314 10.1378C10.3657 10.1378 12.0823 10.9131 13.3257 12.1658ZM38.4 6.83634H34.328V3.66376C34.328 2.53185 35.2423 1.61045 36.368 1.61045C36.9074 1.61045 37.4171 1.82441 37.8023 2.21206C38.1874 2.59972 38.4 3.11506 38.4 3.66376V6.83634Z" fill="#3991DF"/>
<path d="M13.7868 5.89648C13.3445 5.89648 12.9868 6.25653 12.9868 6.70171C12.9868 7.14688 13.3445 7.50693 13.7868 7.50693H28.2154C28.6577 7.50693 29.0154 7.14688 29.0154 6.70171C29.0154 6.25653 28.6577 5.89648 28.2154 5.89648H13.7868Z" fill="#3991DF"/>
<path d="M33.6115 26.4826C34.0534 26.4826 34.4115 26.1221 34.4115 25.6774C34.4115 25.2327 34.0534 24.8722 33.6115 24.8722C33.1697 24.8722 32.8115 25.2327 32.8115 25.6774C32.8115 26.1221 33.1697 26.4826 33.6115 26.4826Z" fill="#3991DF"/>
<path d="M17.5881 30.1406C18.0299 30.1406 18.3881 29.7801 18.3881 29.3354C18.3881 28.8907 18.0299 28.5302 17.5881 28.5302C17.1463 28.5302 16.7881 28.8907 16.7881 29.3354C16.7881 29.7801 17.1463 30.1406 17.5881 30.1406Z" fill="#3991DF"/>
<path d="M9.79386 12.6993L6.29443 17.4766H7.55958C7.66015 17.4766 7.75501 17.5226 7.81786 17.6009C7.88072 17.6791 7.90586 17.7815 7.88529 17.8804L7.15272 21.3935L10.651 16.6311H9.38358C9.28301 16.6311 9.18815 16.5851 9.12529 16.5069C9.06244 16.4287 9.03729 16.3263 9.05786 16.2274L9.79386 12.6993Z" fill="#3991DF"/>
</svg>
