<svg width="50" height="50" viewBox="0 0 49 46" fill="none" xmlns="http://www.w3.org/2000/svg">
<ellipse cx="24.6738" cy="20.0633" rx="19.8444" ry="20.0633" fill="#F0F5F9"/>
<g clip-path="url(#clip0)">
<path d="M22.7256 9.70181C22.319 7.87954 20.9723 6.54492 19.3716 6.54492C17.7708 6.54492 16.4241 7.87954 16.0176 9.70181H15.0012V31.0044H23.7419V9.70181H22.7256Z" fill="url(#paint0_linear)"/>
<path d="M14.1882 20.5059H4.76147V23.4831H14.1882V20.5059Z" fill="url(#paint1_linear)"/>
<path d="M14.1628 24.6113H4.73608V30.9764H14.1628V24.6113Z" fill="url(#paint2_linear)"/>
<path d="M4.48193 20.2994H14.4931L9.4621 18.2461L4.48193 20.2994Z" fill="#03DABB"/>
<path d="M6.36206 21.0957H5.3457V22.8153H6.36206V21.0957Z" fill="white"/>
<path d="M7.58179 21.0957H6.56543V22.8153H7.58179V21.0957Z" fill="white"/>
<path d="M9.33497 21.0957H8.3186V22.8153H9.33497V21.0957Z" fill="white"/>
<path d="M10.5547 21.0957H9.53833V22.8153H10.5547V21.0957Z" fill="white"/>
<path d="M12.4094 21.0957H11.3931V22.8153H12.4094V21.0957Z" fill="white"/>
<path d="M13.6292 21.0957H12.6128V22.8153H13.6292V21.0957Z" fill="white"/>
<path d="M6.28589 25.2539H5.26953V26.9735H6.28589V25.2539Z" fill="white"/>
<path d="M7.50562 25.2539H6.48926V26.9735H7.50562V25.2539Z" fill="white"/>
<path d="M9.25879 25.2539H8.24243V26.9735H9.25879V25.2539Z" fill="white"/>
<path d="M10.4783 25.2539H9.46191V26.9735H10.4783V25.2539Z" fill="white"/>
<path d="M12.3333 25.2539H11.3169V26.9735H12.3333V25.2539Z" fill="white"/>
<path d="M13.553 25.2539H12.5366V26.9735H13.553V25.2539Z" fill="white"/>
<path d="M14.1628 23.7383H4.73608V24.3799H14.1628V23.7383Z" fill="url(#paint3_linear)"/>
<path d="M16.6528 11.1113H16.0176V12.7796H16.6528V11.1113Z" fill="white"/>
<path d="M17.4914 11.1113H16.8562V12.7796H17.4914V11.1113Z" fill="white"/>
<path d="M19.1176 11.1113H18.4824V12.7796H19.1176V11.1113Z" fill="white"/>
<path d="M19.9814 11.1113H19.3462V12.7796H19.9814V11.1113Z" fill="white"/>
<path d="M21.7094 11.1113H21.0742V12.7796H21.7094V11.1113Z" fill="white"/>
<path d="M22.5478 11.1113H21.9126V12.7796H22.5478V11.1113Z" fill="white"/>
<path d="M16.6528 13.7559H16.0176V15.4241H16.6528V13.7559Z" fill="white"/>
<path d="M17.4914 13.7559H16.8562V15.4241H17.4914V13.7559Z" fill="white"/>
<path d="M19.1176 13.7559H18.4824V15.4241H19.1176V13.7559Z" fill="white"/>
<path d="M19.9814 13.7559H19.3462V15.4241H19.9814V13.7559Z" fill="white"/>
<path d="M21.7094 13.7559H21.0742V15.4241H21.7094V13.7559Z" fill="white"/>
<path d="M22.5478 13.7559H21.9126V15.4241H22.5478V13.7559Z" fill="white"/>
<path d="M16.602 16.1172H15.9668V17.7855H16.602V16.1172Z" fill="white"/>
<path d="M17.466 16.1172H16.8308V17.7855H17.466V16.1172Z" fill="white"/>
<path d="M19.0923 16.1172H18.457V17.7855H19.0923V16.1172Z" fill="white"/>
<path d="M19.9306 16.1172H19.2954V17.7855H19.9306V16.1172Z" fill="white"/>
<path d="M21.6584 16.1172H21.0232V17.7855H21.6584V16.1172Z" fill="white"/>
<path d="M22.5222 16.1172H21.887V17.7855H22.5222V16.1172Z" fill="white"/>
<path d="M16.602 18.7598H15.9668V20.428H16.602V18.7598Z" fill="white"/>
<path d="M17.466 18.7598H16.8308V20.428H17.466V18.7598Z" fill="white"/>
<path d="M19.0923 18.7598H18.457V20.428H19.0923V18.7598Z" fill="white"/>
<path d="M19.9306 18.7598H19.2954V20.428H19.9306V18.7598Z" fill="white"/>
<path d="M21.6584 18.7598H21.0232V20.428H21.6584V18.7598Z" fill="white"/>
<path d="M22.5222 18.7598H21.887V20.428H22.5222V18.7598Z" fill="white"/>
<path d="M16.602 21.3516H15.9668V23.0198H16.602V21.3516Z" fill="white"/>
<path d="M17.466 21.3516H16.8308V23.0198H17.466V21.3516Z" fill="white"/>
<path d="M19.0923 21.3516H18.457V23.0198H19.0923V21.3516Z" fill="white"/>
<path d="M19.9306 21.3516H19.2954V23.0198H19.9306V21.3516Z" fill="white"/>
<path d="M21.6584 21.3516H21.0232V23.0198H21.6584V21.3516Z" fill="white"/>
<path d="M22.5222 21.3516H21.887V23.0198H22.5222V21.3516Z" fill="white"/>
<path d="M16.602 23.9961H15.9668V25.6644H16.602V23.9961Z" fill="white"/>
<path d="M17.466 23.9961H16.8308V25.6644H17.466V23.9961Z" fill="white"/>
<path d="M19.0923 23.9961H18.457V25.6644H19.0923V23.9961Z" fill="white"/>
<path d="M19.9306 23.9961H19.2954V25.6644H19.9306V23.9961Z" fill="white"/>
<path d="M21.6584 23.9961H21.0232V25.6644H21.6584V23.9961Z" fill="white"/>
<path d="M22.5222 23.9961H21.887V25.6644H22.5222V23.9961Z" fill="white"/>
<path d="M25.3936 13.5508H24.6821V14.7571H25.3936V13.5508Z" fill="white"/>
<path d="M25.3936 15.3457H24.6821V16.552H25.3936V15.3457Z" fill="white"/>
<path d="M25.3682 17.168H24.6567V18.3743H25.3682V17.168Z" fill="white"/>
<path d="M25.3936 18.8887H24.6821V20.095H25.3936V18.8887Z" fill="white"/>
<path d="M25.3936 20.7363H24.6821V21.9426H25.3936V20.7363Z" fill="white"/>
<path d="M25.3936 22.5332H24.6821V23.7395H25.3936V22.5332Z" fill="white"/>
<path d="M25.3936 24.3555H24.6821V25.5618H25.3936V24.3555Z" fill="white"/>
<path d="M24.5806 9.7771V30.9257H33.3213V6.33789L24.5806 9.7771Z" fill="url(#paint4_linear)"/>
<path d="M26.2321 11.0352H25.5969V12.7034H26.2321V11.0352Z" fill="white"/>
<path d="M27.0705 11.0352H26.4353V12.7034H27.0705V11.0352Z" fill="white"/>
<path d="M28.6968 11.0352H28.0615V12.7034H28.6968V11.0352Z" fill="white"/>
<path d="M29.5608 11.0352H28.9255V12.7034H29.5608V11.0352Z" fill="white"/>
<path d="M31.2885 11.0352H30.6533V12.7034H31.2885V11.0352Z" fill="white"/>
<path d="M32.1269 11.0352H31.4917V12.7034H32.1269V11.0352Z" fill="white"/>
<path d="M26.2321 13.7031H25.5969V15.3714H26.2321V13.7031Z" fill="white"/>
<path d="M27.0705 13.7031H26.4353V15.3714H27.0705V13.7031Z" fill="white"/>
<path d="M28.6968 13.7031H28.0615V15.3714H28.6968V13.7031Z" fill="white"/>
<path d="M29.5608 13.7031H28.9255V15.3714H29.5608V13.7031Z" fill="white"/>
<path d="M31.2885 13.7031H30.6533V15.3714H31.2885V13.7031Z" fill="white"/>
<path d="M32.1269 13.7031H31.4917V15.3714H32.1269V13.7031Z" fill="white"/>
<path d="M26.1814 16.0645H25.5461V17.7327H26.1814V16.0645Z" fill="white"/>
<path d="M27.0451 16.0645H26.4099V17.7327H27.0451V16.0645Z" fill="white"/>
<path d="M28.646 16.0645H28.0107V17.7327H28.646V16.0645Z" fill="white"/>
<path d="M29.51 16.0645H28.8748V17.7327H29.51V16.0645Z" fill="white"/>
<path d="M31.2378 16.0645H30.6025V17.7327H31.2378V16.0645Z" fill="white"/>
<path d="M32.0762 16.0645H31.4409V17.7327H32.0762V16.0645Z" fill="white"/>
<path d="M26.1814 18.709H25.5461V20.3773H26.1814V18.709Z" fill="white"/>
<path d="M27.0451 18.709H26.4099V20.3773H27.0451V18.709Z" fill="white"/>
<path d="M28.646 18.709H28.0107V20.3773H28.646V18.709Z" fill="white"/>
<path d="M29.51 18.709H28.8748V20.3773H29.51V18.709Z" fill="white"/>
<path d="M31.2378 18.709H30.6025V20.3773H31.2378V18.709Z" fill="white"/>
<path d="M32.0762 18.709H31.4409V20.3773H32.0762V18.709Z" fill="white"/>
<path d="M26.1814 21.3008H25.5461V22.9691H26.1814V21.3008Z" fill="white"/>
<path d="M27.0451 21.3008H26.4099V22.9691H27.0451V21.3008Z" fill="white"/>
<path d="M28.646 21.3008H28.0107V22.9691H28.646V21.3008Z" fill="white"/>
<path d="M29.51 21.3008H28.8748V22.9691H29.51V21.3008Z" fill="white"/>
<path d="M31.2378 21.3008H30.6025V22.9691H31.2378V21.3008Z" fill="white"/>
<path d="M32.0762 21.3008H31.4409V22.9691H32.0762V21.3008Z" fill="white"/>
<path d="M26.1814 23.9453H25.5461V25.6136H26.1814V23.9453Z" fill="white"/>
<path d="M27.0451 23.9453H26.4099V25.6136H27.0451V23.9453Z" fill="white"/>
<path d="M28.646 23.9453H28.0107V25.6136H28.646V23.9453Z" fill="white"/>
<path d="M29.51 23.9453H28.8748V25.6136H29.51V23.9453Z" fill="white"/>
<path d="M31.2378 23.9453H30.6025V25.6136H31.2378V23.9453Z" fill="white"/>
<path d="M32.0762 23.9453H31.4409V25.6136H32.0762V23.9453Z" fill="white"/>
<path d="M43.8406 20.248H34.4138V23.2253H43.8406V20.248Z" fill="url(#paint5_linear)"/>
<path d="M43.8406 24.3555H34.4138V30.7206H43.8406V24.3555Z" fill="url(#paint6_linear)"/>
<path d="M34.1343 20.0435H44.1709L39.1399 17.9902L34.1343 20.0435Z" fill="#03DABB"/>
<path d="M36.04 20.8125H35.0237V22.5321H36.04V20.8125Z" fill="white"/>
<path d="M37.2595 20.8125H36.2432V22.5321H37.2595V20.8125Z" fill="white"/>
<path d="M39.0127 20.8125H37.9963V22.5321H39.0127V20.8125Z" fill="white"/>
<path d="M40.2324 20.8125H39.2161V22.5321H40.2324V20.8125Z" fill="white"/>
<path d="M42.0874 20.8125H41.071V22.5321H42.0874V20.8125Z" fill="white"/>
<path d="M43.2815 20.8125H42.2651V22.5321H43.2815V20.8125Z" fill="white"/>
<path d="M35.9382 24.9961H34.9219V26.7157H35.9382V24.9961Z" fill="white"/>
<path d="M37.158 24.9961H36.1416V26.7157H37.158V24.9961Z" fill="white"/>
<path d="M38.9111 24.9961H37.8948V26.7157H38.9111V24.9961Z" fill="white"/>
<path d="M40.1308 24.9961H39.1145V26.7157H40.1308V24.9961Z" fill="white"/>
<path d="M41.9856 24.9961H40.9692V26.7157H41.9856V24.9961Z" fill="white"/>
<path d="M43.2053 24.9961H42.189V26.7157H43.2053V24.9961Z" fill="white"/>
<path d="M43.8406 23.4824H34.4138V24.1241H43.8406V23.4824Z" fill="url(#paint7_linear)"/>
</g>
<path d="M20.616 28.9706C8.25008 27.9526 2.3862 38.567 1 44.0015C6.41402 39.3888 25.6377 40.8998 33.798 39.866C40.3262 39.0389 45.9861 29.6068 48 24.9941H45.4892C45.1753 25.0472 44.218 25.6304 42.8998 27.5391C41.2521 29.9249 36.4658 33.5037 33.798 34.0604C31.6638 34.5057 24.9577 34.246 21.8715 34.0604C23.9115 33.9278 28.4938 33.6309 30.5025 33.5037C33.0134 33.3446 35.6811 32.4698 35.1319 31.1974C34.5826 29.9249 36.0735 30.243 20.616 28.9706Z" fill="url(#paint8_linear)" stroke="white"/>
<defs>
<linearGradient id="paint0_linear" x1="14.9974" y1="18.7631" x2="23.7441" y2="18.7631" gradientUnits="userSpaceOnUse">
<stop stop-color="#03ADCB"/>
<stop offset="1" stop-color="#03DABB"/>
</linearGradient>
<linearGradient id="paint1_linear" x1="4.75721" y1="22.0017" x2="14.1845" y2="22.0017" gradientUnits="userSpaceOnUse">
<stop stop-color="#03ADCB"/>
<stop offset="1" stop-color="#03DABB"/>
</linearGradient>
<linearGradient id="paint2_linear" x1="4.74259" y1="27.7987" x2="14.1698" y2="27.7987" gradientUnits="userSpaceOnUse">
<stop stop-color="#03ADCB"/>
<stop offset="1" stop-color="#03DABB"/>
</linearGradient>
<linearGradient id="paint3_linear" x1="4.74259" y1="24.0739" x2="14.1698" y2="24.0739" gradientUnits="userSpaceOnUse">
<stop stop-color="#03ADCB"/>
<stop offset="1" stop-color="#03DABB"/>
</linearGradient>
<linearGradient id="paint4_linear" x1="24.572" y1="18.6314" x2="33.3187" y2="18.6314" gradientUnits="userSpaceOnUse">
<stop stop-color="#03ADCB"/>
<stop offset="1" stop-color="#03DABB"/>
</linearGradient>
<linearGradient id="paint5_linear" x1="34.4216" y1="21.7407" x2="43.8488" y2="21.7407" gradientUnits="userSpaceOnUse">
<stop stop-color="#03ADCB"/>
<stop offset="1" stop-color="#03DABB"/>
</linearGradient>
<linearGradient id="paint6_linear" x1="34.4069" y1="27.5397" x2="43.8341" y2="27.5397" gradientUnits="userSpaceOnUse">
<stop stop-color="#03ADCB"/>
<stop offset="1" stop-color="#03DABB"/>
</linearGradient>
<linearGradient id="paint7_linear" x1="34.4069" y1="23.8148" x2="43.8341" y2="23.8148" gradientUnits="userSpaceOnUse">
<stop stop-color="#03ADCB"/>
<stop offset="1" stop-color="#03DABB"/>
</linearGradient>
<linearGradient id="paint8_linear" x1="28.2962" y1="26.8218" x2="13.7064" y2="38.727" gradientUnits="userSpaceOnUse">
<stop stop-color="#90DDE8"/>
<stop offset="1" stop-color="#8ED5CB"/>
</linearGradient>
<clipPath id="clip0">
<rect width="39.6889" height="24.6391" fill="white" transform="translate(4.48193 6.33789)"/>
</clipPath>
</defs>
</svg>
