<svg width="121" height="36" viewBox="0 0 121 36" fill="none" xmlns="http://www.w3.org/2000/svg">
<path fill-rule="evenodd" clip-rule="evenodd" d="M116.517 36H4.48313C2.01229 36 0 33.9711 0 31.5V4.5C0 2.01995 2.01229 0 4.48313 0H116.517C118.985 0 121 2.01995 121 4.5V31.5C121 33.9711 118.985 36 116.517 36Z" fill="black"/>
<path fill-rule="evenodd" clip-rule="evenodd" d="M116.517 0.720449C118.589 0.720449 120.285 2.41945 120.285 4.5V31.5C120.285 33.5805 118.6 35.2796 116.517 35.2796H4.48313C2.41074 35.2796 0.714541 33.5805 0.714541 31.5V4.5C0.714541 2.41945 2.39961 0.720449 4.48313 0.720449H116.517ZM116.517 0H4.48313C2.01229 0 0 2.02893 0 4.5V31.5C0 33.98 2.01229 36 4.48313 36H116.517C118.985 36 121 33.98 121 31.5V4.5C121 2.02893 118.985 0 116.517 0Z" fill="white"/>
<path d="M63.7431 11.9088C62.935 11.9088 62.2539 11.6238 61.7152 11.0627C61.181 10.5173 60.8827 9.76542 60.8961 8.99784C60.8961 8.17864 61.1721 7.48512 61.7152 6.93525C62.2517 6.37415 62.9328 6.08911 63.7408 6.08911C64.54 6.08911 65.2211 6.37415 65.7687 6.93525C66.3118 7.50308 66.5879 8.19659 66.5879 8.99784C66.5789 9.81929 66.3029 10.5128 65.7687 11.0604C65.2322 11.626 64.5511 11.9088 63.7431 11.9088ZM39.7004 11.9088C38.9102 11.9088 38.2246 11.6283 37.6636 11.0739C37.1071 10.5218 36.8244 9.82378 36.8244 9.00008C36.8244 8.17639 37.1071 7.47839 37.6636 6.92627C38.2134 6.3719 38.899 6.09136 39.7004 6.09136C40.0922 6.09136 40.4728 6.16991 40.8379 6.32926C41.1962 6.48412 41.4878 6.6951 41.7038 6.9532L41.7572 7.01829L41.1539 7.6153L41.0916 7.54123C40.751 7.13275 40.2947 6.933 39.6915 6.933C39.1528 6.933 38.6831 7.12602 38.2958 7.50757C37.9063 7.89136 37.7081 8.3941 37.7081 9.00233C37.7081 9.61056 37.9063 10.1133 38.2958 10.4971C38.6831 10.8786 39.1528 11.0717 39.6915 11.0717C40.2658 11.0717 40.7488 10.8786 41.125 10.4971C41.3476 10.2727 41.4856 9.95844 41.5346 9.56118H39.6002V8.72178H42.3649L42.376 8.79809C42.396 8.93949 42.4161 9.08537 42.4161 9.22003C42.4161 9.99435 42.1846 10.6205 41.726 11.0829C41.2051 11.6305 40.524 11.9088 39.7004 11.9088ZM71.6675 11.7899H70.815L68.2039 7.57714L68.2262 8.33574V11.7876H67.3736V6.21031H68.3464L68.3731 6.25295L70.8283 10.221L70.8061 9.46467V6.21031H71.6675V11.7899ZM57.3367 11.7899H56.4731V7.04971H54.975V6.21031H58.8326V7.04971H57.3345V11.7899H57.3367ZM54.2716 11.7899H53.4101V6.21031H54.2716V11.7899ZM49.4301 11.7899H48.5686V7.04971H47.0706V6.21031H50.9282V7.04971H49.4301V11.7899ZM46.5252 11.7809H43.2219V6.21031H46.5252V7.04971H44.0855V8.58038H46.287V9.41081H44.0855V10.9415H46.5252V11.7809ZM62.3474 10.4859C62.7325 10.8741 63.1999 11.0694 63.7431 11.0694C64.3018 11.0694 64.7581 10.8786 65.1387 10.4859C65.5172 10.1043 65.7086 9.60382 65.7086 9.00008C65.7086 8.39634 65.5172 7.8936 65.141 7.5143C64.7559 7.12602 64.2862 6.93076 63.7453 6.93076C63.1866 6.93076 62.7303 7.12153 62.3518 7.5143C61.9734 7.89584 61.782 8.39634 61.782 9.00008C61.782 9.60382 61.9712 10.1066 62.3474 10.4859Z" fill="white"/>
<path fill-rule="evenodd" clip-rule="evenodd" d="M60.816 19.58C58.7124 19.58 57.0073 21.1892 57.0073 23.4089C57.0073 25.6084 58.7236 27.2378 60.816 27.2378C62.9195 27.2378 64.6247 25.6174 64.6247 23.4089C64.6247 21.1892 62.9195 19.58 60.816 19.58ZM60.816 25.7206C59.6652 25.7206 58.6746 24.76 58.6746 23.3999C58.6746 22.0196 59.6674 21.0792 60.816 21.0792C61.9668 21.0792 62.9574 22.0196 62.9574 23.3999C62.9596 24.769 61.9668 25.7206 60.816 25.7206ZM52.5064 19.58C50.4028 19.58 48.6977 21.1892 48.6977 23.4089C48.6977 25.6084 50.414 27.2378 52.5064 27.2378C54.6099 27.2378 56.315 25.6174 56.315 23.4089C56.315 21.1892 54.6077 19.58 52.5064 19.58ZM52.5064 25.7206C51.3555 25.7206 50.365 24.76 50.365 23.3999C50.365 22.0196 51.3578 21.0792 52.5064 21.0792C53.6572 21.0792 54.6478 22.0196 54.6478 23.3999C54.6478 24.769 53.6572 25.7206 52.5064 25.7206ZM42.6185 20.7493V22.3697H46.4762C46.3582 23.2787 46.0599 23.9498 45.6036 24.4099C45.0382 24.98 44.1656 25.5994 42.6274 25.5994C40.2568 25.5994 38.4025 23.6692 38.4025 21.279C38.4025 18.8887 40.2568 16.9585 42.6274 16.9585C43.9074 16.9585 44.8401 17.468 45.5324 18.1189L46.6721 16.9697C45.7104 16.0406 44.4305 15.3291 42.6364 15.3291C39.3842 15.3291 36.6551 17.9999 36.6551 21.27C36.6551 24.5491 39.382 27.2109 42.6364 27.2109C44.3927 27.2109 45.7104 26.6318 46.7522 25.5411C47.814 24.4705 48.1501 22.96 48.1501 21.7413C48.1501 21.362 48.1212 21.0209 48.0611 20.7313H42.6163C42.6185 20.7291 42.6185 20.7493 42.6185 20.7493ZM83.0625 22.0106C82.7442 21.151 81.7826 19.571 79.8103 19.571C77.8559 19.571 76.231 21.1219 76.231 23.3999C76.231 25.55 77.8381 27.2288 79.9995 27.2288C81.7358 27.2288 82.7464 26.1583 83.1627 25.5298L81.8738 24.659C81.4464 25.2987 80.8521 25.7184 80.0085 25.7184C79.1559 25.7184 78.5593 25.3279 78.1631 24.558L83.2406 22.4371C83.2406 22.4393 83.0625 22.0106 83.0625 22.0106ZM77.8849 23.2899C77.8448 21.8109 79.0246 21.059 79.8682 21.059C80.5338 21.059 81.0881 21.389 81.2773 21.8693L77.8849 23.2899ZM73.7601 26.9999H75.4274V15.751H73.7601V26.9999ZM71.0221 20.4306H70.962C70.5858 19.9795 69.8713 19.571 68.9586 19.571C67.0643 19.571 65.3192 21.252 65.3192 23.4111C65.3192 25.5613 67.0554 27.2221 68.9586 27.2221C69.8602 27.2221 70.5858 26.8114 70.962 26.3513H71.0221V26.9012C71.0221 28.3623 70.2475 29.15 68.9987 29.15C67.977 29.15 67.3426 28.4094 67.0844 27.7899L65.6353 28.4004C66.0515 29.4104 67.1623 30.6605 68.9965 30.6605C70.9509 30.6605 72.607 29.5002 72.607 26.67V19.7999H71.031V20.4306C71.0333 20.4306 71.0221 20.4306 71.0221 20.4306ZM69.1078 25.7206C67.957 25.7206 66.9953 24.751 66.9953 23.4111C66.9953 22.06 67.957 21.0815 69.1078 21.0815C70.2475 21.0815 71.1312 22.0712 71.1312 23.4111C71.1423 24.751 70.2497 25.7206 69.1078 25.7206ZM90.869 15.751H86.8823V26.9999H88.5496V22.7401H90.8713C92.7166 22.7401 94.5308 21.3912 94.5308 19.25C94.5308 17.1089 92.7233 15.751 90.869 15.751ZM90.918 21.169H88.5473V17.3087H90.918C92.1668 17.3087 92.8724 18.3478 92.8724 19.2388C92.8724 20.1209 92.1579 21.169 90.918 21.169ZM101.213 19.5598C100.002 19.5598 98.7535 20.1007 98.2371 21.279L99.7151 21.8984C100.033 21.279 100.617 21.068 101.233 21.068C102.097 21.068 102.97 21.5887 102.99 22.5179V22.6368C102.691 22.4663 102.037 22.2059 101.253 22.2059C99.6572 22.2059 98.0389 23.0857 98.0389 24.7353C98.0389 26.2458 99.3478 27.2154 100.806 27.2154C101.926 27.2154 102.542 26.7059 102.927 26.1156H102.987V26.9865H104.594V22.6772C104.594 20.6707 103.116 19.5598 101.213 19.5598ZM101.004 25.7206C100.459 25.7206 99.6951 25.4513 99.6951 24.76C99.6951 23.8892 100.648 23.5593 101.46 23.5593C102.195 23.5593 102.542 23.7186 102.978 23.9386C102.858 24.9486 102.012 25.7116 101.004 25.7206ZM110.458 19.7999L108.543 24.6792H108.483L106.5 19.7999H104.706L107.682 26.6206L105.986 30.4114H107.722L112.301 19.7999H110.458ZM95.4501 26.9999H97.1174V15.751H95.4501V26.9999Z" fill="white"/>
<path fill-rule="evenodd" clip-rule="evenodd" d="M9.31354 6.78033C9.05533 7.06087 8.90619 7.48955 8.90619 8.05065V27.9516C8.90619 28.5127 9.05533 28.9414 9.32245 29.2107L9.39145 29.2713L20.4501 18.1212V17.8721L9.38255 6.71973L9.31354 6.78033Z" fill="url(#paint0_linear)"/>
<path fill-rule="evenodd" clip-rule="evenodd" d="M24.1296 21.8491L20.4412 18.1302V17.8698L24.1296 14.1509L24.2098 14.2003L28.5727 16.7005C29.8214 17.4097 29.8214 18.5813 28.5727 19.2995L24.2098 21.7998L24.1296 21.8491Z" fill="url(#paint1_linear)"/>
<path fill-rule="evenodd" clip-rule="evenodd" d="M24.2098 21.7997L20.4412 18L9.31354 29.2197C9.72089 29.6596 10.4043 29.709 11.1678 29.2803L24.2098 21.7997Z" fill="url(#paint2_linear)"/>
<path fill-rule="evenodd" clip-rule="evenodd" d="M24.2098 14.2002L11.1678 6.73087C10.4043 6.29097 9.71867 6.35157 9.31354 6.79147L20.4412 18L24.2098 14.2002Z" fill="url(#paint3_linear)"/>
<path opacity="0.2" fill-rule="evenodd" clip-rule="evenodd" d="M24.1297 21.7188L11.1766 29.1387C10.4531 29.5584 9.80759 29.5293 9.39133 29.1477L9.32233 29.2173L9.39133 29.2779C9.80759 29.6572 10.4531 29.6886 11.1766 29.2689L24.2187 21.7995L24.1297 21.7188Z" fill="black"/>
<path opacity="0.12" fill-rule="evenodd" clip-rule="evenodd" d="M28.5727 19.1693L24.1185 21.719L24.1987 21.7998L28.5616 19.2995C29.1871 18.9404 29.4943 18.4691 29.4943 18C29.4564 18.4309 29.1381 18.8394 28.5727 19.1693Z" fill="black"/>
<path opacity="0.25" fill-rule="evenodd" clip-rule="evenodd" d="M11.1678 6.86131L28.5728 16.8309C29.1382 17.1518 29.4565 17.5715 29.5054 18.0002C29.5054 17.5311 29.1983 17.0598 28.5728 16.7007L11.1678 6.73113C9.91901 6.01068 8.90619 6.61218 8.90619 8.05083V8.18101C8.90619 6.74011 9.91901 6.14984 11.1678 6.86131Z" fill="white"/>
<defs>
<linearGradient id="paint0_linear" x1="19.4582" y1="7.83594" x2="1.72489" y2="12.5223" gradientUnits="userSpaceOnUse">
<stop stop-color="#00A0FF"/>
<stop offset="0.00657" stop-color="#00A1FF"/>
<stop offset="0.2601" stop-color="#00BEFF"/>
<stop offset="0.5122" stop-color="#00D2FF"/>
<stop offset="0.7604" stop-color="#00DFFF"/>
<stop offset="1" stop-color="#00E3FF"/>
</linearGradient>
<linearGradient id="paint1_linear" x1="30.2012" y1="18" x2="8.60271" y2="18" gradientUnits="userSpaceOnUse">
<stop stop-color="#FFE000"/>
<stop offset="0.4087" stop-color="#FFBD00"/>
<stop offset="0.7754" stop-color="#FFA500"/>
<stop offset="1" stop-color="#FF9C00"/>
</linearGradient>
<linearGradient id="paint2_linear" x1="22.1606" y1="20.0676" x2="7.76605" y2="44.0962" gradientUnits="userSpaceOnUse">
<stop stop-color="#FF3A44"/>
<stop offset="1" stop-color="#C31162"/>
</linearGradient>
<linearGradient id="paint3_linear" x1="6.51146" y1="0.160863" x2="12.9335" y2="10.8925" gradientUnits="userSpaceOnUse">
<stop stop-color="#32A071"/>
<stop offset="0.0685" stop-color="#2DA771"/>
<stop offset="0.4762" stop-color="#15CF74"/>
<stop offset="0.8009" stop-color="#06E775"/>
<stop offset="1" stop-color="#00F076"/>
</linearGradient>
</defs>
</svg>
