<svg width="202" height="60" viewBox="0 0 202 60" fill="none" xmlns="http://www.w3.org/2000/svg">
<path fill-rule="evenodd" clip-rule="evenodd" d="M194.516 60H7.48423C3.35936 60 0 56.6185 0 52.5V7.5C0 3.36658 3.35936 0 7.48423 0H194.516C198.637 0 202 3.36658 202 7.5V52.5C202 56.6185 198.637 60 194.516 60Z" fill="black"/>
<path fill-rule="evenodd" clip-rule="evenodd" d="M194.516 1.20075C197.975 1.20075 200.807 4.03242 200.807 7.5V52.5C200.807 55.9676 197.994 58.7993 194.516 58.7993H7.48423C4.02454 58.7993 1.19287 55.9676 1.19287 52.5V7.5C1.19287 4.03242 4.00596 1.20075 7.48423 1.20075H194.516ZM194.516 0H7.48423C3.35936 0 0 3.38155 0 7.5V52.5C0 56.6334 3.35936 60 7.48423 60H194.516C198.637 60 202 56.6334 202 52.5V7.5C202 3.38155 198.637 0 194.516 0Z" fill="white"/>
<path d="M106.413 19.8478C105.064 19.8478 103.927 19.3728 103.028 18.4376C102.136 17.5286 101.638 16.2755 101.661 14.9962C101.661 13.6309 102.121 12.475 103.028 11.5585C103.924 10.6234 105.061 10.1483 106.41 10.1483C107.744 10.1483 108.881 10.6234 109.795 11.5585C110.702 12.5049 111.163 13.6608 111.163 14.9962C111.148 16.3653 110.687 17.5211 109.795 18.4339C108.9 19.3765 107.762 19.8478 106.413 19.8478ZM66.2758 19.8478C64.9566 19.8478 63.812 19.3802 62.8755 18.4563C61.9465 17.5361 61.4746 16.3728 61.4746 14.9999C61.4746 13.6271 61.9465 12.4638 62.8755 11.5436C63.7934 10.6196 64.938 10.1521 66.2758 10.1521C66.9298 10.1521 67.5653 10.283 68.1747 10.5486C68.773 10.8067 69.2598 11.1583 69.6203 11.5885L69.7095 11.6969L68.7024 12.692L68.5983 12.5685C68.0298 11.8877 67.268 11.5548 66.2609 11.5548C65.3616 11.5548 64.5775 11.8765 63.9309 12.5124C63.2806 13.1521 62.9499 13.99 62.9499 15.0037C62.9499 16.0174 63.2806 16.8553 63.9309 17.495C64.5775 18.1309 65.3616 18.4526 66.2609 18.4526C67.2197 18.4526 68.0261 18.1309 68.6541 17.495C69.0257 17.1209 69.2561 16.5972 69.3379 15.9351H66.1086V14.5361H70.724L70.7425 14.6633C70.776 14.8989 70.8094 15.1421 70.8094 15.3665C70.8094 16.657 70.423 17.7007 69.6574 18.4713C68.7879 19.384 67.6507 19.8478 66.2758 19.8478ZM119.643 19.6496H118.219L113.861 12.6284L113.898 13.8927V19.6458H112.474V10.3503H114.098L114.143 10.4214L118.242 17.0348L118.205 15.7743V10.3503H119.643V19.6496ZM95.7185 19.6496H94.2766V11.7493H91.7757V10.3503H98.2157V11.7493H95.7148V19.6496H95.7185ZM90.6014 19.6496H89.1633V10.3503H90.6014V19.6496ZM82.5189 19.6496H81.0807V11.7493H78.5798V10.3503H85.0198V11.7493H82.5189V19.6496ZM77.6694 19.6346H72.1547V10.3503H77.6694V11.7493H73.5965V14.3004H77.2717V15.6845H73.5965V18.2356H77.6694V19.6346ZM104.083 17.4762C104.726 18.1234 105.507 18.4488 106.413 18.4488C107.346 18.4488 108.108 18.1309 108.743 17.4762C109.375 16.8403 109.695 16.0062 109.695 14.9999C109.695 13.9937 109.375 13.1558 108.747 12.5236C108.104 11.8765 107.32 11.5511 106.417 11.5511C105.484 11.5511 104.723 11.869 104.091 12.5236C103.459 13.1595 103.14 13.9937 103.14 14.9999C103.14 16.0062 103.455 16.8441 104.083 17.4762Z" fill="white"/>
<path fill-rule="evenodd" clip-rule="evenodd" d="M101.529 32.6335C98.0171 32.6335 95.1705 35.3155 95.1705 39.015C95.1705 42.6809 98.0357 45.3966 101.529 45.3966C105.041 45.3966 107.887 42.6958 107.887 39.015C107.887 35.3155 105.041 32.6335 101.529 32.6335ZM101.529 42.8679C99.6076 42.8679 97.9539 41.2669 97.9539 39.0001C97.9539 36.6996 99.6113 35.1322 101.529 35.1322C103.45 35.1322 105.104 36.6996 105.104 39.0001C105.107 41.2819 103.45 42.8679 101.529 42.8679ZM87.6566 32.6335C84.1448 32.6335 81.2983 35.3155 81.2983 39.015C81.2983 42.6809 84.1634 45.3966 87.6566 45.3966C91.1683 45.3966 94.0148 42.6958 94.0148 39.015C94.0148 35.3155 91.1646 32.6335 87.6566 32.6335ZM87.6566 42.8679C85.7353 42.8679 84.0817 41.2669 84.0817 39.0001C84.0817 36.6996 85.739 35.1322 87.6566 35.1322C89.5778 35.1322 91.2315 36.6996 91.2315 39.0001C91.2315 41.2819 89.5778 42.8679 87.6566 42.8679ZM71.1496 34.5824V37.2831H77.5896C77.3926 38.7981 76.8947 39.9165 76.1329 40.6834C75.189 41.6335 73.7323 42.6659 71.1644 42.6659C67.2068 42.6659 64.1112 39.449 64.1112 35.4652C64.1112 31.4814 67.2068 28.2644 71.1644 28.2644C73.3012 28.2644 74.8582 29.1135 76.014 30.1983L77.9166 28.2831C76.3112 26.7345 74.1745 25.5487 71.1793 25.5487C65.7501 25.5487 61.1941 30.0001 61.1941 35.4502C61.1941 40.9153 65.7463 45.3517 71.1793 45.3517C74.1113 45.3517 76.3113 44.3866 78.0504 42.5687C79.823 40.7844 80.3841 38.2669 80.3841 36.2357C80.3841 35.6036 80.3358 35.035 80.2355 34.5524H71.1459C71.1496 34.5487 71.1496 34.5824 71.1496 34.5824ZM138.668 36.6846C138.136 35.2519 136.531 32.6185 133.238 32.6185C129.976 32.6185 127.263 35.2033 127.263 39.0001C127.263 42.5836 129.946 45.3816 133.554 45.3816C136.453 45.3816 138.14 43.5973 138.835 42.55L136.683 41.0986C135.97 42.1647 134.978 42.8642 133.569 42.8642C132.146 42.8642 131.15 42.2133 130.488 40.9302L138.965 37.3953C138.965 37.3991 138.668 36.6846 138.668 36.6846ZM130.024 38.8168C129.957 36.3517 131.927 35.0986 133.335 35.0986C134.446 35.0986 135.371 35.6485 135.687 36.449L130.024 38.8168ZM123.138 45.0001H125.921V26.2519H123.138V45.0001ZM118.567 34.0512H118.467C117.839 33.2993 116.646 32.6185 115.122 32.6185C111.96 32.6185 109.047 35.4203 109.047 39.0188C109.047 42.6023 111.945 45.3704 115.122 45.3704C116.627 45.3704 117.839 44.6859 118.467 43.919H118.567V44.8355C118.567 47.2706 117.274 48.5836 115.189 48.5836C113.484 48.5836 112.424 47.3492 111.993 46.3168L109.574 47.3342C110.269 49.0175 112.123 51.1011 115.186 51.1011C118.448 51.1011 121.213 49.1672 121.213 44.4502V33.0001H118.582V34.0512C118.586 34.0512 118.567 34.0512 118.567 34.0512ZM115.371 42.8679C113.45 42.8679 111.845 41.2519 111.845 39.0188C111.845 36.7669 113.45 35.136 115.371 35.136C117.274 35.136 118.749 36.7856 118.749 39.0188C118.768 41.2519 117.278 42.8679 115.371 42.8679ZM151.7 26.2519H145.045V45.0001H147.828V37.9003H151.704C154.784 37.9003 157.813 35.6522 157.813 32.0836C157.813 28.515 154.796 26.2519 151.7 26.2519ZM151.782 35.2819H147.824V28.848H151.782C153.867 28.848 155.045 30.5799 155.045 32.0649C155.045 33.535 153.852 35.2819 151.782 35.2819ZM168.969 32.5998C166.947 32.5998 164.863 33.5013 164 35.4652L166.468 36.4976C166.999 35.4652 167.973 35.1135 169.002 35.1135C170.444 35.1135 171.901 35.9814 171.934 37.53V37.7283C171.436 37.444 170.344 37.0101 169.036 37.0101C166.371 37.0101 163.67 38.4764 163.67 41.2258C163.67 43.7432 165.855 45.3592 168.289 45.3592C170.158 45.3592 171.187 44.51 171.83 43.5263H171.931V44.9776H174.614V37.7956C174.614 34.4514 172.146 32.5998 168.969 32.5998ZM168.62 42.8679C167.709 42.8679 166.434 42.419 166.434 41.2669C166.434 39.8155 168.025 39.2657 169.381 39.2657C170.608 39.2657 171.187 39.5312 171.916 39.8978C171.715 41.5811 170.303 42.8529 168.62 42.8679ZM184.402 33.0001L181.206 41.1322H181.106L177.795 33.0001H174.799L179.768 44.3679L176.936 50.6859H179.835L187.479 33.0001H184.402ZM159.348 45.0001H162.131V26.2519H159.348V45.0001Z" fill="white"/>
<path fill-rule="evenodd" clip-rule="evenodd" d="M15.5486 11.3006C15.1175 11.7682 14.8685 12.4826 14.8685 13.4178V46.5861C14.8685 47.5213 15.1175 48.2357 15.5634 48.6846L15.6786 48.7856L34.1402 30.2021V29.7869L15.6638 11.1996L15.5486 11.3006Z" fill="url(#paint0_linear)"/>
<path fill-rule="evenodd" clip-rule="evenodd" d="M40.2814 36.4151L34.1237 30.2169V29.783L40.2814 23.5847L40.4151 23.667L47.6987 27.8341C49.7835 29.0161 49.7835 30.9688 47.6987 32.1658L40.4151 36.3328L40.2814 36.4151Z" fill="url(#paint1_linear)"/>
<path fill-rule="evenodd" clip-rule="evenodd" d="M40.4158 36.3329L34.1244 30L15.5477 48.6995C16.2277 49.4327 17.3686 49.515 18.6432 48.8005L40.4158 36.3329Z" fill="url(#paint2_linear)"/>
<path fill-rule="evenodd" clip-rule="evenodd" d="M40.4158 23.667L18.6432 11.2182C17.3686 10.485 16.224 10.586 15.5477 11.3192L34.1244 30L40.4158 23.667Z" fill="url(#paint3_linear)"/>
<path opacity="0.2" fill-rule="evenodd" clip-rule="evenodd" d="M40.2831 36.1984L18.6589 48.5649C17.4512 49.2644 16.3735 49.2158 15.6786 48.5799L15.5634 48.6958L15.6786 48.7968C16.3735 49.429 17.4512 49.4814 18.6589 48.7819L40.4317 36.333L40.2831 36.1984Z" fill="black"/>
<path opacity="0.12" fill-rule="evenodd" clip-rule="evenodd" d="M47.6997 31.9489L40.2638 36.1983L40.3976 36.3329L47.6811 32.1658C48.7254 31.5673 49.2382 30.7818 49.2382 30C49.175 30.7182 48.6436 31.399 47.6997 31.9489Z" fill="black"/>
<path opacity="0.25" fill-rule="evenodd" clip-rule="evenodd" d="M18.6441 11.4349L47.7003 28.0509C48.6442 28.5858 49.1756 29.2853 49.2573 29.9998C49.2573 29.218 48.7445 28.4324 47.7003 27.8339L18.6441 11.218C16.5593 10.0172 14.8685 11.0197 14.8685 13.4175V13.6344C14.8685 11.2329 16.5593 10.2492 18.6441 11.4349Z" fill="white"/>
<defs>
<linearGradient id="paint0_linear" x1="32.4842" y1="13.0599" x2="2.88628" y2="20.8946" gradientUnits="userSpaceOnUse">
<stop stop-color="#00A0FF"/>
<stop offset="0.00657" stop-color="#00A1FF"/>
<stop offset="0.2601" stop-color="#00BEFF"/>
<stop offset="0.5122" stop-color="#00D2FF"/>
<stop offset="0.7604" stop-color="#00DFFF"/>
<stop offset="1" stop-color="#00E3FF"/>
</linearGradient>
<linearGradient id="paint1_linear" x1="50.4175" y1="30" x2="14.3601" y2="30" gradientUnits="userSpaceOnUse">
<stop stop-color="#FFE000"/>
<stop offset="0.4087" stop-color="#FFBD00"/>
<stop offset="0.7754" stop-color="#FFA500"/>
<stop offset="1" stop-color="#FF9C00"/>
</linearGradient>
<linearGradient id="paint2_linear" x1="36.9948" y1="33.446" x2="13.0225" y2="73.5285" gradientUnits="userSpaceOnUse">
<stop stop-color="#FF3A44"/>
<stop offset="1" stop-color="#C31162"/>
</linearGradient>
<linearGradient id="paint3_linear" x1="10.8698" y1="0.268146" x2="21.5649" y2="18.1697" gradientUnits="userSpaceOnUse">
<stop stop-color="#32A071"/>
<stop offset="0.0685" stop-color="#2DA771"/>
<stop offset="0.4762" stop-color="#15CF74"/>
<stop offset="0.8009" stop-color="#06E775"/>
<stop offset="1" stop-color="#00F076"/>
</linearGradient>
</defs>
</svg>
