<svg width="90" height="90" viewBox="0 0 90 90" fill="none" xmlns="http://www.w3.org/2000/svg">
<path d="M13.6131 9H18.1509V15C18.1509 17.475 20.1929 19.5 22.6887 19.5C25.1845 19.5 27.2265 17.475 27.2265 15V12H24.2013V15C24.2013 15.825 23.5207 16.5 22.6887 16.5C21.8568 16.5 21.1761 15.825 21.1761 15V6C21.1761 4.35 22.5375 3 24.2013 3C25.8652 3 27.2265 4.35 27.2265 6H24.2013V9H60.5039V18C60.5039 18.825 61.1845 19.5 62.0165 19.5H71.0921V37.5H74.1173V18C74.1173 17.6 73.966 17.225 73.6635 16.95L63.0753 6.45C62.798 6.175 62.3946 6 62.0165 6H30.2518C30.2518 2.675 27.5543 0 24.2013 0C20.8484 0 18.1509 2.675 18.1509 6H12.1005C11.2686 6 10.5879 6.675 10.5879 7.5V43.5H13.6131V9ZM63.5291 11.125L68.9492 16.5H63.5291V11.125Z" fill="#4C5F72"/>
<path d="M71.0921 82.5H60.5039V85.5H72.6047C73.4367 85.5 74.1173 84.825 74.1173 84V64.5H71.0921V82.5Z" fill="#4C5F72"/>
<path d="M28.7392 69C27.9072 69 27.2266 69.675 27.2266 70.5V78C27.2266 78.825 27.9072 79.5 28.7392 79.5H37.8148C38.6467 79.5 39.3274 78.825 39.3274 78V70.5C39.3274 69.675 38.6467 69 37.8148 69H28.7392ZM36.3022 76.5H30.2518V72H36.3022V76.5Z" fill="#4C5F72"/>
<path d="M19.6639 60H16.6387V63H19.6639V60Z" fill="#4C5F72"/>
<path d="M54.4538 77.9999C54.4538 74.2749 52.3865 70.4999 48.4033 70.4999C44.4202 70.4999 42.3529 74.2749 42.3529 77.9999C42.3529 78.8499 42.0252 79.1999 41.2941 79.9499C40.4622 80.7749 39.3277 81.8999 39.3277 84.0499C39.3277 85.0999 39.605 86.1249 40.1597 86.9999H24.2017V67.4999C24.2017 66.6749 23.521 65.9999 22.6891 65.9999H13.6134C12.7815 65.9999 12.1008 66.6749 12.1008 67.4999V86.9999H7.56302V60.5249L25.7143 52.6499L43.8655 60.5249V68.9999H46.8907V61.8249L49.3109 62.8749C49.7899 63.0749 50.3193 63.0249 50.7479 62.7499C51.1765 62.4749 51.4286 61.9999 51.4286 61.4999V53.9999C51.4286 53.3999 51.0756 52.8749 50.521 52.6249L26.3193 42.1249C25.9412 41.9499 25.4874 41.9499 25.1092 42.1249L0.907563 52.6249C0.352941 52.8749 0 53.3999 0 53.9999V61.4999C0 61.9999 0.252101 62.4749 0.680672 62.7499C1.10924 63.0249 1.63865 63.0749 2.11765 62.8749L4.53781 61.8249V86.9999H0V89.9999H51.4286C52.6386 89.9999 54.0756 89.4499 55.1849 88.5999C56.6218 87.5249 57.479 85.8249 57.479 84.0499C57.479 81.8999 56.3445 80.7749 55.5126 79.9499C54.7815 79.1999 54.4538 78.8499 54.4538 77.9999ZM3.02521 59.1999V54.9749L25.7143 45.1249L48.4033 54.9749V59.1999L46.8907 58.5499V58.4999H46.7647L26.3193 49.6249C25.9412 49.4499 25.4874 49.4499 25.1092 49.6249L4.66386 58.4999H4.53781V58.5499L3.02521 59.1999ZM15.126 68.9999H21.1765V86.9999H15.126V68.9999ZM51.4286 86.9999H45.3781C44.5462 86.9999 42.3529 86.0999 42.3529 84.0499C42.3529 83.1749 42.6807 82.7999 43.437 82.0499C44.2689 81.2249 45.3781 80.0999 45.3781 77.9999C45.3781 74.4499 47.3445 73.4999 48.4033 73.4999C50.7983 73.4999 51.4286 76.4499 51.4286 77.9999C51.4286 80.0999 52.563 81.2249 53.3697 82.0499C54.126 82.7999 54.4538 83.1749 54.4538 84.0499C54.4538 86.0999 52.2605 86.9999 51.4286 86.9999Z" fill="#4C5F72"/>
<path d="M85.5382 40.225L89.1181 34.9749C89.7988 33.9749 90.0509 32.7749 89.824 31.5999C89.5971 30.4249 88.9164 29.3749 87.908 28.7249C86.8996 28.0499 85.6895 27.7999 84.5046 28.0249C83.3198 28.2499 82.2861 28.9499 81.6055 29.9249L57.0256 65.95C56.8996 66.15 56.7987 66.375 56.7735 66.6L55.8912 73.25C55.8155 73.825 56.0677 74.375 56.5466 74.7C57.0256 75.025 57.6307 75.05 58.1349 74.775L64.034 71.475C64.2357 71.35 64.4122 71.2 64.5382 71L83.7988 42.775L85.8912 45.075L79.7651 54.05L82.2609 55.725L89.0425 45.775C89.4206 45.2 89.3702 44.45 88.9164 43.925L85.5382 40.225ZM84.1013 31.5999C84.3282 31.2749 84.6811 31.0499 85.0593 30.9749C85.4626 30.8999 85.866 30.9749 86.1937 31.1999C86.5214 31.4249 86.7483 31.775 86.824 32.15C86.8996 32.55 86.824 32.95 86.5971 33.275L83.4458 37.9L81.3534 35.5999L84.1013 31.5999ZM62.2441 69.025L59.2945 70.675L59.7483 67.35L63.7819 61.425L66.2777 63.1L62.2441 69.025ZM67.9668 60.625L65.471 58.95L79.6391 38.175L81.7315 40.475L67.9668 60.625Z" fill="#4C5F72"/>
<path d="M25.7147 24H22.6895V27H25.7147V24Z" fill="#4C5F72"/>
<path d="M65.0418 24H28.7393V27H65.0418V24Z" fill="#4C5F72"/>
<path d="M65.0422 30H19.6641V33H65.0422V30Z" fill="#4C5F72"/>
<path d="M65.0422 36H19.6641V39H65.0422V36Z" fill="#4C5F72"/>
<path d="M65.0416 42H42.3525V45H65.0416V42Z" fill="#4C5F72"/>
<path d="M58.9919 48H54.4541V51H58.9919V48Z" fill="#4C5F72"/>
</svg>
