<svg width="348" height="232" viewBox="0 0 348 232" fill="none" xmlns="http://www.w3.org/2000/svg">
<path d="M290.451 59.477L289.212 57.5374C278.79 40.9773 259.376 30.6254 238.571 31.1915C235.899 31.2569 233.234 31.5018 230.594 31.9247C211.603 35.0288 194.792 47.4594 187.494 63.8014C183.206 73.4109 181.758 84.5794 173.931 92.0776C163.723 101.822 146.94 101.659 132.171 100.815C117.402 99.9702 100.619 99.8264 90.4572 109.631C84.1051 115.769 77.6647 127.314 77.0987 135.772C75.1545 164.643 92.9535 187.235 114.618 197.837C136.282 208.439 165.597 208.88 189.762 205.205C223.597 200.055 261.413 178.358 281.412 152.894C301.41 127.43 305.015 88.0176 290.451 59.477Z" fill="#EBEBEB"/>
<path d="M64.4442 144.242C56.366 135.978 43.7127 132.502 32.5488 135.491C42.069 141.975 53.3015 145.485 64.8201 145.573" fill="#78B7FA"/>
<path d="M53.6186 105.935C54.9503 96.534 51.2986 85.9827 44.2597 79.1294C44.0277 88.4465 47.9717 98.9283 53.6186 105.935Z" fill="#78B7FA"/>
<path d="M59.2393 123.686C54.1503 114.032 46.0527 106.299 36.1738 101.66C39.1109 112.481 48.3677 121.334 59.3089 123.788" fill="#78B7FA"/>
<path d="M60.4198 127.134C54.7451 127.292 48.9962 127.092 43.507 125.64C38.0179 124.188 32.7608 121.394 29.123 117.047C40.2304 117.085 51.0802 120.395 60.3178 126.563" fill="#78B7FA"/>
<path d="M57.5312 115.832C60.4127 105.03 65.1687 97.5596 73.6553 91.509C74.3053 96.8193 73.0382 102.187 70.0822 106.646C67.1262 111.105 62.6755 114.363 57.5312 115.832Z" fill="#78B7FA"/>
<path d="M78.9458 134.456C78.9669 131.305 78.0562 128.219 76.3283 125.585C74.6004 122.95 72.1324 120.885 69.2344 119.65C69.6984 125.218 74.0878 131.677 78.9458 134.456Z" fill="#78B7FA"/>
<path d="M81.6816 125.35C82.3266 116.33 88.7344 107.982 97.286 105.031C95.3418 114.056 90.1264 121.568 81.6816 125.35Z" fill="#78B7FA"/>
<path d="M77.5859 141.518C79.5858 138.655 82.8524 136.878 86.2349 135.987C89.6175 135.096 93.1486 135.027 96.6425 134.952C94.2614 137.537 91.3486 139.575 88.1046 140.926C84.8605 142.278 81.3622 142.91 77.8504 142.78" fill="#78B7FA"/>
<path d="M73.5273 164.529C79.8982 162.564 86.7741 163.057 92.7993 165.911C98.8245 168.765 103.562 173.773 106.077 179.947C94.2542 177.711 82.5846 172.454 73.5273 164.529Z" fill="#78B7FA"/>
<path d="M60.5665 156.528C62.5292 162.332 62.1534 169.353 57.7825 174.354C56.9128 171.36 56.7114 168.212 57.1924 165.132C57.6735 162.051 58.8253 159.114 60.5665 156.528Z" fill="#78B7FA"/>
<path d="M52.876 153.304C52.5575 157.046 51.2801 160.643 49.167 163.748C47.0539 166.852 44.1764 169.36 40.812 171.029C40.6554 171.129 40.4799 171.196 40.2963 171.226C40.1127 171.255 39.9249 171.247 39.7448 171.2C39.2112 170.987 39.1648 170.272 39.2298 169.688C40.0835 162.264 45.5958 155.058 52.876 153.304Z" fill="#78B7FA"/>
<path d="M47.8778 152.548C46.2112 154.348 44.1927 155.786 41.9473 156.774C39.7019 157.762 37.2776 158.278 34.8246 158.291C32.3715 158.304 29.942 157.812 27.6866 156.848C25.4312 155.883 23.398 154.465 21.7129 152.682C30.0278 151.754 39.6279 151.165 47.8778 152.548Z" fill="#78B7FA"/>
<path d="M46.6172 86.0566C46.6349 86.1406 46.6598 86.2228 46.6914 86.3026C46.7564 86.4742 46.8399 86.7062 46.9466 87.0032C47.1833 87.6342 47.5173 88.539 47.9489 89.699C48.3804 90.859 48.914 92.2974 49.5125 93.9678L50.473 96.6358C50.8025 97.5638 51.1505 98.5939 51.5124 99.6472C52.9879 103.86 54.6212 108.927 56.389 114.542C58.1568 120.156 59.9479 126.406 61.7389 132.972C63.53 139.537 65.0751 145.843 66.4067 151.592C67.7384 157.341 68.8195 162.542 69.6223 166.932C69.8295 168.027 70.0259 169.069 70.2115 170.059C70.3832 171.048 70.541 171.985 70.6755 172.843C70.9771 174.588 71.2323 176.091 71.4087 177.33C71.585 178.569 71.7427 179.506 71.8448 180.17C71.8959 180.481 71.9376 180.727 71.9655 180.908C71.9756 180.992 71.9926 181.076 72.0165 181.158C72.0237 181.073 72.0237 180.988 72.0165 180.903C71.9933 180.722 71.9655 180.476 71.9237 180.16C71.8355 179.492 71.7103 178.537 71.5479 177.312C71.3855 176.087 71.1535 174.565 70.8704 172.815C70.7266 171.938 70.5781 171.001 70.4064 170.008C70.2347 169.015 70.0399 167.976 69.8403 166.876C69.0608 162.477 67.9843 157.276 66.6898 151.513C65.3952 145.75 63.8083 139.449 62.0498 132.874C60.2912 126.299 58.426 120.077 56.672 114.44C54.9181 108.802 53.2338 103.768 51.7305 99.559C51.3593 98.5073 51.0051 97.5066 50.6679 96.557L49.6842 93.8936C49.0671 92.2278 48.5335 90.7987 48.0695 89.6387C47.6055 88.4787 47.2575 87.5925 47.0116 86.9661L46.7285 86.2747C46.6964 86.1996 46.6592 86.1267 46.6172 86.0566Z" fill="#263238"/>
<path d="M92.3617 109.851C92.309 109.89 92.2607 109.935 92.2179 109.985L91.8189 110.403C91.4709 110.774 90.9697 111.331 90.3433 112.055C88.5588 114.115 86.9214 116.298 85.4435 118.588C83.2426 121.985 81.5248 125.672 80.3395 129.543C78.9475 133.9 78.1123 138.86 77.2678 144.038C75.5742 154.409 73.5001 163.698 71.9968 170.417C71.2405 173.762 70.6048 176.472 70.1965 178.374C69.9923 179.302 69.8299 180.022 69.7325 180.537C69.6814 180.773 69.6443 180.959 69.6118 181.103C69.5962 181.167 69.5868 181.232 69.584 181.298C69.6109 181.236 69.6311 181.173 69.6443 181.107C69.6814 180.968 69.7325 180.782 69.7928 180.55C69.9227 180.04 70.099 179.321 70.331 178.402C70.795 176.509 71.4307 173.804 72.2288 170.468C73.7878 163.763 75.899 154.474 77.5926 144.089C78.4417 138.911 79.2816 133.97 80.6318 129.627C81.8052 125.776 83.4973 122.103 85.6616 118.709C87.1171 116.416 88.7213 114.221 90.464 112.138C91.0765 111.396 91.5637 110.83 91.8977 110.445C92.0509 110.264 92.1761 110.12 92.2689 110.004C92.3042 109.956 92.3352 109.904 92.3617 109.851Z" fill="#263238"/>
<path d="M45.3945 152.191C45.4901 152.225 45.5903 152.243 45.6915 152.247L46.5545 152.34L47.1763 152.405L47.9094 152.511C48.4384 152.59 49.0416 152.669 49.6958 152.813L50.7305 153.022L51.8349 153.3C52.6051 153.472 53.3985 153.764 54.2477 154.01C56.0632 154.639 57.8244 155.415 59.5141 156.33C61.1917 157.269 62.7737 158.369 64.2376 159.615C64.8715 160.162 65.4756 160.743 66.0472 161.355C66.5578 161.878 67.0366 162.431 67.4809 163.012C67.8613 163.479 68.216 163.967 68.5435 164.473C68.8093 164.85 69.0526 165.242 69.272 165.647L69.7128 166.394C69.7588 166.485 69.8165 166.569 69.8844 166.645C69.8601 166.545 69.821 166.45 69.7684 166.362L69.3787 165.587C69.1795 165.173 68.95 164.774 68.692 164.394C68.3775 163.874 68.0335 163.372 67.6619 162.891C67.2223 162.298 66.7482 161.73 66.2421 161.193C65.6707 160.567 65.065 159.974 64.4278 159.416C62.9594 158.143 61.3641 157.025 59.6672 156.079C57.9612 155.155 56.1791 154.379 54.3405 153.759C53.4821 153.509 52.6793 153.235 51.8998 153.073L50.7816 152.808L49.7376 152.623C49.0741 152.488 48.4662 152.428 47.9326 152.363L47.1902 152.279L46.5638 152.247L45.6961 152.191C45.596 152.178 45.4946 152.178 45.3945 152.191Z" fill="#263238"/>
<path d="M43.0293 110.045C43.2055 110.258 43.4029 110.453 43.6186 110.625L45.3307 112.11C46.7877 113.354 48.8107 115.052 51.0565 116.917C53.3023 118.783 55.3531 120.458 56.8426 121.655L58.6197 123.047C58.8282 123.225 59.0553 123.381 59.2971 123.511C59.1181 123.297 58.9175 123.103 58.6986 122.931L56.9864 121.446C55.5295 120.202 53.5064 118.504 51.2607 116.639C49.0149 114.774 46.9687 113.103 45.4792 111.906L43.7021 110.514C43.4922 110.338 43.2671 110.181 43.0293 110.045Z" fill="#263238"/>
<path d="M40.9434 121.052C40.9434 121.136 45.2864 122.5 50.6874 124.101C56.0883 125.702 60.5102 126.927 60.5334 126.843C60.5566 126.759 56.1904 125.391 50.7894 123.795C45.3885 122.198 40.9712 120.969 40.9434 121.052Z" fill="#263238"/>
<path d="M57.0977 116.672C57.2727 116.479 57.4282 116.269 57.5617 116.045L58.7124 114.291C59.6868 112.811 61.0741 110.797 62.7167 108.649C64.3592 106.501 65.9368 104.636 67.1015 103.304C67.649 102.673 68.113 102.144 68.4935 101.726C68.6669 101.54 68.8223 101.338 68.9575 101.123C68.7447 101.27 68.5513 101.443 68.3821 101.638C68.0295 101.986 67.5283 102.501 66.9205 103.151C65.7141 104.45 64.0994 106.306 62.4522 108.459C60.805 110.612 59.4455 112.658 58.5128 114.166C58.0489 114.922 57.6823 115.558 57.4457 115.98C57.3028 116.196 57.186 116.428 57.0977 116.672Z" fill="#263238"/>
<path d="M72.3027 122.777C72.6075 123.361 72.95 123.923 73.3282 124.462C73.9824 125.487 74.8687 126.912 75.7827 128.522C76.6968 130.132 77.4717 131.626 78.0239 132.698C78.2943 133.298 78.6043 133.879 78.9519 134.438C78.771 133.797 78.5286 133.175 78.228 132.582C77.7315 131.468 76.9845 129.955 76.0658 128.331C75.1471 126.707 74.2098 125.301 73.5231 124.304C73.166 123.757 72.7574 123.246 72.3027 122.777Z" fill="#263238"/>
<path d="M77.5059 141.811C77.5291 141.853 78.3596 141.445 79.7238 140.832C81.0879 140.22 82.9718 139.44 85.1433 138.661C87.3149 137.881 89.2869 137.348 90.7345 136.981C92.1822 136.615 93.087 136.406 93.0545 136.359C92.8359 136.354 92.6175 136.377 92.4049 136.429C91.9873 136.489 91.3934 136.601 90.6603 136.758C88.7469 137.177 86.861 137.714 85.0134 138.364C83.166 139.009 81.3593 139.765 79.6031 140.628C78.9303 140.962 78.3967 141.245 78.0302 141.459C77.8421 141.555 77.666 141.674 77.5059 141.811Z" fill="#263238"/>
<path d="M73.3711 164.566C73.4565 164.607 73.547 164.637 73.6402 164.654L74.429 164.853L77.3337 165.526C80.5359 166.198 83.7014 167.035 86.8178 168.032C89.9216 169.074 92.8928 170.475 95.6709 172.208C96.7288 172.881 97.5548 173.474 98.1116 173.906C98.3906 174.14 98.6834 174.357 98.9885 174.556C98.9885 174.556 98.9282 174.477 98.7936 174.347C98.6591 174.217 98.4596 174.031 98.1858 173.809C97.4234 173.165 96.6239 172.567 95.7916 172.018C93.0291 170.224 90.0494 168.79 86.9245 167.749C83.7969 166.742 80.6091 165.933 77.3801 165.327L74.4522 164.719C74.0961 164.641 73.7348 164.59 73.3711 164.566Z" fill="#263238"/>
<path d="M58.6066 170.171C58.6901 170.171 59.2098 167.123 59.7666 163.332C60.3234 159.541 60.6946 156.455 60.611 156.441C60.5275 156.428 60.0078 159.495 59.451 163.285C58.8942 167.076 58.5184 170.162 58.6066 170.171Z" fill="#263238"/>
<path d="M43.2266 164.589C43.7261 164.071 44.1911 163.521 44.6186 162.942C45.4491 161.907 46.5998 160.483 47.9037 158.933C49.2075 157.383 50.4093 156.001 51.2862 155.003C51.7882 154.487 52.2533 153.937 52.6782 153.356C52.5073 153.459 52.3512 153.586 52.2142 153.732C51.9451 153.991 51.5693 154.372 51.1053 154.854C50.1773 155.815 48.9523 157.174 47.6438 158.729C46.3354 160.283 45.2125 161.731 44.4237 162.803C44.0293 163.341 43.7184 163.782 43.4957 164.088C43.3824 164.241 43.2918 164.41 43.2266 164.589Z" fill="#263238"/>
<path d="M83.8995 178.851V186.452H81.9971L75.2459 207.772H60.2633L53.7209 186.66L51.1875 186.452V178.851H83.8995Z" fill="#455A64"/>
<path d="M52.4863 186.661C52.4863 186.749 59.0983 186.823 67.2555 186.823C75.4126 186.823 82.0292 186.749 82.0292 186.661C82.0292 186.573 75.4172 186.503 67.2555 186.503C59.0937 186.503 52.4863 186.573 52.4863 186.661Z" fill="#263238"/>
<path d="M41.7285 137.78C42.0409 137.893 42.3622 137.98 42.689 138.039L45.3152 138.675C47.5332 139.223 50.577 140.067 53.876 141.162C57.1751 142.257 60.1076 143.45 62.228 144.354L64.7058 145.435C65.0048 145.585 65.3151 145.711 65.6338 145.811C65.3596 145.624 65.0692 145.46 64.7661 145.324C64.2 145.027 63.3741 144.623 62.3255 144.146C56.8952 141.668 51.2226 139.76 45.3988 138.452C44.2852 138.206 43.3757 138.025 42.7447 137.919C42.4104 137.844 42.0705 137.798 41.7285 137.78Z" fill="#263238"/>
<path d="M57.4512 198.503C57.4512 198.592 62.0912 198.661 67.8123 198.661C73.5334 198.661 78.1781 198.592 78.1781 198.503C78.1781 198.415 73.5381 198.346 67.8123 198.346C62.0865 198.346 57.4512 198.415 57.4512 198.503Z" fill="#FAFAFA"/>
<path d="M56.8613 196.735C56.8613 196.823 61.7797 196.893 67.8442 196.893C73.9087 196.893 78.8317 196.823 78.8317 196.735C78.8317 196.647 73.9133 196.577 67.8442 196.577C61.7751 196.577 56.8613 196.652 56.8613 196.735Z" fill="#FAFAFA"/>
<path d="M295.18 149.301L264.245 114.547C263.026 113.179 261.535 112.082 259.866 111.326C258.197 110.569 256.388 110.172 254.556 110.158L152.713 109.42C150.983 109.407 149.267 109.738 147.665 110.392C146.063 111.046 144.606 112.012 143.38 113.232C142.153 114.453 141.18 115.905 140.518 117.503C139.856 119.102 139.517 120.816 139.522 122.547L139.693 194.662C139.697 196.384 140.04 198.088 140.703 199.677C141.366 201.266 142.336 202.709 143.558 203.922C144.779 205.136 146.228 206.097 147.821 206.75C149.415 207.403 151.121 207.735 152.843 207.728L254.334 207.301C256.208 207.297 258.06 206.889 259.763 206.107C261.467 205.325 262.982 204.186 264.208 202.768L295.328 166.576C297.402 164.168 298.531 161.088 298.504 157.911C298.476 154.733 297.295 151.673 295.18 149.301ZM277.965 161.829C277.161 163.808 275.788 165.505 274.019 166.704C272.251 167.902 270.167 168.55 268.03 168.564C265.894 168.579 263.801 167.959 262.017 166.784C260.232 165.609 258.837 163.931 258.006 161.963C257.175 159.994 256.947 157.824 257.35 155.726C257.753 153.627 258.769 151.696 260.27 150.175C261.77 148.654 263.688 147.613 265.781 147.182C267.874 146.752 270.047 146.951 272.026 147.756C274.675 148.835 276.788 150.921 277.902 153.555C279.015 156.19 279.038 159.159 277.965 161.811V161.829Z" fill="#78B7FA"/>
<g opacity="0.4">
<path opacity="0.4" d="M295.18 149.301L264.245 114.547C263.026 113.179 261.535 112.082 259.866 111.326C258.197 110.569 256.388 110.172 254.556 110.158L152.713 109.42C150.983 109.407 149.267 109.738 147.665 110.392C146.063 111.046 144.606 112.012 143.38 113.232C142.153 114.453 141.18 115.905 140.518 117.503C139.856 119.102 139.517 120.816 139.522 122.547L139.693 194.662C139.697 196.384 140.04 198.088 140.703 199.677C141.366 201.266 142.336 202.709 143.558 203.922C144.779 205.136 146.228 206.097 147.821 206.75C149.415 207.403 151.121 207.735 152.843 207.728L254.334 207.301C256.208 207.297 258.06 206.889 259.763 206.107C261.467 205.325 262.982 204.186 264.208 202.768L295.328 166.576C297.402 164.168 298.531 161.088 298.504 157.911C298.476 154.733 297.295 151.673 295.18 149.301ZM277.965 161.829C277.161 163.808 275.788 165.505 274.019 166.704C272.251 167.902 270.167 168.55 268.03 168.564C265.894 168.579 263.801 167.959 262.017 166.784C260.232 165.609 258.837 163.931 258.006 161.963C257.175 159.994 256.947 157.824 257.35 155.726C257.753 153.627 258.769 151.696 260.27 150.175C261.77 148.654 263.688 147.613 265.781 147.182C267.874 146.752 270.047 146.951 272.026 147.756C274.675 148.835 276.788 150.921 277.902 153.555C279.015 156.19 279.038 159.159 277.965 161.811V161.829Z" fill="black"/>
</g>
<path d="M300.514 149.304L269.565 114.55C268.346 113.182 266.855 112.085 265.186 111.329C263.517 110.573 261.709 110.175 259.877 110.161L158.033 109.423C156.303 109.409 154.587 109.739 152.984 110.393C151.382 111.047 149.925 112.013 148.698 113.233C147.472 114.454 146.499 115.906 145.837 117.505C145.175 119.104 144.837 120.819 144.842 122.549L145.009 194.664C145.013 196.39 145.358 198.098 146.025 199.689C146.691 201.281 147.665 202.726 148.891 203.94C150.118 205.154 151.572 206.114 153.17 206.765C154.768 207.415 156.479 207.743 158.205 207.73L259.691 207.304C261.565 207.298 263.417 206.891 265.12 206.109C266.824 205.327 268.339 204.188 269.565 202.77L300.681 166.578C302.754 164.169 303.88 161.088 303.849 157.909C303.818 154.731 302.633 151.673 300.514 149.304ZM283.304 161.832C282.5 163.811 281.127 165.507 279.358 166.706C277.59 167.905 275.506 168.552 273.369 168.567C271.233 168.581 269.14 167.961 267.356 166.786C265.571 165.611 264.176 163.933 263.345 161.965C262.514 159.997 262.286 157.826 262.689 155.728C263.092 153.63 264.108 151.698 265.608 150.178C267.109 148.657 269.027 147.615 271.12 147.185C273.212 146.754 275.386 146.954 277.365 147.758C280.014 148.837 282.127 150.923 283.24 153.558C284.354 156.193 284.377 159.161 283.304 161.813V161.832Z" fill="#78B7FA"/>
<path d="M178.765 146.885C178.844 138.143 184.231 132.635 191.785 132.71C199.338 132.784 204.549 138.31 204.47 147.122C204.391 155.933 199.069 161.371 191.52 161.301C183.971 161.232 178.681 155.627 178.765 146.885ZM197.06 147.057C197.111 141.489 194.991 138.811 191.729 138.783C188.546 138.751 186.295 141.47 186.244 146.955C186.193 152.439 188.393 155.195 191.576 155.228C194.838 155.255 197.009 152.611 197.06 147.057ZM222.668 133.601L231.484 133.684L195.594 185.188L186.778 185.105L222.668 133.601ZM213.797 171.681C213.88 162.939 219.263 157.432 226.747 157.501C234.301 157.575 239.581 163.181 239.502 171.918C239.424 180.655 234.036 186.144 226.478 186.065C219.021 186.005 213.718 180.4 213.797 171.681ZM232.018 171.848C232.069 166.368 229.949 163.607 226.687 163.58C223.504 163.547 221.258 166.192 221.207 171.751C221.156 177.309 223.351 179.991 226.534 180.024C229.795 180.033 231.967 177.309 232.013 171.825L232.018 171.848Z" fill="white"/>
<path d="M297.147 170.753C297.516 170.95 297.858 171.195 298.163 171.481C298.798 171.987 299.726 172.748 300.9 173.755C302.074 174.762 303.503 176.005 305.109 177.504C306.714 179.003 308.515 180.752 310.375 182.826C312.421 185.074 314.272 187.491 315.911 190.051L316.57 191.104L317.191 192.204C317.626 192.955 318.019 193.73 318.37 194.524C319.15 196.207 319.601 198.025 319.697 199.878C319.727 200.869 319.582 201.856 319.27 202.797C318.944 203.769 318.423 204.664 317.739 205.428C316.335 206.975 314.477 208.038 312.431 208.462C310.356 208.873 308.216 208.822 306.162 208.314C304.1 207.815 302.102 207.078 300.209 206.119C296.489 204.222 293.115 201.712 290.228 198.695C288.852 197.282 287.564 195.785 286.373 194.213C285.209 192.688 284.102 191.171 283.05 189.661C278.874 183.629 275.626 177.829 273.585 172.641C273.074 171.347 272.633 170.103 272.253 168.906C272.067 168.308 271.891 167.723 271.747 167.143C271.589 166.582 271.476 166.01 271.409 165.431C271.247 164.333 271.522 163.215 272.174 162.317C272.736 161.597 273.503 161.063 274.373 160.786C274.733 160.667 275.103 160.582 275.478 160.531C275.808 160.496 276.14 160.488 276.471 160.508C276.99 160.533 277.501 160.644 277.983 160.837C278.277 160.96 278.549 161.127 278.791 161.334C278.949 161.478 279.018 161.556 279.004 161.575C278.99 161.594 278.893 161.543 278.717 161.436C278.461 161.28 278.186 161.157 277.9 161.069C277.434 160.928 276.949 160.859 276.461 160.865C276.151 160.868 275.841 160.893 275.533 160.939C275.19 161.006 274.853 161.102 274.527 161.227C273.768 161.506 273.109 162.003 272.633 162.656C272.103 163.446 271.903 164.412 272.077 165.347C272.153 165.893 272.274 166.431 272.439 166.957C272.592 167.514 272.782 168.08 272.977 168.665C273.382 169.834 273.846 171.053 274.369 172.321C276.471 177.379 279.756 183.091 283.95 189.025C285.002 190.51 286.111 192.006 287.277 193.512C288.451 195.042 289.717 196.498 291.068 197.874C293.872 200.787 297.139 203.214 300.738 205.056C302.553 205.975 304.468 206.682 306.445 207.163C308.328 207.635 310.292 207.69 312.199 207.325C314.002 206.958 315.645 206.033 316.894 204.681C318.053 203.371 318.664 201.667 318.602 199.92C318.514 198.201 318.098 196.514 317.377 194.951C317.048 194.183 316.677 193.433 316.268 192.705L315.688 191.633L315.057 190.584C313.479 188.047 311.696 185.643 309.726 183.397C307.935 181.318 306.195 179.536 304.622 177.996C303.049 176.456 301.689 175.166 300.562 174.112L298 171.681C297.679 171.408 297.392 171.096 297.147 170.753Z" fill="#263238"/>
<path d="M248.799 98.7357C248.734 98.7357 247.435 89.6645 245.895 78.4543C244.354 67.244 243.162 58.1497 243.231 58.1404C243.301 58.1311 244.596 67.2116 246.136 78.4218C247.677 89.632 248.869 98.7264 248.799 98.7357Z" fill="#263238"/>
<path d="M287.097 49.073C287.089 49.121 287.075 49.1677 287.055 49.2122L286.906 49.6159L286.317 51.161L284.108 56.8311C282.252 61.6196 279.71 68.2455 277.009 75.6091C274.309 82.9728 271.966 89.6683 270.295 94.5264C269.465 96.9439 268.792 98.9066 268.323 100.285C268.091 100.948 267.91 101.473 267.78 101.848C267.72 102.015 267.669 102.145 267.632 102.252C267.618 102.299 267.599 102.344 267.576 102.387C267.58 102.337 267.591 102.289 267.609 102.243L267.734 101.83C267.85 101.454 268.017 100.902 268.23 100.252C268.667 98.8834 269.316 96.9067 270.133 94.4707C271.766 89.5987 274.086 82.8708 276.787 75.5256C279.487 68.1805 282.044 61.5407 283.946 56.7661C284.874 54.3812 285.681 52.4509 286.234 51.1239L286.869 49.5973C286.939 49.4349 286.999 49.305 287.041 49.2029L287.097 49.073Z" fill="#263238"/>
<path d="M314.469 84.7817C314.511 84.8327 307.871 90.0342 299.621 96.3817C291.371 102.729 284.681 107.861 284.639 107.805C284.597 107.75 291.242 102.553 299.487 96.2054C307.732 89.8579 314.432 84.726 314.469 84.7817Z" fill="#263238"/>
<path d="M232.741 100.43C232.685 100.472 230.119 97.1817 227.006 93.1171C223.892 89.0525 221.405 85.6931 221.438 85.6606C221.47 85.6282 224.059 88.9086 227.173 92.9733C230.286 97.0379 232.792 100.388 232.741 100.43Z" fill="#263238"/>
<path d="M311.34 126.004C311.34 126.069 307.253 124.937 302.251 123.48C297.249 122.023 293.212 120.789 293.231 120.724C293.249 120.659 297.318 121.791 302.32 123.248C307.322 124.705 311.364 125.939 311.34 126.004Z" fill="#263238"/>
<path d="M252.883 125.854L255.899 124.119L257.5 121.029L259.24 124.045L262.33 125.65L259.314 127.386L257.708 130.476L255.973 127.46L252.883 125.854Z" fill="white"/>
<path d="M236.57 121.068L237.628 120.46L238.19 119.379L238.798 120.432L239.879 120.993L238.821 121.601L238.259 122.682L237.651 121.629L236.57 121.068Z" fill="white"/>
<path d="M246.973 142.378L249.014 141.204L250.1 139.112L251.274 141.153L253.367 142.239L251.325 143.413L250.239 145.506L249.065 143.464L246.973 142.378Z" fill="white"/>
<path d="M332.609 207.775C332.609 207.84 261.037 207.896 172.77 207.896C84.5032 207.896 12.9219 207.84 12.9219 207.775C12.9219 207.71 84.4753 207.654 172.77 207.654C261.064 207.654 332.609 207.705 332.609 207.775Z" fill="#263238"/>
<path d="M106.15 199.545C106.15 199.545 86.797 204.909 85.9943 205.183C84.8297 205.591 85.0246 209.869 86.8434 209.823C87.7018 209.79 101.724 210.342 103.496 210.231C105.269 210.12 110.039 208.24 110.039 208.24L106.15 199.545Z" fill="#455A64"/>
<path d="M98.054 206.941C97.9565 206.941 97.8266 205.93 97.2002 204.862C96.5738 203.795 95.771 203.155 95.8313 203.081C95.8917 203.006 96.829 203.545 97.4832 204.7C98.1375 205.855 98.1375 206.941 98.054 206.941Z" fill="#263238"/>
<path d="M100.099 206.016C100.002 206.016 99.8069 205.115 99.2919 204.104C98.7768 203.092 98.1644 202.382 98.234 202.318C98.3035 202.253 99.0459 202.888 99.5795 203.96C100.113 205.032 100.183 206.016 100.099 206.016Z" fill="#263238"/>
<path d="M101.964 205.519C101.867 205.519 101.941 204.544 101.5 203.468C101.06 202.391 100.373 201.728 100.442 201.658C100.512 201.589 101.37 202.183 101.802 203.352C102.233 204.521 102.043 205.551 101.964 205.519Z" fill="#263238"/>
<path d="M101.638 203.013C101.469 202.553 101.397 202.063 101.429 201.574C101.437 201.038 101.507 200.504 101.638 199.983C101.711 199.676 101.807 199.375 101.926 199.083C101.986 198.903 102.093 198.743 102.237 198.619C102.333 198.545 102.453 198.508 102.574 198.514C102.696 198.52 102.811 198.568 102.9 198.651C103.049 198.797 103.142 198.991 103.16 199.199C103.171 199.369 103.171 199.539 103.16 199.709C103.155 200.022 103.114 200.333 103.039 200.637C102.91 201.156 102.71 201.654 102.445 202.117C102.23 202.556 101.934 202.951 101.573 203.282C101.531 203.254 101.856 202.818 102.241 202.011C102.468 201.554 102.638 201.071 102.747 200.572C102.811 200.281 102.843 199.984 102.844 199.686C102.844 199.389 102.844 199.018 102.664 198.874C102.632 198.838 102.588 198.816 102.541 198.811C102.493 198.807 102.446 198.821 102.408 198.851C102.31 198.944 102.236 199.06 102.195 199.19C102.078 199.467 101.981 199.752 101.903 200.043C101.766 200.538 101.681 201.044 101.647 201.556C101.606 202.456 101.694 203.008 101.638 203.013Z" fill="#263238"/>
<path d="M101.658 202.817C102.054 202.652 102.483 202.582 102.911 202.613C103.38 202.612 103.848 202.669 104.303 202.785C104.58 202.843 104.848 202.941 105.096 203.077C105.256 203.156 105.384 203.285 105.463 203.444C105.542 203.604 105.566 203.784 105.533 203.959C105.488 204.126 105.4 204.278 105.276 204.4C105.153 204.521 105 204.608 104.832 204.65C104.547 204.722 104.249 204.722 103.964 204.65C103.1 204.396 102.342 203.866 101.807 203.142C102.166 203.351 102.51 203.585 102.837 203.843C103.197 204.088 103.6 204.263 104.025 204.358C104.261 204.416 104.508 204.416 104.744 204.358C104.855 204.327 104.956 204.269 105.037 204.187C105.118 204.106 105.177 204.005 105.208 203.894C105.227 203.785 105.208 203.673 105.156 203.575C105.104 203.478 105.021 203.4 104.92 203.356C104.698 203.233 104.461 203.141 104.215 203.082C103.789 202.961 103.352 202.884 102.911 202.854C102.141 202.79 101.667 202.868 101.658 202.817Z" fill="#263238"/>
<path d="M95.0954 207.149C94.9979 207.149 95.0954 206.309 94.7102 205.404C94.3251 204.499 93.7033 203.961 93.7822 203.887C93.8611 203.813 94.6221 204.267 95.0304 205.279C95.4387 206.29 95.1742 207.186 95.0954 207.149Z" fill="#263238"/>
<path d="M108.584 208.044C108.344 208.184 108.093 208.302 107.832 208.396C107.128 208.667 106.408 208.89 105.674 209.065C103.247 209.598 100.763 209.833 98.2781 209.765C95.3735 209.733 92.7565 209.603 90.8541 209.524L88.6084 209.408C88.3324 209.406 88.0572 209.377 87.7871 209.32C88.0656 209.269 88.3489 209.251 88.6316 209.264H90.882L98.306 209.408C100.769 209.471 103.231 209.27 105.651 208.809C107.498 208.461 108.584 207.983 108.584 208.044Z" fill="#263238"/>
<path d="M109.171 208.485C108.676 208.29 108.191 208.07 107.719 207.826C106.577 207.286 105.308 207.076 104.053 207.218C102.591 207.441 101.557 208.424 100.884 209.102C100.54 209.509 100.166 209.891 99.7656 210.243C100.024 209.771 100.344 209.336 100.717 208.949C101.097 208.5 101.529 208.096 102.002 207.747C102.591 207.308 103.277 207.017 104.002 206.898C105.318 206.739 106.65 206.992 107.816 207.622C108.31 207.836 108.767 208.128 109.171 208.485Z" fill="#263238"/>
<path d="M89.7374 209.324C89.8178 209.074 89.9123 208.829 90.0204 208.59C90.2238 208.006 90.2717 207.379 90.1594 206.77C90.0471 206.162 89.7786 205.593 89.3801 205.12C89.0738 204.749 88.8279 204.572 88.8511 204.535C88.8743 204.498 89.1574 204.637 89.5146 204.999C89.9834 205.471 90.2989 206.073 90.4197 206.727C90.5406 207.381 90.4613 208.057 90.1921 208.665C89.9833 209.119 89.7606 209.342 89.7374 209.324Z" fill="#263238"/>
<path d="M126.363 200.124C126.363 200.124 146.24 203.144 147.043 203.325C148.254 203.594 148.565 207.863 146.755 208.012C145.897 208.081 132.037 210.299 130.265 210.401C128.492 210.503 122.934 209.046 122.934 209.046L126.363 200.124Z" fill="#455A64"/>
<path d="M135.228 206.502C135.326 206.502 135.335 205.472 135.827 204.335C136.319 203.198 137.047 202.479 136.978 202.4C136.908 202.321 136.05 202.99 135.53 204.21C135.01 205.43 135.15 206.521 135.228 206.502Z" fill="#263238"/>
<path d="M133.12 205.833C133.218 205.833 133.301 204.905 133.696 203.838C134.09 202.771 134.624 201.982 134.531 201.94C134.438 201.899 133.793 202.599 133.39 203.727C132.986 204.854 133.037 205.838 133.12 205.833Z" fill="#263238"/>
<path d="M131.166 205.551C131.259 205.551 131.074 204.581 131.371 203.463C131.667 202.345 132.299 201.607 132.206 201.537C132.113 201.468 131.366 202.168 131.06 203.393C130.753 204.618 131.092 205.593 131.166 205.551Z" fill="#263238"/>
<path d="M131.231 203.027C131.35 202.551 131.362 202.056 131.268 201.575C131.202 201.046 131.073 200.527 130.883 200.029C130.773 199.732 130.642 199.444 130.489 199.166C130.409 198.993 130.284 198.844 130.127 198.735C130.022 198.673 129.898 198.65 129.777 198.671C129.657 198.691 129.547 198.753 129.468 198.846C129.338 199.009 129.27 199.213 129.278 199.422C129.278 199.592 129.291 199.763 129.315 199.932C129.357 200.249 129.434 200.561 129.547 200.86C129.737 201.357 129.995 201.825 130.313 202.252C130.579 202.663 130.919 203.021 131.315 203.31C131.357 203.273 130.981 202.846 130.503 202.127C130.222 201.692 129.994 201.224 129.825 200.735C129.73 200.453 129.665 200.162 129.631 199.867C129.603 199.57 129.556 199.203 129.709 199.041C129.737 199.002 129.778 198.975 129.825 198.966C129.871 198.956 129.92 198.965 129.96 198.99C130.07 199.07 130.158 199.177 130.215 199.301C130.364 199.562 130.494 199.834 130.605 200.113C130.798 200.588 130.944 201.08 131.041 201.584C131.199 202.475 131.18 203.027 131.231 203.027Z" fill="#263238"/>
<path d="M131.182 202.836C130.776 202.716 130.347 202.692 129.93 202.767C129.469 202.822 129.018 202.933 128.584 203.096C128.317 203.189 128.064 203.319 127.832 203.481C127.684 203.579 127.571 203.723 127.512 203.89C127.452 204.058 127.449 204.24 127.503 204.409C127.568 204.571 127.674 204.712 127.811 204.818C127.948 204.925 128.11 204.994 128.282 205.017C128.574 205.052 128.871 205.016 129.145 204.911C129.972 204.553 130.66 203.938 131.108 203.157C130.78 203.407 130.47 203.68 130.18 203.973C129.852 204.261 129.473 204.483 129.062 204.628C128.833 204.708 128.588 204.733 128.347 204.702C128.233 204.686 128.125 204.641 128.033 204.571C127.941 204.501 127.869 204.409 127.823 204.303C127.792 204.196 127.797 204.081 127.838 203.978C127.878 203.874 127.951 203.786 128.046 203.727C128.251 203.583 128.474 203.464 128.709 203.375C129.118 203.203 129.544 203.075 129.981 202.994C130.7 202.869 131.182 202.888 131.182 202.836Z" fill="#263238"/>
<path d="M138.197 206.353C138.294 206.33 138.099 205.522 138.369 204.571C138.638 203.62 139.204 203.021 139.134 202.956C139.065 202.891 138.341 203.42 138.058 204.487C137.775 205.555 138.127 206.399 138.197 206.353Z" fill="#263238"/>
<path d="M124.904 208.848C125.158 208.961 125.422 209.049 125.693 209.108C126.422 209.295 127.163 209.431 127.911 209.516C130.384 209.758 132.877 209.697 135.335 209.335C138.216 208.955 140.796 208.514 142.671 208.212L144.889 207.827C145.162 207.795 145.431 207.732 145.691 207.642C145.416 207.633 145.141 207.653 144.87 207.702L142.638 207.985L135.293 209.011C132.856 209.365 130.387 209.459 127.93 209.289C126.05 209.131 124.918 208.797 124.904 208.848Z" fill="#263238"/>
<path d="M124.391 209.357C124.423 209.399 124.91 209.027 125.755 208.531C126.823 207.856 128.059 207.496 129.323 207.492C130.798 207.538 131.94 208.392 132.692 208.986C133.083 209.347 133.499 209.682 133.935 209.988C133.626 209.548 133.257 209.153 132.84 208.814C132.409 208.412 131.932 208.062 131.42 207.77C130.782 207.406 130.066 207.2 129.332 207.167C128.004 207.163 126.707 207.571 125.62 208.336C125.16 208.61 124.745 208.954 124.391 209.357Z" fill="#263238"/>
<path d="M188.158 118.453C188.035 118.202 187.83 118.001 187.578 117.882L188.042 116.954C188.01 116.622 187.917 116.298 187.768 115.999C187.536 115.6 186.724 115.632 186.724 115.632L186.849 115.368C186.934 115.18 186.969 114.974 186.951 114.77C186.933 114.565 186.863 114.368 186.747 114.198C186.71 114.147 186.673 114.096 186.626 114.041C186.345 113.767 185.987 113.586 185.601 113.521C185.601 113.521 186.065 112.63 185.856 112.254C185.639 111.945 185.336 111.706 184.985 111.568C184.633 111.429 184.249 111.397 183.879 111.475C182.642 111.961 181.44 112.535 180.283 113.191C180.175 113.25 180.056 113.285 179.933 113.293C179.811 113.301 179.688 113.282 179.573 113.238C179.458 113.194 179.355 113.125 179.269 113.037C179.183 112.949 179.118 112.843 179.077 112.727C178.664 111.542 178.071 110.428 177.318 109.424C176.446 108.375 175.63 108.459 175.152 108.644C175.098 108.665 175.05 108.697 175.01 108.739C174.97 108.78 174.94 108.83 174.922 108.884C174.903 108.939 174.896 108.996 174.903 109.053C174.909 109.111 174.927 109.166 174.957 109.215C175.425 109.961 175.847 110.736 176.219 111.535C176.446 112.143 176.683 116.718 176.683 116.718L175.43 119.103L162.795 139.059C162.795 139.059 143.702 126.193 143.771 125.873L142.871 140.628L157.255 150.186C158.487 151.004 159.884 151.543 161.346 151.764C162.809 151.985 164.302 151.883 165.721 151.466C167.14 151.048 168.45 150.325 169.56 149.348C170.67 148.37 171.552 147.161 172.145 145.806L181.829 124.787L183.002 123.07L187.564 120.147C187.564 120.147 188.32 118.838 188.158 118.453Z" fill="#FFBE9D"/>
<path d="M186.082 113.526C186.082 113.526 186.055 113.558 185.994 113.609L185.72 113.832C185.465 114.027 185.117 114.296 184.7 114.625L183.173 115.785C182.885 115.999 182.598 116.249 182.245 116.454C182.071 116.575 181.87 116.653 181.659 116.681C181.449 116.709 181.234 116.687 181.034 116.616C180.828 116.523 180.663 116.358 180.57 116.152C180.487 115.961 180.451 115.752 180.463 115.544C180.498 115.156 180.661 114.79 180.927 114.505C181.162 114.253 181.417 114.02 181.688 113.809L182.375 113.238L183.377 112.417L183.651 112.199C183.716 112.152 183.748 112.125 183.753 112.129L183.665 112.217L183.405 112.454L182.431 113.298L181.753 113.878C181.488 114.091 181.24 114.323 181.011 114.574C180.75 114.837 180.586 115.181 180.547 115.549C180.523 115.739 180.556 115.933 180.643 116.104C180.73 116.275 180.866 116.416 181.034 116.509C181.215 116.583 181.413 116.603 181.605 116.565C181.795 116.528 181.978 116.457 182.143 116.356C182.468 116.157 182.765 115.892 183.071 115.702L184.607 114.556L185.651 113.795L185.939 113.591L186.082 113.526Z" fill="#EB996E"/>
<path d="M187.084 115.673C187.02 115.739 186.948 115.798 186.87 115.849C186.731 115.956 186.522 116.109 186.263 116.29C185.748 116.647 185.019 117.13 184.189 117.617C183.98 117.737 183.78 117.863 183.567 117.96C183.36 118.058 183.132 118.101 182.903 118.085C182.71 118.062 182.527 117.985 182.375 117.863C182.223 117.741 182.109 117.578 182.045 117.394C181.967 117.146 181.987 116.877 182.101 116.642C182.133 116.581 182.172 116.524 182.217 116.471C182.249 116.434 182.268 116.42 182.272 116.42C182.277 116.42 182.212 116.503 182.142 116.661C182.058 116.888 182.058 117.139 182.142 117.366C182.202 117.533 182.308 117.679 182.447 117.788C182.587 117.896 182.755 117.962 182.931 117.979C183.141 117.988 183.35 117.945 183.539 117.853C183.747 117.753 183.95 117.641 184.147 117.519C184.977 117.032 185.71 116.563 186.239 116.22L186.861 115.812C186.932 115.759 187.006 115.713 187.084 115.673Z" fill="#EB996E"/>
<path d="M187.655 117.771C187.587 117.82 187.513 117.862 187.437 117.896L186.819 118.207C186.295 118.467 185.567 118.815 184.764 119.195C184.568 119.293 184.367 119.38 184.161 119.455C183.961 119.529 183.744 119.547 183.534 119.506C183.437 119.488 183.345 119.449 183.265 119.391C183.185 119.333 183.118 119.258 183.07 119.172C182.993 119.02 182.967 118.848 182.996 118.68C183.047 118.445 183.176 118.234 183.363 118.082C183.488 117.975 183.571 117.933 183.576 117.942C183.581 117.952 183.506 118.003 183.39 118.114C183.229 118.271 183.121 118.473 183.08 118.694C183.057 118.842 183.083 118.994 183.154 119.126C183.197 119.198 183.256 119.261 183.325 119.309C183.395 119.357 183.474 119.389 183.558 119.404C183.748 119.438 183.944 119.419 184.124 119.348C184.325 119.274 184.522 119.187 184.713 119.088C185.52 118.713 186.249 118.374 186.782 118.133L187.418 117.859C187.492 117.818 187.572 117.788 187.655 117.771Z" fill="#EB996E"/>
<path d="M188.011 119.711C187.775 119.793 187.533 119.856 187.287 119.901C186.823 120.003 186.211 120.138 185.519 120.277L185.014 120.379C184.854 120.418 184.69 120.437 184.526 120.435C184.369 120.434 184.217 120.38 184.095 120.282C184.041 120.237 183.998 120.181 183.97 120.117C183.941 120.054 183.926 119.985 183.928 119.915C183.936 119.818 183.965 119.725 184.013 119.64C184.061 119.556 184.127 119.484 184.206 119.428C184.258 119.382 184.323 119.353 184.392 119.344C184.392 119.344 184.327 119.381 184.234 119.465C184.166 119.522 184.112 119.593 184.073 119.673C184.035 119.753 184.014 119.84 184.011 119.929C184.012 119.985 184.025 120.041 184.049 120.092C184.074 120.142 184.111 120.187 184.155 120.221C184.262 120.302 184.393 120.345 184.526 120.342C184.683 120.339 184.838 120.319 184.99 120.282L185.496 120.175C186.187 120.036 186.814 119.915 187.269 119.831C187.513 119.774 187.761 119.733 188.011 119.711Z" fill="#EB996E"/>
<path d="M183.038 118.782C182.61 118.697 182.175 118.653 181.739 118.652C181.306 118.693 180.878 118.778 180.463 118.907C180.843 118.666 181.284 118.537 181.734 118.536C182.183 118.496 182.635 118.581 183.038 118.782Z" fill="#EB996E"/>
<path d="M114.857 114.412C114.857 114.412 108.435 108.997 109.92 105.266C111.405 101.536 115.53 99.6984 117.558 92.9008C119.177 87.4813 128.823 77.0227 140.256 84.9107C140.256 84.9107 144.126 84.3028 146.326 86.066C148.525 87.8293 149.059 91.3464 149.991 95.4064C151.43 101.666 152.218 106.477 149.434 109.54C146.65 112.602 145.63 113.424 145.778 116.904C145.973 121.446 147.977 120.838 146.242 124.151L136.656 121.024L136.554 118.384L135.584 120.866L130.016 118.862L114.857 114.412Z" fill="#263238"/>
<path d="M146.801 91.5732C146.179 93.0024 146.689 94.6542 147.265 96.1019C147.84 97.5496 148.541 99.0761 148.244 100.607C147.715 103.322 144.342 104.834 143.97 107.567C143.771 109.034 144.504 110.528 144.221 111.985C143.938 113.442 142.769 114.453 141.52 115.158C140.272 115.864 138.894 116.337 137.72 117.163C137.72 117.163 135.14 119.279 130.695 115.794" fill="#263238"/>
<path d="M128.621 88.0239C128.045 87.8904 127.439 87.9778 126.924 88.269C126.408 88.5602 126.021 89.034 125.837 89.5969L116.627 120.174C115.435 123.752 119.935 127.571 123.773 128.814C127.652 130.072 128.436 128.23 129.665 124.861C131.726 119.237 132.449 117.112 132.449 117.145C132.449 117.177 137.591 118.026 140.801 112.041C142.398 109.057 144.049 103.828 145.242 99.5125C146.328 95.6242 145.427 90.0748 141.497 89.1607L128.621 88.0239Z" fill="#FFBE9D"/>
<path d="M141.962 102.707C141.89 102.92 141.738 103.097 141.538 103.2C141.337 103.302 141.105 103.322 140.89 103.254C140.783 103.226 140.684 103.177 140.597 103.11C140.509 103.044 140.436 102.96 140.382 102.864C140.327 102.769 140.293 102.663 140.279 102.554C140.266 102.445 140.275 102.334 140.305 102.229C140.377 102.016 140.53 101.84 140.73 101.737C140.93 101.635 141.162 101.615 141.377 101.681C141.483 101.709 141.583 101.758 141.67 101.825C141.757 101.892 141.83 101.976 141.885 102.071C141.939 102.167 141.974 102.272 141.987 102.381C142.001 102.49 141.992 102.601 141.962 102.707Z" fill="#263238"/>
<path d="M143.236 101.615C143.101 101.684 142.642 101.016 141.765 100.714C140.888 100.413 140.095 100.626 140.039 100.487C140.007 100.422 140.178 100.264 140.503 100.158C140.973 100.028 141.472 100.046 141.932 100.209C142.389 100.367 142.783 100.666 143.06 101.062C143.278 101.341 143.306 101.568 143.236 101.615Z" fill="#263238"/>
<path d="M133.287 99.932C133.216 100.145 133.064 100.321 132.865 100.424C132.666 100.527 132.435 100.549 132.22 100.484C132.113 100.456 132.014 100.407 131.927 100.34C131.839 100.273 131.766 100.19 131.712 100.094C131.657 99.9988 131.623 99.8934 131.609 99.7842C131.596 99.6751 131.605 99.5644 131.635 99.4587C131.706 99.246 131.858 99.0695 132.057 98.9664C132.256 98.8633 132.488 98.8419 132.702 98.9065C132.809 98.9344 132.908 98.9833 132.996 99.0502C133.083 99.1172 133.156 99.2008 133.21 99.2963C133.265 99.3918 133.3 99.4973 133.313 99.6064C133.326 99.7156 133.317 99.8262 133.287 99.932Z" fill="#263238"/>
<path d="M134.495 98.974C134.355 99.0483 133.896 98.3755 133.019 98.0739C132.142 97.7723 131.349 97.9857 131.293 97.8465C131.26 97.7816 131.432 97.6285 131.78 97.5217C132.25 97.3894 132.75 97.4073 133.209 97.5728C133.666 97.7282 134.061 98.0257 134.337 98.4219C134.532 98.7189 134.56 98.9462 134.495 98.974Z" fill="#263238"/>
<path d="M135.424 106.574C135.936 106.588 136.444 106.668 136.936 106.811C137.168 106.866 137.4 106.894 137.484 106.755C137.581 106.53 137.609 106.281 137.563 106.04C137.563 105.428 137.521 104.783 137.498 104.11C137.419 101.363 137.447 99.1406 137.558 99.136C137.67 99.1314 137.823 101.359 137.897 104.101C137.897 104.774 137.92 105.419 137.934 106.036C137.984 106.358 137.917 106.687 137.744 106.964C137.687 107.03 137.615 107.082 137.535 107.117C137.454 107.151 137.367 107.167 137.28 107.163C137.145 107.155 137.013 107.128 136.885 107.084C136.378 106.977 135.887 106.806 135.424 106.574Z" fill="#263238"/>
<path d="M132.414 117.144C129.41 116.153 126.742 114.346 124.707 111.924C124.707 111.924 125.333 117.028 131.89 118.648L132.414 117.144Z" fill="#EB996E"/>
<path d="M135.166 96.4692C135.032 96.7012 134.145 96.4089 133.05 96.3346C131.955 96.2604 131.041 96.3857 130.939 96.1398C130.897 96.0191 131.092 95.815 131.487 95.6433C132.005 95.4305 132.567 95.3462 133.125 95.3974C133.684 95.4344 134.227 95.6046 134.707 95.8938C135.069 96.1258 135.231 96.3578 135.166 96.4692Z" fill="#263238"/>
<path d="M144.469 98.6924C144.227 98.8409 143.541 98.4233 142.664 98.1635C141.787 97.9036 140.989 97.8387 140.873 97.5788C140.826 97.4536 141.002 97.2819 141.383 97.1844C141.903 97.0817 142.44 97.1098 142.946 97.2661C143.452 97.4224 143.912 97.7021 144.283 98.08C144.538 98.3676 144.58 98.6135 144.469 98.6924Z" fill="#263238"/>
<path d="M117.854 108.11C119.58 102.329 121.307 96.5442 123.036 90.7566C123.389 89.5687 123.797 88.302 124.786 87.555C125.774 86.8079 126.971 86.7662 128.14 86.743C133.193 86.6379 138.24 87.1364 143.174 88.2278C143.406 89.4017 142.39 90.5199 141.248 90.905C140.107 91.2902 138.873 91.151 137.676 91.1649C136.478 91.1788 135.165 91.3923 134.353 92.2785C133.541 93.1647 133.402 94.6727 132.585 95.6564C131.193 97.3454 128.238 96.9881 126.841 98.6863C125.788 99.9716 126.071 101.851 125.723 103.475C125.329 105.331 125.329 105.331 123.867 108.031C122.981 109.692 125.208 112.866 122.99 116.982L118.684 115.757L120.573 109.4L118.011 115.362L117.854 108.11Z" fill="#263238"/>
<path d="M132.834 106.469C132.923 106.52 132.876 106.752 132.872 107.086C132.843 107.5 132.93 107.913 133.123 108.28C133.315 108.647 133.606 108.953 133.962 109.165C134.236 109.35 134.454 109.443 134.426 109.545C134.398 109.647 134.161 109.736 133.748 109.638C133.475 109.566 133.22 109.437 132.999 109.26C132.779 109.084 132.597 108.863 132.466 108.613C132.335 108.362 132.258 108.087 132.239 107.805C132.22 107.523 132.26 107.24 132.356 106.975C132.528 106.576 132.756 106.418 132.834 106.469Z" fill="#263238"/>
<path d="M131.53 92.5188C131.456 92.5754 131.375 92.6208 131.288 92.6534C131.054 92.7675 130.826 92.8945 130.606 93.0338C129.598 93.6595 128.737 94.4953 128.081 95.4843C127.425 96.4732 126.99 97.592 126.806 98.7642C126.695 99.5911 126.695 100.429 126.806 101.256C126.943 102.159 126.998 103.072 126.969 103.984C126.939 104.46 126.84 104.929 126.676 105.376C126.502 105.795 126.296 106.2 126.059 106.587C125.581 107.268 125.25 108.041 125.085 108.856C124.995 109.604 125.015 110.36 125.145 111.102C125.242 111.812 125.368 112.494 125.414 113.083C125.544 114.057 125.398 115.047 124.992 115.942C124.867 116.176 124.711 116.393 124.528 116.586C124.393 116.712 124.319 116.772 124.314 116.763C124.546 116.501 124.744 116.211 124.904 115.9C125.261 115.018 125.378 114.057 125.242 113.116C125.182 112.513 125.048 111.858 124.941 111.148C124.799 110.383 124.772 109.601 124.862 108.828C125.043 107.121 126.69 105.868 126.718 103.994C126.747 103.095 126.696 102.196 126.565 101.307C126.449 100.46 126.449 99.6017 126.565 98.755C126.793 97.3195 127.4 95.9709 128.323 94.8481C128.938 94.0961 129.689 93.4665 130.537 92.9921C130.764 92.8607 131.001 92.7474 131.247 92.6534C131.333 92.5937 131.429 92.5483 131.53 92.5188Z" fill="#263238"/>
<path d="M152.305 118.61L152.226 118.675C152.17 118.712 152.091 118.777 151.98 118.842C151.652 119.035 151.297 119.179 150.927 119.269C150.336 119.416 149.721 119.438 149.122 119.334C148.318 119.206 147.573 118.835 146.987 118.271C146.28 117.58 145.83 116.668 145.711 115.687C145.634 115.142 145.67 114.588 145.818 114.058C145.98 113.501 146.238 112.977 146.579 112.508C147.355 111.562 148.214 110.686 149.145 109.891C149.611 109.459 150.034 108.982 150.407 108.467C150.776 107.928 151.068 107.341 151.275 106.722C151.655 105.483 151.82 104.189 151.762 102.894C151.716 101.682 151.59 100.475 151.386 99.2796C151.055 97.2525 150.539 95.2599 149.846 93.3264C149.379 92.0202 148.836 90.742 148.222 89.4984C148.004 89.0576 147.827 88.7189 147.707 88.4916C147.636 88.3858 147.576 88.274 147.526 88.1575C147.606 88.2627 147.677 88.3744 147.739 88.4916C147.874 88.7096 148.064 89.0437 148.296 89.4799C148.948 90.7104 149.517 91.983 149.999 93.2893C150.721 95.2264 151.259 97.2274 151.604 99.2657C151.818 100.471 151.949 101.69 151.999 102.913C152.061 104.234 151.893 105.556 151.502 106.82C151.292 107.461 150.99 108.069 150.607 108.625C150.222 109.153 149.787 109.642 149.307 110.086C148.385 110.869 147.533 111.73 146.76 112.661C146.431 113.107 146.181 113.606 146.022 114.137C145.881 114.641 145.841 115.167 145.906 115.687C146.017 116.627 146.44 117.503 147.108 118.174C147.667 118.72 148.376 119.087 149.145 119.227C149.727 119.339 150.326 119.329 150.904 119.199C151.398 119.076 151.871 118.877 152.305 118.61Z" fill="#263238"/>
<path d="M112.887 112.32C113.43 112.18 113.937 111.927 114.376 111.578C115.527 110.556 116.236 109.127 116.353 107.592C116.453 106.539 116.481 105.48 116.436 104.423C116.369 103.194 116.464 101.962 116.719 100.757C116.876 100.105 117.128 99.4801 117.466 98.9015C117.827 98.2895 118.33 97.7738 118.933 97.3981C120.19 96.6279 121.717 96.665 123.109 96.1871C123.787 95.9494 124.397 95.5496 124.886 95.0224C125.356 94.4989 125.776 93.9318 126.139 93.3288C126.881 92.1595 127.595 90.9299 128.728 90.2014C129.271 89.8553 129.884 89.6321 130.523 89.5472C131.115 89.4678 131.713 89.4429 132.31 89.473C133.365 89.5552 134.425 89.5459 135.479 89.4451C136.999 89.2366 138.445 88.66 139.692 87.7654C140.027 87.5199 140.35 87.2566 140.657 86.9766L140.894 86.7539L140.982 86.6797C140.623 87.1186 140.208 87.5085 139.748 87.8397C138.502 88.7761 137.043 89.3869 135.502 89.6168C134.44 89.7273 133.37 89.7459 132.305 89.6725C131.182 89.6725 129.906 89.6725 128.848 90.3917C127.79 91.1109 127.08 92.2755 126.338 93.4541C125.968 94.0723 125.539 94.6535 125.057 95.1895C124.547 95.7422 123.91 96.1626 123.201 96.4144C121.772 96.9063 120.25 96.8784 119.076 97.6023C117.974 98.351 117.212 99.5051 116.956 100.813C116.698 101.997 116.597 103.209 116.654 104.418C116.695 105.485 116.657 106.554 116.543 107.615C116.406 109.184 115.656 110.634 114.455 111.652C114.122 111.915 113.743 112.112 113.337 112.232C113.231 112.263 113.125 112.287 113.017 112.306C112.975 112.319 112.931 112.324 112.887 112.32Z" fill="#455A64"/>
<path d="M117.537 93.101C117.839 93.2073 118.15 93.2895 118.465 93.3469C119.323 93.4516 120.192 93.3083 120.971 92.934C122.106 92.3368 123.122 91.5363 123.968 90.5722C124.479 90.0525 125.012 89.4957 125.615 88.9714C126.234 88.4129 126.941 87.9613 127.708 87.6351C128.487 87.3308 129.317 87.1735 130.153 87.1711C130.921 87.1691 131.687 87.211 132.45 87.2964C133.174 87.366 133.842 87.4402 134.501 87.4449C135.097 87.4546 135.692 87.4064 136.278 87.301C137.129 87.1676 137.929 86.8123 138.598 86.2709C138.828 86.0553 139.046 85.8276 139.252 85.5889C139.219 85.6644 139.177 85.736 139.127 85.8023C139.073 85.8874 139.013 85.9681 138.946 86.0436C138.859 86.1506 138.763 86.25 138.658 86.3405C137.99 86.9268 137.173 87.317 136.297 87.4681C135.701 87.5873 135.095 87.6464 134.487 87.6444C133.833 87.6444 133.141 87.5794 132.413 87.5191C131.659 87.4389 130.902 87.4017 130.144 87.4077C129.337 87.4067 128.536 87.5545 127.782 87.8439C126.246 88.4796 125.142 89.6999 124.112 90.7161C123.243 91.6915 122.196 92.4916 121.026 93.0732C120.218 93.4472 119.316 93.57 118.437 93.4258C118.2 93.381 117.97 93.3078 117.751 93.2077C117.676 93.1793 117.605 93.1435 117.537 93.101Z" fill="#455A64"/>
<path d="M151.071 106.109C151.185 105.825 151.262 105.527 151.299 105.223C151.342 104.391 151.11 103.568 150.64 102.88C150.102 101.952 149.104 101.172 148.092 100.184C147.548 99.6682 147.091 99.0662 146.742 98.4022C146.403 97.673 146.208 96.8853 146.167 96.0822C146.06 94.435 146.343 92.8945 146.306 91.4979C146.359 90.2628 146 89.0449 145.285 88.0365C144.786 87.3701 144.062 86.907 143.248 86.7326C142.941 86.6884 142.629 86.6806 142.32 86.7094C142.395 86.6757 142.475 86.6538 142.557 86.6445C142.786 86.613 143.019 86.613 143.248 86.6445C144.104 86.788 144.874 87.2485 145.406 87.9344C146.125 88.7649 146.496 90.0827 146.515 91.4979C146.533 92.9131 146.287 94.4629 146.394 96.0683C146.431 96.845 146.617 97.6074 146.942 98.3141C147.275 98.9584 147.712 99.5432 148.236 100.045C149.22 101.028 150.236 101.854 150.77 102.829C151.245 103.551 151.46 104.414 151.378 105.274C151.348 105.504 151.282 105.728 151.183 105.938C151.153 105.999 151.115 106.057 151.071 106.109Z" fill="#455A64"/>
<path d="M110.01 108.891C109.908 108.843 109.809 108.789 109.713 108.728C109.444 108.547 109.202 108.328 108.994 108.079C108.611 107.611 108.333 107.067 108.179 106.482C108.026 105.898 108 105.287 108.103 104.692C108.178 104.295 108.311 103.912 108.498 103.555C108.72 103.18 108.995 102.839 109.314 102.543C110.047 101.941 110.859 101.441 111.727 101.059C112.671 100.655 113.542 100.1 114.307 99.4159C115.046 98.6035 115.551 97.6062 115.769 96.5299C116.047 95.4302 116.233 94.3166 116.599 93.2819C116.943 92.2926 117.396 91.3449 117.95 90.4561C118.88 88.9477 120.074 87.6195 121.476 86.5353C122.417 85.8045 123.45 85.1993 124.548 84.735C124.843 84.6052 125.145 84.4921 125.452 84.3963C125.557 84.353 125.666 84.3219 125.777 84.3035C125.777 84.3313 125.341 84.4705 124.585 84.8231C123.511 85.3149 122.502 85.9383 121.583 86.6791C120.214 87.7665 119.048 89.0876 118.14 90.5814C117.6 91.4577 117.16 92.3915 116.827 93.3654C116.474 94.3769 116.288 95.4766 116.001 96.6134C115.774 97.7315 115.246 98.7665 114.474 99.6062C113.691 100.306 112.797 100.872 111.829 101.281C110.975 101.651 110.175 102.133 109.449 102.715C109.143 102.995 108.877 103.317 108.66 103.671C108.477 104.008 108.346 104.371 108.27 104.747C108.155 105.401 108.192 106.073 108.377 106.71C108.519 107.194 108.752 107.645 109.064 108.042C109.342 108.364 109.66 108.65 110.01 108.891Z" fill="#263238"/>
<path d="M152.386 106.542C152.362 106.542 152.581 106.32 152.878 105.879C153.287 105.255 153.567 104.556 153.703 103.823C153.898 102.735 153.858 101.619 153.587 100.547C153.227 99.2397 152.666 97.9955 151.926 96.8586C151.161 95.629 150.335 94.5154 149.639 93.4621C149.008 92.5345 148.46 91.5532 148.001 90.5297C147.692 89.8363 147.466 89.109 147.328 88.3628C147.292 88.1602 147.267 87.9557 147.254 87.7503C147.244 87.6795 147.244 87.6076 147.254 87.5369C147.254 87.5369 147.309 87.8292 147.425 88.3442C147.594 89.0789 147.838 89.7942 148.154 90.4786C148.633 91.4805 149.192 92.4424 149.824 93.3554C150.525 94.3994 151.36 95.5084 152.144 96.7519C152.898 97.91 153.463 99.1801 153.819 100.515C154.085 101.618 154.107 102.766 153.884 103.879C153.726 104.629 153.41 105.336 152.956 105.953C152.834 106.119 152.697 106.274 152.548 106.417C152.5 106.466 152.445 106.508 152.386 106.542Z" fill="#263238"/>
<path d="M104.197 171.214L100.387 177.845C100.387 177.845 81.4515 170.917 70.3666 172.936C66.1488 173.701 61.6388 183.264 67.7821 189.408C73.7723 195.398 84.4861 203.871 104.591 206.613C105.092 206.678 113.328 208.446 112.818 208.385C112.308 208.325 124.362 210.241 124.362 210.241L127.193 199.541L149.646 203.063C162.879 202.163 169.356 188.011 161.385 183.455C153.961 179.209 139.976 178.866 139.976 178.866L134.909 170.922L104.197 171.214Z" fill="#263238"/>
<path d="M124.826 210.655C124.882 210.293 125.044 209.319 125.369 207.319C125.55 206.252 125.768 204.952 126.051 203.458C126.195 202.707 126.353 201.913 126.543 201.073C126.64 200.651 126.742 200.224 126.868 199.783C126.928 199.565 126.993 199.347 127.072 199.125C127.143 198.885 127.26 198.661 127.415 198.466L127.448 198.628C122.668 196.93 116.692 194.689 110.326 192.002C106.41 190.336 102.716 188.657 99.4638 186.898C97.9126 186.09 96.4237 185.167 95.0094 184.137C93.6917 183.163 92.5131 182.189 91.4088 181.353C89.228 179.627 87.2328 178.514 85.7619 178.04C85.4379 177.925 85.108 177.828 84.7736 177.748C84.5312 177.68 84.2848 177.627 84.0358 177.59L83.5718 177.507L83.4141 177.47C83.468 177.464 83.5225 177.464 83.5765 177.47L84.0405 177.53C84.2939 177.557 84.545 177.602 84.7921 177.665C85.1315 177.735 85.4662 177.827 85.7944 177.938C86.6986 178.231 87.5695 178.619 88.3928 179.094C89.4818 179.724 90.5252 180.429 91.5155 181.205C92.6291 182.045 93.8077 183.01 95.1301 183.989C96.5407 185.007 98.0249 185.919 99.5705 186.717C102.819 188.453 106.507 190.128 110.419 191.789C116.78 194.471 122.747 196.73 127.513 198.452L127.647 198.503L127.545 198.614C127.415 198.791 127.316 198.989 127.253 199.199C127.174 199.412 127.109 199.63 127.044 199.844C126.919 200.275 126.812 200.707 126.715 201.12C126.52 201.955 126.353 202.748 126.204 203.495C125.907 204.99 125.675 206.279 125.48 207.347C125.285 208.414 125.128 209.226 125.016 209.806C124.961 210.089 124.919 210.307 124.882 210.451C124.868 210.52 124.849 210.588 124.826 210.655Z" fill="#455A64"/>
<path d="M157.031 184.754H156.906L156.558 184.698C156.251 184.656 155.806 184.545 155.217 184.485C153.567 184.267 151.899 184.208 150.238 184.308C147.773 184.467 145.329 184.871 142.944 185.515C141.598 185.872 140.197 186.299 138.768 186.796C137.339 187.292 135.873 187.863 134.374 188.461C132.911 189.041 131.416 189.536 129.896 189.941C128.425 190.345 126.992 190.661 125.618 190.925C122.871 191.463 120.37 191.793 118.273 192.048C116.176 192.303 114.473 192.475 113.299 192.596L111.944 192.73L111.591 192.758C111.551 192.764 111.511 192.764 111.471 192.758H111.587L111.939 192.707L113.285 192.526L118.25 191.904C120.347 191.626 122.839 191.278 125.572 190.73C126.94 190.461 128.356 190.141 129.831 189.733C131.342 189.326 132.83 188.835 134.286 188.262C135.78 187.663 137.251 187.088 138.694 186.596C140.137 186.104 141.538 185.668 142.893 185.32C145.293 184.684 147.753 184.297 150.233 184.165C151.905 184.078 153.581 184.161 155.235 184.415C155.825 184.489 156.265 184.619 156.572 184.675L156.92 184.754C156.957 184.749 156.994 184.749 157.031 184.754Z" fill="#455A64"/>
<path d="M122.423 180.903C122.423 181.061 121.421 181.316 119.736 181.474C115.338 181.834 110.912 181.362 106.689 180.082C105.079 179.572 104.137 179.103 104.183 178.95C104.29 178.616 108.266 179.674 113.278 180.193C118.289 180.713 122.391 180.551 122.423 180.903Z" fill="#263238"/>
<path d="M140.194 179.024C139.952 179.109 139.703 179.175 139.451 179.223C139.158 179.282 138.869 179.357 138.584 179.446C138.25 179.543 137.864 179.645 137.452 179.794C136.476 180.12 135.518 180.5 134.584 180.931C133.535 181.432 132.403 182.026 131.248 182.712C129.291 183.907 127.414 185.227 125.629 186.666C124.942 187.213 124.39 187.668 124.014 187.984C123.825 188.156 123.622 188.311 123.406 188.448C123.573 188.253 123.755 188.072 123.949 187.905C124.311 187.566 124.845 187.093 125.522 186.513C127.284 185.026 129.158 183.678 131.127 182.48C132.216 181.83 133.339 181.239 134.491 180.708C135.437 180.28 136.408 179.913 137.4 179.608C137.818 179.469 138.208 179.376 138.551 179.293C138.841 179.214 139.136 179.152 139.433 179.107C139.684 179.058 139.938 179.03 140.194 179.024Z" fill="#455A64"/>
<path d="M119.12 188.456C118.662 188.388 118.214 188.26 117.789 188.076C116.75 187.679 115.735 187.222 114.75 186.707L111.813 185.162C111.395 184.969 110.99 184.749 110.602 184.503C111.048 184.627 111.48 184.797 111.891 185.009C112.666 185.362 113.715 185.9 114.87 186.489C116.026 187.078 117.079 187.589 117.863 187.918C118.647 188.248 119.13 188.419 119.12 188.456Z" fill="#455A64"/>
<path d="M121.174 172.013C121.211 172.013 121.146 172.709 121.076 173.827C121.007 174.945 120.942 176.49 120.974 178.198C121.007 179.905 121.132 181.446 121.244 182.569C121.331 183.169 121.388 183.773 121.415 184.378C121.354 184.23 121.314 184.074 121.295 183.914C121.23 183.608 121.155 183.158 121.076 182.601C120.875 181.148 120.761 179.683 120.733 178.216C120.706 176.751 120.763 175.286 120.905 173.827C120.965 173.265 121.021 172.815 121.072 172.505C121.086 172.337 121.12 172.172 121.174 172.013Z" fill="#455A64"/>
<path d="M123.292 172.7C123.292 172.7 123.209 172.774 123.093 172.913C122.93 173.107 122.827 173.344 122.796 173.595C122.77 173.776 122.782 173.96 122.833 174.135C122.883 174.31 122.97 174.473 123.088 174.611C123.25 174.756 123.449 174.853 123.662 174.893C123.875 174.933 124.095 174.915 124.299 174.839C124.502 174.764 124.681 174.635 124.817 174.466C124.953 174.296 125.04 174.093 125.07 173.878C125.065 173.694 125.021 173.514 124.941 173.348C124.861 173.182 124.747 173.036 124.606 172.918C124.419 172.748 124.187 172.635 123.937 172.593C123.756 172.565 123.654 172.593 123.65 172.561C123.645 172.528 123.747 172.5 123.947 172.5C124.228 172.509 124.499 172.61 124.717 172.788C124.886 172.916 125.024 173.082 125.12 173.271C125.216 173.461 125.267 173.67 125.269 173.883C125.248 174.147 125.151 174.4 124.991 174.611C124.831 174.822 124.614 174.983 124.365 175.076C124.117 175.168 123.847 175.187 123.588 175.131C123.329 175.075 123.091 174.946 122.903 174.76C122.768 174.596 122.672 174.403 122.621 174.197C122.57 173.991 122.567 173.775 122.61 173.567C122.66 173.289 122.8 173.034 123.009 172.844C123.176 172.718 123.288 172.69 123.292 172.7Z" fill="#455A64"/>
<path d="M129.07 165.057C128.967 165.224 128.845 165.38 128.708 165.521C128.359 165.935 127.988 166.328 127.594 166.699C127.012 167.254 126.392 167.767 125.738 168.235C124.934 168.805 124.089 169.315 123.209 169.762C122.326 170.196 121.41 170.564 120.472 170.861C119.703 171.1 118.918 171.286 118.124 171.418C117.591 171.511 117.054 171.572 116.514 171.599C116.316 171.618 116.117 171.618 115.92 171.599C115.92 171.553 116.76 171.506 118.096 171.247C118.881 171.091 119.655 170.89 120.416 170.643C123.026 169.79 125.431 168.405 127.478 166.574C128.49 165.674 129.033 165.029 129.07 165.057Z" fill="#263238"/>
<path d="M137.549 170.208C137.549 170.278 136.714 170.278 135.73 170.529C134.746 170.779 134.004 171.15 133.967 171.09C134.997 170.333 136.285 170.016 137.549 170.208Z" fill="#263238"/>
<g opacity="0.3">
<path opacity="0.3" d="M118.04 171.367C122.074 170.628 125.728 168.517 128.383 165.391C128.625 166.125 128.657 166.912 128.478 167.664C128.299 168.417 127.914 169.104 127.367 169.65C128.545 170.207 129.928 169.836 131.218 169.65C132.508 169.465 134.086 169.65 134.703 170.796C128.932 171.331 123.132 171.496 117.34 171.293" fill="black"/>
</g>
<path d="M106.498 162.273C105.916 161.722 105.238 161.283 104.498 160.978C103.69 160.665 102.826 160.518 101.96 160.547C100.901 160.585 99.8646 160.864 98.93 161.363C96.907 162.412 95.682 164.203 94.7911 165.349C94.4461 165.831 94.1359 166.336 93.8631 166.862C93.773 167.059 93.6659 167.249 93.543 167.428C93.6013 167.218 93.6805 167.014 93.7796 166.82C94.0178 166.273 94.3035 165.749 94.6334 165.252C95.0649 164.63 95.6217 163.934 96.262 163.173C96.98 162.349 97.8415 161.662 98.8047 161.145C99.7734 160.63 100.849 160.349 101.946 160.324C102.84 160.306 103.729 160.475 104.554 160.821C105.109 161.047 105.618 161.373 106.057 161.781C106.179 161.888 106.291 162.006 106.391 162.134C106.47 162.222 106.507 162.268 106.498 162.273Z" fill="#263238"/>
<path d="M118.657 117.766L112.18 119.144L115.418 131.268L126.889 133.732L134.758 128.15L135.839 121.464L129.093 118.912L118.657 117.766Z" fill="#FFBE9D"/>
<path d="M114.122 118.647C114.122 118.647 118.506 131.38 126.608 130.201C134.709 129.023 134.032 120.773 134.032 120.773C134.032 120.773 142.486 123.352 145.098 126.095C147.711 128.837 146.17 134.799 146.17 134.799L143.98 145.573L139.21 166.212C139.21 166.212 141.034 171.845 136.37 173.237L134.899 170.917L106.934 171.706C106.934 171.706 100.953 178.601 99.088 176.225C97.2227 173.85 95.4316 169.21 95.4316 169.21L108.28 120.174L114.122 118.647Z" fill="#455A64"/>
<path d="M142.871 124.467C143.099 124.596 162.726 138.851 162.726 138.851C162.726 138.851 161.185 150.58 170.614 148.715C170.614 148.715 166.809 158.524 161.659 156.464C160.192 155.879 142.101 144.432 142.101 144.432L138.264 136.261L142.871 124.467Z" fill="#455A64"/>
<path d="M114.116 119.275C114.116 119.275 113.652 119.275 112.924 119.359C109.082 119.73 94.902 122.667 93.5888 132.676C92.9021 137.91 92.7072 153.217 91.9648 159.634C91.9648 159.634 93.148 168.552 93.5888 170.204C94.373 173.146 108.581 168.432 108.581 168.432L108.608 140.128L113.685 119.289" fill="#455A64"/>
<path d="M105.121 144.99C105.134 145.065 105.134 145.142 105.121 145.218C105.125 145.438 105.141 145.658 105.168 145.876C105.269 146.672 105.47 147.451 105.766 148.196C106.128 149.152 106.694 150.238 107.233 151.482C107.528 152.134 107.776 152.807 107.975 153.495C108.174 154.238 108.303 154.998 108.36 155.764C108.443 157.241 108.404 158.721 108.244 160.191C108.128 161.546 108.017 162.766 107.85 163.782C107.723 164.586 107.536 165.378 107.288 166.153C107.196 166.427 107.117 166.617 107.056 166.775C107.033 166.849 106.998 166.92 106.954 166.984C106.954 166.984 107.042 166.678 107.2 166.125C107.408 165.346 107.563 164.554 107.664 163.754C107.813 162.743 107.905 161.527 108.012 160.177C108.154 158.717 108.185 157.248 108.105 155.783C108.05 155.031 107.926 154.285 107.734 153.556C107.541 152.878 107.3 152.214 107.015 151.57C106.476 150.331 105.938 149.227 105.59 148.257C105.302 147.491 105.123 146.688 105.061 145.872C105.042 145.651 105.042 145.429 105.061 145.208C105.075 145.134 105.095 145.061 105.121 144.99Z" fill="#263238"/>
<path d="M105.815 141.417C105.857 141.417 105.889 142.136 106.052 143.273C106.262 144.769 106.609 146.243 107.087 147.676C107.23 148.099 107.379 148.502 107.551 148.892C107.584 148.982 107.623 149.071 107.667 149.157L107.834 149.412C107.941 149.581 108.04 149.756 108.131 149.936C108.463 150.553 108.642 151.24 108.655 151.941C108.658 152.418 108.564 152.891 108.381 153.333C108.317 153.498 108.231 153.654 108.126 153.797C108.36 153.222 108.482 152.607 108.483 151.987C108.449 151.318 108.262 150.665 107.936 150.08C107.848 149.913 107.745 149.746 107.639 149.579L107.472 149.324C107.416 149.228 107.369 149.127 107.333 149.022C107.17 148.632 107.022 148.219 106.869 147.797C106.381 146.349 106.055 144.852 105.894 143.333C105.829 142.753 105.811 142.275 105.806 141.941C105.789 141.767 105.792 141.591 105.815 141.417Z" fill="#263238"/>
<path d="M106.364 137.168C106.327 137.168 106.114 136.588 105.696 135.674C105.15 134.48 104.493 133.339 103.734 132.268C102.968 131.203 102.106 130.21 101.158 129.303C100.43 128.607 99.9381 128.213 99.966 128.18C100.1 128.244 100.225 128.325 100.337 128.421C100.659 128.657 100.969 128.91 101.265 129.178C103.259 130.945 104.825 133.143 105.845 135.604C106.035 136.068 106.174 136.463 106.253 136.736C106.308 136.875 106.345 137.02 106.364 137.168Z" fill="#263238"/>
<path d="M146.557 128.853C146.567 129.229 146.535 129.606 146.464 129.975C146.381 130.667 146.26 131.618 146.153 132.671C146.047 133.725 145.958 134.68 145.898 135.376C145.891 135.753 145.844 136.128 145.759 136.495C145.706 136.121 145.695 135.743 145.726 135.367C145.726 134.666 145.801 133.706 145.912 132.648C146.023 131.59 146.167 130.634 146.293 129.952C146.339 129.577 146.428 129.208 146.557 128.853Z" fill="#263238"/>
<path d="M150.594 140.769C150.594 140.811 149.982 140.871 149.031 141.14C147.792 141.484 146.665 142.144 145.76 143.057C145.279 143.572 144.86 144.142 144.511 144.755C144.238 145.264 144 145.791 143.797 146.332L143.569 146.963C143.514 147.135 143.467 147.297 143.421 147.427C143.388 147.57 143.336 147.707 143.268 147.836C143.265 147.689 143.287 147.543 143.333 147.404L143.44 146.908L143.634 146.258C143.819 145.698 144.047 145.154 144.316 144.629C144.667 144.006 145.094 143.43 145.588 142.913C146.517 141.968 147.695 141.305 148.984 141.001C149.204 140.941 149.427 140.896 149.653 140.866C149.82 140.835 149.989 140.813 150.158 140.801C150.301 140.768 150.448 140.757 150.594 140.769Z" fill="#263238"/>
<path d="M163.613 153.681C163.491 153.52 163.387 153.345 163.302 153.161C163.205 152.994 163.094 152.781 162.978 152.526C162.862 152.27 162.722 151.992 162.602 151.663C162.296 150.901 162.047 150.118 161.855 149.319C161.622 148.339 161.467 147.341 161.391 146.336C161.328 145.332 161.345 144.325 161.442 143.325C161.527 142.508 161.669 141.699 161.869 140.902C161.943 140.559 162.05 140.258 162.129 139.974C162.192 139.746 162.27 139.521 162.361 139.302C162.421 139.108 162.502 138.922 162.602 138.745C162.648 138.745 162.337 139.566 162.036 140.921C161.863 141.714 161.739 142.517 161.665 143.325C161.582 144.315 161.569 145.311 161.627 146.303C161.702 147.295 161.848 148.279 162.064 149.25C162.244 150.037 162.473 150.811 162.75 151.57C163.242 152.901 163.655 153.662 163.613 153.681Z" fill="#263238"/>
<path d="M158.522 150.196C158.438 150.039 158.375 149.872 158.336 149.699C158.207 149.243 158.111 148.777 158.049 148.307C157.849 146.723 157.998 145.114 158.485 143.593C158.958 142.065 159.768 140.663 160.856 139.491C161.182 139.113 161.637 138.869 162.132 138.804C162.268 138.801 162.402 138.827 162.526 138.883C162.605 138.925 162.647 138.953 162.642 138.962C162.479 138.909 162.308 138.887 162.136 138.897C161.682 138.997 161.275 139.247 160.981 139.607C159.953 140.787 159.182 142.168 158.717 143.662C158.244 145.16 158.073 146.738 158.216 148.302C158.336 149.462 158.564 150.182 158.522 150.196Z" fill="#263238"/>
<path d="M126.597 147.884C126.582 148.072 126.543 148.258 126.481 148.436C126.432 148.65 126.37 148.861 126.295 149.067C126.206 149.344 126.102 149.617 125.984 149.884C125.692 150.585 125.338 151.259 124.927 151.898C123.916 153.472 122.594 154.824 121.043 155.869C120.413 156.296 119.747 156.667 119.052 156.978C118.788 157.102 118.517 157.21 118.24 157.303C118.037 157.388 117.828 157.456 117.614 157.507C117.436 157.569 117.253 157.613 117.066 157.637C117.066 157.591 117.827 157.382 118.978 156.825C119.653 156.497 120.301 156.117 120.918 155.688C121.665 155.157 122.366 154.564 123.015 153.916C123.649 153.253 124.224 152.538 124.736 151.777C125.151 151.152 125.515 150.496 125.827 149.814C126.36 148.65 126.551 147.87 126.597 147.884Z" fill="#263238"/>
<g opacity="0.3">
<path opacity="0.3" d="M110.539 152.479L107.866 142.735C107.736 142.271 107.518 141.7 107.031 141.612C106.802 141.604 106.578 141.681 106.402 141.828C106.227 141.976 106.112 142.183 106.08 142.41C106.015 142.883 106.015 143.362 106.08 143.834C106.289 145.955 106.456 147.393 107.444 149.036C109.37 152.237 108.103 153.792 108.103 153.792C108.256 157.689 107.927 163.007 106.711 167.011L107.857 171.841C108.943 168.25 111.425 165.257 111.843 161.527C112.163 158.469 111.37 155.439 110.539 152.479Z" fill="black"/>
</g>
<g opacity="0.3">
<path opacity="0.3" d="M144.014 145.639C147.192 147.29 150.018 149.573 153.113 151.341C151.902 148.812 149.865 146.311 147.415 144.97C146.775 144.558 146.022 144.358 145.262 144.4C144.51 144.506 143.972 144.929 144.088 145.676" fill="black"/>
</g>
<g opacity="0.3">
<path opacity="0.3" d="M162.177 138.645C161.091 138.617 160.275 139.606 159.741 140.552C158.241 143.245 157.627 146.343 157.987 149.405C158.052 149.953 158.256 150.612 158.799 150.718C159 150.74 159.202 150.697 159.375 150.594C159.548 150.491 159.683 150.334 159.76 150.148C159.909 149.775 159.971 149.374 159.941 148.974C159.941 147.118 159.811 145.239 160.08 143.406C160.349 141.573 161.04 139.717 162.4 138.459" fill="black"/>
</g>
<path d="M113.086 142.132H113.197L113.517 142.109L114.775 142.044L119.526 141.826L136.356 141.112H136.467V141.218C136.606 146.879 136.769 153.394 136.931 160.289V160.98V161.101H136.852C129.919 161.181 122.998 161.698 116.13 162.65H116.042L116.018 162.562C114.687 157.686 113.858 152.685 113.545 147.64C113.434 145.812 113.415 144.392 113.415 143.399C113.415 142.935 113.415 142.536 113.415 142.281V141.998C113.415 141.933 113.415 141.9 113.415 141.9C113.419 141.933 113.419 141.965 113.415 141.998V142.285C113.415 142.545 113.415 142.921 113.415 143.399C113.415 144.378 113.476 145.812 113.601 147.631C113.957 152.663 114.812 157.648 116.153 162.511L116.037 162.432C122.934 161.453 129.887 160.921 136.852 160.841L136.731 160.966V160.275C136.569 153.38 136.42 146.865 136.267 141.204L136.379 141.311L119.545 141.937L114.789 142.095L113.531 142.132H113.1H113.086Z" fill="white"/>
<path d="M119.263 156.196C119.198 156.196 118.618 153.074 117.968 149.194C117.319 145.315 116.845 142.165 116.91 142.151C116.975 142.137 117.555 145.274 118.205 149.157C118.854 153.041 119.309 156.187 119.263 156.196Z" fill="white"/>
<path d="M119.909 162.181C119.659 161.356 119.487 160.509 119.394 159.652C119.223 158.806 119.129 157.945 119.115 157.082C119.365 157.908 119.537 158.756 119.63 159.615C119.807 160.459 119.9 161.319 119.909 162.181Z" fill="white"/>
<path d="M123.927 153.092C123.861 152.956 123.817 152.81 123.797 152.66C123.727 152.382 123.639 151.969 123.542 151.463C123.347 150.447 123.129 149.036 122.971 147.468C122.813 145.9 122.753 144.471 122.739 143.441C122.739 142.921 122.739 142.513 122.739 142.216C122.735 142.06 122.749 141.904 122.781 141.752C122.856 142.304 122.894 142.86 122.897 143.417C122.952 144.448 123.041 145.867 123.198 147.431C123.356 148.995 123.546 150.401 123.695 151.421C123.805 151.973 123.883 152.531 123.927 153.092Z" fill="white"/>
<path d="M123.392 161.558C123.138 160.478 122.963 159.382 122.868 158.277C122.689 157.183 122.592 156.077 122.58 154.969C122.833 156.048 123.008 157.145 123.104 158.249C123.284 159.343 123.38 160.449 123.392 161.558Z" fill="white"/>
<path d="M128.671 161.182C128.623 160.93 128.592 160.674 128.578 160.417L128.398 158.329C128.244 156.57 128.017 154.153 127.711 151.457C127.405 148.761 127.07 146.353 126.82 144.604C126.699 143.759 126.597 143.059 126.523 142.53C126.476 142.277 126.448 142.021 126.439 141.764C126.521 142.009 126.58 142.26 126.616 142.516C126.713 142.98 126.838 143.704 126.987 144.576C127.284 146.325 127.641 148.752 127.952 151.429C128.263 154.107 128.458 156.533 128.569 158.32C128.62 159.201 128.657 159.916 128.671 160.412C128.695 160.668 128.695 160.926 128.671 161.182Z" fill="white"/>
<path d="M133.11 161.434C133.077 161.175 133.064 160.915 133.073 160.654C133.073 160.111 133.073 159.392 133.073 158.529C133.073 156.738 133.008 154.26 132.883 151.532C132.758 148.804 132.563 146.33 132.419 144.544C132.345 143.686 132.284 142.971 132.238 142.433C132.205 142.174 132.191 141.914 132.196 141.653C132.264 141.904 132.31 142.16 132.331 142.419C132.405 142.915 132.493 143.639 132.591 144.53C132.786 146.312 132.999 148.785 133.134 151.518C133.268 154.251 133.282 156.733 133.254 158.529C133.254 159.425 133.222 160.153 133.198 160.654C133.188 160.916 133.159 161.176 133.11 161.434Z" fill="white"/>
<g opacity="0.3">
<path opacity="0.3" d="M117.457 157.669C118.183 158.132 119.043 158.341 119.902 158.263C120.755 158.186 121.589 157.968 122.37 157.618C123.435 157.221 124.395 156.587 125.178 155.762C125.938 154.818 126.42 153.68 126.569 152.477C126.723 151.275 126.764 150.062 126.69 148.853C126.695 148.801 126.681 148.749 126.653 148.705C126.636 148.687 126.616 148.673 126.594 148.664C126.571 148.655 126.547 148.65 126.523 148.65C126.499 148.65 126.475 148.655 126.453 148.664C126.43 148.673 126.41 148.687 126.393 148.705C126.324 148.776 126.275 148.864 126.249 148.96C125.539 150.981 124.356 152.804 122.799 154.276C121.243 155.748 119.357 156.827 117.299 157.423" fill="black"/>
</g>
<path d="M114.57 196.535L111.735 191.217L105.36 161.378C105.36 161.378 99.4945 158.009 94.6875 165.391C94.4973 165.688 101.295 187.06 103.193 193.004L103.457 198.692C103.457 198.692 103.123 205.425 103.457 206.014C103.756 206.427 104.164 206.749 104.636 206.942C104.636 206.942 104.385 208.627 106.32 208.798C106.32 208.798 106.487 210.654 107.916 210.399C108.305 210.352 108.679 210.222 109.013 210.019C109.348 209.816 109.635 209.544 109.856 209.221C109.856 209.221 109.856 211.573 111.118 211.323C112.38 211.072 112.584 210.06 112.816 209.726C113.048 209.392 113.317 205.935 113.317 205.935L113.294 200.238L116.579 202.901C117.507 203.365 118.922 203.959 119.711 203.249L114.57 196.535Z" fill="#FFBE9D"/>
<path d="M113.277 199.946C113.493 200.955 113.556 201.991 113.463 203.018C113.426 203.807 113.393 204.526 113.361 205.185C113.371 205.486 113.343 205.787 113.277 206.08C113.148 205.061 113.129 204.032 113.222 203.009C113.305 201.32 113.203 199.956 113.277 199.946Z" fill="#EB996E"/>
<path d="M109.665 203.916C109.85 205.79 109.875 207.676 109.739 209.554C109.553 207.68 109.528 205.794 109.665 203.916Z" fill="#EB996E"/>
<path d="M106.656 204.953C106.87 206.263 106.74 207.606 106.28 208.85C106.215 208.85 106.382 207.974 106.48 206.902C106.503 206.249 106.562 205.599 106.656 204.953Z" fill="#EB996E"/>
<path d="M104.689 204.293C104.767 205.147 104.682 206.009 104.438 206.831C104.357 206.408 104.357 205.973 104.438 205.55C104.444 205.119 104.529 204.693 104.689 204.293Z" fill="#EB996E"/>
<path d="M168.099 93.8115L168.981 95.4216L170.591 96.3032L168.981 97.1848L168.099 98.7949L167.218 97.1848L165.607 96.3032L167.218 95.4216L168.099 93.8115Z" fill="#78B7FA"/>
<path d="M174 71.7609L174.914 71.7006L175.652 71.1531L175.712 72.0718L176.26 72.8096L175.341 72.8699L174.603 73.4128L174.543 72.4987L174 71.7609Z" fill="#78B7FA"/>
<path d="M322.389 144.982L323.303 144.922L324.041 144.375L324.101 145.293L324.648 146.031L323.73 146.091L322.992 146.634L322.932 145.72L322.389 144.982Z" fill="#78B7FA"/>
<path d="M217.855 99.1703L218.77 99.11L219.512 98.5671L219.572 99.4812L220.115 100.219L219.201 100.279L218.459 100.822L218.403 99.9081L217.855 99.1703Z" fill="#78B7FA"/>
<path d="M223.449 59.9626L224.363 59.9023L225.101 59.3594L225.161 60.2734L225.704 61.0112L224.79 61.0715L224.052 61.619L223.992 60.7003L223.449 59.9626Z" fill="#78B7FA"/>
<path d="M195.318 84.2946L196.71 83.4919L197.448 82.0674L198.251 83.4594L199.68 84.2018L198.288 84.9999L197.546 86.429L196.743 85.037L195.318 84.2946Z" fill="#78B7FA"/>
<path d="M312.264 163.412L313.656 162.609L314.393 161.184L315.196 162.576L316.621 163.314L315.229 164.117L314.491 165.541L313.688 164.149L312.264 163.412Z" fill="#78B7FA"/>
<path d="M305.287 137.963L306.679 137.16L307.421 135.736L308.224 137.128L309.649 137.865L308.257 138.668L307.514 140.097L306.716 138.701L305.287 137.963Z" fill="#78B7FA"/>
</svg>
