<svg width="168" height="82" viewBox="0 0 168 82" fill="none" xmlns="http://www.w3.org/2000/svg">
<path d="M35.8262 64.8828C35.8262 66.3281 35.3314 67.4414 34.3418 68.2227C33.3587 68.9974 31.9492 69.3848 30.1133 69.3848H28.4336V75H26.7734V60.7227H30.4746C34.0423 60.7227 35.8262 62.1094 35.8262 64.8828ZM28.4336 67.959H29.9277C31.3991 67.959 32.4635 67.7214 33.1211 67.2461C33.7786 66.7708 34.1074 66.0091 34.1074 64.9609C34.1074 64.0169 33.7982 63.3138 33.1797 62.8516C32.5612 62.3893 31.5977 62.1582 30.2891 62.1582H28.4336V67.959ZM43.4629 64.1016C43.9382 64.1016 44.3646 64.1406 44.7422 64.2188L44.5176 65.7227C44.0749 65.625 43.6842 65.5762 43.3457 65.5762C42.4798 65.5762 41.7376 65.9277 41.1191 66.6309C40.5072 67.334 40.2012 68.2096 40.2012 69.2578V75H38.5801V64.2969H39.918L40.1035 66.2793H40.1816C40.5788 65.5827 41.0573 65.0456 41.6172 64.668C42.1771 64.2904 42.7923 64.1016 43.4629 64.1016ZM48.3652 75H46.7441V64.2969H48.3652V75ZM46.6074 61.3965C46.6074 61.0254 46.6986 60.7552 46.8809 60.5859C47.0632 60.4102 47.291 60.3223 47.5645 60.3223C47.8249 60.3223 48.0495 60.4102 48.2383 60.5859C48.4271 60.7617 48.5215 61.0319 48.5215 61.3965C48.5215 61.7611 48.4271 62.0345 48.2383 62.2168C48.0495 62.3926 47.8249 62.4805 47.5645 62.4805C47.291 62.4805 47.0632 62.3926 46.8809 62.2168C46.6986 62.0345 46.6074 61.7611 46.6074 61.3965ZM56.0801 75.1953C54.5306 75.1953 53.3294 74.7201 52.4766 73.7695C51.6302 72.8125 51.207 71.4616 51.207 69.7168C51.207 67.9264 51.6367 66.543 52.4961 65.5664C53.362 64.5898 54.5924 64.1016 56.1875 64.1016C56.7018 64.1016 57.2161 64.1569 57.7305 64.2676C58.2448 64.3783 58.6484 64.5085 58.9414 64.6582L58.4434 66.0352C58.0853 65.8919 57.6947 65.7747 57.2715 65.6836C56.8483 65.5859 56.474 65.5371 56.1484 65.5371C53.974 65.5371 52.8867 66.9238 52.8867 69.6973C52.8867 71.0124 53.1504 72.0215 53.6777 72.7246C54.2116 73.4277 54.9993 73.7793 56.041 73.7793C56.9329 73.7793 57.8477 73.5872 58.7852 73.2031V74.6387C58.069 75.0098 57.1673 75.1953 56.0801 75.1953ZM62.9551 75H61.334V64.2969H62.9551V75ZM61.1973 61.3965C61.1973 61.0254 61.2884 60.7552 61.4707 60.5859C61.653 60.4102 61.8809 60.3223 62.1543 60.3223C62.4147 60.3223 62.6393 60.4102 62.8281 60.5859C63.0169 60.7617 63.1113 61.0319 63.1113 61.3965C63.1113 61.7611 63.0169 62.0345 62.8281 62.2168C62.6393 62.3926 62.4147 62.4805 62.1543 62.4805C61.8809 62.4805 61.653 62.3926 61.4707 62.2168C61.2884 62.0345 61.1973 61.7611 61.1973 61.3965ZM73.7168 75V68.0762C73.7168 67.2038 73.5182 66.5527 73.1211 66.123C72.724 65.6934 72.1022 65.4785 71.2559 65.4785C70.1361 65.4785 69.3158 65.7812 68.7949 66.3867C68.2741 66.9922 68.0137 67.9915 68.0137 69.3848V75H66.3926V64.2969H67.7109L67.9746 65.7617H68.0527C68.3848 65.2344 68.8503 64.8275 69.4492 64.541C70.0482 64.248 70.7155 64.1016 71.4512 64.1016C72.7402 64.1016 73.7103 64.4141 74.3613 65.0391C75.0124 65.6576 75.3379 66.6504 75.3379 68.0176V75H73.7168ZM87.4375 64.2969V65.3223L85.4551 65.5566C85.6374 65.7845 85.8001 66.084 85.9434 66.4551C86.0866 66.8197 86.1582 67.2331 86.1582 67.6953C86.1582 68.7435 85.8001 69.5801 85.084 70.2051C84.3678 70.8301 83.3848 71.1426 82.1348 71.1426C81.8158 71.1426 81.5163 71.1165 81.2363 71.0645C80.5462 71.429 80.2012 71.888 80.2012 72.4414C80.2012 72.7344 80.3216 72.9525 80.5625 73.0957C80.8034 73.2324 81.2168 73.3008 81.8027 73.3008H83.6973C84.8561 73.3008 85.7448 73.5449 86.3633 74.0332C86.9883 74.5215 87.3008 75.2311 87.3008 76.1621C87.3008 77.347 86.8255 78.2487 85.875 78.8672C84.9245 79.4922 83.5378 79.8047 81.7148 79.8047C80.3151 79.8047 79.2344 79.5443 78.4727 79.0234C77.7174 78.5026 77.3398 77.7669 77.3398 76.8164C77.3398 76.1654 77.5482 75.6022 77.9648 75.127C78.3815 74.6517 78.9674 74.3294 79.7227 74.1602C79.4492 74.0365 79.2181 73.8444 79.0293 73.584C78.847 73.3236 78.7559 73.0208 78.7559 72.6758C78.7559 72.2852 78.86 71.9434 79.0684 71.6504C79.2767 71.3574 79.6055 71.0742 80.0547 70.8008C79.5013 70.5729 79.0488 70.1855 78.6973 69.6387C78.3522 69.0918 78.1797 68.4668 78.1797 67.7637C78.1797 66.5918 78.5312 65.6901 79.2344 65.0586C79.9375 64.4206 80.9336 64.1016 82.2227 64.1016C82.7826 64.1016 83.2871 64.1667 83.7363 64.2969H87.4375ZM78.9023 76.7969C78.9023 77.3763 79.1465 77.8158 79.6348 78.1152C80.123 78.4147 80.8229 78.5645 81.7344 78.5645C83.0951 78.5645 84.1009 78.3594 84.752 77.9492C85.4095 77.5456 85.7383 76.9954 85.7383 76.2988C85.7383 75.7194 85.5592 75.3158 85.2012 75.0879C84.8431 74.8665 84.1693 74.7559 83.1797 74.7559H81.2363C80.5007 74.7559 79.9277 74.9316 79.5176 75.2832C79.1074 75.6348 78.9023 76.1393 78.9023 76.7969ZM79.7812 67.7246C79.7812 68.4733 79.9928 69.0397 80.416 69.4238C80.8392 69.8079 81.4284 70 82.1836 70C83.7656 70 84.5566 69.2318 84.5566 67.6953C84.5566 66.0872 83.7559 65.2832 82.1543 65.2832C81.3926 65.2832 80.8066 65.4883 80.3965 65.8984C79.9863 66.3086 79.7812 66.9173 79.7812 67.7246ZM104.127 64.8828C104.127 66.3281 103.632 67.4414 102.643 68.2227C101.66 68.9974 100.25 69.3848 98.4141 69.3848H96.7344V75H95.0742V60.7227H98.7754C102.343 60.7227 104.127 62.1094 104.127 64.8828ZM96.7344 67.959H98.2285C99.6999 67.959 100.764 67.7214 101.422 67.2461C102.079 66.7708 102.408 66.0091 102.408 64.9609C102.408 64.0169 102.099 63.3138 101.48 62.8516C100.862 62.3893 99.8984 62.1582 98.5898 62.1582H96.7344V67.959ZM108.502 75H106.881V59.8047H108.502V75ZM118.521 75L118.199 73.4766H118.121C117.587 74.1471 117.053 74.6029 116.52 74.8438C115.992 75.0781 115.331 75.1953 114.537 75.1953C113.476 75.1953 112.643 74.9219 112.037 74.375C111.438 73.8281 111.139 73.0501 111.139 72.041C111.139 69.8796 112.867 68.7467 116.324 68.6426L118.141 68.584V67.9199C118.141 67.0801 117.958 66.4616 117.594 66.0645C117.236 65.6608 116.66 65.459 115.865 65.459C114.973 65.459 113.964 65.7324 112.838 66.2793L112.34 65.0391C112.867 64.7526 113.443 64.528 114.068 64.3652C114.7 64.2025 115.331 64.1211 115.963 64.1211C117.239 64.1211 118.183 64.4043 118.795 64.9707C119.413 65.5371 119.723 66.4453 119.723 67.6953V75H118.521ZM114.859 73.8574C115.868 73.8574 116.66 73.5807 117.232 73.0273C117.812 72.474 118.102 71.6992 118.102 70.7031V69.7363L116.48 69.8047C115.191 69.8503 114.26 70.0521 113.688 70.4102C113.121 70.7617 112.838 71.3118 112.838 72.0605C112.838 72.6465 113.014 73.0924 113.365 73.3984C113.723 73.7044 114.221 73.8574 114.859 73.8574ZM130.396 75V68.0762C130.396 67.2038 130.198 66.5527 129.801 66.123C129.404 65.6934 128.782 65.4785 127.936 65.4785C126.816 65.4785 125.995 65.7812 125.475 66.3867C124.954 66.9922 124.693 67.9915 124.693 69.3848V75H123.072V64.2969H124.391L124.654 65.7617H124.732C125.064 65.2344 125.53 64.8275 126.129 64.541C126.728 64.248 127.395 64.1016 128.131 64.1016C129.42 64.1016 130.39 64.4141 131.041 65.0391C131.692 65.6576 132.018 66.6504 132.018 68.0176V75H130.396ZM142.262 72.0801C142.262 73.0762 141.891 73.8444 141.148 74.3848C140.406 74.9251 139.365 75.1953 138.023 75.1953C136.604 75.1953 135.497 74.9707 134.703 74.5215V73.0176C135.217 73.278 135.768 73.4831 136.354 73.6328C136.946 73.7826 137.516 73.8574 138.062 73.8574C138.909 73.8574 139.56 73.724 140.016 73.457C140.471 73.1836 140.699 72.7702 140.699 72.2168C140.699 71.8001 140.517 71.4453 140.152 71.1523C139.794 70.8529 139.091 70.5013 138.043 70.0977C137.047 69.7266 136.337 69.4043 135.914 69.1309C135.497 68.8509 135.185 68.5352 134.977 68.1836C134.775 67.832 134.674 67.4121 134.674 66.9238C134.674 66.0514 135.029 65.3646 135.738 64.8633C136.448 64.3555 137.421 64.1016 138.658 64.1016C139.811 64.1016 140.937 64.3359 142.037 64.8047L141.461 66.123C140.387 65.6803 139.413 65.459 138.541 65.459C137.773 65.459 137.193 65.5794 136.803 65.8203C136.412 66.0612 136.217 66.3932 136.217 66.8164C136.217 67.1029 136.288 67.347 136.432 67.5488C136.581 67.7507 136.819 67.9427 137.145 68.125C137.47 68.3073 138.095 68.571 139.02 68.916C140.289 69.3783 141.145 69.8438 141.588 70.3125C142.037 70.7812 142.262 71.3704 142.262 72.0801Z" fill="#19324A"/>
<g clip-path="url(#clip0)">
<path opacity="0.4" d="M80.5001 6.75H89.5001L92.833 1.74937C92.946 1.57996 93.0109 1.38304 93.0208 1.17962C93.0307 0.976195 92.9852 0.773905 92.8891 0.594326C92.793 0.414747 92.65 0.264615 92.4753 0.159946C92.3006 0.0552758 92.1008 -5.02054e-06 91.8971 3.41985e-10L78.1053 3.41985e-10C77.9016 -5.02054e-06 77.7018 0.0552758 77.5271 0.159946C77.3524 0.264615 77.2094 0.414747 77.1133 0.594326C77.0172 0.773905 76.9717 0.976195 76.9816 1.17962C76.9915 1.38304 77.0564 1.57996 77.1694 1.74937L80.5001 6.75ZM89.5001 9H80.5001C66.2703 17.1141 67.0065 27.8888 67.0065 29.25C67.0065 32.9766 70.4595 36 74.7183 36H95.2833C99.5429 36 102.995 32.9766 102.995 29.25C102.995 27.9141 103.653 17.0691 89.5001 9ZM86.225 28.5469V29.7661C86.2239 29.9275 86.1589 30.0818 86.0442 30.1954C85.9296 30.309 85.7746 30.3726 85.6133 30.3722H84.3891C84.2277 30.3726 84.0726 30.309 83.9579 30.1955C83.8431 30.0819 83.778 29.9275 83.7767 29.7661V28.5349C82.9096 28.4907 82.0746 28.1932 81.3748 27.6792C81.3055 27.6265 81.2484 27.5592 81.2077 27.4822C81.167 27.4052 81.1436 27.3202 81.1391 27.2331C81.1346 27.1461 81.1491 27.0591 81.1817 26.9783C81.2143 26.8975 81.2641 26.8247 81.3277 26.7652L82.2305 25.9172C82.3349 25.823 82.4678 25.7665 82.608 25.7568C82.7482 25.7472 82.8877 25.7848 83.004 25.8638C83.2983 26.046 83.6373 26.1433 83.9834 26.145H86.1336C86.6307 26.145 87.0364 25.6985 87.0364 25.1452C87.0364 24.6909 86.7608 24.2972 86.3628 24.184L82.9175 23.1616C81.4944 22.7398 80.4994 21.3898 80.4994 19.8752C80.4994 18.0204 81.9535 16.5129 83.7662 16.4602V15.2311C83.7675 15.0692 83.833 14.9144 83.9483 14.8007C84.0637 14.6871 84.2195 14.6239 84.3814 14.625H85.6055C85.7669 14.6246 85.9219 14.6882 86.0365 14.8018C86.1511 14.9154 86.2161 15.0697 86.2172 15.2311V16.4651C87.0846 16.5092 87.9199 16.8067 88.6198 17.3208C88.6827 17.3688 88.7354 17.4287 88.775 17.4972C88.8146 17.5656 88.8403 17.6412 88.8507 17.7196C88.861 17.798 88.8557 17.8776 88.8352 17.954C88.8146 18.0304 88.7792 18.1019 88.7309 18.1645C88.7112 18.1896 88.6896 18.2131 88.6662 18.2348L87.7712 19.0927C87.6669 19.187 87.5339 19.2435 87.3936 19.253C87.2533 19.2626 87.1139 19.2247 86.9977 19.1454C86.7033 18.9635 86.3644 18.8662 86.0183 18.8641H83.8688C83.3717 18.8641 82.966 19.3106 82.966 19.8633C82.966 20.3175 83.2416 20.7113 83.6389 20.8252L87.0842 21.8475C88.5073 22.2694 89.5015 23.6194 89.5015 25.1339C89.4917 26.9902 88.0306 28.5047 86.225 28.5469Z" fill="#808D9B"/>
<path d="M87.0841 21.8475L83.6388 20.8252C83.2415 20.7112 82.9659 20.3175 82.9659 19.8633C82.9659 19.3106 83.3716 18.8641 83.8687 18.8641H86.0174C86.3635 18.8662 86.7024 18.9635 86.9969 19.1454C87.113 19.2247 87.2524 19.2626 87.3927 19.253C87.533 19.2435 87.666 19.187 87.7703 19.0927L88.6654 18.2348C88.6887 18.2131 88.7104 18.1896 88.7301 18.1645C88.7784 18.102 88.8139 18.0305 88.8346 17.9542C88.8553 17.8779 88.8607 17.7983 88.8505 17.7199C88.8403 17.6415 88.8147 17.5659 88.7752 17.4974C88.7357 17.4289 88.6831 17.3689 88.6204 17.3208C87.9204 16.8067 87.0851 16.5092 86.2178 16.4651V15.2311C86.2167 15.0697 86.1517 14.9154 86.0371 14.8018C85.9224 14.6882 85.7675 14.6246 85.6061 14.625H84.3812C84.2194 14.6241 84.0639 14.6873 83.9487 14.801C83.8335 14.9146 83.768 15.0693 83.7667 15.2311V16.4602C81.9541 16.5129 80.5 18.0204 80.5 19.8752C80.5 21.3898 81.4949 22.7398 82.918 23.1616L86.3634 24.184C86.7613 24.2972 87.037 24.6909 87.037 25.1452C87.037 25.6985 86.6313 26.145 86.1341 26.145H83.984C83.6378 26.1433 83.2989 26.046 83.0045 25.8638C82.8882 25.7848 82.7488 25.7472 82.6086 25.7568C82.4684 25.7665 82.3354 25.823 82.2311 25.9172L81.3283 26.7652C81.2647 26.8247 81.2149 26.8975 81.1823 26.9783C81.1497 27.0591 81.1351 27.1461 81.1396 27.2331C81.1441 27.3202 81.1675 27.4052 81.2083 27.4822C81.249 27.5592 81.306 27.6265 81.3754 27.6792C82.0751 28.1932 82.9102 28.4907 83.7773 28.5349V29.7661C83.7786 29.9275 83.8437 30.0819 83.9585 30.1955C84.0732 30.309 84.2282 30.3726 84.3897 30.3722H85.6138C85.7752 30.3726 85.9302 30.309 86.0448 30.1954C86.1594 30.0818 86.2244 29.9275 86.2255 29.7661V28.5469C88.0312 28.5047 89.4923 26.9902 89.5021 25.1339C89.5 23.6194 88.5072 22.2694 87.0841 21.8475ZM90.1328 6.75H79.8672C79.718 6.75 79.5749 6.80926 79.4694 6.91475C79.364 7.02024 79.3047 7.16332 79.3047 7.3125V8.4375C79.3047 8.58668 79.364 8.72976 79.4694 8.83525C79.5749 8.94074 79.718 9 79.8672 9H90.1328C90.282 9 90.4251 8.94074 90.5306 8.83525C90.636 8.72976 90.6953 8.58668 90.6953 8.4375V7.3125C90.6953 7.16332 90.636 7.02024 90.5306 6.91475C90.4251 6.80926 90.282 6.75 90.1328 6.75Z" fill="#808D9B"/>
</g>
<defs>
<clipPath id="clip0">
<rect width="36" height="36" fill="white" transform="translate(67)"/>
</clipPath>
</defs>
</svg>
