<svg width="53" height="42" viewBox="0 0 53 42" fill="none" xmlns="http://www.w3.org/2000/svg">
<g clip-path="url(#clip0)">
<path opacity="0.4" d="M51.7289 29.9332L44.3214 22.534C43.8332 22.0467 43.2537 21.6604 42.6161 21.3972C41.9785 21.134 41.2952 20.999 40.6054 21H34.1003C33.4042 21 32.7365 21.2766 32.2442 21.7689C31.7519 22.2611 31.4753 22.9288 31.4753 23.625V30.1219C31.4745 30.8104 31.6096 31.4924 31.8728 32.1287C32.136 32.7649 32.5223 33.343 33.0093 33.8297L40.4168 41.2289C40.6606 41.4732 40.9502 41.667 41.269 41.7993C41.5878 41.9315 41.9296 41.9996 42.2748 41.9996C42.6199 41.9996 42.9617 41.9315 43.2805 41.7993C43.5993 41.667 43.8889 41.4732 44.1328 41.2289L51.7207 33.641C51.9658 33.3988 52.1607 33.1104 52.2939 32.7925C52.4271 32.4746 52.4961 32.1335 52.4968 31.7888C52.4976 31.4441 52.4301 31.1027 52.2983 30.7843C52.1665 30.4658 51.973 30.1765 51.7289 29.9332ZM36.7335 28.2106C36.3442 28.2106 35.9635 28.0951 35.6398 27.8788C35.316 27.6624 35.0637 27.355 34.9147 26.9952C34.7656 26.6355 34.7267 26.2396 34.8026 25.8577C34.8786 25.4758 35.0661 25.125 35.3414 24.8497C35.6168 24.5744 35.9676 24.3868 36.3495 24.3109C36.7314 24.2349 37.1272 24.2739 37.487 24.4229C37.8467 24.5719 38.1542 24.8243 38.3705 25.148C38.5868 25.4718 38.7023 25.8524 38.7023 26.2418C38.7029 26.5005 38.6525 26.7568 38.5538 26.996C38.455 27.2351 38.3101 27.4524 38.1271 27.6354C37.9442 27.8183 37.7269 27.9633 37.4877 28.062C37.2486 28.1607 36.9923 28.2112 36.7335 28.2106Z" fill="#2CBA67"/>
<path d="M31.1636 35.6837C30.4302 34.9539 29.8488 34.0858 29.4531 33.1297C29.0574 32.1736 28.8554 31.1485 28.8586 30.1138V24.1173C27.8578 23.822 26.816 23.6087 25.725 23.6087H24.3551C22.48 24.4734 20.4398 24.9212 18.375 24.9212C16.3102 24.9212 14.2699 24.4734 12.3949 23.6087H11.025C8.10076 23.6127 5.29754 24.7766 3.23057 26.8451C1.16359 28.9136 0.00173567 31.7177 0 34.6419L0 38.0544C0 39.0987 0.414842 40.1003 1.15327 40.8387C1.89169 41.5771 2.89321 41.9919 3.9375 41.9919H32.8125C33.415 41.9899 34.0089 41.8489 34.5481 41.58C35.0873 41.3111 35.5573 40.9216 35.9215 40.4416L31.1636 35.6837ZM18.375 20.9919C20.452 20.9919 22.4824 20.3759 24.2093 19.2218C25.9362 18.0677 27.282 16.4273 28.0765 14.5082C28.871 12.5891 29.0784 10.4775 28.6726 8.44048C28.2668 6.40346 27.266 4.53255 25.7967 3.06443C24.3274 1.5963 22.4557 0.596921 20.4184 0.192703C18.3811 -0.211515 16.2696 -0.00240875 14.3511 0.793569C12.4326 1.58955 10.7933 2.93664 9.64057 4.66443C8.48781 6.39223 7.87337 8.4231 7.87499 10.5002C7.87717 13.2835 8.98437 15.9521 10.9533 17.9195C12.9222 19.8868 15.5916 20.9919 18.375 20.9919Z" fill="#0084F8"/>
</g>
<defs>
<clipPath id="clip0">
<rect width="52.5" height="42" fill="white"/>
</clipPath>
</defs>
</svg>
