<svg width="60" height="60" viewBox="0 0 60 60" fill="none" xmlns="http://www.w3.org/2000/svg">
<path d="M30 60C24.0666 60 18.2664 58.2405 13.3329 54.9441C8.39943 51.6476 4.55425 46.9623 2.28363 41.4805C0.0129974 35.9987 -0.581101 29.9667 0.576455 24.1473C1.73401 18.3279 4.59123 12.9824 8.78681 8.78681C12.9824 4.59123 18.3279 1.73401 24.1473 0.576455C29.9667 -0.581101 35.9987 0.0129974 41.4805 2.28363C46.9623 4.55425 51.6476 8.39943 54.9441 13.3329C58.2405 18.2664 60 24.0666 60 30C59.991 37.9537 56.8274 45.5791 51.2033 51.2033C45.5791 56.8274 37.9537 59.991 30 60ZM30 0.571442C24.1796 0.571442 18.4899 2.2974 13.6504 5.53105C8.81087 8.7647 5.03894 13.3608 2.81156 18.7382C0.584184 24.1156 0.00139856 30.0326 1.13691 35.7412C2.27241 41.4498 5.07521 46.6935 9.19087 50.8091C13.3065 54.9248 18.5502 57.7276 24.2588 58.8631C29.9674 59.9986 35.8845 59.4158 41.2618 57.1885C46.6392 54.9611 51.2353 51.1891 54.469 46.3496C57.7026 41.5101 59.4286 35.8204 59.4286 30C59.4198 22.1978 56.3164 14.7176 50.7994 9.20061C45.2824 3.68359 37.8022 0.58026 30 0.571442Z" fill="#3F3D56"/>
<path d="M45.9035 25.337H41.9766V13.733C41.9769 13.3921 42.1125 13.0653 42.3536 12.8243C42.5946 12.5832 42.9214 12.4476 43.2623 12.4473H44.6177C44.9586 12.4476 45.2854 12.5832 45.5265 12.8243C45.7675 13.0653 45.9031 13.3921 45.9035 13.733V25.337Z" fill="#3F3D56"/>
<path d="M48.2889 45.0833H10.752L10.6172 23.9272C10.6158 23.6004 10.68 23.2766 10.8061 22.9751C10.9322 22.6736 11.1175 22.4005 11.3512 22.1719L20.7808 12.9874C21.2281 12.5501 21.8275 12.3032 22.4531 12.2986L38.2353 12.1543C38.5931 12.1521 38.9471 12.2285 39.2722 12.3781C39.5973 12.5277 39.8855 12.7469 40.1166 13.0201L40.118 13.0218L47.614 22.2147C48.05 22.7504 48.2883 23.4198 48.2889 24.1105L48.2889 45.0833Z" fill="#3F3D56"/>
<path d="M48.2698 45.0843H28.0977V26.124C28.0978 25.5463 28.3038 24.9876 28.6785 24.548L37.443 14.2725V14.2726C37.6708 14.005 37.954 13.7902 38.273 13.643C38.5921 13.4957 38.9393 13.4196 39.2907 13.4199H39.2999C39.6528 13.421 40.0012 13.4991 40.3208 13.6487C40.6405 13.7984 40.9235 14.016 41.1503 14.2864L47.7008 22.0847C48.0681 22.5224 48.2695 23.0754 48.2698 23.6468V45.0843Z" fill="#58C2F1"/>
<path d="M39.7227 37.7994H36.8041C36.6148 37.7992 36.4332 37.7238 36.2993 37.5899C36.1654 37.456 36.0901 37.2745 36.0898 37.0851V34.6381C36.0901 34.4487 36.1654 34.2672 36.2993 34.1333C36.4332 33.9994 36.6148 33.9241 36.8041 33.9238H39.7227C39.912 33.9241 40.0936 33.9994 40.2275 34.1333C40.3614 34.2672 40.4367 34.4487 40.4369 34.6381V37.0851C40.4367 37.2745 40.3614 37.456 40.2275 37.5899C40.0936 37.7238 39.912 37.7992 39.7227 37.7994Z" fill="white"/>
<path d="M39.7227 31.5276H36.8041C36.6148 31.5274 36.4332 31.4521 36.2993 31.3182C36.1654 31.1843 36.0901 31.0027 36.0898 30.8133V28.4233C36.0901 28.2339 36.1654 28.0523 36.2993 27.9184C36.4332 27.7845 36.6148 27.7092 36.8041 27.709H39.7227C39.912 27.7092 40.0936 27.7845 40.2275 27.9184C40.3614 28.0523 40.4367 28.2339 40.4369 28.4233V30.8133C40.4367 31.0027 40.3614 31.1843 40.2275 31.3182C40.0936 31.4521 39.912 31.5274 39.7227 31.5276Z" fill="white"/>
<path d="M21.6757 36.8461H18.7573C18.5679 36.8459 18.3863 36.7706 18.2524 36.6367C18.1185 36.5028 18.0432 36.3212 18.043 36.1318V33.685C18.0432 33.4956 18.1185 33.3141 18.2524 33.1802C18.3863 33.0463 18.5679 32.9709 18.7573 32.9707H21.6757C21.8651 32.9709 22.0466 33.0463 22.1805 33.1802C22.3144 33.3141 22.3898 33.4956 22.39 33.685V36.1318C22.3898 36.3212 22.3144 36.5028 22.1805 36.6367C22.0466 36.7706 21.8651 36.8459 21.6757 36.8461Z" fill="white"/>
<path d="M21.6757 30.5763H18.7573C18.5679 30.5761 18.3863 30.5008 18.2524 30.3669C18.1185 30.2329 18.0432 30.0514 18.043 29.862V27.4721C18.0432 27.2827 18.1185 27.1012 18.2524 26.9673C18.3863 26.8334 18.5679 26.758 18.7573 26.7578H21.6757C21.8651 26.758 22.0466 26.8334 22.1805 26.9673C22.3144 27.1012 22.3898 27.2827 22.39 27.4721V29.862C22.3898 30.0514 22.3144 30.2329 22.1805 30.3669C22.0466 30.5008 21.8651 30.5761 21.6757 30.5763Z" fill="white"/>
<path d="M55.5352 45.3312H4.47712C4.40134 45.3312 4.32867 45.3011 4.27509 45.2475C4.2215 45.1939 4.19141 45.1213 4.19141 45.0455C4.19141 44.9697 4.2215 44.897 4.27509 44.8434C4.32867 44.7899 4.40134 44.7598 4.47712 44.7598H55.5352C55.611 44.7598 55.6837 44.7899 55.7372 44.8434C55.7908 44.897 55.8209 44.9697 55.8209 45.0455C55.8209 45.1213 55.7908 45.1939 55.7372 45.2475C55.6837 45.3011 55.611 45.3312 55.5352 45.3312Z" fill="#3F3D56"/>
</svg>
