<svg width="207" height="44" viewBox="0 0 207 44" fill="none" xmlns="http://www.w3.org/2000/svg">
<path d="M48.5243 42.0557V33.1103C48.5243 32.427 49.0182 31.9611 49.6664 31.9611H52.6606C55.0066 31.9611 56.6117 33.3898 56.6117 35.533C56.6117 37.6451 54.9757 39.136 52.6606 39.136H50.7468V42.0868C50.7468 42.739 50.2529 43.236 49.6355 43.236C48.9873 43.236 48.5243 42.708 48.5243 42.0557ZM52.6606 37.1482C53.6792 37.1482 54.3275 36.5269 54.3275 35.533C54.3275 34.5701 53.6792 33.9489 52.6606 33.9489H50.7776V37.1482H52.6606Z" fill="#0C78E5"/>
<path d="M66.6748 42.18C66.6748 42.7391 66.181 43.205 65.6253 43.205C65.224 43.205 64.8845 43.0186 64.6376 42.6149L62.1681 39.105H62.1373H60.2234V42.0558C60.2234 42.708 59.7296 43.205 59.1122 43.205C58.464 43.205 57.9701 42.708 57.9701 42.0558V33.0793C57.9701 32.427 58.464 31.9301 59.1122 31.9301H62.1064C64.4523 31.9301 66.0575 33.3588 66.0575 35.4709C66.0575 36.8065 65.4092 37.8937 64.3289 38.5149L66.3044 41.2793C66.5514 41.6209 66.6748 41.9315 66.6748 42.18ZM60.2234 37.1172H62.1064C63.125 37.1172 63.7733 36.4959 63.7733 35.5331C63.7733 34.5702 63.125 33.949 62.1064 33.949H60.2234V37.1172Z" fill="#0C78E5"/>
<path d="M79.0526 37.4898C79.0526 40.6891 76.4597 43.236 73.1877 43.236C69.9157 43.236 67.3536 40.7201 67.3536 37.4898C67.3536 34.2596 69.9157 31.7437 73.1877 31.7437C76.4905 31.7437 79.0526 34.2906 79.0526 37.4898ZM69.6687 37.4898C69.6687 39.633 71.1504 41.1239 73.1877 41.1239C75.225 41.1239 76.7066 39.602 76.7066 37.4898C76.7066 35.3777 75.225 33.8558 73.1877 33.8558C71.1504 33.8558 69.6687 35.3467 69.6687 37.4898Z" fill="#0C78E5"/>
<path d="M80.5342 42.0557V33.1103C80.5342 32.427 81.0281 31.9611 81.6763 31.9611H84.6705C87.0164 31.9611 88.6216 33.3898 88.6216 35.533C88.6216 37.6451 86.9856 39.136 84.6705 39.136H82.7567V42.0868C82.7567 42.739 82.2628 43.236 81.6454 43.236C81.0281 43.236 80.5342 42.708 80.5342 42.0557ZM84.6705 37.1482C85.6891 37.1482 86.3374 36.5269 86.3374 35.533C86.3374 34.5701 85.6891 33.9489 84.6705 33.9489H82.7875V37.1482H84.6705Z" fill="#0C78E5"/>
<path d="M90.0106 41.9004V33.0792C90.0106 32.427 90.5045 31.9611 91.1219 31.9611H96.4929C97.0794 31.9611 97.5115 32.3959 97.5115 32.9861C97.5115 33.5451 97.0485 34.0111 96.4929 34.0111H92.2331V36.2474H95.1656C95.7212 36.2474 96.1533 36.6822 96.1533 37.2103C96.1533 37.7383 95.7212 38.1732 95.1656 38.1732H92.2331V40.9686H96.6781C97.2646 40.9686 97.6967 41.4345 97.6967 41.9936C97.6967 42.5837 97.2337 43.0186 96.6781 43.0186H91.091C90.4736 43.0186 90.0106 42.5527 90.0106 41.9004Z" fill="#0C78E5"/>
<path d="M107.791 42.18C107.791 42.7391 107.297 43.205 106.741 43.205C106.34 43.205 106 43.0186 105.754 42.6149L103.284 39.105H103.253H101.339V42.0558C101.339 42.708 100.846 43.205 100.228 43.205C99.5799 43.205 99.0861 42.708 99.0861 42.0558V33.0793C99.0861 32.427 99.5799 31.9301 100.228 31.9301H103.222C105.568 31.9301 107.173 33.3588 107.173 35.4709C107.173 36.8065 106.525 37.8937 105.445 38.5149L107.42 41.2793C107.698 41.6209 107.791 41.9315 107.791 42.18ZM101.37 37.1172H103.253C104.272 37.1172 104.92 36.4959 104.92 35.5331C104.92 34.5702 104.272 33.949 103.253 33.949H101.37V37.1172Z" fill="#0C78E5"/>
<path d="M111.464 42.0558V33.98H108.84C108.254 33.98 107.822 33.5141 107.822 32.955C107.822 32.3649 108.285 31.9301 108.84 31.9301H116.31C116.897 31.9301 117.329 32.3649 117.329 32.955C117.329 33.5141 116.866 33.98 116.31 33.98H113.686V42.0558C113.686 42.708 113.193 43.205 112.544 43.205C111.927 43.2361 111.464 42.708 111.464 42.0558Z" fill="#0C78E5"/>
<path d="M126.527 33.5762L123.348 38.7944V42.0557C123.348 42.708 122.854 43.205 122.206 43.205C121.558 43.205 121.095 42.708 121.095 42.0557V38.7944L117.977 33.5762C117.792 33.2967 117.73 33.0793 117.73 32.8308C117.73 32.2406 118.224 31.7437 118.841 31.7437C119.335 31.7437 119.644 31.93 119.922 32.427L122.298 36.558L124.675 32.427C124.922 31.9611 125.231 31.7437 125.725 31.7437C126.342 31.7437 126.836 32.2096 126.836 32.8308C126.774 33.1103 126.713 33.3277 126.527 33.5762Z" fill="#0C78E5"/>
<path d="M142.64 32.924V42.0557C142.64 42.708 142.147 43.205 141.529 43.205C140.881 43.205 140.387 42.708 140.387 42.0557V36.5891L138.319 39.8504C138.01 40.3474 137.702 40.5648 137.239 40.5648C136.806 40.5648 136.498 40.3474 136.158 39.8504L134.09 36.558V42.0557C134.09 42.708 133.596 43.205 132.979 43.205C132.331 43.205 131.837 42.708 131.837 42.0557V32.924C131.837 32.2406 132.3 31.7437 132.948 31.7437C133.442 31.7437 133.75 31.9921 134.121 32.6133L137.208 37.552L140.294 32.6133C140.696 31.9611 141.004 31.7437 141.467 31.7437C142.177 31.7437 142.64 32.2717 142.64 32.924Z" fill="#0C78E5"/>
<path d="M153.938 42.149C153.938 42.7391 153.475 43.2361 152.827 43.2361C152.333 43.2361 151.963 42.9565 151.747 42.4285L151.284 41.2793H146.623L146.16 42.4285C145.974 42.9565 145.604 43.2361 145.11 43.2361C144.462 43.2361 143.999 42.7391 143.999 42.149C143.999 41.9937 144.061 41.7762 144.122 41.5588L147.888 32.5513C148.073 32.0543 148.444 31.7748 148.969 31.7748C149.493 31.7748 149.833 32.0543 150.049 32.5513L153.815 41.5588C153.907 41.7762 153.938 41.9626 153.938 42.149ZM147.394 39.4157H150.574L148.999 35.0983L147.394 39.4157Z" fill="#0C78E5"/>
<path d="M164.711 32.924V42.0869C164.711 42.7391 164.248 43.2361 163.6 43.2361C163.044 43.2361 162.797 42.9255 162.489 42.5528L157.581 36.2164V42.0869C157.581 42.7391 157.087 43.2361 156.469 43.2361C155.821 43.2361 155.327 42.7391 155.327 42.0869V32.924C155.327 32.2717 155.821 31.7748 156.439 31.7748C156.994 31.7748 157.241 32.0854 157.581 32.5202L162.458 38.8255L162.427 32.9551C162.427 32.3028 162.921 31.8058 163.569 31.8058C164.217 31.7437 164.711 32.2717 164.711 32.924Z" fill="#0C78E5"/>
<path d="M176.009 42.149C176.009 42.7391 175.546 43.2361 174.897 43.2361C174.404 43.2361 174.033 42.9565 173.817 42.4285L173.354 41.2793H168.693L168.23 42.4285C168.045 42.9565 167.674 43.2361 167.18 43.2361C166.532 43.2361 166.069 42.7391 166.069 42.149C166.069 41.9937 166.131 41.7762 166.193 41.5588L169.959 32.5513C170.144 32.0543 170.514 31.7748 171.039 31.7748C171.564 31.7748 171.903 32.0543 172.119 32.5513L175.885 41.5588C175.978 41.7762 176.009 41.9626 176.009 42.149ZM169.465 39.4157H172.644L171.07 35.0983L169.465 39.4157Z" fill="#0C78E5"/>
<path d="M176.533 37.4898C176.533 34.2596 179.095 31.7437 182.429 31.7437C183.942 31.7437 185.423 32.3338 186.319 33.2967C186.812 33.7626 186.998 34.1042 186.998 34.477C186.998 35.0361 186.535 35.502 185.979 35.502C185.639 35.502 185.362 35.3777 185.022 35.005C184.281 34.1974 183.448 33.8247 182.398 33.8247C180.299 33.8247 178.879 35.3156 178.879 37.4588C178.879 39.6641 180.392 41.155 182.553 41.155C183.757 41.155 184.806 40.658 185.454 39.8194V38.8565H183.355C182.769 38.8565 182.306 38.4217 182.306 37.8936C182.306 37.3345 182.769 36.8997 183.355 36.8997H186.566C187.245 36.8997 187.708 37.3967 187.708 38.0489V39.4777C187.708 39.9747 187.615 40.3474 187.368 40.7512C186.38 42.2421 184.405 43.1739 182.46 43.1739C179.095 43.236 176.533 40.7201 176.533 37.4898Z" fill="#0C78E5"/>
<path d="M189.189 41.9004V33.0792C189.189 32.427 189.683 31.9611 190.3 31.9611H195.702C196.289 31.9611 196.721 32.3959 196.721 32.9861C196.721 33.5451 196.258 34.0111 195.702 34.0111H191.443V36.2474H194.375C194.931 36.2474 195.363 36.6822 195.363 37.2103C195.363 37.7383 194.931 38.1732 194.375 38.1732H191.443V40.9686H195.888C196.474 40.9686 196.906 41.4345 196.906 41.9936C196.906 42.5837 196.443 43.0186 195.888 43.0186H190.3C189.683 43.0186 189.189 42.5527 189.189 41.9004Z" fill="#0C78E5"/>
<path d="M207 42.18C207 42.7391 206.506 43.205 205.951 43.205C205.549 43.205 205.21 43.0186 204.963 42.6149L202.493 39.105H202.462H200.549V42.0558C200.549 42.708 200.055 43.205 199.437 43.205C198.789 43.205 198.295 42.708 198.295 42.0558V33.0793C198.295 32.427 198.789 31.9301 199.437 31.9301H202.432C204.778 31.9301 206.383 33.3588 206.383 35.4709C206.383 36.8065 205.734 37.8937 204.654 38.5149L206.63 41.2793C206.877 41.6209 207 41.9315 207 42.18ZM200.549 37.1172H202.432C203.45 37.1172 204.098 36.4959 204.098 35.5331C204.098 34.5702 203.45 33.949 202.432 33.949H200.549V37.1172Z" fill="#0C78E5"/>
<path d="M59.6676 9.31793C58.3712 8.35506 56.9204 8.26188 56.3339 8.26188C55.2535 8.26188 54.1114 8.57248 53.1545 9.16263C52.9384 9.28687 52.7224 9.41112 52.5372 9.56642V3.72705C52.5372 3.07478 52.0124 2.54675 51.3642 2.54675H50.7159C50.0677 2.54675 49.543 3.07478 49.543 3.72705V21.4005C49.543 22.0527 50.0677 22.5808 50.7159 22.5808H51.3642C52.0124 22.5808 52.5372 22.0527 52.5372 21.4005V14.4429C52.5372 13.977 52.568 13.7285 52.6915 13.449C53.1545 12.2997 54.4201 11.1194 56.0252 11.1194C56.55 11.1194 57.3217 11.2126 57.9082 11.7096C58.6181 12.2997 58.9577 13.3247 58.9577 14.7535V21.4005C58.9577 22.0527 59.4824 22.5808 60.1307 22.5808H60.7789C61.4271 22.5808 61.9519 22.0527 61.9519 21.4005V14.7225C61.9519 12.2376 61.1802 10.4361 59.6676 9.31793Z" fill="#0C78E5"/>
<path d="M70.4717 8.2619C68.527 8.2619 66.7367 8.97629 65.3785 10.2498C63.9277 11.6475 63.156 13.5111 63.156 15.6854C63.156 17.6732 63.866 19.5058 65.1933 20.8103C66.4897 22.1459 68.3109 22.8603 70.3174 22.8603C72.1386 22.8603 73.9598 22.2081 75.2871 21.0899C76.3983 20.127 77.7565 18.3876 77.7565 15.4058C77.7565 13.449 77.0466 11.6475 75.781 10.343C74.4228 9.00735 72.6016 8.2619 70.4717 8.2619ZM70.3791 20.127C69.0826 20.127 68.0023 19.63 67.2306 18.7293C66.5515 17.9217 66.1502 16.8035 66.1502 15.6543C66.1502 14.4429 66.5206 13.2937 67.1997 12.4861C67.9714 11.5543 69.1135 11.0573 70.4717 11.0573C72.1694 11.0573 73.1572 11.8649 73.7128 12.5172C74.3611 13.3248 74.7315 14.4429 74.7315 15.499C74.7315 16.6793 74.3302 17.8285 73.6202 18.6672C72.8177 19.63 71.7064 20.127 70.3791 20.127Z" fill="#0C78E5"/>
<path d="M97.1721 9.41114C95.9374 8.38614 94.5483 8.2619 93.9927 8.2619C92.3876 8.2619 91.2763 8.66569 90.1033 9.69068C89.8873 9.90811 89.6712 10.1255 89.4551 10.343C89.023 9.75281 88.4982 9.25584 87.9117 8.91417C87.2017 8.47933 86.3683 8.2619 85.5349 8.2619C84.0841 8.2619 82.8494 8.69675 81.8616 9.53538C81.769 8.97629 81.2751 8.54145 80.7195 8.54145H79.8243C79.5774 8.54145 79.3613 8.63463 79.1761 8.82099C79.0218 9.00735 78.9291 9.25584 78.96 9.47326C79.0218 10.343 79.0526 11.2748 79.0526 12.3619V21.3694C79.0526 22.0217 79.5774 22.5497 80.2256 22.5497H80.8738C81.5221 22.5497 82.0468 22.0217 82.0468 21.3694V14.2255C82.0468 13.946 82.1085 13.6354 82.2011 13.3558C82.8185 11.8028 84.1767 11.0884 85.1645 11.0884C85.9053 11.0884 86.5227 11.3679 86.9548 11.927C87.4178 12.4861 87.6339 13.2937 87.6339 14.2566V21.4005C87.6339 22.0528 88.1587 22.5808 88.8069 22.5808H89.4551C90.1033 22.5808 90.6281 22.0528 90.6281 21.4005V13.8838C90.6281 13.5732 90.7207 13.2626 90.8133 13.0142C91.2146 12.0513 92.2332 11.0884 93.5605 11.0884C94.3014 11.0884 94.9187 11.3058 95.3509 11.7407C95.9374 12.3619 96.246 13.4179 96.246 14.8778V21.4005C96.246 22.0528 96.7708 22.5808 97.419 22.5808H98.0673C98.7155 22.5808 99.2402 22.0528 99.2402 21.4005V14.8778C99.2402 12.3929 98.5303 10.5604 97.1721 9.41114Z" fill="#0C78E5"/>
<path d="M110.754 19.8165H104.457C104.365 19.8165 104.303 19.7543 104.303 19.7233C104.303 19.6922 104.272 19.599 104.334 19.5369L111.711 10.8089C111.773 10.7157 111.835 10.6226 111.835 10.4983L111.865 9.81499C111.865 9.50439 111.773 9.19378 111.526 8.9453C111.31 8.72787 111.001 8.57257 110.692 8.57257H101.463C100.815 8.57257 100.29 9.1006 100.29 9.75287V10.1567C100.29 10.8089 100.815 11.337 101.463 11.337H107.081C107.204 11.337 107.266 11.4301 107.297 11.4612C107.328 11.4923 107.359 11.6165 107.266 11.7097L100.012 20.2824C99.827 20.4998 99.7344 20.7793 99.7344 21.0589V21.4005C99.7344 22.0528 100.259 22.5808 100.907 22.5808H110.754C111.402 22.5808 111.927 22.0528 111.927 21.4005V20.9968C111.927 20.3445 111.402 19.8165 110.754 19.8165Z" fill="#0C78E5"/>
<path d="M123.503 9.50428C122.237 8.57246 120.786 8.47928 120.261 8.47928C119.181 8.47928 118.07 8.78989 117.144 9.38003C116.866 9.53534 116.619 9.7217 116.372 9.93912V3.91339C116.372 3.26112 115.847 2.73309 115.199 2.73309H114.798C114.15 2.73309 113.625 3.26112 113.625 3.91339V21.3694C113.625 22.0216 114.15 22.5497 114.798 22.5497H115.199C115.847 22.5497 116.372 22.0216 116.372 21.3694V14.505C116.372 14.008 116.403 13.7596 116.526 13.48C116.989 12.2997 118.317 11.0884 119.953 11.0884C121.126 11.0884 121.99 11.5232 122.484 12.3929C122.947 13.1694 123.04 14.1633 123.04 14.8467V21.3694C123.04 22.0216 123.564 22.5497 124.213 22.5497H124.614C125.262 22.5497 125.787 22.0216 125.787 21.3694V14.7846C125.756 12.3618 124.984 10.5914 123.503 9.50428Z" fill="#4FA800"/>
<path d="M138.597 18.8226V9.93927C138.597 9.287 138.072 8.75897 137.424 8.75897H137.023C136.374 8.75897 135.85 9.287 135.85 9.93927V16.9589C135.85 17.3006 135.757 17.6733 135.603 18.0771C135.109 19.1332 133.874 20.2203 132.238 20.2203C131.25 20.2203 130.54 19.9097 130.046 19.2574C129.553 18.5741 129.306 17.5491 129.306 16.1203V9.93927C129.306 9.287 128.781 8.75897 128.133 8.75897H127.731C127.083 8.75897 126.558 9.287 126.558 9.93927V16.3998C126.558 18.8847 127.237 20.7173 128.627 21.8044C129.491 22.4877 130.633 22.8604 131.929 22.8604C133.442 22.8604 134.862 22.3324 135.973 21.3695H136.004C136.035 21.3695 136.035 21.4006 136.035 21.4006C136.066 22.0529 136.56 22.5498 137.208 22.5498H137.979C138.196 22.5498 138.381 22.4566 138.535 22.3013C138.689 22.146 138.751 21.9286 138.72 21.7112C138.628 20.8415 138.597 19.9407 138.597 18.8226Z" fill="#4FA800"/>
<path d="M151.592 10.5603C150.388 9.19367 148.66 8.47928 146.746 8.47928C145.017 8.47928 143.505 9.00731 142.363 9.97018V3.91339C142.363 3.26112 141.838 2.73309 141.19 2.73309H140.789C140.14 2.73309 139.616 3.26112 139.616 3.91339V18.8224C139.616 19.9095 139.585 20.8413 139.523 21.711V21.8663C139.523 22.0216 139.554 22.208 139.677 22.3322C139.801 22.4565 139.955 22.5186 140.109 22.5186H141.005C141.653 22.5186 142.147 22.0216 142.178 21.3694C142.178 21.3694 142.178 21.3694 142.208 21.3694C143.351 22.3633 144.77 22.8292 146.53 22.8292C147.394 22.8292 148.228 22.6739 149.03 22.3633C149.864 22.0527 150.605 21.5557 151.222 20.9656C152.611 19.5989 153.352 17.7042 153.352 15.4679C153.383 13.6043 152.765 11.8338 151.592 10.5603ZM150.635 15.53C150.635 16.9898 150.234 18.2012 149.493 19.0398C148.752 19.8785 147.672 20.3133 146.376 20.3133C144.277 20.3133 142.888 18.9467 142.517 17.6421C142.455 17.3626 142.425 17.1141 142.425 16.8967V14.7846C142.425 14.4118 142.517 14.1633 142.579 13.8838C143.258 11.7406 145.048 10.9952 146.53 10.9952C147.765 10.9952 148.783 11.4611 149.524 12.2997C150.234 13.1383 150.635 14.2876 150.635 15.53Z" fill="#4FA800"/>
<path d="M36.5476 43.3912H5.61796C2.53117 43.3912 0 40.8753 0 37.7382V6.61565C0 3.47854 2.5003 0.962646 5.61796 0.962646H36.5785C39.6653 0.962646 42.1964 3.47854 42.1964 6.61565V37.7693C42.1656 40.8443 39.6344 43.3912 36.5476 43.3912Z" fill="#0C78E5"/>
<path d="M35.7143 10.2808C29.6333 10.2808 25.0031 8.54138 21.0829 4.68988C17.1627 8.54138 12.5016 10.2808 6.4515 10.2808C6.4515 20.2822 4.38335 34.6011 21.0829 40.4094C37.7516 34.6011 35.7143 20.2822 35.7143 10.2808Z" fill="white"/>
<path d="M30.2198 22.0839L21.7311 14.3187C21.3607 13.9771 20.8051 13.9771 20.4347 14.3187L11.946 22.0839C11.6373 22.3634 11.5447 22.7672 11.699 23.171C11.8534 23.5437 12.1929 23.7922 12.5942 23.7922H13.9524V31.5884C13.9524 31.899 14.1993 32.1475 14.508 32.1475H19.1691C19.4778 32.1475 19.7247 31.899 19.7247 31.5884V26.8672H22.4411V31.5884C22.4411 31.899 22.688 32.1475 22.9967 32.1475H27.6578C27.9664 32.1475 28.2134 31.899 28.2134 31.5884V23.7922H29.5716C29.9728 23.7922 30.3433 23.5437 30.4667 23.171C30.5902 22.7983 30.4976 22.3634 30.2198 22.0839Z" fill="#4FA800"/>
<path d="M28.0589 15.1884H24.3239L28.6145 19.102V15.7475C28.6145 15.4369 28.3675 15.1884 28.0589 15.1884Z" fill="#4FA800"/>
</svg>
