<svg width="46" height="33" viewBox="0 0 46 33" fill="none" xmlns="http://www.w3.org/2000/svg">
<path d="M0.5 25.291V2.29102C0.5 1.49102 3.16667 0.957682 4.5 0.791016H42C44.4 0.791016 45 1.79102 45 2.29102C45.1667 8.62435 45.4 21.791 45 23.791C44.6 25.791 43.5 26.291 43 26.291L27 25.291L23.5 31.791L19 25.291H0.5Z" fill="#FFFAEA"/>
<path d="M43.2626 0H13.7159C12.5443 0 12.5427 1.82492 13.7159 1.82492H43.2626C43.7657 1.82492 44.1751 2.23425 44.1751 2.73738V24.3005C44.1751 24.8036 43.7657 25.2129 43.2626 25.2129H27.2861C27.0068 25.2129 26.7429 25.3408 26.5698 25.56L22.8893 30.2229L18.9857 25.5411C18.8123 25.3332 18.5555 25.2129 18.2848 25.2129H2.73738C2.23425 25.2129 1.82492 24.8036 1.82492 24.3005V2.73738C1.82492 2.23425 2.23425 1.82492 2.73738 1.82492H6.20948C7.38108 1.82492 7.38272 0 6.20948 0H2.73738C1.22799 0 0 1.22799 0 2.73738V24.3005C0 25.8099 1.22799 27.0379 2.73738 27.0379H17.8577L22.2079 32.2553C22.5753 32.6959 23.2694 32.6869 23.625 32.2362L27.7283 27.0379H43.2626C44.772 27.0379 46 25.8099 46 24.3005V2.73738C46 1.22799 44.772 0 43.2626 0Z" fill="#D9BB2C"/>
<path d="M5.0525 11.7404C4.95587 12.0377 5.01819 12.3637 5.21766 12.6044L6.99431 14.7493L6.81775 17.529C6.67906 19.7066 9.9484 17.3941 10.6537 17.4081C11.3652 17.4224 14.6269 19.682 14.4897 17.529L14.3131 14.7493L16.0898 12.6044C16.5048 12.1035 16.2475 11.3007 15.6134 11.1384L12.9154 10.4475L11.4244 8.09502C11.0763 7.54554 10.2333 7.54216 9.88298 8.09502L8.39202 10.4475L5.69396 11.1384C5.39112 11.2159 5.14913 11.443 5.0525 11.7404ZM9.19535 12.1254C9.86993 11.9528 10.3139 10.8238 10.6536 10.2878C10.9879 10.8152 11.4438 11.9545 12.1119 12.1254L13.7659 12.549L12.6767 13.8639C12.5284 14.0429 12.454 14.2718 12.4688 14.5038L12.5771 16.2078L10.9901 15.5783C10.7739 15.4926 10.5333 15.4926 10.3171 15.5783L8.73009 16.2078L8.8383 14.5038C8.85309 14.2718 8.77872 14.0429 8.63045 13.8639L7.54133 12.549L9.19535 12.1254Z" fill="#D9BB2C"/>
<path d="M28.5087 11.7405C28.4121 11.4432 28.1701 11.216 27.8673 11.1385L25.1692 10.4475L23.6783 8.09502C23.3301 7.54554 22.4871 7.54216 22.1368 8.09502L20.6459 10.4475L17.9478 11.1385C17.645 11.216 17.4029 11.4432 17.3064 11.7405C17.2098 12.0378 17.2721 12.3638 17.4715 12.6045L19.2483 14.7494L19.0716 17.5292C18.9328 19.7067 22.2024 17.3942 22.9076 17.4083C23.619 17.4225 26.8807 19.6821 26.7436 17.5292L26.5669 14.7494L28.3437 12.6045C28.543 12.3638 28.6053 12.0378 28.5087 11.7405ZM24.9306 13.864C24.7823 14.043 24.708 14.2719 24.7227 14.5039L24.8311 16.2079C24.2612 15.9819 23.5336 15.5141 22.9076 15.5141C22.2845 15.5141 21.5524 15.9824 20.9841 16.2079L21.0924 14.5039C21.1072 14.2719 21.0329 14.043 20.8846 13.864L19.7954 12.5491L21.4493 12.1256C22.1239 11.9529 22.5679 10.8239 22.9076 10.2879C23.2418 10.8153 23.6978 11.9546 24.3659 12.1256L26.0198 12.5491L24.9306 13.864Z" fill="#D9BB2C"/>
<path d="M40.7668 11.7405C40.6701 11.4431 40.4281 11.216 40.1253 11.1385L37.4272 10.4475L35.9363 8.09502C35.5882 7.54554 34.7452 7.54216 34.3949 8.09502L32.9039 10.4475L30.2058 11.1385C29.5757 11.2998 29.3119 12.1005 29.7294 12.6044L31.5062 14.7493L31.3295 17.5291C31.1908 19.7063 34.4586 17.394 35.1655 17.4082C35.8756 17.4223 39.1387 19.6826 39.0015 17.5291L38.825 14.7493L40.6016 12.6044C40.8011 12.3638 40.8634 12.0378 40.7668 11.7405ZM37.1887 13.864C37.0405 14.043 36.9661 14.2719 36.9809 14.5039L37.0891 16.2079L35.502 15.5784C35.2778 15.4927 35.0534 15.4927 34.8291 15.5784L33.2421 16.2079L33.3504 14.5039C33.3651 14.2719 33.2908 14.043 33.1425 13.864L32.0533 12.5491L33.7072 12.1256C34.3818 11.9529 34.8258 10.8239 35.1655 10.2879C35.4998 10.8153 35.9557 11.9546 36.6238 12.1256L38.2778 12.5491L37.1887 13.864Z" fill="#D9BB2C"/>
<path d="M9.47843 1.67016C10.1652 2.14081 11.0822 1.45692 10.8631 0.668912C10.7588 0.293708 10.4187 0.0204249 10.0292 0.00108066C9.64058 -0.0181723 9.27322 0.221532 9.13362 0.584144C8.98324 0.975043 9.12568 1.43958 9.47843 1.67016Z" fill="#D9BB2C"/>
</svg>
