<svg width="230" height="230" viewBox="0 0 230 230" fill="none" xmlns="http://www.w3.org/2000/svg">
<g clip-path="url(#clip0)">
<path d="M34.0141 188.791C34.0141 188.791 -8.32991 156.747 6.07401 126.411C20.4779 96.074 55.3597 96.7001 43.0961 43.8245C28.8658 -17.4177 68.9538 -5.63599 89.3738 25.6681C99.9598 41.9463 115.521 47.0119 143.808 34.5471C180.02 18.6105 235.669 26.5788 216.58 71.3153C199.572 111.1 170.649 133.867 184.301 147.47C197.953 161.073 235.843 142.973 193.903 184.636C151.964 226.299 102.679 206.777 102.679 206.777" fill="#F0F5F7"/>
<path d="M76.8822 35.8956V32.6513C76.8822 31.0007 75.4938 29.5778 73.7584 29.5778C72.8329 29.5778 72.023 29.9762 71.4445 30.6592V30.4316C71.4445 26.9027 68.4943 24 64.9078 24C61.3213 24 58.3711 26.9027 58.3711 30.4316V30.2608C58.3711 28.6102 56.9828 27.1873 55.2474 27.1873C53.5698 27.1873 52.1236 28.5533 52.1236 30.2608V34.7572C50.2725 35.6679 48.9999 37.5461 48.9999 39.6521C48.9999 42.6686 51.4873 45.173 54.611 45.173H72.8329C75.8988 45.173 78.444 42.7256 78.444 39.6521C78.444 38.2291 77.8656 36.9201 76.8822 35.8956Z" fill="white"/>
<path d="M125.721 54.3448V52.8761C125.721 52.0986 124.87 51.4939 123.906 51.4939C123.339 51.4939 122.885 51.6666 122.545 51.969V51.8826C122.545 50.2412 120.787 48.9453 118.688 48.9453C116.533 48.9453 114.832 50.2844 114.832 51.8826V51.7962C114.832 51.0187 113.981 50.414 113.017 50.414C111.996 50.414 111.202 51.0619 111.202 51.7962V53.8696C110.125 54.3016 109.331 55.1223 109.331 56.1158C109.331 57.498 110.805 58.6211 112.62 58.6211H123.396C125.21 58.6211 126.685 57.498 126.685 56.1158C126.628 55.4247 126.288 54.8199 125.721 54.3448Z" fill="white"/>
<path d="M200.395 83.8711V80.9114C200.395 79.3747 199.122 78.1225 197.56 78.1225C196.693 78.1225 195.94 78.5209 195.42 79.0901V78.8624C195.42 75.6182 192.759 73 189.462 73C186.164 73 183.503 75.6182 183.503 78.8624V78.7486C183.503 77.2118 182.231 75.9597 180.669 75.9597C179.107 75.9597 177.834 77.2118 177.834 78.7486V82.8466C176.157 83.6434 175 85.3509 175 87.343C175 90.075 177.314 92.3517 180.09 92.3517H196.693C199.469 92.3517 201.783 90.075 201.783 87.343C201.841 85.977 201.262 84.7817 200.395 83.8711Z" fill="white"/>
<path d="M155.03 70.2891C155.03 70.2891 144.965 76.1515 155.84 85.0305C166.715 93.8526 189.738 98.2921 183.491 108.879C175.45 122.482 139.816 108.651 130.271 127.661C120.727 146.671 132.238 148.834 114.016 150.029" stroke="#58C2F1" stroke-width="0.75" stroke-miterlimit="10" stroke-linecap="round" stroke-linejoin="round" stroke-dasharray="3 3"/>
<path d="M149.245 106.379H147.568L146.874 93.0039H148.551L149.245 106.379Z" fill="#BBD0FF"/>
<path d="M140.568 71.8281H74.2757C71.2677 71.8281 68.6645 73.934 68.5489 76.5522L62.1278 209.737C61.9543 213.38 64.7309 216.339 68.3753 216.339H147.221C150.807 216.339 153.584 213.38 153.411 209.737L146.353 76.5522C146.18 73.991 143.634 71.8281 140.568 71.8281ZM72.3668 76.5522C72.4246 75.7554 73.1766 75.1293 74.1022 75.1293H140.742C141.668 75.1293 142.477 75.7554 142.477 76.5522L148.898 209.737C148.956 210.818 148.089 211.729 146.989 211.729H68.5489C67.4498 211.729 66.582 210.818 66.6399 209.737L72.3668 76.5522Z" fill="#19324A"/>
<path d="M140.568 68.0156H74.2757C71.2677 68.0156 68.6645 70.1215 68.5489 72.7397L62.1278 205.925C61.9543 209.567 64.7309 212.527 68.3753 212.527H147.221C150.807 212.527 153.584 209.567 153.411 205.925L146.353 72.7397C146.18 70.1215 143.634 68.0156 140.568 68.0156ZM72.3668 72.7397C72.4246 71.9429 73.1766 71.3168 74.1022 71.3168H140.742C141.668 71.3168 142.477 71.9429 142.477 72.7397L148.898 205.925C148.956 207.006 148.089 207.917 146.99 207.917H68.5489C67.4498 207.917 66.582 207.006 66.6399 205.925L72.3668 72.7397Z" fill="#808D9B"/>
<path d="M147.221 211.846H68.3753C65.1358 211.846 62.5906 209.171 62.7641 205.926L69.0694 72.7414C69.1851 70.4078 71.499 68.4727 74.2178 68.4727H140.568C143.287 68.4727 145.601 70.3509 145.775 72.7414L152.774 205.926C152.948 209.227 150.46 211.846 147.221 211.846Z" fill="#8ED5CB"/>
<path d="M107.48 146.958C114.253 146.958 119.743 143.314 119.743 138.819C119.743 134.324 114.253 130.68 107.48 130.68C100.707 130.68 95.2163 134.324 95.2163 138.819C95.2163 143.314 100.707 146.958 107.48 146.958Z" fill="#154EC5"/>
<path d="M107.48 143.43C111.889 143.43 115.463 141.06 115.463 138.137C115.463 135.214 111.889 132.844 107.48 132.844C103.071 132.844 99.4971 135.214 99.4971 138.137C99.4971 141.06 103.071 143.43 107.48 143.43Z" fill="#156AF7"/>
<path d="M111.761 137.569C111.761 139.162 109.852 140.414 107.48 140.414C105.108 140.414 103.199 139.162 103.199 137.569C103.199 135.975 105.108 134.723 107.48 134.723C109.852 134.723 111.761 135.975 111.761 137.569Z" fill="#2F9AF7"/>
<path d="M140.742 70.8062C141.957 70.8062 142.998 71.66 143.056 72.7414L149.535 205.926C149.593 207.406 148.493 208.601 147.047 208.601H68.491C67.0448 208.601 65.9457 207.406 66.0035 205.926L71.8461 72.7414C71.9039 71.66 72.9452 70.8062 74.16 70.8062H140.742ZM140.626 68.4727H74.2178C71.499 68.4727 69.1851 70.3509 69.0694 72.7414L62.7641 205.926C62.5906 209.171 65.1358 211.846 68.3753 211.846H147.163C150.402 211.846 152.89 209.171 152.716 205.926L145.717 72.7414C145.659 70.4078 143.345 68.4727 140.626 68.4727Z" fill="#78B7FA"/>
<path d="M67.0446 103.533C66.1191 103.533 65.367 102.793 65.4249 101.882L65.6563 97.1578C65.7141 96.3041 66.4083 95.6211 67.276 95.6211H67.3917L67.0446 103.533Z" fill="#BBD0FF"/>
<path d="M67.5655 93.0002C66.64 93.0002 65.9458 92.2603 65.9458 91.3496L66.1772 86.7962C66.235 85.9425 66.9292 85.3164 67.7969 85.3164H67.9126L67.5655 93.0002Z" fill="#BBD0FF"/>
<path d="M68.1439 80.4814H67.5076L67.6233 77.4648H68.3174L68.1439 80.4814Z" fill="#BBD0FF"/>
<path d="M135.42 78.3167H125.355C123.504 78.3167 122 77.0076 121.942 75.4708C121.884 73.8772 123.33 72.625 125.181 72.625H135.189C137.04 72.625 138.544 73.8772 138.602 75.4708C138.717 77.0645 137.271 78.3167 135.42 78.3167Z" fill="#2F9AF7"/>
<path d="M137.04 75.4704C137.098 76.3241 136.288 77.0071 135.362 77.0071C134.379 77.0071 133.569 76.3241 133.569 75.4704C133.511 74.6166 134.321 73.9336 135.247 73.9336C136.23 73.9336 137.04 74.6166 137.04 75.4704Z" fill="#33495E"/>
<path d="M136.519 75.4698C136.519 76.039 135.999 76.5512 135.362 76.5512C134.668 76.5512 134.147 76.0959 134.09 75.4698C134.09 74.9006 134.61 74.4453 135.247 74.4453C135.941 74.4453 136.519 74.9006 136.519 75.4698Z" fill="#001B36"/>
<path d="M135.825 75.471C135.825 75.6986 135.594 75.9263 135.362 75.9263C135.073 75.9263 134.842 75.7555 134.842 75.471C134.842 75.2433 135.073 75.0156 135.304 75.0156C135.536 75.0156 135.767 75.2433 135.825 75.471Z" fill="#19324A"/>
<path d="M132.123 75.4698C132.123 76.039 131.602 76.5512 130.908 76.5512C130.214 76.5512 129.693 76.0959 129.635 75.4698C129.635 74.9006 130.156 74.4453 130.85 74.4453C131.486 74.4453 132.065 74.9006 132.123 75.4698Z" fill="#33495E"/>
<path d="M131.776 75.4726C131.776 75.9279 131.371 76.2694 130.908 76.2694C130.387 76.2694 129.983 75.9279 129.983 75.4726C129.983 75.0173 130.387 74.6758 130.85 74.6758C131.371 74.6758 131.776 75.0173 131.776 75.4726Z" fill="#001B36"/>
<path d="M131.139 75.4699C131.139 75.5837 131.024 75.6975 130.908 75.6975C130.792 75.6975 130.619 75.5837 130.619 75.4699C130.619 75.356 130.735 75.2422 130.85 75.2422C131.024 75.2422 131.139 75.356 131.139 75.4699Z" fill="#19324A"/>
<path d="M128.247 75.4698C128.247 76.039 127.726 76.5512 127.032 76.5512C126.338 76.5512 125.817 76.0959 125.76 75.4698C125.76 74.9006 126.28 74.4453 126.974 74.4453C127.669 74.4453 128.189 74.9006 128.247 75.4698Z" fill="#33495E"/>
<path d="M127.958 75.4726C127.958 75.9279 127.553 76.2694 127.032 76.2694C126.512 76.2694 126.107 75.9279 126.107 75.4726C126.107 75.0173 126.512 74.6758 127.032 74.6758C127.495 74.6758 127.9 75.0173 127.958 75.4726Z" fill="#001B36"/>
<path d="M127.264 75.4699C127.264 75.5837 127.148 75.6975 127.032 75.6975C126.917 75.6975 126.743 75.5837 126.743 75.4699C126.743 75.356 126.859 75.2422 126.974 75.2422C127.148 75.2422 127.264 75.356 127.264 75.4699Z" fill="#19324A"/>
<path d="M94.2361 122.091C97.7256 117.398 96.6873 110.809 91.917 107.376C87.1467 103.943 80.4509 104.964 76.9614 109.658C73.4719 114.351 74.5101 120.94 79.2804 124.373C84.0507 127.806 90.7466 126.785 94.2361 122.091Z" fill="#1350D7"/>
<path d="M109.967 136.771C107.654 138.479 104.414 138.024 102.679 135.747L94.1752 124.591C92.4398 122.315 92.9026 119.127 95.2165 117.42C97.5303 115.712 100.77 116.168 102.505 118.444L111.009 129.6C112.744 131.877 112.281 135.064 109.967 136.771Z" fill="#33495E"/>
<path d="M100.191 77.5781C96.1419 89.6444 78.4407 102.735 78.4407 102.735C74.2179 105.866 74.7964 113.663 79.7712 120.209C84.7461 126.697 92.2083 129.429 96.4312 126.299C96.4312 126.299 114.132 113.208 127.032 112.696C118.297 99.9463 110.835 97.1574 110.835 97.1574C110.835 97.1574 110.199 89.4168 100.191 77.5781Z" fill="#1395F3"/>
<path d="M133.073 111.494C140.578 105.938 139.936 92.6371 131.639 81.7857C123.341 70.9343 110.53 66.6416 103.025 72.1976C95.5189 77.7537 96.1608 91.0546 104.458 101.906C112.756 112.757 125.567 117.05 133.073 111.494Z" fill="#1323BE"/>
<path d="M134.356 110.552C141.428 105.318 140.434 92.2771 132.136 81.4257C123.839 70.5743 111.38 66.0211 104.308 71.2559C97.2363 76.4907 98.23 89.5312 106.527 100.383C114.825 111.234 127.284 115.787 134.356 110.552Z" fill="#54AA07"/>
<path d="M133.429 105.438C139.148 101.205 138.334 90.6462 131.611 81.8546C124.889 73.0629 114.803 69.3675 109.085 73.6007C103.366 77.8339 104.18 88.3927 110.902 97.1843C117.625 105.976 127.71 109.671 133.429 105.438Z" fill="#33495E"/>
<path d="M105.514 85.3172C106.15 89.1876 107.943 93.3425 110.893 97.2128C113.844 101.083 117.43 103.929 121.017 105.58L129.404 94.8792L125.124 86.6263L118.24 80.3086L105.514 85.3172Z" fill="#19324A"/>
<path d="M128.594 84.067C131.66 88.1081 132.065 92.946 129.404 94.8812C126.801 96.8163 122.173 95.1657 119.05 91.1247C115.926 87.0836 115.579 82.2457 118.24 80.3105C120.901 78.3753 125.528 80.0828 128.594 84.067Z" fill="#54AA07"/>
<path d="M126.223 85.6024C127.148 86.7976 127.206 88.2206 126.454 88.7897C125.702 89.3589 124.314 88.8466 123.446 87.7083C122.52 86.5131 122.463 85.0901 123.215 84.521C123.967 83.9518 125.297 84.4071 126.223 85.6024Z" fill="white"/>
<path d="M134.168 98.2597C138.457 95.0848 137.854 87.1759 132.822 80.5947C127.79 74.0136 120.233 71.2522 115.944 74.4271C111.656 77.602 112.258 85.5109 117.29 92.0921C122.323 98.6733 129.879 101.435 134.168 98.2597Z" stroke="#54AA07" stroke-miterlimit="10"/>
<path d="M146.519 105.168C155.365 98.6192 154.599 82.9309 144.808 70.1267C135.018 57.3225 119.909 52.2511 111.063 58.7994C102.217 65.3478 102.983 81.0361 112.774 93.8403C122.564 106.645 137.672 111.716 146.519 105.168Z" stroke="#54AA07" stroke-miterlimit="10"/>
<path d="M168.104 62.0942L156.418 69.2657L160.178 59.9883L168.104 62.0942Z" fill="#95B4DB"/>
<path d="M193.672 45.0195L160.178 59.9886L169.608 66.7617L193.672 45.0195Z" fill="#8ED5CB"/>
<path d="M193.672 45.0195L156.418 57.1428L147.278 51.1096L193.672 45.0195Z" fill="#90DCE3"/>
<path d="M156.418 57.1428V69.266L160.178 59.9886L193.672 45.0195L156.418 57.1428Z" fill="#CCE0FF"/>
<path d="M40.6085 125.786L48.4757 130.624L45.9883 124.363L40.6085 125.786Z" fill="#95B4DB"/>
<path d="M23.3124 114.23L45.9884 124.362L39.5674 128.915L23.3124 114.23Z" fill="#90DCE3"/>
<path d="M23.3124 114.23L48.4759 122.426L54.7233 118.328L23.3124 114.23Z" fill="#90DCE3"/>
<path d="M48.4759 122.426V130.622L45.9885 124.362L23.3124 114.23L48.4759 122.426Z" fill="#CCE0FF"/>
<path d="M50.9051 131.76C50.9051 131.76 57.4997 136.882 60.392 130.678C62.3588 126.409 52.4091 124.816 56.1692 134.719C59.9292 144.623 50.9051 150.997 38.1209 146.273C25.3367 141.492 14.635 145.021 15.2134 161.812" stroke="#58C2F1" stroke-width="0.75" stroke-miterlimit="10" stroke-linecap="round" stroke-linejoin="round" stroke-dasharray="3 3"/>
<path d="M91.5717 60.2732C91.5717 57.8827 89.5471 55.8906 87.1175 55.8906H72.193C69.7634 55.8906 67.7388 57.8827 67.7388 60.2732C67.7388 62.6637 69.7634 64.6558 72.193 64.6558H84.0516C85.2086 68.0708 88.6794 67.1601 88.6794 67.1601C87.8117 66.5909 87.696 65.3388 87.7538 64.5989C89.8942 64.2574 91.5717 62.436 91.5717 60.2732Z" fill="#58C2F1"/>
<path d="M72.0195 61.8659C72.8502 61.8659 73.5235 61.2034 73.5235 60.3861C73.5235 59.5688 72.8502 58.9062 72.0195 58.9062C71.1889 58.9062 70.5155 59.5688 70.5155 60.3861C70.5155 61.2034 71.1889 61.8659 72.0195 61.8659Z" fill="#F5FCFF"/>
<path d="M76.5316 61.8659C77.3623 61.8659 78.0356 61.2034 78.0356 60.3861C78.0356 59.5688 77.3623 58.9062 76.5316 58.9062C75.701 58.9062 75.0276 59.5688 75.0276 60.3861C75.0276 61.2034 75.701 61.8659 76.5316 61.8659Z" fill="#F5FCFF"/>
<path d="M81.3331 61.8659C82.1638 61.8659 82.8372 61.2034 82.8372 60.3861C82.8372 59.5688 82.1638 58.9062 81.3331 58.9062C80.5025 58.9062 79.8291 59.5688 79.8291 60.3861C79.8291 61.2034 80.5025 61.8659 81.3331 61.8659Z" fill="#F5FCFF"/>
<path d="M109.134 170.18C57.2972 166.013 32.7164 209.463 26.9056 231.709C49.6006 212.827 130.184 219.013 164.391 214.78C191.757 211.395 215.482 172.784 223.924 153.902H213.399C212.084 154.119 208.071 156.507 202.545 164.32C195.638 174.086 175.574 188.736 164.391 191.015C155.445 192.838 127.334 191.775 114.396 191.015C122.948 190.473 142.157 189.257 150.577 188.736C161.102 188.085 172.285 184.504 169.983 179.295C167.68 174.086 173.93 175.389 109.134 170.18Z" fill="url(#paint0_linear)" stroke="#F0F5F9" stroke-width="2"/>
</g>
<defs>
<linearGradient id="paint0_linear" x1="141.328" y1="161.384" x2="81.336" y2="211.514" gradientUnits="userSpaceOnUse">
<stop stop-color="#90DDE8"/>
<stop offset="1" stop-color="#8ED5CB"/>
</linearGradient>
<clipPath id="clip0">
<rect width="230" height="230" fill="white"/>
</clipPath>
</defs>
</svg>
