<svg width="102" height="79" viewBox="0 0 102 79" fill="none" xmlns="http://www.w3.org/2000/svg">
<g clip-path="url(#clip0)">
<path d="M8.83504 58.6009L7.80156 58.0302C7.51798 58.4721 7.17138 58.871 6.83109 59.1717C6.54751 59.4233 6.11899 59.4171 5.84171 59.1594L5.81021 59.1287C5.50772 58.8464 5.51402 58.3677 5.82911 58.0977C6.1505 57.8215 6.45929 57.4779 6.69875 57.0605C7.05165 56.4591 7.05165 55.9129 6.61683 55.6736C6.20091 55.4465 5.74719 55.6429 5.01619 56.275C3.9638 57.1894 2.97442 57.662 1.91573 57.079C0.957865 56.5512 0.592364 55.4833 1.02088 54.2253L0 53.6545L0.604967 52.6174L1.56283 53.1451C1.8023 52.7708 2.04176 52.4823 2.26863 52.2614C2.5459 51.9853 2.99963 51.9853 3.28321 52.2491C3.57939 52.5253 3.57939 52.9856 3.28321 53.2617C3.06265 53.4704 2.82318 53.7404 2.60892 54.1148C2.20561 54.8021 2.37576 55.1888 2.68454 55.3545C3.04374 55.5508 3.48486 55.3054 4.36081 54.5996C5.55183 53.5931 6.44668 53.4152 7.42345 53.9552C8.38762 54.4891 8.82874 55.6122 8.3372 56.9501L9.44631 57.5638L8.83504 58.6009Z" fill="#FAE0B2"/>
<path d="M58.4874 74.7363C61.09 71.3242 63.1822 71.2935 63.1822 71.2935C63.1822 71.2935 64.1337 65.2976 63.3712 62.7508C62.615 60.2039 59.1932 62.4378 59.1932 62.4378C59.1932 62.4378 63.7304 53.7723 61.8714 52.8027C58.4054 50.9923 52.9418 60.1794 52.9418 60.1794C52.9418 60.1794 54.2211 56.1351 51.7697 56.1474C48.0706 56.1719 47.7492 65.4449 47.7492 65.4449C47.7492 65.4449 47.0182 63.6161 44.737 64.6655C42.2793 65.7947 41.6113 72.5822 41.4727 77.8294H54.4227C56.2881 76.7247 57.8005 75.6446 58.4874 74.7363Z" fill="#466EB6"/>
<path d="M53.3944 59.4433C53.3944 59.4433 53.5457 54.8344 51.0943 54.8467C47.3952 54.8713 47.7481 65.4453 47.7481 65.4453C47.7481 65.4453 46.2042 62.4505 43.9229 63.4999C41.4211 64.6475 41.1187 72.153 41.2195 77.8298H45.5236L61.8703 52.8031C58.4043 50.9927 53.3944 59.4433 53.3944 59.4433Z" fill="#355389"/>
<path d="M73.5273 77.5363C73.5273 77.5363 85.3305 78.8619 88.1915 77.8861C91.0525 76.9103 89.1557 75.3515 89.1557 75.3515C89.1557 75.3515 95.2053 74.5967 95.7851 72.8476C96.3712 71.0924 93.5102 71.0863 93.5102 71.0863C93.5102 71.0863 99.5787 67.8276 98.8982 66.5572C97.6315 64.2006 90.8193 67.4164 90.8193 67.4164C90.8193 67.4164 93.1699 65.5753 91.752 64.6547C89.6157 63.2678 85.7275 68.4781 85.7275 68.4781C85.7275 68.4781 86.0363 67.1525 84.3096 66.8886C81.2092 66.4099 73.5273 77.5363 73.5273 77.5363Z" fill="#466EB6"/>
<path d="M84.3081 65.9058C86.0348 66.1697 85.7323 68.4711 85.7323 68.4711C85.7323 68.4711 89.7528 62.2543 91.8891 63.6413C93.307 64.5618 91.3787 67.1516 91.3787 67.1516C91.3787 67.1516 97.6363 64.1936 98.9029 66.5441L74.6602 76.7867C75.5424 75.4918 81.4093 65.4639 84.3081 65.9058Z" fill="#355389"/>
<path d="M73.4532 77.698C73.4532 77.698 84.1913 70.4196 85.7415 67.2222C87.2855 64.0248 84.33 64.2887 84.33 64.2887C84.33 64.2887 88.7475 58.6242 87.7014 56.6665C86.6553 54.7088 84.2417 57.0839 84.2417 57.0839C84.2417 57.0839 86.4788 49.2899 84.7963 48.7989C81.6643 47.8784 78.5954 57.7466 78.5954 57.7466C78.5954 57.7466 77.4233 52.2847 75.4256 52.6898C72.4134 53.3035 75.4193 61.3736 75.4193 61.3736C75.4193 61.3736 74.5308 58.747 72.8482 59.9621C69.8234 62.1469 73.4532 77.698 73.4532 77.698Z" fill="#466EB6"/>
<path d="M69.9048 60.0805C71.8016 59.209 72.1797 57.3679 72.1797 57.3679C72.1797 57.3679 72.1923 52.802 75.2045 52.1945C77.2022 51.7894 78.6012 55.4532 78.6012 55.4532C78.6012 55.4532 81.6512 47.8679 84.7895 48.7884L73.4211 77.5709C73.0241 75.7421 67.6424 61.1238 69.9048 60.0805Z" fill="#355389"/>
<path d="M70.1451 77.7174H48.486C47.7928 77.7174 47.2383 77.1712 47.2383 76.5022C47.2383 75.8272 47.7991 75.2871 48.486 75.2871H70.1451C70.8383 75.2871 71.3929 75.8333 71.3929 76.5022C71.3929 77.1773 70.832 77.7174 70.1451 77.7174Z" fill="#F48C7F"/>
<path d="M73.9342 75.3541H52.2751C51.5819 75.3541 51.0273 74.8079 51.0273 74.1389C51.0273 73.4639 51.5882 72.9238 52.2751 72.9238H73.9342C74.6274 72.9238 75.1819 73.47 75.1819 74.1389C75.1819 74.8079 74.6274 75.3541 73.9342 75.3541Z" fill="#F47458"/>
<path d="M70.9029 73.1119H49.2438C48.5507 73.1119 47.9961 72.5657 47.9961 71.8968C47.9961 71.2217 48.557 70.6816 49.2438 70.6816H70.9029C71.5961 70.6816 72.1507 71.2278 72.1507 71.8968C72.1507 72.5718 71.5961 73.1119 70.9029 73.1119Z" fill="#F48C7F"/>
<path d="M68.3756 70.69H46.7165C46.0233 70.69 45.4688 70.1438 45.4688 69.4749C45.4688 68.7998 46.0296 68.2598 46.7165 68.2598H68.3756C69.0688 68.2598 69.6233 68.806 69.6233 69.4749C69.6296 70.1438 69.0688 70.69 68.3756 70.69Z" fill="#F47458"/>
<path d="M72.8889 78.4227C78.8682 78.4227 83.7153 73.7022 83.7153 67.8793C83.7153 62.0564 78.8682 57.3359 72.8889 57.3359C66.9096 57.3359 62.0625 62.0564 62.0625 67.8793C62.0625 73.7022 66.9096 78.4227 72.8889 78.4227Z" fill="#FAE0B2"/>
<path d="M79.3091 74.1412C82.8573 70.6848 82.8573 65.0809 79.3091 61.6245C75.7608 58.1681 70.008 58.1681 66.4598 61.6245C62.9116 65.0809 62.9116 70.6848 66.4598 74.1412C70.008 77.5975 75.7608 77.5975 79.3091 74.1412Z" fill="#F7CC7F"/>
<path d="M70.0749 73.5637L70.5916 72.1768C69.9552 71.919 69.3691 71.5815 68.9091 71.2317C68.5247 70.9371 68.4427 70.4093 68.7137 70.0165L68.7452 69.9674C69.0477 69.5378 69.6653 69.4458 70.0812 69.7711C70.5097 70.1025 71.0202 70.4093 71.6062 70.618C72.4633 70.9187 73.169 70.8082 73.3833 70.2191C73.5913 69.6606 73.2384 69.1451 72.2679 68.3841C70.8563 67.2917 70.0308 66.1748 70.5601 64.7571C71.0391 63.4683 72.3435 62.7933 74.0639 63.051L74.5806 61.6641L76.0489 62.1857L75.57 63.4745C76.1057 63.6893 76.5279 63.9225 76.8682 64.1496C77.2841 64.4319 77.3849 64.9842 77.1013 65.3892C76.8051 65.8065 76.2128 65.9109 75.7906 65.6102C75.4755 65.3831 75.0722 65.1499 74.5365 64.9596C73.5598 64.616 73.0934 64.9105 72.9422 65.3217C72.7594 65.8065 73.1753 66.2975 74.2781 67.2181C75.8347 68.4639 76.2569 69.5194 75.7654 70.8389C75.2801 72.1399 73.919 72.9193 72.0851 72.6002L71.5306 74.0915L70.0749 73.5637Z" fill="white"/>
<path d="M33.8326 77.2963C33.8326 77.2963 17.0006 69.2138 14.1081 65.0039C11.2156 60.7877 15.4693 60.5484 15.4693 60.5484C15.4693 60.5484 7.95762 53.4295 9.01631 50.4408C10.075 47.4459 14.0136 50.3057 14.0136 50.3057C14.0136 50.3057 9.13604 39.7194 11.411 38.67C15.652 36.7123 21.6009 47.9737 21.6009 47.9737C21.6009 47.9737 20.3216 43.0825 23.2456 43.242C27.6506 43.4814 27.4678 54.5525 27.4678 54.5525C27.4678 54.5525 27.9656 50.3057 30.6187 51.6866C35.3765 54.1536 33.8326 77.2963 33.8326 77.2963Z" fill="#355389"/>
<path d="M31.5742 49.9685C29.5009 48.8454 27.434 52.1226 27.434 52.1226C27.434 52.1226 27.6419 43.4755 23.237 43.2362C20.3193 43.0766 21.5923 47.9678 21.5923 47.9678C21.5923 47.9678 15.6434 36.7064 11.4023 38.6641L33.8428 77.1124C34.0067 74.4306 35.6766 52.1901 31.5742 49.9685Z" fill="#466EB6"/>
<path d="M33.3981 77.3935C33.3981 77.3935 19.6351 79.0566 16.0683 77.5776C12.5015 76.0924 15.06 74.2636 15.06 74.2636C15.06 74.2636 7.40967 72.7969 6.81731 70.5139C6.22494 68.2309 9.87995 68.4519 9.87995 68.4519C9.87995 68.4519 2.41869 63.7755 3.40176 62.2167C5.22927 59.3139 13.6421 63.9841 13.6421 63.9841C13.6421 63.9841 10.8 61.4373 12.6905 60.3817C15.5389 58.7861 20.0447 65.7639 20.0447 65.7639C20.0447 65.7639 19.7674 64.0455 21.9982 63.8553C25.9935 63.5177 33.3981 77.3935 33.3981 77.3935Z" fill="#355389"/>
<path d="M22.0807 62.6101C19.8499 62.8004 20.0389 65.7707 20.0389 65.7707C20.0389 65.7707 15.4513 57.5041 12.6029 59.0936C10.7124 60.1492 12.9495 63.6227 12.9495 63.6227C12.9495 63.6227 5.22985 59.3207 3.40234 62.2174L33.4427 77.3144C32.4156 75.5837 25.8176 62.291 22.0807 62.6101Z" fill="#466EB6"/>
<path d="M4.76172 78.0814C4.76172 78.29 4.93187 78.4557 5.14612 78.4557H101.607C101.821 78.4557 101.991 78.2839 101.991 78.0814C101.991 77.8727 101.821 77.707 101.607 77.707H5.14612C4.93187 77.707 4.76172 77.8727 4.76172 78.0814Z" fill="#13375B"/>
<path d="M72.2801 12.543L71.7886 13.7335L69.7342 13.1751L68.7952 14.8321L67.1883 14.6602L67.0938 15.4519L69.249 15.6851L70.1375 14.114L72.2738 14.6909L73.0111 12.8989L72.2801 12.543Z" fill="#466EB6"/>
<path d="M79.5901 44.4499L80.0943 43.2286C79.5397 42.9832 79.023 42.6579 78.626 42.3326C78.292 42.0626 78.2353 41.5839 78.4936 41.2464L78.5251 41.2034C78.8087 40.8291 79.3633 40.7616 79.7225 41.0684C80.088 41.3814 80.5354 41.6698 81.0521 41.8724C81.802 42.1669 82.4385 42.0872 82.6465 41.5717C82.8481 41.0807 82.552 40.6081 81.7075 39.9024C80.485 38.8837 79.7918 37.8649 80.3085 36.6191C80.7749 35.4899 81.9596 34.9253 83.4846 35.2076L83.9887 33.9863L85.2806 34.4957L84.8143 35.6249C85.2869 35.8336 85.6524 36.0545 85.9486 36.2693C86.3078 36.5332 86.3834 37.0303 86.1124 37.3801C85.8352 37.7422 85.3058 37.8158 84.9403 37.5335C84.6693 37.3249 84.3101 37.1039 83.8501 36.9198C82.9931 36.5823 82.5646 36.8339 82.4196 37.196C82.2432 37.6194 82.5961 38.0736 83.5476 38.9205C84.8962 40.0742 85.2365 41.0316 84.7576 42.1854C84.2849 43.3268 83.0498 43.9774 81.4239 43.6398L80.882 44.9531L79.5901 44.4499Z" fill="#96D9C9"/>
<path d="M51.8325 77.7085H26.3924C25.3778 77.7085 24.5586 76.9106 24.5586 75.9226C24.5586 74.9345 25.3778 74.1367 26.3924 74.1367H51.8325C52.8471 74.1367 53.6663 74.9345 53.6663 75.9226C53.6663 76.9106 52.8471 77.7085 51.8325 77.7085Z" fill="#FAE0B2"/>
<path d="M55.6578 74.1694H31.7049C30.6903 74.1694 29.8711 73.3716 29.8711 72.3835C29.8711 71.3955 30.6903 70.5977 31.7049 70.5977H55.6578C56.6724 70.5977 57.4916 71.3955 57.4916 72.3835C57.4916 73.3654 56.6724 74.1694 55.6578 74.1694Z" fill="#F7CC7F"/>
<path d="M52.2419 70.5935H29.3351C28.3457 70.5935 27.5391 69.8141 27.5391 68.8445V68.7647C27.5391 67.8012 28.3394 67.0156 29.3351 67.0156H52.2419C53.2313 67.0156 54.0379 67.795 54.0379 68.7647V68.8445C54.0379 69.8141 53.2313 70.5935 52.2419 70.5935Z" fill="#FAE0B2"/>
<path d="M52.2222 67.029H29.202C28.2315 67.029 27.4375 66.2619 27.4375 65.3107V65.1695C27.4375 64.2244 28.2252 63.4512 29.202 63.4512H52.2222C53.1927 63.4512 53.9867 64.2183 53.9867 65.1695V65.3107C53.9804 66.2619 53.1927 67.029 52.2222 67.029Z" fill="#F7CC7F"/>
<path d="M52.98 63.6674H29.7518C28.7372 63.6674 27.918 62.8696 27.918 61.8816C27.918 60.8935 28.7372 60.0957 29.7518 60.0957H52.98C53.9946 60.0957 54.8138 60.8935 54.8138 61.8816C54.8138 62.8635 53.9946 63.6674 52.98 63.6674Z" fill="#FAE0B2"/>
<path d="M51.9761 60.1362H28.7479C27.7333 60.1362 26.9141 59.3384 26.9141 58.3503C26.9141 57.3623 27.7333 56.5645 28.7479 56.5645H51.9761C52.9907 56.5645 53.8099 57.3623 53.8099 58.3503C53.8099 59.3322 52.9907 60.1362 51.9761 60.1362Z" fill="#F7CC7F"/>
<path d="M53.1412 53.226H30.8897C29.8941 53.226 29.0938 52.4405 29.0938 51.477V51.4033C29.0938 50.4337 29.9004 49.6543 30.8897 49.6543H53.1412C54.1369 49.6543 54.9372 50.4398 54.9372 51.4033V51.477C54.9372 52.4466 54.1306 53.226 53.1412 53.226Z" fill="#F7CC7F"/>
<path d="M55.1322 56.6635H33.7567C32.7799 56.6635 31.9922 55.8964 31.9922 54.9452V54.8102C31.9922 53.8589 32.7799 53.0918 33.7567 53.0918H55.1322C56.109 53.0918 56.8967 53.8589 56.8967 54.8102V54.9452C56.8967 55.8964 56.109 56.6635 55.1322 56.6635Z" fill="#FAE0B2"/>
<path d="M30.7146 75.1471C34.9228 71.0488 34.9228 64.4043 30.7146 60.3061C26.5063 56.2078 19.6834 56.2078 15.4752 60.3061C11.2669 64.4043 11.2669 71.0488 15.4752 75.1471C19.6834 79.2453 26.5063 79.2453 30.7146 75.1471Z" fill="#F48C7F"/>
<path d="M29.2225 61.2547C32.8964 64.5503 33.1233 70.1227 29.7393 73.7006C26.3552 77.2784 20.6332 77.4994 16.9593 74.2038C13.2854 70.9082 13.0585 65.3358 16.4426 61.758C19.8329 58.1862 25.5549 57.9592 29.2225 61.2547Z" fill="#F7CC7F"/>
<path d="M29.0265 70.4796C29.2345 70.7435 29.2219 71.1178 28.9887 71.3694C28.5413 71.8604 27.8103 72.4495 26.8902 72.8914C25.5479 73.5358 23.9977 73.7322 22.542 73.2473C21.6283 72.9466 20.7649 72.3268 20.1095 71.4799L19.3155 71.8604C19.0445 71.9893 18.7169 71.8788 18.5845 71.6149L18.5719 71.5965C18.4396 71.3326 18.553 71.0135 18.824 70.8846L19.4794 70.5716C19.347 70.363 19.2588 70.2341 19.1958 70.1175C19.095 69.9211 18.9941 69.6695 18.9059 69.3933L18.2316 69.7124C17.9606 69.8413 17.633 69.7308 17.5006 69.467C17.3683 69.2031 17.4817 68.8839 17.7527 68.7551L18.5656 68.3623C18.3324 67.3436 18.3703 66.3125 18.679 65.4288C19.2084 63.9191 20.3742 62.7715 21.7795 62.0964C22.5987 61.7037 23.2919 61.5441 23.8528 61.4889C24.2435 61.4459 24.6027 61.7159 24.6594 62.0964V62.1087C24.7161 62.5015 24.4325 62.8697 24.0292 62.9188C23.5692 62.9802 23.0272 63.1213 22.416 63.4159C21.5211 63.8455 20.7649 64.5512 20.3868 65.57C20.1789 66.1591 20.1221 66.8526 20.3301 67.5154L24.9178 65.3245C25.1887 65.1956 25.5164 65.3061 25.6488 65.57C25.7811 65.8339 25.6677 66.153 25.3967 66.2819L20.6074 68.571C20.6956 68.798 20.7838 69.0251 20.8594 69.1662C20.9477 69.3442 21.0422 69.5222 21.1808 69.7493L25.9828 67.454C26.26 67.3251 26.594 67.4356 26.7264 67.6995C26.8587 67.9695 26.7453 68.2948 26.4743 68.4237L21.8803 70.6207C22.3151 71.1301 22.8508 71.486 23.3927 71.6701C24.4766 72.0138 25.4345 71.9033 26.4491 71.4124C27.073 71.1178 27.5771 70.7435 27.9489 70.3875C28.264 70.1113 28.7618 70.1482 29.0265 70.4796Z" fill="white"/>
<path d="M29.0201 39.5648C29.1651 39.7919 29.1209 40.0803 28.9193 40.2644C28.5286 40.6204 27.9047 41.0316 27.1422 41.3077C26.0268 41.7128 24.7916 41.7557 23.6825 41.2586C22.9893 40.9518 22.3529 40.3995 21.8991 39.6814L21.2438 39.9208C21.0232 40.0006 20.7711 39.8901 20.6892 39.6753L20.6829 39.6569C20.601 39.4421 20.7144 39.1966 20.935 39.1168L21.4769 38.9204C21.3887 38.7486 21.332 38.6381 21.2942 38.5399C21.2312 38.3742 21.1744 38.1717 21.124 37.9447L20.5695 38.1472C20.3489 38.227 20.0968 38.1165 20.0149 37.9017C19.933 37.6869 20.0464 37.4414 20.267 37.3616L20.9413 37.1162C20.8341 36.2938 20.9476 35.4837 21.2627 34.8087C21.7983 33.6549 22.8129 32.8387 23.9724 32.4152C24.653 32.1697 25.2076 32.0961 25.6613 32.09C25.9764 32.0838 26.2347 32.3232 26.2473 32.63V32.6423C26.2599 32.9614 26.0079 33.2253 25.6865 33.2376C25.3147 33.2498 24.8799 33.3235 24.3757 33.5076C23.6321 33.7776 22.983 34.2809 22.6049 35.0541C22.397 35.5083 22.2962 36.0483 22.4096 36.5884L26.2032 35.2014C26.4238 35.1216 26.6759 35.2321 26.7578 35.4469C26.8397 35.6617 26.7263 35.9072 26.5057 35.987L22.5419 37.4353C22.5923 37.6194 22.6491 37.8096 22.6932 37.9262C22.7499 38.0735 22.8066 38.2208 22.9011 38.4111L26.8712 36.9566C27.0981 36.8707 27.3565 36.9873 27.4384 37.2082C27.5266 37.4292 27.4069 37.6808 27.18 37.7605L23.3801 39.1475C23.6825 39.5832 24.0732 39.9024 24.4955 40.0865C25.321 40.4363 26.0898 40.424 26.9279 40.1172C27.4447 39.9269 27.8669 39.6692 28.1946 39.4237C28.453 39.215 28.8437 39.2825 29.0201 39.5648Z" fill="#86B1F2"/>
<path d="M64.2358 27.217L65.4457 26.6217L66.6368 27.2538C66.7754 27.3275 66.9329 27.217 66.9077 27.0636L66.6998 25.7564L67.6829 24.8481C67.7963 24.7438 67.7396 24.5597 67.582 24.5351L66.2397 24.3265L65.66 23.1298C65.5907 22.9948 65.3953 22.9886 65.326 23.1236L64.7084 24.3019L63.3598 24.4738C63.2086 24.4922 63.1456 24.6763 63.2527 24.7806L64.2106 25.7196L63.9585 27.0206C63.9396 27.1679 64.1034 27.2845 64.2358 27.217Z" fill="#F7CC7F"/>
<path d="M39.9419 3.25261L38.6879 3.37535L38.2594 1.43606L36.4067 1.39924L35.8458 0L35.1211 0.276165L35.871 2.14795L37.6292 2.18477L38.0703 4.20385L39.9545 4.01973L39.9419 3.25261Z" fill="#50BFA5"/>
<path d="M65.6463 32.3066L66.9823 32.7362C66.9823 32.7362 69.106 32.0672 69.3139 31.6438C69.5219 31.2203 69.5849 30.2016 69.8811 30.1709C70.1836 30.1402 70.7696 30.2384 70.9083 30.938C71.0091 31.4474 70.2466 32.9141 70.3663 33.0675C70.4419 33.1657 71.2044 33.4358 71.7653 33.6199C72.1308 33.7426 72.4018 34.0617 72.4585 34.4422C72.4963 34.7 72.3451 34.9516 72.0993 35.0437L71.7149 35.191L71.8409 35.5776C71.9354 35.866 71.7716 36.1729 71.4754 36.2711L71.1792 36.3693L71.2738 36.6025C71.3935 36.9032 71.2233 37.253 70.902 37.3389L70.6436 37.4125L70.6562 37.4801C70.7003 37.7624 70.5176 38.0324 70.2403 38.106L69.9819 38.1735L66.4151 37.0259C66.0811 36.9216 65.7723 36.7436 65.514 36.5165L64.3292 35.909C64.2032 35.8415 64.1465 35.6942 64.1906 35.5592L65.2871 32.4784C65.3312 32.3372 65.4951 32.2575 65.6463 32.3066Z" fill="#FAE0B2"/>
<path d="M22.7304 28.1012C22.7115 28.0521 22.2956 27.3525 21.7536 26.5977C19.2392 23.0628 15.5023 19.6629 11.1289 19.7917V19.7672C13.1077 19.5585 15.0486 20.0679 16.7501 20.9823C19.5606 22.4552 22.2956 25.2659 23.7891 27.4262L22.7304 28.1012Z" fill="#F7CC7F"/>
<path d="M51.5156 23.6956C51.5156 23.6956 51.6417 23.444 51.6354 22.861C51.6228 22.1368 51.4778 21.0506 51.4463 20.9524C51.3896 20.7806 53.7905 20.0441 53.7905 20.0441C53.7905 20.0441 57.6409 19.8539 58.2081 19.4366C58.7815 19.0192 59.2605 18.8474 58.9958 19.277C58.5106 20.0625 57.3825 21.2102 57.1368 21.3697C56.8847 21.5293 53.8977 22.2596 53.8473 22.2596C53.7905 22.2596 53.8095 24.0884 53.8095 24.0884L51.5156 23.6956Z" fill="#F7A491"/>
<path d="M54.0114 22.9166C54.0114 22.9166 51.5222 22.5054 51.4718 22.7448C50.4635 28.1146 50.2933 29.8882 50.1862 29.9435C49.8081 30.1337 44.3823 25.5003 43.4875 25.1934C43.0589 25.0461 42.5926 25.0707 42.1452 25.083C41.0802 25.1137 41.4394 25.0891 40.8785 25.1137C40.847 25.1137 40.8281 25.1198 40.8281 25.1198L40.8344 26.0956C42.0381 27.145 44.7856 43.0828 45.0188 43.0766C45.2772 43.0644 50.7093 44.3961 50.6147 43.9481C50.6021 43.8744 46.9282 40.9532 45.8884 36.731C45.5418 35.3133 45.3654 33.7914 45.1763 32.4535C46.3863 33.0427 51.1 35.3011 51.8436 35.0065C54.1752 34.0859 54.0114 22.9166 54.0114 22.9166Z" fill="#3C8F7C"/>
<path d="M63.3711 51.2144C63.3711 51.2144 68.4251 55.0685 68.5952 55.7558C68.841 56.7377 73.4665 55.449 72.3511 55.2464C72.0927 55.1973 71.2735 54.9948 71.2042 54.9641C70.845 54.7739 66.3455 49.4961 66.3455 49.4961L63.3711 51.2144Z" fill="#F7A491"/>
<path d="M74.5241 55.246L71.2976 54.9883C71.2976 54.9883 70.3776 55.7309 68.6005 55.7677C68.6005 55.7677 68.3169 56.5594 68.4492 57.4799C68.4745 57.6395 68.4997 58.1181 68.6635 58.1059C69.2622 58.0691 70.8502 57.6824 72.6588 57.3265C72.6588 57.3265 75.0913 56.8232 76.4966 56.007C77.9019 55.1908 74.5241 55.246 74.5241 55.246Z" fill="#184655"/>
<path d="M40.7207 41.5431C40.7207 41.5431 44.4199 42.1507 48.516 41.2179C53.2549 40.1378 58.4917 39.1436 60.0293 40.0089C61.2644 40.7085 68.9778 52.0619 68.9778 52.0619L65.997 54.1792L57.5023 44.9123C57.5023 44.9123 46.6633 48.8093 44.2308 48.3736C38.6853 47.3917 38.6097 43.0774 40.7207 41.5431Z" fill="#B75742"/>
<path d="M44.7684 39.248L48.4738 43.5378L41.5986 45.5753L40.7227 41.5433L44.7684 39.248Z" fill="#B75742"/>
<path d="M52.2963 58.8301C52.2963 58.8301 52.0695 64.783 51.9309 65.7956C51.7923 66.8021 54.5265 69.8215 54.1737 68.772C54.0918 68.5327 53.8839 67.7287 53.8839 67.6551C53.8839 67.2562 54.8982 60.4625 54.8982 60.4625L52.2963 58.8301Z" fill="#F7A491"/>
<path d="M55.2093 70.6326L53.9048 67.742C53.9048 67.742 52.7957 67.3063 51.9198 65.8027C51.9198 65.8027 51.0753 65.9316 50.3002 66.4901C50.1679 66.5883 49.2604 67.2265 49.3234 67.3799C49.5566 67.9261 50.7854 69.0983 52.134 70.3748C52.134 70.3748 54.0435 71.8722 55.4488 72.6885C56.8603 73.5047 55.2093 70.6326 55.2093 70.6326Z" fill="#184655"/>
<path d="M58.2951 47.0904C57.0032 45.4088 46.5549 43.8132 46.5549 43.8132L43.6435 38.3574L37.2031 42.2237C37.2031 42.2237 37.8459 47.2131 38.3311 48.551C38.9739 50.3307 43.3032 50.4166 45.9499 50.3921C48.3824 50.3675 52.8251 50.8523 52.8251 50.8523L51.319 63.7646C51.319 63.7646 54.2745 64.4213 55.1064 64.3108C55.1946 64.3046 59.902 49.1831 58.2951 47.0904Z" fill="#F47458"/>
<path d="M40.8723 25.1328L37.2362 25.3292C37.2362 25.3292 37.1542 25.3599 37.129 25.3599C36.8328 25.4151 37.1038 35.7253 37.3685 39.5793C37.6332 43.4333 38.1688 45.0474 38.1688 45.0474C38.1688 45.0474 43.0968 44.1943 44.6092 43.6236C45.2394 43.3842 46.7581 41.537 46.7581 41.537C46.7581 41.537 45.2079 39.5057 44.4264 36.204C43.8215 33.6571 43.0779 29.1464 42.6557 28.2013C41.6663 26.0411 40.8723 25.1328 40.8723 25.1328Z" fill="white"/>
<path d="M37.3391 22.2025L37.2383 25.3262C37.2383 25.3262 39.5888 29.2723 40.7988 28.7261C41.8133 28.2658 40.9122 25.2587 40.9122 25.2587C40.9122 25.2587 40.7357 24.5713 40.4963 23.7797C40.3261 23.2273 40.1875 22.6259 40.1938 22.1902C40.219 21.1223 37.3391 22.2025 37.3391 22.2025Z" fill="#F7A491"/>
<path d="M40.1456 15.0781C40.1456 15.0781 41.343 16.8394 41.4312 18.3185C41.5194 19.7975 41.198 20.8101 41.198 20.8101L37.3477 16.3301L40.1456 15.0781Z" fill="#184655"/>
<path d="M41.8339 18.0182C41.8906 18.5399 41.6827 18.9817 41.374 19.0124C41.0653 19.0431 40.7692 18.6503 40.7124 18.1287C40.6557 17.607 40.8637 17.1652 41.1724 17.1345C41.4874 17.1038 41.7772 17.4966 41.8339 18.0182Z" fill="#F48C7F"/>
<path d="M36.1103 17.0494C36.022 17.031 36.0283 21.3453 37.3139 22.3579C38.5994 23.3705 40.8303 23.4626 41.4856 22.4377C42.204 21.3085 41.5235 16.761 39.614 15.7975C37.6983 14.834 36.1103 17.0494 36.1103 17.0494Z" fill="#F7A491"/>
<path d="M35.7857 14.3732C34.8089 15.2078 34.33 15.8215 33.6683 17.3066C32.8554 19.1355 34.4686 21.0318 35.8235 21.7805C37.1784 22.5354 37.2918 23.4559 37.2918 23.4559L37.3485 22.879C37.4052 22.431 37.2666 22.1794 37.1406 21.9094C37.0271 21.67 36.6553 20.8477 36.5104 20.6268C36.126 20.056 36.0567 19.9271 36.2394 19.3871C36.3843 18.9698 36.2142 18.0431 36.4411 17.3496L38.2686 16.9691C38.2686 16.9691 39.4092 16.6991 39.9889 16.0547C41.6463 14.2013 38.3694 12.127 35.7857 14.3732Z" fill="#184655"/>
<path d="M36.6732 19.8662C36.9 20.3387 36.8496 20.8235 36.5661 20.9524C36.2826 21.0813 35.8731 20.799 35.6463 20.3264C35.4195 19.8539 35.4699 19.3691 35.7534 19.2402C36.0432 19.1113 36.4527 19.3936 36.6732 19.8662Z" fill="#F7A491"/>
<path d="M12.0922 21.4116L11.796 19.4232L13.3084 18.0608C13.4785 17.9073 13.3966 17.625 13.1635 17.5882L11.1343 17.2507L10.271 15.428C10.1701 15.2193 9.87395 15.2132 9.76052 15.4157L8.80266 17.1893L6.75459 17.4286C6.52143 17.4532 6.4206 17.7294 6.58444 17.8951L8.02124 19.3311L7.61793 21.3011C7.57382 21.5282 7.81328 21.7061 8.02124 21.6018L9.86765 20.7119L11.6636 21.6939C11.8842 21.8043 12.13 21.6386 12.0922 21.4116Z" fill="#F7CC7F"/>
<path d="M24.2433 7.97317C24.4513 8.80166 24.8231 10.115 24.8231 10.115C24.7916 10.4771 24.6845 11.9745 24.5521 13.8156L27.3312 12.7355C27.3312 12.7355 27.2997 9.74063 27.4194 9.55652C27.5265 9.40309 27.703 9.59334 28.5537 8.4089C28.7995 8.06522 28.8436 7.45766 28.8436 7.45766C28.8436 7.45766 28.894 6.70281 28.7176 6.6353C28.5411 6.5678 28.3458 6.67826 28.2827 6.80714C28.2197 6.93602 28.2386 7.24287 28.1756 7.37174C28.1126 7.50062 27.7093 7.66018 27.5391 7.64791C27.369 7.64177 27.558 5.42018 27.558 5.42018C27.558 5.42018 27.6526 4.78807 27.703 4.58555C27.7408 4.40757 27.9109 3.8982 27.9109 3.8982C27.9109 3.8982 28.1063 3.14949 27.8668 3.09425C27.7282 3.06357 27.369 3.665 27.1232 4.30938C26.8585 5.00286 26.7073 5.7393 26.6317 5.72703C26.4552 5.70248 26.5498 4.48735 26.5498 4.48735C26.5498 4.48735 26.7262 3.92889 26.7199 3.665C26.8838 3.34587 26.9972 2.74445 26.701 2.69535C26.6443 2.68921 26.2599 3.44406 26.2599 3.44406C26.2599 3.44406 26.1086 3.97798 26.0204 4.2296C25.8629 4.67146 25.8377 5.36494 25.7557 5.67179C25.6864 5.92955 25.6234 5.81908 25.5982 5.83136C25.5793 5.83749 25.6171 5.48768 25.6549 5.00286C25.6738 4.75738 25.6486 4.47508 25.7179 4.19891C25.781 3.94116 25.8188 3.57294 25.8377 3.35201C25.8881 2.7199 25.4785 2.7874 25.3398 3.36428C25.2831 3.58521 25.2327 3.82456 25.176 4.0639C24.9554 5.009 24.9617 5.91727 24.8609 5.92341C24.7223 5.93569 24.8168 4.2787 24.8168 4.2787C24.8168 4.2787 24.6088 3.36428 24.4009 4.21119C24.1614 5.19925 24.1866 6.00319 24.1866 6.04001C24.2118 6.2855 24.0354 7.14467 24.2433 7.97317Z" fill="#F8A492"/>
<path d="M37.2279 25.3324C37.2279 25.3324 33.6296 25.1667 32.6969 24.7555C32.1361 24.51 27.5043 20.8708 27.5043 20.8708L27.5547 11.1436L24.2967 10.9043C24.2967 10.9043 22.6078 21.6563 23.1939 22.8346C23.7989 24.0497 30.5732 29.0514 31.9281 31.2239C32.7095 32.4758 34.3354 49.4876 34.5811 49.641C36.333 50.5309 41.7525 51.4146 41.6202 50.8807C38.1101 35.9801 37.2279 25.3324 37.2279 25.3324Z" fill="#3C8F7C"/>
<path d="M53.3186 21.1004C59.2978 21.1004 64.145 16.38 64.145 10.557C64.145 4.7341 59.2978 0.0136719 53.3186 0.0136719C47.3393 0.0136719 42.4922 4.7341 42.4922 10.557C42.4922 16.38 47.3393 21.1004 53.3186 21.1004Z" fill="#FAE0B2"/>
<path d="M59.7388 16.8169C63.287 13.3606 63.287 7.75663 59.7388 4.30024C56.1905 0.843853 50.4377 0.843854 46.8895 4.30025C43.3413 7.75664 43.3413 13.3606 46.8895 16.8169C50.4377 20.2733 56.1905 20.2733 59.7388 16.8169Z" fill="#F7CC7F"/>
<path d="M50.5046 16.2395L51.0213 14.8525C50.3848 14.5948 49.7988 14.2572 49.3388 13.9074C48.9544 13.6128 48.8724 13.0851 49.1434 12.6923L49.1749 12.6432C49.4774 12.2136 50.095 12.1216 50.5109 12.4468C50.9394 12.7782 51.4498 13.0851 52.0359 13.2937C52.8929 13.5944 53.5987 13.484 53.813 12.8948C54.021 12.3364 53.6681 11.8208 52.6976 11.0599C51.286 9.96747 50.4605 8.85054 50.9898 7.43289C51.4687 6.14412 52.7732 5.46905 54.4936 5.72681L55.0103 4.33984L56.4786 4.86149L55.9997 6.15026C56.5353 6.36505 56.9576 6.59826 57.2979 6.82533C57.7138 7.10763 57.8146 7.65996 57.531 8.065C57.2348 8.48232 56.6425 8.58665 56.2203 8.28593C55.9052 8.05886 55.5019 7.82566 54.9662 7.63541C53.9894 7.29174 53.5231 7.58632 53.3719 7.99749C53.1954 8.48232 53.605 8.97328 54.7078 9.89383C56.2644 11.1396 56.6866 12.1952 56.195 13.5147C55.7098 14.8157 54.3486 15.5951 52.5148 15.276L51.9603 16.7673L50.5046 16.2395Z" fill="white"/>
<path d="M53.0391 21.1614C53.0391 21.1614 54.041 20.7441 54.312 20.6582C54.583 20.5723 55.44 20.4127 55.44 20.4127C55.44 20.4127 56.776 19.081 57.1163 19.0442C57.4566 19.0073 56.3349 20.4986 56.3349 20.4986L55.8686 20.9344C55.8686 20.9344 56.6185 20.3084 56.7634 20.2225C56.9083 20.1366 58.0364 18.5471 58.3199 18.6514C58.6035 18.7557 57.8347 19.8727 57.4629 20.4618C57.0848 21.0571 55.3707 21.4192 55.3707 21.4192L53.0391 21.1614Z" fill="#F7A491"/>
<path d="M65.0201 25.4609C65.0201 25.7248 58.9327 25.7923 57.6723 31.0517L56.8594 30.794C58.668 25.4487 64.6925 25.6696 64.9886 25.4732C64.9949 25.4732 64.9949 25.4671 64.9949 25.4671H65.0201V25.4609Z" fill="#F7CC7F"/>
<path d="M90.625 59.2728L90.833 58.5732C91.9421 58.3707 92.8936 57.6342 93.2087 56.5848C93.3095 56.2473 93.3789 55.965 93.4293 55.5845L91.9484 55.1671L92.213 54.2834L93.549 54.6639C93.5994 54.222 93.6814 53.6513 93.8452 53.1051C94.3367 51.4542 95.824 50.6994 97.4246 51.1535C97.8783 51.2824 98.2312 51.4481 98.4959 51.6199C98.7354 51.7734 98.7984 52.0925 98.6408 52.3257C98.4833 52.5589 98.1619 52.6264 97.9161 52.4791C97.7145 52.3564 97.4561 52.2398 97.1284 52.1477C96.0067 51.8286 95.3198 52.4546 95.0236 53.4488C94.8409 54.0502 94.7968 54.5228 94.7464 54.9953L96.8196 55.5845L96.555 56.4682L94.5951 55.9159C94.4817 56.462 94.3493 57.0021 94.0721 57.4685C93.7318 58.027 93.2402 58.432 92.629 58.7021L92.6227 58.7327L96.4037 59.8006C96.681 59.8804 96.8448 60.1627 96.7629 60.4388L96.7503 60.4757C96.6684 60.7457 96.3785 60.9052 96.0949 60.8255L90.625 59.2728Z" fill="#F7CC7F"/>
</g>
<defs>
<clipPath id="clip0">
<rect width="102" height="78.4615" fill="white"/>
</clipPath>
</defs>
</svg>
