<svg width="18" height="18" viewBox="0 0 18 18" fill="none" xmlns="http://www.w3.org/2000/svg">
<path d="M9 1.6875C4.96793 1.6875 1.6875 4.96793 1.6875 9C1.6875 13.0321 4.96793 16.3125 9 16.3125C13.0321 16.3125 16.3125 13.0321 16.3125 9C16.3125 4.96793 13.0321 1.6875 9 1.6875ZM13.2188 8.09121C13.2188 8.17158 13.1868 8.24866 13.13 8.3055C13.0732 8.36233 12.9961 8.39426 12.9157 8.39426H10.8225C10.7625 8.39435 10.7039 8.37664 10.654 8.34336C10.6042 8.31009 10.5653 8.26275 10.5423 8.20735C10.5194 8.15195 10.5134 8.09099 10.5252 8.0322C10.537 7.9734 10.5659 7.91942 10.6084 7.87711L11.3878 7.0977L11.1909 6.86883C10.8388 6.50324 10.4015 6.23062 9.91826 6.07533C9.43499 5.92004 8.92077 5.88693 8.42157 5.97895C7.92238 6.07097 7.45377 6.28526 7.05763 6.60265C6.6615 6.92005 6.35019 7.33067 6.15153 7.79779C5.95288 8.26491 5.87308 8.77397 5.91926 9.27948C5.96544 9.78498 6.13616 10.2712 6.41617 10.6945C6.69617 11.1179 7.07673 11.4654 7.52382 11.7057C7.97091 11.9461 8.4706 12.0719 8.9782 12.072C9.61347 12.0714 10.233 11.8742 10.7518 11.5076C11.2706 11.1409 11.6632 10.6227 11.8758 10.0241C11.9004 9.95439 11.9385 9.89021 11.988 9.83523C12.0374 9.78025 12.0972 9.73554 12.1639 9.70366C12.2306 9.67178 12.3029 9.65336 12.3768 9.64943C12.4506 9.64551 12.5245 9.65617 12.5942 9.6808C12.6639 9.70543 12.7281 9.74355 12.7831 9.79299C12.8381 9.84242 12.8828 9.9022 12.9146 9.96891C12.9465 10.0356 12.9649 10.108 12.9689 10.1818C12.9728 10.2556 12.9621 10.3295 12.9375 10.3992C12.6811 11.1248 12.2302 11.7659 11.6341 12.2525C11.0379 12.7392 10.3195 13.0525 9.55728 13.1584C8.79506 13.2643 8.0184 13.1586 7.31219 12.853C6.60598 12.5473 5.99738 12.0533 5.55293 11.4251C5.10847 10.7969 4.84526 10.0586 4.79205 9.29093C4.73885 8.52323 4.8977 7.75569 5.25125 7.07218C5.60479 6.38866 6.13943 5.81549 6.79672 5.4153C7.45401 5.01512 8.20867 4.80331 8.9782 4.80305C9.54614 4.80088 10.1085 4.91501 10.6307 5.13842C11.1528 5.36183 11.6237 5.68978 12.0143 6.10207L12.034 6.12387L12.1855 6.29965L12.7016 5.78355C12.7291 5.75544 12.7619 5.73306 12.7981 5.71773C12.8343 5.7024 12.8732 5.69442 12.9125 5.69426C12.9526 5.69393 12.9922 5.70154 13.0293 5.71665C13.0663 5.73176 13.1 5.75407 13.1284 5.78229C13.1568 5.8105 13.1793 5.84407 13.1946 5.88103C13.2099 5.918 13.2178 5.95764 13.2177 5.99766L13.2188 8.09121Z" fill="#0084F8"/>
</svg>
