<svg width="121" height="76" viewBox="0 0 121 76" fill="none" xmlns="http://www.w3.org/2000/svg">
<path d="M6.63785 51.4847L5.80128 49.8761L4.00861 49.654C3.80545 49.6299 3.71581 49.3778 3.85923 49.2338L5.12604 47.9372L4.77946 46.1544C4.73763 45.9504 4.94677 45.7943 5.13202 45.8843L6.75139 46.6887L8.32893 45.8063C8.50819 45.7042 8.72331 45.8543 8.69343 46.0584L8.43051 47.8532L9.7511 49.0897C9.90049 49.2278 9.82879 49.4859 9.62562 49.5159L7.84491 49.816L7.08004 51.4607C6.99638 51.6588 6.73346 51.6648 6.63785 51.4847Z" fill="#9BC1F9"/>
<path d="M21.5989 27.1464C21.6288 28.2929 21.9276 30.76 24.5209 31.1681C26.1284 31.4202 28.1899 29.9676 28.0585 28.8992C27.927 27.8307 27.6282 25.1175 25.9491 24.4932C24.5448 23.977 21.5272 24.5833 21.5989 27.1464Z" fill="#184655"/>
<path d="M43.2383 64.2764C43.6028 65.825 43.8956 68.058 44.0031 68.178C44.0569 68.2381 44.1585 68.6282 44.2123 68.6883C45.8854 69.3005 47.3614 68.6702 48.5266 67.9739C47.6124 67.8119 46.3814 67.6438 46.2081 67.5177C45.5747 67.0676 45.7241 65.4589 45.6106 64.0182C45.1564 64.1083 44.0569 63.8202 43.2383 64.2764Z" fill="#F7A491"/>
<path d="M43.9648 68.0944C43.9768 68.7066 44.3652 70.0092 44.4907 70.0092C44.6341 70.0092 49.6655 69.571 50.1435 68.7967C50.4304 68.3285 49.6535 68.2084 48.5242 67.9863C47.353 68.6766 44.1023 68.4785 43.9648 68.0944Z" fill="#466EB6"/>
<path d="M19.3296 67.7344C18.1644 68.6528 16.9872 69.3851 16.8378 69.4511C16.7661 69.4871 16.3657 69.4811 16.288 69.5171C15.2543 70.9758 15.4634 72.5665 15.816 73.881C16.2163 73.0407 16.6884 71.8642 16.8736 71.7621C17.1664 71.594 18.2122 70.9698 20.0945 70.2014C19.4611 69.5111 19.5507 68.6528 19.3296 67.7344Z" fill="#F7A491"/>
<path d="M21.9845 35.4082L18.3873 41.981C18.3873 41.981 15.9851 45.0244 14.7422 46.585C15.0111 47.0232 15.268 47.4734 15.4951 47.9356C16.7261 46.8852 19.3493 44.6522 20.2815 43.4157C21.6619 41.5909 24.1656 37.263 24.1656 37.263L21.9845 35.4082Z" fill="#F7A491"/>
<path d="M31.5488 46.8574L27.7005 52.5599C27.7005 52.5599 27.4794 52.1757 28.8598 52.6859C30.2401 53.1902 39.1257 54.8589 39.6516 55.4892C40.0221 55.9333 42.7768 64.6911 43.3086 65.8136C44.1093 66.1378 45.2686 65.7776 46.0932 65.6575C46.147 61.4377 43.9241 53.7604 43.3265 52.86C42 50.8491 35.6898 48.6762 32.8454 47.4577C32.3853 47.2596 32.0268 47.0795 31.8057 46.9775C31.6384 46.8934 31.5488 46.8574 31.5488 46.8574Z" fill="#3C8F7C"/>
<path d="M16.7806 69.4664C16.189 69.3103 14.9939 69.3163 14.9581 69.4364C14.9222 69.5745 13.9901 74.5626 14.6115 75.2289C14.982 75.6311 15.3047 74.9108 15.8245 73.8783C15.472 72.5697 16.3803 69.5024 16.7806 69.4664Z" fill="#466EB6"/>
<path d="M30.5418 50.8688C30.5776 50.4426 31.4859 47.9395 31.8086 46.9671C31.8205 46.9371 31.5815 46.3729 31.3246 45.5625L30.9541 45.6225L25.4865 45.8686C25.4865 45.8686 23.2815 49.6083 23.5384 51.325C23.897 53.72 27.3449 62.2437 26.819 62.6459C25.8749 63.3722 21.2319 66.0734 18.8477 67.6761C19.003 68.6065 19.4273 69.897 20.0129 70.6354C21.9549 69.9571 30.3326 66.5656 31.1991 63.9605C31.958 61.6615 30.482 51.5951 30.5418 50.8688Z" fill="#50BFA5"/>
<path d="M30.4548 29.8593C30.4548 29.8593 28.9489 32.2364 28.0586 32.3204L31.2017 35.2377C31.2017 35.2377 33.341 32.0143 33.568 31.462C33.568 31.468 31.62 29.7213 30.4548 29.8593Z" fill="#F7CC7F"/>
<path d="M31.5549 44.2186C31.4115 45.5272 31.8178 46.9618 31.8178 46.9618C30.557 47.2319 26.0753 47.8082 24.9818 46.4696C24.94 46.4216 26.5355 43.6063 26.3144 42.4538C25.9917 40.7551 24.5874 37.8799 24.4739 37.7238C24.2767 37.4657 23.5596 38.8043 23.5596 38.8043C22.7171 38.8103 20.793 36.8474 20.793 36.8474C20.793 36.8474 22.7828 33.3659 23.3326 33.0358C23.8823 32.7056 28.4058 32.2134 28.4058 32.2134C28.7404 32.1894 29.6487 32.9818 29.8997 33.2339C32.756 36.1031 31.9851 40.2089 31.5549 44.2186Z" fill="#FAE0B2"/>
<path d="M25.8516 30.7617C25.8516 30.7617 26.3475 32.4004 26.3475 33.0667C26.3535 33.733 26.6164 34.6394 28.0028 34.5013C29.3891 34.3632 28.2537 32.9586 28.0565 32.3284C27.8593 31.6981 27.6203 29.6992 27.6203 29.6992L25.8516 30.7617Z" fill="#F7A491"/>
<path d="M27.7578 30.688C27.6801 30.1417 27.6263 29.6855 27.6263 29.6855L25.8516 30.748C25.8516 30.748 25.9531 31.0842 26.0607 31.5103C26.8973 31.5944 27.453 31.2342 27.7578 30.688Z" fill="#F47458"/>
<path d="M24.4063 25.8224C24.4063 25.8224 23.6773 26.3326 23.486 27.299C23.3008 28.2654 23.8685 30.6485 25.93 31.0206C27.9916 31.3988 28.6609 29.3939 28.0992 27.9413C27.5375 26.4887 26.4439 24.6879 24.4063 25.8224Z" fill="#F7A491"/>
<path d="M28.2959 27.33C28.2959 27.7382 28.1107 28.0683 27.8716 28.0683C27.6386 28.0683 27.4414 27.7442 27.4414 27.336C27.4414 26.9278 27.6266 26.5977 27.8657 26.5977C28.0987 26.5977 28.2899 26.9278 28.2959 27.33Z" fill="#F7A491"/>
<path d="M24.3871 29.3519C24.656 29.6761 24.6978 30.0902 24.4827 30.2763C24.2616 30.4624 23.8672 30.3423 23.5923 30.0182C23.3234 29.6941 23.2816 29.2799 23.4967 29.0938C23.7178 28.9077 24.1122 29.0278 24.3871 29.3519Z" fill="#F7A491"/>
<path d="M22.2939 24.9075C22.3776 23.797 23.1604 19.6552 20.6387 19.2651C18.117 18.8749 17.5792 21.6361 16.181 17.9145C14.8843 14.463 11.036 15.8016 10.8747 18.4187C10.5102 18.3887 10.1337 18.4427 9.78115 18.5928C8.55019 19.115 7.99447 20.5976 8.54422 21.9062C8.63385 22.1163 8.58007 22.3204 8.71153 22.4945C8.41873 23.635 8.6219 24.9375 9.49433 26.2641C11.8905 29.8837 14.2927 26.072 15.9121 26.2761C17.5314 26.4802 16.4738 27.7527 17.878 28.7432C19.2823 29.7336 20.4116 29.4755 22.6943 26.7683L23.256 26.024C23.256 26.024 22.2103 26.024 22.2939 24.9075Z" fill="#184655"/>
<path d="M41.2875 46.6476C41.0126 45.8492 29.8682 13.2311 29.3782 11.8025C28.6313 9.62358 26.247 8.44707 24.048 9.18539L7.42411 14.7498C5.22512 15.4821 4.04794 17.8471 4.79488 20.0321L16.7041 54.8771C17.4511 57.0561 19.8353 58.2326 22.0343 57.4943L38.6582 51.9299C40.8572 51.1975 42.0344 48.8325 41.2875 46.6476ZM37.248 47.53L20.4508 53.1484C19.184 53.5746 17.8096 52.8963 17.3794 51.6357L6.36644 19.4138C5.93621 18.1533 6.61742 16.7907 7.88423 16.3705L24.6815 10.7461C25.9483 10.3199 27.3226 10.9982 27.7529 12.2587C30.4299 20.0801 38.5268 43.7783 38.7658 44.4806C39.196 45.7412 38.5208 47.1038 37.248 47.53Z" fill="#355389"/>
<path d="M32.9464 51.3017C33.2034 52.052 32.0262 53.1205 30.3172 53.6907C28.6082 54.261 27.0187 54.1169 26.7618 53.3666C26.5048 52.6162 27.682 51.5478 29.391 50.9775C31.1 50.4073 32.6895 50.5514 32.9464 51.3017Z" fill="#184655"/>
<path d="M32.4931 51.3626C32.7321 52.0649 31.7581 53.0313 30.318 53.5115C28.8779 53.9917 27.5095 53.8116 27.2704 53.1093C27.0314 52.407 28.0054 51.4406 29.4455 50.9604C30.8856 50.4802 32.2481 50.6603 32.4931 51.3626Z" fill="#355389"/>
<path d="M14.9683 47.2545C14.7293 47.3865 14.568 47.5006 14.4903 47.5606C14.4963 47.5546 14.4963 47.5426 14.5022 47.5366C14.5799 47.4526 14.8488 47.1644 14.8488 47.1644C15.2014 46.8943 15.0161 46.6062 14.6875 46.7863C14.3588 46.9664 14.1676 47.1224 14.1676 47.1224C14.1676 47.1224 14.7413 46.5582 14.7353 46.4741C14.7293 46.186 14.2991 46.216 13.9107 46.7803C13.576 47.2725 14.072 48.1309 14.2154 48.3289C14.3588 48.6231 14.6158 48.7611 14.6158 48.7611L14.7054 48.2029C14.7054 48.2029 14.807 47.7827 15.1297 47.6386C15.4464 47.4886 15.297 47.0744 14.9683 47.2545Z" fill="#F7A491"/>
<path d="M17.5681 6.15914L11.5627 9.03438C10.8516 9.37053 10.0091 9.0704 9.66847 8.36209L8.05507 4.96462C7.72044 4.25031 8.01922 3.40394 8.72433 3.0618L14.7297 0.186552C15.4408 -0.149593 16.2834 0.150537 16.624 0.858843L18.2374 4.25631C18.578 4.97062 18.2732 5.82299 17.5681 6.15914Z" fill="#FAE0B2"/>
<path d="M9.11286 6.50586L7.82812 10.3535L10.6844 8.23461L9.11286 6.50586Z" fill="#FAE0B2"/>
<path d="M11.233 5.01503L11.9919 4.62486C11.9919 4.62486 12.6074 3.43034 12.5118 3.16022C12.4162 2.89011 11.9979 2.42791 12.1114 2.28384C12.2309 2.14578 12.5177 1.93569 12.8823 2.1758C13.1452 2.34987 13.4619 3.31029 13.5814 3.32229C13.6531 3.3343 14.1013 3.12421 14.418 2.96214C14.6271 2.86009 14.8781 2.8781 15.0693 3.01616C15.1948 3.1122 15.2426 3.28027 15.1769 3.43034L15.0753 3.65844L15.2964 3.77249C15.4637 3.85652 15.5294 4.06061 15.4458 4.22268L15.3621 4.39075L15.5055 4.45078C15.6908 4.52881 15.7684 4.75091 15.6669 4.92499L15.5892 5.06905L15.625 5.09306C15.7684 5.1951 15.8103 5.38719 15.7206 5.53725L15.637 5.67531L13.6172 6.71976C13.426 6.8158 13.2229 6.87583 13.0077 6.88783L12.2369 7.13394C12.1532 7.15795 12.0636 7.12194 12.0278 7.0439L11.1553 5.24913C11.1135 5.16509 11.1434 5.05704 11.233 5.01503Z" fill="white"/>
<path d="M3.81239 27.4961L2.31253 27.7962L2.49777 29.2128L1.03974 29.573L1.05169 30.9476L0 31.3978L0.22707 31.932L1.63132 31.3318L1.61937 30.0292L3.14313 29.651L2.95789 28.2584L4.31433 27.9883L3.81239 27.4961Z" fill="#F48C7F"/>
<path d="M4.05639 11.7621L3.21982 12.0202L2.65812 10.7116L1.39131 10.9397L0.811679 10.0273L0.351562 10.3275L1.12838 11.54L2.32946 11.3239L2.91507 12.6865L4.1759 12.2963L4.05639 11.7621Z" fill="#50BFA5"/>
<path d="M35.0788 17.0467C34.786 16.8066 34.1048 16.6085 33.7642 16.5725C33.4236 16.5425 31.9416 16.5425 31.7504 16.9026C31.5592 17.2628 33.1128 18.2772 33.1965 18.6974C33.2802 19.1176 32.2942 25.6664 32.0133 26.963C31.8759 27.6053 31.3381 28.8118 30.8242 29.8682C31.5592 29.9883 32.4496 30.5886 33.0172 31.0147C33.7403 29.4301 34.4753 27.6533 34.5649 26.8129C34.7501 25.1322 35.3656 17.2928 35.0788 17.0467Z" fill="#F7A491"/>
<path d="M32.5472 17.0358L32.5831 16.6157C32.2425 16.5196 31.8541 16.3755 31.6569 16.2915L31.6031 15.9734C31.4238 15.5352 31.2326 15.8473 31.1729 15.9494C31.1729 15.9494 31.1609 16.5136 31.2207 16.5796C31.2207 16.5796 31.8839 17.2819 32.1648 17.5461C32.3022 17.6781 32.7504 18.0443 32.7504 18.0443L33.103 17.5521L32.5472 17.0358Z" fill="#F7A491"/>
<rect x="42" width="79" height="23" rx="10" fill="#93BEFF"/>
<path d="M58.3285 15.9988C58.2454 15.9991 58.1642 15.9734 58.0967 15.9252L54.9225 13.6361L51.7482 15.9252C51.6804 15.9741 51.5987 16.0003 51.5149 16C51.4311 15.9997 51.3496 15.9729 51.2822 15.9235C51.2147 15.8741 51.1648 15.8046 51.1397 15.7251C51.1145 15.6456 51.1154 15.5602 51.1423 15.4813L52.3803 11.8339L49.1717 9.64525C49.1022 9.5979 49.0498 9.52968 49.022 9.45056C48.9943 9.37144 48.9927 9.28557 49.0175 9.20549C49.0423 9.12542 49.0922 9.05533 49.1599 9.00548C49.2277 8.95562 49.3096 8.92861 49.3939 8.92839H53.3522L54.5468 5.27165C54.5725 5.19271 54.6228 5.12389 54.6902 5.07509C54.7577 5.02629 54.839 5 54.9225 5C55.0059 5 55.0872 5.02629 55.1547 5.07509C55.2222 5.12389 55.2724 5.19271 55.2981 5.27165L56.4927 8.92962H60.4511C60.5354 8.92958 60.6176 8.9564 60.6855 9.00616C60.7534 9.05592 60.8035 9.126 60.8285 9.20613C60.8534 9.28627 60.8519 9.37226 60.8242 9.4515C60.7965 9.53074 60.744 9.59907 60.6744 9.64648L57.4646 11.8339L58.7019 15.4803C58.7219 15.5394 58.7276 15.6023 58.7184 15.6639C58.7091 15.7256 58.6853 15.7841 58.6488 15.8348C58.6123 15.8854 58.5642 15.9267 58.5085 15.9552C58.4528 15.9838 58.3911 15.9987 58.3285 15.9988Z" fill="#F1DB41"/>
<path d="M71.8675 15.9988C71.7844 15.9991 71.7033 15.9734 71.6358 15.9252L68.4615 13.6361L65.2873 15.9252C65.2195 15.9741 65.1378 16.0003 65.054 16C64.9702 15.9997 64.8887 15.9729 64.8212 15.9235C64.7538 15.8741 64.7039 15.8046 64.6787 15.7251C64.6536 15.6456 64.6545 15.5602 64.6813 15.4813L65.9194 11.8339L62.7108 9.64525C62.6413 9.5979 62.5888 9.52968 62.5611 9.45056C62.5333 9.37144 62.5318 9.28557 62.5566 9.20549C62.5814 9.12542 62.6313 9.05533 62.699 9.00548C62.7667 8.95562 62.8487 8.92861 62.9329 8.92839H66.8913L68.0859 5.27165C68.1116 5.19271 68.1618 5.12389 68.2293 5.07509C68.2968 5.02629 68.3781 5 68.4615 5C68.545 5 68.6263 5.02629 68.6937 5.07509C68.7612 5.12389 68.8114 5.19271 68.8372 5.27165L70.0317 8.92962H73.9901C74.0745 8.92958 74.1566 8.9564 74.2245 9.00616C74.2924 9.05592 74.3425 9.126 74.3675 9.20613C74.3925 9.28627 74.391 9.37226 74.3633 9.4515C74.3356 9.53074 74.2831 9.59907 74.2135 9.64648L71.0037 11.8339L72.241 15.4803C72.261 15.5394 72.2666 15.6023 72.2574 15.6639C72.2482 15.7256 72.2243 15.7841 72.1879 15.8348C72.1514 15.8854 72.1033 15.9267 72.0476 15.9552C71.9919 15.9838 71.9302 15.9987 71.8675 15.9988Z" fill="#F1DB41"/>
<path d="M85.4066 15.9988C85.3235 15.9991 85.2424 15.9734 85.1748 15.9252L82.0006 13.6361L78.8263 15.9252C78.7585 15.9741 78.6768 16.0003 78.593 16C78.5093 15.9997 78.4278 15.9729 78.3603 15.9235C78.2928 15.8741 78.2429 15.8046 78.2178 15.7251C78.1926 15.6456 78.1936 15.5602 78.2204 15.4813L79.4584 11.8339L76.2499 9.64525C76.1804 9.5979 76.1279 9.52968 76.1002 9.45056C76.0724 9.37144 76.0708 9.28557 76.0956 9.20549C76.1205 9.12542 76.1704 9.05533 76.2381 9.00548C76.3058 8.95562 76.3877 8.92861 76.472 8.92839H80.4304L81.6249 5.27165C81.6507 5.19271 81.7009 5.12389 81.7684 5.07509C81.8359 5.02629 81.9171 5 82.0006 5C82.084 5 82.1653 5.02629 82.2328 5.07509C82.3003 5.12389 82.3505 5.19271 82.3762 5.27165L83.5708 8.92962H87.5292C87.6135 8.92958 87.6957 8.9564 87.7636 9.00616C87.8315 9.05592 87.8816 9.126 87.9066 9.20613C87.9315 9.28627 87.9301 9.37226 87.9023 9.4515C87.8746 9.53074 87.8221 9.59907 87.7525 9.64648L84.5428 11.8339L85.78 15.4803C85.8001 15.5394 85.8057 15.6023 85.7965 15.6639C85.7872 15.7256 85.7634 15.7841 85.7269 15.8348C85.6904 15.8854 85.6424 15.9267 85.5867 15.9552C85.531 15.9838 85.4692 15.9987 85.4066 15.9988Z" fill="#F1DB41"/>
<path d="M98.9457 15.9988C98.8625 15.9991 98.7814 15.9734 98.7139 15.9252L95.5396 13.6361L92.3654 15.9252C92.2976 15.9741 92.2159 16.0003 92.1321 16C92.0483 15.9997 91.9668 15.9729 91.8994 15.9235C91.8319 15.8741 91.782 15.8046 91.7568 15.7251C91.7317 15.6456 91.7326 15.5602 91.7595 15.4813L92.9975 11.8339L89.7889 9.64525C89.7194 9.5979 89.667 9.52968 89.6392 9.45056C89.6115 9.37144 89.6099 9.28557 89.6347 9.20549C89.6595 9.12542 89.7094 9.05533 89.7771 9.00548C89.8448 8.95562 89.9268 8.92861 90.011 8.92839H93.9694L95.164 5.27165C95.1897 5.19271 95.2399 5.12389 95.3074 5.07509C95.3749 5.02629 95.4562 5 95.5396 5C95.6231 5 95.7044 5.02629 95.7719 5.07509C95.8394 5.12389 95.8896 5.19271 95.9153 5.27165L97.1099 8.92962H101.068C101.153 8.92958 101.235 8.9564 101.303 9.00616C101.371 9.05592 101.421 9.126 101.446 9.20613C101.471 9.28627 101.469 9.37226 101.441 9.4515C101.414 9.53074 101.361 9.59907 101.292 9.64648L98.0818 11.8339L99.3191 15.4803C99.3391 15.5394 99.3448 15.6023 99.3355 15.6639C99.3263 15.7256 99.3025 15.7841 99.266 15.8348C99.2295 15.8854 99.1814 15.9267 99.1257 15.9552C99.07 15.9838 99.0083 15.9987 98.9457 15.9988Z" fill="#F1DB41"/>
<path d="M112.481 15.9988C112.398 15.9991 112.317 15.9734 112.249 15.9252L109.075 13.6361L105.901 15.9252C105.833 15.9741 105.751 16.0003 105.667 16C105.583 15.9997 105.502 15.9729 105.435 15.9235C105.367 15.8741 105.317 15.8046 105.292 15.7251C105.267 15.6456 105.268 15.5602 105.295 15.4813L106.533 11.8339L103.324 9.64525C103.255 9.5979 103.202 9.52968 103.174 9.45056C103.147 9.37144 103.145 9.28557 103.17 9.20549C103.195 9.12542 103.245 9.05533 103.312 9.00548C103.38 8.95562 103.462 8.92861 103.546 8.92839H107.505L108.699 5.27165C108.725 5.19271 108.775 5.12389 108.843 5.07509C108.91 5.02629 108.991 5 109.075 5C109.158 5 109.24 5.02629 109.307 5.07509C109.375 5.12389 109.425 5.19271 109.45 5.27165L110.645 8.92962H114.603C114.688 8.92958 114.77 8.9564 114.838 9.00616C114.906 9.05592 114.956 9.126 114.981 9.20613C115.006 9.28627 115.004 9.37226 114.977 9.4515C114.949 9.53074 114.896 9.59907 114.827 9.64648L111.617 11.8339L112.854 15.4803C112.874 15.5394 112.88 15.6023 112.871 15.6639C112.861 15.7256 112.838 15.7841 112.801 15.8348C112.765 15.8854 112.717 15.9267 112.661 15.9552C112.605 15.9838 112.543 15.9987 112.481 15.9988Z" fill="#F1DB41"/>
<path d="M48.6241 27.3775L50.3935 22.7769C50.4592 22.6062 50.6128 22.485 50.7941 22.4608L56.1024 21.753C56.6128 21.685 56.8804 22.3397 56.4685 22.6486L49.3907 27.957C48.9892 28.2581 48.4439 27.846 48.6241 27.3775Z" fill="#93BEFF"/>
</svg>
