<svg width="168" height="82" viewBox="0 0 168 82" fill="none" xmlns="http://www.w3.org/2000/svg">
<path d="M24.8691 71.2012C24.8691 72.4577 24.4134 73.4375 23.502 74.1406C22.5905 74.8438 21.3535 75.1953 19.791 75.1953C18.0983 75.1953 16.7962 74.9772 15.8848 74.541V72.9395C16.4707 73.1868 17.1087 73.3822 17.7988 73.5254C18.4889 73.6686 19.1725 73.7402 19.8496 73.7402C20.9564 73.7402 21.7897 73.5319 22.3496 73.1152C22.9095 72.6921 23.1895 72.1061 23.1895 71.3574C23.1895 70.8626 23.0885 70.459 22.8867 70.1465C22.6914 69.8275 22.3594 69.5345 21.8906 69.2676C21.4284 69.0007 20.722 68.6979 19.7715 68.3594C18.4434 67.8841 17.4928 67.321 16.9199 66.6699C16.3535 66.0189 16.0703 65.1693 16.0703 64.1211C16.0703 63.0208 16.4837 62.1452 17.3105 61.4941C18.1374 60.8431 19.2311 60.5176 20.5918 60.5176C22.0111 60.5176 23.3164 60.778 24.5078 61.2988L23.9902 62.7441C22.8118 62.2493 21.666 62.002 20.5527 62.002C19.6738 62.002 18.987 62.1908 18.4922 62.5684C17.9974 62.946 17.75 63.4701 17.75 64.1406C17.75 64.6354 17.8411 65.0423 18.0234 65.3613C18.2057 65.6738 18.5117 65.9635 18.9414 66.2305C19.3776 66.4909 20.0417 66.7806 20.9336 67.0996C22.431 67.6335 23.4596 68.2064 24.0195 68.8184C24.5859 69.4303 24.8691 70.2246 24.8691 71.2012ZM34.127 75L33.8047 73.4766H33.7266C33.1927 74.1471 32.6589 74.6029 32.125 74.8438C31.5977 75.0781 30.9368 75.1953 30.1426 75.1953C29.0814 75.1953 28.248 74.9219 27.6426 74.375C27.0436 73.8281 26.7441 73.0501 26.7441 72.041C26.7441 69.8796 28.4727 68.7467 31.9297 68.6426L33.7461 68.584V67.9199C33.7461 67.0801 33.5638 66.4616 33.1992 66.0645C32.8411 65.6608 32.265 65.459 31.4707 65.459C30.5788 65.459 29.5697 65.7324 28.4434 66.2793L27.9453 65.0391C28.4727 64.7526 29.0488 64.528 29.6738 64.3652C30.3053 64.2025 30.9368 64.1211 31.5684 64.1211C32.8444 64.1211 33.7884 64.4043 34.4004 64.9707C35.0189 65.5371 35.3281 66.4453 35.3281 67.6953V75H34.127ZM30.4648 73.8574C31.474 73.8574 32.265 73.5807 32.8379 73.0273C33.4173 72.474 33.707 71.6992 33.707 70.7031V69.7363L32.0859 69.8047C30.7969 69.8503 29.8659 70.0521 29.293 70.4102C28.7266 70.7617 28.4434 71.3118 28.4434 72.0605C28.4434 72.6465 28.6191 73.0924 28.9707 73.3984C29.3288 73.7044 29.8268 73.8574 30.4648 73.8574ZM40.2988 75H38.6777V59.8047H40.2988V75ZM48.2578 75.1953C46.6758 75.1953 45.4258 74.7135 44.5078 73.75C43.5964 72.7865 43.1406 71.4486 43.1406 69.7363C43.1406 68.0111 43.5638 66.6406 44.4102 65.625C45.263 64.6094 46.4056 64.1016 47.8379 64.1016C49.179 64.1016 50.2402 64.5443 51.0215 65.4297C51.8027 66.3086 52.1934 67.4707 52.1934 68.916V69.9414H44.8203C44.8529 71.1979 45.1686 72.1517 45.7676 72.8027C46.373 73.4538 47.2227 73.7793 48.3164 73.7793C49.4688 73.7793 50.6081 73.5384 51.7344 73.0566V74.502C51.1615 74.7493 50.6178 74.9251 50.1035 75.0293C49.5957 75.14 48.9805 75.1953 48.2578 75.1953ZM47.8184 65.459C46.959 65.459 46.2721 65.7389 45.7578 66.2988C45.25 66.8587 44.9505 67.6335 44.8594 68.623H50.4551C50.4551 67.6009 50.2272 66.8197 49.7715 66.2793C49.3158 65.7324 48.6647 65.459 47.8184 65.459ZM61.8711 72.0801C61.8711 73.0762 61.5 73.8444 60.7578 74.3848C60.0156 74.9251 58.974 75.1953 57.6328 75.1953C56.2135 75.1953 55.1068 74.9707 54.3125 74.5215V73.0176C54.8268 73.278 55.377 73.4831 55.9629 73.6328C56.5553 73.7826 57.125 73.8574 57.6719 73.8574C58.5182 73.8574 59.1693 73.724 59.625 73.457C60.0807 73.1836 60.3086 72.7702 60.3086 72.2168C60.3086 71.8001 60.1263 71.4453 59.7617 71.1523C59.4036 70.8529 58.7005 70.5013 57.6523 70.0977C56.6562 69.7266 55.9466 69.4043 55.5234 69.1309C55.1068 68.8509 54.7943 68.5352 54.5859 68.1836C54.3841 67.832 54.2832 67.4121 54.2832 66.9238C54.2832 66.0514 54.638 65.3646 55.3477 64.8633C56.0573 64.3555 57.0306 64.1016 58.2676 64.1016C59.4199 64.1016 60.5462 64.3359 61.6465 64.8047L61.0703 66.123C59.9961 65.6803 59.0228 65.459 58.1504 65.459C57.3822 65.459 56.8027 65.5794 56.4121 65.8203C56.0215 66.0612 55.8262 66.3932 55.8262 66.8164C55.8262 67.1029 55.8978 67.347 56.041 67.5488C56.1908 67.7507 56.4284 67.9427 56.7539 68.125C57.0794 68.3073 57.7044 68.571 58.6289 68.916C59.8984 69.3783 60.7546 69.8438 61.1973 70.3125C61.6465 70.7812 61.8711 71.3704 61.8711 72.0801ZM82.3496 67.8418C82.3496 69.6712 81.9818 71.1914 81.2461 72.4023C80.5104 73.6133 79.472 74.4336 78.1309 74.8633L81.5293 78.3984H79.1172L76.334 75.1758L75.7969 75.1953C73.694 75.1953 72.0697 74.554 70.9238 73.2715C69.7845 71.9824 69.2148 70.166 69.2148 67.8223C69.2148 65.498 69.7878 63.6979 70.9336 62.4219C72.0794 61.1393 73.707 60.498 75.8164 60.498C77.8672 60.498 79.4688 61.1491 80.6211 62.4512C81.7734 63.7533 82.3496 65.5501 82.3496 67.8418ZM70.9727 67.8418C70.9727 69.7754 71.3828 71.2435 72.2031 72.2461C73.0299 73.2422 74.2279 73.7402 75.7969 73.7402C77.3789 73.7402 78.5736 73.2422 79.3809 72.2461C80.1882 71.25 80.5918 69.7819 80.5918 67.8418C80.5918 65.9212 80.1882 64.4661 79.3809 63.4766C78.5801 62.4805 77.3919 61.9824 75.8164 61.9824C74.2344 61.9824 73.0299 62.4837 72.2031 63.4863C71.3828 64.4824 70.9727 65.9342 70.9727 67.8418ZM86.8223 64.2969V71.2402C86.8223 72.1126 87.0208 72.7637 87.418 73.1934C87.8151 73.623 88.4368 73.8379 89.2832 73.8379C90.403 73.8379 91.2201 73.5319 91.7344 72.9199C92.2552 72.3079 92.5156 71.3086 92.5156 69.9219V64.2969H94.1367V75H92.7988L92.5645 73.5645H92.4766C92.1445 74.0918 91.6823 74.4954 91.0898 74.7754C90.5039 75.0553 89.8333 75.1953 89.0781 75.1953C87.776 75.1953 86.7995 74.8861 86.1484 74.2676C85.5039 73.6491 85.1816 72.6595 85.1816 71.2988V64.2969H86.8223ZM102.105 75.1953C100.523 75.1953 99.2734 74.7135 98.3555 73.75C97.444 72.7865 96.9883 71.4486 96.9883 69.7363C96.9883 68.0111 97.4115 66.6406 98.2578 65.625C99.1107 64.6094 100.253 64.1016 101.686 64.1016C103.027 64.1016 104.088 64.5443 104.869 65.4297C105.65 66.3086 106.041 67.4707 106.041 68.916V69.9414H98.668C98.7005 71.1979 99.0163 72.1517 99.6152 72.8027C100.221 73.4538 101.07 73.7793 102.164 73.7793C103.316 73.7793 104.456 73.5384 105.582 73.0566V74.502C105.009 74.7493 104.465 74.9251 103.951 75.0293C103.443 75.14 102.828 75.1953 102.105 75.1953ZM101.666 65.459C100.807 65.459 100.12 65.7389 99.6055 66.2988C99.0977 66.8587 98.7982 67.6335 98.707 68.623H104.303C104.303 67.6009 104.075 66.8197 103.619 66.2793C103.163 65.7324 102.512 65.459 101.666 65.459ZM115.719 72.0801C115.719 73.0762 115.348 73.8444 114.605 74.3848C113.863 74.9251 112.822 75.1953 111.48 75.1953C110.061 75.1953 108.954 74.9707 108.16 74.5215V73.0176C108.674 73.278 109.225 73.4831 109.811 73.6328C110.403 73.7826 110.973 73.8574 111.52 73.8574C112.366 73.8574 113.017 73.724 113.473 73.457C113.928 73.1836 114.156 72.7702 114.156 72.2168C114.156 71.8001 113.974 71.4453 113.609 71.1523C113.251 70.8529 112.548 70.5013 111.5 70.0977C110.504 69.7266 109.794 69.4043 109.371 69.1309C108.954 68.8509 108.642 68.5352 108.434 68.1836C108.232 67.832 108.131 67.4121 108.131 66.9238C108.131 66.0514 108.486 65.3646 109.195 64.8633C109.905 64.3555 110.878 64.1016 112.115 64.1016C113.268 64.1016 114.394 64.3359 115.494 64.8047L114.918 66.123C113.844 65.6803 112.87 65.459 111.998 65.459C111.23 65.459 110.65 65.5794 110.26 65.8203C109.869 66.0612 109.674 66.3932 109.674 66.8164C109.674 67.1029 109.745 67.347 109.889 67.5488C110.038 67.7507 110.276 67.9427 110.602 68.125C110.927 68.3073 111.552 68.571 112.477 68.916C113.746 69.3783 114.602 69.8438 115.045 70.3125C115.494 70.7812 115.719 71.3704 115.719 72.0801ZM121.822 73.8574C122.109 73.8574 122.385 73.8379 122.652 73.7988C122.919 73.7533 123.131 73.7077 123.287 73.6621V74.9023C123.111 74.987 122.851 75.0553 122.506 75.1074C122.167 75.166 121.861 75.1953 121.588 75.1953C119.518 75.1953 118.482 74.1048 118.482 71.9238V65.5566H116.949V64.7754L118.482 64.1016L119.166 61.8164H120.104V64.2969H123.209V65.5566H120.104V71.8555C120.104 72.5 120.257 72.9948 120.562 73.3398C120.868 73.6849 121.288 73.8574 121.822 73.8574ZM127.057 75H125.436V64.2969H127.057V75ZM125.299 61.3965C125.299 61.0254 125.39 60.7552 125.572 60.5859C125.755 60.4102 125.982 60.3223 126.256 60.3223C126.516 60.3223 126.741 60.4102 126.93 60.5859C127.118 60.7617 127.213 61.0319 127.213 61.3965C127.213 61.7611 127.118 62.0345 126.93 62.2168C126.741 62.3926 126.516 62.4805 126.256 62.4805C125.982 62.4805 125.755 62.3926 125.572 62.2168C125.39 62.0345 125.299 61.7611 125.299 61.3965ZM139.732 69.6387C139.732 71.3835 139.293 72.7474 138.414 73.7305C137.535 74.707 136.321 75.1953 134.771 75.1953C133.814 75.1953 132.965 74.9707 132.223 74.5215C131.48 74.0723 130.908 73.4277 130.504 72.5879C130.1 71.748 129.898 70.765 129.898 69.6387C129.898 67.8939 130.335 66.5365 131.207 65.5664C132.079 64.5898 133.29 64.1016 134.84 64.1016C136.337 64.1016 137.525 64.5996 138.404 65.5957C139.29 66.5918 139.732 67.9395 139.732 69.6387ZM131.578 69.6387C131.578 71.0059 131.852 72.0475 132.398 72.7637C132.945 73.4798 133.749 73.8379 134.811 73.8379C135.872 73.8379 136.676 73.4831 137.223 72.7734C137.776 72.0573 138.053 71.0124 138.053 69.6387C138.053 68.278 137.776 67.2461 137.223 66.543C136.676 65.8333 135.865 65.4785 134.791 65.4785C133.73 65.4785 132.929 65.8268 132.389 66.5234C131.848 67.2201 131.578 68.2585 131.578 69.6387ZM149.908 75V68.0762C149.908 67.2038 149.71 66.5527 149.312 66.123C148.915 65.6934 148.294 65.4785 147.447 65.4785C146.327 65.4785 145.507 65.7812 144.986 66.3867C144.465 66.9922 144.205 67.9915 144.205 69.3848V75H142.584V64.2969H143.902L144.166 65.7617H144.244C144.576 65.2344 145.042 64.8275 145.641 64.541C146.24 64.248 146.907 64.1016 147.643 64.1016C148.932 64.1016 149.902 64.4141 150.553 65.0391C151.204 65.6576 151.529 66.6504 151.529 68.0176V75H149.908Z" fill="#19324A"/>
<path opacity="0.4" d="M84 0.5625C74.3672 0.5625 66.5625 8.37281 66.5625 18C66.5625 27.6272 74.3672 35.4375 84 35.4375C93.6328 35.4375 101.438 27.6328 101.438 18C101.438 8.36719 93.6328 0.5625 84 0.5625ZM84 30.2344C83.3603 30.2344 82.735 30.0447 82.2031 29.6893C81.6712 29.3339 81.2566 28.8287 81.0118 28.2377C80.767 27.6467 80.703 26.9964 80.8278 26.369C80.9526 25.7416 81.2606 25.1653 81.713 24.713C82.1653 24.2606 82.7416 23.9526 83.369 23.8278C83.9964 23.703 84.6467 23.767 85.2377 24.0118C85.8287 24.2566 86.3339 24.6712 86.6893 25.2031C87.0447 25.735 87.2344 26.3603 87.2344 27C87.2334 27.8575 86.8924 28.6797 86.286 29.286C85.6797 29.8924 84.8575 30.2334 84 30.2344ZM86.8125 21.0002V21.0938C86.8125 21.3175 86.7236 21.5321 86.5654 21.6904C86.4071 21.8486 86.1925 21.9375 85.9688 21.9375H82.0312C81.8075 21.9375 81.5929 21.8486 81.4346 21.6904C81.2764 21.5321 81.1875 21.3175 81.1875 21.0938V20.8125C81.1875 17.9255 83.3763 16.7716 85.0301 15.8442C86.4483 15.049 87.318 14.5083 87.318 13.4536C87.318 12.06 85.5413 11.1333 84.1048 11.1333C82.193 11.1333 81.3316 12.0572 80.0759 13.6498C79.939 13.8232 79.7396 13.9361 79.5204 13.9641C79.3012 13.9921 79.0798 13.933 78.9038 13.7995L76.4639 11.9531C76.2921 11.8229 76.1767 11.632 76.1413 11.4194C76.1058 11.2068 76.1531 10.9887 76.2734 10.8098C78.1922 7.94531 80.6363 6.32812 84.4683 6.32812C88.4297 6.32812 92.6618 9.42188 92.6618 13.5C92.6618 18.9141 86.8125 18.9991 86.8125 21.0002Z" fill="#808D9B"/>
<path d="M84.0005 23.7656C83.3608 23.7656 82.7354 23.9553 82.2035 24.3107C81.6716 24.6661 81.2571 25.1713 81.0123 25.7623C80.7675 26.3533 80.7034 27.0036 80.8282 27.631C80.953 28.2584 81.2611 28.8347 81.7134 29.287C82.1657 29.7394 82.7421 30.0474 83.3695 30.1722C83.9969 30.297 84.6472 30.233 85.2382 29.9882C85.8292 29.7434 86.3343 29.3288 86.6897 28.7969C87.0451 28.265 87.2348 27.6397 87.2348 27C87.2348 26.1422 86.8941 25.3195 86.2875 24.713C85.6809 24.1064 84.8583 23.7656 84.0005 23.7656ZM84.4687 6.32812C80.6367 6.32812 78.1926 7.94531 76.2738 10.8112C76.154 10.99 76.1069 11.2078 76.1424 11.42C76.1778 11.6323 76.293 11.823 76.4644 11.9531L78.9042 13.803C79.0803 13.9365 79.3017 13.9956 79.5209 13.9676C79.74 13.9396 79.9395 13.8267 80.0763 13.6533C81.3321 12.0607 82.1934 11.1368 84.1052 11.1368C85.5417 11.1368 87.3185 12.0607 87.3185 13.4571C87.3185 14.5118 86.4487 15.0504 85.0305 15.8477C83.3768 16.7716 81.188 17.9255 81.188 20.8125V21.0938C81.188 21.3175 81.2769 21.5321 81.4351 21.6904C81.5933 21.8486 81.8079 21.9375 82.0317 21.9375H85.9692C86.193 21.9375 86.4076 21.8486 86.5658 21.6904C86.7241 21.5321 86.813 21.3175 86.813 21.0938V21.0002C86.813 18.9991 92.6623 18.9141 92.6623 13.5C92.6623 9.42188 88.4302 6.32812 84.4687 6.32812Z" fill="#808D9B"/>
</svg>
