<svg width="150" height="180" viewBox="0 0 150 180" fill="none" xmlns="http://www.w3.org/2000/svg">
<path d="M17.6105 101.644H9.79492V100.245L12.7682 97.2649C13.6462 96.3686 14.2272 95.7343 14.5111 95.3622C14.8003 94.9848 15.0106 94.631 15.142 94.3008C15.2735 93.9706 15.3392 93.6168 15.3392 93.2394C15.3392 92.7205 15.1815 92.3116 14.866 92.0128C14.5558 91.7141 14.1247 91.5647 13.5726 91.5647C13.1309 91.5647 12.7024 91.6459 12.2871 91.8084C11.877 91.9709 11.4012 92.2644 10.8596 92.689L9.85801 91.4703C10.4995 90.9305 11.1225 90.5478 11.7271 90.3225C12.3318 90.0971 12.9758 89.9844 13.6594 89.9844C14.7319 89.9844 15.5916 90.2648 16.2383 90.8256C16.885 91.3812 17.2083 92.1308 17.2083 93.0743C17.2083 93.5932 17.1137 94.0859 16.9244 94.5524C16.7404 95.0189 16.4538 95.5011 16.0648 95.999C15.6809 96.4917 15.0395 97.16 14.1404 98.0039L12.1372 99.938V100.017H17.6105V101.644Z" fill="#0084F8"/>
<path d="M126.277 32.2036H124.424V24.7816C124.424 23.8958 124.445 23.1935 124.487 22.6746C124.366 22.8004 124.216 22.9393 124.037 23.0913C123.864 23.2433 123.275 23.7255 122.27 24.5379L121.34 23.3664L124.731 20.709H126.277V32.2036Z" fill="#0084F8"/>
<path d="M96.6711 108.364C94.3954 107.453 92.6241 105.568 92.347 103.138C92.0436 100.478 91.8197 96.2413 91.9728 89.5664H74.86H57.7471C57.8972 96.1112 57.6849 100.312 57.3906 102.981C57.1127 105.501 55.2452 107.441 52.8612 108.324C47.239 110.406 37.3506 114.082 37.3506 114.082L74.86 126.254L111.53 114.313C111.53 114.323 102.045 110.515 96.6711 108.364Z" fill="#5B7186"/>
<path d="M90.4125 95.7857C89.342 96.5672 88.2126 97.3151 87.0072 98.0041C86.6953 98.189 86.375 98.3487 86.0547 98.5083C84.8241 99.2226 83.5007 99.8192 82.0594 100.265C79.8847 100.954 77.4487 101.332 74.7177 101.332C71.5737 101.332 68.8005 100.87 66.3308 100.012C64.3163 99.3234 62.504 98.3823 60.8772 97.2227C60.3546 96.8865 59.8405 96.542 59.3347 96.1639C59.36 95.4412 59.36 94.6681 59.36 93.8362V93.0548C59.3516 92.1304 59.3432 91.1389 59.3179 90.0801H90.4378C90.4125 90.9456 90.4041 91.7691 90.4041 92.5422C90.3957 92.5926 90.3957 92.643 90.4041 92.6934C90.3957 92.9119 90.3957 93.122 90.3957 93.3321C90.3872 94.206 90.3957 95.0211 90.4125 95.7857Z" fill="#47C2B1"/>
<path d="M110.74 56.0485C110.546 55.6031 110.26 55.0989 109.754 55.1073C109.206 55.1241 109.265 55.7544 109.172 56.1409C108.625 58.3005 108.203 60.4853 107.394 62.5692C107.099 63.3339 106.703 64.0314 105.978 64.4767C105.674 64.6616 105.312 64.9137 104.95 64.7036C104.595 64.5019 104.781 64.107 104.806 63.7961C105.16 58.9895 105.405 54.183 105.312 49.3597C105.253 46.4858 105.135 43.5952 104.494 40.7633C104.182 39.3684 103.508 38.4777 102.008 38.0408C97.3212 36.6795 92.5673 35.6711 87.6953 35.2677C84.7704 35.0241 81.913 34.5955 79.2494 33.2678C78.9628 33.125 78.651 32.8309 78.1368 33.125C80.5306 35.545 82.7812 38.0323 85.6808 39.923C85.2087 40.1415 84.9221 39.8978 84.6356 39.797C82.5789 39.0911 80.5053 38.4189 78.4908 37.6206C73.8296 35.7803 69.2104 33.8308 65.1645 30.7973C64.153 30.0326 63.2764 29.1167 62.3155 28.268C63.504 32.041 65.3837 35.4358 67.6679 38.6374C62.9055 35.0661 58.3117 31.3519 54.78 26.495C55.134 28.4781 55.7746 30.3268 56.4152 32.2006C54.1815 29.9822 52.0911 27.6966 50.6919 24.8816C50.5402 24.5875 50.5907 24.0413 50.0934 24.1001C49.7394 24.1421 49.5118 24.5287 49.3685 24.8732C49.2505 25.1757 49.1831 25.5034 49.1325 25.8227C48.4413 30.0831 47.9103 34.3518 48.5088 38.671C48.5509 38.9987 48.5846 39.3096 48.3065 39.5869C46.3847 41.486 45.6851 43.9397 45.1793 46.469C44.4291 50.1748 44.3111 53.9309 44.2521 57.6871C44.2184 60.0231 44.2353 62.3592 44.2268 64.6952C44.2268 65.0818 44.3111 65.5187 43.6958 65.5859C42.3893 65.7288 41.2598 64.9053 41.1418 63.6196C40.9227 61.292 40.7794 58.9643 40.5518 56.6451C40.5012 56.1745 40.6782 55.3174 40.2483 55.2838C39.5572 55.225 39.3633 56.0569 39.1863 56.6283C38.689 58.2837 38.8323 59.9559 39.161 61.6113C39.8269 64.9221 40.8721 68.0648 42.9288 70.7874C43.2828 71.258 43.6452 71.7454 44.387 71.3252C45.2299 70.8546 45.6092 71.3084 45.7778 72.0899C45.8705 72.4764 45.9464 72.8714 46.0475 73.2663C48.0199 80.9299 51.7961 87.5263 57.9156 92.711C58.8343 93.4841 59.7952 94.1815 60.7899 94.8117C64.4143 97.3831 68.9154 98.9208 74.6303 98.9208C79.1651 98.9208 82.8823 97.8873 85.9673 96.1058C86.2876 95.9378 86.6079 95.7865 86.9198 95.6016C95.2308 90.8035 100.423 83.7029 102.775 74.51C103.011 73.5856 103.002 72.426 104.57 72.8126C104.815 72.8714 105.177 72.5773 105.438 72.3924C106.475 71.6697 107.36 70.7958 108.009 69.7118C109.703 66.88 110.69 63.8045 111.17 60.5525C111.406 59.0064 111.389 57.5022 110.74 56.0485Z" fill="#47C2B1"/>
<path d="M102.858 76.92C101.838 80.8863 100.296 84.466 98.197 87.6423C96.6377 89.9952 94.7833 92.1211 92.617 94.0118V94.0202C91.909 94.6252 91.1757 95.2135 90.4086 95.7849C89.3381 96.5663 88.2087 97.3142 87.0033 98.0033C86.6914 98.1881 86.3711 98.3478 86.0508 98.5075C84.8202 99.2217 83.4968 99.8183 82.0555 100.264C79.8808 100.953 77.4448 101.331 74.7138 101.331C71.5698 101.331 68.7966 100.869 66.3269 100.012C64.3124 99.3225 62.5001 98.3814 60.8733 97.2218C60.3507 96.8857 59.8366 96.5411 59.3308 96.163C58.8757 95.8353 58.4374 95.4908 57.999 95.121C57.3584 94.5748 56.7431 94.0202 56.1531 93.4404C55.15 92.4741 54.2313 91.4657 53.3799 90.4069C49.8903 86.1298 47.5386 81.1804 46.1226 75.668L46.7463 75.6848H47.0076L47.3111 75.6932L101.527 76.8948H101.822L102.091 76.9032L102.858 76.92Z" fill="#47C2B1"/>
<path d="M110.74 55.2653C110.546 54.8199 110.26 54.3157 109.754 54.3241C109.206 54.3409 109.265 54.9712 109.172 55.3577C108.625 57.5173 108.203 59.7021 107.394 61.786C107.099 62.5507 106.703 63.2482 105.978 63.6935C105.674 63.8784 105.312 64.1305 104.95 63.9204C104.595 63.7187 104.781 63.3238 104.806 63.0129C105.16 58.2063 105.405 53.3998 105.312 48.5765C105.253 45.7026 105.135 42.812 104.494 39.9801C104.182 38.5852 103.508 37.6945 102.008 37.2575C97.3212 35.8963 92.5673 34.8879 87.6953 34.4845C84.7704 34.2409 81.913 33.8123 79.2494 32.4846C78.9628 32.3418 78.651 32.0477 78.1368 32.3418C80.5306 34.7618 82.7812 37.2491 85.6808 39.1398C85.2087 39.3583 84.9222 39.1146 84.6356 39.0138C82.5789 38.3079 80.5053 37.6357 78.4908 36.8374C73.8296 34.9971 69.2105 33.0476 65.1645 30.0141C64.153 29.2494 63.2764 28.3335 62.3155 27.4848C63.504 31.2578 65.3837 34.6526 67.6679 37.8542C62.9055 34.2829 58.3117 30.5687 54.78 25.7118C55.134 27.6949 55.7746 29.5436 56.4152 31.4174C54.1815 29.199 52.0911 26.9134 50.6919 24.0984C50.5402 23.8043 50.5907 23.2581 50.0934 23.3169C49.7394 23.3589 49.5118 23.7454 49.3685 24.09C49.2505 24.3925 49.1831 24.7202 49.1325 25.0395C48.4413 29.2999 47.9103 33.5686 48.5088 37.8878C48.5509 38.2155 48.5846 38.5264 48.3065 38.8037C46.3847 40.7028 45.6851 43.1565 45.1793 45.6858C44.4291 49.3915 44.3111 53.1477 44.2521 56.9039C44.2184 59.2399 44.2353 61.576 44.2268 63.912C44.2268 64.2985 44.3111 64.7355 43.6958 64.8027C42.3893 64.9456 41.2598 64.1221 41.1418 62.8364C40.9227 60.5088 40.7794 58.1811 40.5518 55.8619C40.5012 55.3913 40.6782 54.5342 40.2483 54.5006C39.5572 54.4418 39.3633 55.2737 39.1863 55.8451C38.689 57.5005 38.8323 59.1727 39.161 60.8281C39.81 64.1137 40.8552 67.2564 42.9119 69.979C43.2659 70.4496 43.6284 70.937 44.3701 70.5168C45.213 70.0462 45.5923 70.5 45.7609 71.2815C45.8536 71.668 45.9295 72.063 46.0306 72.4579C48.003 80.1215 51.7792 86.7179 57.8987 91.9026C58.8175 92.6756 59.7784 93.3731 60.773 94.0033C64.3975 96.5747 68.8986 98.1124 74.6135 98.1124C79.1483 98.1124 82.8655 97.0788 85.9505 95.2974C86.2708 95.1293 86.5911 94.9781 86.903 94.7932C95.214 89.9951 100.406 82.8945 102.758 73.7016C102.994 72.7772 102.986 71.6176 104.553 72.0042C104.798 72.063 105.16 71.7689 105.422 71.584C106.458 70.8613 107.343 69.9874 107.992 68.9034C109.687 66.0716 110.673 62.9961 111.153 59.7441C111.406 58.2231 111.389 56.719 110.74 55.2653Z" fill="#F0F5F9"/>
<path fill-rule="evenodd" clip-rule="evenodd" d="M107.413 21.7461C107.422 21.8469 107.43 21.9562 107.413 22.0486C107.413 22.1074 107.405 22.1578 107.397 22.2167C107.894 23.5696 108.341 25.7543 108.728 27.6955C108.889 28.4853 109.049 29.2416 109.192 29.8802C109.251 29.9391 109.31 30.0063 109.344 30.0903C109.47 30.8634 109.597 31.6365 109.731 32.4096C110.018 34.1154 110.313 35.8128 110.515 37.527C111.105 42.6109 111.493 47.6947 110.069 52.7197C109.959 53.1147 109.976 53.4004 110.389 53.6357C111.999 54.5348 112.623 56.0305 112.707 57.7448C112.943 62.7698 111.409 67.3158 108.619 71.4501C107.818 72.6434 106.714 73.6265 105.348 74.1475C104.531 74.45 104.244 74.9458 104.042 75.7021C103.334 78.3154 102.356 80.7859 101.117 83.0967C100.266 84.6849 99.2963 86.1975 98.2005 87.6428C97.7032 88.315 97.1806 88.9621 96.6243 89.6007C96.6159 89.6091 96.6074 89.6259 96.599 89.6343C96.4726 89.7772 96.3546 89.92 96.2281 90.0545C95.4864 90.9452 94.7109 91.8023 93.868 92.6342C93.7416 92.7602 93.5983 92.8779 93.4466 92.9955C93.0841 93.2812 92.7132 93.5753 92.6205 94.0123V94.0207C91.9125 94.6257 91.1791 95.2139 90.4121 95.7853C89.3416 96.5668 88.2121 97.3147 87.0068 98.0037C86.6949 98.1886 86.3746 98.3483 86.0543 98.5079C84.8237 99.2222 83.5003 99.8188 82.0589 100.264C81.6881 99.9449 81.3593 99.6507 81.0643 99.3987L80.3141 98.4911C80.2636 98.4407 80.2214 98.3903 80.1877 98.3399C79.8084 97.8105 80.2298 97.5752 80.744 97.4492C84.3432 96.592 87.5041 94.8862 90.4037 92.693C90.5807 92.567 90.7493 92.4409 90.9178 92.3065C92.1401 91.3569 93.2527 90.315 94.281 89.1973C94.3232 89.1553 94.3653 89.1133 94.4075 89.0629C96.068 87.2394 97.5009 85.2227 98.7737 83.0715C99.9369 81.1052 100.847 79.0465 101.53 76.8953C101.791 76.097 102.019 75.2819 102.221 74.45C102.407 73.7021 102.6 73.0215 103.072 72.6097L103.081 72.6013C103.393 72.3072 103.84 72.1392 104.489 72.1392C105.129 72.1392 105.626 71.6434 106.082 71.1896C106.099 71.1644 106.124 71.1476 106.149 71.1224C106.225 71.0468 106.301 70.9711 106.368 70.8955C108.433 68.7191 109.394 65.9881 110.085 63.1647C110.111 63.0723 110.136 62.9799 110.161 62.879C110.583 61.1732 111.004 59.4506 110.616 57.6607C110.608 57.5935 110.591 57.5263 110.583 57.459C110.566 57.3414 110.549 57.2322 110.515 57.1229C110.498 57.0809 110.49 57.0473 110.473 57.0053C110.397 56.7616 110.321 56.4927 110.01 56.4843C109.639 56.4843 109.571 56.8288 109.521 57.0977L109.512 57.1229C109.394 57.7363 109.226 58.333 109.049 58.938C108.88 59.5346 108.712 60.1228 108.594 60.7278C108.391 61.7446 107.987 62.6857 107.515 63.5933C107.169 64.2487 106.689 64.8033 105.972 65.0974C104.876 65.5596 104.143 65.1226 104.253 63.9798C104.312 63.4336 104.32 62.8958 104.337 62.3496C104.354 61.6858 104.379 61.0303 104.463 60.3749C104.607 59.2489 104.666 58.1229 104.615 56.9885C104.573 56.0809 104.649 55.1818 104.725 54.2827C104.8 53.4004 104.876 52.5265 104.834 51.6357C104.809 50.9635 104.784 50.2912 104.767 49.6106C104.674 46.7536 104.573 43.9049 103.983 41.0815C103.705 39.7622 103.03 38.9471 101.707 38.5606C97.1637 37.2329 92.5531 36.2834 87.8328 35.838C87.6811 35.8212 87.5378 35.8044 87.3861 35.796C84.8827 35.5607 82.3792 35.3254 79.918 34.1574C79.8842 34.149 79.859 34.1322 79.8252 34.1154C80.0613 34.3507 80.2973 34.5775 80.5249 34.8128C82.0168 36.317 83.4244 37.7371 85.1102 38.8715C85.262 38.9723 85.4221 39.0816 85.5654 39.1992C85.6497 39.2749 85.7256 39.3505 85.793 39.4261C85.9784 39.6362 86.0712 39.8631 85.9447 40.1236C85.8183 40.3841 85.5823 40.4933 85.3125 40.5017C85.0512 40.5101 84.7984 40.4261 84.5539 40.3504C84.5202 40.342 84.4865 40.3252 84.4528 40.3168C78.5187 38.3841 72.7112 36.1573 67.3334 32.9642C65.8752 32.0902 64.5266 31.0819 63.3718 29.9727C63.5404 30.3088 63.7005 30.6533 63.8691 30.9978C64.5519 32.4096 65.2599 33.8717 66.1112 35.2582C66.3641 35.6615 66.6507 36.0565 66.9288 36.443C67.2744 36.9136 67.6116 37.3842 67.8982 37.8883C68.092 38.2245 68.2775 38.5606 67.9403 38.8799C67.6116 39.1824 67.266 39.048 66.9288 38.8379C65.5802 37.9892 64.3833 36.9556 63.1779 35.9304C63.0431 35.8128 62.9082 35.6952 62.7733 35.5775C60.5396 33.6616 58.3565 31.6953 56.4853 29.4265C56.1481 29.0063 55.8278 28.5862 55.6592 28.2501C55.9964 29.2248 56.3841 30.3508 56.8477 31.4516C57.0079 31.8382 57.0922 32.2499 56.6454 32.5188C56.2577 32.7541 55.9374 32.5272 55.6592 32.2667C53.9229 30.6617 52.4562 28.8467 51.2003 26.8551C51.1244 26.7291 51.057 26.5778 50.9811 26.4266C50.7788 25.9896 50.5597 25.5359 50.1298 25.5947C49.5566 25.6787 49.5398 26.2585 49.5229 26.7711C49.5145 26.914 49.5145 27.0568 49.4976 27.1745C49.4555 27.5274 49.4049 27.8803 49.3628 28.2416C49.0509 30.5945 48.7474 32.9474 48.7727 35.3422C48.7812 36.1573 48.8823 36.964 48.975 37.7623C49.0172 38.1152 49.0593 38.4682 49.1015 38.8211C49.1436 39.3001 49.0677 39.6782 48.7137 40.0143C47.3145 41.3168 46.6318 43.031 46.1682 44.7957C45.4854 47.451 45.1651 50.1568 44.9712 52.9046C44.8111 55.2406 44.8195 57.5767 44.8195 59.9043C44.8279 61.3244 44.8279 62.7446 44.7942 64.1647V64.2739C44.7858 64.6016 44.7774 64.9294 44.7184 65.2571C44.6257 65.7445 44.3222 66.0386 43.8502 66.131C42.4257 66.4083 40.8326 65.2571 40.6134 63.837C40.4364 62.7109 40.3774 61.5681 40.3184 60.4253C40.2763 59.6775 40.2426 58.9212 40.1667 58.1733C40.1583 58.0725 40.1498 57.9716 40.1498 57.8708C40.133 57.5263 40.1161 57.1733 39.9223 56.7784C39.5261 57.2574 39.5092 57.7532 39.5008 58.2321C39.4334 62.4084 40.7146 66.2066 42.8387 69.7611C43.1253 70.2485 43.4877 70.593 43.985 70.6938C44.2126 70.7443 44.4739 70.7359 44.7689 70.6686C45.0977 70.593 45.3758 70.635 45.595 70.7779C45.8226 70.9291 45.9996 71.1728 46.1176 71.5005C46.3199 72.0467 46.4632 72.6181 46.598 73.1811C46.6655 73.4332 46.7245 73.6769 46.7919 73.929C46.9521 74.5256 47.1291 75.1138 47.3145 75.6937C48.7812 80.2901 50.998 84.4664 54.083 88.1386C54.1589 88.2394 54.2432 88.3402 54.3359 88.4327C55.0608 89.2898 55.8278 90.1133 56.6539 90.9032C57.5136 91.7351 58.4155 92.5081 59.3596 93.214C61.5511 94.8442 63.9787 96.1383 66.6423 97.029C66.7013 97.0458 66.7603 97.071 66.8193 97.0878C67.148 97.1971 67.4683 97.3063 67.7802 97.4492C68.1342 97.6172 68.3786 97.8357 68.2353 98.1886C68.2185 98.2558 68.1848 98.3231 68.1426 98.3903C68.0162 98.5079 67.8729 98.634 67.7127 98.7684C67.325 99.1129 66.853 99.5415 66.3304 100.012C64.3158 99.323 62.5036 98.3819 60.8768 97.2223C60.3542 96.8861 59.84 96.5416 59.3343 96.1635C58.8791 95.8358 58.4408 95.4912 58.0025 95.1215C57.3619 94.5753 56.7466 94.0207 56.1566 93.4409C56.0891 92.9619 55.7098 92.6594 55.3305 92.3653C55.1872 92.2477 55.0355 92.1384 54.9091 92.0124C54.378 91.4914 53.8639 90.9536 53.3834 90.4074C49.2026 85.7689 46.421 80.3657 44.7689 74.324L44.7605 74.2988C44.5498 73.5257 44.3812 72.887 43.3276 72.9291C42.7713 72.9459 42.3582 72.4669 41.9958 72.0383C39.72 69.2737 38.6326 65.9965 37.8234 62.6017C37.3767 60.7362 37.1913 58.854 37.5537 56.9549C37.815 55.5768 38.4135 54.3835 39.7115 53.6777C40.1836 53.4172 40.2341 53.0642 40.2088 52.5853C40.0993 50.2408 39.9475 47.8964 39.7958 45.5603C39.4502 40.1908 39.1046 34.8128 39.2395 29.4265C39.2648 28.5021 38.582 28.0064 37.9246 27.5358V27.5274C37.3008 27.082 36.7361 27.4182 36.1966 27.7627C36.1376 27.8047 36.0786 27.8551 36.0196 27.9139C35.851 28.0652 35.6909 28.2248 35.4717 28.04C35.2779 27.8719 35.3284 27.5694 35.379 27.3089C35.3874 27.2669 35.3959 27.2333 35.4043 27.1997C35.8679 24.5779 37.3093 22.5696 39.4249 21.0066C39.7031 20.7966 39.9897 20.6201 40.2847 20.4352C40.4954 20.3092 40.6977 20.1747 40.9 20.0403C41.1782 19.847 41.4395 19.6033 41.3383 19.2252C41.2456 18.9143 40.9506 18.7966 40.664 18.721C39.2058 18.3345 37.815 18.5529 36.4664 19.158C36.3989 19.1916 36.3399 19.2252 36.2725 19.2588C36.0365 19.3932 35.7836 19.5277 35.5476 19.3512C35.202 19.0823 35.379 18.6622 35.5223 18.3345C36.6181 15.8388 38.0932 13.6876 40.7399 12.5111C43.2011 11.4272 45.1398 9.70453 46.4042 7.34327C47.2977 5.67947 46.7666 4.6711 44.9207 4.19213C44.2716 4.02407 43.6142 3.99886 42.6954 3.96525C42.6027 3.95685 42.51 3.95685 42.4088 3.94844C43.6479 3.14175 44.7605 3.02411 45.8394 2.91487L45.8816 2.90647C49.5903 2.51993 53.2401 2.81403 56.7972 3.99046C57.6738 4.28456 58.483 4.04088 59.2753 3.77198C60.1688 3.47787 61.0622 3.16696 61.9473 2.85605C63.3549 2.36867 64.7626 1.87289 66.1871 1.44433C71.1686 -0.0430043 76.2851 -0.219468 81.4268 0.192281C86.8803 0.637642 92.2496 1.55357 97.3829 3.53669C100.207 4.62909 102.904 5.96517 105.18 8.01552C105.247 8.06594 105.323 8.12476 105.407 8.18358C105.652 8.35164 105.922 8.53651 105.795 8.82221C105.66 9.13312 105.365 9.04069 105.079 8.95666C104.986 8.93145 104.893 8.89784 104.817 8.88943C104.371 8.82221 103.932 8.74658 103.486 8.67936C103.165 8.62894 102.845 8.57012 102.525 8.5197C102.474 8.5113 102.423 8.50289 102.381 8.49449C102.162 8.44407 101.943 8.39365 101.808 8.61213C101.623 8.88943 101.825 9.0575 102.002 9.21715C102.044 9.25076 102.086 9.28438 102.128 9.32639C104.379 11.6372 106.571 14.0069 108.661 16.4606C108.998 16.8639 109.327 17.2757 109.656 17.6958C110.212 18.4017 110.768 19.1159 111.4 19.7462C112.614 20.9562 114.317 22.6956 113.39 24.351C112.547 24.4099 111.923 23.9477 111.308 23.4939C111.249 23.4519 111.19 23.4099 111.131 23.3679C110.684 23.0402 110.237 22.6956 109.79 22.3595C109.394 22.057 109.007 21.7545 108.602 21.4604C108.568 21.4352 108.535 21.41 108.501 21.3848C108.239 21.1915 107.953 20.9646 107.616 21.1495C107.38 21.2755 107.397 21.5108 107.413 21.7461Z" fill="#47C2B1"/>
<path d="M115.993 35.9745C115.993 38.7865 113.688 41.0661 110.845 41.0661C108.001 41.0661 105.696 38.7865 105.696 35.9745C105.696 33.1624 108.001 30.8828 110.845 30.8828C113.688 30.8828 115.993 33.1624 115.993 35.9745Z" fill="#0084F8"/>
<path fill-rule="evenodd" clip-rule="evenodd" d="M110.617 29.1891C110.692 29.1867 110.767 29.1855 110.843 29.1855C110.918 29.1855 110.993 29.1867 111.068 29.1891C111.112 29.1905 111.147 29.2274 111.146 29.2715C111.144 29.3156 111.107 29.3502 111.062 29.3488C110.989 29.3465 110.916 29.3453 110.843 29.3453C110.769 29.3453 110.696 29.3465 110.623 29.3488C110.578 29.3502 110.541 29.3156 110.539 29.2715C110.538 29.2274 110.573 29.1905 110.617 29.1891ZM111.427 29.2895C111.432 29.2456 111.471 29.2135 111.516 29.2178C111.666 29.2322 111.814 29.2514 111.961 29.2752C112.005 29.2824 112.035 29.3235 112.028 29.367C112.021 29.4105 111.979 29.44 111.935 29.4329C111.791 29.4096 111.646 29.3909 111.5 29.3768C111.455 29.3725 111.423 29.3334 111.427 29.2895ZM110.258 29.2895C110.262 29.3334 110.23 29.3725 110.185 29.3768C110.039 29.3909 109.894 29.4096 109.75 29.4329C109.706 29.44 109.665 29.4105 109.657 29.367C109.65 29.3235 109.68 29.2824 109.724 29.2752C109.871 29.2514 110.02 29.2322 110.17 29.2178C110.214 29.2135 110.253 29.2456 110.258 29.2895ZM109.38 29.4212C109.39 29.4642 109.363 29.5071 109.32 29.5171C109.177 29.55 109.035 29.5873 108.896 29.6291C108.853 29.6419 108.808 29.618 108.795 29.5758C108.782 29.5336 108.807 29.489 108.849 29.4762C108.992 29.4334 109.137 29.3952 109.283 29.3615C109.327 29.3515 109.37 29.3783 109.38 29.4212ZM112.305 29.4212C112.315 29.3783 112.358 29.3515 112.402 29.3615C112.548 29.3952 112.693 29.4334 112.836 29.4762C112.878 29.489 112.903 29.5336 112.89 29.5758C112.877 29.618 112.832 29.6419 112.789 29.6291C112.65 29.5873 112.508 29.55 112.365 29.5171C112.322 29.5071 112.295 29.4642 112.305 29.4212ZM108.528 29.6656C108.544 29.7069 108.522 29.753 108.481 29.7685C108.343 29.8196 108.208 29.8751 108.075 29.9347C108.035 29.9529 107.987 29.9351 107.969 29.895C107.95 29.8548 107.968 29.8075 108.009 29.7892C108.145 29.7282 108.283 29.6714 108.424 29.619C108.466 29.6035 108.512 29.6243 108.528 29.6656ZM113.157 29.6656C113.173 29.6243 113.22 29.6035 113.261 29.619C113.402 29.6714 113.54 29.7282 113.676 29.7892C113.717 29.8075 113.735 29.8548 113.717 29.895C113.698 29.9351 113.65 29.9529 113.61 29.9347C113.477 29.8751 113.342 29.8196 113.204 29.7685C113.163 29.753 113.142 29.7069 113.157 29.6656ZM113.97 30.0187C113.991 29.9798 114.04 29.9652 114.079 29.986C114.211 30.0561 114.341 30.1303 114.468 30.2085C114.506 30.2318 114.517 30.2811 114.494 30.3185C114.47 30.356 114.42 30.3674 114.382 30.3441C114.259 30.2677 114.132 30.1952 114.003 30.1268C113.963 30.106 113.949 30.0576 113.97 30.0187ZM107.715 30.0187C107.736 30.0576 107.722 30.106 107.682 30.1268C107.553 30.1952 107.426 30.2677 107.303 30.3441C107.265 30.3674 107.215 30.356 107.191 30.3185C107.168 30.2811 107.179 30.2318 107.217 30.2085C107.344 30.1303 107.474 30.0561 107.606 29.986C107.645 29.9652 107.694 29.9798 107.715 30.0187ZM114.729 30.474C114.755 30.4382 114.805 30.43 114.841 30.4557C114.963 30.5421 115.082 30.6324 115.197 30.7264C115.232 30.7544 115.237 30.8047 115.209 30.8388C115.18 30.8729 115.129 30.8778 115.095 30.8498C114.982 30.758 114.866 30.6699 114.747 30.5855C114.711 30.5597 114.703 30.5098 114.729 30.474ZM106.956 30.474C106.983 30.5098 106.974 30.5597 106.938 30.5855C106.819 30.6699 106.703 30.758 106.59 30.8498C106.556 30.8778 106.505 30.8729 106.476 30.8388C106.448 30.8047 106.453 30.7544 106.488 30.7264C106.603 30.6324 106.722 30.5421 106.844 30.4557C106.88 30.43 106.93 30.4382 106.956 30.474ZM115.421 31.0231C115.451 30.9909 115.502 30.9893 115.535 31.0194C115.644 31.1207 115.75 31.2255 115.853 31.3336C115.883 31.3658 115.882 31.4163 115.849 31.4465C115.816 31.4766 115.765 31.475 115.735 31.4428C115.635 31.3372 115.531 31.2349 115.425 31.136C115.392 31.1058 115.39 31.0553 115.421 31.0231ZM106.264 31.0231C106.295 31.0553 106.293 31.1058 106.26 31.136C106.154 31.2349 106.05 31.3372 105.95 31.4428C105.92 31.475 105.869 31.4766 105.836 31.4465C105.804 31.4163 105.802 31.3658 105.832 31.3336C105.935 31.2255 106.041 31.1207 106.15 31.0194C106.183 30.9893 106.234 30.9909 106.264 31.0231ZM116.035 31.6565C116.07 31.6285 116.121 31.6334 116.149 31.6675C116.244 31.7818 116.335 31.8993 116.423 32.0197C116.449 32.0556 116.44 32.1055 116.404 32.1312C116.368 32.1569 116.318 32.1487 116.291 32.1129C116.206 31.9953 116.117 31.8806 116.024 31.7689C115.996 31.7348 116.001 31.6845 116.035 31.6565ZM105.65 31.6565C105.684 31.6845 105.689 31.7348 105.661 31.7689C105.568 31.8806 105.479 31.9953 105.394 32.1129C105.368 32.1487 105.317 32.1569 105.281 32.1312C105.245 32.1055 105.236 32.0556 105.262 32.0197C105.35 31.8993 105.441 31.7818 105.536 31.6675C105.564 31.6334 105.615 31.6285 105.65 31.6565ZM116.561 32.3634C116.599 32.3401 116.649 32.3515 116.673 32.3889C116.752 32.5145 116.827 32.6427 116.898 32.7735C116.919 32.8124 116.904 32.8608 116.865 32.8816C116.825 32.9025 116.776 32.8878 116.755 32.849C116.686 32.7212 116.613 32.596 116.536 32.4734C116.512 32.436 116.524 32.3867 116.561 32.3634ZM105.124 32.3634C105.162 32.3867 105.173 32.436 105.149 32.4734C105.072 32.596 104.999 32.7212 104.93 32.849C104.909 32.8878 104.86 32.9025 104.82 32.8817C104.781 32.8608 104.766 32.8124 104.787 32.7735C104.858 32.6427 104.933 32.5145 105.012 32.3889C105.036 32.3515 105.086 32.3401 105.124 32.3634ZM104.695 33.1321C104.736 33.1503 104.754 33.1977 104.736 33.2378C104.675 33.3692 104.619 33.5028 104.567 33.6386C104.552 33.6799 104.505 33.7007 104.463 33.6852C104.422 33.6696 104.401 33.6236 104.416 33.5823C104.469 33.4432 104.527 33.3063 104.588 33.1718C104.607 33.1316 104.655 33.1139 104.695 33.1321ZM116.99 33.1321C117.03 33.1139 117.078 33.1316 117.097 33.1718C117.158 33.3063 117.216 33.4432 117.269 33.5823C117.284 33.6236 117.263 33.6696 117.222 33.6852C117.18 33.7007 117.133 33.6799 117.118 33.6386C117.066 33.5028 117.01 33.3692 116.95 33.2378C116.931 33.1977 116.949 33.1503 116.99 33.1321ZM104.373 33.9498C104.415 33.9626 104.439 34.0072 104.427 34.0494C104.384 34.1872 104.346 34.3269 104.313 34.4683C104.303 34.5113 104.26 34.538 104.216 34.5281C104.173 34.5181 104.146 34.4752 104.156 34.4322C104.19 34.2873 104.229 34.1442 104.272 34.0031C104.285 33.9609 104.33 33.937 104.373 33.9498ZM117.312 33.9498C117.355 33.937 117.4 33.9609 117.413 34.0031C117.456 34.1442 117.495 34.2873 117.529 34.4322C117.539 34.4752 117.512 34.5181 117.469 34.5281C117.425 34.538 117.382 34.5113 117.372 34.4683C117.339 34.3269 117.301 34.1872 117.259 34.0494C117.246 34.0072 117.27 33.9626 117.312 33.9498ZM104.161 34.8022C104.205 34.8094 104.235 34.8504 104.228 34.894C104.205 35.0359 104.186 35.1794 104.171 35.3243C104.167 35.3682 104.128 35.4003 104.083 35.396C104.039 35.3918 104.006 35.3527 104.011 35.3088C104.025 35.1605 104.045 35.0135 104.069 34.8681C104.076 34.8246 104.117 34.7951 104.161 34.8022ZM117.524 34.8022C117.568 34.7951 117.609 34.8246 117.616 34.8681C117.64 35.0135 117.66 35.1605 117.674 35.3088C117.679 35.3527 117.646 35.3918 117.602 35.396C117.557 35.4003 117.518 35.3682 117.514 35.3243C117.499 35.1794 117.48 35.0359 117.457 34.894C117.45 34.8504 117.48 34.8094 117.524 34.8022ZM117.62 35.6746C117.665 35.6732 117.702 35.7077 117.703 35.7518C117.706 35.8257 117.707 35.8999 117.707 35.9744C117.707 36.0489 117.706 36.1231 117.703 36.197C117.702 36.2411 117.665 36.2756 117.62 36.2742C117.575 36.2728 117.541 36.2359 117.542 36.1918C117.544 36.1196 117.545 36.0472 117.545 35.9744C117.545 35.9016 117.544 35.8292 117.542 35.757C117.541 35.7129 117.575 35.676 117.62 35.6746ZM104.065 35.6746C104.11 35.676 104.145 35.7129 104.143 35.757C104.141 35.8292 104.14 35.9016 104.14 35.9744C104.14 36.0472 104.141 36.1196 104.143 36.1918C104.145 36.2359 104.11 36.2728 104.065 36.2742C104.02 36.2756 103.983 36.2411 103.982 36.197C103.979 36.1231 103.978 36.0489 103.978 35.9744C103.978 35.8999 103.979 35.8257 103.982 35.7518C103.983 35.7077 104.02 35.6732 104.065 35.6746ZM104.083 36.5528C104.128 36.5485 104.167 36.5806 104.171 36.6245C104.186 36.7694 104.205 36.9129 104.228 37.0548C104.235 37.0984 104.205 37.1394 104.161 37.1466C104.117 37.1537 104.076 37.1242 104.069 37.0807C104.045 36.9353 104.025 36.7883 104.011 36.64C104.006 36.5961 104.039 36.557 104.083 36.5528ZM117.602 36.5528C117.646 36.557 117.679 36.5961 117.674 36.64C117.66 36.7883 117.64 36.9353 117.616 37.0807C117.609 37.1242 117.568 37.1537 117.524 37.1466C117.48 37.1394 117.45 37.0984 117.457 37.0548C117.48 36.9129 117.499 36.7694 117.514 36.6245C117.518 36.5806 117.557 36.5485 117.602 36.5528ZM104.216 37.4207C104.26 37.4108 104.303 37.4375 104.313 37.4805C104.346 37.6219 104.384 37.7616 104.427 37.8994C104.439 37.9416 104.415 37.9862 104.373 37.999C104.33 38.0118 104.285 37.988 104.272 37.9457C104.229 37.8046 104.19 37.6615 104.156 37.5166C104.146 37.4737 104.173 37.4307 104.216 37.4207ZM117.469 37.4207C117.512 37.4307 117.539 37.4737 117.529 37.5166C117.495 37.6615 117.456 37.8046 117.413 37.9457C117.4 37.988 117.355 38.0118 117.312 37.999C117.27 37.9862 117.246 37.9416 117.259 37.8994C117.301 37.7616 117.339 37.6219 117.372 37.4805C117.382 37.4375 117.425 37.4108 117.469 37.4207ZM104.463 38.2636C104.505 38.2481 104.552 38.2689 104.567 38.3102C104.619 38.446 104.675 38.5796 104.736 38.711C104.754 38.7512 104.736 38.7985 104.695 38.8167C104.655 38.8349 104.607 38.8172 104.588 38.777C104.527 38.6425 104.469 38.5056 104.416 38.3665C104.401 38.3252 104.422 38.2792 104.463 38.2636ZM117.222 38.2636C117.263 38.2792 117.284 38.3252 117.269 38.3665C117.216 38.5056 117.158 38.6425 117.097 38.777C117.078 38.8172 117.03 38.8349 116.99 38.8167C116.949 38.7985 116.931 38.7512 116.95 38.711C117.01 38.5796 117.066 38.446 117.118 38.3102C117.133 38.2689 117.18 38.2481 117.222 38.2636ZM116.865 39.0672C116.904 39.088 116.919 39.1364 116.898 39.1753C116.827 39.3061 116.752 39.4343 116.673 39.5599C116.649 39.5973 116.599 39.6087 116.561 39.5854C116.524 39.5621 116.512 39.5128 116.536 39.4754C116.613 39.3528 116.686 39.2276 116.755 39.0998C116.776 39.061 116.825 39.0463 116.865 39.0672ZM104.82 39.0672C104.86 39.0463 104.909 39.061 104.93 39.0998C104.999 39.2276 105.072 39.3528 105.149 39.4754C105.173 39.5128 105.162 39.5621 105.124 39.5854C105.086 39.6087 105.036 39.5973 105.012 39.5599C104.933 39.4343 104.858 39.3061 104.787 39.1753C104.766 39.1364 104.781 39.088 104.82 39.0672ZM116.404 39.8176C116.44 39.8433 116.449 39.8932 116.423 39.9291C116.335 40.0495 116.244 40.167 116.149 40.2813C116.121 40.3154 116.07 40.3203 116.035 40.2923C116.001 40.2643 115.996 40.214 116.024 40.1799C116.117 40.0682 116.206 39.9535 116.291 39.8359C116.318 39.8001 116.368 39.7919 116.404 39.8176ZM105.281 39.8176C105.317 39.7919 105.368 39.8001 105.394 39.8359C105.479 39.9535 105.568 40.0682 105.661 40.1799C105.689 40.214 105.684 40.2643 105.65 40.2923C105.615 40.3203 105.564 40.3154 105.536 40.2813C105.441 40.167 105.35 40.0495 105.262 39.9291C105.236 39.8932 105.245 39.8433 105.281 39.8176ZM115.849 40.5023C115.882 40.5325 115.883 40.583 115.853 40.6152C115.75 40.7233 115.644 40.8281 115.535 40.9294C115.502 40.9595 115.451 40.9579 115.421 40.9257C115.39 40.8935 115.392 40.843 115.425 40.8128C115.531 40.7139 115.635 40.6116 115.735 40.506C115.765 40.4738 115.816 40.4722 115.849 40.5023ZM105.836 40.5023C105.869 40.4722 105.92 40.4738 105.95 40.506C106.05 40.6116 106.154 40.7139 106.26 40.8128C106.293 40.843 106.295 40.8935 106.264 40.9257C106.234 40.9579 106.183 40.9595 106.15 40.9294C106.041 40.8281 105.935 40.7233 105.832 40.6152C105.802 40.583 105.804 40.5325 105.836 40.5023ZM106.476 41.11C106.505 41.0759 106.556 41.071 106.59 41.099C106.703 41.1908 106.819 41.2789 106.938 41.3633C106.974 41.3891 106.983 41.439 106.956 41.4748C106.93 41.5106 106.88 41.5188 106.844 41.4931C106.722 41.4067 106.603 41.3164 106.488 41.2224C106.453 41.1944 106.448 41.1441 106.476 41.11ZM115.209 41.11C115.237 41.1441 115.232 41.1944 115.197 41.2224C115.082 41.3164 114.963 41.4067 114.841 41.4931C114.805 41.5188 114.755 41.5106 114.729 41.4748C114.703 41.439 114.711 41.3891 114.747 41.3633C114.866 41.2789 114.982 41.1908 115.095 41.099C115.129 41.071 115.18 41.0759 115.209 41.11ZM107.191 41.6303C107.215 41.5928 107.265 41.5814 107.303 41.6047C107.426 41.6811 107.553 41.7536 107.682 41.822C107.722 41.8428 107.736 41.8912 107.715 41.9301C107.694 41.969 107.645 41.9836 107.606 41.9628C107.474 41.8927 107.344 41.8185 107.217 41.7403C107.179 41.717 107.168 41.6677 107.191 41.6303ZM114.494 41.6303C114.517 41.6677 114.506 41.717 114.468 41.7403C114.341 41.8185 114.211 41.8927 114.079 41.9628C114.04 41.9836 113.991 41.969 113.97 41.9301C113.949 41.8912 113.963 41.8428 114.003 41.822C114.132 41.7536 114.259 41.6811 114.382 41.6047C114.42 41.5814 114.47 41.5928 114.494 41.6303ZM107.969 42.0538C107.987 42.0137 108.035 41.9959 108.075 42.0141C108.208 42.0737 108.343 42.1292 108.481 42.1803C108.522 42.1959 108.544 42.2419 108.528 42.2832C108.512 42.3245 108.466 42.3453 108.424 42.3298C108.283 42.2774 108.145 42.2206 108.009 42.1596C107.968 42.1413 107.95 42.094 107.969 42.0538ZM113.717 42.0538C113.735 42.094 113.717 42.1413 113.676 42.1596C113.54 42.2206 113.402 42.2774 113.261 42.3298C113.22 42.3453 113.173 42.3245 113.157 42.2832C113.142 42.2419 113.163 42.1959 113.204 42.1803C113.342 42.1292 113.477 42.0737 113.61 42.0141C113.65 41.9959 113.698 42.0137 113.717 42.0538ZM108.795 42.373C108.808 42.3308 108.853 42.3069 108.896 42.3197C109.035 42.3615 109.177 42.3989 109.32 42.4317C109.363 42.4417 109.39 42.4846 109.38 42.5276C109.37 42.5705 109.327 42.5973 109.283 42.5873C109.137 42.5536 108.992 42.5154 108.849 42.4726C108.807 42.4598 108.782 42.4152 108.795 42.373ZM112.89 42.373C112.903 42.4152 112.878 42.4598 112.836 42.4726C112.693 42.5154 112.548 42.5536 112.402 42.5873C112.358 42.5973 112.315 42.5705 112.305 42.5276C112.295 42.4846 112.322 42.4417 112.365 42.4317C112.508 42.3989 112.65 42.3615 112.789 42.3197C112.832 42.3069 112.877 42.3308 112.89 42.373ZM109.657 42.5818C109.665 42.5383 109.706 42.5088 109.75 42.5159C109.894 42.5392 110.039 42.558 110.185 42.572C110.23 42.5763 110.262 42.6154 110.258 42.6593C110.253 42.7032 110.214 42.7353 110.17 42.731C110.02 42.7166 109.871 42.6974 109.724 42.6736C109.68 42.6664 109.65 42.6254 109.657 42.5818ZM112.028 42.5818C112.035 42.6254 112.005 42.6664 111.961 42.6736C111.814 42.6974 111.666 42.7166 111.516 42.731C111.471 42.7353 111.432 42.7032 111.427 42.6593C111.423 42.6154 111.455 42.5763 111.5 42.572C111.646 42.558 111.791 42.5392 111.935 42.5159C111.979 42.5088 112.021 42.5383 112.028 42.5818ZM110.539 42.6773C110.541 42.6332 110.578 42.5986 110.623 42.6C110.696 42.6023 110.769 42.6035 110.843 42.6035C110.916 42.6035 110.989 42.6023 111.062 42.6C111.107 42.5986 111.144 42.6332 111.146 42.6773C111.147 42.7214 111.112 42.7583 111.068 42.7597C110.993 42.7621 110.918 42.7633 110.843 42.7633C110.767 42.7633 110.692 42.7621 110.617 42.7597C110.573 42.7583 110.538 42.7214 110.539 42.6773Z" fill="#0084F8"/>
<path d="M121.188 130.235C121.036 127.639 122.106 125.435 123.964 125.133C124.014 125.123 124.065 125.113 124.115 125.113C124.125 123.07 124.125 121.017 124.115 118.974V109.363C124.115 108.9 124.206 108.427 124.024 107.974C124.024 107.964 124.014 107.954 124.014 107.944C123.6 106.867 122.641 107.159 121.854 107.159H112.869C100.342 107.149 87.8141 107.149 75.2763 107.149H58.4583C48.9591 107.149 39.4699 107.169 29.9707 107.189H29.2742C29.2843 107.481 29.2742 107.763 29.254 108.035C29.1126 109.977 28.2546 111.497 26.1851 112.292C25.8621 112.412 25.7006 112.604 25.6299 112.825C25.5391 113.026 25.529 113.258 25.529 113.489V113.59C25.5189 116.216 25.529 118.833 25.5088 121.46C25.5088 121.963 25.5895 122.416 26.1246 122.647C27.4369 122.838 28.406 123.573 29.2641 124.529L29.2742 124.539C29.3751 124.559 29.466 124.559 29.5568 124.539C29.7789 124.509 29.9505 124.368 30.0313 124.157C30.6168 122.617 31.8988 122.526 33.2919 122.526C38.5008 122.547 43.7098 122.536 48.9187 122.536C49.6254 122.536 50.332 122.516 51.0386 122.547C52.674 122.637 53.1989 123.181 53.2898 124.821C53.31 125.133 53.2999 125.435 53.2999 125.737V149.829C53.2999 150.182 53.31 150.534 53.2797 150.886C53.1787 152.315 52.674 152.828 51.2506 152.949C50.7661 152.989 50.2815 152.979 49.797 152.979H33.9077C33.5342 152.979 33.1607 152.989 32.7973 153.04H32.7872C32.2925 153.11 31.8282 153.261 31.4042 153.613C30.213 154.116 30.213 154.67 31.1316 155.546C31.6666 156.059 31.8988 156.864 32.2622 157.538C32.4641 157.719 32.6761 157.85 32.8881 157.951H32.8982C33.726 158.333 34.6547 158.202 35.5532 158.202C62.7083 158.212 89.8735 158.212 117.039 158.212H119.835C119.926 157.991 120.037 157.77 120.158 157.558C120.309 157.276 120.491 157.005 120.693 156.733C120.996 156.33 121.43 156.149 121.955 156.139C122.621 156.129 123.297 156.139 123.954 156.099C124.014 156.099 124.065 156.099 124.125 156.089V153.1C124.075 153.08 124.014 153.08 123.964 153.08C123.176 152.969 122.389 152.889 121.602 152.808C120.188 152.657 119.118 151.45 118.613 149.447C118.25 148.038 119.169 147.374 120.148 146.72C120.41 146.538 120.673 146.388 121.006 146.438C121.985 146.569 122.974 146.629 123.964 146.649C124.014 146.659 124.075 146.659 124.125 146.659V144.475C124.065 144.465 124.014 144.465 123.964 144.465C123.762 144.455 123.56 144.435 123.358 144.425C120.299 144.224 117.806 141.718 117.786 138.649C117.776 137.219 118.533 136.263 119.754 135.629C121.117 134.915 122.52 134.563 123.964 134.442C124.014 134.432 124.065 134.432 124.125 134.422V132.862C124.065 132.852 124.014 132.852 123.964 132.842C122.157 132.56 121.279 131.715 121.188 130.235Z" fill="#F0F5F9"/>
<path d="M124.154 163.899C124.144 164.503 124.144 165.117 124.134 165.721C124.124 167.19 123.811 167.502 122.357 167.502H75.2749C75.0831 167.502 74.9014 167.502 74.7197 167.492C58.9011 167.502 43.0926 167.492 27.2841 167.492C26.7995 167.492 26.2948 167.563 25.891 167.23C25.5175 166.929 25.2954 166.536 25.4266 166.073C25.5882 165.499 26.0727 165.731 26.426 165.811C27.6778 166.093 28.8791 166.053 30.0097 165.389C30.6457 165.107 31.3018 164.865 31.9681 164.745C32.5738 164.634 33.1896 164.614 33.8356 164.745C34.3505 164.845 34.8956 164.775 35.4205 164.775H116.29C116.866 164.775 117.431 164.815 117.996 164.714C118.087 164.694 118.178 164.674 118.269 164.654C118.481 164.604 118.713 164.503 118.713 164.252C118.723 163.99 118.491 163.889 118.279 163.829C117.966 163.748 117.653 163.718 117.34 163.718C116.997 163.698 116.644 163.718 116.3 163.718C89.5591 163.718 62.828 163.718 36.0969 163.708C35.2085 163.708 34.3202 163.748 33.4419 163.648C33.1896 163.618 32.9675 163.557 32.7959 163.477C32.382 163.265 32.2306 162.873 32.4526 162.229C32.4526 162.148 32.4728 162.078 32.5132 162.017V162.007H32.5233C32.6949 161.605 32.9675 161.383 33.3107 161.273C33.5227 161.192 33.765 161.162 34.0173 161.142C34.8552 161.092 35.6931 161.102 36.531 161.102C63.1006 161.102 89.6601 161.102 116.22 161.092C116.371 161.092 116.522 161.102 116.674 161.102C117.3 161.132 117.946 161.152 118.622 160.719C117.956 160.216 117.3 160.286 116.684 160.297C116.623 160.307 116.553 160.307 116.492 160.307C103.803 160.297 91.1238 160.307 78.4346 160.307C64.1101 160.307 49.7956 160.307 35.471 160.286C34.7442 160.286 33.9568 160.437 33.2905 160.075C33.0987 159.985 32.9271 159.844 32.7555 159.652C32.5839 158.948 32.4224 158.244 32.2608 157.539H32.7858C37.8837 157.549 42.9614 157.559 48.0492 157.559C71.0957 157.569 94.1523 157.569 117.199 157.559H120.157C120.035 157.771 119.924 157.992 119.834 158.213C119.632 158.686 119.5 159.179 119.44 159.673C119.369 160.347 119.43 161.031 119.642 161.746C119.712 161.927 119.773 162.108 119.854 162.289C120.49 163.799 121.469 164.262 123.124 164.091C123.478 164.05 123.821 163.99 124.154 163.899Z" fill="#CCD1D7"/>
<path d="M124.205 153.11V156.079C124.185 156.089 124.155 156.089 124.125 156.089C124.064 156.099 124.014 156.099 123.953 156.099C123.963 155.928 123.963 155.747 123.963 155.536V153.08C124.014 153.08 124.074 153.08 124.125 153.1C124.155 153.1 124.175 153.1 124.205 153.11Z" fill="#CCD1D7"/>
<path d="M124.205 144.475V146.659C124.175 146.669 124.155 146.669 124.124 146.659C124.074 146.659 124.013 146.659 123.963 146.649V144.465C124.013 144.465 124.064 144.465 124.124 144.475H124.205Z" fill="#CCD1D7"/>
<path d="M124.124 134.422C124.064 134.432 124.013 134.432 123.963 134.442V132.842C124.013 132.852 124.064 132.852 124.124 132.862C124.145 132.862 124.165 132.872 124.195 132.872C124.205 133.385 124.205 133.909 124.205 134.422H124.124Z" fill="#CCD1D7"/>
<path d="M124.114 125.112C124.064 125.112 124.013 125.122 123.963 125.133V109.765C123.963 109.161 124.003 108.578 124.023 107.974V107.934C124.306 108.417 124.195 108.95 124.195 109.473V118.138C124.205 120.463 124.205 122.778 124.195 125.102C124.165 125.102 124.145 125.102 124.114 125.112Z" fill="#CCD1D7"/>
<path d="M29.2652 124.53C30.2141 121.893 30.2141 121.893 33.3031 121.893C39.4004 121.893 45.4977 121.883 51.595 121.893C53.725 121.893 53.9572 122.135 53.9673 124.228C53.9673 133.265 53.9774 142.312 53.9673 151.36C53.9673 153.383 53.7351 153.614 51.6858 153.614C44.9324 153.614 38.1688 153.614 31.4154 153.614C32.0514 152.628 32.6773 151.642 33.0407 150.514C33.7372 148.361 33.3839 147.123 31.5971 145.724C31.1832 145.402 30.951 145.231 31.4356 144.748C31.9302 144.265 32.3037 143.661 32.7277 143.118C33.4647 143.047 34.7063 143.913 34.9991 144.758C35.1707 145.251 35.3726 145.734 35.5745 146.217C36.8767 149.428 39.9657 151.118 43.3374 150.233C44.8718 149.83 46.1741 148.793 46.9614 147.374C47.7892 145.895 48.6978 144.476 49.5962 143.037C50.0908 142.011 50.3937 140.994 49.5558 139.978C49.364 139.736 49.3438 139.394 49.3842 139.092C49.6669 137.291 48.8492 135.509 49.0713 133.778C49.3035 131.927 48.1627 130.83 47.446 129.471C47.2946 129.189 47.0422 129.018 46.7394 128.908C44.145 128.012 41.5304 127.599 38.8654 128.606C38.4919 128.747 38.0578 129.028 37.7348 128.908C35.7461 128.163 35.0092 129.854 34.2823 130.91C33.7776 131.645 33.7877 132.913 33.7978 133.97C33.8079 134.513 33.9492 135.157 33.071 135.197C31.9403 133.919 30.3554 133.547 28.6494 133.165C31.6375 130.407 30.729 127.489 29.2652 124.53Z" fill="#667686"/>
<path d="M32.453 162.229C32.5439 162.802 32.8972 163.044 33.4625 163.044C33.9471 163.044 34.4316 163.054 34.9162 163.054C62.6568 163.054 90.4075 163.054 118.148 163.054C118.673 163.054 119.208 163.044 119.733 163.094C120.43 163.154 120.53 163.678 120.53 164.241C120.53 164.815 120.419 165.308 119.713 165.368C119.319 165.409 118.915 165.409 118.522 165.409C90.4277 165.409 62.3237 165.409 34.2297 165.409C32.8165 165.409 31.4133 165.389 30 165.378C31.1407 164.573 31.8978 163.476 32.453 162.229Z" fill="#CCD1D7"/>
<path d="M119.642 161.744C119.369 161.774 119.076 161.744 118.804 161.744H116.745C89.4481 161.754 62.1516 161.754 34.8552 161.754C34.3202 161.754 33.775 161.704 33.24 161.795C32.9977 161.825 32.7555 161.895 32.5233 162.006H32.5132C32.5838 161.221 32.6646 160.436 32.7454 159.651H118.289C118.461 159.651 118.642 159.641 118.814 159.651C119.016 159.661 119.238 159.651 119.44 159.671C119.369 160.345 119.43 161.03 119.642 161.744Z" fill="#CCD1D7"/>
<path fill-rule="evenodd" clip-rule="evenodd" d="M50.3218 140.269C50.1501 139.916 49.9785 139.574 50.0492 139.202C50.2915 137.884 50.0795 136.605 49.8675 135.337C49.7867 134.854 49.706 134.371 49.6555 133.898C49.5646 133.093 49.5142 132.57 50.6347 132.962C50.4328 132.238 49.9886 131.765 49.5646 131.302C49.3224 131.05 49.0902 130.799 48.9085 130.507C48.858 130.426 48.7671 130.336 48.6763 130.255C48.4744 130.084 48.2826 129.903 48.434 129.661C48.7671 129.088 48.4138 128.937 48.0807 128.796C48.0302 128.776 47.9798 128.756 47.9293 128.726C45.6176 127.619 43.1544 127.045 40.6206 127.528C40.3783 127.578 40.1361 127.619 39.8938 127.669C38.1474 128.021 36.3808 128.373 34.1397 128.041C35.3915 128.826 34.9372 129.299 34.4628 129.722C34.2003 129.953 33.9075 130.145 33.6148 130.336C33.5038 130.406 33.3927 130.477 33.2817 130.557C32.9082 130.809 32.5347 131.131 32.5145 131.563C32.4943 131.926 32.7164 131.926 32.9586 131.926C33.1807 131.916 33.423 131.916 33.5239 132.208C32.6356 132.741 32.2318 133.425 33.1504 134.351C33.3321 134.532 33.2514 134.824 33.1403 135.076C33.1101 135.126 33.0899 135.166 33.0697 135.217C33.2211 136.102 33.3725 136.988 33.534 137.873C33.534 137.884 33.5441 137.894 33.5441 137.894C33.5441 137.894 33.534 137.884 33.5239 137.873C33.5239 138.668 33.312 139.433 33.1 140.198C32.8375 141.154 32.5649 142.1 32.7164 143.117C32.8779 143.217 33.0293 143.318 33.1605 143.429C34.1094 144.183 34.5839 145.25 35.0786 146.327C35.1391 146.468 35.2098 146.609 35.2704 146.75C36.9865 150.443 41.7109 152.405 45.5368 149.588C46.9501 148.541 47.7274 147.092 48.4946 145.653C48.9489 144.787 49.4132 143.932 50.0088 143.157C50.0189 143.157 50.029 143.147 50.029 143.137C50.2713 142.855 50.352 142.513 50.4328 142.181C50.4631 142.01 50.5035 141.849 50.564 141.688C50.7659 141.144 50.5337 140.701 50.3218 140.269ZM48.7369 143.338C47.8283 143.892 47.4548 144.767 47.0712 145.653C47.0006 145.804 46.94 145.945 46.8794 146.085C45.8699 148.32 44.0831 149.608 41.6503 149.688C39.4395 149.769 37.8243 148.561 36.6735 146.75C36.2798 146.126 35.9669 145.451 35.7549 144.737C35.5934 144.193 35.4218 143.64 34.8262 143.388C33.9479 142.925 33.8773 142.885 34.2104 142.624C34.2205 142.634 34.2205 142.654 34.2205 142.664C34.3517 142.734 34.483 142.764 34.6243 142.734C35.1997 142.523 35.2704 142 35.2199 141.537C35.0685 140.158 35.3814 138.85 35.6842 137.541C35.8155 136.948 35.9568 136.344 36.0578 135.74C36.189 134.885 36.6735 134.895 37.2893 135.166C37.5821 135.297 37.8143 135.508 38.0464 135.73C38.1373 135.81 38.2281 135.901 38.3291 135.981C38.7228 136.324 39.2275 136.585 39.6111 136.142C40.0149 135.7 40.3077 135.871 40.6105 136.052C40.6913 136.092 40.772 136.142 40.8528 136.173C40.9336 136.213 41.0244 136.253 41.1052 136.293C41.8926 136.646 42.6497 136.998 43.6087 136.585C46.0314 135.539 47.9999 136.837 48.01 139.423V139.504C48.01 139.564 48.0201 139.625 48.01 139.685C47.9091 141.044 47.9697 142.342 49.2921 143.046C49.1508 143.076 49.0195 143.157 48.8782 143.247C48.8378 143.278 48.7873 143.308 48.7369 143.338Z" fill="#47C2B1"/>
<path fill-rule="evenodd" clip-rule="evenodd" d="M47.2731 146.73C47.9696 145.441 48.6561 144.173 49.6858 143.117C49.6858 142.845 49.7564 142.573 49.8372 142.302C49.9785 141.798 50.1198 141.295 49.7968 140.752C49.5747 140.903 49.494 141.134 49.4132 141.376C49.3022 141.708 49.181 142.04 48.6763 142.181C48.6763 141.728 48.6763 141.275 48.6763 140.832C48.6763 139.816 48.6662 138.83 48.6864 137.833C48.6965 136.847 48.2523 136.273 47.2731 136.102C46.1829 135.911 45.0926 135.72 44.0226 135.519C43.6894 135.458 43.3563 135.398 43.0232 135.337C42.8617 135.519 42.9525 135.67 43.0434 135.81C43.1443 135.961 43.2453 136.112 43.0434 136.304C41.6705 135.971 40.4591 135.267 39.2376 134.552C39.177 134.512 39.1165 134.482 39.0458 134.442C38.9751 134.693 39.066 134.905 39.1669 135.116C39.278 135.368 39.3991 135.629 39.2376 135.982C38.2382 134.824 37.148 133.949 35.6741 133.375C35.6237 134.663 35.3511 135.921 35.0785 137.179C34.6949 138.94 34.3113 140.691 34.5637 142.523C34.4829 142.533 34.4123 142.533 34.3315 142.533C33.847 142.402 33.8268 142.05 33.8066 141.657C33.7864 141.295 33.7662 140.913 33.3523 140.681C33.2918 141.959 33.5441 142.986 34.3618 143.851C34.8666 144.043 34.9776 144.455 35.0987 144.878C35.129 144.999 35.1694 145.119 35.2098 145.24C36.2394 147.947 37.9354 150.03 41.0244 150.332C43.75 150.604 45.8699 149.316 47.1419 146.971C47.1823 146.901 47.2226 146.81 47.2731 146.73Z" fill="#F0F5F9"/>
<path opacity="0.3" d="M54.3098 110.531H102.058C102.614 110.531 103.068 110.984 103.068 111.538V112.916C103.068 113.47 102.614 113.923 102.058 113.923H54.3098C53.7546 113.923 53.3003 113.47 53.3003 112.916V111.538C53.3003 110.984 53.7546 110.531 54.3098 110.531Z" fill="#47C2B1"/>
<path opacity="0.3" d="M58.5988 122.406H87.4701C88.0253 122.406 88.4796 122.859 88.4796 123.413V123.946C88.4796 124.5 88.0253 124.952 87.4701 124.952H58.5988C58.0436 124.952 57.5894 124.5 57.5894 123.946V123.413C57.5894 122.859 58.0436 122.406 58.5988 122.406Z" fill="#47C2B1"/>
<path opacity="0.3" d="M107.509 122.406H112.355C112.91 122.406 113.364 122.859 113.364 123.413V123.946C113.364 124.5 112.91 124.952 112.355 124.952H107.509C106.954 124.952 106.5 124.5 106.5 123.946V123.413C106.5 122.859 106.954 122.406 107.509 122.406Z" fill="#47C2B1"/>
<path opacity="0.3" d="M58.5988 135.992H87.4701C88.0253 135.992 88.4796 136.445 88.4796 136.999V137.532C88.4796 138.085 88.0253 138.538 87.4701 138.538H58.5988C58.0436 138.538 57.5894 138.085 57.5894 137.532V136.999C57.5894 136.435 58.0436 135.992 58.5988 135.992Z" fill="#47C2B1"/>
<path opacity="0.3" d="M58.5988 129.199H95.1926C95.7478 129.199 96.2021 129.652 96.2021 130.206V130.739C96.2021 131.292 95.7478 131.745 95.1926 131.745H58.5988C58.0436 131.745 57.5894 131.292 57.5894 130.739V130.206C57.5894 129.652 58.0436 129.199 58.5988 129.199Z" fill="#47C2B1"/>
<path opacity="0.3" d="M107.509 126.652H114.071C114.626 126.652 115.081 127.105 115.081 127.659V128.192C115.081 128.746 114.626 129.198 114.071 129.198H107.509C106.954 129.198 106.5 128.746 106.5 128.192V127.659C106.5 127.105 106.954 126.652 107.509 126.652Z" fill="#47C2B1"/>
<path opacity="0.3" d="M58.5988 142.773H95.1926C95.7478 142.773 96.2021 143.226 96.2021 143.78V144.313C96.2021 144.867 95.7478 145.32 95.1926 145.32H58.5988C58.0436 145.32 57.5894 144.867 57.5894 144.313V143.78C57.5894 143.226 58.0436 142.773 58.5988 142.773Z" fill="#47C2B1"/>
<path opacity="0.3" d="M58.5988 149.568H110.638C111.193 149.568 111.647 150.021 111.647 150.575V151.108C111.647 151.662 111.193 152.114 110.638 152.114H58.5988C58.0436 152.114 57.5894 151.662 57.5894 151.108V150.575C57.5894 150.011 58.0436 149.568 58.5988 149.568Z" fill="#47C2B1"/>
<path d="M125.842 109.574C125.831 112.321 125.842 115.069 125.842 117.816H124.196C124.196 116.719 124.196 115.622 124.186 114.525C124.186 112.674 124.004 110.792 123.277 109.031C122.773 108.447 122.076 108.326 121.359 108.306C120.299 108.276 119.239 108.296 118.18 108.296H112.87V106.283C116.09 106.283 119.31 106.293 122.53 106.293C125.084 106.293 125.852 107.068 125.842 109.574Z" fill="#33495E"/>
<path d="M28.1759 105.822C28.1355 105.842 28.0951 105.862 28.0547 105.872C24.1177 106.848 24.1077 106.848 23.9966 111.035C23.9764 111.669 23.8755 112.242 23.4111 112.715C21.3921 111.991 20.2514 110.391 20.3019 108.338C20.3524 106.526 21.6344 104.846 23.3808 104.312C25.2282 103.728 27.0453 104.302 28.1759 105.822Z" fill="#747474"/>
<path d="M29.4959 106.303C29.0618 106.303 28.6176 106.384 28.234 106.082C27.6182 107.078 28.0725 107.773 29.5766 108.125C30.3539 108.316 31.1615 108.306 31.9489 108.296C46.3884 108.097 60.835 108.306 75.276 108.306V106.283C60.1943 106.273 45.1429 106.293 29.4959 106.303Z" fill="#33495E"/>
<path d="M27.9625 167.159C28.6994 166.957 29.4061 166.867 30.0218 166.514C31.3746 165.579 32.4648 164.441 33.0503 162.881C33.1109 162.751 33.1411 162.61 33.1411 162.459C33.232 161.694 33.4339 160.929 33.2926 160.144C33.3935 159.379 33.0604 158.695 32.8989 157.97C32.7575 157.175 32.3336 156.521 31.9197 155.867C31.5966 155.364 31.526 154.901 31.9903 154.458C32.4345 153.512 33.1008 152.687 33.4743 151.701C34.0497 150.181 34.3727 148.531 33.3632 147.202C32.384 145.894 32.4244 144.797 33.1613 143.529C33.0907 141.697 33.9992 140.057 34.2415 138.276C34.0295 137.37 33.979 136.424 33.6762 135.528C32.9292 134.924 32.2427 134.21 31.3947 133.797C30.4761 133.344 30.3449 132.992 30.7487 131.996C31.8389 129.369 31.2332 126.894 29.6281 124.619C28.7802 123.532 27.5082 122.959 26.5391 122.023C26.2868 121.65 26.2363 121.218 26.1555 120.785C25.7214 118.551 25.6609 116.296 25.7113 114.022C25.7214 113.64 25.7517 113.237 25.6407 112.855C25.4792 112.382 25.1158 112.16 24.6211 112.221C24.076 112.281 24.0861 112.653 24.1063 113.086C24.1567 114.525 24.1567 115.964 24.1164 117.403C24.076 119.225 24.2981 121.047 23.9952 122.858C22.4507 122.898 20.9062 122.949 19.3617 122.989C14.8998 123.12 10.4379 123.341 6.23841 125.052C1.42317 127.024 -0.192004 130.064 0.292548 135.629C0.393496 136.907 0.958807 137.984 2.09952 138.658C2.70521 139.02 2.78597 139.423 2.55379 140.077C2.07933 141.436 1.66545 142.814 1.30203 144.213C0.837669 146.035 0.524729 147.887 0.878048 149.779C1.06985 150.835 1.58469 151.721 2.69512 151.972C3.49261 152.154 3.58346 152.586 3.64403 153.261C3.87621 155.666 4.46172 157.991 5.60243 160.144C5.94566 160.778 5.79423 161.13 5.2794 161.563C3.8964 162.72 2.52351 163.928 0.817479 164.572C-0.535229 165.075 0.141125 165.87 0.393496 166.545C0.736721 167.501 1.3727 166.746 1.78658 166.575C3.5128 165.87 4.97655 164.743 6.39992 163.556C6.71286 163.284 6.95514 162.831 7.49017 163.012C8.5905 164.502 10.0139 165.397 11.9319 165.498C10.1754 164.975 9.00439 163.707 7.84349 162.429V162.419C5.89518 159.138 4.86551 155.626 5.08759 151.801C5.11788 151.369 5.14816 150.996 4.53238 150.815C2.32161 150.141 2.26104 150.02 2.48313 147.726C2.7254 145.27 3.62384 142.985 4.43143 140.681C4.99674 139.071 4.77466 138.165 3.40176 137.128C2.83645 136.696 2.43265 136.203 2.39227 135.518C2.11971 131.201 3.00806 128.816 6.70277 127.326C12.8001 124.861 19.2305 124.992 25.6306 125.102C27.7303 125.132 28.972 127.467 28.8105 130.245C28.7095 131.895 27.6294 132.751 25.3782 132.922C20.7043 133.264 16.2424 134.371 12.0732 136.515C12.0732 136.525 12.0732 136.525 12.0631 136.525H12.053C11.1142 136.786 10.2763 137.219 9.62018 137.974C10.6297 137.732 11.5685 137.37 12.4568 136.847C12.4669 136.847 12.477 136.837 12.4871 136.837C12.5174 136.816 12.5578 136.806 12.5881 136.786C15.7477 135.77 18.9074 134.844 22.2286 134.522C25.0047 134.25 27.7101 134.3 30.2338 135.639C31.4553 136.273 32.2124 137.229 32.2023 138.658C32.1821 141.728 29.6887 144.233 26.63 144.435C23.5914 144.626 20.5327 144.686 17.5951 145.652C15.7982 146.236 14.3547 147.343 13.2038 148.843C15.0411 147.927 16.8582 147.091 18.9175 146.88C22.269 146.538 25.6407 146.89 28.9821 146.447C29.3152 146.397 29.5777 146.548 29.8401 146.729C30.8193 147.383 31.738 148.048 31.3746 149.456C30.8698 151.459 29.7998 152.667 28.3865 152.818C25.7113 153.1 23.016 153.331 20.5327 154.529C18.7358 155.394 17.5042 156.753 16.7168 158.745C16.9793 158.665 17.0298 158.655 17.0601 158.635C17.2721 158.484 17.4942 158.333 17.696 158.172C19.816 156.421 22.1479 155.444 24.9946 155.988C25.9738 156.179 27.0136 156.129 28.0332 156.149C28.5581 156.159 28.9922 156.34 29.295 156.743C30.5569 158.443 30.9809 160.305 30.1329 162.298C29.4969 163.807 28.5177 164.27 26.8622 164.099C25.6104 163.968 24.4798 163.495 23.3391 163.012C22.5618 162.68 21.845 162.841 21.2595 163.385C20.6841 163.938 20.4116 164.683 20.775 165.428C21.8753 167.662 20.9971 169.584 19.816 171.426C18.2513 173.851 16.5856 176.226 14.9906 178.631C14.7584 178.983 14.3849 179.336 14.5364 180C16.3332 177.937 17.9888 175.954 19.7453 174.052C21.9864 171.617 23.6722 168.99 23.1876 165.508C23.9649 165.468 24.0962 165.86 24.1366 166.404C24.3082 168.688 24.9542 169.272 27.276 169.272H75.2669V167.34C60.0338 167.34 44.8007 167.34 29.5676 167.33C29.0628 167.32 28.5278 167.41 27.9625 167.159Z" fill="#33495E"/>
<path d="M120.41 108.126C119.633 108.317 118.825 108.307 118.038 108.297C103.598 108.098 89.1519 108.307 74.7109 108.307V106.284C89.7926 106.274 104.844 106.294 120.491 106.304L120.41 108.126Z" fill="#33495E"/>
<path d="M149.606 166.547C149.263 167.503 148.627 166.748 148.213 166.577C146.487 165.872 145.023 164.745 143.6 163.558C143.287 163.286 143.045 162.833 142.499 163.014C141.409 164.504 139.976 165.399 138.058 165.5C139.824 164.977 140.985 163.709 142.146 162.421C142.146 162.421 142.146 162.41 142.156 162.41C144.104 159.13 145.134 155.617 144.912 151.793C144.882 151.36 144.851 150.988 145.467 150.807C147.678 150.133 147.739 150.012 147.517 147.717C147.274 145.262 146.376 142.977 145.568 140.673C145.003 139.063 145.225 138.157 146.598 137.12C147.163 136.688 147.567 136.194 147.607 135.51C147.88 131.193 146.992 128.808 143.297 127.318C137.2 124.853 130.769 124.983 124.369 125.094C124.308 125.094 124.248 125.094 124.197 125.104C124.167 125.104 124.147 125.104 124.117 125.114C124.066 125.114 124.016 125.124 123.965 125.134C122.108 125.436 121.038 127.64 121.189 130.237C121.28 131.716 122.158 132.561 123.965 132.843C124.016 132.853 124.066 132.853 124.127 132.863C124.147 132.863 124.167 132.873 124.197 132.873C124.329 132.894 124.47 132.904 124.621 132.914C129.295 133.256 133.757 134.363 137.926 136.506C137.926 136.516 137.926 136.516 137.926 136.516L137.937 136.506C138.875 136.768 139.713 137.201 140.369 137.966C139.36 137.724 138.411 137.352 137.533 136.839C137.523 136.839 137.513 136.828 137.502 136.828C137.472 136.808 137.432 136.798 137.401 136.778C134.242 135.762 131.082 134.836 127.761 134.514C126.56 134.393 125.368 134.343 124.208 134.423H124.127C124.066 134.433 124.016 134.433 123.965 134.443C122.522 134.564 121.119 134.916 119.756 135.631C118.534 136.265 117.777 137.221 117.787 138.65C117.807 141.719 120.301 144.225 123.36 144.427C123.561 144.437 123.763 144.457 123.965 144.467C124.016 144.467 124.066 144.467 124.127 144.477H124.208C126.963 144.638 129.729 144.769 132.394 145.644C134.191 146.228 135.635 147.335 136.786 148.834C134.948 147.919 133.131 147.083 131.072 146.872C128.791 146.641 126.499 146.731 124.208 146.661C124.177 146.671 124.157 146.671 124.127 146.661C124.076 146.661 124.016 146.661 123.965 146.651C122.976 146.631 121.987 146.57 121.007 146.439C120.674 146.389 120.412 146.54 120.149 146.721C119.17 147.375 118.252 148.039 118.615 149.448C119.12 151.451 120.19 152.659 121.603 152.81C122.39 152.89 123.178 152.971 123.965 153.081C124.016 153.081 124.076 153.081 124.127 153.101C124.157 153.101 124.177 153.101 124.208 153.112C126.004 153.343 127.781 153.715 129.457 154.52C131.254 155.386 132.485 156.745 133.273 158.737C133.01 158.657 132.96 158.647 132.929 158.626C132.717 158.476 132.495 158.325 132.294 158.164C130.174 156.412 127.842 155.436 124.995 155.98C124.732 156.03 124.47 156.06 124.208 156.08C124.187 156.09 124.157 156.09 124.127 156.09C124.066 156.1 124.016 156.1 123.955 156.1C123.299 156.141 122.623 156.131 121.956 156.141C121.431 156.151 120.997 156.332 120.695 156.734C120.493 157.006 120.311 157.278 120.16 157.56C120.038 157.771 119.927 157.992 119.836 158.214C119.635 158.687 119.503 159.18 119.443 159.673C119.372 160.347 119.433 161.032 119.645 161.746C119.715 161.927 119.776 162.109 119.857 162.29C120.493 163.799 121.472 164.262 123.127 164.091C123.481 164.051 123.824 163.99 124.157 163.9C125.015 163.689 125.833 163.346 126.65 163.004C127.428 162.672 128.145 162.833 128.73 163.377C129.305 163.93 129.578 164.675 129.215 165.419C128.114 167.654 128.992 169.576 130.174 171.417C131.738 173.843 133.404 176.218 134.999 178.623C135.231 178.975 135.605 179.328 135.453 179.992C133.656 177.929 132.001 175.946 130.244 174.044C128.003 171.609 126.317 168.982 126.802 165.5C126.025 165.46 125.893 165.852 125.853 166.396C125.681 168.68 125.035 169.264 122.714 169.264H74.7227V167.332H75.2779C90.3293 167.332 105.371 167.332 120.422 167.322C120.937 167.322 121.472 167.412 122.037 167.161C121.3 166.959 120.594 166.869 119.978 166.516C119.493 166.174 119.039 165.812 118.625 165.419C118.403 165.198 118.191 164.957 117.999 164.715C117.747 164.403 117.525 164.081 117.343 163.719C117.222 163.517 117.111 163.296 117.03 163.065C117 163.004 116.97 162.944 116.949 162.883C116.889 162.753 116.859 162.612 116.859 162.461C116.828 162.219 116.788 161.988 116.747 161.746C116.717 161.535 116.687 161.324 116.677 161.102C116.657 160.84 116.647 160.569 116.687 160.297C116.687 160.247 116.697 160.196 116.707 160.146C116.687 159.975 116.687 159.814 116.697 159.653C116.737 159.17 116.909 158.697 117.04 158.214C117.06 158.133 117.081 158.053 117.101 157.972C117.121 157.831 117.161 157.691 117.202 157.56C117.394 156.946 117.737 156.402 118.08 155.869C118.403 155.366 118.474 154.903 118.009 154.46C117.565 153.514 116.899 152.689 116.525 151.703C115.95 150.183 115.627 148.533 116.636 147.204C117.616 145.896 117.575 144.799 116.838 143.531C116.909 141.699 116 140.059 115.758 138.278C115.97 137.372 116.021 136.426 116.323 135.53C117.07 134.926 117.757 134.212 118.605 133.799C119.524 133.346 119.655 132.994 119.251 131.998C118.161 129.371 118.766 126.896 120.372 124.621C121.219 123.534 122.491 122.961 123.461 122.025C123.713 121.652 123.763 121.22 123.844 120.787C123.885 120.555 123.925 120.334 123.965 120.103C124.026 119.73 124.076 119.348 124.117 118.975C124.147 118.694 124.177 118.422 124.197 118.14C124.208 118.029 124.218 117.929 124.218 117.818C124.308 116.56 124.319 115.292 124.288 114.024C124.278 113.642 124.248 113.239 124.359 112.857C124.52 112.384 124.884 112.162 125.379 112.223C125.651 112.253 125.792 112.364 125.843 112.514C125.914 112.665 125.903 112.867 125.893 113.088C125.843 114.527 125.843 115.966 125.883 117.405C125.924 119.227 125.702 121.049 126.004 122.86C127.549 122.9 129.093 122.951 130.638 122.991C135.1 123.122 139.562 123.343 143.761 125.054C148.576 127.026 150.192 130.066 149.707 135.631C149.606 136.909 149.041 137.986 147.9 138.66C147.294 139.022 147.214 139.425 147.446 140.079C147.92 141.438 148.334 142.816 148.698 144.215C149.162 146.037 149.475 147.888 149.122 149.78C148.93 150.837 148.415 151.723 147.305 151.974C146.507 152.155 146.416 152.588 146.356 153.263C146.123 155.668 145.538 157.992 144.397 160.146C144.054 160.78 144.205 161.132 144.72 161.565C146.103 162.722 147.476 163.93 149.182 164.574C150.535 165.077 149.859 165.872 149.606 166.547Z" fill="#33495E"/>
<path d="M24.9848 113.52C27.8282 113.52 30.1332 111.241 30.1332 108.428C30.1332 105.616 27.8282 103.336 24.9848 103.336C22.1414 103.336 19.8364 105.616 19.8364 108.428C19.8364 111.241 22.1414 113.52 24.9848 113.52Z" fill="#0084F8"/>
<path fill-rule="evenodd" clip-rule="evenodd" d="M25.2153 101.645H24.7611C24.7207 101.645 24.6803 101.685 24.6803 101.725C24.6803 101.775 24.7207 101.806 24.7712 101.806H25.2052C25.2557 101.806 25.286 101.775 25.286 101.725C25.286 101.685 25.2557 101.645 25.2153 101.645ZM26.1037 101.735C25.9623 101.705 25.8109 101.685 25.6595 101.675C25.6191 101.675 25.5787 101.705 25.5686 101.745C25.5686 101.785 25.5989 101.826 25.6393 101.836C25.7907 101.846 25.9321 101.866 26.0835 101.886C26.1239 101.896 26.1642 101.866 26.1743 101.826C26.1743 101.775 26.144 101.735 26.1037 101.735ZM24.3169 101.675C24.1655 101.685 24.014 101.705 23.8727 101.735C23.8222 101.735 23.7919 101.775 23.802 101.826C23.8121 101.866 23.8525 101.896 23.8929 101.886C24.0342 101.866 24.1856 101.846 24.327 101.836C24.3775 101.826 24.4077 101.785 24.3976 101.745C24.3976 101.705 24.3573 101.675 24.3169 101.675ZM23.4285 101.816C23.2771 101.856 23.1358 101.886 22.9945 101.936C22.9541 101.946 22.9238 101.987 22.944 102.037C22.9541 102.077 22.9945 102.097 23.0348 102.087C23.1762 102.047 23.3175 102.007 23.4588 101.977C23.5093 101.967 23.5295 101.916 23.5194 101.876C23.5093 101.836 23.4689 101.806 23.4285 101.816ZM26.9819 101.936C26.8406 101.886 26.6892 101.856 26.5478 101.816C26.4974 101.806 26.457 101.836 26.4469 101.876C26.4368 101.916 26.4671 101.967 26.5075 101.977C26.6488 102.007 26.7901 102.047 26.9314 102.087C26.9718 102.097 27.0223 102.077 27.0324 102.037C27.0425 101.987 27.0223 101.946 26.9819 101.936ZM22.5705 102.077C22.4291 102.128 22.2878 102.188 22.1566 102.248C22.1162 102.268 22.096 102.309 22.1162 102.349C22.1263 102.389 22.1768 102.409 22.2172 102.389C22.3484 102.329 22.4897 102.279 22.6209 102.228C22.6613 102.208 22.6916 102.168 22.6714 102.118C22.6512 102.077 22.6109 102.057 22.5705 102.077ZM27.8198 102.248C27.6886 102.188 27.5472 102.128 27.4059 102.077C27.3655 102.057 27.315 102.077 27.305 102.118C27.2848 102.168 27.305 102.208 27.3453 102.228C27.4867 102.279 27.6179 102.329 27.7491 102.389C27.7895 102.409 27.84 102.389 27.8602 102.349C27.8804 102.309 27.8602 102.268 27.8198 102.248ZM28.6072 102.661C28.486 102.591 28.3548 102.51 28.2236 102.44C28.1832 102.419 28.1327 102.44 28.1125 102.48C28.0924 102.51 28.1024 102.56 28.1428 102.58C28.2741 102.651 28.4053 102.721 28.5264 102.802C28.5668 102.822 28.6173 102.812 28.6375 102.772C28.6577 102.741 28.6476 102.691 28.6072 102.661ZM21.8638 102.48C21.8336 102.44 21.7932 102.419 21.7528 102.44C21.6216 102.51 21.4903 102.591 21.3591 102.661C21.3187 102.691 21.3086 102.741 21.3389 102.772C21.3591 102.812 21.4096 102.822 21.4499 102.802C21.5711 102.721 21.6922 102.651 21.8235 102.58C21.8638 102.56 21.884 102.51 21.8638 102.48ZM29.3441 103.184C29.223 103.094 29.1018 103.003 28.9807 102.913C28.9504 102.882 28.8999 102.892 28.8697 102.933C28.8495 102.963 28.8596 103.013 28.8898 103.043C29.011 103.124 29.122 103.214 29.2432 103.305C29.2734 103.335 29.3239 103.325 29.3542 103.295C29.3845 103.265 29.3744 103.214 29.3441 103.184ZM21.0966 102.933C21.0764 102.892 21.026 102.882 20.9856 102.913C20.8644 103.003 20.7433 103.094 20.6323 103.184C20.602 103.214 20.5919 103.265 20.6222 103.295C20.6525 103.325 20.7029 103.335 20.7332 103.305C20.8443 103.214 20.9654 103.124 21.0865 103.043C21.1168 103.013 21.1269 102.963 21.0966 102.933ZM30.0003 103.788C29.8892 103.677 29.7883 103.577 29.6772 103.476C29.647 103.446 29.5965 103.446 29.5662 103.476C29.5359 103.516 29.5359 103.567 29.5662 103.597C29.6772 103.687 29.7782 103.798 29.8791 103.899C29.9094 103.929 29.9599 103.929 29.9902 103.899C30.0205 103.869 30.0306 103.818 30.0003 103.788ZM20.4102 103.476C20.3799 103.446 20.3294 103.446 20.289 103.476C20.1881 103.577 20.0771 103.677 19.9761 103.788C19.9458 103.818 19.9458 103.869 19.9761 103.899C20.0165 103.929 20.067 103.929 20.0972 103.899C20.1982 103.798 20.2991 103.687 20.4001 103.597C20.4405 103.567 20.4405 103.516 20.4102 103.476ZM30.5656 104.472C30.4747 104.352 30.3839 104.241 30.293 104.12C30.2627 104.09 30.2123 104.08 30.182 104.11C30.1416 104.14 30.1416 104.191 30.1719 104.221C30.2627 104.342 30.3536 104.452 30.4344 104.573C30.4646 104.603 30.5151 104.613 30.5454 104.583C30.5858 104.563 30.5959 104.513 30.5656 104.472ZM19.7944 104.11C19.754 104.08 19.7035 104.09 19.6834 104.12C19.5824 104.241 19.4915 104.352 19.4108 104.472C19.3805 104.513 19.3906 104.563 19.4209 104.583C19.4613 104.613 19.5117 104.603 19.542 104.573C19.6228 104.452 19.7136 104.342 19.8045 104.221C19.8348 104.191 19.8247 104.14 19.7944 104.11ZM30.818 104.845C30.7978 104.805 30.7473 104.794 30.7069 104.825C30.6665 104.845 30.6564 104.895 30.6766 104.925C30.7574 105.056 30.8281 105.177 30.8987 105.308C30.9189 105.348 30.9694 105.358 31.0098 105.338C31.0501 105.318 31.0602 105.267 31.04 105.227C30.9694 105.096 30.8987 104.976 30.818 104.845ZM19.2695 104.825C19.2291 104.794 19.1786 104.805 19.1584 104.845C19.0777 104.976 19.007 105.096 18.9262 105.227C18.906 105.267 18.9262 105.318 18.9666 105.338C19.007 105.358 19.0575 105.348 19.0777 105.308C19.1382 105.177 19.219 105.056 19.2897 104.925C19.3199 104.895 19.3098 104.845 19.2695 104.825ZM18.8354 105.59C18.795 105.569 18.7546 105.59 18.7344 105.63C18.6739 105.761 18.6133 105.901 18.5628 106.042C18.5426 106.083 18.5628 106.123 18.6032 106.143C18.6537 106.153 18.6941 106.133 18.7142 106.093C18.7647 105.962 18.8152 105.821 18.8758 105.69C18.896 105.65 18.8758 105.61 18.8354 105.59ZM31.2419 105.63C31.2218 105.59 31.1713 105.569 31.1309 105.59C31.0905 105.61 31.0703 105.65 31.0905 105.69C31.1511 105.821 31.2117 105.962 31.2621 106.093C31.2722 106.133 31.3227 106.153 31.3631 106.143C31.4035 106.123 31.4236 106.083 31.4136 106.042C31.3631 105.901 31.3025 105.761 31.2419 105.63ZM18.5124 106.405C18.472 106.395 18.4316 106.415 18.4114 106.455C18.371 106.596 18.3306 106.747 18.3004 106.888C18.2903 106.928 18.3205 106.978 18.3609 106.988C18.4013 106.998 18.4518 106.968 18.4619 106.928C18.4922 106.787 18.5325 106.646 18.5729 106.505C18.583 106.465 18.5628 106.415 18.5124 106.405ZM31.5549 106.455C31.5448 106.415 31.4943 106.395 31.4539 106.405C31.4136 106.415 31.3934 106.465 31.4035 106.505C31.4438 106.646 31.4842 106.787 31.5145 106.928C31.5246 106.968 31.565 106.998 31.6154 106.988C31.6558 106.978 31.6861 106.928 31.676 106.888C31.6356 106.747 31.5953 106.596 31.5549 106.455ZM18.3004 107.26C18.26 107.25 18.2196 107.28 18.2095 107.32C18.1893 107.471 18.1691 107.612 18.159 107.763C18.1489 107.814 18.1792 107.844 18.2297 107.854C18.2701 107.854 18.3105 107.824 18.3105 107.783C18.3306 107.632 18.3508 107.492 18.371 107.351C18.3811 107.31 18.3508 107.27 18.3004 107.26ZM31.7568 107.32C31.7568 107.28 31.7164 107.25 31.6659 107.26C31.6255 107.27 31.5953 107.31 31.6054 107.351C31.6255 107.492 31.6457 107.632 31.6558 107.783C31.6659 107.824 31.7063 107.854 31.7467 107.854C31.7871 107.844 31.8274 107.814 31.8173 107.763C31.8073 107.612 31.7871 107.471 31.7568 107.32ZM31.7669 108.136C31.7164 108.136 31.6861 108.166 31.6861 108.216V108.649C31.6861 108.689 31.7164 108.729 31.7669 108.729C31.8073 108.729 31.8476 108.699 31.8476 108.649V108.206C31.8476 108.166 31.8073 108.126 31.7669 108.136ZM18.2903 108.216C18.2903 108.166 18.2499 108.136 18.2095 108.136C18.1691 108.126 18.1287 108.166 18.1287 108.206C18.1187 108.287 18.1187 108.357 18.1187 108.427C18.1187 108.508 18.1187 108.578 18.1287 108.649C18.1287 108.699 18.1691 108.729 18.2095 108.729C18.2499 108.729 18.2903 108.689 18.2903 108.649C18.2802 108.578 18.2802 108.508 18.2802 108.427C18.2802 108.357 18.2802 108.287 18.2903 108.216ZM18.3105 109.082C18.3105 109.041 18.2701 109.001 18.2297 109.011C18.1792 109.011 18.1489 109.051 18.159 109.092C18.1691 109.243 18.1893 109.394 18.2095 109.534C18.2196 109.585 18.26 109.615 18.3004 109.605C18.3508 109.595 18.3811 109.555 18.371 109.514C18.3508 109.373 18.3306 109.223 18.3105 109.082ZM31.7467 109.011C31.7063 109.001 31.6659 109.041 31.6558 109.082C31.6457 109.223 31.6255 109.373 31.6054 109.514C31.5953 109.555 31.6255 109.595 31.6659 109.605C31.7164 109.615 31.7568 109.585 31.7568 109.534C31.7871 109.394 31.8073 109.243 31.8173 109.092C31.8274 109.051 31.7871 109.011 31.7467 109.011ZM18.4619 109.937C18.4518 109.897 18.4013 109.867 18.3609 109.877C18.3205 109.887 18.2903 109.927 18.3004 109.977C18.3306 110.118 18.371 110.259 18.4114 110.4C18.4316 110.44 18.472 110.47 18.5124 110.46C18.5628 110.44 18.583 110.4 18.5729 110.36C18.5325 110.219 18.4922 110.078 18.4619 109.937ZM31.6154 109.877C31.565 109.867 31.5246 109.897 31.5145 109.937C31.4842 110.078 31.4438 110.219 31.4035 110.36C31.3934 110.4 31.4136 110.44 31.4539 110.46C31.4943 110.47 31.5448 110.44 31.5549 110.4C31.5953 110.259 31.6356 110.118 31.676 109.977C31.6861 109.927 31.6558 109.887 31.6154 109.877ZM18.8758 111.165C18.8152 111.034 18.7647 110.903 18.7142 110.762C18.6941 110.722 18.6537 110.702 18.6032 110.722C18.5628 110.732 18.5426 110.782 18.5628 110.823C18.6133 110.964 18.6739 111.094 18.7344 111.235C18.7546 111.276 18.795 111.296 18.8354 111.276C18.8758 111.255 18.896 111.205 18.8758 111.165ZM31.3631 110.722C31.3227 110.702 31.2722 110.722 31.2621 110.762C31.2117 110.903 31.1511 111.034 31.0905 111.165C31.0703 111.205 31.0905 111.255 31.1309 111.276C31.1713 111.296 31.2218 111.276 31.2419 111.235C31.3025 111.094 31.3631 110.964 31.4136 110.823C31.4236 110.782 31.4035 110.732 31.3631 110.722ZM31.0098 111.527C30.9694 111.507 30.9189 111.517 30.8987 111.557C30.8281 111.688 30.7574 111.809 30.6766 111.93C30.6564 111.97 30.6665 112.02 30.7069 112.04C30.7473 112.06 30.7978 112.05 30.818 112.02C30.8987 111.889 30.9694 111.759 31.04 111.628C31.0602 111.598 31.0501 111.547 31.0098 111.527ZM19.2897 111.93C19.219 111.809 19.1382 111.688 19.0777 111.557C19.0575 111.517 19.007 111.507 18.9666 111.527C18.9262 111.547 18.906 111.598 18.9262 111.628C19.007 111.759 19.0777 111.889 19.1584 112.02C19.1786 112.05 19.2291 112.06 19.2695 112.04C19.3098 112.02 19.3199 111.97 19.2897 111.93ZM30.5454 112.272C30.5151 112.252 30.4646 112.252 30.4344 112.292C30.3536 112.413 30.2627 112.523 30.1719 112.634C30.1416 112.674 30.1416 112.725 30.182 112.745C30.2123 112.775 30.2627 112.775 30.293 112.735C30.3839 112.624 30.4747 112.503 30.5656 112.383C30.5959 112.352 30.5858 112.302 30.5454 112.272ZM19.8045 112.634C19.7136 112.523 19.6228 112.413 19.542 112.292C19.5117 112.252 19.4613 112.252 19.4209 112.272C19.3906 112.302 19.3805 112.352 19.4108 112.383C19.4915 112.503 19.5824 112.624 19.6834 112.735C19.7035 112.775 19.754 112.775 19.7944 112.745C19.8247 112.725 19.8348 112.674 19.8045 112.634ZM29.9902 112.956C29.9599 112.926 29.9094 112.926 29.8791 112.966C29.7782 113.067 29.6772 113.167 29.5662 113.268C29.5359 113.298 29.5359 113.349 29.5662 113.379C29.5965 113.419 29.647 113.419 29.6772 113.389C29.7883 113.288 29.8892 113.178 30.0003 113.067C30.0306 113.037 30.0205 112.986 29.9902 112.956ZM20.4001 113.268C20.2991 113.167 20.1982 113.067 20.0972 112.966C20.067 112.926 20.0165 112.926 19.9761 112.956C19.9458 112.986 19.9458 113.037 19.9761 113.067C20.0771 113.178 20.1881 113.288 20.289 113.389C20.3294 113.419 20.3799 113.419 20.4102 113.379C20.4405 113.349 20.4405 113.298 20.4001 113.268ZM21.0865 113.822C20.9654 113.731 20.8443 113.651 20.7332 113.56C20.7029 113.53 20.6525 113.53 20.6222 113.57C20.5919 113.6 20.602 113.651 20.6323 113.681C20.7433 113.771 20.8644 113.862 20.9856 113.952C21.026 113.973 21.0764 113.963 21.0966 113.932C21.1269 113.892 21.1168 113.842 21.0865 113.822ZM29.3542 113.57C29.3239 113.53 29.2734 113.53 29.2432 113.56C29.122 113.651 29.011 113.731 28.8898 113.822C28.8596 113.842 28.8495 113.892 28.8697 113.932C28.8999 113.963 28.9504 113.973 28.9807 113.952C29.1018 113.862 29.223 113.771 29.3441 113.681C29.3744 113.651 29.3845 113.6 29.3542 113.57ZM21.8235 114.275C21.6922 114.214 21.5711 114.134 21.4499 114.063C21.4096 114.033 21.3591 114.053 21.3389 114.083C21.3086 114.124 21.3187 114.174 21.3591 114.194C21.4903 114.275 21.6216 114.345 21.7528 114.415C21.7932 114.436 21.8336 114.425 21.8638 114.385C21.884 114.345 21.8638 114.295 21.8235 114.275ZM28.5264 114.063C28.4053 114.134 28.2741 114.214 28.1428 114.275C28.1024 114.295 28.0924 114.345 28.1125 114.385C28.1327 114.425 28.1832 114.436 28.2236 114.415C28.3548 114.345 28.486 114.275 28.6072 114.194C28.6476 114.174 28.6577 114.124 28.6375 114.083C28.6173 114.053 28.5668 114.033 28.5264 114.063ZM22.6209 114.637C22.4897 114.586 22.3484 114.526 22.2172 114.466C22.1768 114.456 22.1263 114.466 22.1162 114.506C22.096 114.546 22.1162 114.597 22.1566 114.617C22.2878 114.677 22.4291 114.737 22.5705 114.788C22.6109 114.798 22.6512 114.778 22.6714 114.737C22.6916 114.697 22.6613 114.657 22.6209 114.637ZM27.8602 114.506C27.84 114.466 27.7895 114.456 27.7491 114.466C27.6179 114.526 27.4867 114.586 27.3453 114.637C27.305 114.657 27.2848 114.697 27.305 114.737C27.315 114.778 27.3655 114.798 27.4059 114.788C27.5472 114.737 27.6886 114.677 27.8198 114.617C27.8602 114.597 27.8804 114.546 27.8602 114.506ZM23.4588 114.888C23.3175 114.858 23.1762 114.818 23.0348 114.778C22.9945 114.768 22.9541 114.788 22.944 114.828C22.9238 114.868 22.9541 114.919 22.9945 114.929C23.1358 114.969 23.2771 115.009 23.4285 115.039C23.4689 115.049 23.5093 115.029 23.5194 114.989C23.5295 114.939 23.5093 114.898 23.4588 114.888ZM26.9314 114.778C26.7901 114.818 26.6488 114.858 26.5075 114.888C26.4671 114.898 26.4368 114.939 26.4469 114.989C26.457 115.029 26.4974 115.049 26.5478 115.039C26.6892 115.009 26.8406 114.969 26.9819 114.929C27.0223 114.919 27.0425 114.868 27.0324 114.828C27.0223 114.788 26.9718 114.768 26.9314 114.778ZM24.327 115.029C24.2664 115.029 24.2058 115.019 24.1453 114.999C24.0645 114.999 23.9737 114.989 23.8929 114.969C23.8525 114.969 23.8121 114.999 23.802 115.039C23.7919 115.08 23.8222 115.12 23.8727 115.13C23.9636 115.14 24.0544 115.15 24.1453 115.17C24.1957 115.17 24.2563 115.18 24.3169 115.19C24.3573 115.19 24.3976 115.16 24.3976 115.12C24.4077 115.07 24.3775 115.029 24.327 115.029ZM26.0835 114.969C25.9522 114.999 25.8311 115.009 25.6999 115.019C25.6797 115.029 25.6595 115.029 25.6393 115.029C25.5989 115.029 25.5686 115.07 25.5686 115.12C25.5787 115.16 25.6191 115.19 25.6595 115.19C25.6696 115.19 25.6898 115.19 25.6999 115.18C25.8412 115.17 25.9724 115.15 26.1037 115.13C26.144 115.12 26.1743 115.08 26.1743 115.039C26.1642 114.999 26.1239 114.969 26.0835 114.969ZM25.2052 115.059H24.7712C24.7207 115.059 24.6803 115.09 24.6803 115.13C24.6803 115.18 24.7207 115.21 24.7611 115.22H25.2153C25.2557 115.21 25.286 115.18 25.286 115.13C25.286 115.09 25.2557 115.059 25.2052 115.059Z" fill="#0084F8"/>
</svg>
