<svg width="35" height="37" viewBox="0 0 35 37" fill="none" xmlns="http://www.w3.org/2000/svg">
<path d="M10.3304 3.59507L12.2948 1.10239C12.4409 0.916955 13.0104 1.02512 13.2769 1.10239C14.7501 2.598 17.7948 5.78864 18.1877 6.5863C18.5805 7.38396 18.024 7.25101 17.6966 7.08483L15.7323 9.57752C15.4049 9.24516 14.5537 8.68015 13.768 9.07898C12.9823 9.47781 13.4406 10.907 13.768 11.5717L13.2769 12.5687L17.6966 15.56L22.6073 10.0761C22.4437 8.74663 22.4109 5.68893 23.5895 4.09361C24.7681 2.49829 27.027 2.09946 28.0092 2.09946L25.5538 7.08483L27.5181 9.57752L30.4646 10.0761L32.9199 5.09069C33.411 5.25686 34.295 6.18747 33.9021 8.58045C33.411 11.5717 32.9199 12.5687 29.9735 13.5658C27.6163 14.3635 26.6997 14.2305 26.536 14.0644L21.6252 19.0497L30.4646 27.0263C30.9556 27.1925 31.9378 28.0234 31.9378 30.0176C31.9378 32.5102 30.9556 33.5073 29.4824 34.0059C28.3038 34.4047 26.0449 33.175 25.0627 32.5102L18.1877 23.5366L12.7858 28.0234L13.2769 29.0205C13.2769 29.6852 13.0805 31.5132 12.2948 33.5073C11.509 35.5015 8.69353 36 7.38399 36L9.83937 31.5132L7.87507 28.5219H4.92861L2.47323 33.0088C2.14584 32.6764 1.49108 31.7126 1.49108 30.5161C1.49108 29.0205 1.98215 26.5278 3.94646 25.0322C5.5179 23.8357 7.87507 23.8689 8.85722 24.0351L14.2591 18.5512L11.3126 14.5629L10.3304 15.0614L8.85722 14.0644C8.36614 14.0644 7.08934 14.1641 5.91076 14.5629C4.73218 14.9617 2.14584 18.385 1 20.0468C1.16369 18.385 1.88394 14.4632 3.45538 12.0702C5.02682 9.67723 7.38399 6.75248 8.36614 5.58922C8.36614 5.7554 8.759 6.08776 10.3304 6.08776C11.9019 6.08776 10.9852 4.42597 10.3304 3.59507Z" fill="#FFEAB2"/>
<path d="M33.2161 11.5381C34.2696 9.67123 34.2612 7.35577 33.1911 5.49742C33.0912 5.32227 32.908 5.21547 32.7122 5.21547C32.7122 5.21547 32.7122 5.21547 32.7081 5.21547C32.5124 5.21547 32.3292 5.32654 32.2292 5.50169L29.8474 9.7225L27.2824 9.31238L25.6585 7.23615L28.0403 3.01535C28.1402 2.84019 28.1402 2.62232 28.0444 2.44716C27.9487 2.27201 27.7655 2.16094 27.5656 2.15666C27.5406 2.15666 27.5198 2.15666 27.4948 2.15666C25.417 2.15666 23.4849 3.29731 22.4439 5.14284C21.6236 6.59534 21.3988 8.41525 21.8276 10.0728L19.0544 12.918C18.8796 13.0974 18.8796 13.3879 19.0544 13.5674C19.1419 13.6571 19.2585 13.7041 19.3709 13.7041C19.4875 13.7041 19.5999 13.6571 19.6874 13.5674L19.9372 13.311L22.6521 10.5256C22.6646 10.5128 22.6771 10.4957 22.6896 10.4829C22.6937 10.4787 22.6937 10.4744 22.6979 10.4701C22.7062 10.4573 22.7146 10.4445 22.7229 10.4317C22.7229 10.4274 22.7271 10.4231 22.7271 10.4231C22.7354 10.406 22.7437 10.3889 22.752 10.3719V10.3676C22.7562 10.3505 22.7645 10.3334 22.7687 10.3163C22.7687 10.312 22.7729 10.3078 22.7729 10.3035C22.777 10.2864 22.7812 10.2736 22.7812 10.2565C22.7812 10.2522 22.7812 10.2522 22.7812 10.248C22.7812 10.2309 22.7853 10.2095 22.7853 10.1924C22.7853 10.1882 22.7853 10.1839 22.7853 10.1796C22.7853 10.1625 22.7812 10.1497 22.7812 10.1326C22.7812 10.1283 22.7812 10.1241 22.7812 10.1198C22.777 10.1027 22.7729 10.0814 22.7687 10.0643C22.3148 8.58186 22.4897 6.91148 23.2309 5.59995C24.022 4.20298 25.4128 3.28022 26.9576 3.10506L24.8465 6.84312C24.6841 7.12935 24.7091 7.48393 24.9131 7.74026L26.6162 9.92329C26.737 10.0814 26.9118 10.1839 27.1034 10.2138L29.7975 10.641C30.1181 10.6923 30.4262 10.5385 30.5886 10.2522L32.6998 6.51417C33.3202 7.97949 33.2369 9.67551 32.4458 11.0725C31.8628 12.1063 30.9259 12.9351 29.81 13.4093C28.694 13.8835 27.499 13.9604 26.4371 13.6229C26.2789 13.5716 26.104 13.6186 25.9874 13.7382L21.4196 18.4204C20.9199 18.0018 20.441 17.6002 19.983 17.22L22.3356 14.8063C22.5105 14.6268 22.5105 14.3363 22.3356 14.1569C22.1608 13.9775 21.8776 13.9775 21.7027 14.1569L19.2793 16.6433C16.6019 14.4517 14.6989 13.0163 13.887 12.4182L14.1535 12.1448C14.295 11.9995 14.3242 11.7774 14.2284 11.5937L13.8287 10.8546C13.6413 10.5086 13.6704 10.1155 13.9036 9.87629C14.1368 9.63706 14.5199 9.60715 14.8572 9.7994L15.2736 10.0386C15.6275 10.2394 16.0689 10.1753 16.3562 9.88484L18.3216 7.86842C18.7755 7.40277 18.7755 6.64234 18.3216 6.17668L13.6163 1.34924C13.1624 0.883586 12.4212 0.883586 11.9674 1.34924L10.002 3.36566C9.71883 3.65616 9.65637 4.11327 9.85207 4.4764L10.0853 4.9036C10.2726 5.24964 10.2435 5.64267 10.0103 5.88191C9.77712 6.12114 9.39404 6.15105 9.05676 5.95881L8.64036 5.71957C8.28642 5.51878 7.84504 5.58286 7.55773 5.87336L5.86299 7.6121C5.85883 7.61637 5.8505 7.62491 5.84634 7.62918C4.53885 8.97489 3.47288 10.4658 2.68173 12.0593C2.04464 13.3452 1.57827 14.6995 1.29929 16.0879C0.824596 18.4632 1.05361 20.1036 1.06611 20.172C1.09525 20.3685 1.24099 20.5223 1.43254 20.5565C1.45752 20.5607 1.48667 20.565 1.51165 20.565C1.67405 20.565 1.82395 20.4753 1.90306 20.3258C1.92805 20.2745 4.59299 15.3915 7.63684 14.7849C8.58206 14.5969 9.44401 14.8404 10.281 15.5368C10.46 15.6863 10.7182 15.6735 10.8806 15.5069L11.1471 15.2335C11.5593 15.823 12.3754 16.9679 13.5663 18.5529L8.66534 23.5768C6.12116 22.9061 3.23553 24.1792 1.86142 26.6185C0.80794 28.4854 0.816268 30.8009 1.88641 32.6635C1.98634 32.8387 2.16956 32.9455 2.36526 32.9455C2.36526 32.9455 2.36526 32.9455 2.36943 32.9455C2.56513 32.9455 2.74835 32.8344 2.84828 32.6592L5.23007 28.4384L7.79507 28.8486L9.41486 30.9291L7.03307 35.1413C6.93313 35.3165 6.93313 35.5343 7.03307 35.7095C7.12884 35.8847 7.31205 35.9957 7.51192 36C7.53691 36 7.55773 36 7.57855 36C9.65637 36 11.5884 34.8594 12.6294 33.0138C13.4456 31.5699 13.6704 29.7542 13.2499 28.1052L15.4526 25.8453C15.6275 25.6659 15.6275 25.3754 15.4526 25.1959C15.2777 25.0165 14.9946 25.0165 14.8197 25.1959L12.4296 27.6481C12.313 27.7677 12.2672 27.9471 12.3171 28.1095C12.7627 29.5876 12.5878 31.2495 11.8508 32.5567C11.0596 33.9537 9.66886 34.8764 8.12403 35.0516L10.2352 31.3135C10.3976 31.0273 10.3726 30.6727 10.1685 30.4164L8.46547 28.2334C8.34472 28.0753 8.16983 27.9728 7.97829 27.9429L5.2842 27.5157C4.96358 27.4644 4.65544 27.6182 4.49305 27.9044L2.38192 31.6425C1.76149 30.1772 1.84477 28.4812 2.63592 27.0842C3.21888 26.0503 4.15993 25.2173 5.27588 24.7431C6.39182 24.2689 7.5952 24.1963 8.65702 24.538C8.81525 24.5893 8.99013 24.5466 9.10672 24.4227L14.1076 19.2919C14.2575 19.4885 14.4116 19.6935 14.574 19.9028C14.7864 20.1805 15.0112 20.471 15.2486 20.7743L12.7335 23.3547C12.5587 23.5341 12.5587 23.8246 12.7335 24.004C12.821 24.0937 12.9376 24.1407 13.05 24.1407C13.1666 24.1407 13.279 24.0937 13.3665 24.004L15.8107 21.4963C18.0842 24.3714 21.3155 28.3103 25.342 32.7831C26.0874 33.6119 27.1075 34.0818 28.2068 34.1032C28.2318 34.1032 28.261 34.1032 28.286 34.1032C29.3519 34.1032 30.3513 33.6803 31.105 32.9028C31.8795 32.1081 32.2917 31.0529 32.2709 29.9294C32.25 28.8016 31.792 27.7592 30.9842 26.9902C27.6947 23.8673 24.68 21.193 22.1108 19.01L26.4288 14.5841C28.9688 15.242 31.8461 13.9689 33.2161 11.5381ZM30.3804 27.6652C31.0092 28.259 31.3631 29.0707 31.3798 29.9465C31.3964 30.818 31.0758 31.6382 30.4762 32.2534C29.8766 32.8686 29.0771 33.1975 28.2277 33.1804C27.374 33.1633 26.5871 32.8002 26.0041 32.1551C16.9433 22.1072 11.7883 14.5884 11.5718 14.2723C11.5676 14.268 11.5676 14.2637 11.5676 14.2637C11.5676 14.2594 11.5635 14.2594 11.5635 14.2552C11.5593 14.2466 11.551 14.2381 11.5426 14.2295C11.5385 14.2253 11.5343 14.221 11.5302 14.2124C11.526 14.2082 11.5218 14.2039 11.5177 14.1996L11.5135 14.1954C11.5093 14.1911 11.501 14.1825 11.4968 14.1783C11.4927 14.174 11.4843 14.1697 11.4802 14.1655C11.476 14.1612 11.4677 14.1569 11.4635 14.1526C11.4552 14.1484 11.451 14.1441 11.4427 14.1398C11.4385 14.1355 11.4344 14.1355 11.4261 14.1313C11.4177 14.127 11.4094 14.1227 11.4011 14.1185C11.3969 14.1185 11.3927 14.1142 11.3886 14.1142C11.3802 14.1099 11.3678 14.1056 11.3594 14.1014C11.3553 14.1014 11.3511 14.0971 11.3511 14.0971C11.3386 14.0928 11.3303 14.0886 11.3178 14.0843C11.3136 14.0843 11.3136 14.0843 11.3095 14.08C11.297 14.0757 11.2886 14.0757 11.2761 14.0715C11.272 14.0715 11.2678 14.0715 11.2637 14.0715C11.2553 14.0715 11.2428 14.0672 11.2345 14.0672C11.2303 14.0672 11.2262 14.0672 11.2179 14.0672C11.2095 14.0672 11.2012 14.0672 11.1887 14.0672C11.1845 14.0672 11.1762 14.0672 11.1721 14.0672C11.1637 14.0672 11.1554 14.0672 11.1471 14.0672C11.1387 14.0672 11.1346 14.0672 11.1262 14.0715C11.1179 14.0715 11.1096 14.0757 11.1013 14.0757C11.0929 14.0757 11.0888 14.08 11.0804 14.08C11.0721 14.08 11.0638 14.0843 11.0555 14.0886C11.0513 14.0886 11.043 14.0928 11.0388 14.0928C11.0305 14.0971 11.0221 14.0971 11.0138 14.1014C11.0097 14.1014 11.0055 14.1056 11.0013 14.1056C10.993 14.1099 10.9847 14.1142 10.9722 14.1185C10.968 14.1227 10.9639 14.1227 10.9597 14.127C10.9514 14.1313 10.943 14.1398 10.9347 14.1441C10.9347 14.1441 10.9305 14.1441 10.9305 14.1484C10.9264 14.1526 10.9222 14.1526 10.9222 14.1569C10.9139 14.1612 10.9097 14.1697 10.9014 14.174C10.8931 14.1783 10.8889 14.1868 10.8847 14.1911C10.8806 14.1954 10.8764 14.1996 10.8722 14.1996L10.5058 14.5756C9.55643 13.9006 8.5321 13.6699 7.44947 13.8835C5.05935 14.3662 2.98153 16.9765 1.8989 18.5956C1.91972 17.9761 1.99051 17.1858 2.17372 16.2801C2.43605 14.9729 2.87327 13.6955 3.47704 12.4823C4.23072 10.9657 5.24673 9.54734 6.49592 8.26572C6.50008 8.26145 6.50841 8.25291 6.51257 8.24863L8.19065 6.52699C8.19482 6.52272 8.19898 6.52272 8.20314 6.52699L8.61954 6.76623C9.31076 7.15926 10.1227 7.06527 10.6432 6.53553C11.1637 6.00153 11.2512 5.16847 10.8681 4.45931L10.6349 4.0321C10.6349 4.02783 10.6349 4.02356 10.6349 4.01929L12.6003 2.00287C12.7044 1.89607 12.8751 1.89607 12.9834 2.00287L17.6887 6.83031C17.7928 6.93711 17.7928 7.11226 17.6887 7.22334L15.7233 9.23976C15.7191 9.24403 15.7149 9.24403 15.7108 9.23976L15.2944 9.00052C14.6032 8.60749 13.7912 8.70147 13.2707 9.23121C12.7502 9.76522 12.6628 10.5983 13.0458 11.3074L13.279 11.7389L12.4046 12.6361C12.2297 12.8155 12.2297 13.106 12.4046 13.2854C12.5795 13.4648 12.8626 13.4648 13.0375 13.2854L13.2415 13.0761C13.887 13.5503 15.5234 14.7721 17.8719 16.6689C20.7075 18.9587 25.1755 22.7267 30.3804 27.6652Z" fill="#FB6E07" stroke="#FB6E07" stroke-width="0.2"/>
<path d="M23.7191 13.4703C23.9727 13.409 24.1297 13.1487 24.0698 12.8889C24.01 12.6291 23.7558 12.4682 23.5022 12.5296C23.2486 12.5909 23.0915 12.8512 23.1514 13.111C23.2113 13.3708 23.4654 13.5317 23.7191 13.4703Z" fill="#FB6E07" stroke="#FB6E07" stroke-width="6"/>
<path d="M16.6915 24.7092C16.9508 24.6829 17.1402 24.4463 17.1145 24.1806C17.0888 23.915 16.8578 23.721 16.5985 23.7473C16.3391 23.7736 16.1497 24.0103 16.1754 24.2759C16.2011 24.5415 16.4321 24.7355 16.6915 24.7092Z" fill="#FB6E07" stroke="#FB6E07" stroke-width="6"/>
</svg>
