<svg width="470" height="304" viewBox="0 0 470 304" fill="none" xmlns="http://www.w3.org/2000/svg">
<path d="M459.17 232.79H406.02V302.89H459.17V232.79Z" fill="#F5F5F5"/>
<path d="M459.17 232.79H434.25V302.89H459.17V232.79Z" fill="#EBEBEB"/>
<path d="M421.94 242.28H417.16V253.89H421.94V242.28Z" fill="#EBEBEB"/>
<path d="M421.94 287.72H417.16V299.33H421.94V287.72Z" fill="#EBEBEB"/>
<path d="M434.25 258.44C434.25 258.54 427.93 258.62 420.14 258.62C412.35 258.62 406.02 258.54 406.02 258.44C406.02 258.34 412.34 258.26 420.14 258.26C427.94 258.26 434.25 258.34 434.25 258.44Z" fill="#EBEBEB"/>
<path d="M421.94 265.17H417.16V276.78H421.94V265.17Z" fill="#EBEBEB"/>
<path d="M434.25 281.34C434.25 281.44 427.93 281.52 420.14 281.52C412.35 281.52 406.02 281.44 406.02 281.34C406.02 281.24 412.34 281.15 420.14 281.15C427.94 281.15 434.25 281.24 434.25 281.34Z" fill="#EBEBEB"/>
<path d="M444.32 242.28H439.54V253.89H444.32V242.28Z" fill="#E0E0E0"/>
<path d="M454.69 242.28H449.91V253.89H454.69V242.28Z" fill="#E0E0E0"/>
<path d="M444.32 264.31H439.54V275.92H444.32V264.31Z" fill="#E0E0E0"/>
<path d="M454.69 264.31H449.91V275.92H454.69V264.31Z" fill="#E0E0E0"/>
<path d="M444.32 286.34H439.54V297.95H444.32V286.34Z" fill="#E0E0E0"/>
<path d="M454.69 286.34H449.91V297.95H454.69V286.34Z" fill="#E0E0E0"/>
<path d="M463.16 230.34H402.02V232.87H463.16V230.34Z" fill="#E0E0E0"/>
<path d="M459.54 233.11C459.54 233.21 447.66 233.29 433.01 233.29C418.36 233.29 406.48 233.21 406.48 233.11C406.48 233.01 418.36 232.93 433.01 232.93C447.66 232.93 459.54 233.01 459.54 233.11Z" fill="#F5F5F5"/>
<path d="M347.03 55.7002H252.27V303.72H347.03V55.7002Z" fill="#EBEBEB"/>
<path d="M347.02 55.7002H299.64V303.72H347.02V55.7002Z" fill="#E0E0E0"/>
<path d="M296.55 26.2202H263.09V55.7002H296.55V26.2202Z" fill="#EBEBEB"/>
<path d="M296.54 26.2202H288.57V55.7002H296.54V26.2202Z" fill="#E0E0E0"/>
<path d="M349.79 53.98H244.37V55.7H349.79V53.98Z" fill="#E0E0E0"/>
<path d="M278.99 68.5601H270.97V85.4701H278.99V68.5601Z" fill="white"/>
<path d="M299.64 92.1098C299.64 92.2898 289.04 92.4298 275.96 92.4298C262.88 92.4298 252.27 92.2898 252.27 92.1098C252.27 91.9298 262.87 91.7798 275.96 91.7798C289.05 91.7798 299.64 91.9198 299.64 92.1098Z" fill="#E0E0E0"/>
<path d="M326.78 68.5601H318.76V85.4701H326.78V68.5601Z" fill="#F5F5F5"/>
<path d="M347.43 92.1098C347.43 92.2898 336.83 92.4298 323.75 92.4298C310.67 92.4298 300.06 92.2898 300.06 92.1098C300.06 91.9298 310.66 91.7798 323.75 91.7798C336.84 91.7798 347.43 91.9198 347.43 92.1098Z" fill="#EBEBEB"/>
<path d="M326.78 102.13H318.76V119.04H326.78V102.13Z" fill="#F5F5F5"/>
<path d="M347.43 125.68C347.43 125.86 336.83 126.01 323.75 126.01C310.67 126.01 300.06 125.86 300.06 125.68C300.06 125.5 310.66 125.36 323.75 125.36C336.84 125.36 347.43 125.51 347.43 125.68Z" fill="#EBEBEB"/>
<path d="M326.78 136.72H318.76V153.63H326.78V136.72Z" fill="#F5F5F5"/>
<path d="M347.43 160.27C347.43 160.45 336.83 160.6 323.75 160.6C310.67 160.6 300.06 160.45 300.06 160.27C300.06 160.09 310.66 159.95 323.75 159.95C336.84 159.95 347.43 160.1 347.43 160.27Z" fill="#EBEBEB"/>
<path d="M326.78 171.32H318.76V188.23H326.78V171.32Z" fill="#F5F5F5"/>
<path d="M347.43 194.86C347.43 195.04 336.83 195.19 323.75 195.19C310.67 195.19 300.06 195.04 300.06 194.86C300.06 194.68 310.66 194.54 323.75 194.54C336.84 194.54 347.43 194.69 347.43 194.86Z" fill="#EBEBEB"/>
<path d="M326.78 204.92H318.76V221.83H326.78V204.92Z" fill="#F5F5F5"/>
<path d="M347.43 228.47C347.43 228.64 336.83 228.79 323.75 228.79C310.67 228.79 300.06 228.64 300.06 228.47C300.06 228.3 310.66 228.14 323.75 228.14C336.84 228.14 347.43 228.29 347.43 228.47Z" fill="#EBEBEB"/>
<path d="M326.78 238.65H318.76V255.56H326.78V238.65Z" fill="#F5F5F5"/>
<path d="M326.78 272.83H318.76V289.74H326.78V272.83Z" fill="#F5F5F5"/>
<path d="M347.43 262.2C347.43 262.38 336.83 262.53 323.75 262.53C310.67 262.53 300.06 262.38 300.06 262.2C300.06 262.02 310.66 261.88 323.75 261.88C336.84 261.88 347.43 262.02 347.43 262.2Z" fill="#EBEBEB"/>
<path d="M278.99 102.65H270.97V119.56H278.99V102.65Z" fill="white"/>
<path d="M299.64 126.2C299.64 126.37 289.04 126.52 275.96 126.52C262.88 126.52 252.27 126.37 252.27 126.2C252.27 126.03 262.87 125.87 275.96 125.87C289.05 125.87 299.64 126.02 299.64 126.2Z" fill="#E0E0E0"/>
<path d="M278.99 136.74H270.97V153.65H278.99V136.74Z" fill="white"/>
<path d="M299.64 160.29C299.64 160.46 289.04 160.61 275.96 160.61C262.88 160.61 252.27 160.46 252.27 160.29C252.27 160.12 262.87 159.96 275.96 159.96C289.05 159.96 299.64 160.11 299.64 160.29Z" fill="#E0E0E0"/>
<path d="M278.99 170.83H270.97V187.74H278.99V170.83Z" fill="white"/>
<path d="M299.64 194.38C299.64 194.55 289.04 194.7 275.96 194.7C262.88 194.7 252.27 194.55 252.27 194.38C252.27 194.21 262.87 194.05 275.96 194.05C289.05 194.05 299.64 194.2 299.64 194.38Z" fill="#E0E0E0"/>
<path d="M278.99 204.92H270.97V221.83H278.99V204.92Z" fill="white"/>
<path d="M299.64 228.47C299.64 228.64 289.04 228.79 275.96 228.79C262.88 228.79 252.27 228.64 252.27 228.47C252.27 228.3 262.87 228.14 275.96 228.14C289.05 228.14 299.64 228.29 299.64 228.47Z" fill="#E0E0E0"/>
<path d="M278.99 239.01H270.97V255.92H278.99V239.01Z" fill="white"/>
<path d="M299.64 262.56C299.64 262.73 289.04 262.88 275.96 262.88C262.88 262.88 252.27 262.73 252.27 262.56C252.27 262.39 262.87 262.23 275.96 262.23C289.05 262.23 299.64 262.38 299.64 262.56Z" fill="#E0E0E0"/>
<path d="M278.99 273.1H270.97V290.01H278.99V273.1Z" fill="white"/>
<path d="M214.98 207.45H142.32V303.29H214.98V207.45Z" fill="#EBEBEB"/>
<path d="M214.98 207.45H180.91V303.29H214.98V207.45Z" fill="#E0E0E0"/>
<path d="M164.08 220.42H157.55V236.29H164.08V220.42Z" fill="#F5F5F5"/>
<path d="M164.08 282.55H157.55V298.42H164.08V282.55Z" fill="#F5F5F5"/>
<path d="M180.91 242.53C180.91 242.7 172.27 242.85 161.61 242.85C150.95 242.85 142.32 242.7 142.32 242.53C142.32 242.36 150.96 242.2 161.61 242.2C172.26 242.2 180.91 242.35 180.91 242.53Z" fill="#F5F5F5"/>
<path d="M164.08 251.72H157.55V267.59H164.08V251.72Z" fill="#F5F5F5"/>
<path d="M180.91 273.82C180.91 274 172.27 274.15 161.61 274.15C150.95 274.15 142.32 274 142.32 273.82C142.32 273.64 150.96 273.5 161.61 273.5C172.26 273.5 180.91 273.65 180.91 273.82Z" fill="#F5F5F5"/>
<path d="M194.67 220.42H188.14V236.29H194.67V220.42Z" fill="#F5F5F5"/>
<path d="M208.85 220.42H202.32V236.29H208.85V220.42Z" fill="#F5F5F5"/>
<path d="M194.67 250.54H188.14V266.41H194.67V250.54Z" fill="#F5F5F5"/>
<path d="M208.85 250.54H202.32V266.41H208.85V250.54Z" fill="#F5F5F5"/>
<path d="M194.67 280.66H188.14V296.53H194.67V280.66Z" fill="#F5F5F5"/>
<path d="M208.85 280.66H202.32V296.53H208.85V280.66Z" fill="#F5F5F5"/>
<path d="M220.45 204.11H136.86V207.57H220.45V204.11Z" fill="#E0E0E0"/>
<path d="M215.49 207.92C215.49 208.1 199.25 208.25 179.22 208.25C159.19 208.25 142.94 208.1 142.94 207.92C142.94 207.74 159.18 207.6 179.22 207.6C199.26 207.6 215.49 207.72 215.49 207.92Z" fill="#EBEBEB"/>
<path d="M369.82 88.6099L434.19 88.9199C434.19 88.9199 428.09 74.9199 415.06 74.9199C405.13 74.9199 404.69 81.0999 398.72 82.8699C392.75 84.6399 380.19 73.8199 369.82 88.6099Z" fill="#EBEBEB"/>
<path d="M91.9102 24.07L205.11 24.54C205.11 24.54 194.39 0.01 171.48 0C154.02 0 153.24 10.87 142.76 14C132.28 17.13 110.19 -1.94 91.9102 24.07Z" fill="#F5F5F5"/>
<path d="M469.54 302.92C469.54 303.07 364.42 303.18 234.78 303.18C105.14 303.18 0 303.07 0 302.92C0 302.77 105.09 302.66 234.78 302.66C364.47 302.66 469.54 302.78 469.54 302.92Z" fill="#263238"/>
<path d="M421.459 157.77H366.049V302.8H421.459V157.77Z" fill="#455A64"/>
<path d="M421.449 157.77H393.749V302.8H421.449V157.77Z" fill="#263238"/>
<path d="M391.949 140.53H372.379V157.77H391.949V140.53Z" fill="#455A64"/>
<path d="M391.939 140.53H387.279V157.77H391.939V140.53Z" fill="#263238"/>
<path d="M423.079 156.76H361.429V157.77H423.079V156.76Z" fill="#455A64"/>
<path d="M381.679 165.29H376.989V175.18H381.679V165.29Z" fill="#263238"/>
<path d="M393.749 179.06C393.749 179.16 387.549 179.25 379.899 179.25C372.249 179.25 366.049 179.16 366.049 179.06C366.049 178.96 372.249 178.87 379.899 178.87C387.549 178.87 393.749 178.92 393.749 179.06Z" fill="#263238"/>
<path d="M409.619 165.29H404.929V175.18H409.619V165.29Z" fill="#455A64"/>
<path d="M421.699 179.06C421.699 179.16 415.499 179.25 407.849 179.25C400.199 179.25 393.999 179.16 393.999 179.06C393.999 178.96 400.199 178.87 407.849 178.87C415.499 178.87 421.699 178.92 421.699 179.06Z" fill="#455A64"/>
<path d="M409.619 184.92H404.929V194.81H409.619V184.92Z" fill="#455A64"/>
<path d="M421.699 198.69C421.699 198.8 415.499 198.88 407.849 198.88C400.199 198.88 393.999 198.8 393.999 198.69C393.999 198.58 400.199 198.5 407.849 198.5C415.499 198.5 421.699 198.59 421.699 198.69Z" fill="#455A64"/>
<path d="M409.619 205.15H404.929V215.04H409.619V205.15Z" fill="#455A64"/>
<path d="M421.699 218.92C421.699 219.02 415.499 219.11 407.849 219.11C400.199 219.11 393.999 219.02 393.999 218.92C393.999 218.82 400.199 218.73 407.849 218.73C415.499 218.73 421.699 218.81 421.699 218.92Z" fill="#455A64"/>
<path d="M409.619 225.37H404.929V235.26H409.619V225.37Z" fill="#455A64"/>
<path d="M421.699 239.14C421.699 239.25 415.499 239.33 407.849 239.33C400.199 239.33 393.999 239.25 393.999 239.14C393.999 239.03 400.199 238.96 407.849 238.96C415.499 238.96 421.699 239.04 421.699 239.14Z" fill="#455A64"/>
<path d="M409.619 245.02H404.929V254.91H409.619V245.02Z" fill="#455A64"/>
<path d="M421.699 258.79C421.699 258.9 415.499 258.98 407.849 258.98C400.199 258.98 393.999 258.9 393.999 258.79C393.999 258.68 400.199 258.6 407.849 258.6C415.499 258.6 421.699 258.69 421.699 258.79Z" fill="#455A64"/>
<path d="M409.619 264.75H404.929V274.64H409.619V264.75Z" fill="#455A64"/>
<path d="M409.619 284.74H404.929V294.63H409.619V284.74Z" fill="#455A64"/>
<path d="M421.699 278.52C421.699 278.63 415.499 278.71 407.849 278.71C400.199 278.71 393.999 278.63 393.999 278.52C393.999 278.41 400.199 278.33 407.849 278.33C415.499 278.33 421.699 278.42 421.699 278.52Z" fill="#455A64"/>
<path d="M381.679 185.22H376.989V195.11H381.679V185.22Z" fill="#263238"/>
<path d="M393.749 198.99C393.749 199.09 387.549 199.18 379.899 199.18C372.249 199.18 366.049 199.09 366.049 198.99C366.049 198.89 372.249 198.8 379.899 198.8C387.549 198.8 393.749 198.92 393.749 198.99Z" fill="#263238"/>
<path d="M381.679 205.15H376.989V215.04H381.679V205.15Z" fill="#263238"/>
<path d="M393.749 218.92C393.749 219.03 387.549 219.11 379.899 219.11C372.249 219.11 366.049 219.03 366.049 218.92C366.049 218.81 372.249 218.74 379.899 218.74C387.549 218.74 393.749 218.82 393.749 218.92Z" fill="#263238"/>
<path d="M381.679 225.09H376.989V234.98H381.679V225.09Z" fill="#263238"/>
<path d="M393.749 238.86C393.749 238.96 387.549 239.05 379.899 239.05C372.249 239.05 366.049 238.96 366.049 238.86C366.049 238.76 372.249 238.67 379.899 238.67C387.549 238.67 393.749 238.75 393.749 238.86Z" fill="#263238"/>
<path d="M381.679 245.02H376.989V254.91H381.679V245.02Z" fill="#263238"/>
<path d="M393.749 258.79C393.749 258.9 387.549 258.98 379.899 258.98C372.249 258.98 366.049 258.9 366.049 258.79C366.049 258.68 372.249 258.6 379.899 258.6C387.549 258.6 393.749 258.69 393.749 258.79Z" fill="#263238"/>
<path d="M381.679 264.96H376.989V274.85H381.679V264.96Z" fill="#263238"/>
<path d="M393.749 278.73C393.749 278.83 387.549 278.92 379.899 278.92C372.249 278.92 366.049 278.83 366.049 278.73C366.049 278.63 372.249 278.54 379.899 278.54C387.549 278.54 393.749 278.62 393.749 278.73Z" fill="#263238"/>
<path d="M381.679 284.89H376.989V294.78H381.679V284.89Z" fill="#263238"/>
<path d="M282.709 105.94H208.579V302.86H282.709V105.94Z" fill="#455A64"/>
<path d="M282.719 105.94H254.269V302.86H282.719V105.94Z" fill="#263238"/>
<path d="M271.309 121.48H265.679V133.36H271.309V121.48Z" fill="#455A64"/>
<path d="M271.309 142.32H265.679V154.2H271.309V142.32Z" fill="#455A64"/>
<path d="M271.309 165.66H265.679V177.54H271.309V165.66Z" fill="#455A64"/>
<path d="M271.309 187.96H265.679V199.84H271.309V187.96Z" fill="#455A64"/>
<path d="M271.309 210.27H265.679V222.15H271.309V210.27Z" fill="#455A64"/>
<path d="M271.309 232.57H265.679V244.45H271.309V232.57Z" fill="#455A64"/>
<path d="M271.309 254.88H265.679V266.76H271.309V254.88Z" fill="#455A64"/>
<path d="M271.309 279.4H265.679V291.28H271.309V279.4Z" fill="#455A64"/>
<path d="M286.409 104.7H202.129V107H286.409V104.7Z" fill="#263238"/>
<path d="M268.499 90.8398H238.489V105.85H268.499V90.8398Z" fill="#263238"/>
<path d="M254.269 90.8398H238.489V104.7H254.269V90.8398Z" fill="#455A64"/>
<path d="M224.759 120.99H219.129V132.87H224.759V120.99Z" fill="#263238"/>
<path d="M239.759 120.99H234.129V132.87H239.759V120.99Z" fill="#263238"/>
<path d="M224.759 143.62H219.129V155.5H224.759V143.62Z" fill="#263238"/>
<path d="M239.759 143.62H234.129V155.5H239.759V143.62Z" fill="#263238"/>
<path d="M224.759 166.25H219.129V178.13H224.759V166.25Z" fill="#263238"/>
<path d="M239.759 166.25H234.129V178.13H239.759V166.25Z" fill="#263238"/>
<path d="M224.759 188.88H219.129V200.76H224.759V188.88Z" fill="#263238"/>
<path d="M239.759 188.88H234.129V200.76H239.759V188.88Z" fill="#263238"/>
<path d="M224.759 211.51H219.129V223.39H224.759V211.51Z" fill="#263238"/>
<path d="M239.759 211.51H234.129V223.39H239.759V211.51Z" fill="#263238"/>
<path d="M224.759 234.14H219.129V246.02H224.759V234.14Z" fill="#263238"/>
<path d="M239.759 234.14H234.129V246.02H239.759V234.14Z" fill="#263238"/>
<path d="M224.759 256.77H219.129V268.65H224.759V256.77Z" fill="#263238"/>
<path d="M239.759 256.77H234.129V268.65H239.759V256.77Z" fill="#263238"/>
<path d="M224.759 279.4H219.129V291.28H224.759V279.4Z" fill="#263238"/>
<path d="M239.759 279.4H234.129V291.28H239.759V279.4Z" fill="#263238"/>
<path d="M254.269 137.53C254.269 137.73 244.039 137.89 231.429 137.89C218.819 137.89 208.579 137.73 208.579 137.53C208.579 137.33 218.809 137.18 231.429 137.18C244.049 137.18 254.269 137.34 254.269 137.53Z" fill="#263238"/>
<path d="M254.269 160.24C254.269 160.44 244.039 160.6 231.429 160.6C218.819 160.6 208.579 160.44 208.579 160.24C208.579 160.04 218.809 159.89 231.429 159.89C244.049 159.89 254.269 160.05 254.269 160.24Z" fill="#263238"/>
<path d="M254.269 183.23C254.269 183.42 244.039 183.58 231.429 183.58C218.819 183.58 208.579 183.42 208.579 183.23C208.579 183.04 218.809 182.87 231.429 182.87C244.049 182.87 254.269 183.03 254.269 183.23Z" fill="#263238"/>
<path d="M254.269 206.05C254.269 206.24 244.039 206.4 231.429 206.4C218.819 206.4 208.579 206.24 208.579 206.05C208.579 205.86 218.809 205.69 231.429 205.69C244.049 205.69 254.269 205.85 254.269 206.05Z" fill="#263238"/>
<path d="M254.269 228.54C254.269 228.73 244.039 228.89 231.429 228.89C218.819 228.89 208.579 228.73 208.579 228.54C208.579 228.35 218.809 228.18 231.429 228.18C244.049 228.18 254.269 228.34 254.269 228.54Z" fill="#263238"/>
<path d="M254.269 250.42C254.269 250.61 244.039 250.77 231.429 250.77C218.819 250.77 208.579 250.61 208.579 250.42C208.579 250.23 218.809 250.06 231.429 250.06C244.049 250.06 254.269 250.22 254.269 250.42Z" fill="#263238"/>
<path d="M254.269 274.67C254.269 274.86 244.039 275.02 231.429 275.02C218.819 275.02 208.579 274.86 208.579 274.67C208.579 274.48 218.809 274.31 231.429 274.31C244.049 274.31 254.269 274.47 254.269 274.67Z" fill="#263238"/>
<path d="M282.389 137.53C282.389 137.73 276.299 137.89 268.789 137.89C261.279 137.89 255.189 137.73 255.189 137.53C255.189 137.33 261.269 137.18 268.789 137.18C276.309 137.18 282.389 137.34 282.389 137.53Z" fill="#455A64"/>
<path d="M282.389 160.24C282.389 160.44 276.299 160.6 268.789 160.6C261.279 160.6 255.189 160.44 255.189 160.24C255.189 160.04 261.269 159.89 268.789 159.89C276.309 159.89 282.389 160.05 282.389 160.24Z" fill="#455A64"/>
<path d="M282.389 182.92C282.389 183.12 276.299 183.28 268.789 183.28C261.279 183.28 255.189 183.15 255.189 182.92C255.189 182.69 261.269 182.57 268.789 182.57C276.309 182.57 282.389 182.76 282.389 182.92Z" fill="#455A64"/>
<path d="M282.089 206.05C282.089 206.24 275.999 206.4 268.489 206.4C260.979 206.4 254.889 206.24 254.889 206.05C254.889 205.86 260.979 205.69 268.489 205.69C275.999 205.69 282.089 205.85 282.089 206.05Z" fill="#455A64"/>
<path d="M282.089 228.54C282.089 228.73 275.999 228.89 268.489 228.89C260.979 228.89 254.889 228.73 254.889 228.54C254.889 228.35 260.979 228.18 268.489 228.18C275.999 228.18 282.089 228.34 282.089 228.54Z" fill="#455A64"/>
<path d="M282.089 251.03C282.089 251.22 275.999 251.38 268.489 251.38C260.979 251.38 254.889 251.22 254.889 251.03C254.889 250.84 260.979 250.67 268.489 250.67C275.999 250.67 282.089 250.83 282.089 251.03Z" fill="#455A64"/>
<path d="M282.089 274.67C282.089 274.86 275.999 275.02 268.489 275.02C260.979 275.02 254.889 274.86 254.889 274.67C254.889 274.48 260.979 274.31 268.489 274.31C275.999 274.31 282.089 274.47 282.089 274.67Z" fill="#455A64"/>
<path d="M296.39 234.33H266.5V302.92H296.39V234.33Z" fill="#78B7FA"/>
<path opacity="0.2" d="M296.39 234.33H266.5V302.92H296.39V234.33Z" fill="black"/>
<path d="M259.51 234.05H333.26L347.04 214.49L361.48 234.61L378.46 234.34L360.16 209.69L277.93 210.04L259.51 234.05Z" fill="#78B7FA"/>
<path opacity="0.2" d="M259.51 234.05H333.26L347.04 214.49L361.48 234.61L378.46 234.34L360.16 209.69L277.93 210.04L259.51 234.05Z" fill="white"/>
<path d="M296.39 234.34V302.92H370.04V234.34H361.59L347.04 214.49L333.21 234.03L296.39 234.34Z" fill="#78B7FA"/>
<g opacity="0.2">
<path opacity="0.2" d="M306.799 302.92V273.19H324.02V302.92" fill="black"/>
</g>
<path opacity="0.7" d="M361.49 272.35H334.35V289.16H361.49V272.35Z" fill="white"/>
<path opacity="0.7" d="M361.49 238.71H334.35V255.52H361.49V238.71Z" fill="white"/>
<path opacity="0.7" d="M322.22 238.86H305.11V255.06H322.22V238.86Z" fill="white"/>
<path d="M342.31 272.35H342.06V289.32H342.31V272.35Z" fill="#78B7FA"/>
<path d="M353.59 272.35H353.34V289.32H353.59V272.35Z" fill="#78B7FA"/>
<path d="M353.46 281.22H342.18V281.47H353.46V281.22Z" fill="#78B7FA"/>
<path d="M342.31 238.71H342.06V255.68H342.31V238.71Z" fill="#78B7FA"/>
<path d="M353.59 238.71H353.34V255.68H353.59V238.71Z" fill="#78B7FA"/>
<path d="M353.46 247.58H342.18V247.83H353.46V247.58Z" fill="#78B7FA"/>
<path d="M313.79 238.86H313.54V255.06H313.79V238.86Z" fill="#78B7FA"/>
<path d="M322.22 247.23H305.11V247.48H322.22V247.23Z" fill="#78B7FA"/>
<path opacity="0.7" d="M350.63 227.58C350.63 228.298 350.417 229 350.018 229.597C349.619 230.194 349.052 230.659 348.389 230.934C347.725 231.209 346.995 231.281 346.291 231.14C345.587 231 344.94 230.655 344.433 230.147C343.925 229.639 343.579 228.993 343.439 228.288C343.299 227.584 343.371 226.854 343.646 226.191C343.921 225.528 344.386 224.961 344.983 224.562C345.58 224.163 346.282 223.95 346.999 223.95C347.961 223.953 348.883 224.336 349.563 225.016C350.244 225.697 350.627 226.618 350.63 227.58Z" fill="white"/>
<path d="M321.11 223.13L325.69 217.48V203.89H316.1V223.23L321.11 223.13Z" fill="#78B7FA"/>
<path opacity="0.2" d="M321.11 223.13V203.89H325.69V217.48L321.11 223.13Z" fill="black"/>
<path d="M326.34 201.89H315.03V203.89H326.34V201.89Z" fill="#78B7FA"/>
<path d="M297.24 264.34H240.77V302.93H297.24V264.34Z" fill="#78B7FA"/>
<path opacity="0.2" d="M275.59 264.34H240.77V302.93H275.59V264.34Z" fill="black"/>
<path d="M268.26 302.86C268.222 302.696 268.205 302.528 268.21 302.36C268.21 301.97 268.21 301.49 268.21 300.91C268.21 299.57 268.21 297.75 268.13 295.48C268.13 290.78 268.07 284.29 268.03 276.78L268.31 277.06H247.64L247.91 276.78C247.91 284.29 247.84 290.78 247.81 295.48C247.81 297.75 247.75 299.57 247.73 300.91C247.73 301.49 247.73 301.97 247.68 302.36C247.697 302.526 247.697 302.694 247.68 302.86C247.635 302.697 247.618 302.528 247.63 302.36C247.63 301.97 247.63 301.49 247.63 300.91C247.63 299.57 247.629 297.75 247.549 295.48C247.549 290.79 247.49 284.29 247.45 276.78V276.5H268.63V276.78C268.58 284.29 268.55 290.78 268.52 295.48C268.52 297.75 268.46 299.57 268.44 300.91C268.44 301.49 268.44 301.97 268.44 302.36C268.396 302.532 268.335 302.699 268.26 302.86Z" fill="#263238"/>
<path opacity="0.2" d="M294.62 275.79H279.95V279.53H294.62V275.79Z" fill="black"/>
<path d="M259.51 234.05V236.04H333.21V234.03L259.51 234.05Z" fill="#78B7FA"/>
<path d="M333.21 236.04L347 216.69L347.04 214.49L333.26 234.05L333.21 236.04Z" fill="#78B7FA"/>
<path d="M378.1 234.33H361.59V235.61H378.1V234.33Z" fill="#78B7FA"/>
<path d="M318.15 268.63H312.06V270.95H318.15V268.63Z" fill="#263238"/>
<path opacity="0.3" d="M259.51 234.05V236.04H333.21V234.03L259.51 234.05Z" fill="black"/>
<path opacity="0.3" d="M333.21 236.04L347 216.69L347.04 214.49L333.26 234.05L333.21 236.04Z" fill="black"/>
<path opacity="0.3" d="M378.1 234.33H361.59V235.61H378.1V234.33Z" fill="black"/>
<path d="M322.63 288.19C322.58 288.19 322.63 287.81 322.18 287.52C322.065 287.443 321.933 287.394 321.796 287.378C321.658 287.363 321.519 287.381 321.39 287.43C321.238 287.492 321.109 287.597 321.017 287.732C320.926 287.867 320.877 288.027 320.877 288.19C320.877 288.353 320.926 288.513 321.017 288.648C321.109 288.784 321.238 288.889 321.39 288.95C321.519 289 321.658 289.018 321.796 289.002C321.933 288.986 322.065 288.938 322.18 288.86C322.59 288.57 322.58 288.18 322.63 288.19C322.68 288.2 322.8 288.62 322.33 289.06C322.185 289.178 322.013 289.258 321.829 289.291C321.645 289.324 321.456 289.31 321.28 289.25C321.058 289.175 320.866 289.032 320.73 288.842C320.594 288.652 320.521 288.424 320.521 288.19C320.521 287.956 320.594 287.729 320.73 287.539C320.866 287.348 321.058 287.206 321.28 287.13C321.456 287.07 321.645 287.056 321.829 287.089C322.013 287.123 322.185 287.202 322.33 287.32C322.8 287.77 322.66 288.22 322.63 288.19Z" fill="#263238"/>
<path d="M182.439 189.26C182.439 189.26 166.929 248.26 146.079 259.34C132.339 266.64 120.209 257.93 112.079 244.13L82.6791 196.81C81.9297 194.113 82.2365 191.232 83.5371 188.754C84.8377 186.275 87.0341 184.386 89.6791 183.47L114.189 174.92L138.609 218.45L169.859 180.45" fill="#EB996E"/>
<path d="M29.8291 193.37C30.3691 197.21 40.0391 225.44 40.0391 225.44C40.0391 225.44 83.9191 213.03 83.4591 210.85C83.0791 209.08 76.2191 180.96 67.0591 165.11C65.3419 162.055 62.9338 159.443 60.0271 157.484C57.1204 155.526 53.7959 154.274 50.3191 153.83C48.3791 153.61 44.0691 155.41 42.8791 156C33.5391 160.67 25.6491 163.71 29.8291 193.37Z" fill="#455A64"/>
<path d="M98.6291 151.92C115.479 156.61 116.239 164.27 124.679 177.78L137.969 201.98L115.829 216.09L111.769 225.19L109.579 303.45L20.3691 303.01L36.3691 239.66L29.9891 198.06C29.3991 191.5 27.5091 179.24 29.5291 172.91C35.8591 153.13 59.4691 151.02 73.9891 148.02C76.9891 147.4 79.8791 148.35 82.3191 149.09" fill="#455A64"/>
<path d="M111.549 229.21C111.48 228.546 111.46 227.877 111.489 227.21C111.489 225.81 111.489 223.95 111.559 221.71V221.66C112.675 219.679 113.647 217.62 114.469 215.5C115.495 212.984 115.752 210.222 115.209 207.56C114.489 204.56 112.829 202.04 111.719 199.56C110.711 197.338 110.037 194.979 109.719 192.56C109.51 190.945 109.466 189.313 109.589 187.69C109.589 187.11 109.699 186.69 109.749 186.37C109.759 186.215 109.796 186.062 109.859 185.92C109.894 186.513 109.894 187.107 109.859 187.7C109.818 189.306 109.922 190.912 110.169 192.5C110.533 194.853 111.23 197.143 112.239 199.3C113.339 201.74 115.039 204.3 115.799 207.4C116.372 210.17 116.096 213.048 115.009 215.66C114.168 217.793 113.165 219.859 112.009 221.84V221.74C111.899 223.98 111.819 225.84 111.749 227.24C111.741 227.901 111.674 228.561 111.549 229.21Z" fill="#263238"/>
<path d="M99.3291 149.17C99.4056 149.362 99.456 149.564 99.4791 149.77C99.5871 150.354 99.6539 150.946 99.6791 151.54C99.7591 153.741 99.3917 155.935 98.5991 157.99C97.4244 161.06 95.3985 163.731 92.7591 165.69C89.4517 168.046 85.3978 169.113 81.3591 168.69C79.2836 168.478 77.2567 167.927 75.3591 167.06C73.605 166.235 71.9945 165.135 70.5891 163.8C68.2387 161.524 66.4484 158.735 65.3591 155.65C64.6215 153.585 64.2001 151.421 64.1091 149.23C64.0714 148.637 64.0714 148.043 64.1091 147.45C64.1025 147.245 64.1227 147.04 64.1691 146.84C64.2391 146.84 64.1691 147.69 64.3091 149.22C64.4871 151.371 64.9616 153.488 65.7191 155.51C66.8315 158.508 68.6174 161.211 70.9391 163.41C72.3062 164.697 73.8733 165.754 75.5791 166.54C77.4139 167.376 79.3731 167.906 81.3791 168.11C85.2649 168.533 89.1722 167.534 92.3791 165.3C94.5353 163.72 96.2914 161.657 97.507 159.276C98.7225 156.895 99.3637 154.263 99.3791 151.59C99.4491 150.02 99.2591 149.18 99.3291 149.17Z" fill="#263238"/>
<path d="M133.929 194.67C133.098 195.292 132.215 195.84 131.289 196.31C129.639 197.31 127.339 198.59 124.839 200.1C122.339 201.61 120.109 203.02 118.489 204.04C117.645 204.643 116.748 205.168 115.809 205.61C116.566 204.895 117.39 204.256 118.269 203.7C119.829 202.59 122.039 201.12 124.549 199.6C127.059 198.08 129.389 196.82 131.099 195.95C131.996 195.427 132.944 194.998 133.929 194.67Z" fill="#263238"/>
<path d="M32.5691 195.71C32.5691 195.71 32.6291 195.89 32.7391 196.24L33.1591 197.8L34.7291 203.8C36.0591 209 37.9591 216.42 40.2691 225.41L39.9791 225.25L81.2391 212.36L82.2391 211.99L82.0491 212.32C80.064 203.079 77.3488 194.011 73.9291 185.2C70.7291 177.12 67.0591 170.11 62.9291 165.06C61.0884 162.762 58.8823 160.782 56.3991 159.2C54.5347 157.992 52.4095 157.244 50.1991 157.02C49.7759 156.951 49.348 156.914 48.9191 156.91L47.7791 156.97C47.4291 156.97 47.1091 156.97 46.7791 157.04L45.9991 157.21L44.9191 157.43C44.7971 157.457 44.6735 157.477 44.5491 157.49C44.6609 157.437 44.7783 157.397 44.8991 157.37L45.9691 157.1L46.7591 156.9C47.0591 156.84 47.3891 156.84 47.7591 156.8L48.9091 156.72C49.3435 156.715 49.7778 156.738 50.2091 156.79C52.462 156.985 54.6357 157.715 56.5491 158.92C59.0705 160.49 61.3142 162.467 63.1891 164.77C67.4591 169.84 71.1891 176.87 74.4191 184.97C77.8753 193.803 80.6174 202.899 82.6191 212.17V212.42L82.3791 212.5L81.3791 212.87C65.9091 217.78 51.5791 222.11 40.0491 225.66L39.8191 225.73L39.7591 225.5C37.5291 216.5 35.6991 209.05 34.4091 203.84C33.7891 201.27 33.3091 199.25 32.9691 197.84L32.6091 196.27C32.5723 196.086 32.5588 195.898 32.5691 195.71Z" fill="#263238"/>
<path d="M80.8191 206.7C80.8191 206.86 71.3391 209.61 59.5491 212.86C47.7591 216.11 38.1891 218.61 38.1891 218.46C38.1891 218.31 47.6591 215.55 59.4491 212.3C71.2391 209.05 80.7691 206.55 80.8191 206.7Z" fill="#263238"/>
<path d="M77.1891 78.6901C74.4591 72.7701 66.9491 69.9801 60.6191 71.5501C54.2891 73.1201 49.2891 78.2901 46.6191 84.2201C43.9491 90.1501 43.2391 96.8201 43.1891 103.34C43.1891 106.79 43.3391 110.28 42.6391 113.66C41.9391 117.04 40.2791 120.38 37.3791 122.26C35.0991 123.74 32.2991 124.18 29.8491 125.36C27.3991 126.54 25.1491 129.05 25.7591 131.71C26.4791 134.88 30.4591 135.83 33.6891 136.16C33.7434 138.117 34.3497 140.018 35.438 141.644C36.5264 143.271 38.0525 144.557 39.8402 145.354C41.6279 146.15 43.6044 146.425 45.5417 146.147C47.479 145.868 49.2981 145.048 50.7891 143.78C49.7891 147.78 53.3191 151.9 57.3791 152.38C61.4391 152.86 65.3791 150.32 67.6391 146.88C69.8991 143.44 70.5391 139.24 70.7091 135.15C70.8791 131.06 70.5891 126.92 70.9891 122.92" fill="#78B7FA"/>
<path d="M123.259 86.1398C123.259 86.1398 126.259 66.0398 98.5991 65.6698C67.6591 65.2598 62.0791 91.6698 67.3791 105.58L82.7591 90.3398L123.259 86.1398Z" fill="#78B7FA"/>
<path d="M98.9891 151.92C99.2991 146.57 99.5291 142.21 99.5291 142.21C99.5291 142.21 115.369 142.58 117.699 128.85C120.029 115.12 122.699 83.1398 122.699 83.1398C115.78 78.6655 107.687 76.3488 99.4486 76.4841C91.21 76.6194 83.1975 79.2007 76.4291 83.8998L75.1291 84.7998L65.1291 148.29C64.4159 152.741 65.4947 157.294 68.1296 160.952C70.7645 164.61 74.741 167.076 79.1891 167.81C81.5524 168.2 83.9713 168.087 86.2882 167.48C88.6052 166.873 90.7681 165.784 92.6362 164.285C94.5042 162.786 96.0354 160.91 97.1301 158.779C98.2247 156.649 98.8581 154.311 98.9891 151.92Z" fill="#FFBE9D"/>
<path d="M117.049 107.51C116.996 107.846 116.846 108.16 116.616 108.412C116.387 108.663 116.088 108.842 115.758 108.926C115.428 109.01 115.081 108.995 114.759 108.883C114.437 108.771 114.155 108.567 113.948 108.297C113.741 108.026 113.618 107.701 113.595 107.361C113.571 107.021 113.647 106.682 113.814 106.385C113.982 106.088 114.232 105.847 114.535 105.692C114.838 105.536 115.181 105.473 115.519 105.51C115.752 105.538 115.977 105.613 116.181 105.729C116.384 105.845 116.563 106.001 116.705 106.188C116.848 106.374 116.952 106.587 117.011 106.814C117.07 107.041 117.083 107.278 117.049 107.51Z" fill="#263238"/>
<path d="M118.329 105.86C118.079 106.07 116.929 104.86 115.079 104.51C113.229 104.16 111.739 104.97 111.579 104.7C111.419 104.43 111.769 104.18 112.429 103.81C113.301 103.352 114.3 103.198 115.269 103.37C116.243 103.535 117.136 104.017 117.809 104.74C118.319 105.31 118.449 105.77 118.329 105.86Z" fill="#263238"/>
<path d="M98.4791 105.73C98.4719 105.969 98.4152 106.205 98.3127 106.422C98.2101 106.638 98.0639 106.832 97.8832 106.989C97.7025 107.147 97.4911 107.265 97.2625 107.337C97.0338 107.409 96.7927 107.433 96.5544 107.407C96.316 107.382 96.0855 107.307 95.8773 107.188C95.6691 107.07 95.4877 106.909 95.3445 106.717C95.2013 106.525 95.0994 106.305 95.0451 106.071C94.9908 105.838 94.9854 105.596 95.0291 105.36C95.0364 105.12 95.093 104.885 95.1956 104.668C95.2982 104.451 95.4444 104.258 95.6251 104.101C95.8058 103.943 96.0171 103.825 96.2458 103.753C96.4745 103.681 96.7155 103.657 96.9539 103.682C97.1923 103.708 97.4228 103.782 97.631 103.901C97.8391 104.02 98.0205 104.181 98.1637 104.373C98.307 104.565 98.4089 104.785 98.4632 105.018C98.5174 105.252 98.5229 105.494 98.4791 105.73Z" fill="#263238"/>
<path d="M99.3991 104.17C99.1591 104.38 97.9991 103.12 96.1591 102.82C94.3191 102.52 92.8191 103.28 92.6491 103C92.5691 102.88 92.8491 102.48 93.5091 102.12C94.3806 101.662 95.3799 101.507 96.3491 101.68C97.3237 101.844 98.2168 102.325 98.8891 103.05C99.3891 103.61 99.5191 104.08 99.3991 104.17Z" fill="#263238"/>
<path d="M101.789 118.47C102.818 118.407 103.85 118.481 104.859 118.69C105.339 118.76 105.799 118.78 105.959 118.46C106.101 117.953 106.101 117.417 105.959 116.91C105.809 115.59 105.659 114.21 105.499 112.76C104.909 106.86 104.609 102.07 104.829 102.04C105.049 102.01 105.709 106.77 106.309 112.67C106.439 114.12 106.569 115.5 106.689 116.82C106.833 117.494 106.753 118.197 106.459 118.82C106.355 118.973 106.216 119.099 106.055 119.189C105.894 119.279 105.714 119.331 105.529 119.34C105.256 119.345 104.984 119.315 104.719 119.25C103.711 119.125 102.726 118.863 101.789 118.47Z" fill="#263238"/>
<path d="M99.5791 142.21C93.1843 141.227 87.2144 138.402 82.3991 134.08C82.3991 134.08 85.7591 145 99.3291 145.9L99.5791 142.21Z" fill="#EB996E"/>
<path d="M99.9791 123.92C99.9394 123.322 99.7536 122.743 99.438 122.234C99.1225 121.725 98.6867 121.301 98.1691 121C97.8112 120.787 97.4116 120.653 96.9975 120.608C96.5833 120.563 96.1644 120.608 95.7691 120.74C95.379 120.885 95.0411 121.143 94.7988 121.482C94.5565 121.82 94.4208 122.224 94.4091 122.64C94.4669 123.101 94.6574 123.536 94.9574 123.891C95.2574 124.246 95.654 124.506 96.0991 124.64C97.0042 124.888 97.9516 124.943 98.8791 124.8C99.1378 124.792 99.3925 124.734 99.6291 124.63C99.7447 124.573 99.8417 124.485 99.909 124.375C99.9762 124.265 100.011 124.138 100.009 124.01" fill="#EB996E"/>
<path d="M95.9391 118.92C95.8091 118.92 95.5091 119.38 95.4591 120.29C95.4231 121.498 95.8256 122.677 96.5922 123.611C97.3588 124.545 98.4376 125.17 99.6291 125.37C100.539 125.5 101.079 125.3 101.069 125.16C101.069 124.85 98.9291 124.74 97.4391 122.92C95.9491 121.1 96.2391 118.97 95.9391 118.92Z" fill="#263238"/>
<path d="M73.1891 102.71C72.9791 102.56 65.3091 99.2501 63.1191 108.28C60.9291 117.31 71.4091 116.39 71.4891 116.13C71.5691 115.87 73.1891 102.71 73.1891 102.71Z" fill="#FFBE9D"/>
<path d="M69.3391 112.34C69.3391 112.34 69.1491 112.41 68.8291 112.47C68.3939 112.544 67.9464 112.459 67.5691 112.23C66.6291 111.66 66.1391 109.97 66.4891 108.33C66.6475 107.544 66.9902 106.807 67.4891 106.18C67.6562 105.911 67.8847 105.685 68.1559 105.522C68.4271 105.358 68.7333 105.262 69.0491 105.24C69.248 105.23 69.4443 105.288 69.606 105.404C69.7676 105.52 69.8851 105.688 69.9391 105.88C70.0091 106.16 69.9391 106.33 69.9391 106.36C69.9391 106.39 70.1791 106.25 70.1991 105.86C70.194 105.624 70.1055 105.397 69.9491 105.22C69.7243 104.971 69.4132 104.817 69.0791 104.79C68.6741 104.773 68.2712 104.855 67.9052 105.029C67.5392 105.204 67.2213 105.465 66.9791 105.79C66.3854 106.473 65.9728 107.295 65.7791 108.18C65.3991 110.02 65.9791 111.93 67.2891 112.6C67.5352 112.724 67.8044 112.797 68.0797 112.812C68.3551 112.827 68.6306 112.786 68.8891 112.69C69.2691 112.55 69.3691 112.36 69.3391 112.34Z" fill="#EB996E"/>
<path d="M119.559 76.8099C121.149 77.9603 122.343 79.5752 122.977 81.4324C123.611 83.2895 123.654 85.2975 123.099 87.1799C121.739 91.4999 117.709 96.1799 106.509 96.0299L109.059 93.1999C106.539 95.1223 103.594 96.4111 100.472 96.9575C97.35 97.504 94.1423 97.2921 91.1191 96.3399L94.2591 90.2599C94.2591 90.2599 80.0991 105.27 72.1891 105.92L73.1891 89.9199C75.0991 74.8199 81.5691 70.2899 91.3591 69.4799C94.9953 69.1494 98.6566 69.2131 102.279 69.6699C108.55 70.5519 114.495 73.0083 119.559 76.8099Z" fill="#78B7FA"/>
<path d="M64.1891 63.73C64.9346 63.9111 65.6421 64.2226 66.2791 64.65C69.4951 66.5287 72.0492 69.3587 73.5891 72.75C73.9472 73.427 74.1841 74.1614 74.2891 74.92C74.1191 75 72.9991 71.65 70.1291 68.52C67.2591 65.39 64.0891 63.92 64.1891 63.73Z" fill="#78B7FA"/>
<path d="M35.6791 114.92C35.6791 114.92 35.4891 114.72 35.0591 114.45C34.4211 114.065 33.6836 113.877 32.9391 113.91C32.3627 113.925 31.7961 114.063 31.2783 114.317C30.7605 114.571 30.3037 114.933 29.9391 115.38C29.4983 116.006 29.2223 116.732 29.1366 117.492C29.051 118.253 29.1585 119.022 29.4491 119.73C29.8039 120.581 30.3758 121.323 31.1077 121.883C31.8395 122.443 32.7056 122.8 33.6191 122.92C34.677 123.081 35.7572 123.008 36.7836 122.705C37.81 122.403 38.7575 121.879 39.5591 121.17C41.3984 119.629 42.6692 117.517 43.1691 115.17C43.4342 113.944 43.4342 112.676 43.1691 111.45C42.8673 110.179 42.4175 108.947 41.8291 107.78C41.2691 106.57 40.6691 105.38 40.1991 104.13C39.7392 102.901 39.44 101.617 39.3091 100.31C39.0962 97.8379 39.3854 95.348 40.1591 92.9902C41.4995 89.0238 43.8297 85.4649 46.9291 82.6502C48.9667 80.7438 51.1761 79.0299 53.5291 77.5302C54.3591 77.0002 55.0191 76.6002 55.4691 76.3402C55.6919 76.1979 55.9261 76.0741 56.1691 75.9702C55.973 76.149 55.7585 76.3066 55.5291 76.4402L53.6591 77.7202C51.3613 79.2701 49.1971 81.0095 47.1891 82.9202C44.1962 85.7305 41.9459 89.2382 40.6391 93.1302C39.9081 95.4212 39.6395 97.8346 39.8491 100.23C39.9894 101.487 40.2781 102.722 40.7091 103.91C41.1691 105.12 41.7691 106.29 42.3391 107.52C42.9429 108.725 43.4027 109.998 43.7091 111.31C43.9892 112.612 43.9892 113.958 43.7091 115.26C43.1688 117.725 41.8166 119.936 39.8691 121.54C39.0086 122.29 37.9935 122.84 36.896 123.153C35.7985 123.466 34.6456 123.533 33.5191 123.35C32.5246 123.209 31.5854 122.806 30.7981 122.182C30.0108 121.558 29.4037 120.736 29.0391 119.8C28.7377 119.03 28.6356 118.197 28.7422 117.377C28.8489 116.557 29.1608 115.777 29.6491 115.11C30.0491 114.634 30.5502 114.254 31.1159 113.996C31.6815 113.738 32.2976 113.61 32.9191 113.62C33.6971 113.606 34.46 113.836 35.0991 114.28C35.3334 114.453 35.5306 114.67 35.6791 114.92Z" fill="#78B7FA"/>
<path d="M71.9091 84.7402C71.5937 84.1989 71.4024 83.5944 71.3491 82.9702C71.114 81.4833 71.1717 79.9649 71.5191 78.5002C71.8574 77.0321 72.4827 75.6455 73.3591 74.4202C74.0391 73.4902 74.5991 73.0402 74.6391 73.0902C74.6791 73.1402 72.8291 75.3002 72.0791 78.6302C71.3291 81.9602 72.0891 84.7102 71.9091 84.7402Z" fill="#263238"/>
<path d="M63.6491 113.92C63.1184 114.382 62.7068 114.965 62.4491 115.62C62.3396 115.965 62.2991 116.328 62.33 116.688C62.3609 117.048 62.4625 117.399 62.6291 117.72C62.8631 118.095 63.1807 118.412 63.5571 118.644C63.9336 118.877 64.3586 119.019 64.7991 119.06C65.2369 119.129 65.6846 119.1 66.1099 118.976C66.5353 118.851 66.9277 118.634 67.2591 118.34C67.7769 117.823 68.0683 117.122 68.0691 116.39C68.0377 115.678 67.8168 114.988 67.4291 114.39C67.4291 114.39 67.6491 114.47 67.8991 114.78C68.2478 115.228 68.4503 115.773 68.4791 116.34C68.5078 116.768 68.448 117.198 68.3035 117.602C68.159 118.007 67.9328 118.377 67.6391 118.69C67.2539 119.054 66.7905 119.325 66.2845 119.483C65.7784 119.641 65.243 119.681 64.7191 119.6C64.2025 119.551 63.7045 119.382 63.2651 119.106C62.8258 118.83 62.4572 118.454 62.1891 118.01C62.0007 117.623 61.8953 117.2 61.8798 116.769C61.8643 116.339 61.939 115.91 62.0991 115.51C62.2961 114.982 62.6438 114.523 63.0991 114.19C63.4191 113.97 63.6391 113.92 63.6491 113.92Z" fill="#455A64"/>
<path d="M125.559 90.7399C125.449 90.7399 125.889 89.1999 125.899 86.7399C125.932 83.4767 125.07 80.2669 123.408 77.4587C121.745 74.6504 119.346 72.351 116.469 70.8099C114.279 69.6199 112.729 69.2799 112.759 69.1699C113.131 69.1763 113.499 69.2439 113.849 69.3699C114.819 69.6371 115.76 69.9988 116.659 70.4499C119.672 71.9423 122.187 74.2766 123.9 77.1697C125.613 80.0629 126.45 83.3907 126.309 86.7499C126.271 87.7603 126.137 88.7648 125.909 89.7499C125.839 90.0945 125.721 90.4277 125.559 90.7399Z" fill="#78B7FA"/>
<path d="M100.289 100.65C100.229 100.72 99.8491 100.36 99.1591 99.9401C98.2723 99.3937 97.2748 99.052 96.2391 98.9401C95.1995 98.8356 94.1497 98.969 93.1691 99.3301C92.3991 99.6001 91.9591 99.8701 91.9091 99.7901C91.8591 99.7101 92.2391 99.3401 93.0091 98.9501C94.0278 98.4458 95.1687 98.2412 96.2991 98.3601C97.4278 98.4836 98.5005 98.9161 99.3991 99.6101C100.069 100.15 100.349 100.61 100.289 100.65Z" fill="#78B7FA"/>
<path d="M117.929 102.34C116.744 102.532 115.535 102.532 114.349 102.34C113.151 102.345 111.959 102.159 110.819 101.79C112.002 101.6 113.207 101.6 114.389 101.79C115.591 101.783 116.786 101.969 117.929 102.34Z" fill="#78B7FA"/>
<path d="M182.439 189.26C182.439 189.26 188.109 175.79 180.439 177.26C168.689 179.5 170.439 190.93 170.439 190.93L182.439 189.26Z" fill="#EB996E"/>
<path d="M193.359 128.84C192.371 128.489 191.336 128.291 190.289 128.25C196.669 132.99 198.399 145.19 193.929 157.51C189.569 169.51 180.749 177.7 172.929 177.64L172.309 177.48C166.099 172.63 164.459 160.58 168.869 148.4C173.279 136.22 182.369 127.9 190.279 128.25C189.476 127.647 188.59 127.162 187.649 126.81C179.189 123.73 168.189 132.49 163.189 146.37C158.299 159.85 160.839 173.17 168.779 176.74H168.619L152.979 216.74C152.645 217.59 152.662 218.538 153.027 219.375C153.392 220.213 154.074 220.871 154.924 221.205C155.774 221.539 156.722 221.522 157.559 221.157C158.397 220.792 159.055 220.11 159.389 219.26L175.189 179.1C183.679 182.17 194.639 173.42 199.669 159.54C204.699 145.66 201.849 131.92 193.359 128.84Z" fill="#263238"/>
<path d="M186.299 165.02C186.411 164.596 186.572 164.186 186.779 163.8L188.239 160.57C189.899 157.045 191.192 153.359 192.099 149.57C192.968 145.793 192.968 141.867 192.099 138.09C191.66 136.544 191.105 135.033 190.439 133.57C190.731 133.9 190.974 134.27 191.159 134.67C191.724 135.72 192.17 136.831 192.489 137.98C193.496 141.811 193.555 145.831 192.659 149.69C191.748 153.504 190.389 157.196 188.609 160.69C187.939 162.03 187.379 163.11 186.979 163.84C186.806 164.262 186.577 164.659 186.299 165.02Z" fill="#263238"/>
<path d="M184.659 168.22C184.769 168.34 184.289 169.01 183.569 169.72C182.849 170.43 182.189 170.91 182.079 170.8C181.969 170.69 182.449 170.02 183.169 169.31C183.889 168.6 184.549 168.11 184.659 168.22Z" fill="#263238"/>
<path d="M167.599 183.24C166.389 180.95 164.979 177.79 162.849 176.31C160.719 174.83 157.759 173.12 155.259 175.31C158.403 179.799 161.317 184.445 163.989 189.23L167.599 183.24Z" fill="#EB996E"/>
<path d="M184.259 179.19C184.259 179.19 183.789 176.53 179.889 177.7C175.989 178.87 163.769 181.42 166.129 184.02C168.489 186.62 172.659 185.45 172.659 185.45C172.659 185.45 165.869 186.92 166.519 188.34C167.169 189.76 168.299 192.22 171.189 190.68C174.079 189.14 182.099 186.53 182.099 186.53L184.259 179.19Z" fill="#EB996E"/>
<path d="M183.819 185.13C183.819 185.13 183.819 184.87 183.819 184.46C183.81 184.185 183.716 183.918 183.552 183.697C183.388 183.475 183.16 183.309 182.899 183.22C182.031 183.122 181.151 183.253 180.349 183.6L177.099 184.47C174.789 185.08 172.689 185.59 171.159 185.93C170.345 186.172 169.506 186.322 168.659 186.38C169.425 186.01 170.23 185.728 171.059 185.54C172.559 185.09 174.639 184.54 176.949 183.92L180.209 183.09C181.107 182.732 182.091 182.641 183.039 182.83C183.358 182.962 183.627 183.192 183.806 183.487C183.986 183.782 184.068 184.126 184.039 184.47C184.009 184.92 183.839 185.14 183.819 185.13Z" fill="#263238"/>
<path d="M79.5391 213.44L91.3391 235.32L149.919 205.82C149.919 205.82 158.539 189.26 159.969 189.47C161.399 189.68 167.739 192.41 167.739 192.41C167.739 192.41 176.739 187.55 178.679 188.87C180.619 190.19 183.239 206.19 181.539 211.14C179.839 216.09 162.049 226.06 162.049 226.06C162.049 226.06 114.049 257.58 93.1791 268.65C79.4391 275.95 67.3191 267.24 59.1791 253.44L45.2991 224.07" fill="#FFBE9D"/>
</svg>
