<svg width="37" height="35" viewBox="0 0 37 35" fill="none" xmlns="http://www.w3.org/2000/svg">
<rect x="1" y="0.84375" width="35" height="31" fill="#E5E8EB"/>
<path d="M22.8359 24.5703C22.437 24.5703 22.1133 24.8941 22.1133 25.293C22.1133 25.6919 22.437 26.0156 22.8359 26.0156C23.2348 26.0156 23.5586 25.6919 23.5586 25.293C23.5586 24.8941 23.2348 24.5703 22.8359 24.5703Z" fill="#788796"/>
<path d="M34.832 0H2.16797C0.972551 0 0 0.972551 0 2.16797V29.6289C0 30.8243 0.972551 31.7969 2.16797 31.7969H4.55273V33.9648C4.55273 34.3639 4.87634 34.6875 5.27539 34.6875H11.2734C11.6725 34.6875 11.9961 34.3639 11.9961 33.9648V31.7969H25.0039V33.9648C25.0039 34.3639 25.3275 34.6875 25.7266 34.6875H31.7246C32.1237 34.6875 32.4473 34.3639 32.4473 33.9648V31.7969H34.832C36.0275 31.7969 37 30.8243 37 29.6289V2.16797C37 0.972551 36.0275 0 34.832 0ZM10.5508 33.2422H5.99805V31.7969H10.5508V33.2422ZM31.002 33.2422H26.4492V31.7969H31.002V33.2422ZM35.5547 29.6289C35.5547 30.0274 35.2305 30.3516 34.832 30.3516H2.16797C1.7695 30.3516 1.44531 30.0274 1.44531 29.6289V2.16797C1.44531 1.7695 1.7695 1.44531 2.16797 1.44531H34.832C35.2305 1.44531 35.5547 1.7695 35.5547 2.16797V29.6289Z" fill="#788796"/>
<path d="M31.7266 2.89062H5.27734C4.87829 2.89062 4.55469 3.21416 4.55469 3.61328V7.35086C3.71359 7.64917 3.10938 8.4524 3.10938 9.39453V12.2852C3.10938 13.2272 3.71359 14.0305 4.55469 14.3288V17.468C3.71359 17.7664 3.10938 18.5696 3.10938 19.5117V22.4023C3.10938 23.3444 3.71359 24.1477 4.55469 24.446V28.1836C4.55469 28.5827 4.87829 28.9062 5.27734 28.9062H31.7266C32.1256 28.9062 32.4492 28.5827 32.4492 28.1836V3.61328C32.4492 3.21416 32.1256 2.89062 31.7266 2.89062ZM4.55469 9.39453C4.55469 8.99606 4.87887 8.67188 5.27734 8.67188C5.67625 8.67188 6 8.99548 6 9.39453V12.2852C6 12.6836 5.67582 13.0078 5.27734 13.0078C4.87887 13.0078 4.55469 12.6836 4.55469 12.2852V9.39453ZM5.27734 23.125C4.87887 23.125 4.55469 22.8008 4.55469 22.4023V19.5117C4.55469 19.1132 4.87887 18.7891 5.27734 18.7891C5.67625 18.7891 6 19.1127 6 19.5117V22.4023C6 22.8008 5.67582 23.125 5.27734 23.125ZM31.0039 27.4609H6V24.446C6.8411 24.1477 7.44531 23.3445 7.44531 22.4023V19.5117C7.44531 18.5488 6.82347 17.7574 6 17.4669V14.3288C6.8411 14.0305 7.44531 13.2273 7.44531 12.2852V9.39453C7.44531 8.43159 6.82347 7.64021 6 7.3497V4.33594H31.0039V27.4609Z" fill="#788796"/>
<path d="M15.6094 8.67188C12.0179 8.67188 9.10547 11.5827 9.10547 15.1758C9.10547 18.7669 12.016 21.6797 15.6094 21.6797C19.2008 21.6797 22.1133 18.7689 22.1133 15.1758C22.1133 11.5846 19.2028 8.67188 15.6094 8.67188ZM19.6609 18.2052L19.1866 17.7309C18.9043 17.4488 18.4467 17.4488 18.1645 17.7309C17.8823 18.0131 17.8823 18.4707 18.1645 18.7529L18.6388 19.2272C17.9605 19.7365 17.1713 20.0633 16.332 20.1828V19.5117C16.332 19.1126 16.0084 18.7891 15.6093 18.7891C15.2103 18.7891 14.8866 19.1126 14.8866 19.5117V20.1828C14.0473 20.0634 13.2581 19.7365 12.5798 19.2274L13.0541 18.7531C13.3363 18.4709 13.3363 18.0133 13.0541 17.7311C12.7719 17.4489 12.3145 17.4489 12.0321 17.7311L11.5578 18.2054C11.0485 17.527 10.7217 16.7379 10.6023 15.8985H11.2734C11.6725 15.8985 11.9961 15.575 11.9961 15.1759C11.9961 14.7767 11.6725 14.4531 11.2734 14.4531H10.6023C10.7217 13.6137 11.0486 12.8245 11.5578 12.1463L12.0322 12.6205C12.3144 12.9027 12.7719 12.9028 13.0542 12.6205C13.3364 12.3383 13.3364 11.8808 13.0542 11.5986L12.5799 11.1243C13.2583 10.615 14.0474 10.2882 14.8868 10.1687V10.8398C14.8868 11.239 15.2104 11.5625 15.6094 11.5625C16.0085 11.5625 16.3321 11.239 16.3321 10.8398V10.1687C17.1715 10.2882 17.9607 10.615 18.639 11.1242L18.1646 11.5985C17.8824 11.8807 17.8824 12.3383 18.1646 12.6205C18.4468 12.9027 18.9043 12.9027 19.1867 12.6205L19.6609 12.1462C20.1702 12.8245 20.4971 13.6137 20.6164 14.4531H19.9453C19.5463 14.4531 19.2227 14.7766 19.2227 15.1757C19.2227 15.5748 19.5463 15.8911 19.9453 15.8911H20.6164C20.4971 16.7306 20.1701 17.5269 19.6609 18.2052Z" fill="#788796"/>
<path d="M15.6094 13.0078C14.414 13.0078 13.4414 13.9804 13.4414 15.1758C13.4414 16.3712 14.414 17.3438 15.6094 17.3438C16.8048 17.3438 17.7773 16.3712 17.7773 15.1758C17.7773 13.9804 16.8048 13.0078 15.6094 13.0078ZM15.6094 15.8984C15.2109 15.8984 14.8867 15.5743 14.8867 15.1758C14.8867 14.7773 15.2109 14.4531 15.6094 14.4531C16.0078 14.4531 16.332 14.7773 16.332 15.1758C16.332 15.5743 16.0078 15.8984 15.6094 15.8984Z" fill="#788796"/>
<path d="M27.1719 8.67188C25.9765 8.67188 25.0039 9.64443 25.0039 10.8398V19.5117C25.0039 20.7071 25.9765 21.6797 27.1719 21.6797C28.3673 21.6797 29.3398 20.7071 29.3398 19.5117V10.8398C29.3398 9.64204 28.3698 8.67188 27.1719 8.67188ZM27.8945 19.5117C27.8945 19.9102 27.5703 20.2344 27.1719 20.2344C26.7734 20.2344 26.4492 19.9102 26.4492 19.5117V10.8398C26.4492 10.4414 26.7734 10.1172 27.1719 10.1172C27.5709 10.1172 27.8945 10.4409 27.8945 10.8398V19.5117Z" fill="#788796"/>
<path d="M19.9453 24.5703H14.1641C13.765 24.5703 13.4414 24.8938 13.4414 25.293C13.4414 25.6921 13.765 26.0156 14.1641 26.0156H19.9453C20.3444 26.0156 20.668 25.6921 20.668 25.293C20.668 24.8938 20.3444 24.5703 19.9453 24.5703Z" fill="#788796"/>
</svg>
