<svg width="270" height="180" viewBox="0 0 270 180" fill="none" xmlns="http://www.w3.org/2000/svg">
<path d="M132.119 170C157.047 170 177.255 149.589 177.255 124.41C177.255 99.2316 157.047 78.8203 132.119 78.8203C107.191 78.8203 86.9824 99.2316 86.9824 124.41C86.9824 149.589 107.191 170 132.119 170Z" fill="#78B7FA"/>
<path d="M154.342 105.168C154.911 105.638 146.48 117.097 135.515 130.749L128.86 138.899L127.946 140.014L126.981 139.004C118.36 130.07 112.55 123.453 112.964 123.035C113.378 122.617 119.947 128.52 128.774 137.175L126.912 137.367L133.429 129.13C144.394 115.39 153.756 104.698 154.342 105.168Z" fill="white"/>
<path d="M196.237 106.021C194.892 101.232 188.737 101.702 188.737 101.702L188.893 105.028C192.461 104.401 194.668 108.615 194.668 108.615L196.237 106.021Z" fill="#78B7FA"/>
<path d="M65.4821 116.086C64.1546 111.297 57.9824 111.75 57.9824 111.75L58.1548 115.094C61.7237 114.467 63.9305 118.681 63.9305 118.681L65.4821 116.086Z" fill="#E0E0E0"/>
<path d="M137.496 49.8263C144.651 52.0205 149.099 43.6966 149.099 43.6966L144.754 41.189C142.616 46.2913 135.479 45.6992 135.479 45.6992L137.496 49.8263Z" fill="#E0E0E0"/>
<path d="M97.8256 58.7939C94.4981 59.1596 94.1016 63.3738 94.1016 63.3738L96.3256 63.635C96.3256 61.1622 99.3772 60.1522 99.3772 60.1522L97.8256 58.7939Z" fill="#78B7FA"/>
<path d="M234.959 89.6521C235.441 86.3086 231.511 84.8633 231.511 84.8633L230.7 86.9704C233.079 87.5799 233.304 90.8189 233.304 90.8189L234.959 89.6521Z" fill="#E0E0E0"/>
<path d="M117.24 14.7888C117.723 11.4454 113.792 10 113.792 10L112.981 12.1245C115.361 12.734 115.585 15.9556 115.585 15.9556L117.24 14.7888Z" fill="#78B7FA"/>
<path d="M35.0355 68.7205C34.4493 73.9447 41.3112 75.2334 41.3112 75.2334L42.5525 71.7506C38.432 71.3675 37.8458 66.5264 37.8458 66.5264L35.0355 68.7205Z" fill="#78B7FA"/>
<path d="M188.064 49.722C191.409 49.9135 192.478 45.8212 192.478 45.8212L190.323 45.1943C189.926 47.6323 186.754 48.1373 186.754 48.1373L188.064 49.722Z" fill="#78B7FA"/>
<path d="M206.324 63.4801C205.427 63.7347 204.493 63.8234 203.565 63.742C202.638 63.8254 201.703 63.7366 200.807 63.4801C202.627 63.1076 204.503 63.1076 206.324 63.4801Z" fill="#E0E0E0"/>
<path d="M209.252 55.9038C209.597 57.7684 209.597 59.6814 209.252 61.546C208.885 59.6836 208.885 57.7662 209.252 55.9038Z" fill="#E0E0E0"/>
<path d="M212.357 63.2874C213.254 63.0328 214.188 62.944 215.116 63.0255C216.044 62.9421 216.978 63.0309 217.874 63.2874C216.054 63.6599 214.178 63.6599 212.357 63.2874Z" fill="#E0E0E0"/>
<path d="M209.443 70.8798C209.075 69.0115 209.075 67.0884 209.443 65.2202C209.788 67.0907 209.788 69.0093 209.443 70.8798Z" fill="#E0E0E0"/>
<path d="M213.891 67.7104C213.787 67.7975 213.253 67.3447 212.701 66.7004C212.149 66.0561 211.822 65.4292 211.925 65.3421C212.029 65.255 212.58 65.6904 213.115 66.3521C213.649 67.0139 214.011 67.5189 213.891 67.7104Z" fill="#E0E0E0"/>
<path d="M213.631 59.0029C213.735 59.1248 213.373 59.6647 212.804 60.2393C212.235 60.814 211.7 61.1971 211.597 61.0926C211.493 60.9881 211.855 60.4309 212.424 59.8562C212.993 59.2816 213.528 59.0029 213.631 59.0029Z" fill="#E0E0E0"/>
<path d="M207.322 61.2148C207.218 61.3367 206.701 61.058 206.167 60.6053C205.632 60.1525 205.287 59.6997 205.374 59.5952C205.46 59.4908 205.977 59.752 206.511 60.1873C207.046 60.6227 207.408 61.1103 207.322 61.2148Z" fill="#E0E0E0"/>
<path d="M207.065 65.0113C207.185 65.0984 206.858 65.6382 206.341 66.2129C205.823 66.7876 205.323 67.1533 205.22 67.0488C205.117 66.9443 205.427 66.4045 205.944 65.8472C206.461 65.29 206.961 64.9069 207.065 65.0113Z" fill="#E0E0E0"/>
<path d="M56.1215 47.9461C54.3009 48.3186 52.4251 48.3186 50.6045 47.9461C51.501 47.6915 52.4354 47.6027 53.363 47.6842C54.2906 47.6008 55.2254 47.6895 56.1215 47.9461Z" fill="#78B7FA"/>
<path d="M59.0513 40.3706C59.4192 42.2388 59.4192 44.1619 59.0513 46.0302C58.6834 44.1619 58.6834 42.2388 59.0513 40.3706Z" fill="#78B7FA"/>
<path d="M62.1729 47.7726C63.9935 47.4 65.8693 47.4 67.6899 47.7726C65.8693 48.1451 63.9935 48.1451 62.1729 47.7726Z" fill="#78B7FA"/>
<path d="M59.2407 55.3467C58.8729 53.4843 58.8729 51.567 59.2407 49.7046C59.6086 51.567 59.6086 53.4843 59.2407 55.3467Z" fill="#78B7FA"/>
<path d="M63.7075 52.0372C63.5868 52.1416 63.0523 51.6889 62.5179 51.0272C61.9834 50.3654 61.6213 49.7733 61.742 49.6689C61.8627 49.5644 62.3799 50.0346 62.9316 50.6789C63.4833 51.3232 63.8109 52.0372 63.7075 52.0372Z" fill="#78B7FA"/>
<path d="M63.4485 43.505C63.552 43.6095 63.1727 44.1668 62.621 44.7414C62.0693 45.3161 61.5175 45.6818 61.4141 45.5773C61.3107 45.4728 61.6727 44.933 62.2417 44.3583C62.8106 43.7837 63.3451 43.3309 63.4485 43.505Z" fill="#78B7FA"/>
<path d="M57.1215 45.6993C57.0353 45.8038 56.5181 45.5426 55.9836 45.0898C55.4491 44.637 55.0871 44.1843 55.1905 44.0624C55.294 43.9405 55.7939 44.2191 56.3284 44.6719C56.8629 45.1246 57.2249 45.5774 57.1215 45.6993Z" fill="#78B7FA"/>
<path d="M56.8803 49.4776C56.9838 49.582 56.6562 50.1219 56.1562 50.6965C55.6562 51.2712 55.139 51.6369 55.0183 51.5324C54.8976 51.4279 55.2425 50.8881 55.7424 50.3309C56.2424 49.7736 56.7597 49.3731 56.8803 49.4776Z" fill="#78B7FA"/>
</svg>
