<svg width="270" height="180" viewBox="0 0 270 180" fill="none" xmlns="http://www.w3.org/2000/svg">
<path d="M225.697 98.6222L217.934 117.091L245.333 128.608L253.096 110.14L225.697 98.6222Z" fill="#EBEBEB"/>
<path d="M253.08 110.405C252.963 110.46 252.843 110.505 252.72 110.542L251.676 110.902L247.82 112.133L235.044 116.1L234.939 116.133L234.885 116.035L234.759 115.801L228.279 103.867C227.476 102.352 226.818 101.121 226.35 100.235C226.137 99.8209 225.964 99.4933 225.835 99.2413C225.771 99.1262 225.716 99.0058 225.673 98.8813C225.755 98.9843 225.826 99.0952 225.885 99.2125L226.443 100.181C226.929 101.056 227.61 102.276 228.448 103.781C230.13 106.848 232.434 111.042 234.979 115.661L235.105 115.899L234.946 115.834L247.773 111.96L251.658 110.808L252.716 110.509C252.833 110.462 252.955 110.427 253.08 110.405V110.405Z" fill="#E0E0E0"/>
<path d="M217.929 117.36C217.893 117.295 221.018 115.629 224.906 113.641C228.794 111.654 231.973 110.095 232.009 110.164C232.045 110.232 228.916 111.895 225.028 113.883C221.14 115.87 217.962 117.421 217.929 117.36Z" fill="#E0E0E0"/>
<path d="M241.2 113.76C241.272 113.742 242.255 117.108 243.389 121.284C244.523 125.46 245.387 128.844 245.315 128.88C245.243 128.916 244.264 125.532 243.13 121.356C241.996 117.18 241.142 113.76 241.2 113.76Z" fill="#E0E0E0"/>
<path d="M50.0332 132.341L44.2605 146.074L64.6374 154.64L70.4101 140.907L50.0332 132.341Z" fill="#F5F5F5"/>
<path d="M70.4053 141.12C70.3205 141.164 70.2311 141.199 70.1389 141.224L69.3649 141.48L66.4849 142.398L56.9773 145.357L56.8981 145.382L56.8585 145.31C56.8297 145.253 56.7973 145.195 56.7613 145.134L51.9589 136.26L50.5189 133.556L50.1373 132.818C50.0896 132.734 50.0487 132.646 50.0149 132.556C50.0766 132.631 50.1297 132.713 50.1733 132.8L50.5873 133.52C50.9473 134.168 51.4585 135.076 52.0777 136.192L56.9341 145.037C56.9665 145.098 56.9989 145.159 57.0313 145.213L56.9125 145.166L66.4381 142.265L69.3181 141.408L70.1065 141.185C70.2033 141.152 70.3036 141.13 70.4053 141.12V141.12Z" fill="#E0E0E0"/>
<path d="M44.2583 146.272C44.2331 146.221 46.5551 144.983 49.4459 143.503C52.3367 142.024 54.7199 140.868 54.7199 140.919C54.7199 140.969 52.4231 142.204 49.5323 143.683C46.6415 145.163 44.2799 146.319 44.2583 146.272Z" fill="#E0E0E0"/>
<path d="M61.5599 143.593C61.6103 143.593 62.3411 146.084 63.1835 149.188C64.0259 152.291 64.6703 154.822 64.6235 154.836C64.5767 154.85 63.8387 152.345 62.9963 149.242C62.1539 146.138 61.5203 143.608 61.5599 143.593Z" fill="#E0E0E0"/>
<path d="M40.6599 87.2662L16.4932 96.8442L25.7608 120.228L49.9276 110.65L40.6599 87.2662Z" fill="#F5F5F5"/>
<path d="M26.8342 117.483L28.753 102.802L37.2706 108.324L38.9734 102.924L47.257 109.393L26.8342 117.483Z" fill="#E0E0E0"/>
<path d="M35.6401 97.3733C35.7764 97.7176 35.8076 98.0945 35.7297 98.4564C35.6518 98.8184 35.4683 99.1491 35.2024 99.4068C34.9366 99.6644 34.6003 99.8375 34.2361 99.904C33.8719 99.9706 33.4961 99.9276 33.1563 99.7807C32.8165 99.6337 32.528 99.3892 32.3271 99.0782C32.1262 98.7672 32.0221 98.4036 32.0278 98.0334C32.0336 97.6632 32.149 97.3031 32.3594 96.9985C32.5699 96.6939 32.8659 96.4585 33.2101 96.3221C33.4386 96.2311 33.6829 96.1861 33.9289 96.1897C34.1748 96.1932 34.4177 96.2454 34.6434 96.343C34.8692 96.4407 35.0735 96.582 35.2445 96.7588C35.4155 96.9356 35.55 97.1444 35.6401 97.3733Z" fill="#E0E0E0"/>
<g opacity="0.3">
<path opacity="0.3" d="M47.2827 109.458C47.2658 109.428 47.2513 109.397 47.2395 109.365C47.2107 109.293 47.1711 109.206 47.1243 109.095L46.6959 108.044C46.3359 107.122 45.7851 105.783 45.0975 104.084C43.7331 100.674 41.7855 95.8035 39.4527 89.9859L39.5895 90.0471L19.1775 98.1543C19.1595 98.1903 19.3071 97.8519 19.2459 97.9959V98.0139V98.0355V98.0751L19.2783 98.1579L19.3431 98.3271L19.4763 98.6583L19.7391 99.3243C19.9155 99.7635 20.0991 100.206 20.2611 100.642L21.2943 103.248L23.2887 108.288L26.9283 117.512L26.7915 117.454L41.5731 111.654L45.7491 110.027L46.8579 109.602L47.1459 109.494C47.1797 109.481 47.2147 109.47 47.2503 109.462L47.1639 109.502L46.8903 109.617L45.8103 110.06L41.6775 111.726L26.9031 117.648L26.8023 117.692L26.7627 117.591C25.6287 114.743 24.3975 111.647 23.0979 108.375C22.4475 106.738 21.7803 105.058 21.0963 103.335C20.7579 102.474 20.4123 101.607 20.0667 100.732C19.8903 100.293 19.7067 99.8535 19.5411 99.4107L19.2783 98.7447L19.1451 98.4135L19.0803 98.2479L19.0479 98.1615V98.1219V98.1003C18.9867 98.2407 19.1307 97.8987 19.1199 97.9347L39.5427 89.8599L39.6435 89.8203L39.6831 89.9175L45.2523 104.12L46.7895 108.08L47.1891 109.116C47.2287 109.228 47.2611 109.314 47.2863 109.379C47.2877 109.406 47.2865 109.432 47.2827 109.458V109.458Z" fill="#E0E0E0"/>
</g>
<path d="M179.111 151.272L177.804 150.329C177.062 149.792 176.539 149.004 176.332 148.111L175.41 144.151C175.115 142.907 174.385 141.81 173.352 141.056C172.319 140.302 171.051 139.942 169.776 140.04L169.416 138.507C169.395 138.414 169.356 138.327 169.3 138.249C169.245 138.172 169.175 138.106 169.095 138.056C169.014 138.006 168.924 137.972 168.831 137.957C168.737 137.941 168.641 137.945 168.549 137.967V137.967C168.456 137.988 168.368 138.027 168.291 138.082C168.214 138.137 168.148 138.207 168.098 138.288C168.048 138.369 168.014 138.458 167.999 138.552C167.983 138.646 167.987 138.742 168.009 138.834L168.369 140.339C167.131 140.784 166.101 141.668 165.472 142.822C164.844 143.977 164.661 145.323 164.959 146.603L165.841 150.405C166.036 151.233 165.946 152.103 165.586 152.874L164.769 154.627L170.086 153.36C170.291 153.668 170.568 153.921 170.894 154.097C171.219 154.273 171.583 154.366 171.953 154.369C172.323 154.371 172.688 154.283 173.016 154.111C173.344 153.94 173.624 153.691 173.833 153.385C174.029 153.092 174.152 152.756 174.193 152.406L179.111 151.272Z" fill="#EBEBEB"/>
<path d="M182.2 43.2324L205.232 58.2804L195.527 74.2896L171.936 58.3128L182.2 43.2324Z" fill="#F5F5F5"/>
<path d="M182.199 43.2325L198.874 41.6557C199.217 41.6231 199.56 41.7094 199.846 41.9003C200.131 42.0911 200.343 42.3747 200.444 42.7033L205.232 58.2805" fill="#78B7FA"/>
<path d="M182.199 43.2325L198.874 41.6557C199.217 41.6231 199.56 41.7094 199.846 41.9003C200.131 42.0911 200.343 42.3747 200.444 42.7033L205.232 58.2805" fill="#E0E0E0"/>
<path d="M171.936 58.3204C171.936 58.2736 175.09 57.4888 179.006 56.5672C182.923 55.6456 186.12 54.9256 186.12 54.9724C186.12 55.0192 182.966 55.8004 179.053 56.7256C175.14 57.6508 171.947 58.36 171.936 58.3204Z" fill="#E0E0E0"/>
<path d="M195.527 74.2896C195.48 74.2896 194.994 71.1468 194.447 67.2552C193.899 63.3636 193.489 60.2028 193.536 60.1992C193.583 60.1956 194.065 63.3384 194.616 67.2336C195.167 71.1288 195.573 74.2824 195.527 74.2896Z" fill="#E0E0E0"/>
<path d="M182.199 43.2324L187.617 59.8356L205.232 58.2804L182.199 43.2324Z" fill="#E0E0E0"/>
<path d="M182.79 44.849L187.506 37.667L207.734 50.753L202.961 58.4354L187.697 59.7134L182.79 44.849Z" fill="#FAFAFA"/>
<path d="M182.79 44.8493C182.79 44.8493 182.826 44.9429 182.887 45.1193L183.161 45.9041C183.395 46.6025 183.733 47.6105 184.169 48.8993C185.033 51.4877 186.271 55.1957 187.769 59.6993L187.689 59.6453L202.953 58.3493L202.881 58.3925L205.718 53.8241C206.373 52.7729 207.019 51.7349 207.655 50.7101L207.684 50.8397L187.473 37.7249H187.556L184.064 42.9881C183.657 43.5965 183.344 44.0681 183.125 44.3921L182.876 44.7521C182.822 44.8349 182.79 44.8745 182.79 44.8745C182.79 44.8745 182.811 44.8313 182.862 44.7485C182.912 44.6657 182.991 44.5397 183.092 44.3885L183.999 42.9737L187.455 37.6637L187.488 37.6133L187.538 37.6457L207.785 50.7029L207.86 50.7533L207.813 50.8325L205.877 53.9465L203.04 58.4861L203.015 58.5257H202.968L187.704 59.7893H187.643L187.625 59.7317L184.082 48.8921C183.665 47.6033 183.337 46.5917 183.114 45.8933L182.865 45.1085C182.811 44.9393 182.79 44.8493 182.79 44.8493Z" fill="#E0E0E0"/>
<path d="M202.169 52.2506C202.14 52.2938 199.037 50.3102 195.235 47.819C191.434 45.3278 188.374 43.2758 188.395 43.2326C188.417 43.1894 191.527 45.173 195.329 47.6642C199.131 50.1554 202.198 52.2002 202.169 52.2506Z" fill="#E0E0E0"/>
<path d="M200.826 54.2741C200.797 54.3173 197.694 52.3337 193.892 49.8425C190.091 47.3513 187.031 45.2993 187.052 45.2561C187.074 45.2129 190.184 47.1965 193.99 49.6877C197.795 52.1789 200.855 54.2309 200.826 54.2741Z" fill="#E0E0E0"/>
<path d="M199.278 56.6032C199.252 56.6464 196.146 54.6628 192.344 52.1752C188.542 49.6876 185.482 47.6284 185.504 47.5852C185.526 47.542 188.64 49.5256 192.441 52.0168C196.243 54.508 199.306 56.56 199.278 56.6032Z" fill="#E0E0E0"/>
<path d="M197.733 58.9355C197.705 58.9787 194.742 57.0887 191.113 54.7127C187.484 52.3367 184.568 50.3927 184.597 50.3315C184.626 50.2703 187.588 52.1783 191.217 54.5543C194.846 56.9303 197.762 58.8923 197.733 58.9355Z" fill="#E0E0E0"/>
<path d="M193.806 59.278C193.689 59.2325 193.578 59.1733 193.475 59.1016L192.6 58.5724L189.767 56.7724C188.661 56.0524 187.671 55.408 186.959 54.9256C186.599 54.6844 186.318 54.4828 186.123 54.3424C186.016 54.2774 185.918 54.1987 185.832 54.1084C185.95 54.1505 186.061 54.2087 186.163 54.2812L187.031 54.814L189.867 56.614C190.973 57.334 191.963 57.9748 192.672 58.4608C193.032 58.702 193.313 58.9 193.507 59.044C193.616 59.1085 193.717 59.1872 193.806 59.278V59.278Z" fill="#E0E0E0"/>
<path d="M189.918 59.5299C189.384 59.2869 188.877 58.9876 188.406 58.6371C187.899 58.3387 187.426 57.9863 186.995 57.5859C187.529 57.8289 188.036 58.1282 188.507 58.4787C189.014 58.7771 189.487 59.1296 189.918 59.5299V59.5299Z" fill="#E0E0E0"/>
<path d="M101.758 56.7076L98.2187 61.978L96.8399 61.4092L86.5763 67.8892L84.5747 62.4568C84.5747 62.4568 90.3851 60.7396 91.6451 58.8892C92.9051 57.0388 91.7747 56.452 91.7747 56.452L94.7303 53.8096L101.758 56.7076Z" fill="#EBEBEB"/>
<path d="M99.403 44.7949C99.403 44.7949 95.3206 43.3549 90.1006 36.9865C84.8806 30.6181 83.0086 22.7377 82.2814 22.6801C81.5542 22.6225 78.577 20.7901 71.017 33.1201C63.457 45.4501 65.455 48.7621 66.6538 48.8809C67.8526 48.9997 76.2226 47.7109 81.2158 48.8809C86.209 50.0509 92.401 53.4781 92.401 53.4781L99.403 44.7949Z" fill="#EBEBEB"/>
<path d="M107.442 53.471L105.685 56.0198L104.9 57.161C104.38 57.916 103.59 58.4425 102.693 58.6321C101.796 58.8217 100.861 58.6598 100.08 58.1798L91.4688 53.9714L98.1324 42.6494L106.56 48.5102C107.332 49.0531 107.858 49.8794 108.024 50.8088C108.189 51.7382 107.98 52.6952 107.442 53.471V53.471Z" fill="#E0E0E0"/>
<path d="M71.4745 33.4227C67.4353 40.1079 65.3545 46.2459 66.8197 47.1351C68.2849 48.0243 72.7561 43.3227 76.7917 36.6375C80.8273 29.9523 82.9117 23.8107 81.4465 22.9251C79.9813 22.0395 75.5101 26.7375 71.4745 33.4227Z" fill="#E0E0E0"/>
<path d="M105.509 53.7156C105.466 53.7876 104.306 53.172 102.92 52.3332C101.534 51.4944 100.451 50.7564 100.494 50.6844C100.537 50.6124 101.7 51.228 103.082 52.0632C104.465 52.8984 105.556 53.64 105.509 53.7156Z" fill="#EBEBEB"/>
<path d="M106.463 52.0957C106.416 52.1713 105.383 51.5737 104.13 50.7673C102.877 49.9609 101.92 49.2481 101.97 49.1725C102.021 49.0969 103.05 49.6945 104.303 50.5045C105.556 51.3145 106.51 52.0237 106.463 52.0957Z" fill="#EBEBEB"/>
<path d="M104.35 55.3936C104.332 55.4332 104.051 55.3324 103.608 55.1344C103.385 55.0336 103.122 54.9112 102.83 54.7744C102.539 54.6376 102.251 54.436 101.938 54.2416C100.678 53.464 99.7307 52.7368 99.7775 52.6684C99.8243 52.6 100.858 53.2048 102.103 53.9752C102.416 54.1624 102.704 54.3676 102.978 54.5224C103.252 54.6772 103.504 54.814 103.698 54.9364C104.119 55.1812 104.368 55.354 104.35 55.3936Z" fill="#EBEBEB"/>
<path d="M78.1704 32.6307C78.1704 32.6307 74.7937 29.9343 72.2125 34.6179C69.6313 39.3015 73.3645 40.5723 73.3645 40.5723C75.3313 38.1639 76.9492 35.4904 78.1704 32.6307V32.6307Z" fill="#FAFAFA"/>
<path d="M82.746 27.2271C82.6895 27.5415 82.6039 27.85 82.4904 28.1487C82.3032 28.7355 82.0368 29.5887 81.6768 30.6363C81.4572 31.1439 81.2196 31.7163 80.9568 32.2995L80.5572 33.2247C80.4888 33.3831 80.4204 33.545 80.3484 33.707C80.2764 33.869 80.1828 34.0275 80.1 34.1895C79.7544 34.8351 79.3944 35.5107 79.02 36.2163C78.9264 36.3891 78.8328 36.5655 78.7392 36.7455C78.6456 36.9255 78.5232 37.1055 78.4152 37.2639L77.76 38.3187L77.0796 39.3699C76.968 39.5391 76.8672 39.7298 76.7412 39.8774L76.3812 40.3562L74.9844 42.1779C74.8692 42.3219 74.7648 42.4694 74.6496 42.6062L74.2896 42.995L73.6092 43.7439L72.3924 45.0831C71.5932 45.8427 70.9272 46.4402 70.4736 46.8542C70.2457 47.0802 69.9988 47.2862 69.7356 47.4698C69.9329 47.2125 70.1508 46.9717 70.3872 46.7498L72.2376 44.9066L73.4184 43.5531L74.0772 42.8006C74.1924 42.6746 74.3076 42.5415 74.4372 42.4083C74.5668 42.2751 74.6532 42.1275 74.7648 41.9835L76.1364 40.1618L76.4964 39.6831C76.6188 39.5247 76.716 39.3483 76.8312 39.1791L77.5008 38.1314L78.174 37.0874C78.2784 36.9146 78.4008 36.7526 78.4944 36.5726L78.7788 36.047C79.1388 35.3522 79.5168 34.6827 79.8588 34.0455C79.9416 33.8835 80.0352 33.7287 80.1108 33.5703C80.1864 33.4119 80.2548 33.2499 80.3232 33.0915L80.7336 32.1771L81.4752 30.5391L82.3824 28.0983C82.4806 27.7988 82.6022 27.5075 82.746 27.2271V27.2271Z" fill="#E0E0E0"/>
<path d="M63.2373 36.9292C63.2373 36.9832 60.5913 36.8932 57.3297 36.7348C54.0681 36.5764 51.4293 36.4036 51.4329 36.3532C51.4365 36.3028 54.0789 36.3892 57.3405 36.5476C60.6021 36.706 63.2409 36.8788 63.2373 36.9292Z" fill="#EBEBEB"/>
<path d="M65.8117 29.2141C65.7901 29.2609 62.7229 27.7741 58.9717 25.8661C55.2205 23.9581 52.1749 22.3957 52.2001 22.3525C52.2253 22.3093 55.2889 23.7925 59.0401 25.6969C62.7913 27.6013 65.8369 29.1601 65.8117 29.2141Z" fill="#EBEBEB"/>
<path d="M70.434 24.2426C70.3836 24.2426 69.714 21.9314 68.9508 19.0514C68.1876 16.1714 67.6008 13.8206 67.6512 13.8062C67.7016 13.7918 68.3712 16.121 69.1344 19.001C69.8976 21.881 70.4844 24.2282 70.434 24.2426Z" fill="#EBEBEB"/>
<path d="M173.83 30.7801C173.558 29.9219 173.028 29.1679 172.314 28.6201C171.635 28.0596 170.798 27.7259 169.92 27.6661C169.456 27.6502 168.994 27.7277 168.562 27.8941C168.129 28.0604 167.734 28.3123 167.4 28.6345C167.004 29.0232 166.709 29.5027 166.54 30.0313C166.077 29.476 165.45 29.0827 164.749 28.9085C164.048 28.7343 163.309 28.7884 162.641 29.0629C161.833 29.4146 161.157 30.0116 160.708 30.7693C160.212 31.5223 159.96 32.4098 159.988 33.3109C160.046 34.4563 160.473 35.5522 161.204 36.4357C162.026 37.3195 163.049 37.9925 164.185 38.3977C166.036 39.1177 168.462 39.9997 168.462 39.9997C168.462 39.9997 170.089 38.2825 171.59 36.9793C172.528 36.2164 173.268 35.2399 173.75 34.1317C174.134 33.0517 174.162 31.877 173.83 30.7801V30.7801Z" fill="#EBEBEB"/>
<path d="M157.68 21.2404C157.69 20.7085 157.538 20.1861 157.244 19.7428C156.972 19.2965 156.567 18.9474 156.085 18.7456C155.827 18.6455 155.552 18.5987 155.276 18.608C155 18.6173 154.729 18.6825 154.479 18.7996C154.178 18.9487 153.917 19.1686 153.72 19.4404C153.612 19.1671 153.445 18.9211 153.23 18.7204C153.03 18.5305 152.794 18.3834 152.535 18.2881C152.276 18.1927 152.001 18.1512 151.725 18.166C151.211 18.2 150.72 18.3938 150.321 18.7204C149.902 19.0498 149.595 19.4996 149.439 20.0092C149.252 20.6618 149.28 21.3572 149.518 21.9928C149.81 22.6456 150.254 23.2186 150.814 23.6632C151.711 24.4228 152.902 25.384 152.902 25.384C152.902 25.384 154.141 24.736 155.232 24.304C155.903 24.0582 156.505 23.653 156.985 23.1232C157.414 22.5871 157.657 21.9266 157.68 21.2404V21.2404Z" fill="#EBEBEB"/>
<path d="M90.803 138.906C90.5858 138.42 90.2237 138.013 89.7662 137.74C89.3279 137.456 88.8121 137.315 88.2902 137.337C87.848 137.365 87.4279 137.54 87.0956 137.833C86.7633 138.126 86.5378 138.522 86.4542 138.957C86.2381 138.751 85.9785 138.596 85.6946 138.503C85.4322 138.418 85.1554 138.387 84.8807 138.412C84.606 138.436 84.3392 138.517 84.0962 138.647C83.6435 138.909 83.2846 139.307 83.0702 139.785C82.834 140.261 82.7498 140.799 82.829 141.325C82.939 141.997 83.2636 142.615 83.7542 143.086C84.2983 143.548 84.9451 143.874 85.6406 144.036C86.7782 144.335 88.265 144.691 88.265 144.691C88.265 144.691 89.1038 143.572 89.903 142.704C90.4006 142.198 90.7708 141.581 90.983 140.904C91.1408 140.236 91.0776 139.535 90.803 138.906V138.906Z" fill="#EBEBEB"/>
<path d="M232.445 69.7428C232.423 69.1082 232.352 68.4763 232.232 67.8528C232.076 67.1251 231.811 66.4249 231.447 65.7756C230.588 64.2151 229.212 63.0024 227.556 62.3455C225.9 61.6886 224.067 61.6286 222.372 62.1756C221.668 62.3944 221.003 62.7211 220.399 63.144C220.087 63.3592 219.789 63.5937 219.506 63.846C219.227 64.1143 218.966 64.4005 218.725 64.7028C217.709 65.971 217.127 67.531 217.062 69.1544C216.997 70.7778 217.454 72.3794 218.365 73.7244C218.584 74.0453 218.824 74.3508 219.085 74.6388C219.348 74.9145 219.628 75.173 219.924 75.4128C220.494 75.8782 221.131 76.2545 221.814 76.5288C223.081 77.0465 224.462 77.2168 225.817 77.022C226.997 76.8546 228.121 76.4105 229.097 75.726C229.906 75.1653 230.601 74.4539 231.141 73.6308C231.556 73.013 231.874 72.3356 232.085 71.622C232.254 71.0097 232.374 70.3849 232.445 69.7536C232.445 69.7536 232.445 69.7968 232.445 69.8796C232.445 69.9624 232.445 70.0992 232.423 70.2396C232.414 70.4404 232.39 70.6402 232.351 70.8372C232.31 71.1088 232.25 71.3771 232.171 71.64C231.971 72.3683 231.66 73.0616 231.249 73.6956C230.649 74.63 229.857 75.4264 228.927 76.0321C227.996 76.6378 226.947 77.039 225.849 77.2092C224.459 77.4158 223.038 77.2468 221.735 76.7196C221.03 76.4399 220.372 76.0552 219.783 75.5784C219.48 75.3317 219.191 75.0672 218.919 74.7864C218.66 74.4887 218.419 74.1749 218.199 73.8468C217.255 72.4628 216.781 70.8121 216.845 69.138C216.91 67.4639 217.511 65.8549 218.559 64.548C218.808 64.2365 219.078 63.9418 219.366 63.666C219.658 63.4065 219.967 63.166 220.291 62.946C220.913 62.5122 221.6 62.1782 222.325 61.956C223.664 61.5304 225.093 61.4732 226.461 61.7904C227.544 62.043 228.561 62.5232 229.443 63.1992C230.326 63.8752 231.055 64.7314 231.581 65.7108C231.942 66.3741 232.198 67.0894 232.34 67.8312C232.399 68.0992 232.437 68.3711 232.455 68.6448C232.482 68.844 232.491 69.0453 232.481 69.246C232.481 69.3972 232.481 69.5196 232.481 69.606C232.481 69.6924 232.452 69.7428 232.445 69.7428Z" fill="#E0E0E0"/>
<path d="M224.661 77.4684C223.633 77.4756 222.613 77.2773 221.663 76.8852C220.942 76.6009 220.269 76.2075 219.668 75.7188C219.413 75.5203 219.172 75.3037 218.948 75.0708L218.79 74.916L218.649 74.754C218.422 74.4975 218.213 74.2256 218.023 73.9404C217.058 72.5255 216.573 70.8386 216.638 69.1273C216.702 67.4161 217.314 65.7707 218.383 64.4328C218.594 64.1658 218.822 63.9133 219.067 63.6768L219.204 63.54L219.384 63.3852C219.629 63.1705 219.887 62.9721 220.158 62.7912C220.795 62.3511 221.495 62.0112 222.235 61.7832C223.605 61.3525 225.065 61.2941 226.465 61.614C227.574 61.8713 228.615 62.3626 229.518 63.0548C230.421 63.7471 231.166 64.6244 231.703 65.628C232.072 66.3036 232.334 67.0322 232.481 67.788C232.538 68.0343 232.575 68.2847 232.592 68.5368V68.616C232.619 68.8225 232.627 69.0309 232.617 69.2388V69.5988C232.62 69.6456 232.62 69.6924 232.617 69.7392V69.8544L232.596 70.2144C232.586 70.4236 232.56 70.6317 232.52 70.8372V70.9128C232.481 71.1648 232.424 71.4137 232.351 71.658C232.146 72.4006 231.828 73.1072 231.408 73.7532C230.795 74.7124 229.984 75.5298 229.03 76.1506C228.076 76.7714 227 77.1814 225.875 77.3532C225.473 77.4186 225.068 77.4571 224.661 77.4684ZM224.661 61.9884C223.899 61.9848 223.141 62.1064 222.419 62.3484C221.731 62.5601 221.081 62.8784 220.493 63.2916C220.24 63.4552 219.999 63.6369 219.773 63.8352L219.467 64.116C219.256 64.3306 219.06 64.5591 218.88 64.8C217.886 66.0379 217.316 67.5614 217.251 69.1472C217.186 70.7331 217.631 72.298 218.52 73.6128C218.695 73.8749 218.887 74.1251 219.096 74.3616L219.225 74.5128L219.373 74.6604C219.579 74.8687 219.799 75.0624 220.032 75.24C220.589 75.6937 221.213 76.058 221.882 76.32C223.121 76.8253 224.471 76.993 225.795 76.806C226.846 76.6509 227.851 76.2757 228.747 75.7049C229.642 75.1342 230.406 74.3808 230.99 73.494C231.394 72.8912 231.705 72.231 231.912 71.5356C232.073 70.9942 232.182 70.4384 232.236 69.876C232.236 69.804 232.236 69.75 232.257 69.7068C232.279 69.6636 232.257 69.6096 232.257 69.5376C232.247 68.9735 232.181 68.4117 232.063 67.86C231.909 67.1502 231.651 66.4672 231.296 65.8332C230.83 64.9926 230.208 64.2485 229.464 63.6408C228.564 62.9024 227.504 62.3847 226.368 62.1288C225.809 62.0199 225.241 61.9692 224.672 61.9776L224.661 61.9884Z" fill="#E0E0E0"/>
<path d="M229.784 75.2943C229.831 75.2511 231.458 76.9287 233.417 79.0455C235.375 81.1623 236.923 82.9119 236.873 82.9587C236.822 83.0055 235.199 81.3243 233.24 79.2075C231.282 77.0907 229.737 75.3411 229.784 75.2943Z" fill="#E0E0E0"/>
<path d="M236.941 83.1384H236.88C236.808 83.1384 236.639 83.1384 233.125 79.3296C229.612 75.5208 229.615 75.3696 229.619 75.2904V75.2148L229.673 75.1644C229.824 75.0204 229.838 75.0096 231.026 76.2444C231.71 76.9644 232.61 77.9076 233.546 78.9336C234.482 79.9596 235.375 80.928 236.03 81.6696C237.157 82.9476 237.146 82.9584 236.992 83.1096L236.941 83.1384Z" fill="#E0E0E0"/>
<path d="M54.0286 59.7097L52.531 60.3109L47.4262 57.0709L46.2274 54.0757C46.2274 54.0757 43.8514 54.8641 45.6946 58.6765C47.5378 62.4889 46.843 61.6069 46.843 61.6069C46.843 61.6069 41.929 63.5977 41.6914 64.1917C41.5186 64.6201 43.3438 69.5665 44.3554 72.2377C44.863 73.5841 46.1806 74.4985 47.5486 74.3149C47.7399 74.2924 47.9274 74.2452 48.1066 74.1745C49.3342 73.6813 55.2094 70.1713 55.2094 70.1713L57.8014 69.1309L54.0286 59.7097Z" fill="#EBEBEB"/>
<path d="M57.9959 57.168L61.1855 67.7988L58.6151 68.8284L54.5867 58.7736L57.9959 57.168Z" fill="#EBEBEB"/>
<path d="M206.564 137.455L204.797 137.747L200.052 133.006L199.472 129.478C199.472 129.478 196.711 129.758 197.795 134.327C198.878 138.895 198.335 137.776 198.335 137.776C198.335 137.776 192.535 138.755 192.135 139.342C191.847 139.763 192.639 145.555 193.093 148.702C193.323 150.282 194.533 151.582 196.052 151.715C196.265 151.74 196.48 151.74 196.693 151.715C198.133 151.477 205.333 149.08 205.333 149.08L208.386 148.576L206.564 137.455Z" fill="#F5F5F5"/>
<path d="M211.468 135.652L212.375 147.924L209.347 148.425L207.392 136.573L211.468 135.652Z" fill="#F5F5F5"/>
<path d="M112.568 148.889C113.448 148.795 114.281 148.445 114.964 147.883C115.646 147.32 116.149 146.57 116.41 145.725C117.18 143.352 115.999 140.839 113.774 140.112C111.55 139.385 109.116 140.728 108.346 143.104C108.055 143.95 108.022 144.863 108.251 145.727C108.48 146.592 108.96 147.369 109.631 147.96C103.118 146.909 101.239 153.753 101.239 153.753L115.92 158.512C115.92 158.512 118.44 151.791 112.568 148.889Z" fill="#EBEBEB"/>
<path d="M208.364 84.1069H63.5868C51.2498 84.1069 41.2488 94.108 41.2488 106.445V108.022C41.2488 120.359 51.2498 130.36 63.5868 130.36H208.364C220.701 130.36 230.702 120.359 230.702 108.022V106.445C230.702 94.108 220.701 84.1069 208.364 84.1069Z" fill="#78B7FA"/>
<g opacity="0.3">
<path opacity="0.3" d="M208.364 84.1069H63.5868C51.2498 84.1069 41.2488 94.108 41.2488 106.445V108.022C41.2488 120.359 51.2498 130.36 63.5868 130.36H208.364C220.701 130.36 230.702 120.359 230.702 108.022V106.445C230.702 94.108 220.701 84.1069 208.364 84.1069Z" fill="black"/>
</g>
<path d="M207.576 80.3198H64.3752C51.6028 80.3198 41.2488 90.6739 41.2488 103.446C41.2488 116.219 51.6028 126.573 64.3752 126.573H207.576C220.348 126.573 230.702 116.219 230.702 103.446C230.702 90.6739 220.348 80.3198 207.576 80.3198Z" fill="#78B7FA"/>
<g opacity="0.3">
<path opacity="0.3" d="M179.14 80.3198C179.14 80.3198 178.099 80.3414 177.574 80.3198C175.774 80.3198 172.534 80.3198 172.534 80.3198L170.208 84.6002C170.744 85.7342 171.443 86.9978 172.67 87.2498C173.289 87.3314 173.917 87.2521 174.496 87.0194C175.953 86.5712 177.316 85.8599 178.517 84.9206C179.265 84.3897 179.823 83.6325 180.108 82.7606C180.335 81.8714 179.968 80.7086 179.14 80.3198Z" fill="black"/>
</g>
<g opacity="0.3">
<path opacity="0.3" d="M96.7718 84.9386C96.2282 83.603 95.3606 81.2054 94.2266 80.3198C94.2266 80.3198 86.9654 80.4422 86.9294 80.3198L90.3026 92.4014C91.3826 93.2618 91.9298 94.4498 92.279 95.573C92.6282 96.6962 92.9162 97.9022 93.719 98.7482C94.5218 99.5942 96.113 99.8282 96.8114 98.8958C97.5998 97.841 96.743 96.3758 96.7178 95.0618C96.6926 93.7478 97.5242 92.5886 97.8626 91.3178C98.4422 89.1902 97.5998 86.9726 96.7718 84.9386Z" fill="black"/>
</g>
<path d="M151.394 42.9877C151.898 41.7097 152.406 40.3921 152.413 39.0277C152.42 37.6633 151.812 36.1729 150.613 35.5825C149.497 35.0389 148.154 35.3521 146.977 34.9741C145.537 34.5061 144.569 33.0841 143.885 31.6765C143.201 30.2689 142.643 28.7425 141.53 27.6697C140.784 26.9781 139.842 26.534 138.833 26.398C137.825 26.2621 136.799 26.4409 135.896 26.9101C134.593 26.064 133.08 25.5967 131.526 25.5601C129.585 25.5601 127.382 25.7833 126.072 27.2161C125.057 28.3249 124.43 29.7361 123.167 30.5317C121.424 31.6549 119.138 30.8161 117.072 30.9565C116.651 30.9853 116.161 31.1077 115.992 31.4965C115.949 31.674 115.945 31.8586 115.979 32.0379C116.013 32.2173 116.085 32.3874 116.19 32.5369L117.893 35.8273C117.46 36.0361 116.987 36.1445 116.507 36.1445C116.027 36.1445 115.553 36.0361 115.121 35.8273C115.29 38.0223 116.224 40.0885 117.759 41.6665C117.399 41.4181 116.841 41.7025 116.679 42.1201C116.549 42.5544 116.57 43.0199 116.737 43.4413C117.14 44.7673 117.823 45.9914 118.739 47.031C119.655 48.0707 120.784 48.9016 122.049 49.4677C123.314 50.0338 124.686 50.3219 126.071 50.3126C127.457 50.3033 128.825 49.9967 130.082 49.4137L141.512 49.9213C141.682 50.3565 141.955 50.7441 142.308 51.0513C142.66 51.3584 143.081 51.5759 143.535 51.6853C144.781 50.7025 144.975 50.1661 144.975 50.1661C145.782 50.7241 145.155 50.4505 145.782 50.7241C147.222 51.3541 149.281 50.4901 149.551 48.9061C149.616 48.2619 149.866 47.6504 150.271 47.1457C150.71 46.6705 151.351 46.4761 151.909 46.1701C152.805 45.6755 153.516 44.9019 153.932 43.9669C153.464 43.9881 152.997 43.9121 152.561 43.7435C152.124 43.575 151.727 43.3176 151.394 42.9877V42.9877Z" fill="#263238"/>
<path d="M123.21 38.653C123.231 35.8937 124.289 33.2433 126.175 31.2288C128.06 29.2144 130.635 27.9835 133.387 27.781L133.956 27.7414C140.098 27.6514 143.608 32.8138 143.528 38.9554L144.439 67.2406L130.421 68.2414L129.888 59.0398C129.888 59.0398 123.944 58.5574 123.44 52.6858C123.196 49.8598 123.17 43.9774 123.21 38.653Z" fill="#FFBE9D"/>
<path d="M126.155 43.0993C126.169 43.3183 126.267 43.5232 126.43 43.6705C126.593 43.8177 126.807 43.8957 127.026 43.8877C127.133 43.8877 127.239 43.8664 127.338 43.825C127.437 43.7837 127.527 43.723 127.603 43.6467C127.678 43.5703 127.737 43.4797 127.777 43.3802C127.817 43.2807 127.837 43.1742 127.836 43.0669C127.823 42.8476 127.724 42.6421 127.561 42.4947C127.399 42.3473 127.184 42.2696 126.965 42.2785C126.857 42.2775 126.751 42.2982 126.651 42.3392C126.552 42.3802 126.461 42.4408 126.386 42.5174C126.31 42.5939 126.251 42.6849 126.211 42.7849C126.172 42.8848 126.152 42.9918 126.155 43.0993V43.0993Z" fill="#263238"/>
<path d="M124.985 40.9031C125.096 41.0075 125.705 40.4891 126.601 40.4243C127.498 40.3595 128.2 40.7627 128.29 40.6475C128.336 40.5935 128.214 40.4027 127.912 40.2155C127.5 39.9739 127.023 39.8646 126.547 39.9023C126.078 39.9351 125.632 40.1167 125.273 40.4207C125.01 40.6547 124.92 40.8599 124.985 40.9031Z" fill="#263238"/>
<path d="M130.972 48.2399C130.972 48.1859 130.403 48.1319 129.485 48.0815C129.251 48.0815 129.031 48.0455 128.981 47.8907C128.943 47.6542 128.978 47.4118 129.082 47.1959C129.259 46.6199 129.444 46.0199 129.636 45.3959C130.399 42.8255 130.936 40.7159 130.831 40.6907C130.727 40.6655 130.025 42.7175 129.262 45.2879C129.079 45.9215 128.904 46.5215 128.736 47.0879C128.613 47.3771 128.593 47.7005 128.682 48.0023C128.722 48.0814 128.779 48.1504 128.85 48.204C128.92 48.2577 129.002 48.2945 129.089 48.3119C129.218 48.3388 129.35 48.3473 129.481 48.3371C130.403 48.3299 130.972 48.2939 130.972 48.2399Z" fill="#263238"/>
<path d="M124.708 38.7289C124.913 38.9233 125.662 38.6605 126.58 38.5957C127.498 38.5309 128.283 38.6245 128.445 38.4013C128.517 38.2897 128.383 38.0917 128.031 37.9189C127.545 37.7057 127.013 37.6225 126.486 37.6777C125.961 37.7156 125.454 37.8906 125.017 38.1853C124.708 38.4157 124.614 38.6353 124.708 38.7289Z" fill="#263238"/>
<path d="M142.959 43.3727C143.057 43.3223 146.92 41.8823 147.074 45.8927C147.229 49.9031 143.165 49.2587 143.15 49.1327C143.136 49.0067 142.959 43.3727 142.959 43.3727Z" fill="#FFBE9D"/>
<path d="M143.964 47.6066C143.982 47.6066 144.04 47.6534 144.159 47.7038C144.327 47.77 144.515 47.77 144.684 47.7038C145.102 47.531 145.433 46.8398 145.422 46.1126C145.418 45.7667 145.337 45.426 145.185 45.1154C145.142 44.9912 145.069 44.8794 144.973 44.7897C144.877 44.7 144.761 44.6351 144.634 44.6006C144.553 44.5838 144.469 44.5954 144.395 44.6334C144.322 44.6715 144.264 44.7336 144.231 44.8094C144.18 44.9246 144.209 45.0038 144.187 45.011C144.166 45.0182 144.097 44.9462 144.123 44.7806C144.141 44.6799 144.193 44.5885 144.27 44.5214C144.378 44.4325 144.516 44.3898 144.655 44.4026C144.823 44.4273 144.981 44.4951 145.114 44.5992C145.247 44.7033 145.351 44.8403 145.415 44.9966C145.601 45.3382 145.7 45.7202 145.703 46.109C145.703 46.9226 145.343 47.6966 144.753 47.891C144.646 47.9273 144.532 47.9391 144.42 47.9253C144.307 47.9116 144.2 47.8728 144.105 47.8118C143.979 47.7038 143.953 47.6174 143.964 47.6066Z" fill="#EB996E"/>
<path d="M144.321 34.1714C144.012 33.0008 143.48 31.9008 142.755 30.9314C140.649 28.0046 135.839 26.6366 133.107 26.8814C130.374 27.1262 127.541 29.1494 124.996 30.1646C123.329 30.8306 122.065 32.3606 122.703 33.545C121.715 33.929 120.672 34.1503 119.614 34.2002C119.614 34.2002 119.517 35.7014 120.352 36.101L122.98 37.8218C126.483 38.2862 132.631 34.8374 133.816 33.7538C134.915 32.7449 136.133 31.8722 137.441 31.1546C136.325 34.0814 139.961 33.4334 139.86 34.5674C138.748 38.6822 142.107 40.2014 142.107 40.2014L142.189 43.8014C142.114 44.723 142.51 45.4322 143.431 45.371C143.431 45.371 144.432 43.9958 144.601 42.8762C144.933 40.7162 144.72 36.3278 144.321 34.1714Z" fill="#263238"/>
<path d="M129.841 59.04C132.571 58.8406 135.186 57.8623 137.376 56.2212C137.376 56.2212 135.875 60.5916 129.96 60.48L129.841 59.04Z" fill="#EB996E"/>
<path d="M134.64 42.5591C134.654 42.7781 134.753 42.9831 134.915 43.1303C135.078 43.2776 135.292 43.3555 135.511 43.3475C135.619 43.3485 135.725 43.3279 135.825 43.2869C135.924 43.2458 136.014 43.1852 136.09 43.1087C136.166 43.0321 136.225 42.9411 136.265 42.8412C136.304 42.7412 136.324 42.6343 136.321 42.5267C136.307 42.3077 136.208 42.1028 136.046 41.9556C135.883 41.8083 135.669 41.7304 135.45 41.7383C135.343 41.7383 135.236 41.7596 135.137 41.801C135.038 41.8424 134.949 41.903 134.873 41.9794C134.798 42.0558 134.739 42.1463 134.698 42.2459C134.658 42.3454 134.639 42.4519 134.64 42.5591V42.5591Z" fill="#263238"/>
<path d="M133.654 40.4497C133.765 40.5649 134.475 40.1185 135.454 40.1545C136.433 40.1905 137.153 40.6729 137.254 40.5685C137.308 40.5181 137.196 40.3165 136.894 40.0969C136.468 39.8071 135.968 39.6448 135.454 39.6289C134.949 39.6047 134.448 39.7299 134.014 39.9889C133.708 40.2049 133.6 40.3993 133.654 40.4497Z" fill="#263238"/>
<path d="M133.56 37.6166C133.646 37.865 134.55 37.7534 135.612 37.8902C136.674 38.027 137.531 38.3222 137.675 38.1026C137.74 37.9982 137.592 37.7642 137.246 37.523C136.785 37.2287 136.264 37.0434 135.72 36.981C135.177 36.9186 134.627 36.9809 134.111 37.163C133.722 37.307 133.524 37.5014 133.56 37.6166Z" fill="#263238"/>
<path d="M130.889 49.9825C131.647 49.7281 132.423 49.5295 133.211 49.3885L133.783 49.2085C133.927 49.4658 134.014 49.7515 134.036 50.0456C134.058 50.3397 134.016 50.6351 133.913 50.9113C133.792 51.1099 133.63 51.2806 133.438 51.4122C133.247 51.5437 133.029 51.6331 132.8 51.6745C132.64 51.7167 132.472 51.7247 132.309 51.698C132.145 51.6714 131.989 51.6106 131.85 51.5197C131.85 51.5197 131.108 51.2281 130.889 49.9825" fill="#EB996E"/>
<path d="M132.455 51.678C132.764 51.6294 133.057 51.5058 133.308 51.318C133.568 51.1118 133.758 50.8301 133.852 50.5115C133.972 50.1235 133.972 49.708 133.852 49.3199L133.83 49.2552L133.938 49.3164C133.074 49.5072 132.293 49.6763 131.728 49.7807C131.425 49.8574 131.115 49.9032 130.802 49.9176C131.093 49.8023 131.393 49.7132 131.699 49.6511C132.257 49.5107 133.035 49.3271 133.899 49.1327L133.981 49.1147L134.007 49.1903L134.028 49.2623C134.165 49.6859 134.165 50.142 134.028 50.5656C133.917 50.9129 133.696 51.2147 133.398 51.426C133.199 51.5667 132.967 51.6535 132.725 51.678C132.545 51.7104 132.451 51.6888 132.455 51.678Z" fill="#263238"/>
<path d="M150.772 46.4691C150.688 46.4628 150.607 46.4421 150.531 46.4079C150.308 46.3089 150.114 46.1539 149.969 45.9579C149.737 45.6509 149.594 45.286 149.555 44.9031C149.516 44.402 149.537 43.8981 149.616 43.4019C149.72 42.8178 149.694 42.2181 149.541 41.6451C149.439 41.3375 149.25 41.0661 148.997 40.8639C148.721 40.6497 148.418 40.4719 148.097 40.3347C147.748 40.1864 147.413 40.0068 147.096 39.7983C146.761 39.5624 146.501 39.2349 146.347 38.8551C146.02 38.0919 146.052 37.2351 145.869 36.4323C145.793 36.0347 145.631 35.6586 145.393 35.3307C145.158 35.0234 144.817 34.8144 144.436 34.7439C144.076 34.6575 143.665 34.6431 143.28 34.5675C142.889 34.5068 142.53 34.3152 142.261 34.0239C142.034 33.7315 141.877 33.3901 141.804 33.0267C141.718 32.6847 141.667 32.3499 141.599 32.0367C141.533 31.7365 141.432 31.4452 141.297 31.1691C141.163 30.9196 141.001 30.6864 140.814 30.4743C140.237 29.8279 139.456 29.3995 138.6 29.2611C138.283 29.2278 137.964 29.2206 137.646 29.2395C137.962 29.1618 138.289 29.1447 138.611 29.1891C139.498 29.3016 140.315 29.7252 140.919 30.3843C141.118 30.6024 141.29 30.8442 141.43 31.1043C141.576 31.3894 141.686 31.6917 141.757 32.0043C141.829 32.3211 141.883 32.6559 141.97 32.9835C142.04 33.3206 142.187 33.6371 142.398 33.9087C142.641 34.1727 142.968 34.3434 143.323 34.3911C143.683 34.4631 144.083 34.4739 144.483 34.5639C144.91 34.6415 145.295 34.8734 145.563 35.2155C145.816 35.565 145.99 35.9655 146.074 36.3891C146.261 37.2279 146.232 38.0667 146.538 38.7831C146.678 39.1323 146.915 39.4337 147.222 39.6507C147.529 39.8571 147.854 40.0343 148.194 40.1799C148.526 40.3263 148.839 40.5125 149.127 40.7343C149.397 40.9603 149.598 41.2587 149.706 41.5947C149.864 42.1893 149.887 42.8119 149.771 43.4163C149.684 43.9019 149.653 44.396 149.681 44.8887C149.708 45.2565 149.832 45.6105 150.041 45.9147C150.218 46.1742 150.474 46.3689 150.772 46.4691Z" fill="#455A64"/>
<path d="M118.375 32.1408C118.44 32.1701 118.501 32.2089 118.555 32.256L119.059 32.616C119.674 33.0408 120.341 33.3855 121.043 33.642C122.078 34.0309 123.215 34.0538 124.265 33.7068C124.874 33.4941 125.409 33.1104 125.805 32.6016C126.21 32.0344 126.563 31.432 126.86 30.8016C127.175 30.1416 127.617 29.5496 128.16 29.0592C128.67 28.6236 129.255 28.2855 129.888 28.062C130.96 27.6931 132.11 27.6088 133.225 27.8172C133.971 27.9476 134.696 28.1726 135.385 28.4868C135.63 28.5948 135.813 28.6884 135.936 28.7568C136.001 28.7871 136.063 28.8245 136.119 28.8684C136.051 28.8516 135.984 28.8262 135.921 28.7928C135.792 28.7352 135.605 28.6524 135.356 28.5516C134.661 28.2689 133.937 28.066 133.196 27.9468C132.11 27.765 130.996 27.8604 129.956 28.224C129.346 28.4443 128.781 28.7736 128.289 29.196C127.773 29.6652 127.352 30.23 127.051 30.8592C126.75 31.5054 126.389 32.1214 125.971 32.6988C125.546 33.2337 124.972 33.6308 124.322 33.84C123.235 34.1941 122.059 34.1584 120.996 33.7392C120.29 33.4703 119.624 33.107 119.016 32.6592C118.8 32.5008 118.656 32.3712 118.533 32.2992C118.475 32.2523 118.422 32.1992 118.375 32.1408Z" fill="#455A64"/>
<path d="M116.856 37.4866C116.878 37.4614 117.155 37.7062 117.652 38.0122C118.305 38.4079 119.017 38.6972 119.761 38.869C120.506 39.0351 121.273 39.0801 122.033 39.0022C122.616 38.941 122.969 38.8402 122.98 38.8726C122.99 38.905 122.897 38.9194 122.738 38.9734C122.514 39.0449 122.284 39.0979 122.051 39.1318C121.275 39.253 120.484 39.2261 119.718 39.0526C118.953 38.879 118.228 38.564 117.58 38.1238C117.384 37.9911 117.2 37.8431 117.029 37.681C116.906 37.5658 116.845 37.4974 116.856 37.4866Z" fill="#455A64"/>
<path d="M120.24 40.8528C120.262 40.8024 120.874 41.0544 121.68 41.184C122.486 41.3136 123.12 41.2848 123.142 41.3388C122.155 41.542 121.127 41.3687 120.262 40.8528H120.24Z" fill="#455A64"/>
<path d="M130.086 62.478L118.53 65.6604L106.059 74.6604L109.386 80.3484L168.177 80.4492C168.177 80.4492 166.017 72.5904 165.33 70.1784C164.268 66.5388 162.828 65.4984 161.514 64.1808C160.902 63.6358 160.189 63.2163 159.415 62.946C157.089 62.4384 146.329 60.0228 144.234 60.066C144.234 60.066 141.818 65.0592 136.757 65.0088C131.695 64.9584 130.086 62.478 130.086 62.478Z" fill="#455A64"/>
<path d="M153.914 71.705C153.95 71.705 154.058 71.2298 154.4 70.5206C154.857 69.6003 155.459 68.7592 156.182 68.0294C156.913 67.3007 157.694 66.6235 158.519 66.0026C158.87 65.7551 159.203 65.4832 159.516 65.189C159.135 65.3865 158.773 65.6191 158.436 65.8838C157.575 66.4726 156.773 67.1416 156.038 67.8818C155.296 68.6255 154.697 69.4992 154.271 70.4594C154.143 70.7493 154.043 71.0506 153.972 71.3594C153.932 71.4701 153.912 71.5872 153.914 71.705V71.705Z" fill="#263238"/>
<path d="M118.8 77.9471C118.851 77.5425 118.865 77.1338 118.839 76.7267C118.839 75.9707 118.789 74.9267 118.703 73.7819C118.616 72.6371 118.497 71.5931 118.389 70.8479C118.355 70.4408 118.28 70.038 118.166 69.6455C118.159 70.0537 118.184 70.4617 118.242 70.8659C118.31 71.6831 118.397 72.6875 118.49 73.7963C118.584 74.9051 118.634 75.9131 118.688 76.7303C118.693 77.1382 118.73 77.5451 118.8 77.9471V77.9471Z" fill="#263238"/>
<g opacity="0.3">
<path opacity="0.3" d="M115.337 79.4447C116.287 79.1603 117.256 78.8003 117.961 78.1055C118.667 77.4107 119.041 76.3055 118.624 75.3911C119.325 76.8777 120.441 78.13 121.837 78.9973C123.233 79.8646 124.85 80.31 126.493 80.2799L112.547 80.4563C113.431 80.0042 114.368 79.6644 115.337 79.4447Z" fill="black"/>
</g>
<path d="M181.109 80.4315C181.109 80.4315 179.698 78.5127 178.999 78.1491C178.301 77.7855 177.347 77.7891 176.926 78.1707L176.505 78.5487C176.505 78.5487 174.309 77.5659 173.265 78.3219C173.265 78.3219 171.177 77.3355 170.179 78.4659C170.179 78.4659 168.57 77.4183 167.89 78.3327C167.209 79.2471 167.278 80.7879 167.605 81.5727C167.933 82.3575 168.552 85.0755 169.045 85.1223C169.045 85.1223 170.327 85.2591 170.485 84.5643C170.644 83.8695 170.73 83.5383 170.73 83.5383C170.73 83.5383 171.22 85.9899 171.81 86.1123C172.401 86.2347 173.527 86.1699 173.563 85.0935C173.563 85.0935 174.111 85.9035 174.643 85.6695C175.176 85.4355 175.839 85.0395 175.781 84.3735C175.723 83.7075 175.713 83.0415 175.713 83.0415C175.713 83.0415 176.008 84.0135 176.49 83.8011C176.973 83.5887 177.462 83.6355 177.736 82.8147C178.009 81.9939 178.683 80.4207 178.683 80.4207L181.109 80.4315Z" fill="#FFBE9D"/>
<path d="M175.748 82.9981C175.692 82.7639 175.622 82.5331 175.54 82.3069C175.39 81.7526 175.367 81.1718 175.471 80.6073C175.576 80.0429 175.806 79.5091 176.144 79.0453C176.404 78.6853 176.612 78.4981 176.591 78.4729C176.569 78.4477 176.328 78.6025 176.026 78.9517C175.634 79.4142 175.37 79.9711 175.259 80.5671C175.149 81.1632 175.196 81.7778 175.396 82.3501C175.458 82.5918 175.579 82.8143 175.748 82.9981Z" fill="#EB996E"/>
<path d="M173.117 78.3359C172.975 78.6415 172.88 78.9668 172.836 79.3007C172.529 80.9064 172.641 82.5639 173.16 84.1139C173.25 84.4383 173.387 84.7476 173.567 85.0319C173.635 85.0103 173.019 83.5919 172.901 81.7127C172.782 79.8335 173.185 78.3467 173.117 78.3359Z" fill="#EB996E"/>
<path d="M170.118 78.498C169.961 79.3541 169.95 80.2304 170.085 81.09C170.151 81.9585 170.36 82.81 170.705 83.6101C170.766 83.6101 170.456 82.476 170.298 81.0648C170.139 79.6536 170.179 78.5016 170.118 78.498Z" fill="#EB996E"/>
<path d="M161.482 79.0486C161.534 78.937 161.611 78.8388 161.707 78.7615C161.803 78.6842 161.916 78.6297 162.036 78.6022C162.316 78.5394 162.607 78.5453 162.884 78.6193C163.161 78.6932 163.416 78.8331 163.627 79.027C164.085 79.4452 164.478 79.9308 164.79 80.4669L161.679 80.4454C161.708 79.963 161.309 79.4914 161.482 79.0486Z" fill="#FFBE9D"/>
<path d="M82.6557 81.2701C82.7508 80.3192 83.0628 79.4028 83.5677 78.5914C84.0726 77.7801 84.757 77.0954 85.5681 76.5901V76.5901C86.2141 76.21 86.9351 75.9748 87.681 75.9008C88.4269 75.8269 89.18 75.9159 89.8881 76.1617L95.8893 78.2497C96.2133 78.6097 106.117 74.7793 106.117 74.7793L109.44 80.4601L90.5109 80.4313C91.5514 81.6185 92.6546 82.7493 93.8157 83.8189L95.1009 88.0885L94.9749 91.9513C94.2945 92.2645 93.2793 91.0729 93.2793 91.0729L92.6853 92.1529L92.8833 93.2005C92.8833 93.2005 94.6329 97.4485 94.5717 98.3953C94.5717 98.467 94.5574 98.5379 94.5295 98.6039C94.5017 98.67 94.4609 98.7298 94.4095 98.7798C94.3582 98.8298 94.2973 98.869 94.2306 98.8951C94.1638 98.9212 94.0925 98.9336 94.0209 98.9317C93.7697 98.9452 93.52 98.884 93.3035 98.7559C93.0869 98.6278 92.9132 98.4384 92.8041 98.2117L90.3165 93.3769C90.3165 93.3769 88.3905 92.9089 87.7173 92.2753C87.0441 91.6417 86.0397 90.4321 86.0397 90.4321L84.8157 90.2593C84.67 90.2803 84.5214 90.2511 84.3945 90.1765C84.0724 90.0172 83.7925 89.7842 83.5773 89.4965C83.3622 89.2088 83.2178 88.8744 83.1561 88.5205L82.5333 85.2805C82.3821 84.5461 82.5009 82.8325 82.6557 81.2701Z" fill="#FFBE9D"/>
<path d="M88.2937 89.6834C88.6416 91.0845 89.346 92.3718 90.3385 93.4202C90.3853 93.3842 89.8129 92.6174 89.2585 91.5878C88.7041 90.5582 88.3477 89.6654 88.2937 89.6834Z" fill="#EB996E"/>
<path d="M85.4062 89.3306C85.3414 89.3558 85.5682 89.8562 85.957 90.3818C86.163 90.7219 86.4289 91.022 86.7418 91.2674C86.5879 90.9021 86.3777 90.5632 86.119 90.263C85.9073 89.9332 85.6689 89.6214 85.4062 89.3306V89.3306Z" fill="#EB996E"/>
<path d="M93.2795 94.1832C93.1905 93.7832 93.0775 93.3889 92.9411 93.0024C92.7215 92.2824 92.4371 91.2708 92.1599 90.1512C92.0195 89.5896 91.8935 89.0712 91.7999 88.5672C91.6876 88.1462 91.6438 87.7098 91.6703 87.2748C91.7133 86.8777 91.8723 86.5021 92.1275 86.1948C92.1275 86.1948 92.0123 86.2452 91.8755 86.4144C91.6837 86.6615 91.5596 86.9544 91.5155 87.264C91.466 87.7158 91.4964 88.1728 91.6055 88.614C91.7027 89.1072 91.8251 89.6436 91.9655 90.2088C92.2463 91.332 92.5523 92.3364 92.8079 93.0528C92.9275 93.4442 93.0854 93.8229 93.2795 94.1832Z" fill="#EB996E"/>
<path d="M91.9799 87.0049C91.9547 87.0265 92.1599 87.2605 92.3975 87.6889C92.7061 88.2423 92.8893 88.8568 92.9339 89.4889C92.9283 89.851 92.9584 90.2127 93.0239 90.5689C93.0956 90.869 93.2532 91.1417 93.4775 91.3537C93.6611 91.5588 93.8923 91.7158 94.1507 91.8109C94.1723 91.7821 93.9059 91.6129 93.5819 91.2565C93.3944 91.0542 93.264 90.8057 93.2039 90.5365C93.1514 90.1886 93.1286 89.837 93.1355 89.4853C93.0901 88.8219 92.8784 88.1805 92.5199 87.6205C92.3868 87.3784 92.2025 87.1683 91.9799 87.0049V87.0049Z" fill="#EB996E"/>
<path d="M90.5691 80.4851C90.6051 80.4383 89.9031 79.8551 89.1939 78.9875C88.4847 78.1199 88.0311 77.3207 87.9663 77.3747C88.0262 77.5643 88.1096 77.7458 88.2147 77.9147C88.4521 78.3398 88.7281 78.7423 89.0391 79.1171C89.4517 79.6715 89.9721 80.1369 90.5691 80.4851V80.4851Z" fill="#EB996E"/>
<g opacity="0.3">
<path opacity="0.3" d="M152.842 80.435L153.076 75.0098L149.267 80.4278L152.842 80.435Z" fill="black"/>
</g>
<path d="M152.838 80.4311C152.807 79.36 152.835 78.2879 152.924 77.2199C152.953 76.1488 153.043 75.0803 153.194 74.0195C153.231 75.0906 153.203 76.1629 153.112 77.2307C153.085 78.3021 152.994 79.3709 152.838 80.4311V80.4311Z" fill="#263238"/>
<path d="M151.675 61.4917C151.731 61.604 151.764 61.7264 151.772 61.8517C151.801 62.2054 151.708 62.5583 151.51 62.8525C151.205 63.3289 150.734 63.6743 150.188 63.8209C149.482 63.9936 148.754 64.0555 148.028 64.0045C147.61 63.9962 147.191 64.0178 146.776 64.0693C146.331 64.1249 145.905 64.2772 145.526 64.5157C145.134 64.7866 144.824 65.1602 144.63 65.5957C144.425 66.0666 144.271 66.5577 144.169 67.0609C144.054 67.5793 143.95 68.1157 143.784 68.6593C143.53 69.5314 143.013 70.3041 142.305 70.8728C141.597 71.4414 140.73 71.7784 139.824 71.8381C139.208 71.8699 138.592 71.7797 138.012 71.5727C137.431 71.3658 136.897 71.0461 136.44 70.6321C136.013 70.2413 135.655 69.7812 135.382 69.2713C135.15 68.791 134.793 68.3819 134.348 68.0869C133.899 67.853 133.389 67.7637 132.887 67.8313C132.402 67.8841 131.921 67.9658 131.447 68.0761C130.996 68.1816 130.537 68.2443 130.075 68.2633C129.644 68.2734 129.215 68.2051 128.808 68.0617C128.115 67.8181 127.495 67.4018 127.008 66.8521C126.635 66.4411 126.348 65.9602 126.162 65.4373C126.092 65.249 126.038 65.0551 126 64.8577C125.982 64.6813 125.953 64.5373 125.953 64.4185V64.1449C125.95 64.115 125.95 64.0848 125.953 64.0549C125.97 64.5188 126.061 64.977 126.223 65.4121C126.416 65.9199 126.707 66.3847 127.08 66.7801C127.564 67.3114 128.176 67.7094 128.858 67.9357C129.251 68.0691 129.664 68.1313 130.079 68.1193C130.531 68.0967 130.981 68.0316 131.422 67.9249C131.896 67.8107 132.377 67.7241 132.862 67.6657C133.397 67.5927 133.941 67.6871 134.42 67.9357C134.892 68.2433 135.273 68.6723 135.522 69.1777C135.79 69.6708 136.138 70.1161 136.552 70.4953C137.437 71.2923 138.601 71.7076 139.792 71.6509C140.377 71.6069 140.948 71.4448 141.47 71.1744C141.991 70.9041 142.453 70.531 142.826 70.0777C143.572 69.1957 143.748 68.0509 143.989 67.0213C144.093 66.5049 144.254 66.0015 144.468 65.5201C144.677 65.0586 145.008 64.6629 145.426 64.3753C145.825 64.1255 146.275 63.9681 146.743 63.9145C147.165 63.8661 147.59 63.8493 148.014 63.8641C148.737 63.9213 149.465 63.8703 150.174 63.7129C150.701 63.5773 151.159 63.2532 151.463 62.8021C151.661 62.522 151.761 62.1839 151.747 61.8409C151.731 61.723 151.707 61.6064 151.675 61.4917V61.4917Z" fill="white"/>
<path d="M134.168 80.0424C134.134 79.9639 134.109 79.8818 134.093 79.7976L133.895 79.0776C133.668 78.2036 133.303 77.3712 132.815 76.6116C132.649 76.3673 132.457 76.1416 132.242 75.9384C132.008 75.7226 131.745 75.5397 131.461 75.3948C130.821 75.096 130.113 74.9718 129.409 75.0348C128.623 75.1048 127.844 75.2409 127.08 75.4416C126.249 75.6633 125.392 75.7746 124.531 75.7728C123.646 75.7881 122.788 75.4678 122.13 74.8764C121.568 74.2757 121.232 73.4981 121.18 72.6768C121.127 71.9569 121.144 71.2335 121.23 70.5168C121.3 69.899 121.316 69.2762 121.277 68.6556C121.255 68.2084 121.144 67.77 120.951 67.3658C120.758 66.9617 120.487 66.5998 120.154 66.3012C119.895 66.0987 119.599 65.9483 119.282 65.8584H119.347C119.412 65.865 119.476 65.8782 119.538 65.898C119.778 65.9693 120.002 66.084 120.2 66.2364C120.553 66.5339 120.842 66.8996 121.05 67.3116C121.258 67.7237 121.38 68.1735 121.41 68.634C121.459 69.2623 121.45 69.8937 121.385 70.5204C121.307 71.2294 121.296 71.9442 121.352 72.6552C121.358 73.063 121.446 73.4653 121.613 73.8376C121.779 74.2099 122.02 74.5442 122.321 74.82C122.621 75.0957 122.975 75.3072 123.36 75.4413C123.745 75.5755 124.153 75.6295 124.56 75.6C125.411 75.6039 126.258 75.4949 127.08 75.276C127.853 75.0757 128.642 74.942 129.438 74.8764C130.172 74.8184 130.908 74.955 131.573 75.2724C131.868 75.4274 132.141 75.6224 132.383 75.852C132.601 76.0715 132.797 76.3127 132.966 76.572C133.447 77.3485 133.794 78.2004 133.992 79.092C134.071 79.4016 134.122 79.6464 134.154 79.812C134.166 79.8882 134.171 79.9653 134.168 80.0424V80.0424Z" fill="white"/>
<path d="M153.281 75.4452C152.779 75.1899 152.252 74.9884 151.708 74.844C151.118 74.7038 150.511 74.6588 149.908 74.7108C149.168 74.7759 148.451 74.9954 147.802 75.3552C147.151 75.7186 146.579 76.2081 146.12 76.7952C145.743 77.2699 145.452 77.8073 145.26 78.3828C145.124 78.7676 145.097 79.1822 145.181 79.5816C145.223 79.7252 145.275 79.8659 145.336 80.0028C145.336 80.0028 145.303 79.974 145.256 79.9128C145.194 79.8151 145.144 79.7098 145.109 79.5996C144.995 79.1886 145.002 78.7535 145.13 78.3468C145.312 77.7476 145.601 77.1864 145.984 76.6908C146.45 76.0813 147.037 75.5741 147.708 75.2004C148.381 74.8273 149.126 74.6038 149.893 74.5452C150.515 74.4995 151.141 74.5591 151.744 74.7216C152.149 74.8312 152.539 74.9896 152.906 75.1932C153.036 75.2652 153.13 75.33 153.194 75.3732C153.259 75.4164 153.284 75.438 153.281 75.4452Z" fill="white"/>
<path d="M157.162 65.7324C157.144 65.7324 157.032 65.5848 156.942 65.286C156.831 64.896 156.813 64.4852 156.892 64.0872C156.97 63.6876 157.14 63.3117 157.388 62.9892C157.583 62.748 157.748 62.6292 157.748 62.658C157.404 63.082 157.169 63.5843 157.065 64.1205C156.961 64.6567 156.99 65.2103 157.151 65.7324H157.162Z" fill="white"/>
<path d="M165.96 72.8678C165.954 72.9222 165.94 72.9755 165.92 73.0262C165.877 73.1747 165.822 73.3192 165.755 73.4582C165.506 73.9752 165.155 74.4358 164.721 74.8118C164.077 75.3765 163.281 75.7406 162.432 75.8594C161.46 76.0034 160.419 75.6938 159.375 75.4346C158.869 75.2962 158.348 75.2164 157.824 75.1971C157.335 75.1897 156.848 75.2652 156.384 75.4202C155.601 75.6863 154.897 76.1457 154.339 76.7559C153.959 77.1657 153.656 77.6399 153.443 78.1563C153.291 78.5163 153.252 78.7431 153.23 78.7395C153.228 78.6846 153.235 78.6297 153.252 78.5775C153.282 78.4258 153.322 78.2766 153.374 78.1311C153.567 77.5922 153.86 77.0949 154.238 76.6659C154.804 76.0246 155.524 75.5388 156.33 75.2546C156.808 75.0884 157.311 75.0068 157.817 75.0134C158.354 75.033 158.888 75.1127 159.408 75.251C160.463 75.5138 161.474 75.8199 162.399 75.6867C163.219 75.581 163.991 75.2424 164.624 74.711C165.054 74.3535 165.412 73.9173 165.679 73.4258C165.891 73.0802 165.96 72.8606 165.96 72.8678Z" fill="white"/>
<path d="M117.828 79.4448C117.786 79.45 117.744 79.45 117.702 79.4448C117.582 79.4564 117.462 79.4564 117.342 79.4448C116.892 79.4158 116.452 79.3009 116.046 79.1064C115.438 78.8185 114.916 78.3752 114.534 77.8212C114.311 77.4907 114.145 77.1258 114.041 76.7412C113.943 76.3322 113.872 75.9173 113.828 75.4992C113.731 74.6568 113.594 73.836 113.108 73.2852C112.67 72.8135 112.083 72.5061 111.445 72.414C111.013 72.3381 110.577 72.2936 110.138 72.2808C109.975 72.2831 109.811 72.2735 109.649 72.252C109.809 72.2173 109.974 72.2028 110.138 72.2088C110.584 72.1917 111.03 72.217 111.47 72.2844C112.146 72.3642 112.771 72.679 113.238 73.1736C113.495 73.4832 113.681 73.8459 113.781 74.2356C113.886 74.6421 113.96 75.0562 114.001 75.474C114.045 75.8834 114.113 76.2897 114.206 76.6908C114.301 77.0573 114.457 77.4053 114.667 77.7204C115.031 78.258 115.527 78.6932 116.107 78.984C116.644 79.2513 117.229 79.408 117.828 79.4448V79.4448Z" fill="white"/>
<path d="M132.75 140.681C133.292 141.689 133.647 142.787 133.797 143.921H135.72L143.831 143.781L143.769 143.925C143.769 143.925 145.094 137.704 145.335 135.854C145.533 134.327 146.477 130.677 145.335 129.064C145.129 128.78 144.84 128.568 144.508 128.457C144.175 128.346 143.816 128.342 143.481 128.445C143.247 128.512 143.036 128.643 142.871 128.823C142.707 129.003 142.595 129.224 142.549 129.464C142.549 129.464 142.452 127.304 140.904 127.275C139.356 127.246 139.302 128.452 139.302 128.452C139.302 128.452 138.877 125.986 137.142 126.008C136.809 126.039 136.493 126.17 136.236 126.384C135.979 126.598 135.793 126.885 135.702 127.206V122.526C135.703 122.07 135.53 121.629 135.219 121.295C134.907 120.961 134.48 120.757 134.024 120.726C133.792 120.719 133.562 120.758 133.345 120.841C133.129 120.924 132.931 121.049 132.763 121.21C132.596 121.37 132.462 121.562 132.369 121.774C132.277 121.987 132.227 122.215 132.224 122.447L132.12 133.276L129.488 129.899C128.801 129.024 127.159 129.456 126.968 130.209C126.968 130.209 126.493 131.199 127.476 132.657C128.16 133.748 132.75 140.681 132.75 140.681Z" fill="#EBEBEB"/>
<path d="M132.75 140.681C132.75 140.681 132.703 140.623 132.624 140.508L132.264 139.99L130.914 137.977L128.779 134.781L127.447 132.779C127.187 132.417 126.988 132.014 126.86 131.587C126.709 131.13 126.709 130.637 126.86 130.18V130.18C126.968 129.908 127.175 129.688 127.44 129.564C127.704 129.431 127.994 129.357 128.29 129.348C128.596 129.33 128.901 129.402 129.168 129.553C129.235 129.595 129.298 129.64 129.359 129.69C129.416 129.744 129.47 129.805 129.521 129.863L129.802 130.223L132.152 133.229L132.012 133.276C132.048 130.252 132.088 126.936 132.127 123.408V122.746C132.118 122.517 132.134 122.287 132.174 122.062C132.278 121.593 132.561 121.184 132.962 120.921C133.165 120.789 133.391 120.7 133.628 120.658C133.866 120.615 134.109 120.621 134.344 120.675C134.579 120.729 134.801 120.829 134.997 120.97C135.192 121.111 135.357 121.29 135.482 121.497C135.613 121.704 135.702 121.935 135.745 122.177C135.779 122.415 135.791 122.656 135.781 122.897V127.192L135.598 127.167C135.724 126.735 136.008 126.366 136.393 126.133C136.557 126.039 136.734 125.97 136.919 125.928C137.013 125.907 137.11 125.899 137.207 125.907C137.301 125.912 137.395 125.923 137.488 125.939C137.856 126.019 138.19 126.212 138.445 126.49C138.913 127.041 139.225 127.707 139.349 128.419H139.165C139.188 128.18 139.274 127.951 139.414 127.756C139.555 127.561 139.745 127.408 139.964 127.311C140.178 127.22 140.406 127.169 140.638 127.159C140.757 127.147 140.878 127.147 140.998 127.159L141.17 127.181L141.336 127.231C141.552 127.311 141.748 127.434 141.914 127.593C142.079 127.752 142.21 127.944 142.297 128.157C142.478 128.558 142.587 128.988 142.618 129.427L142.438 129.409C142.486 129.178 142.591 128.962 142.743 128.78C142.895 128.599 143.089 128.457 143.309 128.369C143.744 128.2 144.228 128.21 144.655 128.398C144.866 128.487 145.057 128.618 145.217 128.783C145.361 128.951 145.482 129.137 145.577 129.337C145.749 129.737 145.859 130.161 145.904 130.594C146.059 132.304 145.692 133.927 145.444 135.465C145.195 137.002 144.918 138.499 144.641 139.907C144.364 141.315 144.072 142.647 143.809 143.907L143.68 143.867L143.737 143.723L143.802 143.817L135.691 143.935L135.734 143.889V143.935H135.72H133.787H133.754V143.903C133.644 143.07 133.426 142.254 133.106 141.477C132.998 141.21 132.905 141.012 132.836 140.879C132.768 140.746 132.743 140.677 132.743 140.677C132.894 140.929 133.028 141.191 133.142 141.462C133.479 142.239 133.709 143.057 133.826 143.896L133.79 143.863H135.724L135.677 143.91V143.867H135.72L143.827 143.701H143.932L143.892 143.799L143.834 143.943L143.705 143.903C143.962 142.643 144.233 141.309 144.518 139.9C144.792 138.492 145.094 137.02 145.307 135.465C145.519 133.909 145.912 132.304 145.757 130.637C145.714 130.224 145.608 129.82 145.444 129.438C145.348 129.253 145.227 129.082 145.084 128.931C144.94 128.781 144.771 128.659 144.583 128.571C144.198 128.405 143.764 128.397 143.374 128.549C143.179 128.624 143.007 128.748 142.874 128.908C142.741 129.068 142.65 129.259 142.61 129.463L142.481 130.086L142.43 129.445C142.4 129.031 142.298 128.626 142.128 128.247C142.051 128.057 141.935 127.885 141.788 127.742C141.641 127.599 141.467 127.487 141.275 127.415C140.871 127.304 140.442 127.329 140.054 127.487C139.866 127.57 139.704 127.701 139.583 127.868C139.462 128.034 139.387 128.229 139.367 128.434L139.309 129.042L139.18 128.445C139.06 127.769 138.765 127.137 138.323 126.612C138.106 126.354 137.805 126.18 137.473 126.12C137.14 126.061 136.798 126.121 136.505 126.288C136.157 126.495 135.9 126.825 135.785 127.213L135.601 127.782V122.89C135.612 122.661 135.602 122.432 135.572 122.206C135.531 121.987 135.449 121.779 135.331 121.59C135.216 121.403 135.065 121.241 134.887 121.113C134.709 120.984 134.508 120.892 134.294 120.841C133.869 120.751 133.425 120.833 133.059 121.068C132.693 121.303 132.434 121.673 132.34 122.098C132.301 122.31 132.287 122.526 132.296 122.742V123.408C132.25 126.933 132.203 130.248 132.16 133.276V133.503L132.023 133.323L129.701 130.32C129.546 130.073 129.346 129.858 129.11 129.687C128.866 129.549 128.588 129.483 128.308 129.496C128.034 129.506 127.765 129.573 127.519 129.694C127.283 129.801 127.097 129.996 127.001 130.237V130.237C126.86 130.665 126.86 131.127 127.001 131.555C127.123 131.97 127.315 132.362 127.566 132.714L128.887 134.723L130.993 137.938L132.314 139.968C132.462 140.199 132.574 140.375 132.656 140.497C132.739 140.62 132.75 140.681 132.75 140.681Z" fill="#263238"/>
<path d="M143.946 143.781H133.79C133.019 143.781 132.394 144.406 132.394 145.178V145.278C132.394 146.05 133.019 146.675 133.79 146.675H143.946C144.717 146.675 145.343 146.05 145.343 145.278V145.178C145.343 144.406 144.717 143.781 143.946 143.781Z" fill="#EBEBEB"/>
<path d="M143.95 146.675C143.95 146.675 144.051 146.675 144.238 146.625C144.514 146.557 144.765 146.41 144.958 146.2C145.091 146.051 145.19 145.876 145.249 145.685C145.312 145.45 145.326 145.205 145.289 144.965C145.243 144.681 145.108 144.42 144.902 144.219C144.697 144.018 144.432 143.889 144.148 143.849H133.805C133.57 143.851 133.341 143.915 133.139 144.035C132.937 144.154 132.771 144.325 132.656 144.53C132.551 144.733 132.496 144.959 132.498 145.188C132.484 145.523 132.599 145.851 132.818 146.104C133.038 146.358 133.345 146.518 133.679 146.553C134.122 146.553 134.583 146.553 135.015 146.553L139.669 146.574L142.809 146.603L143.662 146.621C143.762 146.617 143.862 146.623 143.961 146.639C143.862 146.655 143.762 146.661 143.662 146.657H142.809L139.669 146.686L135.015 146.708C134.575 146.708 134.136 146.708 133.661 146.708C133.412 146.683 133.174 146.596 132.967 146.456C132.76 146.316 132.592 146.127 132.476 145.905C132.352 145.672 132.289 145.412 132.294 145.148C132.299 144.884 132.372 144.626 132.505 144.399C132.639 144.171 132.828 143.981 133.056 143.848C133.283 143.715 133.541 143.642 133.805 143.637C137.851 143.637 141.498 143.637 144.166 143.684C144.476 143.728 144.763 143.872 144.984 144.094C145.205 144.316 145.347 144.604 145.39 144.915C145.424 145.164 145.406 145.418 145.336 145.66C145.268 145.862 145.156 146.046 145.008 146.2C144.808 146.413 144.546 146.556 144.259 146.61C144.16 146.648 144.056 146.67 143.95 146.675V146.675Z" fill="#263238"/>
<path d="M135.644 131.163C135.519 129.768 135.519 128.364 135.644 126.969C135.769 128.364 135.769 129.768 135.644 131.163V131.163Z" fill="#263238"/>
<path d="M139.255 130.878C139.131 130.051 139.131 129.21 139.255 128.383C139.38 129.21 139.38 130.051 139.255 130.878Z" fill="#263238"/>
<path d="M142.56 131.93C142.43 131.102 142.43 130.259 142.56 129.431C142.685 130.259 142.685 131.101 142.56 131.93V131.93Z" fill="#263238"/>
<path d="M131.501 120.55C130.817 120.305 130.154 120.003 129.521 119.646C128.859 119.342 128.224 118.981 127.624 118.566C128.97 119.115 130.267 119.778 131.501 120.546V120.55Z" fill="#263238"/>
<path d="M133.258 119.56C133.023 118.658 132.848 117.742 132.736 116.817C132.56 115.9 132.445 114.973 132.394 114.041C132.632 114.943 132.808 115.861 132.919 116.788C133.093 117.703 133.206 118.629 133.258 119.56V119.56Z" fill="#263238"/>
<path d="M135.443 119.812C135.8 119.145 136.209 118.507 136.667 117.904C137.075 117.267 137.535 116.665 138.042 116.104C137.281 117.412 136.411 118.653 135.443 119.816V119.812Z" fill="#263238"/>
<path d="M200.246 112.368L199.188 111.152C198.586 110.46 198.255 109.574 198.255 108.657V104.596C198.254 103.315 197.794 102.077 196.96 101.105C196.125 100.133 194.971 99.4918 193.705 99.2968V97.72C193.705 97.529 193.629 97.3459 193.494 97.2109C193.359 97.0759 193.176 97 192.985 97C192.794 97 192.611 97.0759 192.476 97.2109C192.341 97.3459 192.265 97.529 192.265 97.72V99.268C190.959 99.4206 189.754 100.047 188.879 101.03C188.005 102.012 187.521 103.281 187.52 104.596V108.498C187.52 109.349 187.235 110.176 186.71 110.846L185.515 112.365H190.983C191.113 112.711 191.326 113.02 191.604 113.264C191.881 113.509 192.214 113.682 192.574 113.768C192.933 113.854 193.308 113.85 193.666 113.757C194.024 113.665 194.354 113.486 194.626 113.236C194.885 112.993 195.083 112.694 195.206 112.361L200.246 112.368Z" fill="white"/>
<path d="M80.2344 107.898C80.2344 108.914 79.8672 109.711 79.1328 110.289C78.3984 110.867 77.3854 111.156 76.0938 111.156C74.8021 111.156 73.7448 110.956 72.9219 110.555V108.789C73.4427 109.034 73.9948 109.227 74.5781 109.367C75.1667 109.508 75.7135 109.578 76.2188 109.578C76.9583 109.578 77.5026 109.438 77.8516 109.156C78.2057 108.875 78.3828 108.497 78.3828 108.023C78.3828 107.596 78.2214 107.234 77.8984 106.938C77.5755 106.641 76.9089 106.289 75.8984 105.883C74.8568 105.461 74.1224 104.979 73.6953 104.438C73.2682 103.896 73.0547 103.245 73.0547 102.484C73.0547 101.531 73.3932 100.781 74.0703 100.234C74.7474 99.6875 75.6562 99.4141 76.7969 99.4141C77.8906 99.4141 78.9792 99.6536 80.0625 100.133L79.4688 101.656C78.4531 101.229 77.5469 101.016 76.75 101.016C76.1458 101.016 75.6875 101.148 75.375 101.414C75.0625 101.674 74.9062 102.021 74.9062 102.453C74.9062 102.75 74.9688 103.005 75.0938 103.219C75.2188 103.427 75.4245 103.625 75.7109 103.812C75.9974 104 76.513 104.247 77.2578 104.555C78.0964 104.904 78.7109 105.229 79.1016 105.531C79.4922 105.833 79.7786 106.174 79.9609 106.555C80.1432 106.935 80.2344 107.383 80.2344 107.898ZM86.0234 111.156C84.6797 111.156 83.6276 110.766 82.8672 109.984C82.112 109.198 81.7344 108.117 81.7344 106.742C81.7344 105.331 82.0859 104.221 82.7891 103.414C83.4922 102.607 84.4583 102.203 85.6875 102.203C86.8281 102.203 87.7292 102.549 88.3906 103.242C89.0521 103.935 89.3828 104.888 89.3828 106.102V107.094H83.625C83.651 107.932 83.8776 108.578 84.3047 109.031C84.7318 109.479 85.3333 109.703 86.1094 109.703C86.6198 109.703 87.0938 109.656 87.5312 109.562C87.974 109.464 88.4479 109.302 88.9531 109.078V110.57C88.5052 110.784 88.0521 110.935 87.5938 111.023C87.1354 111.112 86.612 111.156 86.0234 111.156ZM85.6875 103.594C85.1042 103.594 84.6354 103.779 84.2812 104.148C83.9323 104.518 83.724 105.057 83.6562 105.766H87.5781C87.5677 105.052 87.3958 104.513 87.0625 104.148C86.7292 103.779 86.2708 103.594 85.6875 103.594ZM94.6875 109.672C95.1354 109.672 95.5833 109.602 96.0312 109.461V110.844C95.8281 110.932 95.5651 111.005 95.2422 111.062C94.9245 111.125 94.5938 111.156 94.25 111.156C92.5104 111.156 91.6406 110.24 91.6406 108.406V103.75H90.4609V102.938L91.7266 102.266L92.3516 100.438H93.4844V102.359H95.9453V103.75H93.4844V108.375C93.4844 108.818 93.5938 109.146 93.8125 109.359C94.0365 109.568 94.3281 109.672 94.6875 109.672ZM103.859 111L103.602 109.867H103.508C103.253 110.268 102.888 110.583 102.414 110.812C101.945 111.042 101.409 111.156 100.805 111.156C99.7578 111.156 98.9766 110.896 98.4609 110.375C97.9453 109.854 97.6875 109.065 97.6875 108.008V102.359H99.5391V107.688C99.5391 108.349 99.6745 108.846 99.9453 109.18C100.216 109.508 100.641 109.672 101.219 109.672C101.99 109.672 102.555 109.443 102.914 108.984C103.279 108.521 103.461 107.747 103.461 106.664V102.359H105.305V111H103.859ZM112.305 111.156C111.211 111.156 110.362 110.763 109.758 109.977H109.648C109.721 110.706 109.758 111.148 109.758 111.305V114.844H107.922V102.359H109.406C109.448 102.521 109.534 102.906 109.664 103.516H109.758C110.331 102.641 111.19 102.203 112.336 102.203C113.414 102.203 114.253 102.594 114.852 103.375C115.456 104.156 115.758 105.253 115.758 106.664C115.758 108.076 115.451 109.177 114.836 109.969C114.227 110.76 113.383 111.156 112.305 111.156ZM111.859 103.703C111.13 103.703 110.596 103.917 110.258 104.344C109.924 104.771 109.758 105.453 109.758 106.391V106.664C109.758 107.716 109.924 108.479 110.258 108.953C110.591 109.422 111.135 109.656 111.891 109.656C112.526 109.656 113.016 109.396 113.359 108.875C113.703 108.354 113.875 107.612 113.875 106.648C113.875 105.68 113.703 104.948 113.359 104.453C113.021 103.953 112.521 103.703 111.859 103.703ZM127.453 111L127.086 109.797H127.023C126.607 110.323 126.188 110.682 125.766 110.875C125.344 111.062 124.802 111.156 124.141 111.156C123.292 111.156 122.628 110.927 122.148 110.469C121.674 110.01 121.438 109.362 121.438 108.523C121.438 107.633 121.768 106.961 122.43 106.508C123.091 106.055 124.099 105.807 125.453 105.766L126.945 105.719V105.258C126.945 104.706 126.815 104.294 126.555 104.023C126.299 103.747 125.901 103.609 125.359 103.609C124.917 103.609 124.492 103.674 124.086 103.805C123.68 103.935 123.289 104.089 122.914 104.266L122.32 102.953C122.789 102.708 123.302 102.523 123.859 102.398C124.417 102.268 124.943 102.203 125.438 102.203C126.536 102.203 127.365 102.443 127.922 102.922C128.484 103.401 128.766 104.154 128.766 105.18V111H127.453ZM124.719 109.75C125.385 109.75 125.919 109.565 126.32 109.195C126.727 108.82 126.93 108.297 126.93 107.625V106.875L125.82 106.922C124.956 106.953 124.326 107.099 123.93 107.359C123.539 107.615 123.344 108.008 123.344 108.539C123.344 108.924 123.458 109.224 123.688 109.438C123.917 109.646 124.26 109.75 124.719 109.75ZM138.398 111.156C137.32 111.156 136.479 110.766 135.875 109.984C135.271 109.203 134.969 108.107 134.969 106.695C134.969 105.279 135.273 104.177 135.883 103.391C136.497 102.599 137.346 102.203 138.43 102.203C139.565 102.203 140.43 102.622 141.023 103.461H141.117C141.029 102.841 140.984 102.352 140.984 101.992V98.8438H142.828V111H141.391L141.07 109.867H140.984C140.396 110.727 139.534 111.156 138.398 111.156ZM138.891 109.672C139.646 109.672 140.195 109.461 140.539 109.039C140.883 108.612 141.06 107.922 141.07 106.969V106.711C141.07 105.622 140.893 104.849 140.539 104.391C140.185 103.932 139.63 103.703 138.875 103.703C138.229 103.703 137.732 103.966 137.383 104.492C137.034 105.013 136.859 105.758 136.859 106.727C136.859 107.685 137.029 108.417 137.367 108.922C137.706 109.422 138.214 109.672 138.891 109.672ZM149.227 111.156C147.883 111.156 146.831 110.766 146.07 109.984C145.315 109.198 144.938 108.117 144.938 106.742C144.938 105.331 145.289 104.221 145.992 103.414C146.695 102.607 147.661 102.203 148.891 102.203C150.031 102.203 150.932 102.549 151.594 103.242C152.255 103.935 152.586 104.888 152.586 106.102V107.094H146.828C146.854 107.932 147.081 108.578 147.508 109.031C147.935 109.479 148.536 109.703 149.312 109.703C149.823 109.703 150.297 109.656 150.734 109.562C151.177 109.464 151.651 109.302 152.156 109.078V110.57C151.708 110.784 151.255 110.935 150.797 111.023C150.339 111.112 149.815 111.156 149.227 111.156ZM148.891 103.594C148.307 103.594 147.839 103.779 147.484 104.148C147.135 104.518 146.927 105.057 146.859 105.766H150.781C150.771 105.052 150.599 104.513 150.266 104.148C149.932 103.779 149.474 103.594 148.891 103.594ZM161.953 111H160.109V105.672C160.109 105.01 159.984 104.518 159.734 104.195C159.484 103.867 159.094 103.703 158.562 103.703C157.854 103.703 157.333 103.935 157 104.398C156.672 104.857 156.508 105.622 156.508 106.695V111H154.672V102.359H156.109L156.367 103.492H156.461C156.701 103.081 157.047 102.763 157.5 102.539C157.958 102.315 158.461 102.203 159.008 102.203C160.336 102.203 161.216 102.656 161.648 103.562H161.773C162.029 103.135 162.388 102.802 162.852 102.562C163.315 102.323 163.846 102.203 164.445 102.203C165.477 102.203 166.227 102.464 166.695 102.984C167.169 103.505 167.406 104.299 167.406 105.367V111H165.57V105.672C165.57 105.01 165.443 104.518 165.188 104.195C164.938 103.867 164.547 103.703 164.016 103.703C163.302 103.703 162.779 103.927 162.445 104.375C162.117 104.818 161.953 105.5 161.953 106.422V111ZM177.633 106.664C177.633 108.076 177.271 109.177 176.547 109.969C175.823 110.76 174.815 111.156 173.523 111.156C172.716 111.156 172.003 110.974 171.383 110.609C170.763 110.245 170.286 109.721 169.953 109.039C169.62 108.357 169.453 107.565 169.453 106.664C169.453 105.263 169.812 104.169 170.531 103.383C171.25 102.596 172.263 102.203 173.57 102.203C174.82 102.203 175.81 102.607 176.539 103.414C177.268 104.216 177.633 105.299 177.633 106.664ZM171.344 106.664C171.344 108.659 172.081 109.656 173.555 109.656C175.013 109.656 175.742 108.659 175.742 106.664C175.742 104.69 175.008 103.703 173.539 103.703C172.768 103.703 172.208 103.958 171.859 104.469C171.516 104.979 171.344 105.711 171.344 106.664ZM181.336 107.531H179.977L179.57 99.5781H181.734L181.336 107.531ZM179.477 110.023C179.477 109.638 179.578 109.346 179.781 109.148C179.984 108.945 180.273 108.844 180.648 108.844C181.018 108.844 181.302 108.948 181.5 109.156C181.698 109.365 181.797 109.654 181.797 110.023C181.797 110.393 181.695 110.688 181.492 110.906C181.294 111.12 181.013 111.227 180.648 111.227C180.279 111.227 179.99 111.122 179.781 110.914C179.578 110.706 179.477 110.409 179.477 110.023Z" fill="white"/>
</svg>
