<svg width="24" height="24" viewBox="0 0 24 24" fill="none" xmlns="http://www.w3.org/2000/svg">
<g clip-path="url(#clip0)">
<path d="M12.0009 23.9998C18.6282 23.9998 24.0008 18.6273 24.0008 11.9999C24.0008 5.37254 18.6282 0 12.0009 0C5.37351 0 0.000976562 5.37254 0.000976562 11.9999C0.000976562 18.6273 5.37351 23.9998 12.0009 23.9998Z" fill="#55ACEE"/>
<path d="M19.3508 8.62448C18.8366 8.85251 18.2834 9.00674 17.7033 9.07562C18.2956 8.72074 18.7502 8.15923 18.9647 7.48905C18.4105 7.81783 17.7963 8.05634 17.1433 8.1849C16.62 7.62766 15.8746 7.27942 15.0491 7.27942C13.4653 7.27942 12.1808 8.56395 12.1808 10.1477C12.1808 10.3726 12.2062 10.5914 12.2554 10.8014C9.87163 10.6819 7.75799 9.54001 6.34319 7.80414C6.09634 8.22768 5.95473 8.72074 5.95473 9.24632C5.95473 10.2412 6.46148 11.1195 7.2307 11.6338C6.76074 11.619 6.31816 11.49 5.93163 11.2746C5.93142 11.2868 5.93142 11.299 5.93142 11.311C5.93142 12.7007 6.92053 13.8599 8.23244 14.1232C7.99201 14.1891 7.73809 14.224 7.47691 14.224C7.29167 14.224 7.1122 14.2062 6.93722 14.1729C7.30215 15.3121 8.36121 16.1415 9.61665 16.1648C8.6348 16.9342 7.39819 17.3926 6.05399 17.3926C5.82296 17.3926 5.59408 17.3792 5.37012 17.3524C6.63881 18.1666 8.14688 18.6412 9.7666 18.6412C15.0425 18.6412 17.9277 14.2706 17.9277 10.4799C17.9277 10.3557 17.9249 10.2318 17.9193 10.109C18.4802 9.70472 18.9664 9.19968 19.3508 8.62448Z" fill="#F1F2F2"/>
</g>
<defs>
<clipPath id="clip0">
<rect width="24" height="24" fill="white"/>
</clipPath>
</defs>
</svg>
