<svg width="22" height="19" viewBox="0 0 22 19" fill="none" xmlns="http://www.w3.org/2000/svg">
<path d="M19.2163 5.22254C19.2297 5.40908 19.2297 5.59566 19.2297 5.7822C19.2297 11.4719 14.8991 18.0277 6.98413 18.0277C4.54567 18.0277 2.28046 17.3215 0.375 16.0957C0.721459 16.1356 1.05455 16.1489 1.41434 16.1489C3.42636 16.1489 5.27854 15.4694 6.7576 14.3101C4.86547 14.2701 3.27981 13.0309 2.73348 11.3253C3 11.3653 3.26648 11.3919 3.54633 11.3919C3.93274 11.3919 4.31919 11.3386 4.67893 11.2454C2.70686 10.8456 1.22776 9.1134 1.22776 7.0214V6.96812C1.8007 7.28792 2.467 7.48779 3.17317 7.51441C2.0139 6.74155 1.25442 5.42241 1.25442 3.93001C1.25442 3.13054 1.46757 2.39767 1.84069 1.75807C3.95936 4.36974 7.14401 6.07529 10.715 6.26187C10.6484 5.94207 10.6084 5.60899 10.6084 5.27586C10.6084 2.90401 12.5272 0.971924 14.9124 0.971924C16.1516 0.971924 17.2709 1.49159 18.057 2.33106C19.0297 2.14452 19.9625 1.78473 20.7886 1.29172C20.4688 2.29111 19.7893 3.13058 18.8965 3.66353C19.7626 3.5703 20.6021 3.3304 21.3749 2.99732C20.7887 3.85007 20.0558 4.60956 19.2163 5.22254Z" fill="white"/>
</svg>
