<svg width="168" height="82" viewBox="0 0 168 82" fill="none" xmlns="http://www.w3.org/2000/svg">
<path d="M32.9453 60.7227V69.9609C32.9453 71.5885 32.4538 72.8678 31.4707 73.7988C30.4876 74.7298 29.1367 75.1953 27.418 75.1953C25.6992 75.1953 24.3678 74.7266 23.4238 73.7891C22.4863 72.8516 22.0176 71.5625 22.0176 69.9219V60.7227H23.6777V70.0391C23.6777 71.2305 24.0033 72.1452 24.6543 72.7832C25.3053 73.4212 26.2624 73.7402 27.5254 73.7402C28.7298 73.7402 29.6576 73.4212 30.3086 72.7832C30.9596 72.1387 31.2852 71.2174 31.2852 70.0195V60.7227H32.9453ZM43.3945 72.0801C43.3945 73.0762 43.0234 73.8444 42.2812 74.3848C41.5391 74.9251 40.4974 75.1953 39.1562 75.1953C37.737 75.1953 36.6302 74.9707 35.8359 74.5215V73.0176C36.3503 73.278 36.9004 73.4831 37.4863 73.6328C38.0788 73.7826 38.6484 73.8574 39.1953 73.8574C40.0417 73.8574 40.6927 73.724 41.1484 73.457C41.6042 73.1836 41.832 72.7702 41.832 72.2168C41.832 71.8001 41.6497 71.4453 41.2852 71.1523C40.9271 70.8529 40.224 70.5013 39.1758 70.0977C38.1797 69.7266 37.4701 69.4043 37.0469 69.1309C36.6302 68.8509 36.3177 68.5352 36.1094 68.1836C35.9076 67.832 35.8066 67.4121 35.8066 66.9238C35.8066 66.0514 36.1615 65.3646 36.8711 64.8633C37.5807 64.3555 38.554 64.1016 39.791 64.1016C40.9434 64.1016 42.0697 64.3359 43.1699 64.8047L42.5938 66.123C41.5195 65.6803 40.5462 65.459 39.6738 65.459C38.9056 65.459 38.3262 65.5794 37.9355 65.8203C37.5449 66.0612 37.3496 66.3932 37.3496 66.8164C37.3496 67.1029 37.4212 67.347 37.5645 67.5488C37.7142 67.7507 37.9518 67.9427 38.2773 68.125C38.6029 68.3073 39.2279 68.571 40.1523 68.916C41.4219 69.3783 42.278 69.8438 42.7207 70.3125C43.1699 70.7812 43.3945 71.3704 43.3945 72.0801ZM52.623 75L52.3008 73.4766H52.2227C51.6888 74.1471 51.1549 74.6029 50.6211 74.8438C50.0938 75.0781 49.4329 75.1953 48.6387 75.1953C47.5775 75.1953 46.7441 74.9219 46.1387 74.375C45.5397 73.8281 45.2402 73.0501 45.2402 72.041C45.2402 69.8796 46.9688 68.7467 50.4258 68.6426L52.2422 68.584V67.9199C52.2422 67.0801 52.0599 66.4616 51.6953 66.0645C51.3372 65.6608 50.7611 65.459 49.9668 65.459C49.0749 65.459 48.0658 65.7324 46.9395 66.2793L46.4414 65.0391C46.9688 64.7526 47.5449 64.528 48.1699 64.3652C48.8014 64.2025 49.4329 64.1211 50.0645 64.1211C51.3405 64.1211 52.2845 64.4043 52.8965 64.9707C53.515 65.5371 53.8242 66.4453 53.8242 67.6953V75H52.623ZM48.9609 73.8574C49.9701 73.8574 50.7611 73.5807 51.334 73.0273C51.9134 72.474 52.2031 71.6992 52.2031 70.7031V69.7363L50.582 69.8047C49.293 69.8503 48.362 70.0521 47.7891 70.4102C47.2227 70.7617 46.9395 71.3118 46.9395 72.0605C46.9395 72.6465 47.1152 73.0924 47.4668 73.3984C47.8249 73.7044 48.3229 73.8574 48.9609 73.8574ZM65.9336 64.2969V65.3223L63.9512 65.5566C64.1335 65.7845 64.2962 66.084 64.4395 66.4551C64.5827 66.8197 64.6543 67.2331 64.6543 67.6953C64.6543 68.7435 64.2962 69.5801 63.5801 70.2051C62.8639 70.8301 61.8809 71.1426 60.6309 71.1426C60.3118 71.1426 60.0124 71.1165 59.7324 71.0645C59.0423 71.429 58.6973 71.888 58.6973 72.4414C58.6973 72.7344 58.8177 72.9525 59.0586 73.0957C59.2995 73.2324 59.7129 73.3008 60.2988 73.3008H62.1934C63.3522 73.3008 64.2409 73.5449 64.8594 74.0332C65.4844 74.5215 65.7969 75.2311 65.7969 76.1621C65.7969 77.347 65.3216 78.2487 64.3711 78.8672C63.4206 79.4922 62.0339 79.8047 60.2109 79.8047C58.8112 79.8047 57.7305 79.5443 56.9688 79.0234C56.2135 78.5026 55.8359 77.7669 55.8359 76.8164C55.8359 76.1654 56.0443 75.6022 56.4609 75.127C56.8776 74.6517 57.4635 74.3294 58.2188 74.1602C57.9453 74.0365 57.7142 73.8444 57.5254 73.584C57.3431 73.3236 57.252 73.0208 57.252 72.6758C57.252 72.2852 57.3561 71.9434 57.5645 71.6504C57.7728 71.3574 58.1016 71.0742 58.5508 70.8008C57.9974 70.5729 57.5449 70.1855 57.1934 69.6387C56.8483 69.0918 56.6758 68.4668 56.6758 67.7637C56.6758 66.5918 57.0273 65.6901 57.7305 65.0586C58.4336 64.4206 59.4297 64.1016 60.7188 64.1016C61.2786 64.1016 61.7832 64.1667 62.2324 64.2969H65.9336ZM57.3984 76.7969C57.3984 77.3763 57.6426 77.8158 58.1309 78.1152C58.6191 78.4147 59.319 78.5645 60.2305 78.5645C61.5911 78.5645 62.597 78.3594 63.248 77.9492C63.9056 77.5456 64.2344 76.9954 64.2344 76.2988C64.2344 75.7194 64.0553 75.3158 63.6973 75.0879C63.3392 74.8665 62.6654 74.7559 61.6758 74.7559H59.7324C58.9967 74.7559 58.4238 74.9316 58.0137 75.2832C57.6035 75.6348 57.3984 76.1393 57.3984 76.7969ZM58.2773 67.7246C58.2773 68.4733 58.4889 69.0397 58.9121 69.4238C59.3353 69.8079 59.9245 70 60.6797 70C62.2617 70 63.0527 69.2318 63.0527 67.6953C63.0527 66.0872 62.252 65.2832 60.6504 65.2832C59.8887 65.2832 59.3027 65.4883 58.8926 65.8984C58.4824 66.3086 58.2773 66.9173 58.2773 67.7246ZM72.6523 75.1953C71.0703 75.1953 69.8203 74.7135 68.9023 73.75C67.9909 72.7865 67.5352 71.4486 67.5352 69.7363C67.5352 68.0111 67.9583 66.6406 68.8047 65.625C69.6576 64.6094 70.8001 64.1016 72.2324 64.1016C73.5736 64.1016 74.6348 64.5443 75.416 65.4297C76.1973 66.3086 76.5879 67.4707 76.5879 68.916V69.9414H69.2148C69.2474 71.1979 69.5632 72.1517 70.1621 72.8027C70.7676 73.4538 71.6172 73.7793 72.7109 73.7793C73.8633 73.7793 75.0026 73.5384 76.1289 73.0566V74.502C75.556 74.7493 75.0124 74.9251 74.498 75.0293C73.9902 75.14 73.375 75.1953 72.6523 75.1953ZM72.2129 65.459C71.3535 65.459 70.6667 65.7389 70.1523 66.2988C69.6445 66.8587 69.3451 67.6335 69.2539 68.623H74.8496C74.8496 67.6009 74.6217 66.8197 74.166 66.2793C73.7103 65.7324 73.0592 65.459 72.2129 65.459ZM91.0801 67.5195H95.9336V74.4629C95.1784 74.7038 94.4102 74.8861 93.6289 75.0098C92.8477 75.1335 91.9427 75.1953 90.9141 75.1953C88.7526 75.1953 87.0697 74.554 85.8652 73.2715C84.6608 71.9824 84.0586 70.179 84.0586 67.8613C84.0586 66.377 84.3548 65.0781 84.9473 63.9648C85.5462 62.8451 86.4056 61.9922 87.5254 61.4062C88.6452 60.8138 89.957 60.5176 91.4609 60.5176C92.9844 60.5176 94.4036 60.7975 95.7188 61.3574L95.0742 62.8223C93.7852 62.2754 92.5449 62.002 91.3535 62.002C89.6152 62.002 88.2578 62.5195 87.2812 63.5547C86.3047 64.5898 85.8164 66.0254 85.8164 67.8613C85.8164 69.7884 86.2852 71.25 87.2227 72.2461C88.1667 73.2422 89.5501 73.7402 91.373 73.7402C92.3626 73.7402 93.3294 73.6263 94.2734 73.3984V69.0039H91.0801V67.5195ZM100.65 64.2969V71.2402C100.65 72.1126 100.849 72.7637 101.246 73.1934C101.643 73.623 102.265 73.8379 103.111 73.8379C104.231 73.8379 105.048 73.5319 105.562 72.9199C106.083 72.3079 106.344 71.3086 106.344 69.9219V64.2969H107.965V75H106.627L106.393 73.5645H106.305C105.973 74.0918 105.51 74.4954 104.918 74.7754C104.332 75.0553 103.661 75.1953 102.906 75.1953C101.604 75.1953 100.628 74.8861 99.9766 74.2676C99.332 73.6491 99.0098 72.6595 99.0098 71.2988V64.2969H100.65ZM113.033 75H111.412V64.2969H113.033V75ZM111.275 61.3965C111.275 61.0254 111.367 60.7552 111.549 60.5859C111.731 60.4102 111.959 60.3223 112.232 60.3223C112.493 60.3223 112.717 60.4102 112.906 60.5859C113.095 60.7617 113.189 61.0319 113.189 61.3965C113.189 61.7611 113.095 62.0345 112.906 62.2168C112.717 62.3926 112.493 62.4805 112.232 62.4805C111.959 62.4805 111.731 62.3926 111.549 62.2168C111.367 62.0345 111.275 61.7611 111.275 61.3965ZM123.756 73.5645H123.668C122.919 74.6517 121.799 75.1953 120.309 75.1953C118.909 75.1953 117.818 74.7168 117.037 73.7598C116.262 72.8027 115.875 71.4421 115.875 69.6777C115.875 67.9134 116.266 66.543 117.047 65.5664C117.828 64.5898 118.915 64.1016 120.309 64.1016C121.76 64.1016 122.874 64.6289 123.648 65.6836H123.775L123.707 64.9121L123.668 64.1602V59.8047H125.289V75H123.971L123.756 73.5645ZM120.514 73.8379C121.62 73.8379 122.421 73.5384 122.916 72.9395C123.417 72.334 123.668 71.3607 123.668 70.0195V69.6777C123.668 68.1608 123.414 67.0801 122.906 66.4355C122.405 65.7845 121.601 65.459 120.494 65.459C119.544 65.459 118.814 65.8301 118.307 66.5723C117.805 67.3079 117.555 68.3496 117.555 69.6973C117.555 71.0645 117.805 72.0964 118.307 72.793C118.808 73.4896 119.544 73.8379 120.514 73.8379ZM133.258 75.1953C131.676 75.1953 130.426 74.7135 129.508 73.75C128.596 72.7865 128.141 71.4486 128.141 69.7363C128.141 68.0111 128.564 66.6406 129.41 65.625C130.263 64.6094 131.406 64.1016 132.838 64.1016C134.179 64.1016 135.24 64.5443 136.021 65.4297C136.803 66.3086 137.193 67.4707 137.193 68.916V69.9414H129.82C129.853 71.1979 130.169 72.1517 130.768 72.8027C131.373 73.4538 132.223 73.7793 133.316 73.7793C134.469 73.7793 135.608 73.5384 136.734 73.0566V74.502C136.161 74.7493 135.618 74.9251 135.104 75.0293C134.596 75.14 133.98 75.1953 133.258 75.1953ZM132.818 65.459C131.959 65.459 131.272 65.7389 130.758 66.2988C130.25 66.8587 129.951 67.6335 129.859 68.623H135.455C135.455 67.6009 135.227 66.8197 134.771 66.2793C134.316 65.7324 133.665 65.459 132.818 65.459ZM146.871 72.0801C146.871 73.0762 146.5 73.8444 145.758 74.3848C145.016 74.9251 143.974 75.1953 142.633 75.1953C141.214 75.1953 140.107 74.9707 139.312 74.5215V73.0176C139.827 73.278 140.377 73.4831 140.963 73.6328C141.555 73.7826 142.125 73.8574 142.672 73.8574C143.518 73.8574 144.169 73.724 144.625 73.457C145.081 73.1836 145.309 72.7702 145.309 72.2168C145.309 71.8001 145.126 71.4453 144.762 71.1523C144.404 70.8529 143.701 70.5013 142.652 70.0977C141.656 69.7266 140.947 69.4043 140.523 69.1309C140.107 68.8509 139.794 68.5352 139.586 68.1836C139.384 67.832 139.283 67.4121 139.283 66.9238C139.283 66.0514 139.638 65.3646 140.348 64.8633C141.057 64.3555 142.031 64.1016 143.268 64.1016C144.42 64.1016 145.546 64.3359 146.646 64.8047L146.07 66.123C144.996 65.6803 144.023 65.459 143.15 65.459C142.382 65.459 141.803 65.5794 141.412 65.8203C141.021 66.0612 140.826 66.3932 140.826 66.8164C140.826 67.1029 140.898 67.347 141.041 67.5488C141.191 67.7507 141.428 67.9427 141.754 68.125C142.079 68.3073 142.704 68.571 143.629 68.916C144.898 69.3783 145.755 69.8438 146.197 70.3125C146.646 70.7812 146.871 71.3704 146.871 72.0801Z" fill="#19324A"/>
<g clip-path="url(#clip0)">
<path opacity="0.4" d="M104.501 4.412V28.1664C104.501 29.3075 103.577 30.2596 102.391 30.3222C98.9129 30.505 91.8781 31.1729 87.0139 33.6212C86.265 33.9981 85.377 33.4848 85.377 32.6727V7.0881C85.3757 6.90288 85.422 6.72043 85.5115 6.55828C85.601 6.39612 85.7307 6.25969 85.8882 6.16208C90.616 3.26802 98.2744 2.47208 102.13 2.25341C103.421 2.17958 104.501 3.16396 104.501 4.412Z" fill="#808D9B"/>
<path d="M82.6138 6.16208C77.8867 3.26802 70.2283 2.47278 66.3752 2.25341C65.08 2.17958 64 3.16396 64 4.412V28.1671C64 29.309 64.9232 30.261 66.1094 30.3229C69.5891 30.5057 76.6274 31.1743 81.4916 33.624C82.2384 34.0002 83.1236 33.4876 83.1236 32.6776V7.07544C83.125 6.89208 83.0788 6.71149 82.9895 6.55137C82.9001 6.39126 82.7707 6.25711 82.6138 6.16208Z" fill="#808D9B"/>
</g>
<defs>
<clipPath id="clip0">
<rect width="40.5" height="36" fill="white" transform="translate(64)"/>
</clipPath>
</defs>
</svg>
