<svg width="90" height="90" viewBox="0 0 90 90" fill="none" xmlns="http://www.w3.org/2000/svg">
<path d="M37.9708 60.8208C38.9417 60.8208 39.7287 60.0338 39.7287 59.063C39.7287 58.0922 38.9417 57.3052 37.9708 57.3052C36.9999 57.3052 36.2129 58.0922 36.2129 59.063C36.2129 60.0338 36.9999 60.8208 37.9708 60.8208Z" fill="#4C5F72"/>
<path d="M7.0332 23.9062V30.9375C7.0332 31.9083 7.82022 32.6953 8.79111 32.6953H59.5945C60.5652 32.6953 61.3524 31.9083 61.3524 30.9375V23.9062C61.3524 22.9354 60.5652 22.1484 59.5945 22.1484H8.79111C7.82022 22.1484 7.0332 22.9354 7.0332 23.9062ZM25.667 25.6641H57.8366V29.1797H25.667V25.6641ZM10.549 25.6641H22.1512V29.1797H10.549V25.6641Z" fill="#4C5F72"/>
<path d="M8.79111 39.7271H59.5945C60.5652 39.7271 61.3524 38.9401 61.3524 37.9692C61.3524 36.9984 60.5652 36.2114 59.5945 36.2114H8.79111C7.82022 36.2114 7.0332 36.9984 7.0332 37.9692C7.0332 38.9401 7.82022 39.7271 8.79111 39.7271Z" fill="#4C5F72"/>
<path d="M8.79111 46.7578H59.5945C60.5652 46.7578 61.3524 45.9708 61.3524 45C61.3524 44.0292 60.5652 43.2422 59.5945 43.2422H8.79111C7.82022 43.2422 7.0332 44.0292 7.0332 45C7.0332 45.9708 7.82022 46.7578 8.79111 46.7578Z" fill="#4C5F72"/>
<path d="M8.79111 53.7886H37.9723C38.9432 53.7886 39.7302 53.0016 39.7302 52.0308C39.7302 51.0599 38.9432 50.2729 37.9723 50.2729H8.79111C7.82022 50.2729 7.0332 51.0599 7.0332 52.0308C7.0332 53.0016 7.82022 53.7886 8.79111 53.7886Z" fill="#4C5F72"/>
<path d="M8.79111 60.8208H30.9407C31.9116 60.8208 32.6986 60.0338 32.6986 59.063C32.6986 58.0921 31.9116 57.3052 30.9407 57.3052H8.79111C7.82022 57.3052 7.0332 58.0921 7.0332 59.063C7.0332 60.0338 7.82022 60.8208 8.79111 60.8208Z" fill="#4C5F72"/>
<path d="M23.9063 74.8828H32.8727C33.6894 78.8897 37.2406 81.9141 41.4854 81.9141C46.3319 81.9141 50.2749 77.9713 50.2749 73.125C50.2749 68.2787 46.3319 64.3359 41.4854 64.3359C37.2407 64.3359 33.6894 67.3603 32.8727 71.3672H23.9063C22.9355 71.3672 22.1484 72.1542 22.1484 73.125C22.1484 74.0958 22.9355 74.8828 23.9063 74.8828ZM41.4854 71.3672H36.514C37.2397 69.3213 39.1936 67.8516 41.4854 67.8516C44.3933 67.8516 46.7591 70.2172 46.7591 73.125C46.7591 76.0328 44.3933 78.3984 41.4854 78.3984C39.1938 78.3984 37.2397 76.9287 36.514 74.8828H41.4854C42.4561 74.8828 43.2433 74.0958 43.2433 73.125C43.2433 72.1542 42.4563 71.3672 41.4854 71.3672Z" fill="#4C5F72"/>
<path d="M59.5921 14.0625C60.5628 14.0625 61.35 13.2755 61.35 12.3047C61.35 11.3338 60.5628 10.5469 59.5921 10.5469H56.0763C55.1055 10.5469 54.3184 11.3338 54.3184 12.3047C54.3184 13.2755 55.1055 14.0625 56.0763 14.0625H59.5921Z" fill="#4C5F72"/>
<path d="M49.0452 14.0625C50.0159 14.0625 50.8031 13.2755 50.8031 12.3047C50.8031 11.3338 50.0159 10.5469 49.0452 10.5469H45.5294C44.5587 10.5469 43.7715 11.3338 43.7715 12.3047C43.7715 13.2755 44.5587 14.0625 45.5294 14.0625H49.0452Z" fill="#4C5F72"/>
<path d="M38.4983 14.0625C39.4692 14.0625 40.2562 13.2755 40.2562 12.3047C40.2562 11.3338 39.4692 10.5469 38.4983 10.5469H34.9825C34.0116 10.5469 33.2246 11.3338 33.2246 12.3047C33.2246 13.2755 34.0116 14.0625 34.9825 14.0625H38.4983Z" fill="#4C5F72"/>
<path d="M34.4552 90C35.426 90 36.2131 89.213 36.2131 88.2422C36.2131 87.2714 35.426 86.4844 34.4552 86.4844C33.4843 86.4844 32.6973 87.2714 32.6973 88.2422C32.6973 89.213 33.4843 90 34.4552 90Z" fill="#4C5F72"/>
<path d="M1.7579 90H26.5443C27.5152 90 28.3022 89.213 28.3022 88.2422C28.3022 87.2713 27.5152 86.4844 26.5443 86.4844H3.51581V17.5781H15.8211C16.792 17.5781 17.579 16.7912 17.579 15.8203V3.51562H64.8666V53.2006C64.0692 54.144 63.3246 54.9722 62.6803 55.6332L58.9535 51.9066C55.5195 48.4704 49.9578 48.4689 46.5225 51.9063L44.0369 54.3918C43.3504 55.0782 43.3504 56.1913 44.0369 56.8777L64.8664 77.7062V86.4844H42.3653C41.3944 86.4844 40.6074 87.2713 40.6074 88.2422C40.6074 89.213 41.3944 90 42.3653 90H66.6243C67.595 90 68.3822 89.213 68.3822 88.2422V81.2218L68.8971 81.7367C69.5836 82.4226 70.6969 82.4231 71.3833 81.7367L73.869 79.2512C77.3036 75.8167 77.3043 70.2562 73.869 66.8213L70.1428 63.0951C73.4773 59.8461 80.8122 54.4495 84.666 52.7711C90.0755 50.4165 92.0274 43.062 87.4121 38.4469C82.8315 33.8643 75.5093 35.7263 73.1105 41.1509C72.2108 43.184 70.3469 46.0426 68.3824 48.7213V1.75781C68.3824 0.786973 67.5952 0 66.6245 0H15.8211C15.3417 0 14.8912 0.202148 14.5781 0.514863L0.51489 14.5774C0.196885 14.8946 0 15.3432 0 15.8203V88.2422C0 89.213 0.787013 90 1.7579 90ZM71.3828 69.3072C73.4436 71.3677 73.4439 74.7042 71.3828 76.7653L70.1403 78.0079L47.7661 55.6348L49.0091 54.3918C51.0697 52.3302 54.4053 52.3292 56.4672 54.3922L71.3828 69.3072ZM68.0023 54.9322C71.0488 51.2582 74.804 46.0118 76.3257 42.5732C77.6921 39.4835 82.0346 38.0403 84.9258 40.9326C87.8183 43.8249 86.3489 48.2045 83.2625 49.5478C78.8883 51.4529 71.275 57.0713 67.6566 60.609L65.1665 58.1191C65.9999 57.2664 66.9736 56.1732 68.0023 54.9322ZM14.0632 6.00152V14.0625H6.00183L14.0632 6.00152Z" fill="#4C5F72"/>
</svg>
