<svg width="24" height="24" viewBox="0 0 24 24" fill="none" xmlns="http://www.w3.org/2000/svg">
<path fill-rule="evenodd" clip-rule="evenodd" d="M11.9974 1.60156H12.0026C17.7369 1.60156 22.4 6.26726 22.4 12.0016C22.4 17.7359 17.7369 22.4016 12.0026 22.4016C9.88748 22.4016 7.92578 21.7724 6.28128 20.683L2.28378 21.9609L3.57988 18.0973C2.33318 16.3852 1.59998 14.2766 1.59998 12.0016C1.59998 6.26596 6.26308 1.60156 11.9974 1.60156ZM16.0131 17.7554C16.8074 17.5838 17.8032 16.9962 18.0541 16.2877C18.305 15.5779 18.305 14.9734 18.2322 14.8447C18.1734 14.7426 18.0344 14.6757 17.8269 14.5758C17.7729 14.5498 17.7142 14.5215 17.6511 14.4898C17.3456 14.3377 15.8597 13.6032 15.5789 13.5057C15.3033 13.4017 15.0407 13.4381 14.8327 13.7319C14.7931 13.7873 14.7536 13.8428 14.7144 13.898C14.4635 14.251 14.2214 14.5914 14.0202 14.8083C13.8369 15.0033 13.5379 15.028 13.287 14.924C13.2596 14.9126 13.2283 14.9 13.1932 14.8858C12.7959 14.7253 11.9148 14.3695 10.8482 13.4199C9.94858 12.6191 9.33758 11.622 9.16078 11.323C8.9872 11.0231 9.13693 10.8472 9.27531 10.6846C9.27787 10.6816 9.28043 10.6786 9.28298 10.6756C9.3722 10.5652 9.45878 10.4733 9.54579 10.3809C9.60839 10.3145 9.6712 10.2478 9.73538 10.1738C9.74491 10.1628 9.75418 10.1522 9.76321 10.1418C9.89949 9.98511 9.98064 9.89181 10.0721 9.69673C10.1761 9.49523 10.102 9.28723 10.0279 9.13383C9.9769 9.0264 9.66193 8.26221 9.39157 7.60622C9.27588 7.32554 9.16837 7.06467 9.09318 6.88353C8.89168 6.40123 8.73828 6.38303 8.43278 6.37003C8.42342 6.36956 8.41396 6.36908 8.40441 6.3686C8.30784 6.36371 8.2015 6.35833 8.08438 6.35833C7.68658 6.35833 7.27188 6.47533 7.02098 6.73143C7.01221 6.74038 7.00308 6.74968 6.99359 6.75932C6.67261 7.08577 5.95758 7.81296 5.95758 9.26253C5.95758 10.7149 6.9881 12.1205 7.17877 12.3806C7.18403 12.3877 7.18864 12.394 7.19258 12.3994C7.20405 12.4145 7.22568 12.4458 7.25715 12.4914C7.64648 13.0552 9.54276 15.8013 12.3705 16.9728C14.7599 17.9634 15.4697 17.8711 16.0131 17.7554Z" fill="#25D366"/>
</svg>
