<svg width="24" height="17" viewBox="0 0 24 17" fill="none" xmlns="http://www.w3.org/2000/svg">
<path d="M22.9193 3.08934C22.6617 2.11932 21.9026 1.35537 20.9389 1.09611C19.192 0.625 12.1873 0.625 12.1873 0.625C12.1873 0.625 5.18267 0.625 3.43577 1.09611C2.47203 1.35541 1.71299 2.11932 1.45538 3.08934C0.987305 4.84756 0.987305 8.51591 0.987305 8.51591C0.987305 8.51591 0.987305 12.1843 1.45538 13.9425C1.71299 14.9125 2.47203 15.6446 3.43577 15.9039C5.18267 16.375 12.1873 16.375 12.1873 16.375C12.1873 16.375 19.192 16.375 20.9389 15.9039C21.9026 15.6446 22.6617 14.9125 22.9193 13.9425C23.3873 12.1843 23.3873 8.51591 23.3873 8.51591C23.3873 8.51591 23.3873 4.84756 22.9193 3.08934ZM9.89639 11.8465V5.18532L15.7509 8.516L9.89639 11.8465Z" fill="white"/>
</svg>
